<?xml version="1.0" encoding="utf-8"?>
<!-- Generator: Adobe Illustrator 19.0.1, SVG Export Plug-In . SVG Version: 6.00 Build 0)  -->
<svg version="1.1" id="Logo_color" xmlns="http://www.w3.org/2000/svg" xmlns:xlink="http://www.w3.org/1999/xlink" x="0px" y="0px"
	 viewBox="0 0 100 100" style="enable-background:new 0 0 100 100;" xml:space="preserve">
<style type="text/css">
	.st0{fill:url(#SVGID_1_);}
	.st1{fill:url(#SVGID_2_);}
	.st2{fill:url(#SVGID_3_);}
</style>
<g>
	<linearGradient id="SVGID_1_" gradientUnits="userSpaceOnUse" x1="10.9267" y1="71.6832" x2="30.4753" y2="37.8241">
		<stop  offset="0" style="stop-color:#00DAD9"/>
		<stop  offset="1" style="stop-color:#095FA7"/>
	</linearGradient>
	<path class="st0" d="M6.1,31.5c2.6-2.7,6.8-3.4,10.3-1.5l35.2,20L16.3,70c-3.4,1.9-7.7,1.2-10.3-1.5C6.1,68.5,6.1,29.1,6.1,31.5z"
		/>
	<linearGradient id="SVGID_2_" gradientUnits="userSpaceOnUse" x1="36.7104" y1="6.8984" x2="59.2447" y2="45.9289">
		<stop  offset="0" style="stop-color:#0BF7DF"/>
		<stop  offset="1" style="stop-color:#0095FF"/>
	</linearGradient>
	<path class="st1" d="M89.9,21.3c0.9,3.5-0.5,7.3-3.9,9.2L51.6,50L16.3,30c-3.4-1.9-7.7-1.2-10.3,1.5c0-4.3,2.4-8.3,6.3-10.5
		L44.7,2.6c3.9-2.2,8.6-2.2,12.5,0L89.9,21.3z"/>
	<linearGradient id="SVGID_3_" gradientUnits="userSpaceOnUse" x1="100.8129" y1="36.4016" x2="20.3726" y2="92.7265">
		<stop  offset="0" style="stop-color:#00FCC6"/>
		<stop  offset="1" style="stop-color:#0095FF"/>
	</linearGradient>
	<path class="st2" d="M16.3,70L86,30.5c3.3-1.9,4.1-5.7,3.2-9.2c3.7,2.2,5.2,6.2,5.2,10.4v36.7c0,4.4-1.7,8.4-5.5,10.6l-32,18.3
		c-3.9,2.2-8.5,2.2-12.3,0L12.2,79C8.4,76.8,6.1,72.8,6,68.5C8.6,71.2,12.9,71.9,16.3,70z"/>
</g>
</svg>
