<svg xmlns="http://www.w3.org/2000/svg" xmlns:xlink="http://www.w3.org/1999/xlink" width="173" height="173" viewBox="0 0 173 173">
  <defs>
    <path id="1sg-coin-b" d="M55.2137525,159.73879 L14.2612103,118.786247 C13.5110648,118.036102 13.0896374,117.018686 13.0896374,115.95782 L13.0896374,58.0421797 C13.0896374,56.9813137 13.5110648,55.963898 14.2612103,55.2137525 L55.2137525,14.2612103 C55.963898,13.5110648 56.9813137,13.0896374 58.0421797,13.0896374 L115.95782,13.0896374 C117.018686,13.0896374 118.036102,13.5110648 118.786247,14.2612103 L159.73879,55.2137525 C160.488935,55.963898 160.910363,56.9813137 160.910363,58.0421797 L160.910363,115.95782 C160.910363,117.018686 160.488935,118.036102 159.73879,118.786247 L118.786247,159.73879 C118.036102,160.488935 117.018686,160.910363 115.95782,160.910363 L58.0421797,160.910363 C56.9813137,160.910363 55.963898,160.488935 55.2137525,159.73879 L55.2137525,159.73879 Z"/>
    <filter id="1sg-coin-a" width="105.4%" height="105.4%" x="-1.4%" y="-4.1%" filterUnits="objectBoundingBox">
      <feMorphology in="SourceAlpha" operator="dilate" radius=".5" result="shadowSpreadOuter1"/>
      <feOffset dx="3" dy="-3" in="shadowSpreadOuter1" result="shadowOffsetOuter1"/>
      <feColorMatrix in="shadowOffsetOuter1" values="0 0 0 0 0.2088   0 0 0 0 0.26172   0 0 0 0 0.36  0 0 0 1 0"/>
    </filter>
    <filter id="1sg-coin-c" width="104.7%" height="104.7%" x="-1%" y="-3.7%" filterUnits="objectBoundingBox">
      <feOffset dx="-3" dy="3" in="SourceAlpha" result="shadowOffsetInner1"/>
      <feComposite in="shadowOffsetInner1" in2="SourceAlpha" k2="-1" k3="1" operator="arithmetic" result="shadowInnerInner1"/>
      <feColorMatrix in="shadowInnerInner1" values="0 0 0 0 0.3933   0 0 0 0 0.4522   0 0 0 0 0.57  0 0 0 1 0"/>
    </filter>
  </defs>
  <g fill="none" fill-rule="evenodd">
    <circle cx="86.5" cy="86.5" r="86.5" fill="#FFF" fill-rule="nonzero"/>
    <g fill-rule="nonzero">
      <use fill="#000" filter="url(#1sg-coin-a)" xlink:href="#1sg-coin-b"/>
      <use fill="#D7DDED" xlink:href="#1sg-coin-b"/>
      <use fill="#000" filter="url(#1sg-coin-c)" xlink:href="#1sg-coin-b"/>
    </g>
    <g fill="#F97D3E" transform="translate(52 36)">
      <g transform="translate(0 75.496)">
        <path d="M21.7923037 4.81866734C21.7923037 1.95259839 23.3907135.51852285 26.585972.51852285L31.9499062.51852285 37.3143607.51852285C40.5106598.51852285 42.1080289 1.95259839 42.1080289 4.81866734L42.1080289 6.22723664 38.9122501 6.22723664 38.9122501 4.81866734C38.9122501 4.36267817 38.7920572 4.00767289 38.5506307 3.75365153 38.3097246 3.49910963 37.8976346 3.37261948 37.3143607 3.37261948L31.9499062 3.37261948 26.585972 3.37261948C25.5208858 3.37261948 24.9886029 3.86660775 24.9886029 4.85718697L24.9886029 10.3373856C24.9886029 11.2769524 25.5208858 11.7464755 26.585972 11.7464755L37.3143607 11.7464755C40.5106598 11.7464755 42.1080289 13.1800305 42.1080289 16.0471405L42.1080289 21.9463703C42.1080289 24.7884946 40.5106598 26.2085157 37.3143607 26.2085157L31.9499062 26.2085157 26.585972 26.2085157C23.3907135 26.2085157 21.7923037 24.7884946 21.7923037 21.9463703L21.7923037 20.4998019 24.9886029 20.4998019 24.9886029 21.9463703C24.9886029 22.4023595 25.1082755 22.7521594 25.3497019 22.9926468 25.5906081 23.2336548 26.0021778 23.3544191 26.585972 23.3544191L31.9499062 23.3544191 37.3143607 23.3544191C37.8721391 23.3544191 38.2785056 23.2279289 38.5324197 22.973387 38.7852931 22.7198862 38.9122501 22.3784149 38.9122501 21.9463703L38.9122501 16.0471405C38.9122501 15.5385772 38.7920572 15.1710791 38.5506307 14.942564 38.3097246 14.7140489 37.8976346 14.6005721 37.3143607 14.6005721L26.585972 14.6005721C23.3907135 14.6005721 21.7923037 13.1800305 21.7923037 10.3373856L21.7923037 4.81866734zM68.5099385 14.790932L68.5099385 21.9462142C68.5099385 24.7883385 66.9120491 26.2088801 63.7162703 26.2088801L58.3523361 26.2088801 52.9878816 26.2088801C49.7921027 26.2088801 48.1942133 24.7883385 48.1942133 21.9462142L48.1942133 14.8669302 48.1942133 11.9357943 48.1942133 4.81903172C48.1942133 1.95244223 49.7921027.518366689 52.9878816.518366689L58.3523361.518366689 63.7162703.518366689C66.9120491.518366689 68.5099385 1.95244223 68.5099385 4.81903172L68.5099385 6.22708048 65.3136394 6.22708048 65.3136394 4.81903172C65.3136394 4.36304254 65.1934465 4.00751673 64.9525403 3.75349537 64.7116342 3.499474 64.2995441 3.37246332 63.7162703 3.37246332L58.3523361 3.37246332 52.9878816 3.37246332C51.9222751 3.37246332 51.3899921 3.86697213 51.3899921 4.85703081L51.3899921 11.9357943 51.3899921 14.8669302 51.3899921 21.9462142C51.3899921 22.4022033 51.5096647 22.7520032 51.7516115 22.9930112 51.9925177 23.2340192 52.4040874 23.3542629 52.9878816 23.3542629L58.3523361 23.3542629 63.7162703 23.3542629C64.2735284 23.3542629 64.6798949 23.2277728 64.9338089 22.9737514 65.1866824 22.71973 65.3136394 22.3782587 65.3136394 21.9462142L65.3136394 17.6445081 59.9502255 17.6445081 59.9502255 14.790932 68.5099385 14.790932z"/>
        <polygon points="16.264 26.209 .588 26.209 .588 23.252 6.927 23.252 6.927 13.354 6.927 10.14 6.927 3.456 .588 3.456 .588 .498 10.226 .498 10.226 10.14 10.226 13.354 10.226 23.252 16.264 23.252"/>
      </g>
      <path d="M37.8864496,53.0043968 C42.5149104,51.6521456 45.8286913,48.088675 45.8286913,43.8929184 C45.8286913,39.0812708 41.4759687,35.0986523 35.7712853,34.3344914 C35.7825399,34.3344914 35.7923877,34.335917 35.8036423,34.335917 C38.4794272,34.335917 40.940671,33.515442 42.9221868,32.1439443 L42.9221868,36.4302312 C43.8366243,37.1580374 44.6181167,37.9927692 45.2343069,38.9109028 L45.2343069,30.1465759 L42.9221868,30.1465759 L36.7849041,30.1465759 L36.7539539,30.1465759 L36.728631,30.1465759 L36.6871296,30.1465759 L36.6871296,30.1458631 C32.598187,30.1194881 29.2949573,27.6822995 29.2949573,24.6784057 C29.2949573,21.6574039 32.6340611,19.2095228 36.7539539,19.2095228 C39.8686688,19.2095228 42.5353094,20.6109597 43.6516266,22.5990612 L43.904152,22.5990612 L43.904152,15.6111232 C42.2680122,14.2018451 40.1915356,13.220269 37.8864496,12.8446041 L37.8864496,9.88062917 L34.3229569,9.88062917 L34.3229569,12.7633407 C28.4902523,13.4312687 23.9736343,17.9798795 23.9736343,23.5022252 C23.9736343,28.932615 28.3425354,33.4163577 34.0331505,34.2011909 C33.9494443,34.1997652 33.8685518,34.1904984 33.7848456,34.1904984 C31.7090724,34.1904984 29.7556931,34.6139233 28.0520257,35.3588377 L28.0520257,38.6450147 L28.0520257,47.4898922 C27.191751,47.0465078 26.4587941,46.4741 25.9256067,45.7983308 L25.9220896,45.7983308 L25.9220896,51.2379875 C28.0323301,52.7050054 30.7791598,53.5939127 33.7848456,53.5939127 C33.9663263,53.5939127 34.1435865,53.5789431 34.3229569,53.5725276 L34.3229569,55.9776385 L37.8864496,55.9776385 L37.8864496,53.0043968 Z M34.9011628,0 L67.3953488,32.9287774 L34.9011628,65.8582677 L2.40697674,32.9287774 L34.9011628,0 Z M31.6027776,38.074311 C35.6674397,38.074311 38.962936,40.3779076 38.962936,43.2191466 C38.962936,46.0603857 35.6674397,48.3646654 31.6027776,48.3646654 C30.612612,48.3646654 29.6701131,48.2246187 28.8085029,47.9773168 L28.8085029,38.4732732 C29.6722797,38.224605 30.6097231,38.074311 31.6027776,38.074311 Z"/>
    </g>
  </g>
</svg>