<?xml version="1.0" encoding="UTF-8"?>
<svg width="140px" height="30px" viewBox="0 0 140 30" version="1.1" xmlns="http://www.w3.org/2000/svg" xmlns:xlink="http://www.w3.org/1999/xlink">
    <!-- Generator: Sketch 54 (76480) - https://sketchapp.com -->
    <title>Group</title>
    <desc>Created with Sketch.</desc>
    <defs>
        <polygon id="path-1" points="5.99937374e-05 0.193333333 14.57 0.193333333 14.57 29.3332733 5.99937374e-05 29.3332733"></polygon>
        <polygon id="path-3" points="0 29.8068667 139.876 29.8068667 139.876 0.666866667 0 0.666866667"></polygon>
    </defs>
    <g id="Page-1" stroke="none" stroke-width="1" fill="none" fill-rule="evenodd">
        <g id="PUBG_Royale_Lander-Copy-5" transform="translate(-29.000000, -20.000000)">
            <g id="HEADER" transform="translate(-1.000000, 0.000000)">
                <g id="Group" transform="translate(30.000000, 20.000000)">
                    <g id="Group-3" transform="translate(0.000000, 0.473533)">
                        <mask id="mask-2" fill="white">
                            <use xlink:href="#path-1"></use>
                        </mask>
                        <g id="Clip-2"></g>
                        <path d="M1.09866667,14.7633333 L5.41466667,14.7633333 C6.02,14.7633333 6.51066667,15.254 6.51066667,15.86 L6.51066667,22.368 C6.51066667,22.6593333 6.62666667,22.938 6.832,23.1433333 L12.698,29.01 C13.3893333,29.7006667 14.57,29.2113333 14.57,28.2346667 L14.57,1.29133333 C14.57,0.314666667 13.3893333,-0.174 12.698,0.516666667 L0.323333333,12.8913333 C-0.367333333,13.5826667 0.122,14.7633333 1.09866667,14.7633333" id="Fill-1" fill="#C60300" mask="url(#mask-2)"></path>
                    </g>
                    <polygon id="Fill-4" fill="#FFFFFF" points="32.0452667 10.7469333 27.2079333 10.7469333 27.2079333 13.9449333 30.7459333 13.9449333 30.7459333 16.3436 27.2079333 16.3436 27.2079333 22.1402667 24.4492667 22.1402667 24.4492667 8.08826667 32.0452667 8.08826667"></polygon>
                    <mask id="mask-4" fill="white">
                        <use xlink:href="#path-3"></use>
                    </mask>
                    <g id="Clip-7"></g>
                    <polygon id="Fill-6" fill="#FFFFFF" mask="url(#mask-4)" points="34.844 22.1808667 37.602 22.1808667 37.602 8.08886667 34.844 8.08886667"></polygon>
                    <path d="M43.8385333,10.7271333 L43.8385333,15.9238 L45.2178667,15.9238 C46.4172,15.9238 47.5365333,15.4044667 47.5365333,13.5458 L47.5365333,13.1451333 C47.5365333,11.2064667 46.4572,10.7271333 45.2178667,10.7271333 L43.8385333,10.7271333 Z M41.0805333,22.1804667 L41.0805333,8.08846667 L45.5578667,8.08846667 C48.3765333,8.08846667 50.2752,9.9078 50.2752,13.1858 L50.2752,13.5858 C50.2752,15.7644667 49.3358667,17.2231333 47.8165333,17.9031333 L50.1952,22.1804667 L47.1772,22.1804667 L45.2778667,18.5424667 L43.8385333,18.5424667 L43.8385333,22.1804667 L41.0805333,22.1804667 Z" id="Fill-8" fill="#FFFFFF" mask="url(#mask-4)"></path>
                    <path d="M52.6741333,11.9663333 C52.6741333,9.38766667 54.5128,7.82833333 57.3114667,7.82833333 C60.0301333,7.82833333 61.9088,9.647 61.9088,12.5456667 L59.1901333,12.5456667 C59.1901333,11.047 58.4508,10.347 57.2714667,10.347 C56.0921333,10.347 55.4321333,10.907 55.4321333,11.9663333 C55.4321333,14.7643333 62.0888,13.1056667 62.0888,18.143 C62.0888,20.821 60.1694667,22.4203333 57.3114667,22.4203333 C54.4528,22.4203333 52.4934667,20.5616667 52.4934667,17.543 L55.2521333,17.543 C55.2521333,19.1823333 56.0921333,19.8616667 57.3114667,19.8616667 C58.4701333,19.8616667 59.3301333,19.3223333 59.3301333,18.1623333 C59.3301333,15.4843333 52.6741333,16.9636667 52.6741333,11.9663333" id="Fill-9" fill="#FFFFFF" mask="url(#mask-4)"></path>
                    <polygon id="Fill-10" fill="#FFFFFF" mask="url(#mask-4)" points="72.5231333 10.7469333 69.5844667 10.7469333 69.5844667 22.1802667 66.8264667 22.1802667 66.8264667 10.7469333 63.8878 10.7469333 63.8878 8.08826667 72.5231333 8.08826667"></polygon>
                    <path d="M79.139,19.5620667 C80.1983333,19.5620667 81.1783333,19.3020667 81.1783333,17.9234 L81.1783333,17.7027333 C81.1783333,16.5040667 80.1983333,16.1840667 79.239,16.1840667 L77.5396667,16.1840667 L77.5396667,19.5620667 L79.139,19.5620667 Z M79.239,14.0454 C80.1383333,14.0454 81.0376667,13.7454 81.0376667,12.4460667 L81.0376667,12.2260667 C81.0376667,11.0067333 80.0383333,10.7274 78.9996667,10.7274 L77.5396667,10.7274 L77.5396667,14.0454 L79.239,14.0454 Z M74.7816667,8.08873333 L79.099,8.08873333 C81.8776667,8.08873333 83.777,9.3274 83.777,11.9260667 L83.777,12.1260667 C83.777,13.6454 83.117,14.6247333 81.9976667,15.1040667 C83.197,15.6240667 83.9163333,16.5834 83.9163333,18.1427333 L83.9163333,18.3227333 C83.9163333,20.9214 82.017,22.1807333 79.239,22.1807333 L74.7816667,22.1807333 L74.7816667,8.08873333 Z" id="Fill-11" fill="#FFFFFF" mask="url(#mask-4)"></path>
                    <polygon id="Fill-12" fill="#FFFFFF" mask="url(#mask-4)" points="94.2513333 22.1805333 86.8153333 22.1805333 86.8153333 8.08853333 89.5733333 8.08853333 89.5733333 19.5418667 94.2513333 19.5418667"></polygon>
                    <path d="M102.926133,17.6229333 L102.926133,12.6256 C102.926133,11.0469333 101.9868,10.4669333 100.9468,10.4669333 C99.9674667,10.4669333 98.9888,10.9869333 98.9888,12.6062667 L98.9888,17.6029333 C98.9888,19.1822667 99.9081333,19.7416 100.9468,19.7416 C101.886133,19.7416 102.926133,19.2422667 102.926133,17.6229333 M96.2094667,17.5229333 L96.2094667,12.7256 C96.2094667,9.84693333 98.1488,7.82893333 100.9468,7.82893333 C103.726133,7.82893333 105.6848,9.84693333 105.6848,12.7256 L105.6848,17.5229333 C105.6848,20.3816 103.726133,22.3802667 100.9468,22.3802667 C98.1488,22.3802667 96.2094667,20.3816 96.2094667,17.5229333" id="Fill-13" fill="#FFFFFF" mask="url(#mask-4)"></path>
                    <path d="M114.939133,17.6229333 L114.939133,12.6256 C114.939133,11.0469333 113.9998,10.4669333 112.960467,10.4669333 C111.981133,10.4669333 111.001133,10.9869333 111.001133,12.6062667 L111.001133,17.6029333 C111.001133,19.1822667 111.921133,19.7416 112.960467,19.7416 C113.8998,19.7416 114.939133,19.2422667 114.939133,17.6229333 M108.223133,17.5229333 L108.223133,12.7256 C108.223133,9.84693333 110.1618,7.82893333 112.960467,7.82893333 C115.739133,7.82893333 117.6978,9.84693333 117.6978,12.7256 L117.6978,17.5229333 C117.6978,20.3816 115.739133,22.3802667 112.960467,22.3802667 C110.1618,22.3802667 108.223133,20.3816 108.223133,17.5229333" id="Fill-14" fill="#FFFFFF" mask="url(#mask-4)"></path>
                    <path d="M123.414733,10.7271333 L123.414733,19.5618 L124.974067,19.5618 C126.2934,19.5618 127.292733,19.0424667 127.292733,16.2838 L127.292733,13.5458 C127.292733,12.0264667 126.892733,10.7271333 124.974067,10.7271333 L123.414733,10.7271333 Z M120.656733,22.1804667 L120.656733,8.08846667 L125.2934,8.08846667 C128.092733,8.08846667 130.0314,9.80713333 130.0314,13.2458 L130.0314,16.9631333 C130.0314,20.3618 128.092733,22.1804667 125.2934,22.1804667 L120.656733,22.1804667 Z" id="Fill-15" fill="#FFFFFF" mask="url(#mask-4)"></path>
                    <path d="M137.857733,3.62226667 L137.857733,5.02426667 L137.2184,5.02426667 L137.2184,2.22826667 L137.849733,2.22826667 L138.551733,3.83026667 L139.2524,2.22826667 L139.875733,2.22826667 L139.875733,5.02426667 L139.2444,5.02426667 L139.2444,3.61426667 L138.759067,4.6776 L138.335733,4.6776 L137.857733,3.62226667 Z M136.857067,2.82893333 L136.2324,2.82893333 L136.2324,5.02426667 L135.601067,5.02426667 L135.601067,2.82893333 L134.9844,2.82893333 L134.9844,2.22826667 L136.857067,2.22826667 L136.857067,2.82893333 Z" id="Fill-16" fill="#FFFFFF" mask="url(#mask-4)"></path>
                </g>
            </g>
        </g>
    </g>
</svg>