<svg xmlns="http://www.w3.org/2000/svg" xmlns:xlink="http://www.w3.org/1999/xlink" width="156.66" height="30.47" viewBox="0 0 156.66 30.47"><defs><linearGradient id="a" x1="37.53" y1="30.1" x2="56.66" y2="8.87" gradientTransform="matrix(1, 0, 0, -1, -17.08, 40.14)" gradientUnits="userSpaceOnUse"><stop offset="0" stop-color="#eba211"/><stop offset="0.22" stop-color="#ec9b12"/><stop offset="0.53" stop-color="#ef8817"/><stop offset="0.91" stop-color="#f4681d"/><stop offset="1" stop-color="#f55f1f"/></linearGradient><linearGradient id="b" x1="72.14" y1="24.9" x2="47.51" y2="24.9" gradientTransform="matrix(1, 0, 0, -1, -17.08, 40.14)" gradientUnits="userSpaceOnUse"><stop offset="0" stop-color="#fc3"/><stop offset="1" stop-color="#fe991b"/></linearGradient><linearGradient id="c" x1="47.51" y1="14.45" x2="57.56" y2="14.45" gradientTransform="matrix(1, 0, 0, -1, -17.08, 40.14)" gradientUnits="userSpaceOnUse"><stop offset="0" stop-color="#ff8321"/><stop offset="1" stop-color="#eba211"/></linearGradient><linearGradient id="d" x1="17.4" y1="30.1" x2="36.52" y2="8.86" gradientTransform="matrix(1, 0, 0, -1, -17.08, 40.14)" gradientUnits="userSpaceOnUse"><stop offset="0" stop-color="#5e7cdd"/><stop offset="0.3" stop-color="#5b76d6"/><stop offset="0.74" stop-color="#5166c3"/><stop offset="1" stop-color="#4a5ab4"/></linearGradient><linearGradient id="e" x1="52.01" y1="24.9" x2="27.38" y2="24.9" gradientTransform="matrix(1, 0, 0, -1, -17.08, 40.14)" gradientUnits="userSpaceOnUse"><stop offset="0" stop-color="#5e83ff"/><stop offset="0.41" stop-color="#5e7cfb"/><stop offset="1" stop-color="#5f69f1"/></linearGradient><linearGradient id="f" x1="27.38" y1="14.45" x2="37.43" y2="14.45" gradientTransform="matrix(1, 0, 0, -1, -17.08, 40.14)" gradientUnits="userSpaceOnUse"><stop offset="0" stop-color="#5e7cdd"/><stop offset="0.42" stop-color="#5b75de"/><stop offset="1" stop-color="#5263df"/></linearGradient></defs><title>owologo</title><path d="M110.45,21.91c0.13-.37.21-0.58,0.27-0.8,0.73-2.4,1.48-4.75,2.18-7.14a0.8,0.8,0,0,1,.89-0.7h0.08a8.62,8.62,0,0,0,1.07,0c-0.06.24-.1,0.42-0.15,0.61-1.1,3.54-2.23,7.07-3.3,10.62a0.8,0.8,0,0,1-1,.61h0a0.89,0.89,0,0,1-1.15-.62c-0.71-2.45-1.53-4.86-2.3-7.3-0.06-.2-0.14-0.39-0.26-0.8-0.13.35-.22,0.54-0.28,0.74-0.8,2.45-1.6,4.9-2.31,7.36-0.22.73-.68,0.58-1.16,0.61a0.8,0.8,0,0,1-1-.54C101,21,99.86,17.49,98.74,14c0-.15-0.09-0.32-0.16-0.59a14.56,14.56,0,0,1,1.72,0,0.86,0.86,0,0,1,.39.54q1.14,3.62,2.26,7.25L103.2,22c0.14-.35.22-0.54,0.29-0.74,0.8-2.4,1.55-4.86,2.3-7.3a0.68,0.68,0,0,1,.77-0.58h0c1.34,0.06,1-.19,1.41,1,0.74,2.28,1.46,4.58,2.19,6.86C110.24,21.37,110.32,21.56,110.45,21.91Z" transform="translate(-17.08 -10.47)" fill="#fff"/><path d="M124.95,25.26c-0.46,0-1.06-.07-1.6-0.18a4.8,4.8,0,0,1-4.26-4.62,12.25,12.25,0,0,1,.1-3.14,4.51,4.51,0,0,1,4.12-4,13,13,0,0,1,3.64,0,4.42,4.42,0,0,1,4,3.89,12.31,12.31,0,0,1,0,3.82c-0.39,2.46-2,3.83-4.62,4.12C125.94,25.2,125.51,25.22,124.95,25.26ZM120.84,19c0,0.54,0,.91.1,1.29a3.2,3.2,0,0,0,2.82,3,9.22,9.22,0,0,0,2.88-.07,3,3,0,0,0,2.4-2.34,6.62,6.62,0,0,0,0-3.31,3,3,0,0,0-2.5-2.49,10.26,10.26,0,0,0-3.12,0,2.9,2.9,0,0,0-2.34,2.31,13.79,13.79,0,0,0-.23,1.54h0Z" transform="translate(-17.08 -10.47)" fill="#fff"/><path d="M163.41,25.05V13.31c2.4,0.09,4.74-.22,7.07.33a3.77,3.77,0,0,1,3,3.13,11.59,11.59,0,0,1,0,4.65,4,4,0,0,1-3.2,3.33C168,25.28,165.75,25,163.41,25.05Zm1.85-5.86V22.8c0,0.26,0,.52.38,0.5,1.22-.06,2.45,0,3.66-0.18a2.6,2.6,0,0,0,2.4-2.58,14.9,14.9,0,0,0,0-2.83,2.4,2.4,0,0,0-2.24-2.4c-1.26-.18-2.56-0.15-3.84-0.21-0.37,0-.38.22-0.38,0.5v3.6h0Z" transform="translate(-17.08 -10.47)" fill="#fff"/><path d="M137.87,20.76V25h-1.79V13.37h0.06c2.1,0,4.22-.07,6.32.07s3,1.13,3.2,3c0.23,2.12-.54,3.42-2.4,4.11l-0.26.14,2.53,4.38h-1.81a0.86,0.86,0,0,1-.47-0.43c-0.66-1.1-1.31-2.22-1.93-3.34a0.86,0.86,0,0,0-.91-0.51C139.62,20.77,138.79,20.76,137.87,20.76Zm0-5.67V19c1.51,0,3,.08,4.45,0,1-.07,1.47-0.8,1.45-2s-0.48-1.8-1.55-1.87A37.3,37.3,0,0,0,137.92,15.08Z" transform="translate(-17.08 -10.47)" fill="#fff"/><path d="M158.78,23.32V25H150.9V13.37h1.8v9.26a0.57,0.57,0,0,0,.7.71h5.35Z" transform="translate(-17.08 -10.47)" fill="#fff"/><path d="M92.71,25h-2V15.77L89,16.5l-0.8-1.88a5.77,5.77,0,0,1,4.5-1.25V25Z" transform="translate(-17.08 -10.47)" fill="#fff"/><path d="M117.59,37.91a0.9,0.9,0,0,1-1.19-.44l0-.08c-0.59-1.14-1.25-2.25-1.88-3.37a1.19,1.19,0,0,0-.46-0.49v4.4h-0.87v-6.3c0.8-.25,1-0.21,1.34.5l1.73,3.09a1.15,1.15,0,0,0,.46.48V31.56h0.91v6.34h0Z" transform="translate(-17.08 -10.47)" fill="#fff"/><path d="M100,37.91a0.93,0.93,0,0,1-1.23-.45l0-.08a34.22,34.22,0,0,0-2.3-3.82v4.38H95.56V31.6a1,1,0,0,1,1.34.48l0,0.1c0.5,1,1.11,2,1.68,3a1.18,1.18,0,0,0,.46.48V31.56H100v6.34h0Z" transform="translate(-17.08 -10.47)" fill="#fff"/><path d="M92.91,34.72a14.08,14.08,0,0,1-.15,1.47,2.5,2.5,0,0,1-4.86-.09,11.55,11.55,0,0,1,0-2.82,2.53,2.53,0,0,1,4.84,0C92.83,33.74,92.85,34.25,92.91,34.72Zm-1,0a11.26,11.26,0,0,0-.14-1.26,1.28,1.28,0,0,0-1.44-1.1h0A1.22,1.22,0,0,0,89,33.42v0.07a11.53,11.53,0,0,0,0,2.5,1.26,1.26,0,0,0,1.3,1.21h0.14A1.31,1.31,0,0,0,91.83,36v0c0.07-.39.07-0.8,0.11-1.26h0Z" transform="translate(-17.08 -10.47)" fill="#fff"/><path d="M124.21,37.11v0.8h-3.62V31.58h3.6v0.8h-2.1c-0.46,0-.64.1-0.63,0.59,0,1.46-.15,1.19,1.19,1.21h1.39l0,0.88h-2a0.47,0.47,0,0,0-.6.57c0,1.46,0,1.46,1.46,1.46h1.28Z" transform="translate(-17.08 -10.47)" fill="#fff"/><path d="M103,37.89V31.56h0.92v5.53h2.58l0.06,0.8H103Z" transform="translate(-17.08 -10.47)" fill="#fff"/><path d="M110,38h-0.58l-0.29,0V31.58H110V38h0Z" transform="translate(-17.08 -10.47)" fill="#fff"/><polygon points="20.14 10.32 30.43 30.47 40.49 30.46 29.16 10.33 20.14 10.32" fill="url(#a)"/><polygon points="40.49 30.46 30.43 30.47 45.29 0 55.07 0 40.49 30.46" fill="url(#b)"/><polygon points="30.43 30.47 40.49 30.46 35.1 20.9 30.43 30.47" fill="url(#c)"/><polygon points="0 10.32 10.3 30.47 20.35 30.46 9.02 10.33 0 10.32" fill="url(#d)"/><polygon points="20.35 30.46 10.3 30.47 25.16 0 34.93 0 20.35 30.46" fill="url(#e)"/><polygon points="10.3 30.47 20.35 30.46 14.96 20.9 10.3 30.47" fill="url(#f)"/></svg>