<?xml version="1.0" encoding="UTF-8" standalone="no"?>
<!-- Generator: Adobe Illustrator 21.0.2, SVG Export Plug-In . SVG Version: 6.00 Build 0)  -->

<svg
   xmlns:dc="http://purl.org/dc/elements/1.1/"
   xmlns:cc="http://creativecommons.org/ns#"
   xmlns:rdf="http://www.w3.org/1999/02/22-rdf-syntax-ns#"
   xmlns:svg="http://www.w3.org/2000/svg"
   xmlns="http://www.w3.org/2000/svg"
   xmlns:sodipodi="http://sodipodi.sourceforge.net/DTD/sodipodi-0.dtd"
   xmlns:inkscape="http://www.inkscape.org/namespaces/inkscape"
   version="1.1"
   id="Layer_1"
   x="0px"
   y="0px"
   viewBox="0 0 586.3006 586.29999"
   xml:space="preserve"
   sodipodi:docname="abbcr.svg"
   width="586.3006"
   height="586.29999"
   inkscape:version="0.92.4 (33fec40, 2019-01-16)"><metadata
   id="metadata19"><rdf:RDF><cc:Work
       rdf:about=""><dc:format>image/svg+xml</dc:format><dc:type
         rdf:resource="http://purl.org/dc/dcmitype/StillImage" /><dc:title></dc:title></cc:Work></rdf:RDF></metadata><defs
   id="defs17" /><sodipodi:namedview
   pagecolor="#ffffff"
   bordercolor="#666666"
   borderopacity="1"
   objecttolerance="10"
   gridtolerance="10"
   guidetolerance="10"
   inkscape:pageopacity="0"
   inkscape:pageshadow="2"
   inkscape:window-width="1612"
   inkscape:window-height="920"
   id="namedview15"
   showgrid="false"
   fit-margin-top="0"
   fit-margin-left="0"
   fit-margin-right="0"
   fit-margin-bottom="0"
   inkscape:zoom="0.32777778"
   inkscape:cx="284.50006"
   inkscape:cy="298.5"
   inkscape:window-x="0"
   inkscape:window-y="27"
   inkscape:window-maximized="0"
   inkscape:current-layer="Layer_1" />
<style
   type="text/css"
   id="style2">
	.st0{fill:#FE9B00;}
	.st1{fill:#191C31;}
	.st2{fill:#FF9C00;}
</style>
<g
   id="g12"
   transform="translate(-75.499942,-72.2)">
	<path
   class="st0"
   d="M 661.8,365.4 C 662,525.8 532,658.5 368.7,658.5 205.3,658.5 75.4,525.7 75.5,365.2 c 0.1,-160.4 129.9,-293 293.3,-293 163.3,0.1 293.3,132.9 293,293.2 z"
   id="path4"
   inkscape:connector-curvature="0"
   style="fill:#fe9b00" />
	<path
   class="st1"
   d="m 594,401.8 c -0.5,-1 -0.1,-1.8 -0.1,-2.6 1.7,-17.4 -9.4,-32.8 -26.2,-36.4 -11,-2.3 -20.8,0.8 -29.2,8 -10.2,8.7 -19.9,18 -29.5,27.4 -11.7,11.5 -23.2,23.2 -34.4,35.1 -7.9,8.4 -17.1,14.9 -28.1,18.7 -31,10.6 -64.9,-6 -76.7,-34.8 -1.4,-3.5 -1.3,-4.2 1.5,-6.6 6.5,-5.7 13.1,-11.3 19.6,-17 0.2,-0.2 0.4,-0.3 0.6,-0.5 0.8,-0.5 1.4,-1.7 2.4,-1.2 0.9,0.4 0.4,1.6 0.5,2.4 0.9,17 13.8,29.1 28.7,31.2 15.9,2.2 31.8,-7.5 36.6,-22.7 5.7,-18 -3.8,-35.9 -22.2,-41.8 -11.2,-3.6 -21.4,-1.2 -30.3,6.2 -7.3,6 -14.3,12.3 -21.4,18.6 -4.7,4.2 -9.4,8.5 -14.2,12.6 -1.9,1.7 -3,3.6 -3.5,6.1 -3.8,19.3 -14.6,33.7 -31.7,43.2 -10.9,6.1 -22.7,8.3 -35.2,7.1 -13.6,-1.3 -25.5,-6.4 -35.7,-15.4 -7.1,-6.2 -12.4,-13.8 -16,-22.5 -0.2,-0.4 -0.4,-0.9 -0.5,-1.3 -0.7,-1.7 -0.3,-3.1 1.1,-4.3 2.3,-1.9 4.5,-3.8 6.8,-5.7 4.7,-4.1 9.4,-8.2 14.2,-12.2 0.8,-0.7 1.6,-1.9 2.6,-1.5 1.1,0.4 0.6,1.8 0.7,2.8 0.7,15.8 11.4,28.7 26.6,32.1 17.1,3.8 34.6,-6.8 39.2,-23.8 6,-22.1 -11.5,-43.9 -34.3,-42.8 -7.1,0.3 -13.5,2.7 -18.9,7.3 -6.5,5.4 -12.9,11 -19.2,16.6 -6.5,5.7 -12.9,11.5 -19.4,17.2 -1.8,1.6 -2.7,3.4 -2.7,5.9 0,14.5 0,29 0,43.4 0,4.1 -0.6,4.7 -4.7,4.6 -8.1,-0.2 -14.9,-3.2 -20.3,-9.3 -2,-2.3 -2.4,-2.3 -5.1,-0.8 -9.9,5.5 -20.4,8.5 -31.7,8.1 C 160.7,452.4 143,441.9 131,422 c -5.7,-9.5 -8.5,-20 -8.4,-31.1 0.1,-14.8 5,-27.9 14.3,-39.3 9.4,-11.5 21.4,-19 36.1,-21.4 19.6,-3.1 37.6,0.5 52.7,14.2 4.9,4.4 8.9,9.4 12.4,14.9 0.6,1 1.2,2.1 2.4,2.6 1.5,-1.1 2.3,-2.4 2.3,-4.4 -0.1,-9.9 0,-19.8 0,-29.8 0,-22.5 0,-45 -0.1,-67.4 0,-4.4 0.5,-4.9 5,-4.9 13.9,0.2 25.1,10.2 26.8,24 0.2,1.6 0.3,3.2 0.3,4.8 0,17.3 0,34.6 0,51.8 0,0.2 0,0.5 0,0.7 0.1,2.4 0.6,2.7 2.8,1.6 6.5,-3.4 13.4,-5.7 20.6,-6.7 17.9,-2.5 33.9,2 48.1,13.2 4.8,3.8 8.8,8.3 12.3,13.4 0.2,0.3 0.4,0.7 0.7,1 0.7,1 1.3,2.1 2.6,2.3 0.7,0.1 2.7,-2.5 2.8,-3.6 0.2,-1.3 0.2,-2.7 0.2,-4.1 0,-23.4 0,-46.9 0,-70.3 0,-14.5 9,-25.4 23.3,-28.1 1.6,-0.3 3.1,-0.6 4.8,-0.5 2.1,0.1 3,0.9 3.5,2.9 0.4,1.6 0.4,3.2 0.4,4.8 0,11.5 0,23 0,34.6 0,12.5 0,25 0,37.4 0,0.6 0,1.3 0,1.9 0.2,1.3 0.6,1.7 1.9,1.2 1.7,-0.7 3.4,-1.5 5.1,-2.2 24,-9.6 50.9,-3.8 68.3,14.8 5.9,6.3 10.3,13.6 13.4,21.7 0.2,0.6 0.4,1.2 0.6,1.8 1,2.6 1.3,2.7 3.4,0.8 9.4,-8.3 18.8,-16.6 28.2,-24.9 8.1,-7.2 17.3,-12.3 27.9,-14.8 29.9,-7.2 61.2,9.2 72.3,37.9 1.1,2.7 0.7,4.8 -1.4,6.9 -6.9,6.8 -13.6,13.7 -20.5,20.6 -0.7,0.6 -1.2,1.2 -2.1,1.5 z"
   id="path6"
   inkscape:connector-curvature="0"
   style="fill:#191c31" />
	<path
   class="st1"
   d="m 566.9,428.9 c 0,1 -0.6,1.4 -1.1,1.9 -7.3,7.3 -14.6,14.6 -21.8,22 -1.5,1.5 -3,1.8 -4.9,1.1 -17.2,-6.4 -29.4,-18 -36.5,-34.9 -1.1,-2.5 -0.9,-3.3 1.1,-5 7.1,-6.2 14.3,-12.4 21.4,-18.5 0.5,-0.4 0.9,-0.9 1.7,-1 0.7,0.7 0.5,1.6 0.6,2.4 0.4,4.7 1.5,9.3 3.5,13.6 4.7,9.8 12.7,15.4 23,17.9 2.2,0.5 4.4,0.7 6.7,0.6 2,-0.2 4.1,-0.1 6.3,-0.1 z"
   id="path8"
   inkscape:connector-curvature="0"
   style="fill:#191c31" />
	<path
   class="st2"
   d="m 218.4,391.7 c 0.5,17.8 -14.7,33.3 -33.2,33.5 -18,0.1 -33.3,-14.2 -33.6,-33.1 -0.3,-18.2 14,-33.8 33.6,-34.2 18.1,-0.4 33.3,14.4 33.2,33.8 z"
   id="path10"
   inkscape:connector-curvature="0"
   style="fill:#ff9c00" />
</g>
</svg>