<?xml version="1.0" encoding="utf-8"?>
<!-- Generator: Adobe Illustrator 21.0.0, SVG Export Plug-In . SVG Version: 6.00 Build 0)  -->
<svg version="1.1" id="Слой_1" xmlns="http://www.w3.org/2000/svg" xmlns:xlink="http://www.w3.org/1999/xlink" x="0px" y="0px"
	 width="500px" height="500px" viewBox="0 0 500 500" style="enable-background:new 0 0 500 500;" xml:space="preserve">
<style type="text/css">
	.st0{fill:url(#SVGID_1_);}
	.st1{fill:#FFFFFF;}
</style>
<linearGradient id="SVGID_1_" gradientUnits="userSpaceOnUse" x1="91.9051" y1="91.9049" x2="407.2255" y2="407.2256">
	<stop  offset="0" style="stop-color:#3886EF"/>
	<stop  offset="1" style="stop-color:#1F47AF"/>
</linearGradient>
<circle class="st0" cx="250" cy="250" r="250"/>
<g>
	<path class="st1" d="M413.1,309.6L290.7,98.3c-6.4-10.6-11.2-24.5-23.4-30.9L137.4,294.1c0,0,15.4,0,17.6,0
		c2.7-0.5,2.1-1.1,3.7-3.2L270.5,97.7l142.1,247C419.5,333.5,419.5,320.2,413.1,309.6"/>
	<path class="st1" d="M270.5,131.3c0,0-8,13.8-9,15.4c-1.1,2.7-0.5,2.7,1.1,5.3l111.2,193.7H88.4c7.5,12.2,19.7,17,34.1,17h237.4
		c13.8,0,28.2,2.1,40.5-5.3L270.5,131.3z"/>
	<path class="st1" d="M344.5,327.7c0,0-8-13.8-9-15.4c-1.6-2.1-2.1-1.6-5.3-1.6h-223l142.6-248c-25,0-34.6,25.5-45.2,43.6
		l-105.4,182c-6.9,11.2-17,24.5-16.5,38.9L344.5,327.7z"/>
	<path class="st1" d="M324.8,294.1l-74.5-128.8l-73.5,128.3h121.4L324.8,294.1z M250.3,199.9l45.2,76.6h-89.4L250.3,199.9z"/>
</g>
</svg>
