<?xml version="1.0" encoding="UTF-8"?>
<svg width="185px" height="33px" viewBox="0 0 185 33" version="1.1" xmlns="http://www.w3.org/2000/svg" xmlns:xlink="http://www.w3.org/1999/xlink">
    <!-- Generator: Sketch 48.2 (47327) - http://www.bohemiancoding.com/sketch -->
    <title>Logo</title>
    <desc>Created with Sketch.</desc>
    <defs></defs>
    <g id="AidCoin-2" stroke="none" stroke-width="1" fill="none" fill-rule="evenodd" transform="translate(-30.000000, -30.000000)">
        <g id="header">
            <g id="Logo" transform="translate(30.000000, 30.000000)">
                <path d="M29.4633846,31.2888889 L16.0750769,0.705422222 L14.0258462,0.705422222 L0.592,31.2888889 L7.19507692,31.2888889 L15.0732308,13.0389333 L22.8603077,31.2888889 L29.4633846,31.2888889 Z M39.7095385,1.25155556 L33.5618462,1.25155556 L33.5618462,31.2888889 L39.7095385,31.2888889 L39.7095385,1.25155556 Z M56.4221538,1.25155556 C61.27959,1.25155556 65.2262562,2.61688889 68.2621538,5.34755556 C71.2980515,8.07822222 72.816,11.6887701 72.816,16.1792 C72.816,20.6089479 71.2904615,24.2346667 68.2393846,27.0563556 C65.1883077,29.8780444 61.2492308,31.2888889 56.4221538,31.2888889 L46.5858462,31.2888889 L46.5858462,1.25155556 L56.4221538,1.25155556 Z M56.3766154,6.80391111 L52.7335385,6.80391111 L52.7335385,25.7365333 L56.3766154,25.7365333 C59.4125131,25.7365333 61.85641,24.8642368 63.7083077,23.1196444 C65.5602054,21.3750521 66.4861538,19.0615701 66.4861538,16.1792 C66.4861538,13.2664889 65.5677946,10.9757632 63.7310769,9.30702222 C61.8943592,7.63828125 59.4428716,6.80391111 56.3766154,6.80391111 Z" id="ΛID" fill="#1ABC9C"></path>
                <path d="M92.0295385,1 C87.53641,1 83.7415385,2.49428125 80.6449231,5.48284444 C77.5483077,8.47140764 76,12.1653924 76,16.5648 C76,20.9642076 77.5407177,24.6581924 80.6221538,27.6467556 C83.70359,30.6353188 87.4908716,32.1296 91.984,32.1296 C94.8681023,32.1296 97.4789746,31.4696889 99.8166154,30.1498667 C102.154256,28.8300444 103.975795,27.0020146 105.281231,24.6657778 L100.636308,21.3889778 C98.5111793,24.7568 95.6422562,26.4407111 92.0295385,26.4407111 C89.2061538,26.4407111 86.8836923,25.5229035 85.0621538,23.6872889 C83.2406154,21.8516743 82.3298462,19.4926813 82.3298462,16.6103111 C82.3298462,13.6976 83.2406154,11.3158521 85.0621538,9.46506667 C86.8836923,7.61428125 89.2061538,6.68888889 92.0295385,6.68888889 C95.6422562,6.68888889 98.5111793,8.3728 100.636308,11.7406222 L105.281231,8.46382222 C103.945436,6.12758542 102.116308,4.29955556 99.7938462,2.97973333 C97.4713846,1.65991111 94.8832823,1 92.0295385,1 Z M124.498462,1 C128.930872,1 132.710564,2.49428125 135.837538,5.48284444 C138.964513,8.47140764 140.528,12.1653924 140.528,16.5648 C140.528,20.9642076 138.964513,24.6581924 135.837538,27.6467556 C132.710564,30.6353188 128.930872,32.1296 124.498462,32.1296 C120.066052,32.1296 116.301538,30.6353188 113.204923,27.6467556 C110.108308,24.6581924 108.56,20.9642076 108.56,16.5648 C108.56,12.1653924 110.108308,8.47140764 113.204923,5.48284444 C116.301538,2.49428125 120.066052,1 124.498462,1 Z M124.544,6.68888889 C121.750975,6.68888889 119.443692,7.61428125 117.622154,9.46506667 C115.800615,11.3158521 114.889846,13.6824299 114.889846,16.5648 C114.889846,19.4775111 115.793025,21.8516743 117.599385,23.6872889 C119.405744,25.5229035 121.720615,26.4407111 124.544,26.4407111 C127.306667,26.4407111 129.606359,25.5153188 131.443077,23.6645333 C133.279795,21.8137479 134.198154,19.4471701 134.198154,16.5648 C134.198154,13.6824299 133.279795,11.3158521 131.443077,9.46506667 C129.606359,7.61428125 127.306667,6.68888889 124.544,6.68888889 Z M151.867077,1.54613333 L145.719385,1.54613333 L145.719385,31.5834667 L151.867077,31.5834667 L151.867077,1.54613333 Z M178.188308,1.54613333 L178.188308,19.432 L160.747077,1 L158.743385,1 L158.743385,31.5834667 L164.891077,31.5834667 L164.891077,13.5610667 L182.286769,32.1296 L184.336,32.1296 L184.336,1.54613333 L178.188308,1.54613333 Z" id="COIN" fill="#2C3E50"></path>
            </g>
        </g>
    </g>
</svg>