<?xml version="1.0" encoding="iso-8859-1"?>
<!-- Generator: Adobe Illustrator 19.0.0, SVG Export Plug-In . SVG Version: 6.00 Build 0)  -->
<svg version="1.1" id="Layer_1" xmlns="http://www.w3.org/2000/svg" xmlns:xlink="http://www.w3.org/1999/xlink" x="0px" y="0px"
	 viewBox="0 0 2000 2000" style="enable-background:new 0 0 2000 2000;" xml:space="preserve">
<g>
	<path style="fill:#14374D;" d="M987.827,1624.359c-347.979-0.51-634.263-286.304-625.228-642.39
		c8.71-343.291,290.303-607.085,620.371-609.848c348.245-2.914,635.25,281.35,631.52,632.685
		C1610.846,1348.007,1331.098,1624.419,987.827,1624.359z M488.549,996.964c-2.81,271.663,220.499,497.957,493.97,501.257
		c271.471,3.276,498.446-212.903,505.79-485.833c7.731-287.324-223.478-511.435-493.725-514.286
		C716.668,495.17,491.442,717.183,488.549,996.964z"/>
	<path style="fill:#14374D;" d="M1378.837,1738.937c3.794,7.589,7.441,14.595,10.835,21.721
		c14.398,30.227,28.721,60.49,43.041,90.677c-291.207,160.809-727.5,162.799-1056.871-110.598
		c26.489-31.774,52.978-63.549,80.494-96.555c130.473,106.455,279.023,169.641,446.163,186.924
		C1070.06,1848.433,1228.66,1816.809,1378.837,1738.937z"/>
	<path style="fill:#04BEEC;" d="M323.059,317.447c26.375,24.424,50.626,46.881,75.943,70.325
		C255.104,530.315,167.805,701.309,145.207,903.04c-22.55,201.305,23.18,387.325,132.893,559.697
		c-28.761,17.375-57.603,34.798-87.997,53.159C75.879,1338.289,24.82,1144.726,38.743,935.279
		C54.756,694.397,152.281,489.926,323.059,317.447z"/>
	<path style="fill:#14374D;" d="M1488.405,175.043c-21.792,37.15-42.535,72.511-63.708,108.607
		c-127.647-76.941-264.926-118.373-413.165-122.375c-148.278-4.004-287.766,29.4-419.854,99.629
		c-22.89-35.105-45.677-70.053-69.006-105.832C677.805,69.94,843.227,29.769,1019.3,35.299
		C1187.288,40.576,1343.27,87.433,1488.405,175.043z"/>
	<path style="fill:#14374D;" d="M1617.04,1727.629c-29.114-30.698-57.669-60.807-86.354-91.053
		c191.83-170.718,291.601-383.252,295.922-640.364c41.365,0,82.454,0,125.203,0c0.281,112.065-18.073,220.918-56.111,326.281
		C1838.293,1481.507,1745.07,1616.057,1617.04,1727.629z"/>
	<path style="fill:#04BEEC;" d="M1902.782,733.703c-32.468,13.198-63.713,25.899-96.048,39.043
		c-33.886-120.462-90.952-227.375-171.287-322.836c27.5-21.666,53.765-42.36,81.073-63.875
		C1802.891,488.925,1864.807,604.264,1902.782,733.703z"/>
</g>
</svg>
