<svg data-name="Layer 1" xmlns="http://www.w3.org/2000/svg" viewBox="0 0 755.32 755.32" width="2500" height="2500"><title>air</title><circle cx="377.66" cy="377.66" r="352.71" fill="#fff" stroke="#01a9da" stroke-miterlimit="10" stroke-width="49.89"/><path d="M448.54 501a169.29 169.29 0 0 0 61.38-11.52A167.7 167.7 0 0 1 488 507.83a166.35 166.35 0 0 1-21.08 12.61l-.41.2q-2.45 1.23-4.93 2.35l-1.41.64c-1.59.71-3.19 1.41-4.81 2.07-.37.16-.76.3-1.14.45q-4.4 1.77-8.92 3.28c-.76.26-1.52.53-2.3.78-1.28.41-2.58.78-3.87 1.16-1.1.33-2.2.64-3.31.94s-2.4.64-3.6.93c-1.36.34-2.72.64-4.09 1-1 .22-2 .46-3 .66q-3.48.69-7 1.25c-.77.12-1.55.21-2.34.32-1.76.25-3.53.48-5.3.67-.9.1-1.81.19-2.72.27-1.76.16-3.54.3-5.32.4-.81.05-1.61.11-2.43.15-2.57.12-5.15.19-7.75.19a166.79 166.79 0 0 1-90.61-306.83c1.71-1.11 3.46-2.19 5.22-3.25l.94-.56q2.28-1.33 4.6-2.6l1.26-.7c1.9-1 3.81-2 5.75-3a168.91 168.91 0 0 0-40.63 110c0 2.64.09 5.26.21 7.87 0 .79.09 1.56.13 2.35.12 1.9.26 3.8.44 5.69.07.78.14 1.57.22 2.34.26 2.45.56 4.87.92 7.29 0 .12 0 .24.05.37.39 2.51.84 5 1.34 7.46.15.78.32 1.56.49 2.33.37 1.77.78 3.52 1.21 5.26l.6 2.41c.57 2.12 1.17 4.24 1.81 6.33l.26.92c.73 2.33 1.52 4.62 2.34 6.91.29.8.59 1.59.89 2.39.6 1.57 1.21 3.13 1.85 4.67.34.83.68 1.65 1 2.47.78 1.81 1.6 3.61 2.43 5.39.24.49.46 1 .69 1.47 1 2.09 2.07 4.14 3.16 6.17.43.8.87 1.59 1.31 2.38.77 1.38 1.56 2.76 2.37 4.12.48.81 1 1.61 1.45 2.4 1 1.58 2 3.14 3 4.68l1 1.48A169.61 169.61 0 0 0 448.54 501zm-28.17-357.19s-4.08 37.6-21.07 49.7l-7.59-80.39zM222.29 578.6c-1.57-1.46-3.14-2.92-4.66-4.41-1.27-1.25-2.51-2.53-3.75-3.8s-2.69-2.77-4-4.19-2.57-2.82-3.83-4.25-2.3-2.63-3.43-4c-1.3-1.56-2.6-3.12-3.86-4.71q-1.45-1.83-2.88-3.68c-1.33-1.74-2.65-3.49-3.93-5.26-.76-1.05-1.5-2.12-2.24-3.18-1.38-2-2.76-4-4.08-6-.48-.73-.93-1.48-1.41-2.22a235.51 235.51 0 0 1-30.88-73.82 236.52 236.52 0 0 1-5.07-74.45c.25-2.76.56-5.52.91-8.28.2-1.57.44-3.14.67-4.71q.39-2.59.83-5.19c.26-1.5.51-3 .79-4.5q.81-4.23 1.77-8.45c.32-1.37.67-2.74 1-4.11.49-1.94 1-3.87 1.52-5.8.36-1.32.72-2.63 1.1-3.94.86-2.91 1.77-5.82 2.75-8.71.36-1.07.76-2.14 1.13-3.2q1.19-3.33 2.47-6.63c.42-1.09.84-2.18 1.28-3.27q1.81-4.5 3.83-9c.33-.71.68-1.42 1-2.13q1.74-3.74 3.63-7.44c.46-.9.92-1.81 1.4-2.7 1.6-3 3.25-6.05 5-9 .2-.33.42-.67.62-1 1.62-2.74 3.31-5.44 5-8.13.52-.79 1-1.58 1.55-2.36 2-3 4-5.94 6.14-8.86a235.05 235.05 0 0 1 49.7-50q9.45-7 19.48-13c.26-.16.52-.32.79-.47q9.48-5.61 19.37-10.28l2.69-1.25c2.81-1.29 5.66-2.52 8.52-3.69 1.62-.67 3.24-1.34 4.86-2 .65-.25 1.28-.54 1.92-.78 1-.37 2-.68 3-1q2.67-1 5.36-1.85c1.37-.46 2.73-.93 4.12-1.36 3-.93 6-1.78 9-2.59 1.18-.32 2.37-.62 3.56-.92 2.74-.69 5.48-1.34 8.24-1.93l1.89-.42c3.38-.7 6.77-1.3 10.17-1.85l2.68-.41c3.51-.52 7-1 10.56-1.36-1.53.32-3 .72-4.56 1.08-2.66.64-5.32 1.33-8 2.08a201.66 201.66 0 0 0-21.65 7.41c-4.13 1.69-8.18 3.56-12.2 5.53a201.32 201.32 0 0 0-107.23 134.47c-1.5 6.36-2.68 12.78-3.56 19.22a201.54 201.54 0 0 0 64.7 176.69 203.92 203.92 0 0 0 16 13c2.66 2 5.37 3.8 8.1 5.6.9.6 1.82 1.16 2.73 1.74l.7.43a180.39 180.39 0 0 0 8.1 4.88c.45.26.92.5 1.37.75 1.19.67 2.38 1.32 3.58 1.95s2.42 1.3 3.64 1.91c.69.35 1.38.68 2.08 1s1.5.72 2.24 1.08c1.42.67 2.82 1.36 4.25 2l.24.1c1.92.86 3.85 1.65 5.78 2.44l1.95.81c2 .78 4 1.52 6 2.24.84.3 1.68.61 2.53.9 2 .68 4 1.34 6 2s3.92 1.22 5.9 1.76c1 .29 2 .54 3.07.81 2.28.59 4.56 1.16 6.86 1.66.94.22 1.89.41 2.84.6q3.59.75 7.18 1.37l2.61.41c2.51.39 5 .74 7.51 1l2.33.25c2.62.28 5.24.5 7.86.68l2 .12c2.74.16 5.47.26 8.21.3h1.7q4.31 0 8.59-.13h1.32c3-.13 6-.32 9-.58l.92-.08c3.14-.28 6.26-.64 9.38-1.07l.51-.07q4.92-.69 9.81-1.62a201.44 201.44 0 0 0 143.7-285.07A236.2 236.2 0 0 1 617 382.51v.37a236.26 236.26 0 0 1 .91 35.4v.81q-.62 11.55-2.37 23.05l-.24 1.52q-.84 5.32-1.94 10.63l-.12.66q-1.2 5.67-2.68 11.29c-.11.45-.25.9-.36 1.35q-1.31 4.8-2.8 9.54c-.23.73-.45 1.46-.69 2.19q-3.47 10.67-8 21.08c-.37.86-.76 1.71-1.14 2.57q-1.92 4.23-4 8.41c-.33.66-.65 1.34-1 2-1.7 3.34-3.5 6.64-5.37 9.91-.41.73-.86 1.44-1.29 2.16-1.53 2.62-3.12 5.2-4.77 7.78l-1.73 2.68c-2.11 3.19-4.27 6.35-6.55 9.46a236.86 236.86 0 0 1-31.86 35.5c-3.54 3.21-7.17 6.25-10.87 9.21s-7.3 5.66-11 8.32a235.09 235.09 0 0 1-35.43 20.8q-10.31 4.86-21 8.7c-6.34 2.28-12.77 4.24-19.27 6-4.44 1.18-8.9 2.27-13.4 3.2a236.08 236.08 0 0 1-101.34-1.48q-11.17-2.64-22.14-6.39a235.28 235.28 0 0 1-62.78-32.81 239.15 239.15 0 0 1-9.16-7.07c-1-.84-2-1.72-3.06-2.58-1.91-1.59-3.8-3.19-5.64-4.82-1.27-1.13-2.43-2.25-3.62-3.35zm110.17-265.79c-7.74-1.18-14.67-13.88-14.67-13.88C384.07 254.86 413 200 425.67 159c10.66-34.51 9.77-59.19 9.77-59.19C451 133.68 573 243.33 573 243.33a7 7 0 0 1-.74 3.48c-3.08 6.82-14.78 15.64-19.65 19.11-1.33.94-2.14 1.49-2.14 1.49q2.12 4.09 4 8.15c.39.81.76 1.61 1.13 2.42.92 2 1.8 3.94 2.65 5.9.36.81.72 1.62 1.06 2.43 1 2.48 2 4.94 3 7.38q.1.29.21.54c1 2.61 1.93 5.2 2.81 7.78.27.78.52 1.56.78 2.35q.93 2.79 1.77 5.56c.25.81.5 1.62.73 2.43.64 2.2 1.25 4.39 1.81 6.56.08.34.18.67.27 1 .62 2.47 1.19 4.91 1.71 7.34.17.77.32 1.54.47 2.3q.54 2.61 1 5.19c.14.81.29 1.62.42 2.42q.49 3 .88 5.85c.06.45.14.9.19 1.35.3 2.32.55 4.62.77 6.91.07.73.12 1.47.18 2.2.14 1.63.25 3.25.34 4.86 0 .79.1 1.57.13 2.36.08 1.78.14 3.54.17 5.29v8c0 .67 0 1.32-.07 2 0 1.56-.12 3.12-.21 4.67 0 .72-.08 1.44-.13 2.16-.12 1.68-.26 3.34-.42 5 0 .45-.07.91-.12 1.36-.21 2.09-.46 4.14-.73 6.18l-.24 1.58c-.23 1.57-.47 3.12-.73 4.65-.1.61-.2 1.21-.31 1.81-.3 1.66-.61 3.3-.95 4.92-.07.34-.13.69-.2 1-.43 2-.88 4-1.35 5.91-.08.33-.17.65-.24 1-.42 1.63-.84 3.24-1.28 4.84-.12.44-.25.87-.37 1.31-.48 1.7-1 3.39-1.51 5.05 0 .16-.09.32-.14.48q-.91 2.89-1.9 5.71a1 1 0 0 1-.05.16c-.62 1.77-1.27 3.52-1.92 5.25l-.26.66a216.85 216.85 0 0 1-43.16 69.21c-3.18 3.37-5.12 5.12-5.12 5.12 9.77-22.67 15.73-43.45 18.86-62.42 5.92-85.19-59.64-133-77.48-144.42-66.33 18.1-124.46 5.64-124.46 5.64z" fill="#01a9da"/></svg>
