<svg xmlns="http://www.w3.org/2000/svg" xmlns:xlink="http://www.w3.org/1999/xlink" viewBox="0 0 2004.2 1831" width="2000" height="2000"><defs><linearGradient id="4" y1="1491.23" x2="0" y2="-197.48" xlink:href="#0"/><linearGradient id="5" x1="-30.693" x2="2019.22" xlink:href="#0"/><linearGradient id="3" y1="1377.16" x2="0" y2="123.48" gradientUnits="userSpaceOnUse"><stop/><stop offset="1" stop-color="#0d0d0d"/></linearGradient><linearGradient id="1" x1="1366.22" y1="609.89" x2="1872.88" y2="1302.37" xlink:href="#0"/><linearGradient id="0" x1="1304.5" y1="-23.766" x2="962.88" y2="1077.96" gradientUnits="userSpaceOnUse"><stop offset=".04" stop-color="#2cf4e1"/><stop offset="1" stop-color="#2cb2e1"/></linearGradient><linearGradient id="2" x1="519.43" y1="696.96" x2="1235.27" y2="1675.44" gradientUnits="userSpaceOnUse"><stop stop-color="#2ce5e1"/><stop offset="1" stop-color="#2cb2e1"/></linearGradient></defs><circle cx="1071.08" cy="707.46" r="576.74" fill="url(#0)"/><path d="M1472 594.57a319.21 319.21 0 0 1 63 190.76c0 83.3-34.34 160.24-92.84 222.55l35.61 132.9h108.1l113.82-129.08 30.52-188.85 6.36-112.55L1624 583.12l-152 11.45" transform="translate(4.08-60.06)" fill="url(#1)"/><path d="M219.38,1156l19.71,78.21s232.73,477.54,756.69,654.95c0,0,490.89-203.48,702.64-548.76l-306.49-255S1252,1196.74,1044.1,1196.74s-490.26-124-490.26-379.62S846.34,468,846.34,468L721.71,437.51H403.14L200.94,924.58,219.38,1156h0Z" transform="translate(4.08-60.06)" fill="url(#2)"/><path d="M1980.1,642.89C1971.2,634,1713,360.57,1005.31,117l-4.45-1.91C315.39,350.39,20.35,642.89,20.35,642.89c26.71,155.79,94.11,329.38,155.15,464.19,5.09,11.45,86.48,155.15,146.89,233.36-35.61-78.21-74.4-146.25-74.4-263.25,0-330,255.62-598.35,575.46-609.8,7.63,0,15.9,0,23.53.64l-76.3-76.3S1077.8,340.22,1472,578.67c0,0,5.72,12.08,0,47.69,0,0,185.67,80.12,201.57,235.91S1591,1107.08,1511.47,1119.8c0,0,41.33-64.22-22.26-98.56-13.35-7.63-29.25-10.81-45.15-10.17-121.45,0-135.44,138.62-135.44,138.62-1.27,7-1.27,14-1.27,21,0,0-20.35,202.84,340.83,199,0,0,183.13-207.29,231.46-393.6,17.8-68.67,30.52-120.18,38.79-158.33q30.52-81.07,59.14-167.87Z" transform="translate(4.08-60.06)" fill="url(#3)"/><g transform="translate(4.08-60.06)"><g fill="#282828"><path d="m1315 640.35c5.09-2.54 21.62-10.81 40.7-30.52 38.15 5.09 75.67 17.17 75.67 17.17-69.31-42-164.05-66.77-269-66.13 0 0 40.06 57.23 151.34 80.76l1.27-1.27"/><path d="M997.68,145.64c67.4,21,557,183.77,948.72,507.43l43.88-12.72-3.18-2.54C1604.3,313.51,1120.41,145,1019.94,112.58l-9.54-3.18-12.72-3.82-22.26,7C875,145,391.06,313.51,8.27,637.81l-4.45,3.82,42.6,14c391.7-325.57,883.86-489,951.26-510h0Z"/></g><path d="M1987.1,596.22C1604.3,271.93,1120.41,103.42,1019.94,71l-9.54-3.18L997.68,64l-22.26,7C875,103.42,391.06,271.93,8.27,596.22l-8.27,7L1.91,614c0.64,2.54,42,248.63,183.13,526.5,83.3,163.42,184.4,305.22,300.13,422.85,141.8,143.71,307.13,249.9,490.89,316l10.81,3.82,10.81,3.82,11.45-4.45,10.81-3.82c183.77-66.13,348.46-172.32,490.89-316,115.73-117,216.83-259.44,300.13-422.85,141.16-277.24,183.13-524,183.13-526.5l1.91-10.81-8.9-6.36h0ZM1776,1122.73c-81.39,159.6-180,298.86-293.14,413.32-140.53,141.8-303.31,246.08-485.17,310.31C815.82,1782.12,653,1678.48,512.51,1536.68,399.33,1422.22,300.77,1283.6,219.38,1124,96.65,883.64,50.87,668.08,41.33,618.48c392.33-328.75,888.31-492.8,956.35-514.42,67.4,21.62,564,185.67,956.35,514.42C1944.49,667.44,1898.08,883,1776,1122.73Z" stroke-miterlimit="10" stroke-width="7.53" fill="url(#4)" stroke="url(#5)"/></g></svg>