<svg xmlns="http://www.w3.org/2000/svg" width="117.381" height="35.826"><g data-name="그룹 863" fill="#e03631"><path data-name="패스 2637" d="M62.743 29.721l-9.7-24.732c-.264-.66-.567-.991-1.981-.991-1.372 0-1.717.337-1.981 1.011l-9.71 24.713-.94 2.106h2.208a1.6 1.6 0 0 0 1.49-1.022l.648-1.678 1.24-3.142h-.005l1.625-4.153.488-1.248.9-2.287 4.037-10.256 4.382 11.539h-5.2a2.92 2.92 0 0 0-1.736.327 2.216 2.216 0 0 0-.6.741q-.055.1-.1.21c-.021.047-.045.1-.07.16a2.9 2.9 0 0 0-.326 1.5.059.059 0 0 0 .057.04h9.153l.216.55 2.944 7.149.215.556a1.6 1.6 0 0 0 1.49 1.022h2.208z"/><path data-name="패스 2638" d="M87.274 10.401V5.826a1.828 1.828 0 0 0-1.828-1.828H68.72c-3.162 0-2.972-.159-2.972 2.972v24.858h1.522q1.449-.006 1.45-.99V6.972h11.622c.2 0 .4.006.582.017h2.2a1.158 1.158 0 0 1 .531.129 1.172 1.172 0 0 1 .474.446 1.159 1.159 0 0 1 .162.592v1.864c.012.164.019.335.019.515v.991q0 3.963-3.963 3.963h-8.562c-.041 0-.082 0-.121.006h-.869v1.501q0 1.467.991 1.466h8.562q6.935 0 6.935-6.935v-.991c-.007-.047-.008-.094-.009-.135z"/></g><path data-name="패스 2639" d="M117.342 22.843v-5.082a1.835 1.835 0 0 0-1.835-1.835h-5.123l.031.031q-.479-.033-.991-.033h-8.357a1.181 1.181 0 0 1-1.157-1.011 1.2 1.2 0 0 1-.013-.17v-2.762a8.237 8.237 0 0 1-.017-.53q0-4.474 4.475-4.474h11.033q.986 0 .994-1.468V3.99h-12.024q-7.458 0-7.458 7.458c0 .375.016.735.044 1.082v4.539a1.835 1.835 0 0 0 1.835 1.834h5.123l-.005-.005q.227.007.46.007h5.067c.23 0 .451.009.664.025h3.122a1.178 1.178 0 0 1 1.171 1.171v3.271c.009.164.015.332.015.505q0 4.972-4.972 4.972H93.598V4.985q0-.986-1.466-.994h-1.517v26.848q0 .995 1.491.994h17.321q7.954 0 7.955-7.955a15.08 15.08 0 0 0-.04-1.035z" fill="#e03631"/><g data-name="그룹 864"><path data-name="패스 2641" d="M32.329 9.162l-2.343 1.35a2.507 2.507 0 0 1 .317 1.216v13.016a2.509 2.509 0 0 1-.319 1.221l-.015.028a2.513 2.513 0 0 1-.921.924l-9.789 5.652-.189.109a1.709 1.709 0 0 1-.454.192c-.022 0-.052.01-.086.014a.767.767 0 0 1-.249 0c-.012 0-.023-.008-.035-.012q-.829-.276-1.011.081a.616.616 0 0 0-.037.233v1.576a1.065 1.065 0 0 0 1.065 1.065h.329a1.4 1.4 0 0 0 .406-.061 3.536 3.536 0 0 0 .743-.322l.526-.3 9.854-5.689-10 5.771 10.184-5.88a5.463 5.463 0 0 0 1.994-1.995l.006-.01.012-.022a5.465 5.465 0 0 0 .718-2.7V11.851a5.471 5.471 0 0 0-.706-2.689z" fill="#b5b5b6"/><path data-name="패스 2644" d="M16.583 18.23l-3.568-2.06-.017.028a4.034 4.034 0 0 0-.538 2.015v.017a4.084 4.084 0 0 0 .065.713 4.038 4.038 0 0 0 .19.688 4.088 4.088 0 0 0 .19.429l.1.19h-.007l.017.026.12.18a4.04 4.04 0 0 0 .279.37 4.072 4.072 0 0 0 .674.633q-.223-.07-.433-.15a8.055 8.055 0 0 1-1.158-.55 5.92 5.92 0 0 1-.157-.094l-.03-.018-.01-.006-.156-.1q-.147-.094-.285-.191a9.596 9.596 0 0 1-.844-.667 17.133 17.133 0 0 1-1.223-1.241.373.373 0 0 1-.03-.038.343.343 0 0 1-.064-.167v-.012a.12.12 0 0 1 0-.017.321.321 0 0 1 .055-.181.365.365 0 0 1 .043-.052c.1-.1.233-.236.39-.391.235-.232.528-.511.876-.805a10.912 10.912 0 0 1 1.202-.895l.1-.059.032-.019-1.821-1.052-.029.02c-.044.031-.089.062-.132.094a20.669 20.669 0 0 0-3.184 2.985.51.51 0 0 0-.132.37.542.542 0 0 0 .132.332 16.805 16.805 0 0 0 3.236 3.155l.029.019a10.977 10.977 0 0 0 1.195.727.3.3 0 0 1 .164.267v8.225a.29.29 0 0 1-.435.251l-7.426-4.287a2.51 2.51 0 0 1-.911-.91l-.016-.026a2.51 2.51 0 0 1-.328-1.237V11.723a2.513 2.513 0 0 1 .34-1.259l.017-.027L.754 9.085l-.013.021-.008.014a5.464 5.464 0 0 0-.729 2.72v12.818a5.286 5.286 0 0 0 .72 2.662l.021.036v.008a5.45 5.45 0 0 0 1.983 1.974l10.281 5.936a1.279 1.279 0 0 0 .637.171.334.334 0 0 0 .334-.334V23.439a.082.082 0 0 1 .1-.081 10.391 10.391 0 0 0 1.253.215 10.065 10.065 0 0 0 1.17.091h.073v-5.438z" fill="#d03439"/><path data-name="패스 2645" d="M28.512 16.235q-.064-.687-.42-.665a.312.312 0 0 0-.053.01l-.023.007a.288.288 0 0 0-.037.013h-.009l-.078.034-.545.275-.235.119-1.856.927a.222.222 0 0 1-.26-.046 16.954 16.954 0 0 0-2.38-2.093l-.052-.036-1.784 1.027.025.015.1.059a10.912 10.912 0 0 1 1.202.895c.348.294.641.573.876.805.157.155.287.288.39.391a.368.368 0 0 1 .043.052.321.321 0 0 1 .054.181.143.143 0 0 1 0 .017v.012a.343.343 0 0 1-.064.167.355.355 0 0 1-.03.038 17.13 17.13 0 0 1-1.223 1.241 9.596 9.596 0 0 1-.844.667q-.138.1-.285.191l-.156.1-.01.006-.035.021-.152.091a8.057 8.057 0 0 1-1.158.55q-.21.08-.433.15a4.073 4.073 0 0 0 .674-.633 4.039 4.039 0 0 0 .279-.37l.118-.177.019-.029h-.007a1.92 1.92 0 0 0 .1-.19 4.06 4.06 0 0 0 .19-.429 4.037 4.037 0 0 0 .19-.688 4.082 4.082 0 0 0 .065-.713v-.017a4.034 4.034 0 0 0-.538-2.015l-.013-.022-3.569 2.055v5.438h.139a9.762 9.762 0 0 0 2.829-.414.083.083 0 0 1 .107.079v2.225a5.694 5.694 0 0 0 .085 1.046 2.016 2.016 0 0 0 1.049 1.411 1.984 1.984 0 0 0 1 .264 3.211 3.211 0 0 0 1.925-.58c2.019-1.4 2.08-2.544 2.1-3.663v-.988a.616.616 0 0 0-.037-.233q-.182-.357-1.011-.082a3.568 3.568 0 0 0-.236.09l-.04.015a2.078 2.078 0 0 0-.389.212l-.029.019a1.2 1.2 0 0 0-.179.163.883.883 0 0 0-.22.594v.313a2.112 2.112 0 0 1-1.181 1.8c-.141.084-.248.161-.342.209a.236.236 0 0 1-.343-.19 7.342 7.342 0 0 1-.018-.334v-3.257a.235.235 0 0 1 .117-.2c.234-.138.456-.283.669-.431l.029-.021a16.86 16.86 0 0 0 3.234-3.159.381.381 0 0 1 .118-.091l.468-.234 1.562-.781a.938.938 0 0 0 .365-.331.97.97 0 0 0 .04-.072 1.011 1.011 0 0 0 .071-.191 1.791 1.791 0 0 0 .042-.619z" fill="#b5b5b6"/><path data-name="패스 2646" d="M25.9 12.395c-1.2-1.076-4.912-4.059-9.316-4.08h-.064c-4.434.008-8.174 3.025-9.36 4.093a.278.278 0 0 0-.05.353l1.194.689a.558.558 0 0 0 .459-.127c1.184-1.025 4.209-3.3 7.757-3.3h.064c3.521.02 6.523 2.264 7.714 3.291a.563.563 0 0 0 .65.061l.905-.523a.282.282 0 0 0 .047-.457z" fill="#e94b42"/><path data-name="패스 2647" d="M32.318 9.139l-.005-.01a5.472 5.472 0 0 0-2.008-2.014L19.248.731a5.467 5.467 0 0 0-2.664-.729h-.064a5.464 5.464 0 0 0-2.729.731L2.73 7.119A5.468 5.468 0 0 0 .751 9.09l2.341 1.352a2.508 2.508 0 0 1 .9-.887l11.274-6.509a2.51 2.51 0 0 1 1.256-.336h.064a2.514 2.514 0 0 1 1.191.334l11.274 6.509a2.51 2.51 0 0 1 .924.93l.015.028 2.343-1.35z" fill="#e94b42"/><path data-name="패스 2649" d="M32.329 9.162l-2.343 1.35a2.507 2.507 0 0 1 .317 1.216v13.016a2.509 2.509 0 0 1-.319 1.221l-.015.028a2.513 2.513 0 0 1-.921.924l-9.789 5.652-.189.109a1.709 1.709 0 0 1-.454.192c-.022 0-.052.01-.086.014a.767.767 0 0 1-.249 0c-.012 0-.023-.008-.035-.012q-.829-.276-1.011.081a.616.616 0 0 0-.037.233v1.576a1.065 1.065 0 0 0 1.065 1.065h.329a1.4 1.4 0 0 0 .406-.061 3.536 3.536 0 0 0 .743-.322l.526-.3 9.854-5.689-10 5.771 10.184-5.88a5.463 5.463 0 0 0 1.994-1.995l.006-.01.012-.022a5.465 5.465 0 0 0 .718-2.7V11.851a5.471 5.471 0 0 0-.706-2.689z" fill="#d2112d"/><path data-name="패스 2652" d="M16.583 18.23l-3.568-2.06-.017.028a4.034 4.034 0 0 0-.538 2.015v.017a4.084 4.084 0 0 0 .065.713 4.038 4.038 0 0 0 .19.688 4.088 4.088 0 0 0 .19.429l.1.19h-.007l.017.026.12.18a4.04 4.04 0 0 0 .279.37 4.072 4.072 0 0 0 .674.633q-.223-.07-.433-.15a8.055 8.055 0 0 1-1.158-.55 5.92 5.92 0 0 1-.157-.094l-.03-.018-.01-.006-.156-.1q-.147-.094-.285-.191a9.596 9.596 0 0 1-.844-.667 17.133 17.133 0 0 1-1.223-1.241.373.373 0 0 1-.03-.038.343.343 0 0 1-.064-.167v-.012a.12.12 0 0 1 0-.017.321.321 0 0 1 .055-.181.365.365 0 0 1 .043-.052c.1-.1.233-.236.39-.391.235-.232.528-.511.876-.805a10.912 10.912 0 0 1 1.202-.895l.1-.059.032-.019-1.821-1.052-.029.02c-.044.031-.089.062-.132.094a20.669 20.669 0 0 0-3.184 2.985.51.51 0 0 0-.132.37.542.542 0 0 0 .132.332 16.805 16.805 0 0 0 3.236 3.155l.029.019a10.977 10.977 0 0 0 1.195.727.3.3 0 0 1 .164.267v8.225a.29.29 0 0 1-.435.251l-7.426-4.287a2.51 2.51 0 0 1-.911-.91l-.016-.026a2.51 2.51 0 0 1-.328-1.237V11.723a2.513 2.513 0 0 1 .34-1.259l.017-.027L.754 9.085l-.013.021-.008.014a5.464 5.464 0 0 0-.729 2.72v12.818a5.286 5.286 0 0 0 .72 2.662l.021.036v.008a5.45 5.45 0 0 0 1.983 1.974l10.281 5.936a1.279 1.279 0 0 0 .637.171.334.334 0 0 0 .334-.334V23.439a.082.082 0 0 1 .1-.081 10.391 10.391 0 0 0 1.253.215 10.065 10.065 0 0 0 1.17.091h.073v-5.438z" fill="#d03439"/><path data-name="패스 2653" d="M22.561 14.788l-.028-.02a9.932 9.932 0 0 0-5.949-1.987h-.064a9.854 9.854 0 0 0-5.947 1.979l1.821 1.051a8.667 8.667 0 0 1 1.634-.8 4.067 4.067 0 0 0-1.014 1.159l3.568 2.06 3.569-2.055a4.065 4.065 0 0 0-1.018-1.165 8.662 8.662 0 0 1 1.641.806z" fill="#e94b42"/><path data-name="패스 2654" d="M28.512 16.235q-.064-.687-.42-.665a.312.312 0 0 0-.053.01l-.023.007a.288.288 0 0 0-.037.013h-.009l-.078.034-.545.275-.235.119-1.856.927a.222.222 0 0 1-.26-.046 16.954 16.954 0 0 0-2.38-2.093l-.052-.036-1.784 1.027.025.015.1.059a10.912 10.912 0 0 1 1.202.895c.348.294.641.573.876.805.157.155.287.288.39.391a.368.368 0 0 1 .043.052.321.321 0 0 1 .054.181.143.143 0 0 1 0 .017v.012a.343.343 0 0 1-.064.167.355.355 0 0 1-.03.038 17.13 17.13 0 0 1-1.223 1.241 9.596 9.596 0 0 1-.844.667q-.138.1-.285.191l-.156.1-.01.006-.035.021-.152.091a8.057 8.057 0 0 1-1.158.55q-.21.08-.433.15a4.073 4.073 0 0 0 .674-.633 4.039 4.039 0 0 0 .279-.37l.118-.177.019-.029h-.007a1.92 1.92 0 0 0 .1-.19 4.06 4.06 0 0 0 .19-.429 4.037 4.037 0 0 0 .19-.688 4.082 4.082 0 0 0 .065-.713v-.017a4.034 4.034 0 0 0-.538-2.015l-.013-.022-3.569 2.055v5.438h.139a9.762 9.762 0 0 0 2.829-.414.083.083 0 0 1 .107.079v2.225a5.694 5.694 0 0 0 .085 1.046 2.016 2.016 0 0 0 1.049 1.411 1.984 1.984 0 0 0 1 .264 3.211 3.211 0 0 0 1.925-.58c2.019-1.4 2.08-2.544 2.1-3.663v-.988a.616.616 0 0 0-.037-.233q-.182-.357-1.011-.082a3.568 3.568 0 0 0-.236.09l-.04.015a2.078 2.078 0 0 0-.389.212l-.029.019a1.2 1.2 0 0 0-.179.163.883.883 0 0 0-.22.594v.313a2.112 2.112 0 0 1-1.181 1.8c-.141.084-.248.161-.342.209a.236.236 0 0 1-.343-.19 7.342 7.342 0 0 1-.018-.334v-3.257a.235.235 0 0 1 .117-.2c.234-.138.456-.283.669-.431l.029-.021a16.86 16.86 0 0 0 3.234-3.159.381.381 0 0 1 .118-.091l.468-.234 1.562-.781a.938.938 0 0 0 .365-.331.97.97 0 0 0 .04-.072 1.011 1.011 0 0 0 .071-.191 1.791 1.791 0 0 0 .042-.619z" fill="#d2112d"/></g></svg>