<?xml version="1.0" standalone="no"?>
<!DOCTYPE svg PUBLIC "-//W3C//DTD SVG 20010904//EN"
 "http://www.w3.org/TR/2001/REC-SVG-20010904/DTD/svg10.dtd">
<svg version="1.0" xmlns="http://www.w3.org/2000/svg"
 width="800.000000pt" height="800.000000pt" viewBox="0 0 800.000000 800.000000"
 preserveAspectRatio="xMidYMid meet">
<metadata>
Created by potrace 1.11, written by Peter Selinger 2001-2013
</metadata>
<g transform="translate(0.000000,800.000000) scale(0.100000,-0.100000)"
fill="#000000" stroke="none">
<path d="M3730 7370 c-336 -20 -766 -121 -1070 -250 -41 -17 -88 -36 -105 -42
-25 -9 -256 -126 -335 -169 -24 -14 -47 -28 -230 -148 -47 -31 -89 -61 -93
-68 -4 -7 -12 -13 -18 -13 -9 0 -118 -85 -129 -100 -3 -4 -10 -9 -16 -11 -27
-10 -294 -263 -384 -365 -130 -146 -245 -291 -295 -373 -5 -9 -24 -37 -42 -62
-25 -36 -131 -215 -183 -311 -6 -10 -14 -26 -20 -35 -5 -10 -25 -54 -45 -98
-20 -44 -40 -88 -45 -97 -13 -24 -73 -181 -103 -268 -23 -69 -37 -114 -80
-270 -14 -51 -49 -221 -76 -380 -24 -134 -35 -488 -23 -717 6 -120 17 -247 23
-283 17 -99 67 -349 80 -400 20 -80 110 -353 136 -415 14 -33 29 -69 34 -80
18 -44 90 -201 101 -220 7 -11 26 -46 42 -78 17 -32 36 -66 41 -75 6 -9 23
-39 40 -67 16 -27 47 -77 69 -110 23 -33 45 -67 51 -76 41 -65 146 -205 192
-256 15 -17 51 -57 78 -89 116 -133 283 -292 439 -418 l61 -49 3 128 3 129
-77 70 c-156 145 -304 299 -351 366 -9 13 -24 31 -32 40 -9 9 -25 30 -36 45
-11 16 -41 56 -67 89 -67 85 -57 71 -120 175 -18 29 -41 65 -50 80 -10 14 -32
53 -49 86 -17 33 -45 87 -64 120 -18 33 -34 68 -34 77 -1 9 -5 18 -9 20 -12 4
-137 311 -131 320 1 2 -6 21 -15 43 -19 45 -84 287 -97 360 -4 28 -13 73 -19
100 -6 28 -15 91 -20 140 -5 50 -14 126 -21 170 -13 97 -7 504 10 655 35 304
141 697 257 958 13 29 24 57 24 62 0 6 5 10 10 10 6 0 10 6 10 14 0 8 15 43
34 78 19 34 49 91 67 126 17 34 44 81 59 105 24 37 63 98 95 148 5 9 37 52 70
95 33 44 65 85 70 92 6 7 17 21 25 31 8 9 34 41 57 71 92 121 428 440 462 440
6 0 11 4 11 9 0 9 124 106 200 156 25 17 47 33 50 37 3 4 17 12 30 18 26 11
29 13 125 72 86 52 328 172 410 203 39 15 84 32 100 39 25 11 94 33 302 97 18
6 54 14 80 19 27 4 73 15 103 23 30 8 91 20 135 25 44 6 109 16 145 23 88 18
698 19 795 2 39 -7 113 -19 165 -27 52 -8 120 -21 150 -29 30 -8 73 -18 95
-21 43 -8 44 -8 215 -62 270 -86 513 -199 780 -364 47 -29 87 -55 90 -59 3 -3
13 -10 22 -16 24 -14 211 -157 223 -170 6 -6 26 -23 45 -37 73 -53 299 -283
400 -407 19 -23 40 -48 45 -54 6 -7 24 -30 40 -52 17 -22 35 -45 40 -52 21
-26 31 -39 60 -83 17 -25 35 -51 42 -57 6 -7 17 -26 25 -43 7 -16 16 -30 20
-30 5 0 8 -5 8 -10 0 -6 11 -27 23 -48 37 -57 86 -149 132 -242 77 -155 93
-194 148 -355 17 -49 37 -104 44 -122 7 -17 13 -42 13 -56 0 -14 4 -28 8 -31
5 -3 14 -29 20 -58 7 -29 17 -73 23 -98 12 -51 15 -65 35 -175 28 -153 44
-361 44 -571 0 -281 -21 -489 -76 -739 -26 -118 -110 -397 -147 -485 -10 -25
-22 -54 -26 -65 -20 -52 -169 -347 -203 -403 -21 -34 -38 -66 -38 -71 0 -4 -9
-16 -20 -26 -11 -10 -20 -22 -20 -27 0 -4 -17 -32 -37 -61 -20 -28 -46 -65
-57 -82 -12 -16 -23 -32 -26 -35 -3 -3 -18 -23 -35 -45 -16 -22 -34 -45 -40
-51 -5 -7 -21 -26 -35 -44 -68 -88 -346 -374 -395 -406 -25 -16 -25 -18 -25
-160 0 -79 3 -144 6 -144 28 0 341 282 471 425 161 178 387 482 439 591 9 19
20 34 25 34 5 0 9 8 9 17 0 9 6 24 14 32 31 37 163 314 215 456 13 33 29 76
37 95 7 19 25 73 39 120 14 47 30 99 35 116 5 16 14 50 19 75 5 24 16 71 24
104 83 340 107 802 61 1195 -20 173 -51 327 -113 565 -12 47 -80 246 -111 325
-21 55 -26 67 -91 210 -41 91 -136 269 -155 291 -8 8 -14 19 -14 24 0 15 -175
270 -254 370 -173 218 -382 429 -581 585 -38 30 -74 58 -80 63 -54 42 -131 97
-166 119 -24 14 -89 54 -144 89 -269 168 -641 322 -990 409 -81 20 -95 23
-440 79 -81 14 -521 21 -675 11z"/>
<path d="M3540 4285 l0 -2345 500 0 500 0 0 2345 0 2345 -500 0 -500 0 0
-2345z"/>
<path d="M4980 3585 l0 -1645 498 2 497 3 3 1643 2 1642 -500 0 -500 0 0
-1645z"/>
<path d="M2107 4463 c-4 -3 -7 -573 -7 -1265 l0 -1258 500 0 500 0 -2 1263 -3
1262 -491 3 c-270 1 -494 -1 -497 -5z"/>
<path d="M4470 1621 c-58 -12 -158 -68 -203 -113 -104 -105 -150 -273 -127
-460 10 -86 52 -218 72 -226 4 -2 8 -10 8 -17 0 -24 95 -111 151 -137 30 -14
91 -31 136 -38 148 -24 283 16 374 110 46 48 109 163 109 200 0 20 -30 30
-100 33 -30 2 -33 -1 -46 -44 -8 -26 -21 -52 -29 -59 -8 -7 -15 -18 -15 -24 0
-21 -83 -76 -139 -93 -98 -28 -218 -1 -286 63 -30 29 -62 86 -85 154 -17 51
-24 217 -10 270 6 25 15 62 21 83 5 21 14 44 19 50 52 66 81 92 124 114 44 23
64 27 141 27 76 0 96 -3 130 -23 22 -13 47 -31 55 -40 27 -30 70 -100 70 -116
0 -18 10 -18 83 -4 59 12 64 17 47 47 -5 9 -16 33 -25 53 -26 60 -82 116 -153
156 -64 36 -70 37 -176 39 -61 2 -127 0 -146 -5z"/>
<path d="M2399 1578 c-6 -24 -14 -47 -18 -53 -4 -5 -13 -28 -20 -50 -15 -44
-127 -341 -152 -400 -26 -65 -59 -153 -59 -161 0 -5 -6 -20 -13 -34 -7 -14
-26 -61 -41 -105 -16 -44 -33 -84 -37 -90 -5 -5 -9 -17 -9 -27 0 -16 9 -18 68
-18 l68 0 38 108 c21 59 44 123 51 142 l13 35 204 3 204 2 26 -67 c14 -38 39
-103 54 -145 l29 -78 73 0 c50 0 72 4 72 12 0 12 -63 177 -81 210 -5 10 -15
35 -23 55 -18 50 -103 257 -127 310 -10 23 -19 48 -19 55 0 7 -9 28 -20 46
-11 18 -20 37 -20 43 0 5 -8 29 -19 52 -10 23 -33 77 -51 120 l-32 77 -74 0
-73 0 -12 -42z m136 -215 c8 -17 15 -37 15 -44 0 -12 51 -148 86 -227 8 -18
14 -37 14 -42 0 -6 -62 -10 -155 -10 -123 0 -155 3 -155 13 0 14 13 53 65 192
45 121 75 215 76 238 0 13 9 -1 20 -33 11 -30 26 -69 34 -87z"/>
<path d="M3125 1608 c-3 -7 -4 -227 -3 -488 l3 -475 68 -3 67 -3 0 216 0 215
105 0 c86 0 113 -4 145 -20 49 -25 115 -105 205 -249 109 -174 94 -161 186
-161 43 0 79 2 79 5 0 8 -102 169 -110 175 -4 3 -10 15 -14 28 -4 12 -12 22
-17 22 -5 0 -9 5 -9 11 0 9 -16 32 -65 97 -11 15 -47 49 -84 81 -13 12 -22 22
-20 24 2 1 29 11 59 22 70 24 116 58 152 114 25 40 28 54 28 128 0 95 -22 152
-79 202 -64 57 -108 65 -414 69 -223 3 -278 1 -282 -10z m513 -113 c98 -30
150 -106 123 -183 -21 -60 -38 -80 -86 -102 -39 -18 -65 -20 -229 -20 l-186 0
0 160 0 160 163 0 c117 0 178 -4 215 -15z"/>
<path d="M5142 1558 l3 -63 155 -2 155 -1 3 -426 2 -426 70 0 70 0 0 425 0
424 153 3 152 3 3 63 3 62 -386 0 -386 0 3 -62z"/>
</g>
</svg>
