<?xml version="1.0" encoding="utf-8"?>
<!-- Generator: Adobe Illustrator 22.0.0, SVG Export Plug-In . SVG Version: 6.00 Build 0)  -->
<svg version="1.1" id="Layer_1" xmlns="http://www.w3.org/2000/svg" xmlns:xlink="http://www.w3.org/1999/xlink" x="0px" y="0px"
	 viewBox="0 0 127.9 132.8" style="enable-background:new 0 0 127.9 132.8;" xml:space="preserve">
<style type="text/css">
	.st0{fill:#00D7D2;}
</style>
<g>
	<path class="st0" d="M123.5,104.1l-57.1,20.2c-1.5,0.6-3.1,0.6-4.5,0L4.7,104.1c-2.7-0.9-4.5-3.5-4.5-6.3v8.1
		c0,2.9,1.8,5.4,4.5,6.3l57.1,20.2c1.5,0.6,3.1,0.6,4.5,0l57.1-20.2c2.7-0.9,4.5-3.5,4.5-6.3v-8.1
		C128,100.6,126.3,103.2,123.5,104.1z"/>
	<path class="st0" d="M123.5,89.7l-57.1,20.2c-1.5,0.6-3.1,0.6-4.5,0L4.7,89.7c-2.7-1-4.5-3.5-4.5-6.4v8.2c0,2.9,1.8,5.4,4.5,6.3
		L61.8,118c1.5,0.6,3.1,0.6,4.5,0l57.1-20.2c2.7-0.9,4.5-3.5,4.5-6.3v-8.1C128,86.2,126.3,88.7,123.5,89.7z"/>
	<path class="st0" d="M123.5,75.3L66.4,95.4c-1.5,0.6-3.1,0.6-4.5,0L4.7,75.3c-2.7-0.9-4.5-3.5-4.5-6.3V77c0,2.9,1.8,5.4,4.5,6.3
		l57.2,20.2c1.5,0.6,3.1,0.6,4.5,0l57.1-20.2c2.7-0.9,4.5-3.5,4.5-6.3V69C128,71.7,126.3,74.3,123.5,75.3z"/>
	<path class="st0" d="M0,27v35.6c0,2.9,1.8,5.4,4.5,6.3l57.1,20.2c1.5,0.6,3.1,0.6,4.5,0L123.4,69c2.7-0.9,4.5-3.5,4.5-6.3V27
		c0-2.9-1.8-5.4-4.5-6.3L66.2,0.4c-1.5-0.6-3.1-0.6-4.5,0L4.5,20.7C1.8,21.6,0,24.1,0,27z"/>
</g>
</svg>
