<?xml version="1.0" encoding="UTF-8"?>
<svg width="300px" height="80px" viewBox="0 0 300 80" version="1.1" xmlns="http://www.w3.org/2000/svg" xmlns:xlink="http://www.w3.org/1999/xlink" preserveAspectRatio="none">
    <!-- Generator: Sketch 52 (66869) - http://www.bohemiancoding.com/sketch -->
    <title>Artboard</title>
    <desc>Created with Sketch.</desc>
    <g id="Artboard" stroke="none" stroke-width="1" fill="none" fill-rule="evenodd">
        <g id="Aventus_Logo_Dark" transform="translate(13.000000, 24.000000)">
            <polygon id="Path" fill="#1E0E2B" points="54.8855445 32 28.2433287 7.54451933 3.24320223 30.4599402 0 27.879998 28.2433287 2 60 30.9509958"></polygon>
            <polygon id="Path" fill="#5100FF" points="27.6800486 32 25 28.6720722 55.0115607 2 84 27.8830386 81.2249584 30.9509958 55.0115607 7.54451933"></polygon>
            <polygon id="Path" fill="#5100FF" points="29 32 0 32 0 28 27.2093186 28"></polygon>
            <polygon id="Path" fill="#1E0E2B" points="54 32 83 32 83 28 55.7921436 28"></polygon>
            <path d="M120,31.4866966 L115.957831,31.4866966 L115.957831,28.2853845 C114.10994,30.5329851 111.376506,32 107.704819,32 C101.126506,32 96,26.7454744 96,19.4984814 C96,12.2514883 101.120482,7 107.704819,7 C111.376506,7 114.10994,8.46701494 115.957831,10.7389139 L115.957831,7.49963552 L120,7.49963552 L120,31.4866966 Z M100.120482,19.4893695 C100.120482,24.2655206 103.376506,28.127445 108.177711,28.127445 C112.908133,28.127445 116.210843,24.4128295 116.210843,19.4893695 C116.210843,14.593245 112.908133,10.8786296 108.177711,10.8786296 C103.295181,10.8816669 100.120482,14.7208116 100.120482,19.4924068 L100.120482,19.4893695 Z" id="Shape" fill="#1E0E2B" fill-rule="nonzero"></path>
            <polygon id="Path" fill="#1E0E2B" points="138.948438 32 134.09942 32 124 9 128.495492 9 136.552489 27.987983 144.634186 9 149 9"></polygon>
            <path d="M174,19.4195143 C174,19.9464854 173.947985,20.5053481 173.925037,20.9594241 L155.230078,20.9594241 C155.803778,25.9314799 159.235267,28.3795415 163.315418,28.3795415 C166.092125,28.3795415 168.619463,27.2937077 170.646535,25.529038 L172.826593,28.3552432 C169.869363,31.1328516 166.566383,32 163.06452,32 C156.00725,32 151,26.9747915 151,19.4984841 C151,12.1254447 155.981243,7.00000545 162.813622,7.00000545 C169.291074,6.99393085 173.944925,12.0707734 174,19.4195143 Z M155.275974,17.6259903 L169.818877,17.6259903 C169.317081,13.373774 166.590861,10.6553928 162.734069,10.6553928 C158.528469,10.6553928 155.90169,13.5347507 155.272915,17.6259903 L155.275974,17.6259903 Z" id="Shape" fill="#1E0E2B" fill-rule="nonzero"></path>
            <path d="M200,16.800124 L200,32 L196.037485,32 L196.037485,18.1636195 C196.037485,13.6563372 193.71728,11.0021692 189.732611,11.0021692 C186.040369,11.0021692 182.938885,13.7043694 182.938885,18.2658816 L182.938885,31.9969011 L179,31.9969011 L179,7.52370623 L182.9123,7.52370623 L182.9123,10.7186241 C184.796821,7.96219399 187.769815,7 190.42823,7 C196.084746,7.00774713 200,10.9246979 200,16.800124 Z" id="Path" fill="#1E0E2B"></path>
            <path d="M271.567121,12.8171703 C270.031718,11.7835472 266.937458,10.5918405 263.740004,10.5918405 C260.412776,10.5918405 258.26759,11.9841916 258.26759,14.1563203 C258.26759,16.0761233 260.034398,16.9607831 262.97543,17.3149511 L265.789815,17.669119 C270.957338,18.3531343 274,20.5024625 274,24.4682313 C274,29.0435338 269.858164,32 263.233415,32 C260.240786,32 256.197454,31.2916641 253,28.9143309 L254.946616,25.8317018 C256.763458,27.2194929 259.19321,28.382319 263.258432,28.382319 C267.248604,28.382319 269.704936,27.0948501 269.704936,24.7205569 C269.704936,22.9497173 268.121063,21.8324922 264.818852,21.4327233 L262.004467,21.1028759 C256.560197,20.4477412 253.92562,18.0202469 253.92562,14.3828054 C253.92562,9.78014228 257.786017,7 263.694662,7 C267.530042,7 271.043333,8.01386271 273.388653,9.60381833 L271.567121,12.8171703 Z" id="Path" fill="#1E0E2B"></path>
            <path d="M222.995348,11.633893 L222.995348,7.75540694 L214.310933,7.75540694 L214.310933,0 L210.150168,2.03471827 L210.150168,7.75540694 L205,7.75540694 L205,11.633893 L210.150168,11.633893 L210.182735,23.5495162 C210.182735,28.7615253 214.314035,33 219.395968,33 L223,33 L223,28.7568298 L219.395968,28.7568298 C216.604549,28.7568298 214.318687,26.4200341 214.318687,23.5495162 L214.310933,11.633893 L222.995348,11.633893 Z" id="Path" fill="#1E0E2B"></path>
            <path d="M245.027427,8 L245.027427,21.8392857 C245.027427,26.8368056 242.239371,29.0565476 238.512585,29.0565476 C234.756187,29.0565476 231.972573,26.8368056 231.972573,21.8392857 L231.972573,8 L228,8 L228,22.2252604 C228,29.6238839 232.963125,33 238.512585,33 C240.905309,33 243.19883,31.9831349 245.027427,30.2284226 L245.027427,32.5070685 L249,32.5070685 L249,8 L245.027427,8 Z" id="Path" fill="#1E0E2B"></path>
        </g>
    </g>
</svg>