<svg xmlns="http://www.w3.org/2000/svg" viewBox="0 0 207.91 56.43"><defs><style>.cls-1{fill:#fff;}</style></defs><title>logoenblanco</title><g id="Capa_2" data-name="Capa 2"><g id="Layer_1" data-name="Layer 1"><path class="cls-1" d="M77,22.42A3.6,3.6,0,0,1,74.23,26a4,4,0,0,1,3.38,4.1c0,2.78-2.36,4.49-6.12,4.49H63.78V18.37h7.46C74.81,18.37,77,19.92,77,22.42Zm-3.75.67c0-1.11-.84-1.76-2.23-1.74H67.44V24.9h3.61C72.44,24.9,73.28,24.23,73.28,23.09Zm.55,6.53c0-1.18-1.06-1.89-2.78-1.87H67.44v3.84h3.61C72.77,31.59,73.83,30.88,73.83,29.62Z"/><path class="cls-1" d="M92.16,18.37v3H83.47v3.52h7.81v3H83.47v3.59h8.94v3H79.81V18.37Z"/><path class="cls-1" d="M98.3,18.37v13h7v3.19H94.63V18.37Z"/><path class="cls-1" d="M113.84,31.55a3.43,3.43,0,0,0,3.61-3.76V18.37h3.66v9.42c0,4.29-2.8,7-7.27,7s-7.37-2.66-7.37-7V18.37h3.66v9.42A3.5,3.5,0,0,0,113.84,31.55Z"/><path class="cls-1" d="M134.62,26.4h3.17v6.24a12,12,0,0,1-6.58,2.1,8.29,8.29,0,0,1-8.64-8.27c0-4.68,3.8-8.22,8.85-8.22a10.24,10.24,0,0,1,6.51,2.36l-2.06,2.62a6.81,6.81,0,0,0-4.45-1.81,5.07,5.07,0,1,0,0,10.13,7.41,7.41,0,0,0,3.17-.88Z"/><path class="cls-1" d="M151,31.43h-7.5l-1.28,3.15h-3.77l7-16.21h3.77l6.93,16.21h-3.92Zm-1.18-2.94-2.55-6.3-2.57,6.3Z"/><path class="cls-1" d="M176.8,23.9c0,3.66-2.34,5.79-6.42,5.79h-3.73v4.89h-2.73V18.37h6.46C174.46,18.37,176.8,20.38,176.8,23.9Zm-2.62.07c0-2.13-1.41-3.15-3.91-3.15h-3.62v6.42h3.62C172.77,27.24,174.18,26.17,174.18,24Z"/><path class="cls-1" d="M189.33,30.92h-8.18l-1.55,3.66h-2.85l7.16-16.21h2.8l7.09,16.21h-2.92Zm-1-2.43-3.06-7.2-3.06,7.2Z"/><path class="cls-1" d="M202,29.18v5.4h-2.71v-5.3L193.2,18.37H196l4.63,7.9,4.54-7.9h2.78Z"/><path class="cls-1" d="M28.21,0A28.22,28.22,0,1,0,56.43,28.21,28.21,28.21,0,0,0,28.21,0ZM45.69,28.92c-4.26,5-10.18,5.34-13.57,5.56a5.47,5.47,0,0,0-1.88,2.59c-.57,2-.36,3.4.07,6.35A98.49,98.49,0,0,0,33.13,54a20.77,20.77,0,0,1-4.88.72A20.64,20.64,0,0,1,23.38,54a96.33,96.33,0,0,0,2.81-10.54c.43-3,.65-4.4.07-6.35a5.49,5.49,0,0,0-1.87-2.59c-3.39-.22-9.31-.58-13.57-5.56a16.25,16.25,0,0,1-4.11-11c.07-.79.64-.5,1.15,0s1.92,1,5.19,1.57,6-.19,9.63.58a9.74,9.74,0,0,1,5.57,3.46A9.78,9.78,0,0,1,33.83,20c3.65-.77,6.35,0,9.62-.58s4.69-1.06,5.2-1.57,1.08-.79,1.15,0A16.3,16.3,0,0,1,45.69,28.92Z"/></g></g></svg>