<?xml version="1.0" encoding="UTF-8"?>
<svg width="157px" height="26px" viewBox="0 0 157 26" version="1.1" xmlns="http://www.w3.org/2000/svg" xmlns:xlink="http://www.w3.org/1999/xlink">
    <!-- Generator: sketchtool 51.2 (57519) - http://www.bohemiancoding.com/sketch -->
    <title>3BB4D2AD-03A4-4896-BBEB-A0038B1D6E5A-894-00000D7F9B1BBA31</title>
    <desc>Created with sketchtool.</desc>
    <defs></defs>
    <g id="**WEBSITE-PROTOTYPE**" stroke="none" stroke-width="1" fill="none" fill-rule="evenodd">
        <g id="How-it-works" transform="translate(-220.000000, -28.000000)" fill="#121189" fill-rule="nonzero">
            <g id="Navigation---on-white" transform="translate(220.000000, 20.000000)">
                <g id="bb_logo_blue" transform="translate(0.000000, 8.000000)">
                    <polygon id="Shape" points="11.78775 25.883 23.192 20.17925 23.192 6.14575 11.78775 11.84625"></polygon>
                    <polygon id="Shape" points="0 5.7005 10.9655 0 22.80525 5.7005 11.40425 11.40425"></polygon>
                    <g id="Group" transform="translate(34.272727, 2.757576)">
                        <path d="M0.24187879,1.14242424 L9.42637879,1.14242424 C12.7511288,1.14242424 14.4378788,3.26142424 14.4378788,5.59167424 C14.4378788,7.79192424 13.0761288,9.25767424 11.4283788,9.59567424 C13.2873788,9.88167424 14.7791288,11.6886742 14.7791288,13.8856742 C14.7791288,16.4856742 13.0273788,18.5949242 9.70262879,18.5949242 L0.24187879,18.5949242 L0.24187879,1.14242424 Z M8.61712879,8.15592424 C9.87487879,8.15592424 10.6581288,7.34342424 10.6581288,6.20592424 C10.6581288,5.13342424 9.87487879,4.29492424 8.61712879,4.29492424 L3.95662879,4.29492424 L3.95662879,8.15592424 L8.61712879,8.15592424 Z M8.74712879,15.4294242 C10.1608788,15.4294242 10.9961288,14.6169242 10.9961288,13.3624242 C10.9961288,12.2639242 10.2096288,11.3214242 8.74712879,11.3214242 L3.95662879,11.3214242 L3.95662879,15.4424242 L8.74712879,15.4294242 Z" id="Shape"></path>
                        <path d="M17.4571288,5.95892424 L20.7818788,5.95892424 L20.7818788,7.68792424 C21.7681297,6.46199418 23.2393842,5.7263669 24.8118788,5.67292424 L24.8118788,8.92292424 C24.5111515,8.85454981 24.2037802,8.8196708 23.8953788,8.81892424 C22.7968788,8.81892424 21.3311288,9.44617424 20.7818788,10.2586742 L20.7818788,18.5981742 L17.4571288,18.5981742 L17.4571288,5.95892424 Z" id="Shape"></path>
                        <path d="M26.4856288,2.34817424 C26.4856288,1.24967988 27.3761344,0.35917424 28.4746288,0.35917424 C29.5731232,0.35917424 30.4636288,1.24967988 30.4636288,2.34817424 C30.4636288,3.44666861 29.5731232,4.33717424 28.4746288,4.33717424 C27.3798156,4.32833755 26.4944655,3.44298744 26.4856288,2.34817424 Z M26.8106288,5.95892424 L30.1353788,5.95892424 L30.1353788,18.5981742 L26.8236288,18.5981742 L26.8106288,5.95892424 Z" id="Shape"></path>
                        <path d="M39.2808788,5.64367424 C41.8808788,5.64367424 43.4408788,6.76817424 44.2793788,7.91867424 L42.1083788,9.95967424 C41.5165097,9.07238631 40.5059069,8.5566219 39.4401288,8.59792424 C37.4251288,8.59792424 36.0113788,10.0636742 36.0113788,12.2639242 C36.0113788,14.4641742 37.4251288,15.9526742 39.4401288,15.9526742 C40.5005605,15.9703016 41.5004749,15.4599921 42.1083788,14.5909242 L44.2793788,16.6059242 C43.4408788,17.7824242 41.8711288,18.9101742 39.2808788,18.9101742 C35.3808788,18.9101742 32.5826288,16.1639242 32.5826288,12.2639242 C32.5826288,8.36392424 35.3808788,5.64367424 39.2808788,5.64367424 Z" id="Shape"></path>
                        <polygon id="Shape" points="51.2376288 13.7296742 49.7198788 15.3546742 49.7198788 18.6046742 46.3951288 18.6046742 46.3951288 1.14242424 49.7198788 1.14242424 49.7198788 11.5846742 54.5103788 5.95892424 58.5923788 5.95892424 53.5906288 11.6886742 58.7451288 18.5981742 54.5851288 18.5981742"></polygon>
                        <path d="M60.3408788,1.14242424 L63.6656288,1.14242424 L63.6656288,7.58067424 C64.5862939,6.35312076 66.0311869,5.63067424 67.5656288,5.63067424 C70.7831288,5.63067424 73.1653788,8.14292424 73.1653788,12.2769242 C73.1653788,16.5019242 70.7571288,18.8971742 67.5656288,18.8971742 C66.0323889,18.8921015 64.589631,18.1707225 63.6656288,16.9471742 L63.6656288,18.5721742 L60.3408788,18.5721742 L60.3408788,1.14242424 Z M66.5158788,15.9559242 C68.4658788,15.9559242 69.7333788,14.4901742 69.7333788,12.2899242 C69.7333788,10.0896742 68.4333788,8.60117424 66.5158788,8.60117424 C65.3900793,8.62558102 64.3379523,9.16602434 63.6623788,10.0669242 L63.6623788,14.5421742 C64.3515757,15.4197533 65.400146,15.9392614 66.5158788,15.9559242 Z" id="Shape"></path>
                        <polygon id="Shape" points="75.6223788 1.14242424 78.9471288 1.14242424 78.9471288 18.5981742 75.6223788 18.5981742"></polygon>
                        <path d="M81.3878788,12.2639242 C81.3878788,8.68892424 83.9001288,5.64367424 88.0601288,5.64367424 C92.2201288,5.64367424 94.7583788,8.67917424 94.7583788,12.2639242 C94.7583788,15.8486742 92.2461288,18.9101742 88.0601288,18.9101742 C83.8741288,18.9101742 81.3878788,15.8779242 81.3878788,12.2639242 Z M91.3068788,12.2639242 C91.3068788,10.3139242 90.1303788,8.59792424 88.0568788,8.59792424 C85.9833788,8.59792424 84.8393788,10.2976742 84.8393788,12.2639242 C84.8393788,14.2301742 85.9898788,15.9526742 88.0568788,15.9526742 C90.1238788,15.9526742 91.3068788,14.2529242 91.3068788,12.2639242 Z" id="Shape"></path>
                        <path d="M103.042629,5.64367424 C105.642629,5.64367424 107.202629,6.76817424 108.041129,7.91867424 L105.870129,9.95967424 C105.27826,9.07238631 104.267657,8.5566219 103.201879,8.59792424 C101.186879,8.59792424 99.7731288,10.0636742 99.7731288,12.2639242 C99.7731288,14.4641742 101.186879,15.9526742 103.201879,15.9526742 C104.26231,15.9703016 105.262225,15.4599921 105.870129,14.5909242 L108.041129,16.6059242 C107.202629,17.7824242 105.632879,18.9101742 103.042629,18.9101742 C99.1426288,18.9101742 96.3443788,16.1639242 96.3443788,12.2639242 C96.3443788,8.36392424 99.1426288,5.64367424 103.042629,5.64367424 Z" id="Shape"></path>
                        <polygon id="Shape" points="114.999379 13.7296742 113.481629 15.3546742 113.481629 18.6046742 110.156879 18.6046742 110.156879 1.14242424 113.481629 1.14242424 113.481629 11.5846742 118.272129 5.95892424 122.337879 5.95892424 117.355629 11.6886742 122.510129 18.5981742 118.350129 18.5981742"></polygon>
                    </g>
                </g>
            </g>
        </g>
    </g>
</svg>