<?xml version="1.0" encoding="UTF-8"?> <svg xmlns="http://www.w3.org/2000/svg" id="Layer_1" x="0" y="0" width="237" height="69" viewBox="0 0 237 69" xml:space="preserve"><style>.st0{fill:#292e35}.st1{fill:#4178b7}.st2,.st3,.st4{opacity:.9;fill:#4178b7}.st3,.st4{opacity:.8}.st4{opacity:.7}.st5,.st6,.st7{opacity:.6;fill:#4178b7}.st6,.st7{opacity:.5}.st7{opacity:.4}</style><path class="st0" d="M82 20h5.5c1.4 0 2.3.3 3 1 .4.4.7 1 .7 1.7 0 1.3-.7 2-1.7 2.4 1.3.4 2.1 1.2 2.1 2.6 0 1.9-1.5 3-4.1 3H82V20zm4.8 4.3c.9 0 1.4-.3 1.4-.9 0-.6-.5-.9-1.4-.9h-1.9v1.9h1.9zm.4 4.1c.9 0 1.4-.4 1.4-1s-.5-1-1.5-1h-2.3v2h2.4zM98.6 20h3v8.2h5.2v2.6h-8.2V20zM112.7 25.4c0-3.1 2.5-5.7 5.8-5.7s5.8 2.5 5.8 5.6c0 3.1-2.5 5.6-5.8 5.6-3.3.1-5.8-2.4-5.8-5.5zm8.6 0c0-1.6-1.1-3-2.8-3-1.6 0-2.7 1.3-2.7 2.9 0 1.6 1.1 2.9 2.8 2.9 1.6.1 2.7-1.2 2.7-2.8zM131.1 25.4c0-3.2 2.4-5.7 5.7-5.7 2.2 0 3.6.9 4.6 2.3l-2.3 1.7c-.6-.8-1.3-1.3-2.4-1.3-1.5 0-2.6 1.3-2.6 2.9 0 1.6 1.1 2.9 2.6 2.9 1.1 0 1.8-.5 2.4-1.3l2.3 1.6c-1 1.4-2.4 2.4-4.8 2.4-3 .1-5.5-2.2-5.5-5.5zM148.4 20h3v4.4l3.7-4.4h3.6l-4.1 4.7 4.2 6.2h-3.6l-2.7-4-1.1 1.2v2.8h-3V20zM164 25.4c0-3.2 2.4-5.7 5.7-5.7 2.2 0 3.6.9 4.6 2.3l-2.3 1.7c-.6-.8-1.3-1.3-2.4-1.3-1.5 0-2.6 1.3-2.6 2.9 0 1.6 1.1 2.9 2.6 2.9 1.1 0 1.8-.5 2.4-1.3l2.3 1.6c-1 1.4-2.4 2.4-4.8 2.4-3 .1-5.5-2.2-5.5-5.5zM181.2 20h3v4h3.8v-4h3v10.8h-3v-4.1h-3.8v4.1h-3V20zM202.3 19.9h2.9l4.6 10.9h-3.2l-.8-1.9h-4.2l-.8 1.9h-3.2l4.7-10.9zm2.6 6.6l-1.2-3.1-1.2 3.1h2.4zM216.4 20h3v10.8h-3V20zM227 20h2.8l4.5 5.7V20h3v10.8h-2.6l-4.6-5.9v5.9h-3V20zM82.1 45.9c0-3.1 2.3-5.6 5.5-5.6 2 0 3.1.7 4.2 1.7l-.8.9c-1-.9-2-1.5-3.4-1.5-2.4 0-4.2 1.9-4.2 4.4 0 2.5 1.8 4.5 4.2 4.5 1.5 0 2.5-.6 3.5-1.6l.8.8c-1.1 1.1-2.4 1.9-4.3 1.9-3.2.1-5.5-2.4-5.5-5.5zM103.6 40.4h1.1l4.9 10.9h-1.3l-1.3-2.9h-5.9l-1.3 2.9h-1.3l5.1-10.9zm3 6.9l-2.5-5.5-2.5 5.5h5zM117.3 40.5h4c2.4 0 4 1.3 4 3.4 0 2.3-1.9 3.5-4.3 3.5h-2.6v3.8h-1.2V40.5zm3.9 5.9c1.8 0 3-1 3-2.4 0-1.5-1.2-2.3-2.9-2.3h-2.7v4.8h2.6zM133.3 40.5h1.2v10.8h-1.2V40.5zM146.1 41.6h-3.6v-1.1h8.5v1.1h-3.6v9.7h-1.2v-9.7zM161.5 40.4h1.1l4.9 10.9h-1.3l-1.3-2.9H159l-1.3 2.9h-1.3l5.1-10.9zm3 6.9l-2.5-5.5-2.5 5.5h5zM175.2 40.5h1.2v9.7h6.1v1.1h-7.3V40.5z"></path><g><circle class="st1" cx="40.4" cy="42" r="2.4"></circle><circle class="st2" cx="44.4" cy="46.8" r="2.2"></circle><circle class="st3" cx="47.8" cy="51.4" r="2"></circle><circle class="st4" cx="50.4" cy="55.9" r="1.6"></circle><circle class="st5" cx="52.5" cy="60.2" r="1.3"></circle><circle class="st6" cx="53.9" cy="64.5" r="1.2"></circle><circle class="st7" cx="54.7" cy="68.5" r=".9"></circle><circle class="st1" cx="41" cy="33.9" r="2.4"></circle><circle class="st2" cx="46.8" cy="31.6" r="2.2"></circle><circle class="st3" cx="52.2" cy="29.7" r="2"></circle><circle class="st4" cx="57.2" cy="28.6" r="1.6"></circle><circle class="st5" cx="62" cy="28" r="1.3"></circle><circle class="st6" cx="66.5" cy="28" r="1.2"></circle><circle class="st7" cx="70.6" cy="28.4" r=".9"></circle><circle class="st1" cx="33.4" cy="30.8" r="2.4"></circle><circle class="st2" cx="33" cy="24.5" r="2.2"></circle><circle class="st3" cx="32.9" cy="18.8" r="2"></circle><circle class="st4" cx="33.4" cy="13.7" r="1.6"></circle><circle class="st5" cx="34.3" cy="9" r="1.3"></circle><circle class="st6" cx="35.6" cy="4.7" r="1.2"></circle><circle class="st7" cx="37.3" cy=".9" r=".9"></circle><circle class="st1" cx="28.1" cy="37.1" r="2.4"></circle><circle class="st2" cx="22" cy="35.5" r="2.2"></circle><circle class="st3" cx="16.6" cy="33.8" r="2"></circle><circle class="st4" cx="11.9" cy="31.7" r="1.6"></circle><circle class="st5" cx="7.6" cy="29.4" r="1.3"></circle><circle class="st6" cx="4" cy="26.8" r="1.2"></circle><circle class="st7" cx=".9" cy="24.1" r=".9"></circle><circle class="st1" cx="32.4" cy="44" r="2.4"></circle><circle class="st2" cx="29.1" cy="49.3" r="2.2"></circle><circle class="st3" cx="25.8" cy="54" r="2"></circle><circle class="st4" cx="22.3" cy="57.8" r="1.6"></circle><circle class="st5" cx="18.9" cy="61.1" r="1.3"></circle><circle class="st6" cx="15.3" cy="63.8" r="1.2"></circle><circle class="st7" cx="11.7" cy="65.8" r=".9"></circle></g><path fill="none" d="M-25.4-23.5h288V94.6h-288z"></path></svg> 