<svg xmlns="http://www.w3.org/2000/svg" xmlns:xlink="http://www.w3.org/1999/xlink" width="217.524" height="37.632" viewBox="0 0 217.524 37.632">
  <defs>
    <clipPath id="clip-path">
      <rect width="217.524" height="37.632" fill="none"/>
    </clipPath>
  </defs>
  <g id="bcdiploma-logo-header" clip-path="url(#clip-path)">
    <g id="Groupe_8655" data-name="Groupe 8655" transform="translate(-44.131 -274.626)">
      <path id="Tracé_14250" data-name="Tracé 14250" d="M51.472,285.588H49.637v1.836h1.836v-1.836Z" fill="#00adef" opacity="0.53"/>
      <rect id="Rectangle_6529" data-name="Rectangle 6529" width="1.835" height="1.835" transform="translate(53.307 300.271)" fill="#00adef" opacity="0.53"/>
      <rect id="Rectangle_6530" data-name="Rectangle 6530" width="1.836" height="1.836" transform="translate(47.802 289.259)" fill="#00adef" opacity="0.53"/>
      <path id="Tracé_14251" data-name="Tracé 14251" d="M44.183,291.094h-.052v1.836H47.8v-1.836H44.183Z" fill="#00adef" opacity="0.53"/>
      <path id="Tracé_14252" data-name="Tracé 14252" d="M73.544,302.109l16.518,3.664,0-7.889-16.519-4.956Z" fill="#00adef"/>
      <path id="Tracé_14253" data-name="Tracé 14253" d="M98.291,307.042l-2.619-1.519,2.619,3.625,2.619-3.625Z" fill="#00adef"/>
      <path id="Tracé_14254" data-name="Tracé 14254" d="M100.91,304.781l-2.619-4.212-2.619,4.212,2.619,1.522Z" fill="#00adef"/>
      <path id="Tracé_14255" data-name="Tracé 14255" d="M99.19,300.995v-8.111l3.654-1.827-29.3-16.43v16.465L91.9,296.6l5.457-2.8v7.243l.934-1.5Z" fill="#00adef"/>
      <g id="Groupe_8654" data-name="Groupe 8654" opacity="0.53">
        <g id="Groupe_8653" data-name="Groupe 8653">
          <path id="Tracé_14256" data-name="Tracé 14256" d="M73.544,302.036v-9.108l-16.512,4.953v.555h1.782v1.835h1.835v1.836H58.813v-1.836H57.03v1.836H55.142v3.671h1.836v-1.836h1.835v1.437l3.67-.815v-2.456h1.836v2.047l9.224-2.049.02,0v-.068Z" fill="#00adef"/>
          <path id="Tracé_14257" data-name="Tracé 14257" d="M73.544,291.025v-16.4l-12.9,7.231v1.9H58.813v1.836H56.978v-1.836H55.142v5.506H53.307v-1.835H51.472V291.1h3.67v1.835h-3.67V291.1H49.637V296.6h1.835v-1.835h3.67v1.809l.049.024,5.457-1.629v-2.04h1.836v1.481l11.06-3.318.02.006v-.068Zm-12.9.07H58.813v1.835H56.978V291.1h1.835v-1.836h1.836Zm3.67-3.671H62.484v-1.836h1.835Z" fill="#00adef"/>
        </g>
      </g>
    </g>
    <g id="Groupe_8657" data-name="Groupe 8657" transform="translate(-44.131 -274.626)">
      <g id="Groupe_8656" data-name="Groupe 8656">
        <path id="Tracé_14258" data-name="Tracé 14258" d="M124.568,281.7a7.642,7.642,0,0,1,2.317,1.556,7.27,7.27,0,0,1,1.571,2.3,7.026,7.026,0,0,1,.58,2.847,7.309,7.309,0,0,1-.514,2.762,6.993,6.993,0,0,1-1.472,2.268,6.6,6.6,0,0,1,1.472,2.233,7.307,7.307,0,0,1,.514,2.763,7.025,7.025,0,0,1-.58,2.846,7.472,7.472,0,0,1-1.571,2.316,7.736,7.736,0,0,1-2.317,1.589,6.852,6.852,0,0,1-2.845.6h-8.274V281.119h8.274A7.02,7.02,0,0,1,124.568,281.7Zm-6.585,9.481h3.74A2.769,2.769,0,0,0,124.5,288.4a2.572,2.572,0,0,0-.811-1.937,2.74,2.74,0,0,0-1.968-.778h-3.74Zm5.708,9.216a2.678,2.678,0,0,0,.811-1.969,2.573,2.573,0,0,0-.811-1.936,2.74,2.74,0,0,0-1.968-.778h-3.74v5.494h3.74A2.678,2.678,0,0,0,123.691,300.395Z" fill="#00adef"/>
        <path id="Tracé_14259" data-name="Tracé 14259" d="M137.2,286.529a2.7,2.7,0,0,0-.778,1.936v9.994a2.645,2.645,0,0,0,.778,1.919,2.611,2.611,0,0,0,1.836.828h6.453l.927,4.566h-7.181a7.143,7.143,0,0,1-2.863-.579,7.634,7.634,0,0,1-2.349-1.571,7.351,7.351,0,0,1-1.588-2.317,7.022,7.022,0,0,1-.58-2.846v-9.927a7.265,7.265,0,0,1,.58-2.88A7.582,7.582,0,0,1,134,283.286a7.351,7.351,0,0,1,2.317-1.588,7.02,7.02,0,0,1,2.845-.579h7.248l-.927,4.566h-6.453A2.581,2.581,0,0,0,137.2,286.529Z" fill="#00adef"/>
        <path id="Tracé_14260" data-name="Tracé 14260" d="M153.761,305.193a7.582,7.582,0,0,1-2.366-1.571,7.294,7.294,0,0,1-1.589-2.334,7.134,7.134,0,0,1-.578-2.862v-4.534a7.141,7.141,0,0,1,.578-2.862,7.354,7.354,0,0,1,3.9-3.9,7.142,7.142,0,0,1,2.862-.579,7.448,7.448,0,0,1,1.44.133,7.3,7.3,0,0,1,1.34.4v-7.91h4.568v26.606H156.64A7.255,7.255,0,0,1,153.761,305.193Zm.3-5.675a2.834,2.834,0,0,0,1.506,1.439,2.745,2.745,0,0,0,1.076.215h2.713v-7.28a2.792,2.792,0,0,0-.811-1.968,2.8,2.8,0,0,0-.876-.6,2.713,2.713,0,0,0-1.093-.216,2.626,2.626,0,0,0-1.952.812,2.708,2.708,0,0,0-.794,1.968v4.534A2.557,2.557,0,0,0,154.058,299.518Z" fill="#f4f4f4"/>
        <path id="Tracé_14261" data-name="Tracé 14261" d="M168.357,285.785a2.8,2.8,0,1,1,1.952.794A2.656,2.656,0,0,1,168.357,285.785Zm4.269,2.615v17.372h-4.7V288.4Z" fill="#f4f4f4"/>
        <path id="Tracé_14262" data-name="Tracé 14262" d="M181.132,312.258h-4.6v-18.4a7.135,7.135,0,0,1,.579-2.862,7.626,7.626,0,0,1,1.571-2.35,7.291,7.291,0,0,1,2.334-1.588,7.351,7.351,0,0,1,5.724,0,7.291,7.291,0,0,1,2.334,1.588,7.627,7.627,0,0,1,1.571,2.35,7.135,7.135,0,0,1,.579,2.862v4.6a7.324,7.324,0,0,1-.562,2.863,7.153,7.153,0,0,1-3.888,3.888,7.323,7.323,0,0,1-2.862.562h-2.78Zm.794-20.434a2.6,2.6,0,0,0-.794,1.936v7.412h2.78a2.686,2.686,0,0,0,1.952-.777,2.6,2.6,0,0,0,.794-1.936v-4.6a2.734,2.734,0,0,0-.811-1.985,2.651,2.651,0,0,0-1.969-.827A2.685,2.685,0,0,0,181.926,291.824Z" fill="#f4f4f4"/>
        <path id="Tracé_14263" data-name="Tracé 14263" d="M198.938,305.772h-4.566V279.166h4.566Z" fill="#f4f4f4"/>
        <path id="Tracé_14264" data-name="Tracé 14264" d="M212.457,287.076a7.659,7.659,0,0,1,2.333,1.588A7.424,7.424,0,0,1,216.362,291a7.056,7.056,0,0,1,.58,2.83v4.6a7.136,7.136,0,0,1-.58,2.862,7.345,7.345,0,0,1-3.9,3.9,7.365,7.365,0,0,1-5.725,0,7.345,7.345,0,0,1-3.9-3.9,7.134,7.134,0,0,1-.578-2.862v-4.6a7.055,7.055,0,0,1,.578-2.83,7.441,7.441,0,0,1,1.572-2.333,7.671,7.671,0,0,1,2.333-1.588,7.161,7.161,0,0,1,5.725,0Zm-.926,4.9a2.607,2.607,0,0,0-3.872,0,2.751,2.751,0,0,0-.777,1.952v4.467a2.793,2.793,0,0,0,.777,1.986,2.677,2.677,0,0,0,3.872,0,2.8,2.8,0,0,0,.778-1.986v-4.467A2.757,2.757,0,0,0,211.531,291.973Z" fill="#f4f4f4"/>
        <path id="Tracé_14265" data-name="Tracé 14265" d="M239.86,287.109a7.056,7.056,0,0,1,2.333,1.572,7.637,7.637,0,0,1,1.572,2.349,7.142,7.142,0,0,1,.579,2.862v11.88h-4.566V293.925a2.757,2.757,0,0,0-.778-1.952,2.665,2.665,0,0,0-1.936-.861,2.733,2.733,0,0,0-1.985.812,2.65,2.65,0,0,0-.828,1.968v11.88h-4.566V293.925a2.757,2.757,0,0,0-.778-1.952,2.739,2.739,0,0,0-4.716,1.919v11.88h-4.6V293.959a7.422,7.422,0,0,1,.563-2.879,7.254,7.254,0,0,1,3.887-3.955,7.144,7.144,0,0,1,2.863-.579,6.678,6.678,0,0,1,2.78.513,7.41,7.41,0,0,1,2.283,1.506,7.1,7.1,0,0,1,5.03-2.019A7.316,7.316,0,0,1,239.86,287.109Z" fill="#f4f4f4"/>
        <path id="Tracé_14266" data-name="Tracé 14266" d="M257.188,287.125a7.4,7.4,0,0,1,3.888,3.9,7.142,7.142,0,0,1,.579,2.862v11.88h-7.246a7.26,7.26,0,0,1-2.88-.579,7.583,7.583,0,0,1-2.366-1.571,7.276,7.276,0,0,1-1.588-2.334,7.135,7.135,0,0,1-.579-2.862v-4.534a7.142,7.142,0,0,1,.579-2.862,7.356,7.356,0,0,1,3.9-3.9,7.144,7.144,0,0,1,2.863-.579A7.021,7.021,0,0,1,257.188,287.125Zm-.926,4.8a2.755,2.755,0,0,0-3.906,0,2.708,2.708,0,0,0-.794,1.968v4.534a2.578,2.578,0,0,0,.844,1.952,2.825,2.825,0,0,0,2,.794h2.647v-7.28A2.708,2.708,0,0,0,256.262,291.924Z" fill="#f4f4f4"/>
      </g>
    </g>
  </g>
</svg>
