<svg width="653px" height="177px" viewBox="0 0 653 177" version="1.1" xmlns="http://www.w3.org/2000/svg" xmlns:xlink="http://www.w3.org/1999/xlink">
    <g id="Page-1" stroke="none" stroke-width="1" fill="none" fill-rule="evenodd">
        <g id="bitdegree_v2" fill="#000000" fill-rule="nonzero">
            <path d="M0.6,0.4 L0.6,131.9 L68.1,176.9 L135.6,131.9 L135.6,0.4 L0.6,0.4 Z M120.6,123.9 L68.1,158.9 L15.6,123.9 L15.6,82.4 L34.4,82.4 L34.4,114.7 C34.4,115.6 34.7,116.3 35.4,117 C36,117.6 36.8,118 37.7,118 L75.9,118 C80.1,118 83.9,117.3 87.1,115.8 C90.3,114.3 93,112.4 95.2,110 C97.4,107.6 99,104.9 100.1,101.9 C101.2,98.9 101.8,95.9 101.8,92.8 C101.8,88.1 100.8,84.2 98.7,81.1 C96.6,78 94.3,75.6 91.9,74 C92.5,73.7 93.2,73.1 94.1,72.2 C95,71.3 95.9,70.2 96.9,68.9 C97.8,67.6 98.6,66 99.2,64.1 C99.8,62.2 100.2,60.1 100.2,57.7 C100.2,55.3 99.7,52.7 98.8,50 C97.9,47.2 96.4,44.7 94.3,42.3 C92.2,39.9 89.5,38 86,36.4 C82.6,34.8 78.3,34.1 73.2,34.1 L37.7,34.1 C36.8,34.1 36.1,34.4 35.4,35.1 C34.8,35.7 34.4,36.5 34.4,37.4 L34.4,67.6 L15.6,67.6 L15.6,15.6 L120.6,15.6 L120.6,123.9 Z M54.1,82.4 L72.9,82.4 C77.1,82.4 80.3,83.4 82.4,85.3 C84.5,87.2 85.6,89.7 85.6,92.7 C85.6,95.7 84.6,98.2 82.5,100.1 C80.5,102 77.2,102.9 72.8,102.9 L50.7,102.9 L50.7,82.4 L54.1,82.4 Z M50.7,67.4 L50.7,48.9 L71.9,48.9 C76.1,48.9 79.1,49.7 81,51.2 C82.9,52.8 83.9,55.1 83.9,58.1 C83.9,61.1 82.9,63.4 81,65 C79.1,66.6 76,67.3 71.9,67.3 L54.1,67.3 L50.7,67.3 L50.7,67.4 Z M196.8,112.3 C196,112.3 195.4,112 194.8,111.5 C194.2,110.9 194,110.3 194,109.5 L194,42.3 C194,41.5 194.3,40.9 194.8,40.3 C195.4,39.7 196,39.5 196.8,39.5 L227.5,39.5 C231.9,39.5 235.6,40.2 238.6,41.5 C241.6,42.9 244,44.6 245.8,46.6 C247.6,48.6 248.9,50.9 249.7,53.3 C250.5,55.7 250.9,57.9 250.9,60 C250.9,62.1 250.6,63.9 250.1,65.6 C249.5,67.2 248.9,68.6 248.1,69.8 C247.3,70.9 246.5,71.9 245.7,72.7 C244.9,73.5 244.3,74 243.8,74.3 C245.9,75.8 247.9,77.8 249.7,80.5 C251.5,83.2 252.4,86.6 252.4,90.6 C252.4,93.2 251.9,95.9 250.9,98.5 C249.9,101.1 248.5,103.4 246.6,105.5 C244.7,107.6 242.4,109.3 239.6,110.5 C236.8,111.8 233.5,112.4 229.9,112.4 L196.8,112.4 L196.8,112.3 Z M236.8,60.5 C236.8,57.9 236,55.9 234.3,54.5 C232.6,53.1 230,52.5 226.4,52.5 L208,52.5 L208,68.5 L226.4,68.5 C230,68.5 232.6,67.8 234.3,66.5 C236,65.1 236.8,63.1 236.8,60.5 Z M208,99.3 L227.2,99.3 C231,99.3 233.8,98.5 235.6,96.9 C237.4,95.3 238.3,93.1 238.3,90.5 C238.3,87.9 237.4,85.7 235.5,84.1 C233.7,82.4 230.9,81.6 227.2,81.6 L208,81.6 L208,99.3 Z M271.5,38.5 C272.3,38.5 272.9,38.8 273.5,39.3 C274.1,39.9 274.3,40.5 274.3,41.3 L274.3,49.4 C274.3,50.2 274,50.8 273.5,51.4 C272.9,52 272.3,52.2 271.5,52.2 L262.6,52.2 C261.8,52.2 261.2,51.9 260.6,51.4 C260,50.8 259.8,50.2 259.8,49.4 L259.8,41.3 C259.8,40.5 260.1,39.9 260.6,39.3 C261.2,38.7 261.8,38.5 262.6,38.5 L271.5,38.5 Z M273.8,109.5 C273.8,110.3 273.5,110.9 273,111.5 C272.4,112.1 271.8,112.3 271,112.3 L263,112.3 C262.2,112.3 261.6,112 261,111.5 C260.4,110.9 260.2,110.3 260.2,109.5 L260.2,61 C260.2,60.2 260.5,59.6 261,59 C261.6,58.4 262.2,58.2 263,58.2 L270.9,58.2 C271.7,58.2 272.3,58.5 272.9,59 C273.5,59.6 273.7,60.2 273.7,61 L273.7,109.5 L273.8,109.5 Z M302.1,92.7 C302.1,94.8 302.7,96.6 303.8,97.8 C304.9,99.1 307.1,99.7 310.2,99.7 L316.5,99.7 C317.3,99.7 317.9,100 318.5,100.5 C319.1,101.1 319.3,101.7 319.3,102.5 L319.3,109.4 C319.3,110.2 319,110.8 318.5,111.4 C317.9,112 317.3,112.2 316.5,112.2 L308.8,112.2 C302.3,112.2 297.3,110.6 293.8,107.5 C290.3,104.3 288.5,99.5 288.5,93 L288.5,70.7 L281.6,70.7 C280.8,70.7 280.2,70.4 279.6,69.9 C279,69.3 278.8,68.7 278.8,67.9 L278.8,61 C278.8,60.2 279.1,59.6 279.6,59 C280.2,58.4 280.8,58.2 281.6,58.2 L288.5,58.2 L288.5,41.2 C288.5,40.4 288.8,39.8 289.3,39.2 C289.8,38.6 290.5,38.4 291.3,38.4 L299.2,38.4 C300,38.4 300.6,38.7 301.2,39.2 C301.8,39.8 302,40.4 302,41.2 L302,58.2 L315.4,58.2 C316.2,58.2 316.8,58.5 317.4,59 C318,59.6 318.2,60.2 318.2,61 L318.2,67.9 C318.2,68.7 317.9,69.3 317.4,69.9 C316.8,70.5 316.2,70.7 315.4,70.7 L302,70.7 L302,92.7 L302.1,92.7 Z M354.9,39.5 C360,39.5 364.5,40.2 368.3,41.5 C372.1,42.9 375.2,44.8 377.8,47.3 C380.3,49.8 382.3,52.8 383.6,56.3 C385,59.8 385.8,63.8 386,68.2 C386.3,73.3 386.3,78.5 386,83.6 C385.7,88 384.9,91.9 383.6,95.5 C382.2,99 380.3,102.1 377.8,104.5 C375.3,107 372.2,108.9 368.5,110.3 C364.8,111.7 360.4,112.3 355.4,112.3 L329.2,112.3 C328.4,112.3 327.8,112 327.2,111.5 C326.6,110.9 326.4,110.3 326.4,109.5 L326.4,42.3 C326.4,41.5 326.7,40.9 327.2,40.3 C327.8,39.7 328.4,39.5 329.2,39.5 L354.9,39.5 Z M371.9,68.2 C371.8,66 371.3,63.9 370.6,62 C369.9,60.1 368.8,58.4 367.4,57 C366,55.6 364.2,54.5 362,53.7 C359.9,52.9 357.3,52.5 354.3,52.5 L340.4,52.5 L340.4,99.3 L354.9,99.3 C357.7,99.3 360.2,98.9 362.3,98.1 C364.4,97.3 366.1,96.2 367.5,94.8 C368.9,93.4 369.9,91.8 370.7,89.8 C371.4,87.9 371.9,85.8 372,83.6 C372.2,78.5 372.2,73.3 371.9,68.2 Z M391.8,85.3 C391.8,81.4 392.4,77.8 393.6,74.3 C394.8,70.9 396.5,67.9 398.7,65.4 C400.9,62.9 403.6,60.9 406.8,59.4 C410,57.9 413.5,57.2 417.4,57.2 C421.3,57.2 424.8,57.9 428,59.3 C431.2,60.7 433.8,62.6 436.1,65 C438.3,67.4 440,70.2 441.2,73.4 C442.4,76.6 443,80 443,83.5 L443,88.2 C443,89 442.7,89.6 442.2,90.2 C441.6,90.8 441,91 440.2,91 L405.5,91 C405.5,92.6 405.8,94 406.5,95.2 C407.2,96.4 408,97.4 409.2,98.3 C410.3,99.1 411.6,99.8 413,100.2 C414.5,100.6 415.9,100.8 417.5,100.8 C419.7,100.8 421.5,100.6 422.9,100.1 C424.3,99.6 425.4,99.1 426.3,98.4 C427.1,97.8 427.7,97.5 428.2,97.3 C428.7,97.1 429.3,97 430.2,97 L438.5,97 C439.3,97 439.9,97.3 440.5,97.8 C441.1,98.4 441.4,99 441.3,99.8 C441.2,100.8 440.7,102 439.7,103.5 C438.7,105 437.2,106.5 435.2,108 C433.2,109.5 430.7,110.7 427.8,111.7 C424.9,112.7 421.4,113.3 417.6,113.3 C413.7,113.3 410.2,112.6 407,111.3 C403.9,109.9 401.2,108 398.9,105.5 C396.7,103 395,100 393.8,96.6 C392.4,93.2 391.8,89.4 391.8,85.3 Z M417.3,69.7 C415.3,69.7 413.6,70 412.2,70.6 C410.8,71.2 409.6,72 408.6,72.9 C407.6,73.8 406.9,74.9 406.4,76 C405.9,77.1 405.5,78.2 405.4,79.3 L428.9,79.3 C428.8,78.3 428.5,77.2 428.1,76 C427.7,74.9 427.1,73.8 426.2,72.9 C425.3,72 424.2,71.2 422.8,70.6 C421.3,70 419.5,69.7 417.3,69.7 Z M473.6,122.7 C475.1,122.7 476.5,122.5 478.1,122 C479.6,121.5 481,120.8 482.3,119.9 C483.5,118.9 484.6,117.7 485.4,116.2 C486.2,114.7 486.6,113 486.6,111 L486.6,107.1 C486,107.7 485.3,108.4 484.4,109.1 C483.5,109.8 482.4,110.5 481.1,111.1 C479.8,111.7 478.3,112.2 476.6,112.7 C474.9,113.1 473,113.3 470.8,113.3 C467.3,113.3 464.2,112.6 461.4,111.3 C458.6,109.9 456.2,108.1 454.2,105.9 C452.2,103.7 450.7,101 449.5,98.1 C448.4,95.2 447.7,92.1 447.6,88.9 C447.5,87.9 447.5,86.6 447.5,85.3 C447.5,83.9 447.5,82.7 447.6,81.7 C447.7,78.5 448.4,75.4 449.5,72.5 C450.6,69.6 452.2,67 454.2,64.7 C456.2,62.4 458.6,60.6 461.4,59.3 C464.2,57.9 467.3,57.3 470.8,57.3 C472.9,57.3 474.9,57.5 476.6,57.9 C478.3,58.3 479.8,58.8 481.1,59.5 C482.4,60.1 483.5,60.8 484.4,61.5 C485.3,62.2 486,62.9 486.6,63.5 L486.6,61 C486.6,60.2 486.9,59.6 487.4,59 C488,58.4 488.6,58.2 489.4,58.2 L497.3,58.2 C498.1,58.2 498.7,58.5 499.3,59 C499.9,59.6 500.1,60.2 500.1,61 L500.1,109.8 C500.1,118.2 497.8,124.5 493.1,128.8 C488.4,133.1 482,135.2 473.7,135.2 C470.2,135.2 466.9,134.7 463.9,133.8 C460.9,132.9 458.3,131.6 456,130.1 C453.8,128.5 452,126.8 450.7,124.8 C449.4,122.8 448.7,120.8 448.5,118.7 C448.4,117.9 448.7,117.3 449.3,116.7 C449.9,116.1 450.6,115.9 451.3,115.9 L458.4,115.9 C459.4,115.9 460.2,116.2 460.9,116.9 C461.6,117.6 462.2,118.2 462.7,118.7 C463.6,119.9 464.8,120.8 466.4,121.6 C467.9,122.3 470.3,122.7 473.6,122.7 Z M461.2,82.3 C461,84.2 461,86.2 461.2,88.1 C461.6,92.6 463,95.8 465.4,97.8 C467.8,99.8 470.6,100.8 474,100.8 C477.4,100.8 480.2,99.8 482.6,97.8 C484.9,95.8 486.3,92.9 486.6,89.2 C486.7,88.2 486.8,86.8 486.8,85.2 C486.8,83.6 486.7,82.3 486.6,81.2 C486.3,77.6 484.9,74.8 482.6,72.7 C480.3,70.6 477.4,69.6 474,69.6 C470.6,69.6 467.7,70.6 465.4,72.6 C463,74.6 461.6,77.8 461.2,82.3 Z M535.5,70.7 C531.3,70.7 528.3,71.6 526.5,73.5 C524.7,75.3 523.7,78.3 523.7,82.5 L523.7,109.5 C523.7,110.3 523.4,110.9 522.9,111.5 C522.3,112.1 521.7,112.3 520.9,112.3 L513,112.3 C512.2,112.3 511.6,112 511,111.5 C510.4,110.9 510.2,110.3 510.2,109.5 L510.2,61 C510.2,60.2 510.5,59.6 511,59 C511.6,58.4 512.2,58.2 513,58.2 L520.9,58.2 C521.7,58.2 522.3,58.5 522.9,59 C523.5,59.6 523.7,60.2 523.7,61 L523.7,63.4 C525.5,61.7 527.4,60.5 529.5,59.6 C531.5,58.7 534.2,58.2 537.6,58.2 L542.3,58.2 C543.1,58.2 543.7,58.5 544.3,59 C544.9,59.6 545.1,60.2 545.1,61 L545.1,67.9 C545.1,68.7 544.8,69.3 544.3,69.9 C543.7,70.5 543.1,70.7 542.3,70.7 L535.5,70.7 Z M546,85.3 C546,81.4 546.6,77.8 547.8,74.3 C549,70.9 550.7,67.9 552.9,65.4 C555.1,62.9 557.8,60.9 561,59.4 C564.2,57.9 567.7,57.2 571.6,57.2 C575.5,57.2 579,57.9 582.2,59.3 C585.4,60.7 588,62.6 590.3,65 C592.5,67.4 594.2,70.2 595.4,73.4 C596.6,76.6 597.2,80 597.2,83.5 L597.2,88.2 C597.2,89 596.9,89.6 596.4,90.2 C595.8,90.8 595.2,91 594.4,91 L559.7,91 C559.7,92.6 560,94 560.7,95.2 C561.4,96.4 562.2,97.4 563.3,98.3 C564.4,99.1 565.7,99.8 567.2,100.2 C568.7,100.6 570.1,100.8 571.7,100.8 C573.9,100.8 575.7,100.6 577.1,100.1 C578.5,99.6 579.6,99.1 580.5,98.4 C581.3,97.8 581.9,97.5 582.4,97.3 C582.9,97.1 583.5,97 584.4,97 L592.7,97 C593.5,97 594.1,97.3 594.7,97.8 C595.3,98.4 595.5,99 595.5,99.8 C595.4,100.8 594.9,102 593.9,103.5 C592.9,105 591.4,106.5 589.4,108 C587.4,109.5 584.9,110.7 582,111.7 C579.1,112.7 575.6,113.3 571.8,113.3 C567.9,113.3 564.4,112.6 561.2,111.3 C558,109.9 555.4,108 553.1,105.5 C550.9,103 549.2,100 548,96.6 C546.6,93.2 546,89.4 546,85.3 Z M571.5,69.7 C569.5,69.7 567.8,70 566.4,70.6 C565,71.2 563.8,72 562.8,72.9 C561.8,73.8 561.1,74.9 560.6,76 C560.1,77.1 559.7,78.2 559.6,79.3 L583,79.3 C582.9,78.3 582.6,77.2 582.2,76 C581.8,74.9 581.2,73.8 580.3,72.9 C579.4,72 578.3,71.2 576.9,70.6 C575.5,70 573.7,69.7 571.5,69.7 Z M601.5,85.3 C601.5,81.4 602.1,77.8 603.3,74.3 C604.5,70.9 606.2,67.9 608.4,65.4 C610.6,62.9 613.3,60.9 616.5,59.4 C619.7,57.9 623.2,57.2 627.1,57.2 C631,57.2 634.5,57.9 637.7,59.3 C640.9,60.7 643.5,62.6 645.8,65 C648,67.4 649.7,70.2 650.9,73.4 C652.1,76.6 652.7,80 652.7,83.5 L652.7,88.2 C652.7,89 652.4,89.6 651.9,90.2 C651.3,90.8 650.7,91 649.9,91 L615.2,91 C615.2,92.6 615.5,94 616.2,95.2 C616.9,96.4 617.7,97.4 618.9,98.3 C620,99.1 621.3,99.8 622.7,100.2 C624.2,100.6 625.6,100.8 627.2,100.8 C629.4,100.8 631.2,100.6 632.6,100.1 C634,99.6 635.1,99.1 636,98.4 C636.8,97.8 637.4,97.5 637.9,97.3 C638.4,97.1 639,97 639.9,97 L648.2,97 C649,97 649.6,97.3 650.2,97.8 C650.8,98.4 651.1,99 651,99.8 C650.9,100.8 650.4,102 649.4,103.5 C648.4,105 646.9,106.5 644.9,108 C642.9,109.5 640.4,110.7 637.5,111.7 C634.6,112.7 631.1,113.3 627.3,113.3 C623.4,113.3 619.9,112.6 616.7,111.3 C613.6,109.9 610.9,108 608.6,105.5 C606.3,103 604.7,100 603.5,96.6 C602.1,93.2 601.5,89.4 601.5,85.3 Z M627,69.7 C625,69.7 623.3,70 621.9,70.6 C620.5,71.2 619.3,72 618.3,72.9 C617.3,73.8 616.6,74.9 616.1,76 C615.6,77.1 615.2,78.2 615.1,79.3 L638.6,79.3 C638.5,78.3 638.2,77.2 637.8,76 C637.4,74.9 636.8,73.8 635.9,72.9 C635,72 633.9,71.2 632.5,70.6 C631.1,70 629.3,69.7 627,69.7 Z" id="Shape"></path>
        </g>
    </g>
</svg>