<?xml version="1.0" standalone="no"?>
<!DOCTYPE svg PUBLIC "-//W3C//DTD SVG 20010904//EN"
 "http://www.w3.org/TR/2001/REC-SVG-20010904/DTD/svg10.dtd">
<svg version="1.0" xmlns="http://www.w3.org/2000/svg"
 width="401.000000pt" height="401.000000pt" viewBox="0 0 401.000000 401.000000"
 preserveAspectRatio="xMidYMid meet">
<metadata>
Created by potrace 1.11, written by Peter Selinger 2001-2013
</metadata>
<g transform="translate(0.000000,401.000000) scale(0.100000,-0.100000)"
fill="#000000" stroke="none">
<path d="M2060 4003 l-485 -3 -782 -783 -783 -782 0 -1212 0 -1212 228 -3
c125 -2 1025 -2 2000 0 l1772 2 0 2000 0 2000 -732 -2 c-403 -2 -951 -4 -1218
-5z m1049 -1344 c173 -40 305 -184 330 -361 30 -214 -83 -404 -286 -481 -57
-21 -69 -22 -650 -25 -326 -1 -593 1 -593 5 1 4 24 42 53 83 l52 75 128 3 127
3 -131 195 c-72 108 -134 192 -139 188 -4 -5 -89 -132 -189 -281 l-181 -273
-96 0 c-79 0 -95 3 -91 14 3 8 105 163 226 345 122 182 221 333 221 336 0 3
-124 5 -275 5 -151 0 -275 -3 -275 -6 0 -3 11 -24 24 -47 70 -120 74 -276 12
-402 -41 -82 -108 -151 -189 -192 -87 -44 -160 -53 -434 -53 l-253 0 0 240 0
241 92 -3 93 -3 -4 -153 -4 -154 189 4 c214 3 238 10 306 86 45 50 63 100 62
182 -1 74 -23 127 -76 180 -66 67 -83 70 -385 70 l-273 0 0 85 0 85 755 0 755
0 230 -345 230 -345 295 0 c323 0 331 1 405 60 59 47 91 121 91 211 0 85 -16
131 -63 185 -47 53 -118 84 -197 84 -88 0 -135 -16 -191 -67 -59 -53 -82 -107
-85 -198 l-3 -70 -85 -3 -86 -3 -7 37 c-9 50 12 166 42 230 50 107 159 197
274 228 64 17 186 20 249 5z m365 -730 c56 -26 53 -105 -3 -129 -75 -31 -133
58 -76 115 27 28 42 30 79 14z m-2794 -354 c33 -17 60 -52 60 -77 0 -25 -52
-24 -75 2 -26 29 -73 26 -87 -5 -15 -33 -1 -75 29 -86 17 -6 30 -2 52 16 16
14 41 25 55 25 38 0 34 -34 -8 -76 -28 -28 -42 -34 -75 -34 -80 0 -131 47
-131 120 0 102 92 161 180 115z m1132 -15 c28 -34 23 -50 -15 -50 -18 0 -38 5
-45 12 -9 9 -15 9 -24 0 -9 -9 -7 -13 8 -18 89 -32 113 -58 100 -108 -19 -77
-186 -68 -186 11 0 18 5 23 27 23 14 0 34 -7 44 -16 22 -20 60 -11 40 9 -6 6
-28 16 -49 22 -69 20 -82 101 -22 133 35 18 101 8 122 -18z m1607 3 c14 -11
32 -37 40 -58 20 -51 0 -110 -48 -142 -57 -39 -149 -24 -184 30 -21 32 -22 98
-3 136 31 60 135 78 195 34z m-2147 -97 c25 -63 43 -117 40 -120 -14 -14 -62
-5 -72 14 -8 15 -21 20 -50 20 -30 0 -40 -5 -45 -20 -5 -15 -15 -20 -41 -20
-19 0 -34 3 -34 8 0 4 19 58 42 119 l43 113 36 0 35 0 46 -114z m996 -3 l-3
-118 -32 -3 -33 -3 0 120 0 121 35 0 36 0 -3 -117z m471 60 l41 -56 0 56 0 57
35 0 36 0 -3 -117 c-3 -113 -4 -118 -25 -121 -17 -3 -33 11 -70 59 l-48 61 -3
-61 c-3 -60 -3 -61 -32 -61 l-30 0 0 120 0 120 29 0 c25 0 37 -10 70 -57z"/>
<path d="M3292 1508 c-7 -7 -12 -27 -12 -45 0 -24 7 -37 26 -50 24 -15 29 -15
53 -2 29 16 41 70 20 95 -14 17 -70 19 -87 2z"/>
<path d="M1182 1473 c-16 -29 -15 -33 8 -33 22 0 23 4 11 35 -8 19 -8 19 -19
-2z"/>
</g>
</svg>
