<?xml version="1.0" encoding="utf-8"?>
<svg version="1.1" id="Layer_1" xmlns="http://www.w3.org/2000/svg" xmlns:xlink="http://www.w3.org/1999/xlink" x="0px" y="0px" viewBox="0 411.913 683.37 194.527" enable-background="new 0 411.913 683.37 194.527"
	 xml:space="preserve">
<g transform="matrix( 1, 0, 0, 1, 0,0) ">
	<g>
		<g id="Layer0_1_FILL">
			<path fill="#57C5CF" d="M60.142,484.228l-1.322-0.99c-7.27,5.948-13.053,12.393-17.514,19.331
				C50.724,508.681,67.413,491.332,60.142,484.228z"/>
		</g>
	</g>
</g>
<g transform="matrix( 1, 0, 0, 1, 0,0) ">
	<g>
		<g id="Layer0_2_FILL">
			<path fill="#58C6D0" d="M58.656,483.237l-1.487-1.158c-6.774,4.957-12.226,11.73-16.357,20.157
				c0.165,0.165,0.331,0.165,0.331,0.331L58.656,483.237z"/>
		</g>
	</g>
</g>
<g transform="matrix( 1, 0, 0, 1, 0,0) ">
	<g>
		<g id="Layer0_3_FILL">
			<path fill="#58C6D0" d="M57.333,482.244l-1.488-0.99c-6.774,5.121-11.896,12.061-15.531,20.817l0.33,0.33L57.333,482.244z"/>
		</g>
	</g>
</g>
<g transform="matrix( 1, 0, 0, 1, 0,0) ">
	<g>
		<g id="Layer0_4_FILL">
			<path fill="#59C7D0" d="M55.846,481.254l-1.322-0.99c-6.774,5.286-11.565,12.556-14.374,21.478l0.33,0.33L55.846,481.254z"/>
		</g>
	</g>
</g>
<g transform="matrix( 1, 0, 0, 1, 0,0) ">
	<g>
		<g id="Layer0_5_FILL">
			<path fill="#59C7D1" d="M54.525,480.264l-1.322-0.992c-6.939,6.278-11.4,13.715-13.383,22.14l0.33,0.33L54.525,480.264z"/>
		</g>
	</g>
</g>
<g transform="matrix( 1, 0, 0, 1, 0,0) ">
	<g>
		<g id="Layer0_6_FILL">
			<path fill="#59C7D1" d="M39.489,501.246l0.332,0.33l13.383-22.14c-0.33-0.165-0.827-0.496-1.487-0.991
				C44.776,484.393,40.812,491.992,39.489,501.246z"/>
		</g>
	</g>
</g>
<g transform="matrix( 1, 0, 0, 1, 0,0) ">
	<g>
		<g id="Layer0_7_FILL">
			<path fill="#5AC8D1" d="M51.552,478.445l-1.488-0.827c-5.949,7.106-9.75,14.871-11.235,23.463l0.496,0.165L51.552,478.445z"/>
		</g>
	</g>
</g>
<g transform="matrix( 1, 0, 0, 1, 0,0) ">
	<g>
		<g id="Layer0_8_FILL">
			<path fill="#5BC8D2" d="M50.064,477.618l-1.488-0.66c-5.618,6.774-8.922,14.706-9.913,23.958l0.33,0.165L50.064,477.618z"/>
		</g>
	</g>
</g>
<g transform="matrix( 1, 0, 0, 1, 0,0) ">
	<g>
		<g id="Layer0_9_FILL">
			<path fill="#5CC9D2" d="M48.576,476.958l-1.652-0.66c-5.784,7.27-8.757,15.366-8.757,24.453l0.496,0.165L48.576,476.958z"/>
		</g>
	</g>
</g>
<g transform="matrix( 1, 0, 0, 1, 0,0) ">
	<g>
		<g id="Layer0_10_FILL">
			<path fill="#5CC9D2" d="M37.836,500.586c0.165,0,0.33,0.165,0.33,0.165l8.757-24.453c-0.165-0.165-0.661-0.33-1.653-0.66
				C39.157,483.07,36.681,491.332,37.836,500.586z"/>
		</g>
	</g>
</g>
<g transform="matrix( 1, 0, 0, 1, 0,0) ">
	<g>
		<g id="Layer0_11_FILL">
			<path fill="#5DCAD3" d="M37.341,500.419l0.495,0.165l7.437-24.948l-1.653-0.495C37.836,482.409,35.854,490.671,37.341,500.419z"
				/>
		</g>
	</g>
</g>
<g transform="matrix( 1, 0, 0, 1, 0,0) ">
	<g>
		<g id="Layer0_12_FILL">
			<path fill="#5ECAD3" d="M36.846,500.256l0.496,0.165l6.279-25.28l-1.653-0.331C36.681,482.576,34.863,491.002,36.846,500.256z"/>
		</g>
	</g>
</g>
<g transform="matrix( 1, 0, 0, 1, 0,0) ">
	<g>
		<g id="Layer0_13_FILL">
			<path fill="#5ECAD4" d="M36.514,500.256c0.166,0,0.331,0,0.496,0l5.121-25.446c-0.165,0-0.66-0.165-1.817-0.33
				C35.688,482.576,34.533,491.167,36.514,500.256z"/>
		</g>
	</g>
</g>
<g transform="matrix( 1, 0, 0, 1, 0,0) ">
	<g>
		<g id="Layer0_14_FILL">
			<path fill="#60CBD4" d="M36.019,500.256h0.495l3.801-25.776l-1.818-0.165C34.366,482.244,33.541,490.837,36.019,500.256z"/>
		</g>
	</g>
</g>
<g transform="matrix( 1, 0, 0, 1, 0,0) ">
	<g>
		<g id="Layer0_15_FILL">
			<path fill="#60CBD4" d="M35.523,500.089h0.495l2.478-25.941l-1.652-0.165C33.375,482.576,32.88,491.332,35.523,500.089z"/>
		</g>
	</g>
</g>
<g transform="matrix( 1, 0, 0, 1, 0,0) ">
	<g>
		<g id="Layer0_16_FILL">
			<path fill="#62CCD5" d="M37.011,474.147c-0.495,0-1.322,0-1.817,0c-3.471,8.428-3.304,17.02,0,26.106h0.495L37.011,474.147z"/>
		</g>
	</g>
</g>
<g transform="matrix( 1, 0, 0, 1, 0,0) ">
	<g>
		<g id="Layer0_17_FILL">
			<path fill="#63CDD5" d="M35.193,474.147c-0.828,0-1.323,0-1.653,0c-3.306,8.593-2.975,17.185,1.156,25.941h0.495v-25.941H35.193z
				"/>
		</g>
	</g>
</g>
<g transform="matrix( 1, 0, 0, 1, 0,0) ">
	<g>
		<g id="Layer0_18_FILL">
			<path fill="#64CDD6" d="M33.541,474.147c-0.827,0-1.488,0.165-1.818,0.165c-3.139,8.758-2.478,17.35,2.478,25.941h0.496
				L33.541,474.147z"/>
		</g>
	</g>
</g>
<g transform="matrix( 1, 0, 0, 1, 0,0) ">
	<g>
		<g id="Layer0_19_FILL">
			<path fill="#65CED6" d="M31.723,474.314l-1.653,0.165c-2.975,9.088-1.653,17.515,3.801,25.776h0.495L31.723,474.314z"/>
		</g>
	</g>
</g>
<g transform="matrix( 1, 0, 0, 1, 0,0) ">
	<g>
		<g id="Layer0_20_FILL">
			<path fill="#66CED7" d="M30.072,474.479l-1.653,0.33c-2.645,9.255-0.827,17.68,5.122,25.446h0.495L30.072,474.479z"/>
		</g>
	</g>
</g>
<g transform="matrix( 1, 0, 0, 1, 0,0) ">
	<g>
		<g id="Layer0_21_FILL">
			<path fill="#68CFD7" d="M28.419,474.81c-0.495,0.166-0.992,0.166-1.653,0.331c-2.148,9.749,0,18.176,6.279,25.28l0.495-0.165
				L28.419,474.81z"/>
		</g>
	</g>
</g>
<g transform="matrix( 1, 0, 0, 1, 0,0) ">
	<g>
		<g id="Layer0_22_FILL">
			<path fill="#69CFD8" d="M32.55,500.419c0.165,0,0.33,0,0.496-0.165l-6.279-25.28c-0.66,0.165-1.322,0.33-1.816,0.495
				C23.131,484.888,25.611,493.149,32.55,500.419z"/>
		</g>
	</g>
</g>
<g transform="matrix( 1, 0, 0, 1, 0,0) ">
	<g>
		<g id="Layer0_23_FILL">
			<path fill="#6AD0D8" d="M24.949,475.636c-0.496,0.165-0.991,0.33-1.653,0.495c-1.486,9.584,1.487,17.679,8.757,24.453
				l0.496-0.165L24.949,475.636z"/>
		</g>
	</g>
</g>
<g transform="matrix( 1, 0, 0, 1, 0,0) ">
	<g>
		<g id="Layer0_24_FILL">
			<path fill="#6BD0D9" d="M23.296,476.131l-1.653,0.662c-0.495,10.408,2.645,18.505,9.915,23.958l0.495-0.165L23.296,476.131z"/>
		</g>
	</g>
</g>
<g transform="matrix( 1, 0, 0, 1, 0,0) ">
	<g>
		<g id="Layer0_25_FILL">
			<path fill="#6DD1D9" d="M21.81,476.793l-1.653,0.66c-0.33,9.748,3.304,17.515,11.07,23.463l0.332-0.165L21.81,476.793z"/>
		</g>
	</g>
</g>
<g transform="matrix( 1, 0, 0, 1, 0,0) ">
	<g>
		<g id="Layer0_26_FILL">
			<path fill="#6FD2DA" d="M20.157,477.453l-1.653,0.825c0.331,9.915,4.296,17.515,12.228,22.801c0,0,0.165,0,0.331-0.165
				L20.157,477.453z"/>
		</g>
	</g>
</g>
<g transform="matrix( 1, 0, 0, 1, 0,0) ">
	<g>
		<g id="Layer0_27_FILL">
			<path fill="#70D2DA" d="M18.504,478.278l-1.486,0.828c0.826,10.242,5.287,17.679,13.383,22.14c0.165-0.165,0.33-0.165,0.495-0.33
				L18.504,478.278z"/>
		</g>
	</g>
</g>
<g transform="matrix( 1, 0, 0, 1, 0,0) ">
	<g>
		<g id="Layer0_28_FILL">
			<path fill="#72D3DB" d="M17.019,479.106l-1.487,0.825c0.66,10.574,5.452,17.679,14.374,21.479l0.33-0.165L17.019,479.106z"/>
		</g>
	</g>
</g>
<g transform="matrix( 1, 0, 0, 1, 0,0) ">
	<g>
		<g id="Layer0_29_FILL">
			<path fill="#74D4DB" d="M15.696,479.932c-0.661,0.495-1.323,0.827-1.486,0.992c1.486,9.913,6.774,16.854,15.531,20.817l0.33-0.33
				L15.696,479.932z"/>
		</g>
	</g>
</g>
<g transform="matrix( 1, 0, 0, 1, 0,0) ">
	<g>
		<g id="Layer0_30_FILL">
			<path fill="#75D4DC" d="M14.21,480.924c-0.165,0.165-0.495,0.33-0.827,0.66c-0.33,0.165-0.165,0.165-0.496,0.495
				c2.644,10.08,8.095,16.688,16.522,20.157l0.495-0.33L14.21,480.924z"/>
		</g>
	</g>
</g>
<g transform="matrix( 1, 0, 0, 1, 0,0) ">
	<g>
		<g id="Layer0_31_FILL">
			<path fill="#77D5DC" d="M28.915,502.401l0.33-0.33l-16.522-19.992l-1.157,0.991C14.704,491.992,20.652,498.438,28.915,502.401z"
				/>
		</g>
	</g>
</g>
<g transform="matrix( 1, 0, 0, 1, 0,0) ">
	<g>
		<g id="Layer0_32_FILL">
			<path fill="#79D6DD" d="M28.584,502.568l0.331-0.33L11.4,483.071l-1.323,1.158C14.043,493.646,20.157,499.759,28.584,502.568z"/>
		</g>
	</g>
</g>
<g transform="matrix( 1, 0, 0, 1, 0,0) ">
	<g>
		<g id="Layer0_33_FILL">
			<path fill="#7BD6DD" d="M28.419,503.062c0.165-0.165,0.165-0.33,0.33-0.33l-18.339-18.67l-1.322,1.322
				C12.723,494.307,19.332,500.089,28.419,503.062z"/>
		</g>
	</g>
</g>
<g transform="matrix( 1, 0, 0, 1, 0,0) ">
	<g>
		<g id="Layer0_34_FILL">
			<path fill="#7DD7DE" d="M28.089,503.395l0.33-0.331L9.087,485.385c-0.331,0.33-0.661,0.825-1.323,1.486
				C11.07,496.62,17.844,502.236,28.089,503.395z"/>
		</g>
	</g>
</g>
<g transform="matrix( 1, 0, 0, 1, 0,0) ">
	<g>
		<g id="Layer0_35_FILL">
			<path fill="#7FD8DF" d="M7.765,486.871l-0.991,1.322c4.461,8.922,11.565,14.043,20.985,15.531c0-0.165,0.165-0.165,0.33-0.332
				L7.765,486.871z"/>
		</g>
	</g>
</g>
<g transform="matrix( 1, 0, 0, 1, 0,0) ">
	<g>
		<g id="Layer0_36_FILL">
			<path fill="#81D8DF" d="M6.939,488.028c-0.661,0.827-1.158,1.487-1.158,1.487c5.452,8.427,12.723,13.383,21.81,14.541l0.33-0.495
				L6.939,488.028z"/>
		</g>
	</g>
</g>
<g transform="matrix( 1, 0, 0, 1, 0,0) ">
	<g>
		<g id="Layer0_37_FILL">
			<path fill="#83D9E0" d="M5.784,489.516c-0.33,0.495-0.661,0.825-0.991,1.322c3.966,8.758,11.4,13.384,22.47,13.384
				c0-0.165,0.166-0.165,0.331-0.33L5.784,489.516z"/>
		</g>
	</g>
</g>
<g transform="matrix( 1, 0, 0, 1, 0,0) ">
	<g>
		<g id="Layer0_38_FILL">
			<path fill="#85DAE0" d="M4.791,490.837c-0.33,0.495-0.66,1.155-0.99,1.652c5.121,8.427,12.723,12.558,23.131,12.393l0.33-0.495
				L4.791,490.837z"/>
		</g>
	</g>
</g>
<g transform="matrix( 1, 0, 0, 1, 0,0) ">
	<g>
		<g id="Layer0_39_FILL">
			<path fill="#86DBE1" d="M3.966,492.324c-0.33,0.495-0.66,1.155-0.826,1.652c5.122,7.6,12.888,11.4,23.626,11.235l0.166-0.33
				L3.966,492.324z"/>
		</g>
	</g>
</g>
<g transform="matrix( 1, 0, 0, 1, 0,0) ">
	<g>
		<g id="Layer0_40_FILL">
			<path fill="#89DCE1" d="M3.139,493.977c-0.331,0.495-0.496,0.991-0.661,1.653c5.784,8.097,13.713,11.399,24.123,10.079
				l0.165-0.495L3.139,493.977z"/>
		</g>
	</g>
</g>
<g transform="matrix( 1, 0, 0, 1, 0,0) ">
	<g>
		<g id="Layer0_41_FILL">
			<path fill="#8BDDE2" d="M2.643,495.465c0,0-0.33,0.66-0.825,1.815c6.444,7.106,14.704,10.08,24.618,8.757l0.165-0.33
				L2.643,495.465z"/>
		</g>
	</g>
</g>
<g transform="matrix( 1, 0, 0, 1, 0,0) ">
	<g>
		<g id="Layer0_42_FILL">
			<path fill="#8DDDE2" d="M1.818,497.115c-0.33,0.66-0.495,1.322-0.661,1.652c6.609,6.444,15.036,9.088,25.114,7.6l0.165-0.33
				L1.818,497.115z"/>
		</g>
	</g>
</g>
<g transform="matrix( 1, 0, 0, 1, 0,0) ">
	<g>
		<g id="Layer0_43_FILL">
			<path fill="#90DEE3" d="M1.157,498.933c-0.165,0.661-0.33,1.158-0.33,1.653c7.27,5.946,15.696,7.932,25.279,6.277l0.165-0.496
				L1.157,498.933z"/>
		</g>
	</g>
</g>
<g transform="matrix( 1, 0, 0, 1, 0,0) ">
	<g>
		<g id="Layer0_44_FILL">
			<path fill="#92DFE4" d="M0.827,500.586c-0.165,0.495-0.165,0.99-0.33,1.652c6.774,5.452,15.199,7.27,25.609,5.122
				c0-0.166,0-0.331,0.165-0.661L0.827,500.586z"/>
		</g>
	</g>
</g>
<g transform="matrix( 1, 0, 0, 1, 0,0) ">
	<g>
		<g id="Layer0_45_FILL">
			<path fill="#94DFE4" d="M26.106,507.855v-0.495l-25.609-5.122c-0.165,0.495-0.165,0.991-0.33,1.653
				C8.262,509.011,16.854,510.333,26.106,507.855z"/>
		</g>
	</g>
</g>
<g transform="matrix( 1, 0, 0, 1, 0,0) ">
	<g>
		<g id="Layer0_46_FILL">
			<path fill="#96E0E5" d="M0.165,503.89L0,505.872c8.427,4.628,17.019,5.454,25.941,2.479v-0.495L0.165,503.89z"/>
		</g>
	</g>
</g>
<g transform="matrix( 1, 0, 0, 1, 0,0) ">
	<g>
		<g id="Layer0_47_FILL">
			<path fill="#99E1E5" d="M0,505.707c0,0.33,0,1.156-0.165,1.818c7.6,4.793,16.193,5.286,26.106,1.322c0-0.165,0-0.33,0-0.495
				L0,505.707z"/>
		</g>
	</g>
</g>
<g transform="matrix( 1, 0, 0, 1, 0,0) ">
	<g>
		<g id="Layer0_48_FILL">
			<path fill="#9BE1E6" d="M-0.165,507.525v1.815c8.262,4.131,17.019,3.966,26.106-0.165v-0.495L-0.165,507.525z"/>
		</g>
	</g>
</g>
<g transform="matrix( 1, 0, 0, 1, 0,0) ">
	<g>
		<g id="Layer0_49_FILL">
			<path fill="#9DE2E7" d="M-0.165,509.178v1.652c9.417,3.469,18.009,2.974,26.106-1.322v-0.495L-0.165,509.178L-0.165,509.178z"/>
		</g>
	</g>
</g>
<g transform="matrix( 1, 0, 0, 1, 0,0) ">
	<g>
		<g id="Layer0_50_FILL">
			<path fill="#A0E3E8" d="M-0.165,510.829c0,0.825,0.165,1.322,0.165,1.65c8.757,2.976,17.514,2.149,26.106-2.479v-0.495
				L-0.165,510.829z"/>
		</g>
	</g>
</g>
<g transform="matrix( 1, 0, 0, 1, 0,0) ">
	<g>
		<g id="Layer0_51_FILL">
			<path fill="#A2E4E9" d="M0,512.479l0.165,1.984c9.252,1.983,17.844,0.496,25.939-3.966v-0.497L0,512.479z"/>
		</g>
	</g>
</g>
<g transform="matrix( 1, 0, 0, 1, 0,0) ">
	<g>
		<g id="Layer0_52_FILL">
			<path fill="#A4E4E9" d="M0.165,514.464c0.165,0.661,0.165,1.156,0.33,1.651c9.252,1.817,17.844,0.167,25.609-5.121V510.5
				L0.165,514.464z"/>
		</g>
	</g>
</g>
<g transform="matrix( 1, 0, 0, 1, 0,0) ">
	<g>
		<g id="Layer0_53_FILL">
			<path fill="#A7E5EA" d="M0.495,516.115l0.331,1.652c9.913,1.486,18.504-0.495,25.443-6.278l-0.165-0.495L0.495,516.115z"/>
		</g>
	</g>
</g>
<g transform="matrix( 1, 0, 0, 1, 0,0) ">
	<g>
		<g id="Layer0_54_FILL">
			<path fill="#A9E6EB" d="M0.827,517.768c0.165,0.661,0.33,1.158,0.33,1.653c9.748,1.322,18.175-1.159,25.114-7.6l-0.165-0.495
				L0.827,517.768z"/>
		</g>
	</g>
</g>
<g transform="matrix( 1, 0, 0, 1, 0,0) ">
	<g>
		<g id="Layer0_55_FILL">
			<path fill="#ACE6EB" d="M1.157,519.423c0.166,0.495,0.331,1.155,0.661,1.65c11.07,0.66,19.332-2.312,24.618-8.755l-0.165-0.495
				L1.157,519.423z"/>
		</g>
	</g>
</g>
<g transform="matrix( 1, 0, 0, 1, 0,0) ">
	<g>
		<g id="Layer0_56_FILL">
			<path fill="#AEE7EC" d="M1.653,520.908c0.33,0.99,0.66,1.816,0.66,1.816c10.74,0.167,18.671-3.137,24.123-9.913v-0.493
				L1.653,520.908z"/>
		</g>
	</g>
</g>
<g transform="matrix( 1, 0, 0, 1, 0,0) ">
	<g>
		<g id="Layer0_57_FILL">
			<path fill="#B1E8EC" d="M2.313,522.725c0.165,0.495,0.495,1.159,0.827,1.654c11.07-0.495,19.002-4.298,23.626-11.235
				l-0.165-0.495L2.313,522.725z"/>
		</g>
	</g>
</g>
<g transform="matrix( 1, 0, 0, 1, 0,0) ">
	<g>
		<g id="Layer0_58_FILL">
			<path fill="#B3E9ED" d="M3.139,524.379l0.825,1.483c11.4-1.322,19.167-5.451,23.131-12.391l-0.165-0.495L3.139,524.379z"/>
		</g>
	</g>
</g>
<g transform="matrix( 1, 0, 0, 1, 0,0) ">
	<g>
		<g id="Layer0_59_FILL">
			<path fill="#B5E9ED" d="M3.966,525.862c0.332,0.496,0.495,0.993,0.992,1.488c11.235-1.818,18.67-6.279,22.471-13.384
				l-0.331-0.495L3.966,525.862z"/>
		</g>
	</g>
</g>
<g transform="matrix( 1, 0, 0, 1, 0,0) ">
	<g>
		<g id="Layer0_60_FILL">
			<path fill="#B8EAEE" d="M4.791,527.518l0.828,1.322c11.235-1.817,18.504-6.611,21.808-14.543
				c-0.165-0.165-0.165-0.33-0.165-0.495L4.791,527.518z"/>
		</g>
	</g>
</g>
<g transform="matrix( 1, 0, 0, 1, 0,0) ">
	<g>
		<g id="Layer0_61_FILL">
			<path fill="#BAEAEE" d="M5.784,528.84c0.165,0.33,0.495,0.658,0.99,1.322c11.4-2.643,18.34-7.767,20.985-15.533l-0.332-0.331
				L5.784,528.84z"/>
		</g>
	</g>
</g>
<g transform="matrix( 1, 0, 0, 1, 0,0) ">
	<g>
		<g id="Layer0_62_FILL">
			<path fill="#BDEBEF" d="M6.774,530.16l1.158,1.486c10.905-2.479,17.514-8.262,20.157-16.521c0,0-0.165-0.165-0.33-0.332
				L6.774,530.16z"/>
		</g>
	</g>
</g>
<g transform="matrix( 1, 0, 0, 1, 0,0) ">
	<g>
		<g id="Layer0_63_FILL">
			<path fill="#BFECF0" d="M7.765,531.648l1.323,1.322c11.07-3.304,17.514-9.087,19.332-17.514c-0.165,0-0.33-0.331-0.33-0.331
				L7.765,531.648z"/>
		</g>
	</g>
</g>
<g transform="matrix( 1, 0, 0, 1, 0,0) ">
	<g>
		<g id="Layer0_64_FILL">
			<path fill="#C1EDF0" d="M9.087,532.969l1.155,1.322c10.245-3.304,16.358-9.582,18.506-18.504l-0.33-0.332L9.087,532.969z"/>
		</g>
	</g>
</g>
<g transform="matrix( 1, 0, 0, 1, 0,0) ">
	<g>
		<g id="Layer0_65_FILL">
			<path fill="#C4EEF1" d="M10.243,534.126l1.323,1.156c11.07-3.966,17.019-10.573,17.514-19.33l-0.331-0.332L10.243,534.126z"/>
		</g>
	</g>
</g>
<g transform="matrix( 1, 0, 0, 1, 0,0) ">
	<g>
		<g id="Layer0_66_FILL">
			<path fill="#C6EFF1" d="M29.41,516.447l-0.33-0.332L11.4,535.28c0.33,0.332,0.66,0.662,1.322,1.159
				C22.801,532.309,28.254,525.534,29.41,516.447z"/>
		</g>
	</g>
</g>
<g transform="matrix( 1, 0, 0, 1, 0,0) ">
	<g>
		<g id="Layer0_67_FILL">
			<path fill="#C8EFF2" d="M29.742,516.612l-0.33-0.33l-16.689,20.157l1.488,1.155C23.626,533.794,28.749,526.69,29.742,516.612z"/>
		</g>
	</g>
</g>
<g transform="matrix( 1, 0, 0, 1, 0,0) ">
	<g>
		<g id="Layer0_68_FILL">
			<path fill="#CAF0F2" d="M30.072,516.779l-0.33-0.167l-15.696,20.819l1.488,0.99C25.611,534.126,30.402,527.022,30.072,516.779z"
				/>
		</g>
	</g>
</g>
<g transform="matrix( 1, 0, 0, 1, 0,0) ">
	<g>
		<g id="Layer0_69_FILL">
			<path fill="#CDF1F3" d="M30.402,517.107l-0.33-0.33l-14.375,21.644l1.488,0.827C27.262,533.794,31.723,526.526,30.402,517.107z"
				/>
		</g>
	</g>
</g>
<g transform="matrix( 1, 0, 0, 1, 0,0) ">
	<g>
		<g id="Layer0_70_FILL">
			<path fill="#CFF1F3" d="M30.897,517.272l-0.495-0.165l-13.383,22.306c0.496,0.33,0.991,0.495,1.486,0.825
				C29.08,534.787,33.21,527.188,30.897,517.272z"/>
		</g>
	</g>
</g>
<g transform="matrix( 1, 0, 0, 1, 0,0) ">
	<g>
		<g id="Layer0_71_FILL">
			<path fill="#D2F2F4" d="M31.228,517.438l-0.496-0.165l-12.393,22.801c0.991,0.495,1.653,0.827,1.818,0.827
				C31.393,534.456,35.028,526.69,31.228,517.438L31.228,517.438z"/>
		</g>
	</g>
</g>
<g transform="matrix( 1, 0, 0, 1, 0,0) ">
	<g>
		<g id="Layer0_72_FILL">
			<path fill="#D5F3F4" d="M31.723,517.604l-0.33-0.167l-11.07,23.465l1.653,0.658C32.22,535.612,35.523,527.518,31.723,517.604z"/>
		</g>
	</g>
</g>
<g transform="matrix( 1, 0, 0, 1, 0,0) ">
	<g>
		<g id="Layer0_73_FILL">
			<path fill="#D6F3F5" d="M32.053,517.768l-0.33-0.165l-9.913,23.956l1.653,0.662C33.541,534.952,36.351,526.69,32.053,517.768z"/>
		</g>
	</g>
</g>
<g transform="matrix( 1, 0, 0, 1, 0,0) ">
	<g>
		<g id="Layer0_74_FILL">
			<path fill="#D8F4F5" d="M32.55,518.1l-0.495-0.167l-8.924,24.29l1.818,0.494C34.696,535.944,37.176,527.848,32.55,518.1z"/>
		</g>
	</g>
</g>
<g transform="matrix( 1, 0, 0, 1, 0,0) ">
	<g>
		<g id="Layer0_75_FILL">
			<path fill="#DAF4F6" d="M32.88,518.1l-0.495-0.167l-7.6,24.784c0.33,0.165,0.991,0.332,1.818,0.495
				C36.351,536.439,38.332,528.178,32.88,518.1z"/>
		</g>
	</g>
</g>
<g transform="matrix( 1, 0, 0, 1, 0,0) ">
	<g>
		<g id="Layer0_76_FILL">
			<path fill="#DDF5F6" d="M33.375,518.263H32.88l-6.279,25.116c0.496,0.167,1.158,0.332,1.653,0.332
				C37.836,536.603,39.489,528.178,33.375,518.263z"/>
		</g>
	</g>
</g>
<g transform="matrix( 1, 0, 0, 1, 0,0) ">
	<g>
		<g id="Layer0_77_FILL">
			<path fill="#DFF5F7" d="M33.871,518.263l-0.495-0.163l-4.957,25.444l1.653,0.33C38.827,536.77,40.149,528.345,33.871,518.263z"/>
		</g>
	</g>
</g>
<g transform="matrix( 1, 0, 0, 1, 0,0) ">
	<g>
		<g id="Layer0_78_FILL">
			<path fill="#E0F6F7" d="M34.366,518.263h-0.495l-3.801,25.611c0.33,0,0.826,0.167,1.653,0.167
				C39.984,535.944,40.812,527.353,34.366,518.263z"/>
		</g>
	</g>
</g>
<g transform="matrix( 1, 0, 0, 1, 0,0) ">
	<g>
		<g id="Layer0_79_FILL">
			<path fill="#E2F6F8" d="M34.696,518.263h-0.496l-2.478,25.778c0.495,0,1.157,0.163,1.818,0.163
				C41.142,536.274,41.637,527.681,34.696,518.263z"/>
		</g>
	</g>
</g>
<g transform="matrix( 1, 0, 0, 1, 0,0) ">
	<g>
		<g id="Layer0_80_FILL">
			<path fill="#E5F7F9" d="M35.193,518.263h-0.496l-1.322,25.941c0.33,0,0.99,0,1.818,0
				C41.967,536.274,41.802,527.518,35.193,518.263z"/>
		</g>
	</g>
</g>
<g transform="matrix( 1, 0, 0, 1, 0,0) ">
	<g>
		<g id="Layer0_81_FILL">
			<path fill="#E7F8FA" d="M35.688,518.263h-0.495v25.941c0.827,0,1.322,0,1.652,0C42.793,535.944,42.462,527.353,35.688,518.263z"
				/>
		</g>
	</g>
</g>
<g transform="matrix( 1, 0, 0, 1, 0,0) ">
	<g>
		<g id="Layer0_82_FILL">
			<path fill="#E8F8FA" d="M36.019,518.263h-0.495l1.157,25.778c0.33,0,0.826,0,1.156,0l0.827-0.167
				C43.62,535.282,42.627,526.69,36.019,518.263z"/>
		</g>
	</g>
</g>
<g transform="matrix( 1, 0, 0, 1, 0,0) ">
	<g>
		<g id="Layer0_83_FILL">
			<path fill="#EBF9FA" d="M36.514,518.263c0,0-0.33,0.167-0.495,0.167l2.478,25.611l1.983-0.167
				C45.273,534.787,43.95,526.194,36.514,518.263z"/>
		</g>
	</g>
</g>
<g transform="matrix( 1, 0, 0, 1, 0,0) ">
	<g>
		<g id="Layer0_84_FILL">
			<path fill="#EDFAFB" d="M37.011,518.1h-0.495l3.801,25.609c0.165,0,0.495,0,0.991-0.165l0.66-0.167
				C46.428,534.456,44.776,525.862,37.011,518.1z"/>
		</g>
	</g>
</g>
<g transform="matrix( 1, 0, 0, 1, 0,0) ">
	<g>
		<g id="Layer0_85_FILL">
			<path fill="#EDFAFB" d="M37.341,518.1c-0.165,0-0.331,0-0.496,0.163l5.122,25.446c0.495-0.165,0.991-0.165,1.653-0.495
				C47.751,533.631,45.603,525.369,37.341,518.1z"/>
		</g>
	</g>
</g>
<g transform="matrix( 1, 0, 0, 1, 0,0) ">
	<g>
		<g id="Layer0_86_FILL">
			<path fill="#EFFBFC" d="M37.836,517.768l-0.495,0.165l6.279,25.116c0.66-0.167,1.156-0.332,1.653-0.496
				C48.907,532.309,46.428,524.047,37.836,517.768z"/>
		</g>
	</g>
</g>
<g transform="matrix( 1, 0, 0, 1, 0,0) ">
	<g>
		<g id="Layer0_87_FILL">
			<path fill="#F1FBFC" d="M38.167,517.604l-0.495,0.165l7.435,24.783l1.818-0.495C50.064,531.483,47.254,523.387,38.167,517.604z"
				/>
		</g>
	</g>
</g>
<g transform="matrix( 1, 0, 0, 1, 0,0) ">
	<g>
		<g id="Layer0_88_FILL">
			<path fill="#F3FCFC" d="M46.924,542.056l1.652-0.66c2.479-11.4-0.825-19.33-9.913-23.958c-0.165,0-0.33,0.167-0.33,0.167
				L46.924,542.056z"/>
		</g>
	</g>
</g>
<g transform="matrix( 1, 0, 0, 1, 0,0) ">
	<g>
		<g id="Layer0_89_FILL">
			<path fill="#F4FCFD" d="M38.994,517.272l-0.33,0.165l9.913,23.958c0.661-0.332,1.323-0.493,1.488-0.66
				C52.542,529.498,48.907,521.733,38.994,517.272z"/>
		</g>
	</g>
</g>
<g transform="matrix( 1, 0, 0, 1, 0,0) ">
	<g>
		<g id="Layer0_90_FILL">
			<path fill="#F6FDFD" d="M39.324,517.107l-0.331,0.33l11.07,23.298c0.33-0.165,0.826-0.495,1.488-0.825
				C53.863,528.508,49.734,521.073,39.324,517.107z"/>
		</g>
	</g>
</g>
<g transform="matrix( 1, 0, 0, 1, 0,0) ">
	<g>
		<g id="Layer0_91_FILL">
			<path fill="#F8FDFD" d="M39.819,516.94l-0.332,0.167l12.228,22.966l1.488-0.825C55.021,528.013,50.559,520.576,39.819,516.94z"/>
		</g>
	</g>
</g>
<g transform="matrix( 1, 0, 0, 1, 0,0) ">
	<g>
		<g id="Layer0_92_FILL">
			<path fill="#F9FDFE" d="M40.149,516.612l-0.33,0.167l13.218,22.305l1.322-0.992C55.846,527.188,51.055,519.918,40.149,516.612z"
				/>
		</g>
	</g>
</g>
<g transform="matrix( 1, 0, 0, 1, 0,0) ">
	<g>
		<g id="Layer0_93_FILL">
			<path fill="#FAFEFE" d="M40.479,516.447l-0.33,0.165l14.374,21.479c0.495-0.33,0.99-0.66,1.322-0.992
				C55.351,527.022,50.229,520.081,40.479,516.447z"/>
		</g>
	</g>
</g>
<g transform="matrix( 1, 0, 0, 1, 0,0) ">
	<g>
		<g id="Layer0_94_FILL">
			<path fill="#FBFEFE" d="M40.812,516.115c-0.165,0.167-0.33,0.167-0.33,0.332l15.366,20.819l1.487-1.157
				C57.003,525.037,51.552,518.263,40.812,516.115z"/>
		</g>
	</g>
</g>
<g transform="matrix( 1, 0, 0, 1, 0,0) ">
	<g>
		<g id="Layer0_95_FILL">
			<path fill="#FCFEFE" d="M41.142,515.787l-0.331,0.33l16.357,19.994l1.487-1.158C57.333,524.709,51.552,518.263,41.142,515.787z"
				/>
		</g>
	</g>
</g>
<g transform="matrix( 1, 0, 0, 1, 0,0) ">
	<g>
		<g id="Layer0_96_FILL">
			<path fill="#FEFFFF" d="M41.472,515.62l-0.33,0.332l17.514,19.33l1.323-0.991C58.986,523.055,52.872,516.779,41.472,515.62z"/>
		</g>
	</g>
</g>
<path fill="#FFFFFF" d="M107.728,462.252c-2.478-4.791-5.949-8.922-10.41-12.393l-41.472-30.896
	c-5.288-3.966-11.235-6.444-17.679-6.939c-6.609-0.495-12.888,0.66-18.834,3.636c-6.114,2.973-10.74,7.27-14.374,12.888
	c-3.47,5.618-5.123,11.732-5.123,18.506v27.097c1.157-1.155,2.478-2.312,3.801-3.304c2.808-2.312,5.949-4.131,9.254-5.783
	c3.801-1.983,8.262-3.471,13.218-4.461v-13.384c0-3.633,1.653-6.276,4.956-8.095c3.471-1.322,6.609-0.99,9.417,0.991l41.307,30.896
	c2.313,1.818,3.634,4.131,3.634,7.27c0,1.653-0.331,3.139-1.156,4.296c-0.66,1.156-1.488,2.148-2.478,2.809l-10.41,7.435
	c4.626,8.262,11.897,13.714,21.975,16.521l4.131-3.304c4.131-2.975,7.269-6.608,9.254-10.574c0.826-1.488,1.653-2.976,2.313-4.626
	l0.33-0.991c1.323-3.636,1.983-7.6,1.983-11.73C111.361,472.497,110.206,467.209,107.728,462.252 M49.734,509.178l-8.262,6.442
	l18.504,18.506l11.4-8.592C66.255,517.107,58.986,511.654,49.734,509.178 M253.125,484.228c-3.139-0.99-6.774-1.487-10.905-1.487
	s-7.767,0.66-10.905,1.982s-5.784,3.139-7.932,5.783c-2.148,2.479-3.634,5.784-4.791,9.583c-0.991,3.801-1.486,8.262-1.486,13.383
	c0,5.122,0.495,9.583,1.323,13.053c0.99,3.8,2.478,6.774,4.461,9.088c1.983,2.312,4.461,4.129,7.6,5.121
	c2.973,1.157,6.609,1.651,11.07,1.651c7.104,0,14.869-1.156,23.463-3.137l-0.165-11.235c-7.765,0.66-14.871,0.99-20.983,0.99
	c-4.131,0-6.939-0.825-8.757-2.312c-1.653-1.485-2.644-4.129-2.644-7.436h33.375l1.158-10.575c0-4.296-0.496-7.932-1.488-11.235
	c-0.991-3.139-2.478-5.783-4.626-7.932C258.743,486.871,256.1,485.22,253.125,484.228 M234.62,497.94
	c0.825-0.99,1.818-1.652,3.138-2.147c1.156-0.495,2.809-0.66,4.626-0.66s3.305,0.165,4.461,0.66
	c1.322,0.332,2.313,0.992,3.139,1.982c0.827,0.991,1.322,2.313,1.652,3.801l0.496,5.784H232.47
	C232.307,502.898,233.132,499.759,234.62,497.94 M173.653,461.262h-15.201v79.144c11.07,0.99,18.34,1.485,21.975,1.485
	c5.289,0,9.583-0.495,12.888-1.322c3.634-0.99,6.609-2.645,8.757-4.793c2.313-2.313,3.966-5.286,5.122-9.252
	c0.99-3.966,1.653-9.09,1.653-15.036c0-5.452-0.496-10.08-1.323-13.714c-0.825-3.635-2.313-6.608-4.296-8.922
	c-1.818-2.147-4.131-3.801-7.106-4.791c-2.809-0.992-6.114-1.487-10.078-1.487c-3.305,0-7.436,0.99-12.393,3.138v-24.449
	 M173.653,497.775c3.801-0.99,7.27-1.487,10.243-1.487c1.486,0,2.809,0.33,3.966,0.827c1.158,0.495,2.148,1.322,2.975,2.644
	c0.826,1.157,1.323,2.809,1.816,4.791c0.495,1.982,0.662,4.461,0.662,7.271c0,3.139-0.165,5.783-0.662,7.765
	c-0.331,2.147-0.991,3.966-1.983,5.121c-0.991,1.322-2.313,2.313-3.966,2.974c-1.653,0.662-3.801,0.992-6.444,0.992
	c-1.156,0-3.471-0.165-6.939-0.495L173.653,497.775 M295.257,468.201h-15.201v15.861h-6.774v12.888h6.774v23.626
	c0,4.131,0.33,7.6,0.827,10.243c0.495,2.643,1.486,4.956,2.973,6.61c1.323,1.653,3.139,2.809,5.452,3.634
	c2.148,0.662,4.957,1.159,8.592,1.159c2.478,0,5.948-0.495,10.574-1.487l0.991-0.165l-0.66-12.061h-0.331
	c-3.305,0.165-6.113,0.165-8.426,0.165c-2.148,0-3.634-0.66-4.131-1.983c-0.331-0.827-0.496-2.975-0.496-6.278V496.95h13.879
	v-12.888h-13.879v-15.861 M526.905,518.926l1.322-10.575c0-4.131-0.662-7.932-1.652-11.235c-0.99-3.139-2.479-5.783-4.461-7.932
	c-2.15-2.147-4.626-3.801-7.765-4.791c-2.976-1.157-6.609-1.652-10.74-1.652s-7.767,0.66-10.907,1.982
	c-3.302,1.322-5.783,3.304-7.93,5.783c-2.146,2.48-3.635,5.784-4.626,9.583c-0.99,3.799-1.652,8.262-1.652,13.218
	c0,5.122,0.495,9.583,1.487,13.219c0.99,3.635,2.477,6.773,4.294,8.922c1.985,2.312,4.628,4.131,7.6,5.121
	c2.976,1.157,6.774,1.652,11.072,1.652c7.104,0,14.869-0.992,23.626-3.138l-0.165-11.235c-7.93,0.66-14.871,0.992-20.982,0.992
	c-4.131,0-6.939-0.827-8.758-2.313c-1.817-1.487-2.643-4.131-2.643-7.436L526.905,518.926 M498.979,495.793
	c1.322-0.495,2.646-0.66,4.628-0.66c1.818,0,3.304,0.165,4.626,0.495c1.323,0.495,2.313,1.157,2.976,1.982
	c0.66,0.991,1.322,2.313,1.486,3.801l0.66,5.784H493.86c0-4.462,0.658-7.435,2.147-9.253
	C496.669,496.95,497.657,496.29,498.979,495.793 M367.131,498.438c-0.66-3.47-1.652-6.278-3.139-8.592
	c-1.487-2.312-3.471-4.131-6.113-5.451c-2.644-1.157-5.947-1.818-9.913-1.818c-4.131,0-8.757,1.323-14.043,4.131v-25.443h-15.036
	v79.474h15.201v-42.628c3.636-1.322,7.105-1.817,10.409-1.817c1.818,0,3.139,0.33,4.461,0.99c1.158,0.66,1.983,1.487,2.479,2.976
	c0.99,1.982,1.487,5.286,1.487,10.077v30.402h15.199v-30.732C368.121,505.377,367.791,501.576,367.131,498.438 M426.942,497.115
	c-0.99-3.139-2.644-5.783-4.626-7.932c-2.148-2.147-4.628-3.801-7.767-4.791c-2.974-0.992-6.609-1.487-10.903-1.487
	c-4.131,0-7.767,0.66-10.74,1.982c-3.138,1.322-5.783,3.139-7.931,5.783c-2.15,2.646-3.636,5.784-4.793,9.585
	c-0.991,3.966-1.651,8.262-1.651,13.383c0,5.12,0.495,9.581,1.485,13.052c0.991,3.8,2.479,6.771,4.462,9.087
	c1.982,2.314,4.461,4.131,7.599,5.123c2.976,1.155,6.611,1.651,11.072,1.651c6.938,0,14.869-1.158,23.461-3.139l-0.163-11.235
	c-7.932,0.662-14.871,0.992-20.984,0.992c-3.966,0-6.939-0.825-8.757-2.313c-1.818-1.485-2.644-4.131-2.644-7.434h33.212
	l1.322-10.575C428.429,504.055,427.77,500.256,426.942,497.115 M396.047,497.94c0.825-0.99,1.816-1.652,3.139-2.147
	c1.155-0.495,2.644-0.66,4.461-0.66c1.816,0,3.302,0.165,4.624,0.66c1.323,0.332,2.313,0.992,3.139,1.982
	c0.662,0.991,1.323,2.313,1.488,3.801l0.66,5.784h-19.662C393.897,502.898,394.558,499.759,396.047,497.94 M454.369,490.011v-5.946
	h-15.201v56.671h15.201v-38.002c5.453-1.815,11.402-3.47,18.011-4.791v-15.366C466.762,483.732,460.815,486.21,454.369,490.011
	 M587.707,540.735v-56.671h-15.2v42.462c-3.471,1.323-7.106,2.148-10.74,2.148c-1.818,0-3.471-0.33-4.461-0.992
	c-0.992-0.494-1.818-1.323-2.313-2.644c-0.825-1.817-1.322-5.451-1.322-11.07v-29.904h-15.201v29.739
	c0,5.123,0.33,9.254,0.825,12.558c0.66,3.636,1.653,6.611,2.976,8.757c1.485,2.479,3.471,4.131,6.113,5.289
	c2.477,1.155,5.784,1.817,9.913,1.817c3.966,0,8.757-1.487,14.211-4.461v2.974h15.2 M660.241,496.125c1.651,0,3.139,0.33,4.13,0.99
	c0.992,0.495,1.817,1.486,2.312,2.974c0.992,2.147,1.486,5.451,1.486,10.243v30.401h15.2v-30.732c0-4.791-0.33-8.757-0.99-11.896
	c-0.66-3.47-1.817-6.278-3.304-8.592c-1.487-2.312-3.471-4.131-5.948-5.121c-2.644-1.157-5.784-1.652-9.748-1.652
	c-5.783,0-12.226,1.817-19.001,5.288c-1.653-1.818-3.801-3.139-5.949-4.131c-2.312-0.827-4.954-1.322-8.262-1.322
	c-3.634,0-8.262,1.487-13.383,4.461v-3.139h-15.034v56.838h15.201v-42.463c3.304-1.322,6.772-2.147,10.079-2.147
	c1.816,0,3.137,0.33,4.294,0.99c0.993,0.66,1.653,1.486,2.313,2.809c0.992,2.147,1.322,5.946,1.322,11.565v29.244h15.201v-29.409
	c0-2.809-0.165-7.106-0.495-13.054C653.798,496.95,657.267,496.125,660.241,496.125z"/>
<g transform="matrix( 1, 0, 0, 1, 0,0) ">
	<g>
		<g id="Layer0_98_FILL">
			<path fill="#57C5CF" d="M25.941,558.082c-4.957-0.99-9.417-2.643-13.218-4.626c-3.303-1.652-6.444-3.634-9.252-5.946
				c-1.323-0.993-2.479-2.148-3.801-3.306v27.1c0,6.609,1.653,12.722,5.121,18.338c3.469,5.617,8.097,9.915,14.21,13.054
				c5.949,2.975,12.226,4.129,18.835,3.634c6.609-0.659,12.393-2.974,17.844-6.938l41.802-30.897
				c4.296-3.306,7.932-7.437,10.41-12.391c2.313-4.957,3.636-10.082,3.636-15.696c0-4.628-0.827-8.922-2.313-12.888
				c-0.661-1.488-1.323-3.139-2.313-4.628c-2.148-3.966-5.121-7.437-9.252-10.573l-37.341-28.089l-19.165,18.339l8.592,6.609
				l21.645,16.356l10.41,7.6c0.826,0.66,1.653,1.653,2.479,2.811c0.66,1.155,1.155,2.643,1.155,4.294
				c0,3.139-1.155,5.453-3.634,7.271l-41.307,30.896c-2.809,1.981-5.949,2.312-9.417,0.991c-0.495-0.165-0.827-0.332-1.157-0.66
				c-2.479-1.818-3.634-4.131-3.634-7.271L25.941,558.082L25.941,558.082z"/>
		</g>
	</g>
</g>
</svg>
