<?xml version="1.0" encoding="UTF-8"?>
<!DOCTYPE svg PUBLIC "-//W3C//DTD SVG 1.1//EN" "http://www.w3.org/Graphics/SVG/1.1/DTD/svg11.dtd">
<!-- Creator: CorelDRAW X7 -->
<svg xmlns="http://www.w3.org/2000/svg" xml:space="preserve" width="254mm" height="254mm" version="1.1" style="shape-rendering:geometricPrecision; text-rendering:geometricPrecision; image-rendering:optimizeQuality; fill-rule:evenodd; clip-rule:evenodd"
viewBox="0 0 25400 25400"
 xmlns:xlink="http://www.w3.org/1999/xlink">
 <defs>
  <style type="text/css">
   <![CDATA[
    .fil1 {fill:#FEFEFE}
    .fil2 {fill:url(#id0)}
    .fil0 {fill:url(#id1)}
   ]]>
  </style>
  <linearGradient id="id0" gradientUnits="userSpaceOnUse" x1="8605.08" y1="8340.55" x2="10677.2" y2="8340.55">
   <stop offset="0" style="stop-opacity:1; stop-color:#FED401"/>
   <stop offset="1" style="stop-opacity:1; stop-color:#EF7F1A"/>
  </linearGradient>
  <linearGradient id="id1" gradientUnits="userSpaceOnUse" x1="4574.88" y1="12700" x2="20825.1" y2="12700">
   <stop offset="0" style="stop-opacity:1; stop-color:#084F99"/>
   <stop offset="0.588235" style="stop-opacity:1; stop-color:#0E64CA"/>
   <stop offset="1" style="stop-opacity:1; stop-color:#1479FB"/>
  </linearGradient>
 </defs>
 <g id="Layer_x0020_1">
  <metadata id="CorelCorpID_0Corel-Layer"/>
  <g id="_77568418464">
   <path class="fil0" d="M4575 9684l0 6033c0,959 511,1772 1188,2320l4970 2909c186,106 368,216 550,312 686,361 1404,437 2171,261 265,-61 405,-129 622,-241 1275,-655 3092,-1824 4451,-2566 1209,-661 2298,-1438 2298,-2995l0 -6033c0,-553 -179,-991 -368,-1355 -218,-419 -457,-671 -820,-965l-5520 -3221c-202,-106 -360,-184 -614,-248 -545,-138 -1017,-137 -1557,-12 -265,60 -404,128 -622,240 -1474,848 -2961,1753 -4450,2566 -343,187 -828,445 -1111,675 -680,551 -1188,1356 -1188,2320z"/>
   <path class="fil1" d="M9829 17795c-195,0 -334,-44 -417,-132 -83,-88 -125,-220 -125,-396l0 -7637c113,31 232,47 354,47 738,0 1337,-598 1337,-1336 0,-180 -35,-351 -100,-507l3185 0c1015,0 1784,244 2307,732 522,489 784,1148 784,1978 0,469 -118,888 -352,1260 -234,371 -562,644 -981,820 1083,342 1625,1103 1625,2285 0,547 -124,1038 -373,1472 -249,435 -623,779 -1121,1033 -498,254 -1113,381 -1845,381l-4278 0zm3970 -5801c479,0 847,-122 1106,-366 259,-244 388,-586 388,-1026 0,-478 -119,-822 -359,-1032 -239,-210 -622,-315 -1150,-315l-2622 0 0 2739 2637 0zm220 4380c537,0 932,-139 1186,-418 254,-278 381,-637 381,-1076 0,-508 -154,-891 -461,-1150 -308,-259 -735,-388 -1282,-388l-2681 0 0 3032 2857 0z"/>
   <path class="fil2" d="M9641 7305c572,0 1036,463 1036,1036 0,572 -464,1036 -1036,1036 -572,0 -1036,-464 -1036,-1036 0,-573 464,-1036 1036,-1036z"/>
  </g>
 </g>
</svg>
