<svg id="Capa_1" xmlns="http://www.w3.org/2000/svg" width="729.3" height="81.2" viewBox="0 0 729.3 81.2"><style>.st0{fill:url(#SVGID_1_)}.st1{fill:url(#SVGID_2_)}.st2{fill:url(#SVGID_3_)}.st3{fill:url(#SVGID_4_)}.st4{fill:url(#SVGID_5_)}.st5{fill:url(#SVGID_6_)}.st6{fill:url(#SVGID_7_)}.st7{fill:url(#SVGID_8_)}.st8{fill:url(#SVGID_9_)}</style><linearGradient id="SVGID_1_" gradientUnits="userSpaceOnUse" x1="251.433" y1="81.147" x2="251.433" y2="1.322"><stop offset="0" stop-color="#d38128"/><stop offset="1" stop-color="#f89a22"/></linearGradient><path class="st0" d="M263.8 81.1h-24.7V1.3h24.7v79.8z"/><linearGradient id="SVGID_2_" gradientUnits="userSpaceOnUse" x1="325.013" y1="81.147" x2="325.013" y2="1.322"><stop offset="0" stop-color="#d38128"/><stop offset="1" stop-color="#f89a22"/></linearGradient><path class="st1" d="M378.4 1.3l-16 20.7h-28.5v59.1h-24.7v-59h-37.5l16-20.7h90.7z"/><linearGradient id="SVGID_3_" gradientUnits="userSpaceOnUse" x1="424.074" y1="81.147" x2="424.074" y2="1.322"><stop offset="0" stop-color="#d38128"/><stop offset="1" stop-color="#f89a22"/></linearGradient><path class="st2" d="M476.1 60.6l-15.9 20.5h-40.1c-6.9 0-13.3-1-19.2-3.1-5.9-2.1-11-4.9-15.2-8.5-4.3-3.6-7.6-7.9-10-12.9-2.4-5-3.6-10.4-3.6-16.2 0-5.8 1.2-11.1 3.6-15.9 2.4-4.8 5.8-9 10-12.4 4.2-3.5 9.3-6.1 15.2-8 5.9-1.9 12.3-2.8 19.2-2.8h56L460.2 22h-40.1c-3.3 0-6.4.5-9.3 1.4-2.9 1-5.3 2.3-7.4 4-2.1 1.7-3.7 3.8-4.9 6.1-1.2 2.4-1.8 5-1.8 7.9 0 2.9.6 5.5 1.7 7.8 1.2 2.3 2.8 4.4 4.9 6 2.1 1.7 4.6 3 7.5 3.9 2.9.9 6 1.4 9.3 1.4h56z"/><linearGradient id="SVGID_4_" gradientUnits="userSpaceOnUse" x1="540.849" y1="81.147" x2="540.849"><stop offset="0" stop-color="#d38128"/><stop offset="1" stop-color="#f89a22"/></linearGradient><path class="st3" d="M514.4 81.1l14.9-20.5h27.5c2.6 0 4.8.1 6.7.2-1.1-1.4-2.4-3.2-3.9-5.4s-2.9-4.3-4.2-6.2l-14.3-21.1-37.5 53h-29.2l51.2-72.2c1.7-2.3 3.8-4.4 6.3-6.2 2.6-1.8 5.8-2.7 9.7-2.7 3.7 0 6.9.8 9.4 2.6 2.5 1.7 4.6 3.8 6.4 6.4l49.9 72.2h-92.9z"/><linearGradient id="SVGID_5_" gradientUnits="userSpaceOnUse" x1="672.603" y1="81.147" x2="672.603" y2="1.322"><stop offset="0" stop-color="#d38128"/><stop offset="1" stop-color="#f89a22"/></linearGradient><path class="st4" d="M729.3 81.1h-33.1L678.5 60h-38v21.1h-24.7V40.3h69.4c3.8 0 7.1-.8 9.7-2.4 2.6-1.6 3.9-3.8 3.9-6.6 0-3.1-1.2-5.4-3.6-7-2.4-1.5-5.7-2.3-10-2.3h-69.4L632 1.3h51.3c4.5 0 9.2.4 14.1 1.2 4.9.8 9.3 2.3 13.3 4.5 4 2.1 7.2 5 9.8 8.7 2.6 3.7 3.9 8.4 3.9 14.1 0 3.1-.5 6-1.4 8.8-1 2.8-2.3 5.3-4.1 7.5-1.8 2.2-4 4.1-6.6 5.7-2.6 1.5-5.5 2.6-8.8 3.3 1.4 1 2.9 2.4 4.5 3.9 1.7 1.6 3.9 3.8 6.7 6.6l14.6 15.5z"/><linearGradient id="SVGID_6_" gradientUnits="userSpaceOnUse" x1="174.873" y1="81.147" x2="174.873" y2="1.322"><stop offset="0" stop-color="#d38128"/><stop offset="1" stop-color="#f89a22"/></linearGradient><path class="st5" d="M222.7 46.2c-2.4-3-5.4-5.1-8.9-6.1 1.4-.5 2.7-1.2 4-2.1 1.3-.9 2.5-2.1 3.5-3.5s1.8-3 2.4-4.8c.6-1.8 1-4 1-6.3 0-3.7-.7-6.9-2.2-9.6-1.5-2.7-3.6-5.1-6.3-6.9-2.7-1.9-6-3.3-9.9-4.2-3.9-.9-8.2-1.4-13-1.4h-69.8v79.8h70.4c6.3 0 11.5-.6 15.7-1.8 4.2-1.2 7.5-2.8 10-4.9 2.5-2.1 4.2-4.5 5.3-7.3 1-2.8 1.6-5.9 1.6-9.2-.2-4.8-1.4-8.7-3.8-11.7zm-28.4-24.1c1.8 0 3.3.4 4.8 1.1 1.4.7 2.1 2.1 2.1 4.1 0 2.1-.7 3.5-2.1 4.2-1.4.8-3 1.1-4.8 1.1h-45.8V22.1h45.8zm5.5 37.1c-1.2 1-3.1 1.4-5.8 1.4h-45.5v-11H194c2.7 0 4.6.5 5.8 1.4 1.2.9 1.8 2.2 1.8 4 0 1.8-.6 3.2-1.8 4.2z"/><linearGradient id="SVGID_7_" gradientUnits="userSpaceOnUse" x1="64.67" y1="52.569" x2="64.67" y2="29.72"><stop offset="0" stop-color="#d38128"/><stop offset="1" stop-color="#f89a22"/></linearGradient><path class="st6" d="M102.9 52.6H54.8c-21.4-1.8-28.4-22.8-28.4-22.8h76.5v22.8z"/><linearGradient id="SVGID_8_" gradientUnits="userSpaceOnUse" x1="78.872" y1="81.191" x2="78.872" y2="58.31"><stop offset="0" stop-color="#d38128"/><stop offset="1" stop-color="#f89a22"/></linearGradient><path class="st7" d="M102.9 81.2H83.2c-21.4-1.8-28.3-22.9-28.3-22.9H103v22.9z"/><linearGradient id="SVGID_9_" gradientUnits="userSpaceOnUse" x1="51.455" y1="24.151" x2="51.455" y2="1.286"><stop offset="0" stop-color="#d38128"/><stop offset="1" stop-color="#f89a22"/></linearGradient><path class="st8" d="M102.9 24.2H28.4C7 22.3 0 1.3 0 1.3h102.9c-.1.3 0 22.4 0 22.9z"/></svg>