<?xml version="1.0" encoding="UTF-8"?>
<svg width="124px" height="40px" viewBox="0 0 124 40" version="1.1" xmlns="http://www.w3.org/2000/svg" xmlns:xlink="http://www.w3.org/1999/xlink">
    <!-- Generator: Sketch 51.3 (57544) - http://www.bohemiancoding.com/sketch -->
    <title>官网左上角logo -白色</title>
    <desc>Created with Sketch.</desc>
    <defs>
        <polygon id="path-1" points="0 40.1276917 124 40.1276917 124 0.000258333333 0 0.000258333333"></polygon>
    </defs>
    <g id="官网左上角logo--白色" stroke="none" stroke-width="1" fill="none" fill-rule="evenodd">
        <g id="Group">
            <path d="M50.8104467,24.092425 L47.44178,24.092425 L47.44178,19.3458083 L50.72313,19.3458083 C52.3852467,19.3458083 53.5229467,20.2649583 53.5229467,21.7741417 C53.5229467,23.2394083 52.49478,24.092425 50.8104467,24.092425 Z M47.44178,12.958775 L50.5257633,12.958775 C52.14448,12.958775 53.12873,13.7683917 53.12873,15.1463417 C53.12873,16.5465083 52.14448,17.3116917 50.5257633,17.3116917 L47.44178,17.3116917 L47.44178,12.958775 Z M53.0848133,18.3176417 C54.5505967,17.7927083 55.66608,16.677225 55.66608,14.8399583 C55.66608,12.6963083 53.9605633,10.9246583 50.74483,10.9246583 L45.0496133,10.9246583 C44.9938133,10.9246583 44.9483467,10.970125 44.9483467,11.025925 L44.9483467,26.025275 C44.9483467,26.0815917 44.9938133,26.1270583 45.0496133,26.1270583 L51.0295133,26.1270583 C54.1351967,26.1270583 56.01638,24.3548917 56.01638,22.0366083 C56.01638,20.2210417 54.7040467,18.602325 53.0848133,18.3176417 Z" id="Fill-1" fill="#FFFFFF"></path>
            <mask id="mask-2" fill="white">
                <use xlink:href="#path-1"></use>
            </mask>
            <g id="Clip-4"></g>
            <polygon id="Fill-3" fill="#FFFFFF" mask="url(#mask-2)" points="58.7274333 26.1270583 61.2208667 26.1270583 61.2208667 14.074775 58.7274333 14.074775"></polygon>
            <path d="M59.9959017,9.28419 C59.099485,9.28419 58.3994017,9.98375667 58.3994017,10.88069 C58.3994017,11.7776233 59.099485,12.4782233 59.9959017,12.4782233 C60.8706183,12.4782233 61.5707017,11.7776233 61.5707017,10.88069 C61.5707017,9.98375667 60.8706183,9.28419 59.9959017,9.28419" id="Fill-5" fill="#FFFFFF" mask="url(#mask-2)"></path>
            <path d="M67.3094733,11.0779017 L64.9963567,11.0779017 C64.9405567,11.0779017 64.89509,11.1233683 64.89509,11.1791683 L64.89509,13.9733017 C64.89509,14.0291017 64.8496233,14.0745683 64.7938233,14.0745683 L63.57449,14.0745683 C63.51869,14.0745683 63.4732233,14.120035 63.4732233,14.175835 L63.4732233,16.0074183 C63.4732233,16.0632183 63.51869,16.108685 63.57449,16.108685 L64.7938233,16.108685 C64.8496233,16.108685 64.89509,16.153635 64.89509,16.2099517 L64.89509,22.779885 C64.89509,25.2299183 66.22964,26.1268517 68.37329,26.1268517 L70.2405233,26.1268517 C70.2963233,26.1268517 70.3412733,26.081385 70.3412733,26.025585 L70.3412733,24.150085 C70.3412733,24.094285 70.2963233,24.0488183 70.2405233,24.0488183 L68.81039,24.0488183 C67.7605233,24.0488183 67.4102233,23.677335 67.4102233,22.779885 L67.4102233,16.2099517 C67.4102233,16.153635 67.45569,16.108685 67.5120067,16.108685 L70.2405233,16.108685 C70.2963233,16.108685 70.3412733,16.0632183 70.3412733,16.0074183 L70.3412733,14.175835 C70.3412733,14.120035 70.2963233,14.0745683 70.2405233,14.0745683 L67.5120067,14.0745683 C67.45569,14.0745683 67.4102233,14.0291017 67.4102233,13.9733017 L67.4102233,11.1791683 C67.4102233,11.1233683 67.3647567,11.0779017 67.3094733,11.0779017" id="Fill-6" fill="#FFFFFF" mask="url(#mask-2)"></path>
            <path d="M83.94273,10.9245033 L81.0840133,10.9245033 C81.0540467,10.9245033 81.02563,10.93742 81.0065133,10.9601533 L75.13098,17.8586867 L75.13098,11.02577 C75.13098,10.96997 75.0855133,10.9245033 75.0297133,10.9245033 L72.7388133,10.9245033 C72.6830133,10.9245033 72.6375467,10.96997 72.6375467,11.02577 L72.6375467,26.0256367 C72.6375467,26.0814367 72.6830133,26.1269033 72.7388133,26.1269033 L75.0297133,26.1269033 C75.0855133,26.1269033 75.13098,26.0814367 75.13098,26.0256367 L75.13098,19.3239533 L80.9848133,26.0912533 C81.0044467,26.11347 81.03183,26.1269033 81.0617967,26.1269033 L84.0491633,26.1269033 C84.13648,26.1269033 84.18298,26.02357 84.12563,25.95847 L77.5593133,18.5365533 L84.0191967,11.09242 C84.0765467,11.0268033 84.02953,10.9245033 83.94273,10.9245033" id="Fill-7" fill="#FFFFFF" mask="url(#mask-2)"></path>
            <path d="M86.4236083,19.01757 C86.6865917,17.1146867 88.042325,15.9769867 89.727175,15.9769867 C91.5861417,15.9769867 93.0514083,17.1586033 93.095325,19.01757 L86.4236083,19.01757 Z M89.835675,13.87777 C86.270675,13.87777 83.8211583,16.3055867 83.8211583,20.0891367 C83.8211583,23.87372 86.3802083,26.3237533 89.835675,26.3237533 C92.724875,26.3237533 94.6091583,24.7112367 95.3247417,22.6750533 C95.347475,22.60892 95.2968417,22.53917 95.2270917,22.53917 L92.7414083,22.53917 C92.703175,22.53917 92.6695917,22.56087 92.6525417,22.59497 C92.1865083,23.5084367 91.3371083,24.2235033 89.835675,24.2235033 C87.998925,24.2235033 86.5770583,23.0207033 86.4019083,21.0305033 L95.5221083,21.0305033 C95.5727417,21.0305033 95.6166583,20.99227 95.6238917,20.94267 C95.679175,20.55827 95.697775,20.1914367 95.697775,19.80497 C95.697775,16.26167 93.270475,13.87777 89.835675,13.87777 Z" id="Fill-8" fill="#FFFFFF" mask="url(#mask-2)"></path>
            <path d="M99.9185283,19.01757 C100.180995,17.1146867 101.537245,15.9769867 103.221578,15.9769867 C105.080545,15.9769867 106.546328,17.1586033 106.589728,19.01757 L99.9185283,19.01757 Z M103.330595,13.87777 C99.765595,13.87777 97.3155617,16.3055867 97.3155617,20.0891367 C97.3155617,23.87372 99.8746117,26.3237533 103.330595,26.3237533 C106.219795,26.3237533 108.104078,24.7112367 108.819662,22.6750533 C108.841878,22.60892 108.791762,22.53917 108.722012,22.53917 L106.236328,22.53917 C106.198095,22.53917 106.163995,22.56087 106.146945,22.59497 C105.680912,23.5084367 104.832028,24.2235033 103.330595,24.2235033 C101.493328,24.2235033 100.071978,23.0207033 99.8968283,21.0305033 L109.017028,21.0305033 C109.067662,21.0305033 109.111578,20.99227 109.118812,20.94267 C109.174095,20.55827 109.192695,20.19092 109.192695,19.80497 C109.192695,16.26167 106.764878,13.87777 103.330595,13.87777 Z" id="Fill-9" fill="#FFFFFF" mask="url(#mask-2)"></path>
            <path d="M117.78791,24.1580417 C115.928427,24.1580417 114.135077,22.6922583 114.135077,20.0892917 C114.135077,17.5085417 115.928427,16.043275 117.78791,16.043275 C119.669093,16.043275 121.462443,17.442925 121.462443,20.0458917 C121.462443,22.6488583 119.669093,24.1580417 117.78791,24.1580417 M118.33506,13.877925 C116.366043,13.877925 114.900777,14.8399583 114.135077,15.846425 L114.135077,14.1760417 C114.135077,14.119725 114.08961,14.0742583 114.033293,14.0742583 L111.74291,14.0742583 C111.686593,14.0742583 111.641643,14.119725 111.641643,14.1760417 L111.641643,31.7561417 C111.641643,31.8119417 111.686593,31.8574083 111.74291,31.8574083 L114.033293,31.8574083 C114.08961,31.8574083 114.135077,31.8119417 114.135077,31.7561417 L114.135077,24.3765917 C114.922477,25.3174417 116.344343,26.3233917 118.33506,26.3233917 C121.50636,26.3233917 123.999793,23.7643417 123.999793,20.0458917 C123.999793,16.3274417 121.50636,13.877925 118.33506,13.877925" id="Fill-10" fill="#FFFFFF" mask="url(#mask-2)"></path>
            <path d="M17.5268317,24.660035 C17.679765,24.748385 17.8678317,24.748385 18.020765,24.660035 L21.6281317,22.5773517 C21.781065,22.4890017 21.875615,22.325735 21.875615,22.1495517 L21.875615,17.9836683 C21.875615,17.8069683 21.781065,17.6442183 21.6281317,17.5558683 L18.020765,15.473185 C17.8678317,15.384835 17.679765,15.384835 17.5268317,15.473185 L13.919465,17.5558683 C13.7665317,17.6442183 13.6719817,17.8069683 13.6719817,17.9836683 L13.6719817,22.1495517 C13.6719817,22.325735 13.7665317,22.4890017 13.919465,22.5773517 L17.5268317,24.660035 Z" id="Fill-11" fill="#FFFFFF" mask="url(#mask-2)"></path>
            <path d="M32.1297433,27.7827683 C32.1297433,28.1361683 31.9416767,28.4616683 31.63581,28.6383683 L24.9795933,32.482885 C24.7501933,32.6156683 24.4675767,32.6156683 24.2386933,32.482885 L21.1908767,30.7231183 L27.9705767,26.8093683 C28.4293767,26.544835 28.7119933,26.055035 28.7119933,25.5254517 L28.7119933,14.6072517 C28.7119933,14.078185 28.4293767,13.588385 27.9705767,13.3238517 L18.4582267,7.83065167 C18.0355933,7.58626833 17.5142767,7.58626833 17.0911267,7.82961833 L17.0911267,3.883835 L17.27971,3.77481833 C17.5855767,3.59811833 17.9622267,3.59811833 18.2680933,3.77481833 L31.63581,11.492785 C31.9416767,11.669485 32.1297433,11.9955017 32.1297433,12.3489017 L32.1297433,27.7827683 Z M18.2680933,36.357885 C17.9622267,36.5340683 17.5855767,36.5340683 17.27971,36.357885 L3.91251,28.6394017 C3.60664333,28.4627017 3.41806,28.1372017 3.41806,27.7838017 L3.41806,12.3489017 C3.41806,11.9955017 3.60664333,11.669485 3.91251,11.492785 L6.83632667,9.804835 L6.83632667,25.5254517 C6.83632667,26.055035 7.11894333,26.544835 7.57722667,26.8093683 L21.1908767,34.669935 L18.2680933,36.357885 Z M34.0656933,8.94871833 L19.25751,0.397368333 C18.33991,-0.132215 17.2094433,-0.132215 16.2918433,0.397368333 L13.6718267,1.91120167 L13.6718267,2.01246833 L13.6718267,5.856985 L13.6718267,9.80380167 L13.6707933,9.80431833 L13.6718267,13.7516517 L17.5266767,11.5258517 C17.67961,11.4375017 17.8676767,11.4375017 18.02061,11.5258517 L25.04676,15.5822017 C25.1996933,15.6705517 25.2937267,15.8338183 25.2937267,16.0100017 L25.2937267,24.1227017 C25.2937267,24.2994017 25.1996933,24.4621517 25.04676,24.5505017 L18.02061,28.6068517 C17.8676767,28.6952017 17.67961,28.6952017 17.5266767,28.6068517 L10.50156,24.5505017 C10.3486267,24.4621517 10.2540767,24.2994017 10.2540767,24.1227017 L10.2540767,3.88435167 L1.48262667,8.94871833 C0.565026667,9.47830167 -0.000206666667,10.4568683 -0.000206666667,11.5165517 L-0.000206666667,28.6161517 C-0.000206666667,29.6753183 0.565026667,30.6544017 1.48314333,31.183985 L16.2928767,39.730685 C17.2094433,40.2597517 18.3393933,40.2597517 19.2564767,39.730685 L34.0651767,31.183985 C34.98226,30.6544017 35.5474933,29.675835 35.5474933,28.6161517 L35.5474933,11.516035 C35.5474933,10.4568683 34.9827767,9.47830167 34.0656933,8.94871833 Z" id="Fill-12" fill="#FFFFFF" mask="url(#mask-2)"></path>
            <polygon id="Fill-13" fill="#FFFFFF" mask="url(#mask-2)" points="44.9540817 28.7510017 45.482115 28.7510017 46.1976983 31.3648183 46.9706317 28.7510017 47.4991817 28.7510017 48.2545483 31.369985 48.958765 28.7510017 49.4697483 28.7510017 48.498415 31.8639183 47.9646983 31.8639183 47.215015 29.3932183 46.4653317 31.8639183 45.931615 31.8639183"></polygon>
            <path d="M54.0789833,29.1490933 C53.51065,29.1490933 53.0275667,29.5639767 53.0275667,30.29661 C53.0275667,31.02976 53.51065,31.4611767 54.0789833,31.4611767 C54.6468,31.4611767 55.13505,31.0349267 55.13505,30.3017767 C55.13505,29.58051 54.6468,29.1490933 54.0789833,29.1490933 M53.9766833,28.70011 C54.5558667,28.70011 54.9531833,28.9956433 55.13505,29.3190767 L55.13505,28.7507433 L55.6584333,28.7507433 L55.6584333,31.8641767 L55.13505,31.8641767 L55.13505,31.2849933 C54.9480167,31.6197933 54.5445,31.9153267 53.9704833,31.9153267 C53.14175,31.9153267 52.4995333,31.26226 52.4995333,30.29661 C52.4995333,29.3252767 53.14175,28.70011 53.9766833,28.70011" id="Fill-14" fill="#FFFFFF" mask="url(#mask-2)"></path>
            <polygon id="Fill-15" fill="#FFFFFF" mask="url(#mask-2)" points="59.2435833 31.864125 59.7607667 31.864125 59.7607667 27.660525 59.2435833 27.660525"></polygon>
            <polygon id="Fill-16" fill="#FFFFFF" mask="url(#mask-2)" points="63.3516 31.864125 63.8682667 31.864125 63.8682667 27.660525 63.3516 27.660525"></polygon>
            <path d="M67.80041,30.0804883 L69.76581,30.0804883 C69.7714933,29.4728883 69.3173433,29.1375717 68.78311,29.1375717 C68.27781,29.1375717 67.8567267,29.4728883 67.80041,30.0804883 M68.8058433,31.9156883 C67.9192433,31.9156883 67.2666933,31.2905217 67.2666933,30.3021383 C67.2666933,29.3189217 67.8970267,28.699955 68.8058433,28.699955 C69.7089767,28.699955 70.3000433,29.3364883 70.3000433,30.1884717 C70.3000433,30.3021383 70.29436,30.392555 70.2829933,30.5005383 L67.7947267,30.5005383 C67.8339933,31.1313883 68.27781,31.4780717 68.8058433,31.4780717 C69.2718767,31.4780717 69.5668933,31.2393717 69.6810767,30.9045717 L70.2375267,30.9045717 C70.0783933,31.4718717 69.57826,31.9156883 68.8058433,31.9156883" id="Fill-17" fill="#FFFFFF" mask="url(#mask-2)"></path>
            <path d="M73.8061433,29.177355 L73.4026267,29.177355 L73.4026267,28.751105 L73.8061433,28.751105 L73.8061433,27.9673217 L74.32281,27.9673217 L74.32281,28.751105 L75.13501,28.751105 L75.13501,29.177355 L74.32281,29.177355 L74.32281,31.012555 C74.32281,31.319455 74.4369933,31.4269217 74.7547433,31.4269217 L75.13501,31.4269217 L75.13501,31.8640217 L74.6694933,31.8640217 C74.11821,31.8640217 73.8061433,31.637205 73.8061433,31.012555 L73.8061433,29.177355 Z" id="Fill-18" fill="#FFFFFF" mask="url(#mask-2)"></path>
        </g>
    </g>
</svg>