<?xml version="1.0" encoding="utf-8"?>
<!-- Generator: Adobe Illustrator 17.0.0, SVG Export Plug-In . SVG Version: 6.00 Build 0)  -->
<!DOCTYPE svg PUBLIC "-//W3C//DTD SVG 1.1//EN" "http://www.w3.org/Graphics/SVG/1.1/DTD/svg11.dtd">
<svg version="1.1" id="Layer_1" xmlns="http://www.w3.org/2000/svg" xmlns:xlink="http://www.w3.org/1999/xlink" x="0px" y="0px"
	 width="256px" height="73px" viewBox="0 92.5 256 73" enable-background="new 0 92.5 256 73" xml:space="preserve">
<path fill="#EB1C24" d="M59.443,118.684c-1.858-2.513-3.118-5.416-3.686-8.489c1.248-0.071,2.202-1.14,2.131-2.387
	c-0.071-1.248-1.14-2.202-2.387-2.131c-1.248,0.071-2.202,1.14-2.131,2.387c0.065,1.149,0.982,2.066,2.131,2.131l0,0
	c-0.568,1.37-1.196,2.785-1.83,4.142c-1.19,2.598-2.657,5.036-4.92,6.879c-1.997,1.626-4.234,2.337-6.771,1.518
	c-1.792-0.579-3.302-1.674-4.692-2.921c-2.949-2.644-5.274-5.804-7.424-9.101c-0.474-0.724-0.924-1.464-1.398-2.22
	c0.989-0.389,1.553-1.436,1.331-2.476c-0.218-1.232-1.393-2.054-2.625-1.837c-1.232,0.218-2.054,1.393-1.837,2.625
	c0.217,1.23,1.389,2.051,2.619,1.838c1.536,6.305,3.3,13.243,4.864,19.528c0.164,0.66,0.356,1.311,0.535,1.969l-0.975-12.152
	l0.648,0.694c1.976,2.132,4.14,4.027,6.733,5.391c4.204,2.212,8.415,1.349,11.425-2.319c1.434-1.746,2.458-3.722,3.384-5.76
	c0.256-0.563,0.512-1.132,0.822-1.838c2.156,5.437,5.606,9.101,11.556,9.692C63.905,123.082,61.243,121.25,59.443,118.684z"/>
<path fill="#EB1C24" d="M45.13,108.355c-0.151,4.457-0.916,8.704-4.15,12.116c3.269-1.848,4.772-4.805,5.176-8.527
	c1.329,1.846,2.783,3.328,4.746,4.352c-1.093-1.418-2.191-2.706-3.133-4.096c-1.362-1.946-2.198-4.212-2.427-6.577
	c0-0.115-0.02-0.218-0.028-0.307c1.179-0.015,2.123-0.983,2.108-2.162c-0.015-1.179-0.983-2.123-2.162-2.108
	c-0.025,0-0.049,0.001-0.074,0.002c-0.677-0.005-1.322,0.288-1.764,0.801c-0.282,0.281-0.455,0.653-0.486,1.05
	c0,0.069,0,0.138,0,0.205c0,0.028,0,0.054,0,0.082c0.035,1.209,1.038,2.163,2.248,2.138c0,0.1,0,0.218,0,0.361
	C45.181,106.565,45.158,107.461,45.13,108.355z"/>
<path fill="#EB1C24" d="M84.57,105.482c-1.093-0.449-2.343,0.073-2.792,1.166s0.073,2.343,1.166,2.792
	c-0.052,0.181-0.117,0.358-0.195,0.53c-0.877,2.034-1.871,4.015-2.977,5.934c-0.921,1.571-2.221,2.887-3.781,3.827
	c-1.354,0.827-2.785,1.126-4.301,0.512c-1.731-0.712-2.711-2.14-3.384-3.784c-1.536-3.735-1.605-7.982-1.434-11.924
	c-0.003-0.03-0.003-0.06,0-0.09c1.238,0.147,2.362-0.737,2.509-1.975c0.147-1.238-0.737-2.362-1.975-2.509
	c-1.238-0.147-2.362,0.737-2.509,1.975c-0.135,1.134,0.597,2.19,1.706,2.46c0.002,0.014,0.002,0.029,0,0.044
	c-0.904,4.239-2.816,8.883-6.218,11.812c0.022,0.099,0.054,0.195,0.097,0.287c1.746,3.661,5.138,7.084,9.792,6.771
	c0.891-0.059,1.775-0.192,2.644-0.397c2.655-0.632,4.69-2.199,6.313-4.352c1.884-2.493,3.072-5.87,3.932-8.842
	c0.016-0.058,0.037-0.114,0.061-0.169c1.12,0.37,2.328-0.237,2.698-1.357c0.37-1.12-0.237-2.328-1.357-2.698l0,0L84.57,105.482z"/>
<path fill="#FFFFFF" d="M97.395,149.573c-4.255,0-9.879,0-13.893,0c-0.444,0.004-0.887-0.042-1.321-0.136
	c-1.731-0.397-2.982-2.399-2.852-3.771h17.874v-5.688H79.26c0.44-2.371,1.935-3.604,4.285-3.607h13.847v-6.182
	c-5.069,0-11.249-0.015-16.223,0.015c-4.808,0.028-8.097,2.476-9.382,6.938c-0.863,2.995-0.906,6.057-0.512,9.119
	c0.187,1.678,0.699,3.304,1.505,4.787c1.82,3.249,4.741,4.641,8.312,4.698c4.82,0.074,11.226,0.026,16.307,0.028L97.395,149.573z"/>
<path fill="#EB1C24" d="M200.673,138.975c0-0.489,0-0.978,0-1.469c0-2.132-0.727-3.963-2.399-5.34
	c-1.766-1.454-3.855-1.964-6.088-1.966c-3.845,0-7.69,0-11.535,0h-8.087v25.577h8.082v-19.092l0.783-0.018c2.883,0,5.765,0,8.648,0
	c1.638,0,2.458,0.814,2.516,2.417v6.129c0,3.243-0.009,6.479-0.026,9.71c-0.001,0.102,0.008,0.204,0.026,0.305v0.55h8.082v-16.801
	H200.673z"/>
<path fill="#FFFFFF" d="M99.249,130.196v6.438h10.529v19.141h8.192v-19.144h0.899c2.619,0,6.71,0,9.664,0v-6.456
	C119.747,130.199,107.999,130.196,99.249,130.196z"/>
<rect x="161.659" y="130.194" fill="#EB1C24" width="8.082" height="25.58"/>
<path fill="#EB1C24" d="M149.486,155.599c0.065,0.066,0.137,0.124,0.215,0.174h10.432l-13.568-13.742
	c4.096-3.84,8.497-7.977,12.631-11.848h-9.472c-0.073,0.05-0.143,0.105-0.207,0.166c-2.865,2.726-6.29,5.829-9.108,8.602
	c-0.175,0.176-0.375,0.326-0.594,0.443h-1.434v-9.201h-7.985c0.013,7.567,0.015,18.007,0,25.58h8.033v-10.179h0.044h1.16"/>
<path fill="#EB1C24" d="M214.057,136.878c0.643-0.13,1.298-0.185,1.953-0.164c4.265,0,10.163,0,14.648,0v-6.52h-19.377
	c-3.666,0.494-6.272,2.542-7.452,6.126c-1.423,4.303-1.4,8.689-0.164,13.018c1.055,3.694,3.738,6.07,7.424,6.431h19.566v-15.491
	c-4.201,0-10.358,0-14.71,0v5.041h7.142v0.804c0,1.085,0,2.171,0,3.236l0,0v0.077h-7.34l-0.886-0.031
	c-1.543-0.003-2.896-1.031-3.313-2.516c-0.782-2.475-0.789-5.129-0.02-7.608C211.852,138.067,212.829,137.138,214.057,136.878z"/>
<path fill="#FFFFFF" d="M66.048,142.382c0.954-0.353,1.692-1.125,2.002-2.094c0.477-1.376,0.614-2.847,0.399-4.288
	c-0.249-1.714-1.215-3.24-2.657-4.198c-1.633-1.119-3.476-1.536-5.396-1.605H40.172v25.58h1.044c6.456-0.013,14.113,0,20.262-0.018
	c1.526,0.039,3.04-0.286,4.416-0.947c2.276-1.16,3.356-3.118,3.584-5.576C69.757,146.478,69.135,143.775,66.048,142.382z
	 M48.205,135.913h2.839c2.304,0,4.634-0.026,6.948,0.023c1.697,0.036,2.56,1.216,2.237,2.885c-0.194,0.958-1.048,1.638-2.025,1.613
	c-2.76,0.036-5.522,0.026-8.282,0.033h-1.72L48.205,135.913z M60.977,147.945c-0.212,1.009-0.927,1.613-2.074,1.628
	c-2.437,0.036-4.864,0.02-7.314,0.026h-3.395v-4.541h0.612c3.267,0,6.536-0.013,9.802,0c1.807,0.013,2.732,1.162,2.365,2.895
	L60.977,147.945z"/>
</svg>
