<svg width="184" height="36" viewBox="0 0 184 36" fill="none" xmlns="http://www.w3.org/2000/svg">
    <path fill-rule="evenodd" clip-rule="evenodd" d="M15.043 0H0V2.6416H15.043V0ZM15.043 5.55469H0V8.19629H15.043V5.55469ZM0 11.1094H15.043V13.751H0V11.1094Z" transform="translate(10.6328 11.1377)" fill="#0DA9FF"/>
    <path d="M18.1123 0C8.1108 0 0 8.06051 0 18C0 27.9395 8.1108 36 18.1123 36C28.1138 36 36.2246 27.9395 36.2246 18C36.2246 8.06051 28.1138 0 18.1123 0ZM19.455 33.3041V29.1104H16.797V33.3041C8.87803 32.6233 2.65793 26.0333 2.65793 18C2.65793 9.96672 8.87803 3.3767 16.797 2.69592V6.86233H19.455V2.69592C27.3465 3.3767 33.594 9.96672 33.594 18C33.5666 26.0333 27.3465 32.6233 19.455 33.3041Z" fill="#202326"/>
    <path fill-rule="evenodd" clip-rule="evenodd" d="M34.4453 0L44.3086 22.4111H40.1445L37.8691 17.0742H30.6348L32.0879 13.6162H36.3906L32.5527 4.68359L24.9902 22.4111H20.9629L30.8008 0H34.4453ZM48.0078 0.163086H51.6523L63.6543 15.5488V0.163086H67.5176V22.4111H64.2285L51.8711 6.58984V22.4111H48.0078V0.163086ZM14.2207 10.8389C15.8926 9.96777 17.4277 8.55176 17.4277 5.88281V5.82812C17.4277 4.33105 16.9062 3.13281 15.9199 2.15234C14.6328 0.87207 12.6328 0.191406 10.0566 0.191406H0V3.64941H9.53516C12.0566 3.64941 13.4824 4.73926 13.4824 6.48145V6.53613C13.4824 8.5791 11.7832 9.55859 9.26172 9.55859H0.0273438V22.4395H10.3848C15.373 22.4395 18.6602 20.3154 18.6602 16.3398V16.2852C18.6602 13.2354 16.8242 11.7373 14.2207 10.8389ZM14.7148 15.9043C14.7148 17.9189 13.0703 18.9541 10.3848 18.9541H3.86328V12.8545H10.1113C13.207 12.8545 14.7148 13.9707 14.7148 15.8496V15.9043ZM78.2305 0.163086H74.2852V22.4111H78.2305V15.957L81.7109 12.3896L89.3555 22.4111H94.123L84.3965 9.72168L93.7129 0.163086H88.8906L78.2305 11.3555V0.163086ZM125.689 11.1104L117.852 0.163086H122.482L128.045 8.1416L133.635 0.163086H138.156L130.348 11.0283L138.486 22.4111H133.855L127.963 13.9971L122.045 22.4111H117.523L125.689 11.1104ZM114.73 0.163086H97.3027V3.64844H114.73V0.163086ZM100.838 12.9336V18.9248H114.895V22.4102H97.3027V9.44824H110.84V12.9336H100.838Z" transform="translate(45.5137 6.69922)" fill="#202326"/>
</svg>
