<?xml version="1.0" standalone="no"?>
<!DOCTYPE svg PUBLIC "-//W3C//DTD SVG 20010904//EN"
 "http://www.w3.org/TR/2001/REC-SVG-20010904/DTD/svg10.dtd">
<svg version="1.0" xmlns="http://www.w3.org/2000/svg"
 width="700.000000pt" height="700.000000pt" viewBox="0 0 700.000000 700.000000"
 preserveAspectRatio="xMidYMid meet">
<metadata>
Created by potrace 1.11, written by Peter Selinger 2001-2013
</metadata>
<g transform="translate(0.000000,700.000000) scale(0.100000,-0.100000)"
fill="#000000" stroke="none">
<path d="M3308 6995 c-2 -1 -45 -6 -95 -9 -51 -4 -103 -9 -115 -11 -13 -2 -45
-7 -73 -10 -41 -4 -178 -29 -280 -49 -11 -2 -74 -18 -140 -36 -421 -112 -808
-296 -1162 -552 -67 -48 -128 -94 -135 -101 -7 -6 -51 -44 -98 -84 -87 -73
-261 -248 -362 -363 -134 -153 -317 -416 -408 -585 -23 -44 -46 -84 -50 -90
-17 -23 -116 -249 -160 -367 -82 -216 -163 -517 -185 -693 -3 -27 -10 -77 -15
-110 -30 -193 -33 -665 -5 -839 2 -11 6 -41 9 -66 3 -25 8 -54 10 -65 2 -11 7
-42 10 -70 9 -64 63 -295 84 -360 9 -27 17 -54 18 -60 19 -84 132 -370 207
-520 389 -784 1040 -1384 1849 -1705 268 -107 589 -191 818 -216 30 -3 57 -7
60 -9 37 -23 732 -24 801 -1 8 3 39 8 69 11 126 14 137 16 295 51 11 2 34 7
50 9 55 10 300 84 405 123 263 98 505 221 735 375 57 38 237 170 261 192 7 5
40 35 75 65 105 90 331 319 411 417 269 325 496 733 623 1118 64 197 131 477
150 635 3 25 8 65 11 89 19 144 26 610 10 716 -3 17 -7 53 -11 80 -3 28 -8 65
-10 83 -10 81 -47 266 -70 357 -14 55 -28 107 -30 115 -12 53 -84 259 -126
362 -113 274 -235 495 -408 738 -41 58 -77 107 -81 110 -3 3 -15 17 -26 32
-126 164 -377 411 -569 559 -38 29 -72 56 -75 59 -3 3 -13 10 -22 15 -10 6
-55 35 -100 66 -380 258 -902 471 -1333 543 -48 8 -235 34 -295 41 -54 7 -516
16 -522 10z m227 -709 c115 -14 144 -19 220 -32 44 -8 94 -17 110 -20 52 -9
247 -64 335 -96 220 -79 424 -179 610 -302 69 -45 219 -156 246 -181 6 -5 40
-35 75 -65 68 -60 69 -61 179 -176 193 -202 335 -405 464 -661 97 -192 163
-371 221 -593 15 -58 38 -176 49 -255 14 -96 16 -114 23 -195 42 -521 -65
-1050 -311 -1523 -92 -179 -224 -376 -351 -527 -90 -107 -324 -327 -419 -395
-16 -11 -33 -25 -40 -30 -14 -13 -195 -135 -200 -135 -2 0 -33 -18 -69 -40
-259 -157 -683 -305 -992 -346 -27 -3 -58 -8 -67 -9 -149 -29 -622 -21 -773
12 -16 4 -32 7 -35 8 -3 1 -26 4 -51 8 -92 15 -104 18 -129 27 -19 7 -110 29
-140 35 -13 2 -57 17 -75 25 -11 5 -45 16 -75 26 -234 72 -633 291 -820 451
-14 11 -47 40 -75 63 -70 59 -210 197 -275 270 -66 75 -230 289 -230 301 0 4
-6 14 -13 21 -24 24 -116 185 -176 304 -90 183 -192 472 -216 613 -3 19 -8 37
-10 40 -2 4 -6 26 -10 51 -4 25 -8 47 -10 50 -2 3 -6 34 -10 70 -4 36 -9 68
-11 71 -16 26 -22 409 -10 574 7 97 38 303 56 375 25 103 34 133 62 225 25 84
58 173 98 270 159 381 464 793 775 1044 39 31 76 61 83 68 26 25 230 162 312
210 220 128 494 239 735 297 177 43 278 59 435 72 41 3 76 7 78 8 5 5 377 -2
427 -8z"/>
</g>
</svg>
