<?xml version="1.0" encoding="utf-8"?>
<!-- Generator: Adobe Illustrator 19.0.0, SVG Export Plug-In . SVG Version: 6.00 Build 0)  -->
<svg version="1.1" id="Layer_1" xmlns="http://www.w3.org/2000/svg" xmlns:xlink="http://www.w3.org/1999/xlink" x="0px" y="0px"
	 viewBox="-749 751 500 500" style="enable-background:new -749 751 500 500;" xml:space="preserve">
<style type="text/css">
	.st0{fill:#F2B740;}
</style>
<path id="XMLID_4_" class="st0" d="M-349.2,1094.6c-50.3,49.6-100.2,98.8-149.5,147.4c-49.2-49.2-98.6-98.6-147-147
	c16.9-17,34.8-34.9,53-53.2c29.8,29.8,60.9,60.9,93.5,93.5c5.4-6.1,9.9-11.6,14.8-16.6c24.5-24.7,49.3-49.2,73.7-74
	c4.6-4.7,7.2-4.5,11.6,0.1c14.4,15.2,29.2,30,43.9,44.9C-353.7,1091.1-352,1092.3-349.2,1094.6z M-404.2,961.4
	c-31.5-31.5-62.8-62.8-94.1-94.1c-32.9,32.2-64.5,63-95.7,93.4c-16.8-16.9-35-35.1-52.7-52.9c49-49,98.4-98.3,148.6-148.5
	c48.6,48.8,98.2,98.7,147.9,148.7C-368.2,925.9-386.1,943.5-404.2,961.4z M-444,1000.6c-18.7,18.8-36.8,37-54.5,54.8
	c-18-18.1-36.3-36.5-53.9-54.2c17.5-17.5,36.1-36,54.1-54C-480.7,964.6-462,982.9-444,1000.6z M-311.8,1055.4
	c-17.7-17.7-35.7-35.8-53-53.1c18-17.9,36.1-36,54.4-54.2c17.1,17.3,35.1,35.4,52.7,53.2C-275.5,1019.1-293.5,1037.1-311.8,1055.4z
	 M-685.5,1055.6c-19.2-19.1-37-37-54.3-54.2c17.3-17.3,35.3-35.3,54.2-54.2c17.2,17.3,35.3,35.5,51.7,51.9
	C-651.4,1018.3-668.7,1037.2-685.5,1055.6z"/>
</svg>
