<svg xmlns="http://www.w3.org/2000/svg" width="190" height="33" viewBox="0 0 190 33">
    <g fill="none" fill-rule="evenodd">
        <path fill="#F60" d="M129.234 7.46c4.416 0 7.014 2.629 7.651 6.237h-4.619c-.463-1.299-1.415-2.166-3.032-2.166-2.455 0-3.84 2.166-3.84 5.082 0 2.886 1.385 5.08 3.84 5.08 1.617 0 2.57-.865 3.032-2.194h4.62c-.638 3.639-3.236 6.266-7.652 6.266-4.966 0-8.516-3.783-8.516-9.152 0-5.37 3.55-9.152 8.516-9.152M146.759 11.531c-2.395 0-3.955 2.022-3.955 5.082s1.56 5.081 3.955 5.081c2.396 0 4.013-2.021 4.013-5.08 0-3.061-1.617-5.083-4.013-5.083m0 14.233c-5.111 0-8.632-3.868-8.632-9.15 0-5.314 3.521-9.153 8.632-9.153 5.139 0 8.69 3.839 8.69 9.152 0 5.283-3.551 9.151-8.69 9.151M157.386 25.477h4.648V7.75h-4.648zM180.336 25.476h-3.754l-7.419-10.365v10.365h-4.474V7.749h4.33l6.843 9.758V7.75h4.474zM184.87 20.279c1.502 0 2.685 1.154 2.685 2.686 0 1.529-1.183 2.713-2.685 2.713-1.473 0-2.656-1.184-2.656-2.713 0-1.532 1.183-2.686 2.656-2.686"/>
        <path fill="#FFF" d="M4.263 21.954h2.65c1.106 0 1.72-.59 1.72-1.45 0-.907-.614-1.472-1.72-1.472h-2.65v2.922zm2.258-5.868c1.153 0 1.768-.441 1.768-1.374 0-.932-.615-1.35-1.768-1.35H4.263v2.724H6.52zm5.916 4.885c0 2.726-1.867 4.222-5.009 4.222H.508v-15.07h6.455c3.141 0 5.03 1.4 5.03 4.1 0 1.62-.906 2.796-2.012 3.19 1.424.466 2.456 1.865 2.456 3.558zM18.083 17.069h2.455c1.398 0 2.037-.711 2.037-1.816 0-1.106-.64-1.817-2.037-1.817h-2.455v3.633zm0 3.142v4.982h-3.902v-15.07h6.773c3.24 0 5.474 1.841 5.474 5.13 0 2.283-1.155 3.853-2.994 4.54l3.534 5.4h-4.37l-3.14-4.982h-1.375zM33.473 19.033h3.093l-1.547-4.246-1.546 4.246zm3.608-8.91l5.744 15.07h-4l-1.08-2.92H32.27l-1.056 2.92h-3.902l5.743-15.07h4.026zM46.482 25.194l-5.62-15.071h4.222l3.411 9.744 3.412-9.744h4.05l-5.62 15.07zM68.034 10.123v3.387h-6.896v2.356h6.307v3.314h-6.307v2.602h6.896v3.411H57.258v-15.07zM87.72 25.194H84.53l-6.308-8.812v8.812h-3.804V10.123h3.682l5.817 8.296v-8.296h3.804zM100.754 10.123v3.387h-6.896v2.356h6.307v3.314h-6.307v2.602h6.896v3.411H89.978v-15.07zM120.1 10.123h-2.508l-2.085 8.86-2.307-8.86h-2.995l-2.331 8.86-2.113-8.86h-4.026l3.954 15.07h3.607l2.357-8.835 2.33 8.835h3.61l1.287-4.879a13.231 13.231 0 0 1-.514-3.7c0-2.465.627-4.678 1.733-6.491"/>
    </g>
</svg>
