<svg xmlns="http://www.w3.org/2000/svg" viewBox="0 0 131.3 52.7"><linearGradient id="a" gradientUnits="userSpaceOnUse" x1="15.991" y1="44.866" x2="30.487" y2="10.623" gradientTransform="matrix(1 0 0 -1 0 54)"><stop offset="0" stop-color="#596378"/><stop offset="1" stop-color="#465168"/></linearGradient><path d="M44.8 34.5c-1.1-.7-2.5-.6-3.6-.1 0-.1-.1-.3-.2-.4l-4.4-7.6 4.4-7.6c.1-.1.1-.3.2-.4 1.1.6 2.4.6 3.6-.1 1.8-1 2.4-3.3 1.4-5.1s-3.3-2.4-5.1-1.4c-1.1.7-1.8 1.8-1.9 3.1H30l-4.4-7.6c-.1-.1-.2-.2-.2-.3 1-.7 1.7-1.8 1.7-3.1 0-2.1-1.7-3.7-3.7-3.7s-3.7 1.7-3.7 3.7c0 1.3.7 2.5 1.7 3.1-.1.1-.2.2-.2.3l-4.4 7.6H7.5c-.1-1.2-.7-2.4-1.9-3.1-1.8-1-4.1-.4-5.1 1.4s-.4 4.1 1.4 5.1c1.1.7 2.5.6 3.6.1 0 .1.1.3.2.4l4.4 7.6L5.6 34c-.1.1-.1.3-.2.4-1.1-.6-2.4-.6-3.6.1-1.8 1-2.4 3.3-1.4 5.1S3.7 42 5.5 41c1.1-.7 1.8-1.8 1.9-3.1h9.2l4.4 7.6c.1.1.2.2.2.3-1 .7-1.7 1.8-1.7 3.1 0 2.1 1.7 3.7 3.7 3.7s3.7-1.7 3.7-3.7c0-1.3-.7-2.5-1.7-3.1.1-.1.2-.2.2-.3l4.4-7.6H39c.1 1.2.7 2.4 1.9 3.1 1.8 1 4.1.4 5.1-1.4 1.2-1.8.6-4.1-1.2-5.1z" fill="url(#a)"/><linearGradient id="b" gradientUnits="userSpaceOnUse" x1="18.891" y1="32.439" x2="26.414" y2="22.66" gradientTransform="matrix(1 0 0 -1 0 54)"><stop offset="0" stop-color="#ffb648"/><stop offset=".961" stop-color="#ff8e1e"/></linearGradient><path d="M28.1 23.9c0-2.1-1.7-3.8-3.8-3.8h-4.8c-.5 0-.9.4-.9.9v10.8c0 .5.4.9.9.9h4.8c2.1 0 3.8-1.7 3.8-3.8 0-.9-.3-1.8-.9-2.4.5-.8.9-1.6.9-2.6z" fill="url(#b)"/><linearGradient id="c" gradientUnits="userSpaceOnUse" x1="56.6" y1="26.347" x2="131.3" y2="26.347" gradientTransform="matrix(1 0 0 -1 0 54)"><stop offset="0" stop-color="#596378"/><stop offset="1" stop-color="#465168"/></linearGradient><path d="M63.8 25.9c.6-.5 1-1.3 1-2.3 0-2-1.6-3.3-3.7-3.3h-4.5v11.6h4.9c2.1 0 3.7-1.3 3.7-3.4.1-1.2-.5-2-1.4-2.6zm-4.5-3.1h1.9c.6 0 1 .4 1 1s-.4 1-1 1h-1.9v-2zm2.2 6.6h-2.2v-2.2h2.2c.7 0 1.1.5 1.1 1.1 0 .7-.4 1.1-1.1 1.1zm9.1-6c-2.4 0-4.4 1.9-4.4 4.4s2 4.4 4.4 4.4 4.4-1.9 4.4-4.4-1.9-4.4-4.4-4.4zm0 6.3c-1.1 0-1.9-.8-1.9-2s.8-2 1.9-2 1.9.8 1.9 2c0 1.3-.8 2-1.9 2zm11.2-6.1h2.5v8.3h-2.5v-.8c-.4.6-1.3 1-2.4 1-1.7 0-3.1-1.2-3.1-3.4v-5.1h2.5v4.7c0 1 .6 1.5 1.4 1.5.9 0 1.5-.5 1.5-1.7l.1-4.5zM94 26.8v5.1h-2.5v-4.7c0-1-.6-1.5-1.4-1.5-.9 0-1.5.5-1.5 1.7v4.5H86v-8.3h2.5v.8c.4-.6 1.3-1 2.4-1 1.7 0 3.1 1.2 3.1 3.4zm4.8-3.2h1.7V26h-1.7v3c0 .7.6.8 1.7.7v2.2c-3.2.3-4.2-.6-4.2-3V26H95v-2.4h1.3V22l2.5-.7v2.3zm8.5 0h2.6l-2.8 8c-.9 2.6-2.4 3.7-4.7 3.6v-2.3c1.2 0 1.7-.4 2.1-1.4l-3.3-7.9h2.7l1.8 5.1 1.6-5.1zm9.1-3.5c-3.3 0-6 2.6-6 6s2.7 6 6 6 6-2.6 6-6-2.6-6-6-6zm0 2.6c.5 0 .9.1 1.3.2l-4.5 4.5c-.1-.4-.2-.8-.2-1.3.1-2 1.6-3.4 3.4-3.4zm0 6.9c-.5 0-.9-.1-1.3-.2l4.5-4.5c.1.4.2.8.2 1.3 0 2-1.5 3.4-3.4 3.4zm14.9 2.3h-2.8l-1.5-2.2-1.5 2.2h-2.8l3-4.2-2.9-4.1h2.8l1.4 2.1 1.4-2.1h2.8l-2.9 4.1 3 4.2z" fill="url(#c)"/></svg>