<!DOCTYPE svg PUBLIC "-//W3C//DTD SVG 20010904//EN" "http://www.w3.org/TR/2001/REC-SVG-20010904/DTD/svg10.dtd">
<svg version="1.0" xmlns="http://www.w3.org/2000/svg" width="1020px" height="584px" viewBox="0 0 10200 5840" preserveAspectRatio="xMidYMid meet">
<g id="layer101" fill="#ffffff" stroke="none">
 <path d="M6235 4808 c-3 -7 -4 -204 -3 -438 l3 -425 90 0 90 0 3 28 3 27 29 -20 c71 -50 201 -65 294 -34 65 22 157 109 187 176 19 43 24 70 24 143 0 78 -4 97 -28 146 -31 64 -93 126 -159 160 -31 16 -66 24 -124 27 -89 5 -132 -5 -188 -43 l-35 -24 -3 142 -3 142 -88 3 c-64 2 -89 -1 -92 -10z m416 -378 c83 -23 132 -119 108 -213 -35 -143 -247 -168 -322 -39 -24 41 -26 125 -4 167 40 78 124 111 218 85z"/>
 <path d="M3130 4686 c-259 -54 -464 -159 -629 -322 l-85 -83 -43 40 c-125 115 -288 186 -448 196 -276 17 -519 -67 -678 -236 -105 -112 -157 -242 -157 -396 0 -118 19 -166 99 -246 80 -79 137 -103 251 -103 308 -1 464 388 240 598 l-48 45 36 8 c20 4 69 8 107 7 288 -2 490 -370 690 -1260 79 -351 148 -560 258 -779 87 -174 167 -286 301 -421 176 -177 341 -279 580 -359 129 -44 155 -44 201 -4 29 26 35 38 35 70 0 52 -39 94 -137 148 -144 78 -258 186 -341 324 -81 134 -177 387 -245 645 -33 121 -34 134 -19 140 9 4 82 7 162 6 127 -1 156 -5 235 -28 204 -61 342 -181 472 -407 68 -120 128 -274 153 -399 18 -87 21 -127 17 -235 -6 -153 -21 -218 -82 -342 -53 -107 -144 -208 -241 -266 -138 -83 -367 -133 -559 -123 -220 11 -462 97 -631 223 l-51 38 63 58 c88 81 119 146 119 252 -1 65 -5 91 -27 137 -35 76 -107 151 -177 185 -76 38 -200 40 -275 5 -80 -37 -151 -104 -188 -179 -63 -128 -38 -264 82 -444 106 -159 266 -306 445 -408 619 -354 1515 -199 1917 332 72 96 149 251 180 363 30 110 33 407 4 529 -42 182 -118 357 -218 503 -107 156 -314 337 -470 410 -32 15 -58 29 -58 32 1 3 35 21 78 40 110 50 222 162 280 280 63 128 84 220 85 375 1 136 -8 201 -49 325 -109 338 -403 618 -742 707 -81 22 -124 26 -262 29 -112 2 -186 -1 -230 -10z m22 -321 c253 -53 486 -309 584 -640 21 -70 28 -119 32 -217 4 -118 2 -135 -22 -212 -16 -53 -40 -103 -63 -133 -73 -96 -113 -115 -320 -156 -128 -26 -192 -44 -248 -70 -52 -25 -77 -33 -80 -24 -2 7 -17 68 -34 137 -38 155 -120 420 -167 543 -19 51 -70 161 -111 246 l-76 154 12 46 c34 130 117 245 208 291 97 48 177 58 285 35z"/>
 <path d="M5565 4587 c-69 -23 -100 -44 -158 -107 -43 -46 -61 -75 -73 -117 -20 -70 -15 -161 14 -226 29 -65 104 -142 171 -174 51 -26 66 -28 171 -28 146 0 193 19 278 110 67 71 95 141 90 221 l-3 49 -272 5 -273 5 18 35 c26 53 82 80 167 80 58 0 79 -5 121 -28 l51 -28 71 32 c40 18 72 37 72 42 0 18 -92 94 -138 115 -59 26 -243 35 -307 14z m295 -418 c0 -21 -60 -66 -105 -79 -83 -23 -174 2 -215 60 l-21 30 170 0 c118 0 171 -3 171 -11z"/>
 <path d="M7329 4586 c-87 -31 -164 -102 -203 -185 -16 -36 -21 -65 -21 -136 0 -108 20 -159 89 -233 63 -67 123 -95 215 -100 82 -5 138 8 193 44 l37 23 3 -27 3 -27 90 0 90 0 0 320 0 320 -90 0 -90 0 -5 -30 c-4 -21 -8 -26 -14 -16 -5 7 -32 24 -60 37 -59 27 -175 32 -237 10z m247 -181 c46 -35 67 -79 67 -141 0 -89 -56 -154 -143 -168 -169 -27 -272 160 -159 289 37 42 77 56 147 50 38 -3 63 -11 88 -30z"/>
 <path d="M4595 4578 c-3 -7 -4 -202 -3 -433 l3 -420 165 1 c126 0 179 5 223 18 147 43 217 210 146 347 -21 41 -82 97 -116 105 -13 4 -23 9 -23 14 0 4 47 87 104 185 58 98 103 182 100 187 -3 4 -49 8 -104 8 l-98 0 -106 -182 -106 -182 -2 179 -3 180 -88 3 c-64 2 -89 -1 -92 -10z m335 -541 c19 -10 26 -21 28 -53 4 -58 -19 -75 -108 -82 l-70 -5 0 77 0 76 63 0 c34 0 73 -6 87 -13z"/>
 <path d="M8025 4578 c-3 -7 -4 -153 -3 -323 l3 -310 90 0 90 0 0 320 0 320 -88 3 c-64 2 -89 -1 -92 -10z"/>
 <path d="M8355 4578 c-3 -7 -4 -153 -3 -323 l3 -310 80 0 c75 0 80 1 83 22 l3 23 36 -27 c42 -33 136 -44 167 -20 19 14 19 15 -4 73 -30 76 -35 82 -65 76 -13 -2 -35 -2 -48 2 -44 11 -51 45 -57 276 l-5 215 -93 3 c-69 2 -94 -1 -97 -10z"/>
 <path d="M8070 3903 c-30 -11 -70 -57 -76 -89 -12 -67 43 -124 122 -124 39 0 51 5 80 34 56 56 44 135 -26 171 -29 15 -72 18 -100 8z"/>
 <path d="M5042 3560 c-163 -34 -302 -175 -343 -345 -18 -77 -14 -228 10 -317 88 -338 366 -633 661 -702 84 -20 222 -20 288 -1 71 22 152 97 194 183 32 65 33 70 33 192 0 132 -13 197 -59 311 l-24 59 42 0 c50 0 111 -27 148 -65 39 -39 148 -202 266 -397 116 -192 142 -242 167 -318 17 -53 251 -708 279 -780 l14 -35 183 -3 c100 -1 187 2 192 7 5 5 -61 214 -161 512 -259 766 -336 1014 -372 1190 -32 157 -24 212 37 228 19 5 40 8 46 6 7 -2 24 -6 40 -9 51 -12 146 -116 201 -223 l16 -32 -54 -54 c-69 -69 -92 -135 -81 -235 15 -145 75 -278 171 -382 86 -92 148 -121 230 -106 47 9 111 68 124 114 26 97 -2 268 -76 460 -20 51 -34 96 -31 99 15 14 91 3 122 -19 82 -58 134 -108 190 -182 115 -151 107 -136 94 -193 -26 -112 44 -286 164 -408 115 -116 203 -148 286 -103 63 34 85 79 71 144 -16 70 -72 170 -149 267 -38 46 -71 89 -75 95 -3 5 22 31 57 55 116 83 228 226 273 347 9 25 19 82 23 127 l6 82 170 -155 c170 -155 223 -194 268 -194 33 0 57 30 57 72 0 46 -39 96 -196 249 -339 329 -628 484 -870 466 -98 -7 -163 -37 -224 -104 -145 -159 -70 -353 138 -353 32 0 49 6 67 25 29 28 32 65 11 171 -16 85 -9 104 39 104 50 0 64 -8 87 -54 54 -105 27 -364 -59 -558 l-25 -57 -98 124 c-108 135 -134 159 -207 185 -26 10 -68 26 -93 36 -31 12 -73 18 -136 18 l-92 1 -53 90 c-76 127 -217 269 -319 319 -98 48 -186 63 -280 47 -135 -22 -217 -84 -260 -197 -27 -68 -39 -262 -22 -352 l9 -52 -47 44 c-87 81 -215 130 -326 124 l-64 -3 -38 62 c-76 126 -193 248 -298 309 -97 57 -245 85 -342 64z m222 -214 c65 -27 153 -123 230 -251 l35 -58 -25 -30 c-88 -105 -91 -238 -7 -359 34 -50 107 -98 150 -98 31 0 33 -2 33 -36 0 -39 -12 -67 -43 -101 -67 -74 -201 -6 -314 159 -188 273 -299 724 -190 776 31 15 92 14 131 -2z"/>
 <path d="M7477 2033 c-6 -10 269 -821 285 -840 8 -10 58 -13 214 -13 112 0 205 4 209 9 3 5 -118 198 -268 428 l-273 418 -81 3 c-45 1 -84 -1 -86 -5z"/>
 </g>

</svg>