<svg width="128" height="128" viewBox="0 0 128 128" fill="none" xmlns="http://www.w3.org/2000/svg">
<path d="M64.0008 120.36C95.118 120.36 120.344 95.1344 120.344 64.0172C120.344 32.8998 95.118 7.6742 64.0008 7.6742C32.8835 7.6742 7.65796 32.8998 7.65796 64.0172C7.65796 95.1344 32.8835 120.36 64.0008 120.36Z" fill="white"/>
<path d="M41.4972 65.4256C40.1464 64.1968 38.2261 63.4428 35.7368 63.1636C37.8477 62.852 39.4943 62.082 40.6764 60.8544C41.8588 59.6268 42.4496 57.9708 42.4496 55.8868C42.4496 53.1208 41.352 50.9912 39.1565 49.4984C37.5522 48.4056 35.4775 47.7136 32.9326 47.4224V43.534H28.1892V47.26H25.556V43.534H20.8037V47.26H17.0344V79.9064H20.8037V83.5948H25.556V79.9064H28.1892V83.5948H32.9402V79.8116C35.9293 79.5488 38.3307 78.7492 40.1444 77.4124C42.398 75.75 43.5252 73.4884 43.5252 70.6276C43.5252 68.3908 42.8492 66.6568 41.4972 65.4256ZM25.6155 53.7424H30.0929C31.275 53.7424 32.2001 54.038 32.868 54.6292C33.5359 55.2204 33.8703 56.0148 33.8711 57.0128C33.8711 58.0084 33.5367 58.8012 32.868 59.3916C32.1992 59.9816 31.2742 60.2772 30.0929 60.278H25.6155V53.7424ZM33.6609 72.488C32.9617 73.0792 31.9907 73.3748 30.7477 73.3748H25.6155V66.6616H30.7465C31.9902 66.6616 32.9613 66.9572 33.6596 67.5484C34.3579 68.1396 34.7079 68.9636 34.7096 70.0208C34.7104 71.0764 34.3609 71.8996 33.6609 72.4904V72.488Z" fill="#FF9415"/>
<path d="M65.1192 48.6536C63.2504 47.7248 61.0892 47.26 58.6356 47.26H44.9232V79.9064H53.5056V69.8332H58.6356C61.0924 69.8332 63.254 69.3668 65.1192 68.4336C66.9844 67.5008 68.43 66.1868 69.456 64.492C70.4816 62.7992 70.9948 60.8168 70.9948 58.5456C70.9948 56.274 70.4816 54.2896 69.456 52.5924C68.4196 50.8892 66.9136 49.5216 65.1192 48.6536ZM61.0836 61.6992C60.2908 62.4592 59.2104 62.8392 57.8424 62.8392H53.5056V54.2556H57.8424C59.2104 54.2556 60.2908 54.6356 61.0836 55.3956C61.8768 56.1556 62.2732 57.2044 62.2732 58.5428C62.2732 59.882 61.8768 60.9344 61.0836 61.6992Z" fill="#FF9415"/>
<path d="M88.2976 55.8412H87.1312C85.4532 55.8412 84.0852 56.1368 83.0272 56.728C81.9692 57.3188 81.0828 58.2056 80.3676 59.3876L79.7152 55.8412H72.3004V79.9064H80.3688V68.34C80.3688 64.7648 82.0012 62.9768 85.2664 62.976H88.2976V55.8412Z" fill="#FF9415"/>
<path d="M108.19 57.0764C106.215 56.0628 103.906 55.5564 101.262 55.5564C98.6188 55.5564 96.31 56.0628 94.3368 57.0764C92.4208 58.0316 90.8304 59.5332 89.7668 61.3916C88.692 63.256 88.1544 65.4168 88.1544 67.874C88.1544 70.3312 88.6912 72.492 89.7644 74.3564C90.828 76.2152 92.4192 77.7172 94.3368 78.6716C96.3108 79.6848 98.6196 80.1916 101.262 80.1916C103.905 80.1916 106.214 79.6848 108.19 78.6716C110.106 77.7168 111.696 76.2156 112.759 74.3576C113.835 72.4916 114.373 70.3304 114.373 67.874C114.373 65.4176 113.836 63.2568 112.763 61.3916C111.698 59.5328 110.107 58.0312 108.19 57.0764ZM104.854 72.1412C103.983 73.2132 102.786 73.75 101.262 73.7508C99.7392 73.7516 98.5424 73.2152 97.6716 72.1412C96.802 71.068 96.3668 69.6456 96.366 67.874C96.3648 66.1024 96.8004 64.68 97.6716 63.6068C98.5412 62.5336 99.7384 61.9968 101.262 61.9968C102.786 61.9968 103.984 62.5336 104.854 63.6068C105.724 64.6792 106.16 66.1016 106.16 67.874C106.161 69.6464 105.726 71.0688 104.854 72.1412Z" fill="#FF9415"/>
<path d="M64.0004 0.687805C29.0237 0.687805 0.671143 29.0404 0.671143 64.0172C0.671143 98.994 29.0237 127.346 64.0004 127.346C98.9772 127.346 127.33 98.9928 127.33 64.0172C127.33 29.0416 98.976 0.687805 64.0004 0.687805ZM103.237 103.254C93.5052 112.956 80.51 118.688 66.7828 119.332C53.056 119.977 39.5808 115.487 28.9831 106.739C18.3855 97.9904 11.4246 85.6096 9.4568 72.0092C7.48904 58.4088 10.6553 44.5628 18.3388 33.1695C26.0222 21.7761 37.6723 13.6514 51.0188 10.3786C64.3656 7.10576 78.4528 8.91932 90.5352 15.4658C102.618 22.0123 111.83 32.8228 116.378 45.7908C120.925 58.7588 120.481 72.9552 115.132 85.6136C112.346 92.208 108.306 98.1984 103.237 103.254Z" fill="#FF9415"/>
</svg>
