<svg xmlns="http://www.w3.org/2000/svg" xmlns:xlink="http://www.w3.org/1999/xlink" width="40" height="40"><defs><path id="a" d="M899 2195a20 20 0 0 1 40 0 20 20 0 0 1-40 0z"/><path id="c" d="M918.76 2188.17a6.59 6.59 0 1 0 0 13.18 6.59 6.59 0 0 0 0-13.18zm.04 16.52a9.88 9.88 0 1 1 0-19.77 9.88 9.88 0 0 1 0 19.77z"/><path id="d" d="M913.97 2205.66a11.85 11.85 0 0 1-2.43-1.48l-.36-.29-.5-.45-.38-.37-.38-.42-.4-.47c-.13-.15-.2-.27-.3-.4a15.8 15.8 0 0 1-.6-.93c-.12-.2-.24-.4-.35-.63l-.18-.38a13.17 13.17 0 0 1-.41-1.05 12.35 12.35 0 0 1-.5-1.74l-.08-.48a11.6 11.6 0 0 1-.08-.63c0-.17-.02-.32-.03-.5l-.02-.65v-.47c0-.23.03-.46.05-.7 0-.14.03-.28.05-.42l.13-.75.08-.37a11.89 11.89 0 0 1 .65-1.91l.14-.32c.11-.25.24-.49.37-.73l.21-.37c.13-.21.26-.41.4-.6l.28-.42a12.17 12.17 0 0 1 2.16-2.22l.32-.24c.2-.15.42-.29.63-.43l.32-.2c.21-.13.42-.24.63-.34l.4-.2a32.8 32.8 0 0 1 1.09-.44 26.32 26.32 0 0 1 1.13-.34 11.43 11.43 0 0 1 1.16-.23l.43-.07.73-.05h.4c.25 0 .5 0 .75.02l.4.03.74.08.42.08a11.53 11.53 0 0 1 2.28.68 11.8 11.8 0 0 1 5.85 16.73l-.24.43a11.86 11.86 0 0 1-14.96 4.64zm16.72-5.14l.07-.14a13.05 13.05 0 0 0-6.55-17.55v-.02c-.13-.06-.27-.1-.4-.15l-.52-.22-.72-.24-.53-.13-.77-.17-.46-.08-.82-.1-.44-.03c-.28-.02-.56-.02-.84-.02h-.44c-.27 0-.53.03-.8.06a11.58 11.58 0 0 0-1.77.3 18.75 18.75 0 0 0-1.28.39c-.2.07-.35.12-.53.2a13.96 13.96 0 0 0-1.83.9l-.37.23c-.24.15-.47.3-.7.47l-.33.28a11.33 11.33 0 0 0-1.53 1.42 14.26 14.26 0 0 0-1.16 1.46c-.1.16-.17.23-.24.35-.08.12-.12.21-.18.32l-.25.44c-.14.26-.28.52-.4.8l-.09.16-.08.2a12.44 12.44 0 0 0-.8 2.55l-.15.79-.06.49-.05.75v.54a8.68 8.68 0 0 0 .06 1.27 12.94 12.94 0 0 0 .33 1.95l.13.5.24.73c.06.15.1.3.17.46a8.93 8.93 0 0 0 .53 1.14 11.96 11.96 0 0 0 1.06 1.72 15.34 15.34 0 0 0 .76.96c.15.17.28.33.43.48l.43.41.55.5.4.32.65.48.17.13a13.05 13.05 0 0 0 18.32-3.9l.12-.22.28-.5c.14-.2.27-.44.39-.68z"/><clipPath id="b"><use fill="#fff" xlink:href="#a"/></clipPath></defs><g fill="#fff" transform="translate(-899 -2175)"><use xlink:href="#a"/><use fill-opacity="0" stroke="#dee2e6" stroke-miterlimit="50" clip-path="url(&quot;#b&quot;)" xlink:href="#a"/></g><use fill="#005ede" xlink:href="#c" transform="translate(-899 -2175)"/><use fill="#003a96" xlink:href="#d" transform="translate(-899 -2175)"/></svg>