<svg width="128" height="128" viewBox="0 0 128 128" fill="none" xmlns="http://www.w3.org/2000/svg">
<g clip-path="url(#clip0)">
<ellipse cx="64.3216" cy="64" rx="64.3216" ry="64" fill="white"/>
<path d="M118.167 62.4872L65.118 9.74983C64.8097 9.44872 64.3948 9.28 63.9626 9.28C63.5304 9.28 63.1155 9.44872 62.8072 9.74983L9.75812 62.4872C9.45289 62.7932 9.28113 63.2062 9.28003 63.6372C9.30476 63.7708 9.30476 63.9079 9.28003 64.0415C9.28113 64.4722 9.45289 64.8855 9.75812 65.1914L62.8072 117.926C63.1133 118.23 63.5276 118.4 63.9599 118.4C64.3921 118.4 64.8064 118.23 65.1125 117.926L118.167 65.1914C118.465 64.803 118.627 64.328 118.627 63.8393C118.627 63.3507 118.465 62.8756 118.167 62.4872V62.4872ZM114.491 63.853L63.9585 114.072L13.4345 63.8393L63.9585 13.6067L114.491 63.853V63.853Z" fill="url(#paint0_linear)"/>
<path d="M42.88 63.9934C42.8871 69.3252 44.9116 74.4584 48.5498 78.3675C52.1879 82.2768 57.1717 84.6744 62.5059 85.0817V87.7575C62.4497 88.1866 62.567 88.6204 62.8319 88.9633C63.0966 89.3062 63.4873 89.5303 63.9179 89.5863C64.3484 89.6423 64.7836 89.5254 65.1277 89.2613C65.4717 88.9975 65.6966 88.6081 65.7528 88.179C65.7719 88.0392 65.7719 87.8973 65.7528 87.7575V85.079C71.0776 84.6594 76.0489 82.2569 79.677 78.3498C83.3053 74.4424 85.3241 69.317 85.3323 63.9934V63.5882C85.3241 58.2646 83.3053 53.1392 79.677 49.2319C76.0489 45.3247 71.0776 42.9222 65.7528 42.5026V39.8214C65.7015 39.4284 65.5086 39.0673 65.2098 38.8057C64.911 38.5441 64.5269 38.4 64.1293 38.4C63.7318 38.4 63.3476 38.5441 63.0488 38.8057C62.7501 39.0673 62.5572 39.4284 62.5059 39.8214V42.4999C57.1717 42.9073 52.1879 45.3049 48.5498 49.2142C44.9116 53.1232 42.8871 58.2565 42.88 63.5882V63.9934V63.9934ZM65.7528 65.5108H81.979C81.5274 69.6205 79.6663 73.4488 76.7097 76.3486C73.7532 79.2488 69.8828 81.0424 65.7528 81.427V65.5108V65.5108ZM65.7528 61.8696V46.1547C69.8479 46.5362 73.6888 48.3035 76.6363 51.1626C79.5839 54.0214 81.4606 57.7999 81.9544 61.8696H65.7528ZM82.0062 65.2171V62.3618C82.0499 62.835 82.0745 63.3109 82.0799 63.7895C82.0854 64.2664 82.0608 64.7431 82.0062 65.2171ZM62.5059 46.1492V81.4324C58.0484 81.0876 53.8853 79.0796 50.8488 75.8091C47.812 72.5386 46.1252 68.2467 46.1252 63.7908C46.1252 59.3349 47.812 55.043 50.8488 51.7725C53.8853 48.502 58.0484 46.494 62.5059 46.1492Z" fill="url(#paint1_linear)"/>
</g>
<defs>
<linearGradient id="paint0_linear" x1="9.28003" y1="63.8421" x2="118.626" y2="63.8421" gradientUnits="userSpaceOnUse">
<stop stop-color="#C5E2BC"/>
<stop offset="0.35" stop-color="#B5DDC2"/>
<stop offset="1" stop-color="#8ED0D0"/>
</linearGradient>
<linearGradient id="paint1_linear" x1="5188.93" y1="10190.8" x2="11794.1" y2="10190.8" gradientUnits="userSpaceOnUse">
<stop stop-color="#C5E2BC"/>
<stop offset="0.35" stop-color="#B5DDC2"/>
<stop offset="1" stop-color="#8ED0D0"/>
</linearGradient>
<clipPath id="clip0">
<rect width="128" height="128" fill="white"/>
</clipPath>
</defs>
</svg>
