<svg width="113" height="19" viewBox="0 0 113 19" version="1.1" xmlns="http://www.w3.org/2000/svg" xmlns:xlink="http://www.w3.org/1999/xlink">
<title>blocksquare-logo</title>
<desc>Created using Figma</desc>
<g id="Canvas" transform="translate(230 55)">
<g id="blocksquare-logo">
<g id="Group">
<g id="Group">
<g id="Vector">
<use xlink:href="#path0_fill" transform="translate(-205.016 -51.6321)" fill="#4C4B45"/>
</g>
<g id="Vector">
<use xlink:href="#path1_fill" transform="translate(-195.138 -51.6321)" fill="#4C4B45"/>
</g>
<g id="Vector">
<use xlink:href="#path2_fill" transform="translate(-191.696 -47.8194)" fill="#4C4B45"/>
</g>
<g id="Vector">
<use xlink:href="#path3_fill" transform="translate(-182.008 -47.8194)" fill="#4C4B45"/>
</g>
<g id="Vector">
<use xlink:href="#path4_fill" transform="translate(-173.532 -51.6321)" fill="#4C4B45"/>
</g>
<g id="Vector">
<use xlink:href="#path5_fill" transform="translate(-165.374 -47.9465)" fill="#4C4B45"/>
</g>
<g id="Vector">
<use xlink:href="#path6_fill" transform="translate(-157.853 -47.8829)" fill="#4C4B45"/>
</g>
<g id="Vector">
<use xlink:href="#path7_fill" transform="translate(-147.72 -47.6923)" fill="#4C4B45"/>
</g>
<g id="Vector">
<use xlink:href="#path8_fill" transform="translate(-138.861 -47.8829)" fill="#4C4B45"/>
</g>
<g id="Vector">
<use xlink:href="#path9_fill" transform="translate(-129.938 -47.7559)" fill="#4C4B45"/>
</g>
<g id="Vector">
<use xlink:href="#path10_fill" transform="translate(-124.457 -47.8829)" fill="#4C4B45"/>
</g>
</g>
<g id="Group">
<g id="Vector">
<use xlink:href="#path11_fill" transform="translate(-230 -55)" fill="#00C0AE"/>
</g>
<g id="Vector">
<use xlink:href="#path12_fill" transform="translate(-224.71 -41.3378)" fill="#009083"/>
</g>
<g id="Vector">
<use xlink:href="#path13_fill" transform="translate(-227.387 -55)" fill="#4C4B45"/>
</g>
<g id="Vector">
<use xlink:href="#path14_fill" transform="translate(-227.387 -52.3946)" fill="#393834"/>
</g>
</g>
</g>
</g>
</g>
<defs>
<path id="path0_fill" d="M 4.8625e-07 12.5819L 4.8625e-07 0.190635L 1.40214 1.21203e-07L 1.40214 4.51171L 1.46588 4.51171C 2.16695 4.13043 2.99549 3.74916 4.20643 3.74916C 5.92724 3.74916 7.64805 4.76589 7.64805 8.13378L 7.64805 8.38796C 7.64805 11.3746 6.05471 13.0268 3.18669 13.0268C 2.23068 13.0268 0.82854 12.8361 4.8625e-07 12.5819ZM 6.30964 8.57859L 6.30964 8.19732C 6.30964 5.71906 5.41737 4.89298 3.63283 4.89298C 2.74055 4.89298 1.91201 5.27425 1.40214 5.46488L 1.40214 11.5017C 1.78455 11.6923 2.42188 11.8194 3.37789 11.8194C 4.97124 11.8829 6.30964 11.1204 6.30964 8.57859Z"/>
<path id="path1_fill" d="M 4.8625e-07 0.190635L 1.40214 1.21203e-07L 1.40214 12.8361L 4.8625e-07 12.8361L 4.8625e-07 0.190635Z"/>
<path id="path2_fill" d="M -9.725e-07 4.76589L -9.725e-07 4.51171C -9.725e-07 1.71572 1.65708 1.21203e-07 4.07896 1.21203e-07C 6.62831 1.21203e-07 8.15793 1.65217 8.15793 4.44816L 8.15793 4.70234C 8.15793 7.56187 6.50085 9.21405 4.07896 9.21405C 1.52961 9.21405 -9.725e-07 7.56187 -9.725e-07 4.76589ZM 6.69205 4.82943L 6.69205 4.38462C 6.69205 1.90635 5.48111 1.08027 4.01523 1.08027C 2.42188 1.08027 1.40214 2.22408 1.40214 4.32107L 1.40214 4.76589C 1.40214 7.24415 2.54935 8.07023 4.07896 8.07023C 5.73604 8.07023 6.69205 6.92642 6.69205 4.82943Z"/>
<path id="path3_fill" d="M 1.945e-06 4.76589L 1.945e-06 4.51171C 1.945e-06 1.33445 1.84828 1.21203e-07 4.20643 1.21203e-07C 5.35364 1.21203e-07 6.05471 0.190635 6.69205 0.571906L 6.69205 1.71572C 5.92724 1.33445 5.35364 1.14381 4.1427 1.14381C 2.54935 1.14381 1.46588 2.22408 1.46588 4.25752L 1.46588 4.70234C 1.46588 6.98997 2.42188 8.00669 4.3339 8.00669C 5.54484 8.00669 6.30965 7.62542 6.75578 7.37124L 6.75578 8.51505C 6.18218 8.83278 5.41737 9.21405 4.1427 9.21405C 1.59335 9.21405 1.945e-06 7.68896 1.945e-06 4.76589Z"/>
<path id="path4_fill" d="M -9.725e-07 0.190635L 1.33841 1.21203e-07L 1.33841 12.8361L -9.725e-07 12.8361L -9.725e-07 0.190635ZM 1.52961 8.26087L 5.16243 3.9398L 6.62831 3.9398L 3.12296 8.13378L 6.94698 12.8361L 5.35364 12.8361L 1.52961 8.26087Z"/>
<path id="path5_fill" d="M 9.725e-07 8.64214L 9.725e-07 7.56187C 0.764806 7.8796 1.40214 8.13378 2.67682 8.13378C 4.07896 8.13378 4.65256 7.62542 4.65256 6.79933C 4.65256 5.97324 4.27017 5.59197 3.12296 5.27425L 2.23068 5.02007C 0.956008 4.6388 0.0637338 4.06689 0.0637338 2.54181C 0.0637338 1.01672 1.08348 2.42406e-07 3.12296 2.42406e-07C 4.3339 2.42406e-07 5.0987 0.25418 5.54484 0.508361L 5.54484 1.65217C 5.0987 1.39799 4.20643 1.20736 3.18669 1.20736C 1.97575 1.20736 1.40214 1.58863 1.40214 2.41472C 1.40214 3.17726 1.78454 3.49498 2.74055 3.74916L 3.63282 4.00334C 5.35364 4.44816 6.05471 5.02007 6.05471 6.54515C 6.05471 8.26087 4.84377 9.1505 2.93175 9.1505C 1.72081 9.27759 0.701073 9.08696 9.725e-07 8.64214Z"/>
<path id="path6_fill" d="M 6.30964 8.51505L 6.24591 8.51505C 5.79977 8.83278 4.97124 9.27759 3.69656 9.27759C 1.91201 9.27759 -1.945e-06 8.19732 -1.945e-06 4.89298L -1.945e-06 4.6388C -1.945e-06 1.14381 1.97575 -1.21203e-07 4.39763 -1.21203e-07C 5.86351 -1.21203e-07 7.01072 0.317726 7.71179 0.635451L 7.71179 11.6923L 6.30964 11.8829L 6.30964 8.51505L 6.30964 8.51505ZM 6.30964 7.37124L 6.30964 1.46154C 5.79977 1.2709 5.0987 1.14381 4.27016 1.14381C 2.54935 1.14381 1.40214 2.09699 1.40214 4.51171L 1.40214 4.89298C 1.40214 7.37124 2.48562 8.13378 4.07896 8.13378C 5.0987 8.07023 5.86351 7.75251 6.30964 7.37124Z"/>
<path id="path7_fill" d="M 3.89e-06 6.48161L 3.89e-06 0L 1.40215 0L 1.40215 6.29097C 1.40215 7.43478 1.78455 7.8796 3.12296 7.8796C 4.07896 7.8796 4.84376 7.56187 5.60857 7.1806L 5.60857 0L 6.94698 0L 6.94698 8.89632L 5.73604 8.89632L 5.60857 8.07023L 5.54484 8.07023C 4.7163 8.64214 3.7603 9.02341 2.67682 9.02341C 1.01974 9.08696 3.89e-06 8.19732 3.89e-06 6.48161Z"/>
<path id="path8_fill" d="M 0 6.73579C 0 5.14716 1.01974 4.32107 2.74055 4.13044L 5.16244 3.81271L 5.16244 2.85953C 5.16244 1.46154 4.5251 1.14381 2.93176 1.14381C 2.03949 1.14381 1.33841 1.2709 0.828541 1.46154L 0.828541 0.508361C 1.59335 0.190635 2.48562 -1.21203e-07 3.50536 -1.21203e-07C 5.48111 -1.21203e-07 6.56458 0.826087 6.56458 2.60535L 6.56458 9.02341L 5.41737 9.02341L 5.28991 8.26087L 5.22617 8.26087C 4.84377 8.76923 4.07896 9.21405 2.86802 9.21405C 1.14721 9.27759 0 8.4515 0 6.73579ZM 5.0987 7.49833L 5.0987 4.89298L 3.05922 5.14716C 1.97575 5.27425 1.40214 5.71906 1.40214 6.73579C 1.40214 7.68896 2.03948 8.19732 3.12295 8.19732C 3.95149 8.19732 4.7163 7.8796 5.0987 7.49833Z"/>
<path id="path9_fill" d="M 0.0637377 0.0635451L 1.40214 0.0635451L 1.40214 1.08027L 1.46588 1.08027C 1.97575 0.508361 2.93175 -2.42406e-07 3.95149 -2.42406e-07C 4.14269 -2.42406e-07 4.39763 0 4.46136 0.0635451L 4.46136 1.33445C 4.20643 1.2709 3.95149 1.2709 3.82403 1.2709C 2.93175 1.2709 2.03948 1.58863 1.40214 2.03344L 1.40214 9.02341L 0 9.02341L 0 0.0635451L 0.0637377 0.0635451Z"/>
<path id="path10_fill" d="M 3.89e-06 4.76589L 3.89e-06 4.51171C 3.89e-06 1.39799 1.84828 -1.21203e-07 3.88776 -1.21203e-07C 6.30964 -1.21203e-07 7.45685 1.39799 7.45685 4.19398L 7.45685 4.95652L 1.40215 4.95652C 1.46588 7.1806 2.54936 8.07023 4.46137 8.07023C 5.67231 8.07023 6.43711 7.75251 7.26565 7.43478L 7.26565 8.4515C 6.75578 8.83278 5.67231 9.27759 4.27017 9.27759C 1.46588 9.27759 3.89e-06 7.56187 3.89e-06 4.76589ZM 1.40215 3.87625L 6.05471 3.87625C 6.05471 1.9699 5.2899 1.14381 3.88776 1.14381C 2.74055 1.14381 1.52961 1.77926 1.40215 3.87625Z"/>
<path id="path11_fill" d="M 0 0L 0 16.3311L 2.61309 18.9365L 2.61309 2.60535L 13.7028 2.60535L 13.7028 13.6622L 16.3796 16.3311L 16.3796 0L 0 0Z"/>
<path id="path12_fill" d="M 8.41286 0L 1.21563e-07 0L 1.21563e-07 2.6689L 11.0897 2.6689L 8.41286 0Z"/>
<path id="path13_fill" d="M 16.3796 18.9365L 16.3796 2.60535L 13.7665 0L 13.7665 16.3311L 2.67682 16.3311L 2.67682 5.27425L -6.07813e-08 2.60535L -6.07813e-08 18.9365L 16.3796 18.9365Z"/>
<path id="path14_fill" d="M 2.67682 2.6689L 11.0897 2.6689L 11.0897 -6.06014e-08L -6.07813e-08 -6.06014e-08L 2.67682 2.6689Z"/>
</defs>
</svg>
