<svg id="Layer_1" data-name="Layer 1" xmlns="http://www.w3.org/2000/svg" xmlns:xlink="http://www.w3.org/1999/xlink" viewBox="0 0 853.869 853.869">
  <defs>
    <style>
      .cls-1 {
        fill: url(#linear-gradient);
      }

      .cls-2 {
        fill: #261c11;
      }
    </style>
    <linearGradient id="linear-gradient" x1="426.934" y1="853.869" x2="426.934" gradientUnits="userSpaceOnUse">
      <stop offset="0" stop-color="#f98310"/>
      <stop offset="1" stop-color="#ffca00"/>
    </linearGradient>
  </defs>
  <title>e82e7483-53cc-4371-98ae-6674fad446d2</title>
  <circle class="cls-1" cx="426.934" cy="426.934" r="426.934"/>
  <path class="cls-2" d="M593.175,474.956Q578.822,450.8,545.4,438.344q46.579-17,47.862-71.21.606-19.633-6.61-35a67.985,67.985,0,0,0-21.471-25.921,135.417,135.417,0,0,0-31.617-17.322,266.073,266.073,0,0,0-40.4-11.663l9.093-74.158-45.3-5.555-8.84,72.095q-11.77-1.443-35.976-3.825l8.911-72.672-45.3-5.555-9.093,74.158q-9.747-.9-28.592-3.2l-62.338-7.946-5.916,48.248,32.659,4q22.354,2.741,23.735,23.229L315.833,410.5a28.281,28.281,0,0,1,4.672.875L315.8,410.8l-14.5,118.28Q297.1,543.792,282.383,542l-32.659-4L234,590.712l58.849,7.216c3.738.458,9.113,1.173,16.172,2.13q10.565,1.453,15.872,2.106l-9.2,75.038,45.323,5.557L370.11,608.6q12.316,1.806,35.851,4.7l-9.057,73.86,45.323,5.557,9.2-75.038a360.256,360.256,0,0,0,43.358.839,176.174,176.174,0,0,0,36.993-5.775q17.915-4.835,30.65-13.729a81.853,81.853,0,0,0,22.2-23.861q9.433-14.983,14.05-35.616,8.872-40.4-5.508-64.583Zm-186.661-156.1c1.377.169,5.26.608,11.638,1.285,6.4.674,11.7,1.237,15.947,1.648q6.334.646,16.961,2.831a164.164,164.164,0,0,1,17.825,4.569,102.27,102.27,0,0,1,15.575,6.85A44.065,44.065,0,0,1,497.576,346a41.231,41.231,0,0,1,7.459,13.462,38.9,38.9,0,0,1,1.573,17.666,41.306,41.306,0,0,1-4.481,14.683,28.489,28.489,0,0,1-9.343,10.347,80.822,80.822,0,0,1-11.856,6.621,50.638,50.638,0,0,1-14.939,3.7c-5.968.648-11.145,1.122-15.561,1.368a124.568,124.568,0,0,1-16.37-.362c-6.522-.516-11.451-.9-14.8-1.223s-7.9-.863-13.684-1.678q-8.658-1.2-10.123-1.383l11.078-90.347Zm99.175,215.566a42.02,42.02,0,0,1-8.654,10.895,41.044,41.044,0,0,1-12.706,7.392,99.752,99.752,0,0,1-14.741,4.475,112.871,112.871,0,0,1-16.82,2.108q-9.793.6-17.093.447t-17.359-.928c-6.7-.537-11.923-1.018-15.643-1.474q-5.607-.688-14.107-1.89c-5.687-.784-9.31-1.284-10.881-1.476l12.2-99.463c1.571.193,6.237.673,14.023,1.412q11.65,1.133,19.01,2.047c4.9.6,11.641,1.711,20.208,3.372a172.983,172.983,0,0,1,21.436,5.314,144.938,144.938,0,0,1,18.609,7.813A56.066,56.066,0,0,1,499,485.514a44.453,44.453,0,0,1,9.221,14.865,39.582,39.582,0,0,1,2.115,19.373,39.138,39.138,0,0,1-4.644,14.667Zm0,0"/>
</svg>
