<?xml version="1.0" encoding="UTF-8"?>
<!DOCTYPE svg PUBLIC "-//W3C//DTD SVG 1.1//EN" "http://www.w3.org/Graphics/SVG/1.1/DTD/svg11.dtd">
<!-- Creator: CorelDRAW X7 -->
<svg xmlns="http://www.w3.org/2000/svg" xml:space="preserve" width="162.468mm" height="66.5664mm" version="1.1" style="shape-rendering:geometricPrecision; text-rendering:geometricPrecision; image-rendering:optimizeQuality; fill-rule:evenodd; clip-rule:evenodd"
viewBox="0 0 16247 6657"
 xmlns:xlink="http://www.w3.org/1999/xlink">
 <defs>
  <style type="text/css">
   <![CDATA[
    .fil0 {fill:#003399}
   ]]>
  </style>
 </defs>
 <g id="Layer_x0020_1">
  <metadata id="CorelCorpID_0Corel-Layer"/>
  <path class="fil0" d="M3328 551c1534,0 2777,1244 2777,2777 0,1534 -1243,2777 -2777,2777 -1533,0 -2777,-1243 -2777,-2777 0,-1533 1244,-2777 2777,-2777zm0 -551c1838,0 3329,1490 3329,3328 0,1838 -1491,3329 -3329,3329 -1838,0 -3328,-1491 -3328,-3329 0,-1838 1490,-3328 3328,-3328zm0 285c1681,0 3044,1362 3044,3043 0,1681 -1363,3044 -3044,3044 -1681,0 -3043,-1363 -3043,-3044 0,-1681 1362,-3043 3043,-3043zm5531 3245c-480,0 -961,0 -1443,0l0 -423 1323 0c213,-23 379,-199 379,-418 0,-236 -191,-426 -426,-426l-1216 0c-117,0 -212,-95 -212,-212 0,-116 95,-211 212,-211l1216 0c701,0 1095,816 666,1366 268,142 450,423 450,747 0,465 -378,843 -843,843l-1489 0c-117,0 -212,-95 -212,-211 0,-117 95,-212 212,-212l1489 0c444,0 584,-584 205,-793 -92,-51 -193,-50 -311,-50zm6798 -689c125,-79 261,-122 378,-116 116,5 212,95 212,211 0,117 -95,212 -212,212 -190,0 -372,131 -372,387l0 1046c0,118 -97,215 -216,215 -118,0 -215,-97 -215,-215l0 -1690c0,-253 365,-296 425,-50zm-1052 -165c-585,0 -1060,475 -1060,1060 0,586 475,1060 1060,1060l137 0c116,0 211,-95 211,-211 0,-117 -95,-212 -211,-212l-137 0c-276,0 -511,-175 -599,-420l699 0c116,0 211,-96 211,-212 0,-116 -95,-211 -211,-211l-703 0c86,-251 324,-431 603,-431l137 0c116,0 211,-95 211,-211 0,-117 -95,-212 -211,-212l-137 0zm-1233 726l0 1179c0,118 -97,215 -215,215 -118,0 -215,-97 -215,-215l0 -1179c0,-163 -132,-295 -295,-295 -162,0 -294,132 -294,295l0 1179c0,118 -97,215 -216,215 -118,0 -215,-97 -215,-215l0 -2526c0,-118 97,-215 215,-215 119,0 216,97 216,215l0 701c480,-227 1019,107 1019,646zm-1919 -726l-136 0 0 -198c0,-118 -96,-215 -215,-215 -118,0 -215,97 -215,215l0 198 -35 0c-120,0 -218,98 -218,217 0,118 96,214 213,214l40 0 0 1172 0 0c2,286 235,517 521,517l137 0c116,0 211,-95 211,-212 0,-117 -95,-213 -211,-213l-132 0c-51,0 -93,-41 -96,-92l0 -1172 133 0c119,0 217,-98 217,-217 0,-118 -96,-214 -214,-214zm-1225 -413c290,0 290,423 0,423 -116,0 -211,-95 -211,-212 0,-116 95,-211 211,-211zm4 2533c118,0 215,-97 215,-215l0 -1645c0,-119 -97,-215 -215,-215 -118,0 -215,96 -215,215l0 1645c0,118 97,215 215,215zm-6491 -1239c-518,0 -1036,0 -1557,0l0 -457 1427 0c230,-24 409,-214 409,-451 0,-253 -205,-459 -459,-459l-1312 0c-126,0 -228,-102 -228,-228l0 0c0,-125 102,-228 228,-228l1312 0c502,0 910,413 910,915 0,211 -72,405 -192,559 289,152 486,456 486,805 0,502 -408,910 -910,910l-1606 0c-126,0 -228,-103 -228,-228l0 0c0,-126 102,-229 228,-229l1606 0c253,0 459,-200 459,-453 0,-173 -96,-324 -238,-402 -99,-55 -208,-54 -335,-54z"/>
 </g>
</svg>
