<svg xmlns="http://www.w3.org/2000/svg" width="1820" height="343" viewBox="0 0 1820 343">
    <g fill="none" fill-rule="evenodd">
        <path fill="#068BF7" fill-rule="nonzero" d="M233.914 21.67c4.96 2.431 7.01 8.422 4.579 13.381-2.43 4.96-8.421 7.01-13.38 4.579C198.881 26.775 170.008 20 140.156 20c-2.392 0-4.894.056-7.687.166-27.244 1.065-53.524 7.782-77.532 19.595-4.956 2.438-10.95.398-13.388-4.558-2.438-4.955-.397-10.95 4.558-13.387C72.615 8.774 101.634 1.356 131.688.18c3.037-.119 5.795-.18 8.469-.18 32.922 0 64.803 7.48 93.757 21.67z"/>
        <path fill="#068BF7" fill-rule="nonzero" d="M17.996 121.782c-3.316 4.416-9.585 5.308-14.001 1.992-4.416-3.317-5.308-9.585-1.992-14.002C15.97 91.174 33.615 75.534 53.823 63.84c21.117-12.22 44.56-19.861 69.069-22.296a174.52 174.52 0 0 1 17.265-.862c24.023 0 47.39 4.944 69.017 14.387 62.447 27.27 103.672 89.02 103.672 158.341 0 5.523-4.477 10-10 10s-10-4.477-10-10c0-61.297-36.451-115.896-91.676-140.012-19.118-8.348-39.763-12.716-61.013-12.716-5.088 0-10.184.257-15.288.764-21.652 2.151-42.358 8.9-61.03 19.705-17.882 10.347-33.493 24.186-45.843 40.631zM130.157 213.41c0-5.523 4.477-10 10-10 5.522 0 10 4.477 10 10 0 15.23-3.061 30.053-8.919 43.79-6.158 14.44-15.323 27.42-26.839 38.106a111.512 111.512 0 0 1-44.66 25.341c-5.302 1.545-10.853-1.501-12.397-6.804-1.545-5.302 1.501-10.853 6.804-12.398a91.513 91.513 0 0 0 36.65-20.8c9.466-8.784 16.994-19.445 22.045-31.29 4.806-11.27 7.316-23.426 7.316-35.945z"/>
        <path fill="#068BF7" fill-rule="nonzero" d="M247.831 317.366c-2.46 4.945-8.463 6.96-13.408 4.5-4.944-2.46-6.958-8.464-4.498-13.408 14.565-29.277 22.249-61.603 22.249-95.048 0-47.868-30.302-89.968-74.713-105.658a111.752 111.752 0 0 0-37.304-6.388c-7.608 0-15.121.76-22.467 2.255-16.281 3.314-31.523 10.219-44.74 20.15a112.654 112.654 0 0 0-29.872 33.767c-9.738 16.89-14.94 36-14.94 55.874 0 5.712 4.63 10.341 10.338 10.341 5.708 0 10.336-4.63 10.336-10.34 0-20.039 6.48-39.122 18.266-54.818a91.617 91.617 0 0 1 36.51-28.908 90.99 90.99 0 0 1 36.569-7.639c6.18 0 12.289.618 18.264 1.832 42.255 8.583 73.08 45.886 73.08 89.532 0 44.795-15.323 87.27-42.937 121.38-3.475 4.292-9.772 4.954-14.064 1.48-4.293-3.476-4.956-9.772-1.48-14.065 24.756-30.581 38.482-68.624 38.482-108.795 0-34.089-24.084-63.234-57.063-69.932a71.623 71.623 0 0 0-14.282-1.432 70.994 70.994 0 0 0-28.552 5.962 71.618 71.618 0 0 0-28.534 22.595c-9.207 12.261-14.26 27.139-14.26 42.807 0 16.756-13.58 30.341-30.335 30.341-16.755 0-30.337-13.584-30.337-30.34 0-23.411 6.137-45.962 17.613-65.866a132.656 132.656 0 0 1 35.183-39.766c15.577-11.703 33.556-19.848 52.767-23.758a132.583 132.583 0 0 1 26.455-2.657 131.75 131.75 0 0 1 43.966 7.53c52.343 18.492 88.05 68.103 88.05 124.516 0 36.554-8.407 71.928-24.342 103.956z"/>
        <path fill="#068BF7" fill-rule="nonzero" d="M121.13 341.395c-4.636 3-10.827 1.675-13.828-2.96-3.002-4.637-1.676-10.828 2.96-13.83 15.01-9.717 27.915-22.337 37.887-37.068 14.704-21.719 22.68-47.316 22.68-74.127 0-16.946-13.733-30.682-30.673-30.682a30.93 30.93 0 0 0-6.13.615c-14.178 2.873-24.542 15.407-24.542 30.067 0 22.621-10.659 43.488-28.397 56.814-4.416 3.317-10.685 2.427-14.002-1.989-3.317-4.415-2.427-10.684 1.989-14.001 12.762-9.588 20.41-24.56 20.41-40.824 0-24.22 17.111-44.915 40.576-49.67a50.942 50.942 0 0 1 10.096-1.012c27.987 0 50.673 22.692 50.673 50.682 0 30.84-9.191 60.336-26.118 85.339-11.48 16.958-26.322 31.473-43.58 42.646z"/>
        <path fill="#FFF" d="M679.796 254.608h27.977V94.043h-27.977zM1144.735 94.085h-179.82v27.976h75.922v132.504h27.976V122.061h75.922zM1791.082 94.128v120.838L1670.31 94.128h-27.976v160.396h27.976V133.696l120.761 120.828.011-.011v.01h27.975V94.129zM599.355 160.316h-.001l-105.876.01v-38.265h105.877c10.564 0 19.127 8.564 19.127 19.128s-8.563 19.127-19.127 19.127m0 66.273l-.03-.002-105.847.002v-38.25h105.877v-.004c10.564 0 19.127 8.563 19.127 19.127 0 10.564-8.563 19.127-19.127 19.127m47.146-85.4c0-26.038-21.108-47.146-47.146-47.146-.063 0-.125.004-.19.004H465.465V254.608h28.014v-.005h105.69c.063 0 .125.005.187.005 26.038 0 47.146-21.108 47.146-47.146 0-12.919-5.201-24.62-13.617-33.137 8.416-8.516 13.617-20.217 13.617-33.136M1311.82 181.446l-50.04-.015a.091.091 0 0 1 .008.013h-55.74V122.086h105.772v.012c16.169.263 29.199 13.44 29.199 29.666 0 16.228-13.03 29.405-29.2 29.666v.016zm57.26-29.682c0-31.893-25.855-57.75-57.75-57.75-.744 0-1.483.03-2.22.057H1178.03v160.565h28.017v-45.175h78.232l45.174 45.173h39.62l-46.263-46.264c26.394-5.324 46.269-28.642 46.269-56.606zM1528.841 226.565h-46.267c-28.85 0-52.24-23.389-52.24-52.24 0-28.85 23.39-52.239 52.24-52.239h46.267c28.851 0 52.24 23.388 52.24 52.24 0 28.85-23.389 52.24-52.24 52.24m0-132.438h-46.267c-44.292 0-80.198 35.905-80.198 80.197 0 44.293 35.906 80.198 80.198 80.198h46.267c44.292 0 80.198-35.905 80.198-80.198 0-44.292-35.906-80.197-80.198-80.197M867.534 226.565h-46.267c-28.85 0-52.24-23.389-52.24-52.24 0-28.85 23.39-52.239 52.24-52.239h46.267c28.851 0 52.24 23.388 52.24 52.24 0 28.85-23.389 52.24-52.24 52.24m0-132.438h-46.267c-44.292 0-80.198 35.905-80.198 80.197 0 44.293 35.906 80.198 80.198 80.198h46.267c44.292 0 80.198-35.905 80.198-80.198 0-44.292-35.906-80.197-80.198-80.197"/>
    </g>
</svg>
