<?xml version="1.0" encoding="utf-8"?>
<!-- Generator: Adobe Illustrator 19.0.0, SVG Export Plug-In . SVG Version: 6.00 Build 0)  -->
<svg version="1.1" id="Ebene_1" xmlns="http://www.w3.org/2000/svg" xmlns:xlink="http://www.w3.org/1999/xlink" x="0px" y="0px"
	 viewBox="-345 223.3 150 150" style="enable-background:new -345 223.3 150 150;" xml:space="preserve">
<style type="text/css">
	.st0{fill:#00B700;}
	.st1{fill:#FFFFFF;}
</style>
<g id="XMLID_3587_">
	<g id="XMLID_6800_">
		<circle id="XMLID_6801_" class="st0" cx="-270" cy="298.3" r="73.5"/>
	</g>
	<g id="XMLID_3591_">
		<g id="XMLID_3602_">
			<path id="XMLID_3612_" class="st1" d="M-306,311.8c-7.7,0-9-1.4-9.5-2c-2.2-2.4-2.4-10.3-1.5-14.5c0.6-2.9,1.8-4.8,3.6-5.6
				c2-0.9,3.6-1.5,4.9-1.9c1.4-0.5,2.4-0.8,3.1-1.3l0.5-0.4c4.9-3.4,10.3-7,13.7-7.4c0.2,0,23.7-2.1,28.9,0.4
				c1.5,0.7,3.5,1.9,5.7,3.3c3.5,2.1,7.9,4.8,10.6,5.5c0.7,0.2,1.9,0.3,3.3,0.5c6.6,0.8,20.2,2.5,19.9,16.5c0,0.1,0,0.1,0,0.2
				c-0.6,5.7-7.1,6.2-13.1,6.2c-1.4,0-2.5-1.1-2.5-2.5s1.1-2.5,2.5-2.5c5.3,0,8-0.6,8.2-1.7c0.2-8.7-7.3-10.4-15.6-11.4
				c-1.6-0.2-3-0.4-4-0.6c-3.5-0.9-7.9-3.7-11.9-6.1c-2-1.2-4-2.4-5.3-3c-2.7-1.3-19.8-0.6-26.3,0c-1.2,0.1-4.2,1.4-11.4,6.5
				l-0.5,0.4c-1.3,0.9-2.7,1.4-4.3,2c-1.3,0.4-2.7,0.9-4.5,1.8c-1.5,1.1-1.6,9.6-0.5,12.1c1.2,0.3,4.4,0.5,7.3,0.5
				c1.3-0.1,2.5,1,2.5,2.4s-1,2.5-2.4,2.5C-304.9,311.8-305.5,311.8-306,311.8z"/>
			<path id="XMLID_3609_" class="st1" d="M-242.9,318.6c-5.2,0-9.4-4.2-9.4-9.4s4.2-9.4,9.4-9.4c5.2,0,9.4,4.2,9.4,9.4
				S-237.7,318.6-242.9,318.6z M-242.9,304.6c-2.5,0-4.5,2-4.5,4.5s2,4.5,4.5,4.5s4.5-2,4.5-4.5S-240.4,304.6-242.9,304.6z"/>
			<path id="XMLID_3606_" class="st1" d="M-295.6,318.6c-5.2,0-9.4-4.2-9.4-9.4s4.2-9.4,9.4-9.4s9.4,4.2,9.4,9.4
				S-290.4,318.6-295.6,318.6z M-295.6,304.6c-2.5,0-4.5,2-4.5,4.5s2,4.5,4.5,4.5s4.5-2,4.5-4.5S-293.1,304.6-295.6,304.6z"/>
			<path id="XMLID_3605_" class="st1" d="M-251.9,302.2C-251.9,302.2-252,302.2-251.9,302.2c-4.7,0-28-0.4-33.8-4.1
				c-6.3-3.9-7.7-10.3-7.7-10.6c-0.3-1.3,0.6-2.6,1.9-2.9s2.6,0.6,2.9,1.9c0,0.1,1.1,4.7,5.5,7.5c3.5,2.2,21,3.2,31.2,3.3
				c1.4,0,2.4,1.1,2.4,2.5C-249.5,301.1-250.6,302.2-251.9,302.2z"/>
			<path id="XMLID_3604_" class="st1" d="M-249.9,311.4h-38.8c-1.4,0-2.5-1.1-2.5-2.5s1.1-2.5,2.5-2.5h38.8c1.4,0,2.5,1.1,2.5,2.5
				S-248.6,311.4-249.9,311.4z"/>
			<path id="XMLID_3603_" class="st1" d="M-233.5,311.5c-0.5,0-0.9,0-1.4-0.1c-1.3-0.1-2.3-1.3-2.2-2.7c0.1-1.3,1.3-2.3,2.7-2.2
				c2.2,0.2,5-0.5,6.3-1.7c0.3-0.2,0.6-0.6,0.6-0.9v-0.1c0.4-7.7-7.1-9.3-15.4-10.3c-1.7-0.2-3.1-0.4-4.2-0.7
				c-1.3-0.4-2.1-1.7-1.7-3c0.4-1.3,1.7-2.1,3-1.7c0.8,0.2,2.1,0.4,3.5,0.5c6.6,0.8,20.2,2.5,19.7,15.4c0,1.7-0.8,3.2-2.2,4.5
				C-226.8,310.4-230.2,311.5-233.5,311.5z"/>
		</g>
		<g id="XMLID_3599_">
			<path id="XMLID_3601_" class="st1" d="M-317.4,333.9c-0.8,0-1.5-0.4-2-1c-14.5-20.7-14.5-48.5,0-69.2c0.8-1.1,2.3-1.3,3.3-0.6
				c1.1,0.8,1.3,2.3,0.6,3.3c-13.4,19-13.4,44.6,0,63.7c0.8,1.1,0.5,2.6-0.6,3.3C-316.5,333.8-317,333.9-317.4,333.9z"/>
			<path id="XMLID_3600_" class="st1" d="M-270,358.6c-12.1,0-24.2-3.6-34.6-10.9c-1.1-0.8-1.3-2.3-0.6-3.3c0.8-1.1,2.3-1.3,3.3-0.6
				c19,13.4,44.6,13.4,63.7,0c1.1-0.8,2.6-0.5,3.3,0.6c0.8,1.1,0.5,2.6-0.6,3.3C-245.7,355-257.9,358.6-270,358.6z"/>
		</g>
		<g id="XMLID_3596_">
			<path id="XMLID_3598_" class="st1" d="M-236.8,253.2c-0.5,0-1-0.1-1.4-0.4c-19-13.4-44.6-13.4-63.7,0c-1.1,0.8-2.6,0.5-3.3-0.6
				c-0.8-1.1-0.5-2.6,0.6-3.3c20.7-14.5,48.5-14.5,69.2,0c1.1,0.8,1.3,2.3,0.6,3.3C-235.3,252.9-236,253.2-236.8,253.2z"/>
			<path id="XMLID_3597_" class="st1" d="M-222.6,333.9c-0.5,0-1-0.1-1.4-0.4c-1.1-0.8-1.3-2.3-0.6-3.3c13.4-19,13.4-44.6,0-63.7
				c-0.8-1.1-0.5-2.6,0.6-3.3c1.1-0.8,2.6-0.5,3.3,0.6c14.5,20.7,14.5,48.5,0,69.2C-221.1,333.6-221.8,333.9-222.6,333.9z"/>
		</g>
		<circle id="XMLID_3595_" class="st1" cx="-224.6" cy="334.4" r="5.3"/>
		<circle id="XMLID_3594_" class="st1" cx="-315.4" cy="262.2" r="5.3"/>
		<circle id="XMLID_3593_" class="st1" cx="-233.9" cy="252.9" r="5.3"/>
		<circle id="XMLID_3592_" class="st1" cx="-306.1" cy="343.7" r="5.3"/>
	</g>
</g>
</svg>
