<?xml version="1.0" encoding="utf-8"?>
<!-- Generator: Adobe Illustrator 17.0.0, SVG Export Plug-In . SVG Version: 6.00 Build 0)  -->
<svg version="1.2" baseProfile="tiny" id="Livello_1"
	 xmlns="http://www.w3.org/2000/svg" xmlns:xlink="http://www.w3.org/1999/xlink" x="0px" y="0px" width="310px" height="310px"
	 viewBox="0 0 310 310" xml:space="preserve">
<g>
	<g>
		<path fill="#BA9C5A" d="M155.599,309.362l-0.035-10c3.21-0.011,6.461-0.131,9.663-0.354l0.699,9.975
			C162.504,309.222,159.029,309.35,155.599,309.362z M151.468,309.324c-3.428-0.077-6.898-0.27-10.314-0.573l0.885-9.961
			c3.198,0.284,6.445,0.465,9.653,0.536L151.468,309.324z M170.045,308.638l-0.963-9.953c3.201-0.311,6.426-0.731,9.583-1.252
			l1.627,9.867C176.915,307.857,173.468,308.307,170.045,308.638z M137.041,308.329c-3.406-0.395-6.844-0.91-10.221-1.533
			l1.814-9.834c3.157,0.583,6.373,1.064,9.557,1.434L137.041,308.329z M184.363,306.573l-1.892-9.82
			c3.154-0.607,6.324-1.329,9.421-2.146l2.549,9.67C191.128,305.15,187.737,305.923,184.363,306.573z M122.763,305.991
			c-3.358-0.714-6.734-1.551-10.033-2.488l2.733-9.619c3.084,0.876,6.239,1.659,9.379,2.326L122.763,305.991z M198.426,303.17
			l-2.809-9.598c3.078-0.9,6.166-1.919,9.178-3.025l3.449,9.387C205.021,301.117,201.719,302.206,198.426,303.17z M108.766,302.318
			c-3.274-1.026-6.56-2.18-9.768-3.429l3.627-9.318c3,1.167,6.073,2.246,9.133,3.206L108.766,302.318z M212.107,298.454
			l-3.701-9.289c2.974-1.186,5.949-2.488,8.842-3.873l4.316,9.021C218.47,295.793,215.289,297.186,212.107,298.454z M95.153,297.331
			c-3.16-1.331-6.321-2.789-9.396-4.334l4.49-8.936c2.876,1.445,5.833,2.809,8.787,4.053L95.153,297.331z M225.259,292.483
			l-4.557-8.902c2.85-1.458,5.689-3.035,8.443-4.687l5.145,8.574C231.345,289.236,228.306,290.923,225.259,292.483z M82.08,291.087
			c-3.023-1.623-6.033-3.371-8.945-5.197l5.312-8.473c2.723,1.707,5.536,3.342,8.362,4.859L82.08,291.087z M237.801,285.299
			l-5.371-8.436c2.707-1.724,5.389-3.56,7.973-5.459l5.922,8.059C243.562,281.492,240.694,283.456,237.801,285.299z M69.656,283.644
			c-2.859-1.9-5.69-3.922-8.416-6.009l6.08-7.939c2.549,1.952,5.197,3.843,7.871,5.62L69.656,283.644z M249.62,276.971l-6.135-7.896
			c2.535-1.97,5.035-4.049,7.432-6.181l6.646,7.471C255.003,272.644,252.33,274.867,249.62,276.971z M57.99,275.077
			c-2.67-2.16-5.3-4.438-7.816-6.767l6.794-7.338c2.354,2.18,4.813,4.309,7.311,6.329L57.99,275.077z M260.615,267.579l-6.846-7.291
			c2.346-2.202,4.644-4.507,6.828-6.849l7.312,6.82C265.575,262.762,263.121,265.225,260.615,267.579z M47.177,265.465
			c-2.456-2.398-4.862-4.908-7.15-7.462l7.446-6.674c2.141,2.388,4.392,4.736,6.689,6.98L47.177,265.465z M270.689,257.199
			l-7.492-6.625c2.128-2.405,4.2-4.913,6.16-7.454l7.918,6.109C275.178,251.945,272.963,254.627,270.689,257.199z M37.31,254.889
			c-2.221-2.615-4.382-5.338-6.423-8.092l8.035-5.953c1.91,2.576,3.932,5.124,6.01,7.57L37.31,254.889z M279.758,245.92
			l-8.076-5.896c1.893-2.592,3.722-5.283,5.439-7.998l8.451,5.344C283.737,240.271,281.781,243.148,279.758,245.92z M28.472,243.447
			c-1.969-2.812-3.866-5.725-5.639-8.655l8.557-5.176c1.658,2.741,3.433,5.465,5.274,8.095L28.472,243.447z M287.739,233.839
			l-8.594-5.115c1.643-2.76,3.213-5.61,4.667-8.475l8.916,4.527C291.174,227.839,289.495,230.887,287.739,233.839z M20.745,231.234
			c-1.696-2.98-3.312-6.056-4.803-9.142l9.003-4.352c1.395,2.885,2.906,5.761,4.492,8.548L20.745,231.234z M294.555,221.055
			l-9.037-4.282c1.379-2.91,2.674-5.897,3.849-8.88l9.305,3.666C297.414,214.749,296.029,217.944,294.555,221.055z M14.197,218.356
			c-1.408-3.124-2.728-6.337-3.922-9.55l9.373-3.486c1.117,3.004,2.351,6.007,3.667,8.927L14.197,218.356z M300.139,207.679
			l-9.4-3.412c1.094-3.013,2.1-6.104,2.99-9.189l9.607,2.771C302.385,201.149,301.309,204.457,300.139,207.679z M8.885,204.91
			c-1.109-3.249-2.122-6.577-3.009-9.89l9.66-2.586c0.829,3.097,1.775,6.207,2.812,9.245L8.885,204.91z M304.43,193.858l-9.68-2.51
			c0.804-3.102,1.514-6.274,2.109-9.431l9.826,1.854C306.05,187.147,305.291,190.541,304.43,193.858z M4.86,191.011
			c-0.797-3.336-1.491-6.743-2.062-10.128l9.86-1.666c0.535,3.165,1.184,6.352,1.929,9.47L4.86,191.011z M307.397,179.696
			l-9.873-1.588c0.509-3.161,0.917-6.387,1.215-9.589l9.957,0.926C308.378,172.868,307.941,176.316,307.397,179.696z M2.164,176.797
			c-0.48-3.394-0.851-6.85-1.104-10.273l9.973-0.736c0.237,3.203,0.584,6.436,1.033,9.609L2.164,176.797z M309.024,165.322
			l-9.979-0.658c0.211-3.192,0.317-6.443,0.317-9.663l-0.001-0.321h10l0.001,0.275C309.363,158.439,309.249,161.912,309.024,165.322
			z M0.81,162.396c-0.115-2.454-0.174-4.942-0.173-7.396c0-0.979,0.009-1.958,0.027-2.934l9.998,0.186
			c-0.017,0.915-0.025,1.831-0.025,2.749c0,2.298,0.054,4.628,0.163,6.925L0.81,162.396z M299.303,150.82
			c-0.091-3.211-0.29-6.457-0.594-9.647l9.955-0.947c0.324,3.411,0.538,6.88,0.635,10.313L299.303,150.82z M10.786,148.385
			l-9.99-0.451c0.155-3.432,0.427-6.897,0.808-10.3l9.938,1.113C11.185,141.93,10.931,145.174,10.786,148.385z M298.293,137.327
			c-0.39-3.188-0.892-6.4-1.491-9.549l9.822-1.873c0.643,3.366,1.179,6.801,1.595,10.209L298.293,137.327z M12.023,134.911
			l-9.904-1.377c0.473-3.4,1.067-6.826,1.767-10.185l9.79,2.041C13.021,128.529,12.465,131.733,12.023,134.911z M296.024,123.99
			c-0.686-3.134-1.486-6.284-2.382-9.364l9.602-2.791c0.959,3.295,1.816,6.666,2.55,10.019L296.024,123.99z M14.516,121.616
			l-9.731-2.305c0.792-3.345,1.707-6.7,2.719-9.973l9.554,2.955C16.111,115.352,15.256,118.488,14.516,121.616z M292.514,110.93
			c-0.981-3.062-2.077-6.124-3.257-9.101l9.297-3.684c1.262,3.183,2.434,6.457,3.483,9.731L292.514,110.93z M18.253,108.602
			l-9.47-3.213c1.105-3.258,2.335-6.518,3.655-9.687l9.231,3.846C20.436,102.51,19.286,105.556,18.253,108.602z M287.791,98.269
			c-1.262-2.948-2.64-5.89-4.095-8.744l8.91-4.541c1.556,3.052,3.028,6.197,4.378,9.35L287.791,98.269z M23.208,95.989l-9.124-4.092
			c1.406-3.136,2.937-6.263,4.55-9.294l8.828,4.697C25.954,90.134,24.523,93.057,23.208,95.989z M281.899,86.112
			c-1.531-2.813-3.18-5.615-4.898-8.325l8.445-5.355c1.838,2.897,3.6,5.893,5.236,8.901L281.899,86.112z M29.327,83.905
			l-8.699-4.932c1.693-2.986,3.51-5.954,5.4-8.821l8.349,5.504C32.61,78.338,30.911,81.113,29.327,83.905z M274.89,74.555
			c-1.79-2.662-3.693-5.298-5.657-7.835l7.908-6.121c2.1,2.712,4.134,5.53,6.048,8.376L274.89,74.555z M36.552,72.451l-8.198-5.726
			c1.965-2.813,4.05-5.597,6.198-8.273l7.8,6.258C40.341,67.215,38.39,69.819,36.552,72.451z M266.828,63.696
			c-2.03-2.483-4.172-4.933-6.365-7.277l7.305-6.83c2.343,2.506,4.632,5.123,6.803,7.777L266.828,63.696z M44.813,61.724
			l-7.629-6.465c2.213-2.611,4.548-5.188,6.94-7.658l7.184,6.957C49.069,56.87,46.884,59.281,44.813,61.724z M257.787,53.632
			c-2.261-2.29-4.621-4.529-7.018-6.655l6.637-7.48c2.561,2.272,5.084,4.665,7.498,7.112L257.787,53.632z M54.034,51.818
			L47.04,44.67c2.449-2.396,5.013-4.743,7.621-6.977l6.505,7.596C58.725,47.379,56.325,49.576,54.034,51.818z M247.841,44.446
			c-2.465-2.071-5.023-4.081-7.606-5.974l5.91-8.066c2.761,2.022,5.496,4.171,8.13,6.384L247.841,44.446z M64.134,42.814
			l-6.298-7.768c2.656-2.154,5.426-4.252,8.233-6.235l5.771,8.166C69.213,38.835,66.62,40.799,64.134,42.814z M237.081,36.226
			c-2.644-1.83-5.38-3.593-8.132-5.237l5.129-8.584c2.944,1.759,5.869,3.644,8.696,5.601L237.081,36.226z M75.024,34.796
			l-5.547-8.32c2.853-1.902,5.807-3.731,8.779-5.439l4.98,8.672C80.456,31.304,77.693,33.016,75.024,34.796z M225.598,29.047
			c-2.806-1.575-5.695-3.073-8.59-4.452l4.301-9.027c3.096,1.475,6.186,3.076,9.186,4.761L225.598,29.047z M86.608,27.834
			l-4.745-8.803c3.022-1.629,6.134-3.174,9.25-4.592l4.142,9.102C92.343,24.867,89.433,26.31,86.608,27.834z M213.486,22.975
			c-2.927-1.3-5.945-2.519-8.971-3.624l3.43-9.393c3.237,1.182,6.468,2.486,9.6,3.878L213.486,22.975z M98.785,21.99l-3.898-9.209
			c3.153-1.335,6.395-2.58,9.637-3.701l3.269,9.451C104.762,19.579,101.732,20.743,98.785,21.99z M200.853,18.071
			c-3.041-1.019-6.156-1.945-9.26-2.756l2.525-9.676c3.321,0.867,6.655,1.859,9.91,2.949L200.853,18.071z M111.462,17.317
			l-3.012-9.535c3.267-1.032,6.616-1.967,9.955-2.78l2.365,9.717C117.648,15.478,114.516,16.353,111.462,17.317z M187.839,14.388
			c-3.119-0.726-6.309-1.355-9.48-1.871l1.605-9.871c3.393,0.553,6.805,1.226,10.141,2.002L187.839,14.388z M124.538,13.856
			l-2.1-9.777c3.348-0.719,6.77-1.334,10.171-1.829l1.439,9.896C130.868,12.608,127.668,13.184,124.538,13.856z M174.532,11.947
			c-3.171-0.43-6.405-0.757-9.615-0.975l0.676-9.977c3.431,0.231,6.89,0.582,10.281,1.041L174.532,11.947z M137.884,11.641
			l-1.173-9.932c3.397-0.401,6.862-0.693,10.296-0.868l0.509,9.986C144.302,10.992,141.062,11.265,137.884,11.641z M161.052,10.762
			c-3.193-0.133-6.462-0.159-9.672-0.081l-0.243-9.996c3.429-0.085,6.918-0.055,10.329,0.085L161.052,10.762z"/>
		<path fill="#BA9C5A" d="M155.458,273.057l-0.027-7.648c2.455-0.008,4.942-0.1,7.39-0.271l0.535,7.629
			C160.739,272.95,158.081,273.048,155.458,273.057z M152.299,273.027c-2.622-0.059-5.276-0.206-7.889-0.438l0.677-7.618
			c2.446,0.217,4.929,0.355,7.383,0.41L152.299,273.027z M166.506,272.503l-0.736-7.612c2.448-0.237,4.914-0.559,7.329-0.957
			l1.244,7.546C171.76,271.906,169.124,272.25,166.506,272.503z M141.265,272.266c-2.605-0.302-5.234-0.696-7.817-1.173l1.388-7.521
			c2.415,0.446,4.874,0.814,7.309,1.096L141.265,272.266z M177.457,270.923l-1.447-7.511c2.412-0.465,4.837-1.017,7.205-1.641
			l1.949,7.396C182.631,269.835,180.037,270.426,177.457,270.923z M130.345,270.478c-2.568-0.546-5.15-1.186-7.673-1.903
			l2.091-7.357c2.359,0.67,4.772,1.269,7.173,1.779L130.345,270.478z M188.212,268.321l-2.148-7.34
			c2.354-0.689,4.716-1.468,7.019-2.314l2.638,7.179C193.256,266.751,190.73,267.583,188.212,268.321z M119.64,267.669
			c-2.504-0.785-5.017-1.667-7.471-2.622l2.774-7.127c2.294,0.893,4.644,1.718,6.985,2.452L119.64,267.669z M198.676,264.714
			l-2.831-7.104c2.274-0.907,4.55-1.903,6.762-2.962l3.301,6.9C203.542,262.679,201.109,263.744,198.676,264.714z M109.229,263.855
			c-2.417-1.018-4.835-2.133-7.186-3.315l3.434-6.834c2.2,1.105,4.461,2.148,6.72,3.1L109.229,263.855z M208.734,260.147
			l-3.485-6.809c2.179-1.115,4.351-2.321,6.458-3.584l3.935,6.558C213.389,257.664,211.065,258.954,208.734,260.147z M99.23,259.079
			c-2.312-1.241-4.614-2.578-6.841-3.975l4.063-6.48c2.082,1.306,4.234,2.556,6.396,3.716L99.23,259.079z M218.326,254.653
			l-4.108-6.452c2.07-1.318,4.121-2.722,6.098-4.175l4.529,6.163C222.733,251.741,220.539,253.243,218.326,254.653z M89.729,253.387
			c-2.187-1.453-4.352-2.999-6.436-4.596l4.65-6.072c1.949,1.493,3.975,2.939,6.019,4.298L89.729,253.387z M227.366,248.284
			l-4.692-6.039c1.939-1.506,3.851-3.097,5.684-4.727l5.083,5.714C231.482,244.975,229.438,246.675,227.366,248.284z
			 M80.806,246.835c-2.042-1.652-4.053-3.394-5.978-5.175l5.196-5.612c1.8,1.667,3.681,3.295,5.592,4.841L80.806,246.835z
			 M235.775,241.101l-5.236-5.576c1.794-1.684,3.551-3.447,5.222-5.238l5.593,5.216
			C239.568,237.417,237.691,239.301,235.775,241.101z M72.537,239.484c-1.878-1.834-3.718-3.754-5.469-5.707l5.695-5.104
			c1.638,1.826,3.359,3.622,5.116,5.338L72.537,239.484z M243.479,233.162l-5.73-5.067c1.627-1.84,3.212-3.758,4.711-5.701
			l6.056,4.672C246.913,229.144,245.218,231.195,243.479,233.162z M64.99,231.396c-1.699-2-3.351-4.082-4.912-6.189l6.145-4.553
			c1.461,1.97,3.007,3.919,4.597,5.79L64.99,231.396z M250.415,224.536l-6.177-4.51c1.447-1.982,2.846-4.041,4.16-6.117l6.463,4.087
			C253.458,220.216,251.962,222.416,250.415,224.536z M58.231,222.645c-1.506-2.151-2.957-4.378-4.313-6.62l6.544-3.958
			c1.268,2.096,2.625,4.18,4.034,6.191L58.231,222.645z M256.519,215.296l-6.573-3.912c1.256-2.111,2.457-4.291,3.569-6.481
			l6.819,3.463C259.146,210.707,257.862,213.039,256.519,215.296z M52.321,213.304c-1.297-2.279-2.533-4.631-3.674-6.992
			l6.885-3.328c1.067,2.206,2.223,4.406,3.435,6.537L52.321,213.304z M261.732,205.519l-6.912-3.275
			c1.055-2.226,2.045-4.51,2.943-6.791l7.116,2.804C263.919,200.696,262.859,203.14,261.732,205.519z M47.313,203.455
			c-1.077-2.389-2.086-4.846-3-7.304l7.169-2.666c0.854,2.297,1.798,4.594,2.804,6.827L47.313,203.455z M266.003,195.289
			l-7.189-2.61c0.837-2.304,1.606-4.669,2.287-7.028l7.348,2.12C267.721,190.295,266.898,192.825,266.003,195.289z M43.251,193.171
			c-0.848-2.485-1.623-5.03-2.301-7.564l7.388-1.978c0.634,2.368,1.357,4.747,2.151,7.071L43.251,193.171z M269.285,184.719
			l-7.403-1.919c0.615-2.372,1.158-4.799,1.613-7.213l7.515,1.418C270.523,179.586,269.943,182.182,269.285,184.719z
			 M40.173,182.542c-0.609-2.551-1.14-5.157-1.577-7.746l7.541-1.274c0.409,2.421,0.905,4.858,1.475,7.242L40.173,182.542z
			 M271.554,173.888l-7.551-1.214c0.389-2.418,0.701-4.885,0.929-7.334l7.615,0.708C272.304,168.665,271.97,171.303,271.554,173.888
			z M38.111,171.67c-0.367-2.595-0.651-5.239-0.844-7.857l7.627-0.563c0.181,2.45,0.447,4.922,0.79,7.349L38.111,171.67z
			 M272.798,162.894l-7.632-0.503c0.161-2.442,0.243-4.928,0.243-7.39l-0.001-0.246h7.648l0.001,0.211
			C273.057,157.63,272.97,160.286,272.798,162.894z M37.075,160.657c-0.088-1.877-0.133-3.78-0.133-5.657
			c0-0.749,0.007-1.497,0.021-2.244l7.647,0.142c-0.013,0.7-0.019,1.4-0.019,2.102c0,1.757,0.041,3.539,0.124,5.296L37.075,160.657z
			 M265.364,151.803c-0.069-2.456-0.222-4.938-0.454-7.378l7.614-0.724c0.248,2.609,0.412,5.262,0.485,7.888L265.364,151.803z
			 M44.705,149.941l-7.641-0.345c0.119-2.625,0.326-5.275,0.618-7.877l7.6,0.851C45.01,145.004,44.816,147.485,44.705,149.941z
			 M264.591,141.484c-0.298-2.439-0.682-4.895-1.14-7.303l7.512-1.433c0.491,2.574,0.901,5.201,1.22,7.808L264.591,141.484z
			 M45.651,139.636l-7.575-1.053c0.361-2.601,0.816-5.221,1.351-7.789l7.487,1.561C46.414,134.755,45.989,137.205,45.651,139.636z
			 M262.856,131.283c-0.524-2.397-1.137-4.806-1.822-7.162l7.343-2.135c0.733,2.52,1.389,5.098,1.95,7.662L262.856,131.283z
			 M47.557,129.468l-7.443-1.763c0.606-2.558,1.306-5.124,2.08-7.627l7.307,2.26C48.777,124.677,48.123,127.076,47.557,129.468z
			 M260.171,121.295c-0.751-2.342-1.589-4.684-2.491-6.96l7.11-2.817c0.965,2.434,1.861,4.938,2.664,7.443L260.171,121.295z
			 M50.416,119.515l-7.242-2.457c0.845-2.492,1.786-4.985,2.795-7.408l7.06,2.941C52.085,114.856,51.206,117.185,50.416,119.515z
			 M256.559,111.612c-0.965-2.255-2.019-4.504-3.132-6.688l6.815-3.473c1.19,2.334,2.316,4.74,3.348,7.151L256.559,111.612z
			 M54.205,109.868l-6.978-3.129c1.076-2.398,2.246-4.79,3.48-7.108l6.752,3.592C56.306,105.391,55.211,107.626,54.205,109.868z
			 M252.053,102.314c-1.171-2.152-2.432-4.295-3.746-6.367l6.459-4.096c1.406,2.216,2.753,4.507,4.005,6.808L252.053,102.314z
			 M58.885,100.626l-6.653-3.772c1.295-2.284,2.685-4.554,4.13-6.747l6.385,4.209C61.395,96.368,60.096,98.491,58.885,100.626z
			 M246.693,93.476c-1.369-2.036-2.825-4.052-4.327-5.992l6.048-4.681c1.606,2.074,3.162,4.23,4.625,6.406L246.693,93.476z
			 M64.41,91.866l-6.27-4.379c1.503-2.152,3.097-4.28,4.74-6.328l5.965,4.786C67.309,87.861,65.816,89.853,64.41,91.866z
			 M240.526,85.17c-1.553-1.899-3.191-3.772-4.868-5.566l5.587-5.224c1.792,1.916,3.542,3.918,5.203,5.948L240.526,85.17z
			 M70.728,83.662l-5.835-4.944c1.692-1.997,3.478-3.968,5.308-5.857l5.494,5.321C73.983,79.95,72.312,81.794,70.728,83.662z
			 M233.612,77.473c-1.729-1.751-3.534-3.464-5.367-5.09l5.076-5.721c1.958,1.738,3.888,3.568,5.735,5.44L233.612,77.473z
			 M77.781,76.086l-5.349-5.467c1.873-1.832,3.834-3.628,5.828-5.336l4.975,5.809C81.368,72.691,79.533,74.371,77.781,76.086z
			 M226.005,70.448c-1.885-1.584-3.842-3.121-5.817-4.569l4.52-6.169c2.111,1.547,4.203,3.19,6.218,4.882L226.005,70.448z
			 M85.505,69.2l-4.817-5.941c2.032-1.648,4.15-3.252,6.297-4.769l4.414,6.245C89.39,66.156,87.407,67.658,85.505,69.2z
			 M217.776,64.162c-2.022-1.4-4.115-2.748-6.219-4.006l3.923-6.565c2.252,1.345,4.489,2.787,6.651,4.283L217.776,64.162z
			 M93.834,63.067l-4.242-6.363c2.182-1.455,4.441-2.854,6.714-4.16l3.809,6.632C97.988,60.397,95.875,61.707,93.834,63.067z
			 M208.994,58.67c-2.146-1.205-4.356-2.35-6.57-3.405l3.289-6.904c2.368,1.128,4.731,2.353,7.025,3.641L208.994,58.67z
			 M102.694,57.743l-3.629-6.732c2.311-1.246,4.692-2.427,7.074-3.512l3.168,6.961C107.079,55.474,104.854,56.578,102.694,57.743z
			 M199.73,54.027c-2.238-0.994-4.547-1.926-6.861-2.772l2.623-7.183c2.476,0.904,4.947,1.902,7.342,2.966L199.73,54.027z
			 M112.007,53.274l-2.982-7.043c2.411-1.021,4.891-1.973,7.37-2.831l2.5,7.228C116.578,51.429,114.26,52.32,112.007,53.274z
			 M190.069,50.276c-2.326-0.779-4.708-1.488-7.082-2.108l1.931-7.4c2.54,0.663,5.09,1.422,7.579,2.256L190.069,50.276z
			 M121.702,49.7l-2.303-7.293c2.499-0.789,5.06-1.504,7.614-2.126l1.809,7.431C126.433,48.293,124.038,48.963,121.702,49.7z
			 M180.115,47.46c-2.386-0.555-4.825-1.037-7.251-1.431l1.228-7.549c2.595,0.423,5.204,0.937,7.756,1.531L180.115,47.46z
			 M131.702,47.053l-1.606-7.478c2.56-0.55,5.178-1.02,7.779-1.399l1.101,7.569C136.544,46.098,134.096,46.539,131.702,47.053z
			 M169.938,45.593c-2.425-0.329-4.899-0.579-7.354-0.745l0.517-7.63c2.624,0.177,5.269,0.445,7.863,0.796L169.938,45.593z
			 M141.91,45.359l-0.897-7.596c2.598-0.307,5.248-0.53,7.874-0.664l0.389,7.638C146.819,44.862,144.34,45.071,141.91,45.359z
			 M159.629,44.687c-2.442-0.102-4.942-0.122-7.397-0.062l-0.186-7.645c2.622-0.065,5.291-0.042,7.9,0.065L159.629,44.687z"/>
		<path fill="#BA9C5A" d="M155.503,284.521l-0.029-8.391c2.694-0.009,5.422-0.11,8.108-0.297l0.587,8.369
			C161.296,284.404,158.381,284.512,155.503,284.521z M152.036,284.489c-2.876-0.065-5.788-0.226-8.655-0.481l0.742-8.358
			c2.683,0.238,5.408,0.39,8.1,0.45L152.036,284.489z M167.624,283.914l-0.808-8.351c2.686-0.261,5.392-0.614,8.041-1.05
			l1.365,8.279C173.388,283.259,170.496,283.636,167.624,283.914z M139.931,283.654c-2.858-0.331-5.743-0.764-8.576-1.286
			l1.522-8.251c2.649,0.489,5.347,0.893,8.019,1.203L139.931,283.654z M179.638,282.181l-1.587-8.24
			c2.647-0.51,5.307-1.115,7.905-1.8l2.139,8.114C185.314,280.987,182.469,281.635,179.638,282.181z M127.951,281.693
			c-2.818-0.599-5.65-1.301-8.419-2.088l2.294-8.071c2.588,0.735,5.235,1.392,7.87,1.952L127.951,281.693z M191.437,279.326
			l-2.357-8.053c2.583-0.755,5.174-1.61,7.701-2.539l2.894,7.876C196.972,277.603,194.2,278.517,191.437,279.326z M116.206,278.611
			c-2.747-0.861-5.504-1.829-8.196-2.877l3.043-7.819c2.517,0.979,5.095,1.885,7.664,2.69L116.206,278.611z M202.917,275.369
			l-3.106-7.794c2.495-0.995,4.992-2.088,7.419-3.25l3.622,7.57C208.257,273.136,205.587,274.305,202.917,275.369z M104.783,274.426
			c-2.651-1.117-5.304-2.34-7.884-3.637l3.767-7.498c2.413,1.213,4.894,2.357,7.373,3.401L104.783,274.426z M213.952,270.359
			l-3.823-7.47c2.391-1.223,4.774-2.547,7.085-3.932l4.317,7.194C219.06,267.634,216.51,269.049,213.952,270.359z M93.814,269.187
			c-2.537-1.362-5.062-2.829-7.506-4.361l4.458-7.109c2.285,1.432,4.645,2.804,7.017,4.077L93.814,269.187z M224.476,264.33
			l-4.507-7.078c2.271-1.446,4.521-2.987,6.69-4.581l4.969,6.762C229.31,261.136,226.904,262.784,224.476,264.33z M83.39,262.942
			c-2.399-1.595-4.775-3.291-7.061-5.042l5.102-6.662c2.139,1.638,4.36,3.224,6.604,4.716L83.39,262.942z M234.393,257.343
			l-5.148-6.626c2.127-1.653,4.225-3.397,6.236-5.186l5.577,6.268C238.91,253.712,236.667,255.577,234.393,257.343z M73.601,255.754
			c-2.241-1.813-4.447-3.723-6.558-5.678l5.701-6.157c1.975,1.829,4.039,3.615,6.135,5.311L73.601,255.754z M243.619,249.462
			l-5.744-6.118c1.968-1.848,3.896-3.782,5.729-5.747l6.136,5.723C247.781,245.421,245.722,247.487,243.619,249.462z
			 M64.529,247.688c-2.061-2.012-4.079-4.118-6-6.261l6.248-5.6c1.797,2.003,3.685,3.974,5.613,5.856L64.529,247.688z
			 M252.072,240.753l-6.287-5.559c1.785-2.018,3.524-4.122,5.169-6.255l6.644,5.126C255.839,236.344,253.98,238.594,252.072,240.753
			z M56.249,238.815c-1.864-2.194-3.677-4.479-5.389-6.79l6.742-4.995c1.602,2.162,3.299,4.299,5.043,6.352L56.249,238.815z
			 M259.681,231.288l-6.777-4.948c1.588-2.175,3.123-4.433,4.564-6.711l7.091,4.484C263.02,226.549,261.379,228.963,259.681,231.288
			z M48.834,229.214c-1.652-2.36-3.244-4.803-4.732-7.262l7.18-4.343c1.391,2.3,2.88,4.585,4.425,6.792L48.834,229.214z
			 M266.378,221.152l-7.211-4.292c1.378-2.316,2.696-4.708,3.916-7.111l7.481,3.799C269.26,216.117,267.851,218.675,266.378,221.152
			z M42.35,218.966c-1.423-2.501-2.779-5.081-4.03-7.671l7.554-3.651c1.171,2.421,2.439,4.834,3.769,7.172L42.35,218.966z
			 M272.098,210.425l-7.583-3.593c1.157-2.442,2.244-4.948,3.229-7.451l7.807,3.076
			C274.496,205.134,273.334,207.815,272.098,210.425z M36.856,208.161c-1.181-2.621-2.289-5.317-3.291-8.013l7.865-2.925
			c0.937,2.521,1.972,5.04,3.076,7.49L36.856,208.161z M276.783,199.202l-7.888-2.863c0.918-2.528,1.762-5.122,2.509-7.711
			l8.061,2.325C278.668,193.723,277.765,196.498,276.783,199.202z M32.398,196.878c-0.931-2.726-1.78-5.519-2.525-8.298l8.106-2.17
			c0.696,2.598,1.489,5.208,2.36,7.757L32.398,196.878z M280.383,187.605l-8.122-2.106c0.674-2.602,1.27-5.265,1.77-7.913
			l8.245,1.555C281.742,181.974,281.105,184.821,280.383,187.605z M29.021,185.216c-0.669-2.799-1.251-5.658-1.731-8.498
			l8.274-1.398c0.449,2.656,0.993,5.329,1.618,7.946L29.021,185.216z M282.873,175.722l-8.284-1.332
			c0.427-2.652,0.769-5.359,1.019-8.046l8.355,0.777C283.695,169.993,283.329,172.886,282.873,175.722z M26.759,173.289
			c-0.403-2.847-0.714-5.747-0.926-8.62l8.368-0.618c0.199,2.688,0.49,5.4,0.867,8.063L26.759,173.289z M284.238,163.661
			l-8.373-0.552c0.177-2.679,0.266-5.406,0.266-8.108l-0.001-0.27h8.391l0.001,0.231C284.522,157.886,284.426,160.8,284.238,163.661
			z M25.623,161.206c-0.097-2.059-0.146-4.147-0.145-6.206c0-0.822,0.008-1.643,0.023-2.462l8.389,0.156
			c-0.014,0.768-0.021,1.536-0.021,2.307c0,1.928,0.045,3.883,0.136,5.81L25.623,161.206z M276.082,151.493
			c-0.076-2.694-0.243-5.418-0.498-8.095l8.353-0.795c0.272,2.862,0.451,5.773,0.533,8.654L276.082,151.493z M33.993,149.45
			l-8.383-0.379c0.13-2.879,0.358-5.787,0.678-8.642l8.338,0.934C34.328,144.034,34.115,146.755,33.993,149.45z M275.233,140.171
			c-0.327-2.675-0.748-5.37-1.251-8.012l8.242-1.572c0.539,2.825,0.989,5.706,1.338,8.566L275.233,140.171z M35.031,138.144
			l-8.31-1.155c0.397-2.853,0.896-5.728,1.483-8.546l8.215,1.713C35.869,132.789,35.402,135.477,35.031,138.144z M273.33,128.98
			c-0.575-2.629-1.247-5.273-1.999-7.857l8.056-2.342c0.805,2.765,1.524,5.593,2.139,8.406L273.33,128.98z M37.123,126.988
			l-8.165-1.934c0.665-2.806,1.432-5.622,2.282-8.368l8.016,2.48C38.462,121.733,37.744,124.364,37.123,126.988z M270.385,118.022
			c-0.824-2.57-1.743-5.139-2.733-7.636l7.801-3.091c1.059,2.67,2.042,5.418,2.923,8.165L270.385,118.022z M40.259,116.069
			l-7.946-2.696c0.927-2.734,1.959-5.469,3.067-8.128l7.746,3.227C42.09,110.957,41.126,113.513,40.259,116.069z M266.422,107.399
			c-1.059-2.474-2.215-4.942-3.436-7.337l7.476-3.81c1.305,2.561,2.541,5.2,3.673,7.845L266.422,107.399z M44.417,105.485
			l-7.656-3.433c1.18-2.631,2.464-5.255,3.818-7.798l7.407,3.941C46.721,100.573,45.52,103.025,44.417,105.485z M261.478,97.198
			c-1.285-2.361-2.668-4.712-4.11-6.985l7.086-4.494c1.542,2.431,3.02,4.944,4.394,7.469L261.478,97.198z M49.551,95.346
			l-7.299-4.138c1.421-2.506,2.945-4.996,4.531-7.402l7.005,4.618C52.305,90.674,50.88,93.003,49.551,95.346z M255.597,87.501
			c-1.502-2.234-3.099-4.445-4.747-6.574l6.636-5.136c1.762,2.275,3.469,4.64,5.075,7.028L255.597,87.501z M55.613,85.735
			l-6.879-4.804c1.649-2.361,3.398-4.696,5.2-6.942l6.545,5.251C58.792,81.341,57.155,83.527,55.613,85.735z M248.832,78.389
			c-1.704-2.084-3.501-4.139-5.341-6.106l6.129-5.731c1.966,2.103,3.886,4.299,5.708,6.526L248.832,78.389z M62.545,76.735
			l-6.401-5.424c1.857-2.191,3.816-4.354,5.823-6.426l6.028,5.837C66.116,72.661,64.282,74.684,62.545,76.735z M241.246,69.944
			c-1.897-1.922-3.877-3.8-5.888-5.584l5.569-6.277c2.148,1.907,4.266,3.914,6.291,5.968L241.246,69.944z M70.282,68.423
			l-5.869-5.998c2.055-2.01,4.206-3.98,6.394-5.854l5.458,6.373C74.218,64.698,72.205,66.541,70.282,68.423z M232.9,62.237
			c-2.068-1.738-4.215-3.424-6.382-5.012l4.959-6.768c2.316,1.697,4.612,3.5,6.822,5.356L232.9,62.237z M78.757,60.868l-5.284-6.518
			c2.229-1.808,4.553-3.568,6.908-5.232l4.843,6.852C83.018,57.528,80.843,59.176,78.757,60.868z M223.872,55.34
			c-2.218-1.536-4.514-3.015-6.823-4.394l4.304-7.203c2.471,1.476,4.925,3.057,7.297,4.699L223.872,55.34z M87.894,54.139
			l-4.654-6.981c2.394-1.596,4.872-3.131,7.367-4.564l4.179,7.276C92.452,51.21,90.133,52.646,87.894,54.139z M214.237,49.316
			c-2.354-1.322-4.779-2.579-7.208-3.736l3.609-7.575c2.598,1.237,5.19,2.581,7.707,3.995L214.237,49.316z M97.614,48.298
			l-3.982-7.386c2.536-1.367,5.147-2.663,7.761-3.853l3.476,7.637C102.426,45.808,99.985,47.02,97.614,48.298z M204.074,44.221
			c-2.456-1.091-4.989-2.113-7.527-3.041l2.878-7.881c2.716,0.991,5.427,2.086,8.055,3.254L204.074,44.221z M107.831,43.394
			l-3.271-7.727c2.645-1.12,5.366-2.165,8.086-3.106l2.743,7.93C112.846,41.371,110.304,42.348,107.831,43.394z M193.474,40.106
			c-2.552-0.855-5.166-1.632-7.77-2.312l2.119-8.119c2.787,0.728,5.584,1.56,8.315,2.475L193.474,40.106z M118.468,39.474
			l-2.527-8.001c2.741-0.866,5.551-1.65,8.353-2.333l1.985,8.153C123.659,37.931,121.031,38.665,118.468,39.474z M182.554,37.016
			c-2.617-0.609-5.293-1.137-7.955-1.57l1.347-8.283c2.847,0.464,5.71,1.028,8.509,1.68L182.554,37.016z M129.44,36.57l-1.762-8.204
			c2.809-0.603,5.681-1.119,8.535-1.535l1.208,8.304C134.751,35.522,132.066,36.006,129.44,36.57z M171.389,34.968
			c-2.661-0.361-5.375-0.635-8.068-0.818l0.567-8.371c2.879,0.194,5.781,0.488,8.627,0.873L171.389,34.968z M140.638,34.711
			l-0.985-8.333c2.851-0.337,5.758-0.582,8.639-0.728l0.427,8.379C146.024,34.166,143.305,34.396,140.638,34.711z M160.078,33.974
			c-2.679-0.111-5.422-0.134-8.115-0.068l-0.204-8.387c2.877-0.071,5.805-0.046,8.667,0.071L160.078,33.974z"/>
		<path fill="#BA9C5A" d="M155.547,295.986l-0.032-9.133c2.932-0.01,5.902-0.12,8.825-0.324l0.639,9.11
			C161.853,295.859,158.68,295.976,155.547,295.986z M151.774,295.951c-3.131-0.07-6.3-0.246-9.421-0.524l0.808-9.098
			c2.921,0.26,5.887,0.425,8.817,0.49L151.774,295.951z M168.741,295.325l-0.879-9.091c2.924-0.284,5.869-0.668,8.753-1.143
			l1.486,9.012C175.016,294.612,171.867,295.023,168.741,295.325z M138.597,295.043c-3.111-0.36-6.251-0.831-9.335-1.4l1.657-8.982
			c2.884,0.533,5.82,0.972,8.729,1.309L138.597,295.043z M181.819,293.439l-1.728-8.969c2.881-0.555,5.776-1.214,8.605-1.96
			l2.328,8.832C187.997,292.139,184.9,292.845,181.819,293.439z M125.556,292.907c-3.067-0.652-6.15-1.416-9.164-2.273l2.497-8.786
			c2.817,0.8,5.699,1.515,8.566,2.125L125.556,292.907z M194.663,290.33l-2.565-8.766c2.811-0.822,5.632-1.753,8.382-2.763
			l3.15,8.573C200.687,288.456,197.67,289.45,194.663,290.33z M112.773,289.553c-2.99-0.937-5.992-1.991-8.922-3.132l3.313-8.511
			c2.74,1.066,5.547,2.051,8.342,2.928L112.773,289.553z M207.159,286.023l-3.38-8.484c2.716-1.083,5.434-2.273,8.076-3.537
			l3.942,8.24C212.971,283.593,210.065,284.866,207.159,286.023z M100.338,284.997c-2.886-1.216-5.774-2.547-8.582-3.958
			l4.101-8.161c2.627,1.32,5.327,2.565,8.026,3.702L100.338,284.997z M219.171,280.57l-4.162-8.131
			c2.603-1.332,5.196-2.772,7.712-4.28l4.699,7.831C224.73,277.604,221.954,279.145,219.171,280.57z M88.399,279.294
			c-2.761-1.482-5.51-3.079-8.17-4.747l4.852-7.738c2.487,1.559,5.056,3.052,7.638,4.438L88.399,279.294z M230.626,274.008
			l-4.906-7.705c2.472-1.574,4.922-3.251,7.282-4.986l5.409,7.36C235.888,270.531,233.269,272.325,230.626,274.008z M77.052,272.497
			c-2.612-1.736-5.197-3.582-7.686-5.488l5.553-7.251c2.328,1.783,4.746,3.51,7.189,5.133L77.052,272.497z M241.421,266.402
			l-5.603-7.212c2.315-1.799,4.599-3.698,6.788-5.645l6.071,6.823C246.337,262.45,243.896,264.48,241.421,266.402z M66.396,264.672
			c-2.439-1.973-4.841-4.053-7.139-6.18l6.205-6.702c2.15,1.991,4.396,3.935,6.678,5.781L66.396,264.672z M251.463,257.824
			l-6.253-6.659c2.142-2.011,4.241-4.116,6.236-6.255l6.679,6.229C255.993,253.425,253.752,255.674,251.463,257.824z
			 M56.521,255.893c-2.243-2.191-4.441-4.483-6.531-6.815l6.801-6.096c1.956,2.181,4.011,4.326,6.11,6.375L56.521,255.893z
			 M260.664,248.343l-6.843-6.051c1.944-2.197,3.836-4.487,5.626-6.808l7.232,5.58C264.765,243.545,262.741,245.994,260.664,248.343
			z M47.508,246.234c-2.029-2.389-4.002-4.875-5.866-7.391l7.338-5.437c1.744,2.353,3.591,4.68,5.489,6.914L47.508,246.234z
			 M268.947,238.041l-7.376-5.386c1.729-2.367,3.399-4.825,4.968-7.305l7.719,4.881C272.582,232.882,270.795,235.51,268.947,238.041
			z M39.436,235.783c-1.798-2.569-3.531-5.229-5.151-7.905l7.815-4.727c1.515,2.504,3.135,4.991,4.817,7.393L39.436,235.783z
			 M276.237,227.007l-7.849-4.672c1.5-2.521,2.934-5.124,4.263-7.74l8.143,4.135C279.374,221.527,277.841,224.312,276.237,227.007z
			 M32.378,224.628c-1.549-2.722-3.025-5.531-4.387-8.349l8.223-3.974c1.274,2.635,2.654,5.262,4.102,7.807L32.378,224.628z
			 M282.463,215.332l-8.254-3.911c1.259-2.658,2.442-5.386,3.515-8.11l8.498,3.348C285.073,209.571,283.809,212.49,282.463,215.332z
			 M26.398,212.866c-1.286-2.853-2.491-5.788-3.582-8.722l8.561-3.184c1.02,2.744,2.147,5.486,3.349,8.153L26.398,212.866z
			 M287.563,203.115l-8.586-3.116c0.999-2.752,1.918-5.576,2.731-8.393l8.775,2.531C289.614,197.15,288.631,200.171,287.563,203.115
			z M21.546,200.585c-1.013-2.967-1.938-6.007-2.748-9.033l8.823-2.362c0.757,2.828,1.621,5.669,2.569,8.444L21.546,200.585z
			 M291.482,190.491l-8.841-2.292c0.734-2.833,1.383-5.731,1.927-8.613l8.975,1.693
			C292.961,184.362,292.268,187.461,291.482,190.491z M17.87,187.891c-0.728-3.047-1.362-6.159-1.884-9.25l9.006-1.522
			c0.488,2.891,1.081,5.801,1.762,8.649L17.87,187.891z M294.192,177.556l-9.018-1.45c0.465-2.887,0.838-5.833,1.11-8.758
			l9.094,0.846C295.087,171.32,294.688,174.469,294.192,177.556z M15.408,174.908c-0.438-3.1-0.777-6.256-1.008-9.383l9.109-0.673
			c0.216,2.926,0.533,5.878,0.943,8.777L15.408,174.908z M295.678,164.428l-9.114-0.601c0.193-2.916,0.29-5.885,0.29-8.826
			l-0.001-0.293h9.133l0.001,0.252C295.987,158.141,295.883,161.313,295.678,164.428z M14.171,161.755
			c-0.105-2.241-0.159-4.514-0.158-6.756c0-0.895,0.008-1.788,0.025-2.679l9.132,0.169c-0.016,0.836-0.023,1.672-0.023,2.511
			c0,2.099,0.05,4.227,0.149,6.325L14.171,161.755z M286.799,151.182c-0.083-2.933-0.265-5.898-0.542-8.811l9.092-0.865
			c0.296,3.116,0.491,6.284,0.58,9.42L286.799,151.182z M23.282,148.959l-9.125-0.412c0.142-3.134,0.39-6.3,0.738-9.407l9.076,1.017
			C23.647,143.063,23.415,146.025,23.282,148.959z M285.876,138.858c-0.356-2.912-0.814-5.846-1.362-8.721l8.971-1.711
			c0.587,3.075,1.077,6.211,1.457,9.324L285.876,138.858z M24.412,136.652l-9.046-1.258c0.432-3.106,0.975-6.235,1.614-9.302
			l8.942,1.864C25.324,130.823,24.816,133.749,24.412,136.652z M283.804,126.677c-0.626-2.862-1.358-5.74-2.175-8.553l8.77-2.549
			c0.876,3.009,1.659,6.088,2.329,9.15L283.804,126.677z M26.689,124.509l-8.888-2.105c0.723-3.055,1.559-6.12,2.484-9.109
			l8.726,2.699C28.146,118.788,27.365,121.652,26.689,124.509z M280.598,114.749c-0.896-2.797-1.897-5.593-2.975-8.312l8.491-3.364
			c1.152,2.907,2.223,5.898,3.182,8.888L280.598,114.749z M30.103,112.623l-8.649-2.934c1.009-2.976,2.133-5.953,3.338-8.847
			l8.432,3.512C32.096,107.059,31.046,109.841,30.103,112.623z M276.284,103.185c-1.152-2.693-2.411-5.379-3.74-7.986l8.138-4.148
			c1.421,2.787,2.766,5.66,3.999,8.539L276.284,103.185z M34.628,101.102l-8.333-3.737c1.284-2.864,2.683-5.72,4.156-8.489
			l8.063,4.29C37.136,95.755,35.829,98.425,34.628,101.102z M270.903,92.081c-1.399-2.57-2.904-5.129-4.474-7.604l7.714-4.891
			c1.679,2.646,3.288,5.382,4.783,8.13L270.903,92.081z M40.217,90.066l-7.945-4.504c1.547-2.728,3.206-5.438,4.932-8.057
			l7.625,5.027C43.215,84.981,41.663,87.515,40.217,90.066z M264.502,81.526c-1.635-2.431-3.373-4.839-5.167-7.156l7.223-5.591
			c1.918,2.477,3.776,5.051,5.524,7.65L264.502,81.526z M46.815,79.604l-7.488-5.229c1.795-2.57,3.699-5.112,5.661-7.557
			l7.124,5.716C50.277,74.821,48.494,77.2,46.815,79.604z M257.138,71.608c-1.854-2.268-3.81-4.505-5.814-6.647l6.672-6.238
			c2.14,2.289,4.23,4.679,6.213,7.103L257.138,71.608z M54.361,69.807l-6.968-5.905c2.021-2.385,4.154-4.739,6.339-6.995
			l6.561,6.354C58.248,65.373,56.252,67.575,54.361,69.807z M248.88,62.415c-2.065-2.092-4.221-4.137-6.41-6.079l6.062-6.832
			c2.339,2.076,4.643,4.261,6.848,6.496L248.88,62.415z M62.783,60.759l-6.388-6.529c2.237-2.188,4.578-4.332,6.96-6.372
			l5.941,6.938C67.067,56.704,64.876,58.711,62.783,60.759z M239.796,54.026c-2.251-1.892-4.588-3.727-6.947-5.456l5.398-7.367
			c2.522,1.847,5.02,3.809,7.425,5.831L239.796,54.026z M72.008,52.535l-5.752-7.094c2.426-1.968,4.956-3.884,7.52-5.695
			l5.271,7.458C76.647,48.901,74.279,50.694,72.008,52.535z M229.968,46.518c-2.414-1.672-4.914-3.281-7.427-4.783l4.684-7.84
			c2.689,1.606,5.361,3.328,7.943,5.115L229.968,46.518z M81.954,45.212l-5.066-7.599c2.605-1.737,5.303-3.408,8.019-4.968
			l4.549,7.92C86.915,42.023,84.391,43.586,81.954,45.212z M219.481,39.961c-2.563-1.439-5.202-2.807-7.846-4.066l3.928-8.245
			c2.827,1.347,5.65,2.81,8.39,4.348L219.481,39.961z M92.534,38.853l-4.334-8.04c2.76-1.488,5.603-2.899,8.448-4.194l3.783,8.313
			C97.772,36.143,95.115,37.461,92.534,38.853z M208.418,34.416c-2.673-1.187-5.43-2.3-8.193-3.31l3.133-8.579
			c2.957,1.079,5.907,2.271,8.768,3.542L208.418,34.416z M103.656,33.516l-3.561-8.411c2.88-1.219,5.841-2.357,8.802-3.38
			l2.985,8.632C109.115,31.313,106.348,32.377,103.656,33.516z M196.88,29.936c-2.778-0.93-5.623-1.777-8.457-2.517l2.307-8.837
			c3.033,0.792,6.079,1.698,9.051,2.694L196.88,29.936z M115.234,29.248l-2.751-8.709c2.984-0.943,6.043-1.796,9.092-2.539
			l2.16,8.875C120.885,27.568,118.024,28.367,115.234,29.248z M184.993,26.573c-2.849-0.663-5.762-1.238-8.659-1.709l1.466-9.016
			c3.099,0.505,6.215,1.119,9.262,1.828L184.993,26.573z M127.177,26.087l-1.918-8.93c3.058-0.656,6.183-1.218,9.29-1.671
			l1.315,9.039C132.959,24.947,130.036,25.473,127.177,26.087z M172.839,24.343c-2.896-0.392-5.85-0.691-8.782-0.89l0.617-9.112
			c3.133,0.211,6.293,0.532,9.39,0.951L172.839,24.343z M139.367,24.064l-1.072-9.071c3.103-0.367,6.267-0.633,9.404-0.793
			l0.465,9.121C145.229,23.471,142.27,23.72,139.367,24.064z M160.528,23.261c-2.916-0.121-5.902-0.145-8.834-0.074l-0.222-9.13
			c3.132-0.078,6.319-0.05,9.434,0.078L160.528,23.261z"/>
		<path fill="#BA9C5A" d="M155,256.901c-56.188,0-101.901-45.712-101.901-101.901S98.812,53.099,155,53.099
			S256.901,98.812,256.901,155S211.188,256.901,155,256.901z M155,54.106C99.367,54.106,54.106,99.367,54.106,155
			S99.367,255.894,155,255.894c55.633,0,100.894-45.261,100.894-100.894S210.633,54.106,155,54.106z"/>
	</g>
	<g>
		<g>
			<path fill="#BA9C5A" d="M126.565,145.196c-1.385,0.746-3.168,1.411-5.35,1.996c-2.184,0.585-4.871,0.878-8.065,0.878
				c-4.1,0-7.893-0.586-11.379-1.757c-3.487-1.17-6.536-2.94-9.143-5.31c-2.609-2.368-4.646-5.35-6.109-8.943
				c-1.465-3.594-2.196-7.838-2.196-12.737c0-4.631,0.799-8.637,2.396-12.018c1.597-3.38,3.739-6.175,6.428-8.385
				c2.688-2.208,5.789-3.846,9.303-4.911c3.514-1.064,7.159-1.597,10.94-1.597c1.49,0,2.98,0.094,4.472,0.28
				c1.49,0.187,2.875,0.439,4.152,0.758c1.278,0.32,2.396,0.653,3.354,0.999c0.958,0.347,1.703,0.679,2.236,0.998
				c0.266,0.213,0.492,0.387,0.679,0.519c0.186,0.133,0.332,0.253,0.439,0.359c0.16,0.16,0.292,0.267,0.399,0.319l1.517,11.02
				c-0.533-1.49-1.331-2.98-2.396-4.472c-1.065-1.49-2.355-2.834-3.873-4.032c-1.517-1.198-3.261-2.183-5.23-2.955
				c-1.97-0.771-4.126-1.158-6.468-1.158c-2.555,0-5.058,0.613-7.506,1.837c-2.449,1.225-4.619,2.915-6.508,5.07
				c-1.891,2.156-3.408,4.725-4.552,7.706c-1.146,2.982-1.717,6.202-1.717,9.662c0,3.673,0.545,7.095,1.637,10.261
				c1.091,3.168,2.596,5.923,4.512,8.265c1.917,2.343,4.192,4.18,6.828,5.51c2.635,1.332,5.47,1.997,8.504,1.997
				c2.236,0,4.218-0.319,5.949-0.958c1.729-0.639,3.274-1.558,4.631-2.755s2.582-2.635,3.673-4.312
				c1.09-1.677,2.088-3.553,2.994-5.629l-0.718,10.541C129.44,143.359,128.162,144.345,126.565,145.196z"/>
			<path fill="#BA9C5A" d="M186.854,147.432h-11.979l-18.605-45.356l-8.943,22.838h14.213l1.118,2.955h-16.449l-7.666,19.564h-3.753
				l-1.836-1.836c0.639,0,1.184-0.186,1.637-0.559c0.452-0.372,0.838-0.799,1.158-1.278c0.372-0.585,0.691-1.224,0.958-1.917
				l19.404-48.87h3.354l21.639,50.946c0.266,0.586,0.76,1.012,1.479,1.278c0.719,0.267,1.477,0.399,2.275,0.399L186.854,147.432z"/>
			<path fill="#BA9C5A" d="M216.079,120.042c2.715,1.332,4.831,2.928,6.349,4.791c1.517,1.864,2.502,3.821,2.954,5.87
				c0.452,2.05,0.386,4.086-0.199,6.108c-0.587,2.024-1.665,3.847-3.234,5.47c-1.57,1.625-3.593,2.955-6.068,3.993
				s-5.391,1.557-8.744,1.557c-3.194,0.052-5.923-0.319-8.185-1.118c-2.264-0.798-4.113-1.649-5.55-2.555
				c-1.757-1.064-3.168-2.289-4.232-3.673l-1.118-11.818c0.639,2.609,1.558,4.965,2.755,7.067c1.198,2.104,2.621,3.9,4.272,5.39
				c1.649,1.491,3.5,2.635,5.55,3.434c2.049,0.798,4.218,1.198,6.508,1.198c2.129,0,3.938-0.359,5.43-1.078
				c1.49-0.719,2.647-1.649,3.474-2.795c0.825-1.144,1.357-2.422,1.598-3.833c0.239-1.41,0.212-2.795-0.08-4.152
				c-0.293-1.357-0.853-2.635-1.677-3.833c-0.826-1.198-1.851-2.168-3.074-2.915l-13.895-7.586
				c-2.556-1.384-4.565-3.021-6.029-4.911c-1.465-1.889-2.409-3.833-2.835-5.829c-0.427-1.997-0.387-3.979,0.12-5.949
				c0.505-1.969,1.45-3.713,2.835-5.23c1.384-1.517,3.166-2.755,5.35-3.713c2.183-0.958,4.738-1.438,7.666-1.438
				c2.236,0,4.259,0.16,6.069,0.479c1.809,0.319,3.354,0.692,4.631,1.118c1.49,0.479,2.848,0.985,4.073,1.517l2.315,10.461
				c-1.864-3.514-4.22-6.335-7.067-8.464c-2.849-2.129-6.188-3.194-10.021-3.194c-1.811,0-3.354,0.347-4.631,1.038
				c-1.278,0.692-2.304,1.571-3.075,2.635c-0.771,1.065-1.277,2.263-1.517,3.593c-0.24,1.332-0.24,2.649,0,3.953
				c0.239,1.305,0.705,2.516,1.397,3.633c0.691,1.118,1.597,1.997,2.715,2.635L216.079,120.042z"/>
		</g>
		<g>
			<path fill="#BA9C5A" d="M105.288,184.349c-0.645,0.347-1.475,0.656-2.49,0.929c-1.017,0.272-2.268,0.409-3.755,0.409
				c-1.909,0-3.675-0.273-5.297-0.818c-1.623-0.544-3.043-1.369-4.257-2.472c-1.214-1.102-2.162-2.49-2.843-4.163
				c-0.682-1.673-1.022-3.648-1.022-5.929c0-2.156,0.371-4.02,1.115-5.594c0.743-1.574,1.741-2.875,2.992-3.903
				c1.251-1.028,2.695-1.79,4.331-2.286c1.635-0.495,3.333-0.743,5.093-0.743c0.694,0,1.388,0.044,2.082,0.13
				c0.694,0.087,1.338,0.205,1.933,0.353s1.115,0.304,1.561,0.465c0.446,0.161,0.793,0.316,1.041,0.465
				c0.124,0.099,0.229,0.18,0.316,0.242c0.086,0.062,0.155,0.118,0.205,0.167c0.074,0.074,0.136,0.124,0.186,0.149l0.706,5.13
				c-0.248-0.694-0.62-1.388-1.115-2.082c-0.496-0.694-1.097-1.319-1.803-1.877s-1.518-1.016-2.435-1.375
				c-0.917-0.359-1.921-0.539-3.011-0.539c-1.19,0-2.355,0.285-3.494,0.855c-1.14,0.57-2.15,1.357-3.03,2.361
				c-0.88,1.004-1.586,2.2-2.119,3.587c-0.533,1.388-0.799,2.887-0.799,4.498c0,1.71,0.254,3.303,0.762,4.777
				c0.508,1.475,1.208,2.757,2.1,3.847c0.893,1.09,1.952,1.945,3.179,2.565c1.226,0.62,2.546,0.93,3.959,0.93
				c1.041,0,1.964-0.149,2.769-0.446c0.805-0.297,1.524-0.725,2.156-1.282c0.632-0.558,1.202-1.227,1.71-2.007
				c0.507-0.781,0.972-1.654,1.394-2.621l-0.334,4.908C106.627,183.494,106.032,183.953,105.288,184.349z"/>
			<path fill="#BA9C5A" d="M133.355,185.39h-5.576l-8.661-21.115l-4.163,10.632h6.617l0.521,1.375h-7.658l-3.569,9.108h-1.747
				l-0.855-0.855c0.297,0,0.551-0.086,0.762-0.261c0.21-0.173,0.39-0.371,0.539-0.594c0.173-0.273,0.322-0.57,0.446-0.893
				l9.033-22.75h1.562l10.074,23.717c0.124,0.273,0.353,0.471,0.688,0.595c0.334,0.124,0.687,0.186,1.059,0.186L133.355,185.39z"/>
			<path fill="#BA9C5A" d="M146.96,172.639c1.264,0.62,2.249,1.363,2.955,2.23c0.706,0.868,1.165,1.778,1.375,2.732
				c0.211,0.955,0.18,1.903-0.093,2.844c-0.273,0.942-0.775,1.791-1.506,2.546c-0.731,0.756-1.673,1.375-2.825,1.859
				c-1.153,0.483-2.509,0.725-4.07,0.725c-1.487,0.024-2.758-0.149-3.81-0.52c-1.054-0.372-1.914-0.768-2.583-1.19
				c-0.818-0.496-1.475-1.066-1.97-1.71l-0.521-5.502c0.297,1.215,0.725,2.311,1.282,3.29c0.558,0.979,1.221,1.816,1.989,2.509
				c0.768,0.694,1.629,1.227,2.583,1.598c0.954,0.372,1.964,0.558,3.03,0.558c0.991,0,1.833-0.167,2.527-0.502
				c0.694-0.335,1.233-0.768,1.617-1.301c0.384-0.533,0.632-1.128,0.743-1.785c0.111-0.656,0.099-1.301-0.037-1.933
				c-0.136-0.631-0.396-1.226-0.781-1.784c-0.384-0.558-0.862-1.01-1.431-1.357l-6.469-3.531c-1.189-0.644-2.125-1.406-2.806-2.286
				c-0.682-0.88-1.122-1.785-1.32-2.714c-0.198-0.93-0.18-1.852,0.056-2.77c0.235-0.916,0.675-1.729,1.319-2.435
				c0.644-0.706,1.474-1.282,2.491-1.729c1.016-0.446,2.205-0.669,3.569-0.669c1.041,0,1.983,0.074,2.825,0.223
				c0.842,0.149,1.561,0.322,2.156,0.52c0.694,0.223,1.326,0.459,1.896,0.706l1.078,4.87c-0.868-1.635-1.964-2.949-3.29-3.94
				c-1.326-0.991-2.881-1.487-4.665-1.487c-0.843,0-1.561,0.161-2.156,0.483c-0.595,0.323-1.072,0.731-1.431,1.227
				c-0.359,0.496-0.594,1.054-0.706,1.673c-0.111,0.62-0.111,1.234,0,1.841c0.112,0.607,0.328,1.171,0.651,1.691
				c0.322,0.521,0.743,0.93,1.264,1.227L146.96,172.639z"/>
			<path fill="#BA9C5A" d="M161.458,185.39h-6.134l-0.855-0.818h0.855c0.396,0,0.644-0.124,0.743-0.372
				c0.099-0.247,0.149-0.409,0.149-0.483v-21.041c-0.025-0.297-0.099-0.582-0.223-0.855c-0.124-0.223-0.304-0.427-0.539-0.613
				c-0.236-0.186-0.564-0.279-0.985-0.279l0.855-0.892c1.338,0,2.403,0.396,3.197,1.189c0.793,0.793,1.189,1.859,1.189,3.197v19.331
				c0,0.05,0.043,0.198,0.13,0.446c0.086,0.248,0.328,0.372,0.725,0.372L161.458,185.39z"/>
			<path fill="#BA9C5A" d="M189.784,160.037l-0.893,0.892c-0.421,0-0.669,0.167-0.743,0.502c-0.074,0.335-0.112,0.75-0.112,1.245
				v22.714h-1.746v-0.037l-19.22-22.267v22.304h-2.639l-0.855-0.892h0.855c0.223,0,0.396-0.037,0.52-0.111
				c0.124-0.075,0.211-0.174,0.261-0.298c0.074-0.124,0.112-0.272,0.112-0.446v-21.003c-0.025-0.297-0.1-0.582-0.224-0.855
				c-0.124-0.223-0.304-0.427-0.539-0.613c-0.235-0.186-0.563-0.279-0.985-0.279l0.855-0.855c0.594-0.124,1.202-0.161,1.822-0.112
				c0.52,0.05,1.071,0.174,1.654,0.372c0.582,0.198,1.121,0.546,1.617,1.041l16.766,18.996v-20.297H189.784z"/>
			<path fill="#BA9C5A" d="M206.699,159.888c2.18,0,4.238,0.335,6.17,1.004c1.933,0.669,3.625,1.593,5.074,2.769
				c1.45,1.178,2.59,2.546,3.421,4.108c0.829,1.561,1.245,3.234,1.245,5.018c0,1.784-0.416,3.457-1.245,5.018
				c-0.83,1.561-1.97,2.931-3.421,4.108c-1.449,1.177-3.141,2.1-5.074,2.769c-1.933,0.669-3.991,1.003-6.17,1.003
				c-2.206,0-4.275-0.334-6.208-1.003c-1.934-0.669-3.625-1.592-5.075-2.769c-1.449-1.177-2.59-2.547-3.42-4.108
				c-0.83-1.561-1.245-3.234-1.245-5.018c0-1.785,0.415-3.457,1.245-5.018c0.829-1.562,1.97-2.931,3.42-4.108
				c1.45-1.176,3.141-2.1,5.075-2.769C202.423,160.223,204.492,159.888,206.699,159.888z M206.623,184.498
				c1.611,0,3.123-0.303,4.536-0.911c1.413-0.607,2.644-1.437,3.699-2.491c1.052-1.053,1.883-2.292,2.49-3.717
				c0.607-1.425,0.91-2.943,0.91-4.554c0-1.611-0.304-3.123-0.91-4.535c-0.608-1.413-1.438-2.645-2.49-3.698
				c-1.054-1.053-2.286-1.883-3.699-2.491c-1.413-0.607-2.925-0.911-4.536-0.911s-3.129,0.304-4.554,0.911
				c-1.425,0.608-2.663,1.438-3.717,2.491c-1.054,1.053-1.884,2.286-2.491,3.698c-0.607,1.413-0.91,2.925-0.91,4.535
				c0,1.611,0.304,3.129,0.91,4.554c0.608,1.425,1.437,2.664,2.491,3.717c1.053,1.054,2.292,1.884,3.717,2.491
				C203.494,184.194,205.012,184.498,206.623,184.498z"/>
			<path fill="#BA9C5A" d="M99.06,215.478c0,0.186,0.04,0.332,0.119,0.438c0.053,0.133,0.139,0.239,0.259,0.319
				c0.119,0.08,0.299,0.119,0.537,0.119l0.955,0.916H99.06h-3.743h-0.956l-0.916-0.916h0.916c0.239,0,0.425-0.04,0.558-0.119
				c0.132-0.08,0.225-0.186,0.278-0.319c0.08-0.106,0.12-0.252,0.12-0.438v-21.78c-0.027-0.292-0.12-0.57-0.279-0.836
				c-0.133-0.212-0.338-0.411-0.617-0.597c-0.278-0.185-0.684-0.278-1.214-0.278h-3.464c-0.531,0.027-1.009,0.133-1.433,0.319
				c-0.372,0.159-0.697,0.418-0.976,0.776c-0.278,0.359-0.418,0.856-0.418,1.493L86,193.658c0-1.141,0.239-2.017,0.717-2.628
				c0.478-0.61,1.46-0.916,2.946-0.916h2.827h15.807l-2.23,1.871H99.06V215.478z"/>
			<path fill="#BA9C5A" d="M125.139,189.955c2.335,0,4.539,0.359,6.609,1.075c2.071,0.717,3.882,1.706,5.435,2.966
				c1.553,1.261,2.774,2.727,3.663,4.4c0.889,1.672,1.334,3.464,1.334,5.375c0,1.911-0.445,3.703-1.334,5.375
				c-0.889,1.672-2.11,3.139-3.663,4.4s-3.364,2.249-5.435,2.966c-2.07,0.717-4.274,1.075-6.609,1.075
				c-2.363,0-4.579-0.358-6.649-1.075c-2.071-0.717-3.882-1.705-5.435-2.966c-1.553-1.261-2.774-2.728-3.663-4.4
				c-0.889-1.672-1.334-3.464-1.334-5.375c0-1.911,0.444-3.703,1.334-5.375c0.889-1.673,2.11-3.139,3.663-4.4
				c1.553-1.26,3.364-2.249,5.435-2.966C120.559,190.314,122.775,189.955,125.139,189.955z M125.059,216.314
				c1.726,0,3.345-0.325,4.858-0.976c1.513-0.65,2.833-1.539,3.962-2.668c1.128-1.128,2.017-2.455,2.667-3.981
				c0.65-1.526,0.976-3.152,0.976-4.877c0-1.725-0.325-3.345-0.976-4.858c-0.651-1.513-1.54-2.833-2.667-3.961
				c-1.129-1.128-2.449-2.017-3.962-2.668c-1.513-0.65-3.132-0.976-4.858-0.976c-1.726,0-3.351,0.325-4.877,0.976
				c-1.527,0.651-2.853,1.54-3.981,2.668c-1.129,1.128-2.018,2.448-2.668,3.961c-0.65,1.513-0.975,3.133-0.975,4.858
				c0,1.726,0.325,3.351,0.975,4.877c0.65,1.527,1.539,2.854,2.668,3.981c1.128,1.129,2.455,2.018,3.981,2.668
				C121.707,215.989,123.333,216.314,125.059,216.314z"/>
			<path fill="#BA9C5A" d="M165.751,217.269l-11.626-10.432c-0.425-0.292-0.823-0.571-1.194-0.836
				c-0.346-0.212-0.691-0.411-1.036-0.597c-0.345-0.185-0.664-0.278-0.955-0.278c-0.452,0-0.724,0.133-0.816,0.398
				c-0.093,0.266-0.139,0.425-0.139,0.478v11.268h-4.699l-0.916-0.916h0.916c0.239,0,0.425-0.046,0.558-0.14
				c0.132-0.093,0.225-0.205,0.278-0.338c0.08-0.132,0.12-0.292,0.12-0.478v-22.456c-0.027-0.318-0.107-0.623-0.239-0.916
				c-0.133-0.239-0.325-0.458-0.577-0.657c-0.252-0.199-0.604-0.299-1.055-0.299l0.916-0.955c1.433,0,2.575,0.425,3.424,1.274
				c0.849,0.85,1.274,1.991,1.274,3.424v9.596l14.174-14.254h3.901l-0.955,0.916c-0.717,0-1.229,0.073-1.533,0.219
				c-0.305,0.146-0.564,0.325-0.777,0.537c-0.027,0.027-0.213,0.219-0.557,0.577c-0.346,0.359-0.797,0.823-1.354,1.394
				c-0.558,0.571-1.182,1.221-1.872,1.951c-0.691,0.73-1.407,1.487-2.15,2.269c-0.743,0.783-1.48,1.553-2.21,2.309
				c-0.73,0.756-1.4,1.453-2.011,2.09l14.612,13.179c0.159,0.133,0.424,0.292,0.796,0.477c0.372,0.186,0.823,0.279,1.354,0.279
				l0.956,0.916H165.751z"/>
			<path fill="#BA9C5A" d="M173.991,217.269l-0.916-0.916h0.916c0.24,0,0.425-0.046,0.558-0.14c0.132-0.093,0.224-0.205,0.278-0.338
				c0.08-0.132,0.12-0.292,0.12-0.478v-22.416c-0.027-0.318-0.107-0.623-0.239-0.916c-0.133-0.239-0.325-0.458-0.577-0.657
				c-0.253-0.199-0.604-0.299-1.056-0.299l0.956-0.995h18.873l-3.385,2.826c-0.266-0.159-0.558-0.305-0.876-0.438
				c-0.292-0.132-0.623-0.245-0.995-0.338c-0.372-0.093-0.784-0.14-1.234-0.14v-0.04h-7.724v23.411h9.237
				c0.451,0,0.862-0.04,1.234-0.119c0.372-0.08,0.703-0.185,0.995-0.318c0.318-0.132,0.61-0.292,0.876-0.478l3.385,2.787H173.991z
				 M189.918,202.298l-1.872,1.871h-7.485v-1.871H189.918z"/>
			<path fill="#BA9C5A" d="M223.124,190.115l-0.956,0.955c-0.451,0-0.716,0.179-0.796,0.537c-0.08,0.359-0.12,0.803-0.12,1.334
				v24.328h-1.87v-0.04l-20.586-23.85v23.889h-2.826l-0.916-0.955h0.916c0.239,0,0.424-0.04,0.557-0.119
				c0.133-0.08,0.226-0.186,0.279-0.319c0.08-0.132,0.12-0.292,0.12-0.478v-22.496c-0.027-0.318-0.107-0.623-0.24-0.916
				c-0.133-0.239-0.325-0.458-0.577-0.657c-0.252-0.2-0.603-0.299-1.055-0.299l0.916-0.916c0.637-0.133,1.287-0.173,1.951-0.12
				c0.557,0.054,1.147,0.186,1.772,0.398c0.623,0.213,1.201,0.584,1.731,1.115l17.957,20.346v-21.739H223.124z"/>
		</g>
		<rect x="84.602" y="153.656" fill="#BA9C5A" width="140" height="1"/>
	</g>
</g>
</svg>
