<?xml version="1.0" encoding="UTF-8"?> <svg xmlns="http://www.w3.org/2000/svg" width="165" height="44" viewBox="0 0 165 44" fill="none"> <g clip-path="url(#clip0)"> <path d="M21.9428 31.3768C27.1007 31.3768 31.2908 27.1655 31.2908 22.0054C31.2908 16.8345 27.1007 12.6339 21.9428 12.6339C16.7849 12.6339 12.5947 16.8452 12.5947 22.0054C12.6054 27.1655 16.7849 31.3768 21.9428 31.3768Z" fill="white"></path> <path d="M21.9426 0C18.6033 0 15.4341 0.746305 12.5946 2.08965V14.361C14.8066 11.6424 18.1779 9.90453 21.9426 9.90453C28.6 9.90453 34.0025 15.3419 34.0025 22.0053C34.0025 28.6794 28.5894 34.0955 21.9426 34.0955C15.2958 34.0955 9.8827 28.6688 9.8827 22.0053V3.61425C3.92719 7.559 0.00292969 14.3184 0.00292969 22.0053C0.00292969 34.1488 9.82953 44 21.9426 44C34.0557 44 43.893 34.1488 43.893 22.0053C43.893 9.85122 34.0557 0 21.9426 0ZM34.9703 35.0443C31.3864 38.6373 26.6645 40.4391 21.9533 40.4391C17.2314 40.4391 12.5201 38.6373 8.92557 35.0443C2.08736 28.189 1.76831 17.229 7.97907 9.98982V14.8301C6.85177 17.0157 6.25622 19.4679 6.25622 21.9947C6.25622 26.1953 7.88335 30.1401 10.8505 33.1146C16.9655 39.245 26.9304 39.245 33.0454 33.1146C33.5665 32.5922 34.4279 32.5922 34.9703 33.1146C35.4914 33.6477 35.4914 34.5113 34.9703 35.0443ZM34.9703 10.8747C34.4386 11.3971 33.5771 11.3971 33.0454 10.8747C28.0896 5.90647 20.6133 4.9576 14.7003 8.03877V5.03223C21.4109 2.16428 29.504 3.46499 34.9597 8.945C35.4914 9.47807 35.4914 10.3417 34.9703 10.8747Z" fill="white"></path> <path d="M51.9649 32.5069C51.7416 32.315 51.6353 32.0485 51.6353 31.718V12.2821C51.6353 11.9729 51.731 11.7063 51.9437 11.5038C52.1457 11.3012 52.401 11.1946 52.72 11.1946H59.42C60.526 11.1946 61.515 11.4291 62.4083 11.8982C63.3017 12.3673 64.0036 13.0177 64.5353 13.8493C65.0564 14.6809 65.3223 15.6084 65.3223 16.6426C65.3223 17.6235 65.0564 18.4977 64.5353 19.2653C64.0142 20.0436 63.3123 20.6407 62.4296 21.0671C63.6952 21.419 64.6948 22.048 65.4393 22.9649C66.1731 23.8818 66.5453 25.0225 66.5453 26.4085C66.5453 27.6453 66.2582 28.7434 65.6945 29.7136C65.1202 30.6838 64.3439 31.4408 63.3336 31.9845C62.3339 32.5282 61.1853 32.7948 59.8985 32.7948H52.8689C52.4754 32.7948 52.1883 32.6988 51.9649 32.5069ZM59.4093 20.2142C60.526 20.2142 61.4406 19.8944 62.1531 19.2653C62.8656 18.6256 63.2166 17.7621 63.2166 16.6533C63.2166 15.5871 62.8656 14.7555 62.1637 14.1691C61.4618 13.5828 60.5472 13.2842 59.4093 13.2842H53.7835V20.2249H59.4093V20.2142ZM59.8773 30.7264C61.2172 30.7264 62.3126 30.332 63.1422 29.5537C63.9823 28.7754 64.3971 27.7199 64.3971 26.4192C64.3971 25.1611 63.9823 24.1696 63.1422 23.4233C62.302 22.677 61.2172 22.3039 59.8773 22.3039H53.7835V30.7371H59.8773V30.7264Z" fill="white"></path> <path d="M70.9483 14.361C70.6612 14.0625 70.5229 13.7107 70.5229 13.2842C70.5229 12.8471 70.6718 12.4846 70.959 12.2074C71.2568 11.9302 71.6077 11.7916 72.0331 11.7916C72.4372 11.7916 72.7882 11.9302 73.0859 12.2074C73.3837 12.4846 73.522 12.8471 73.522 13.2842C73.522 13.7107 73.3731 14.0625 73.0859 14.361C72.7882 14.6596 72.4372 14.7982 72.0118 14.7982C71.5864 14.7982 71.2355 14.6489 70.9483 14.361ZM71.2674 32.4962C71.0653 32.2937 70.959 32.0378 70.959 31.718V18.7536C70.959 18.4444 71.0547 18.1779 71.2674 17.9753C71.4694 17.7727 71.7247 17.6661 72.0437 17.6661C72.3521 17.6661 72.6074 17.7727 72.7988 17.9753C72.9902 18.1779 73.0859 18.4337 73.0859 18.7536V31.718C73.0859 32.0271 72.9902 32.2937 72.7988 32.4962C72.6074 32.6988 72.3521 32.8054 72.0437 32.8054C71.7247 32.7948 71.4694 32.6988 71.2674 32.4962Z" fill="white"></path> <path d="M85.8584 30.9717C86.0391 31.1742 86.1349 31.4301 86.1349 31.75C86.1349 32.0485 86.0285 32.2937 85.8052 32.4963C85.5818 32.6988 85.3053 32.8054 84.9757 32.8054H84.4014C83.423 32.8054 82.5509 32.5709 81.7852 32.1018C81.0089 31.6327 80.4133 30.993 79.9773 30.1934C79.5412 29.3938 79.3285 28.4875 79.3285 27.4747V20.0969H77.5312C77.2335 20.0969 76.9995 20.0117 76.8293 19.8304C76.6592 19.6598 76.5635 19.4359 76.5635 19.1801C76.5635 18.9029 76.6486 18.679 76.8293 18.4977C76.9995 18.3271 77.2335 18.2312 77.5312 18.2312H79.3285V13.9453C79.3285 13.6361 79.4243 13.3695 79.6157 13.167C79.8071 12.9644 80.0623 12.8578 80.3708 12.8578C80.6792 12.8578 80.945 12.9644 81.1471 13.167C81.3492 13.3695 81.4555 13.6254 81.4555 13.9453V18.2312H84.5715C84.8693 18.2312 85.1033 18.3165 85.2734 18.4977C85.4436 18.6683 85.5393 18.9029 85.5393 19.1801C85.5393 19.4359 85.4542 19.6598 85.2734 19.8304C85.1033 20.001 84.8693 20.0969 84.5715 20.0969H81.4555V27.4747C81.4555 28.4129 81.732 29.1805 82.285 29.7882C82.8381 30.3853 83.54 30.6838 84.412 30.6838H85.1565C85.433 30.6625 85.6669 30.7691 85.8584 30.9717Z" fill="white"></path> <path d="M94.1535 31.5793C92.5158 30.5878 91.2183 29.2338 90.2505 27.5386C89.2828 25.8435 88.8042 23.9884 88.8042 21.984C88.8042 19.9903 89.2828 18.1459 90.2399 16.4507C91.197 14.7555 92.4945 13.4121 94.1323 12.41C95.77 11.4184 97.5673 10.9174 99.5348 10.9174C100.854 10.9174 102.066 11.1093 103.151 11.4931C104.235 11.8769 105.278 12.4953 106.299 13.3482C106.501 13.4974 106.607 13.7107 106.607 13.9879C106.607 14.1371 106.575 14.2651 106.501 14.393C106.426 14.5103 106.33 14.5956 106.192 14.6595C106.16 14.7875 106.075 14.8941 105.948 14.9687C105.82 15.0434 105.682 15.0753 105.533 15.0753C105.256 15.0753 105.022 14.9901 104.842 14.8301C104.129 14.1904 103.342 13.7107 102.502 13.4228C101.651 13.1243 100.673 12.9857 99.5561 12.9857C98.014 12.9857 96.5783 13.3908 95.2596 14.2118C93.9408 15.0327 92.888 16.1308 92.101 17.5168C91.3247 18.9028 90.9312 20.3954 90.9312 21.9947C90.9312 23.6365 91.314 25.1505 92.0904 26.5258C92.8667 27.9118 93.9089 29.0099 95.2383 29.8202C96.557 30.6305 98.0034 31.0356 99.5667 31.0356C101.566 31.0356 103.385 30.3959 105.001 29.1059C105.203 28.9566 105.405 28.882 105.607 28.882C105.884 28.882 106.118 28.9779 106.32 29.1698C106.522 29.3618 106.628 29.6176 106.628 29.9268C106.628 30.2253 106.522 30.4812 106.32 30.7051C104.597 32.2937 102.342 33.0826 99.5667 33.0826C97.578 33.072 95.7913 32.5709 94.1535 31.5793Z" fill="white"></path> <path d="M111.35 31.4513C110.638 30.5558 110.287 29.415 110.287 28.0077V12.2606C110.287 11.9515 110.382 11.6956 110.595 11.5037C110.797 11.3118 111.042 11.2158 111.339 11.2158C111.648 11.2158 111.903 11.3118 112.095 11.5037C112.286 11.6956 112.382 11.9515 112.382 12.2606V28.0183C112.382 28.8073 112.541 29.4576 112.86 29.9587C113.179 30.4598 113.594 30.705 114.083 30.705H114.775C115.051 30.705 115.274 30.801 115.434 30.9929C115.604 31.1848 115.678 31.4407 115.678 31.7499C115.678 32.059 115.562 32.3149 115.338 32.5068C115.104 32.6987 114.806 32.7947 114.445 32.7947H114.083C112.967 32.7947 112.052 32.3469 111.35 31.4513Z" fill="white"></path> <path d="M128.887 18.5403C130.057 19.212 130.971 20.1395 131.641 21.323C132.311 22.5064 132.652 23.8071 132.652 25.2464V31.7392C132.652 32.0378 132.545 32.283 132.343 32.4856C132.141 32.6881 131.886 32.7947 131.567 32.7947C131.258 32.7947 130.992 32.6988 130.79 32.5069C130.588 32.315 130.482 32.0591 130.482 31.7499V30.0867C129.833 30.9716 129.025 31.6646 128.025 32.1764C127.036 32.6881 125.941 32.9333 124.739 32.9333C123.346 32.9333 122.08 32.5922 120.943 31.9205C119.815 31.2488 118.922 30.3213 118.263 29.1592C117.614 27.9864 117.284 26.6857 117.284 25.2464C117.284 23.8071 117.624 22.4957 118.294 21.323C118.964 20.1395 119.879 19.2226 121.049 18.5403C122.219 17.8686 123.516 17.5275 124.952 17.5275C126.42 17.5381 127.717 17.8686 128.887 18.5403ZM127.823 30.2573C128.663 29.7562 129.333 29.0739 129.823 28.1996C130.312 27.3254 130.556 26.3445 130.556 25.2571C130.556 24.1696 130.312 23.1887 129.823 22.3145C129.333 21.4402 128.674 20.7472 127.823 20.2461C126.973 19.7344 126.026 19.4892 124.984 19.4892C123.942 19.4892 122.984 19.7451 122.134 20.2461C121.283 20.7579 120.613 21.4402 120.124 22.3145C119.634 23.1887 119.39 24.1696 119.39 25.2571C119.39 26.3445 119.634 27.3254 120.124 28.1996C120.613 29.0739 121.283 29.7562 122.134 30.2573C122.984 30.7584 123.942 31.0036 124.984 31.0036C126.026 31.0036 126.973 30.7477 127.823 30.2573Z" fill="white"></path> <path d="M148.444 18.647C148.444 18.7536 148.412 18.8815 148.359 19.0308L142.319 32.0805C142.085 32.5602 141.734 32.7948 141.266 32.7948C140.83 32.7948 140.489 32.5602 140.277 32.0805L134.151 19.0628C134.098 18.9562 134.066 18.8282 134.066 18.679C134.066 18.2952 134.268 17.9966 134.672 17.7941C134.8 17.7194 134.949 17.6875 135.108 17.6875C135.289 17.6875 135.459 17.7301 135.619 17.8261C135.778 17.922 135.884 18.0606 135.959 18.2419L141.255 29.7456L146.498 18.2419C146.572 18.0606 146.689 17.9114 146.86 17.8154C147.03 17.7194 147.211 17.6661 147.413 17.6661C147.583 17.6661 147.721 17.6981 147.849 17.7728C148.253 17.9433 148.444 18.2419 148.444 18.647Z" fill="white"></path> <path d="M160.695 18.487C161.748 19.1266 162.556 20.0009 163.131 21.131C163.705 22.2505 164.003 23.5405 164.003 24.9691C164.003 25.2677 163.907 25.5022 163.726 25.6728C163.545 25.8434 163.301 25.9393 163.014 25.9393H151.868C152.017 27.4533 152.602 28.6793 153.634 29.6176C154.665 30.5558 155.952 31.0249 157.494 31.0249C158.154 31.0249 158.824 30.9076 159.494 30.6837C160.164 30.4492 160.706 30.1613 161.11 29.8095C161.344 29.6282 161.599 29.5323 161.854 29.5323C162.057 29.5323 162.259 29.6069 162.461 29.7562C162.695 29.9801 162.822 30.2253 162.822 30.5025C162.822 30.737 162.716 30.9503 162.514 31.1422C161.908 31.6539 161.131 32.091 160.195 32.4322C159.26 32.7734 158.356 32.944 157.494 32.944C156.027 32.944 154.708 32.6134 153.549 31.9631C152.389 31.3127 151.486 30.3959 150.837 29.2231C150.188 28.0503 149.858 26.7283 149.858 25.257C149.858 23.7644 150.167 22.4317 150.784 21.2589C151.4 20.0862 152.251 19.18 153.347 18.5189C154.442 17.8686 155.686 17.5381 157.079 17.5381C158.441 17.5381 159.642 17.8579 160.695 18.487ZM153.602 20.7472C152.687 21.6108 152.124 22.7516 151.922 24.1802H162.014C161.865 22.7622 161.355 21.6214 160.472 20.7472C159.589 19.8836 158.462 19.4465 157.079 19.4465C155.686 19.4465 154.527 19.873 153.602 20.7472Z" fill="white"></path> </g> <defs> <clipPath id="clip0"> <rect width="164" height="44" fill="white" transform="translate(0.00292969)"></rect> </clipPath> </defs> </svg> 