<?xml version="1.0" encoding="UTF-8"?>
<!DOCTYPE svg PUBLIC "-//W3C//DTD SVG 1.0//EN" "http://www.w3.org/TR/2001/REC-SVG-20010904/DTD/svg10.dtd">
<!-- Creator: CorelDRAW X8 -->
<svg xmlns="http://www.w3.org/2000/svg" xml:space="preserve" width="815px" height="700px" version="1.0" shape-rendering="geometricPrecision" text-rendering="geometricPrecision" image-rendering="optimizeQuality" fill-rule="evenodd" clip-rule="evenodd"
viewBox="0 0 8535581 7332147"
 xmlns:xlink="http://www.w3.org/1999/xlink">
 <g id="Слой_x0020_1">
  <metadata id="CorelCorpID_0Corel-Layer"/>
  <path fill="#00B5E2" fill-rule="nonzero" d="M32215 6303942l-16194 -40380c-10738,-26970 -16021,-79116 -16021,-156326 0,-77247 10738,-142890 32215,-196917 21477,-53902 50501,-94097 87108,-120894 36496,-26759 74204,-45527 112691,-56611 38711,-10912 81009,-16492 126870,-16492 73635,0 155286,18063 245326,53853l0 170640c-76555,-36483 -154631,-54719 -234105,-54719 -52678,0 -94617,16009 -125954,48088 -31387,32042 -47049,89817 -47049,173052 0,83186 15662,140800 47049,173003 31337,32079 73276,48100 125954,48100 79474,0 157550,-18248 234105,-54905l0 170813c-90386,35840 -172223,53729 -245326,53729 -45861,0 -88159,-5455 -126870,-16367 -38487,-11085 -76195,-30026 -112691,-56600 -36607,-26759 -65631,-66991 -87108,-121067zm733257 186178l0 -764766 301752 0c93269,0 168116,21823 224196,65284 56266,43473 84374,104489 84374,183271 0,60533 -13968,110279 -42076,149348 -27972,38834 -65333,66113 -112036,81305l184830 285558 -219915 0 -142371 -255879 -81652 0 0 255879 -197102 0zm197102 -403705l116923 0c26970,0 50142,-9205 69565,-27972 19287,-18545 28974,-42422 28974,-71581 0,-29853 -9687,-54200 -28974,-72794 -19423,-18768 -42595,-27972 -69565,-27972l-116923 0 0 200319zm498805 -361061l239735 0 162264 291150 163006 -291150 239697 0 -303459 442898 0 321868 -197746 0 0 -321868 -303497 -442898zm919918 764766l0 -764766 309781 0c92576,0 164368,23518 215511,70566 51156,47049 76691,112865 76691,197585 0,85573 -25535,151748 -76691,198797 -51143,47036 -122935,70567 -215511,70567l-112506 0 0 227251 -197275 0zm197275 -389565l93912 0c39589,0 68748,-10565 87120,-31683 18421,-21168 27799,-46220 27799,-75367 0,-28281 -9205,-53383 -27453,-75033 -18421,-21650 -47395,-32376 -87466,-32376l-93912 0 0 214459zm466936 -196570l0 -178631 639345 0 0 178631 -222154 0 0 586135 -197263 0 0 -586135 -219928 0zm722865 367222l-10911 -35444c-7337,-23691 -10912,-66645 -10912,-128527 0,-62068 7163,-116613 21823,-164009 14487,-47407 33391,-85066 56785,-112864 23345,-27812 51280,-50637 83656,-68390 32611,-17728 64468,-29469 95842,-35444 31386,-5976 64950,-9031 100728,-9031 35840,0 69404,3055 100778,9031 31387,5975 63243,17716 95805,35444 32376,17753 60348,40578 83705,68390 23345,27798 42286,65457 56773,112864 14672,47396 21823,101941 21823,164009 0,61882 -7151,116576 -21823,163971 -14487,47395 -33428,85104 -56773,112865 -23357,27799 -51329,50624 -83705,68390 -32562,17716 -64418,29493 -95805,35432 -31374,5975 -64938,9031 -100778,9031 -35778,0 -69342,-3056 -100728,-9031 -31374,-5939 -63231,-17716 -95842,-35432 -32376,-17766 -60311,-40591 -83656,-68390 -23394,-27761 -42298,-65470 -56785,-112865zm219396 -337023l-21997 24050c-14833,16021 -22169,65767 -22169,149002 0,83186 14660,140800 44166,173003 29506,32079 68699,48100 117615,48100 48979,0 88172,-16021 117665,-48100 29506,-32203 44129,-89817 44129,-173003 0,-83235 -14623,-141010 -44129,-173052 -29493,-32079 -68686,-48088 -117665,-48088 -48916,0 -88109,16009 -117615,48088zm0 0z"/>
  <path fill="#00B5E2" fill-rule="nonzero" d="M4881459 6490120l0 -764766 253664 0c169465,0 254184,68166 254184,204376 0,21304 -2709,41123 -8338,59358 -5629,18248 -12446,32871 -20475,43647 -7979,10912 -15835,20252 -23518,28281 -7683,8029 -14672,13485 -20957,16541l-7856 5629c3761,655 8338,2227 13670,4404 5407,2227 15663,8388 30508,18421 14970,10083 27923,21650 39008,34442 10911,12953 20994,31201 30211,54893 9204,23703 13608,49807 13608,78088 0,144586 -92390,216686 -276997,216686l-276712 0zm82839 -76727l200504 0c58307,0 104181,-10034 137732,-30508 33613,-20290 50463,-58307 50463,-113867 0,-23519 -4070,-43820 -12099,-60707 -8029,-17060 -17889,-30335 -29321,-39713 -11567,-9563 -26586,-16887 -44821,-21996 -18421,-4936 -35308,-8202 -50983,-9736 -15712,-1522 -33774,-2227 -54373,-2227l-197102 0 0 278754zm0 -356657l189246 0c46690,0 83879,-7980 111851,-24001 27761,-16058 41593,-48100 41593,-96324 0,-49622 -13485,-84052 -40591,-103351 -27094,-19238 -68216,-28801 -123418,-28801l-178681 0 0 252477zm940739 442416c-236283,0 -354430,-130581 -354430,-391916 0,-261384 118147,-391965 354430,-391965 236950,0 355617,130581 355617,391965 0,261335 -118667,391916 -355617,391916zm-206653 -630426l-32723 37659c-21823,25226 -32735,92217 -32735,200851 0,108584 21824,188021 65458,238472 43646,50488 112555,75540 206653,75540 94802,0 164021,-25052 207482,-75540 43473,-50451 65123,-129888 65123,-238472 0,-108634 -21650,-188232 -65123,-238510 -43461,-50500 -112680,-75725 -207482,-75725 -94098,0 -163007,25225 -206653,75725zm721825 621394l0 -764766 93974 0 456383 644392 0 -644392 82827 0 0 764766 -92909 0 -457386 -644442 0 644442 -82889 0zm824125 -314012l0 -450754 82889 0 0 455158c0,161967 76023,243137 228254,243137 152095,0 228130,-81170 228130,-243137l0 -455158 82307 0 0 450754c0,104823 -26759,184953 -80439,240217 -53544,55201 -130272,82827 -230345,82827 -100085,0 -176763,-27799 -230492,-83186 -53507,-55424 -80304,-135381 -80304,-239858zm786813 -248073c0,-58962 21304,-109289 64072,-150709 42632,-41407 109277,-62055 199663,-62055 64950,0 128713,15192 191424,45341l0 85066c-56736,-32029 -117962,-48050 -183605,-48050 -61189,0 -108065,11084 -140626,33563 -32426,22343 -48794,54546 -48794,96844 0,26092 10615,47915 31733,65470 21118,17543 47049,30496 78077,38884 31027,8511 64950,19250 101606,32202 36830,13139 70567,27280 101422,42645 30730,15316 56785,39020 77779,71049 21118,32079 31683,71099 31683,116972 0,63590 -23876,113385 -71568,149522 -47928,36310 -114573,54373 -199985,54373 -83223,0 -158726,-17890 -226250,-53680l0 -89681c60534,40715 133810,61004 220101,61004 129925,0 195049,-40368 195395,-121538 0,-34268 -10615,-63069 -31559,-86414 -21168,-23358 -47222,-40418 -78250,-51156l-101260 -33774c-36657,-11926 -70431,-24013 -101471,-36323 -30855,-12260 -56909,-32030 -78077,-59136 -20944,-26920 -31510,-60533 -31510,-100419zm0 0z"/>
  <path fill="#00B5E2" fill-rule="nonzero" d="M3299569 7326159l0 -509890 59655 0 175056 259121 175787 -259121 59828 0 0 509890 -55424 0 0 -419541 -180191 259813 -179510 -259813 0 419541 -55201 0zm604321 0l0 -509890 55251 0 0 509890 -55251 0zm187007 0l0 -509890 55251 0 0 456557 260519 0 0 53333 -315770 0zm398250 0l0 -509890 321695 0 0 51812 -266444 0 0 175922 234415 0 0 53730 -234415 0 0 176627 266444 0 0 51799 -321695 0zm410560 -374719c0,-39366 14313,-72806 42768,-100382 28454,-27626 72806,-41469 133154,-41469 43300,0 85771,10083 127711,30211l0 56773c-37882,-21514 -78782,-32253 -122602,-32253 -40764,0 -71927,7510 -93565,22529 -21700,14833 -32611,36483 -32611,64591 0,17407 7212,31906 21167,43634 13968,11617 31387,20302 51985,25931 20821,5629 43300,12792 67870,21477 24520,8684 47049,18062 67511,28318 20599,10219 37844,26054 51985,47395 13967,21477 20994,47407 20994,78089 0,42236 -15897,75503 -47753,99726 -31906,24038 -76196,36137 -133328,36137 -55387,0 -105702,-11926 -150709,-35791l0 -59840c40244,27279 89174,40727 146602,40727 86637,0 130111,-26933 130284,-80959 0,-22875 -6990,-42125 -20995,-57664 -14140,-15662 -31510,-26920 -52158,-34256l-67511 -22306c-24359,-8029 -46875,-16058 -67523,-24223 -20772,-8376 -38018,-21465 -52158,-39403 -13955,-18075 -21118,-40369 -21118,-66992zm0 0z"/>
  <path fill="#00B5E2" fill-rule="nonzero" d="M0 7078619l0 -15502 3066676 0 0 15502 -3066676 0zm5468955 -15502l3066626 0 0 15502 -3066626 0 0 -15502zm0 0z"/>
  <path fill="#00B5E2" fill-rule="nonzero" d="M4121628 0l0 753026 -1391481 753027 0 1506065 1391481 941382 0 753026 -2046315 -1176662 0 -2400238 2046315 -1129626zm0 0z"/>
  <path fill="#A6E6F5" fill-rule="nonzero" d="M4413991 0l0 753026 1391505 753027 0 1506065 -1391505 941382 0 753026 2046289 -1176662 0 -2400238 -2046289 -1129626zm0 0z"/>
  <path fill="#00B5E2" fill-rule="nonzero" d="M3289127 2527936l-14140 -35964c-9551,-23877 -14314,-70097 -14314,-138783 0,-68526 9563,-126659 28454,-174586 19127,-47915 44872,-83706 77433,-107397 32377,-23530 65817,-40418 100073,-50104 34257,-9737 71755,-14673 112506,-14673 65297,0 137732,15848 217689,47704l0 151576c-67994,-32562 -137200,-48744 -207816,-48744 -46703,0 -83891,14314 -111640,42768 -27985,28504 -41766,79648 -41766,153456 0,73969 13781,125125 41766,153579 27749,28492 64937,42818 111640,42818 70616,0 139822,-16368 207816,-48756l0 151526c-80304,31732 -152739,47754 -217689,47754 -40751,0 -78249,-4937 -112506,-14661 -34256,-9872 -67696,-26586 -100073,-50277 -32561,-23704 -58306,-59321 -77433,-107236zm650727 165184l0 -678699 229998 0c179164,0 268844,63416 268844,190286 0,21823 -3575,41073 -10738,57613 -6978,16541 -16887,29680 -29506,39540 -12607,9736 -23345,16887 -32030,21291 -8858,4454 -18940,8734 -30508,12656 90695,25881 136037,82493 136037,169959 0,124952 -93961,187354 -281637,187354l-250460 0zm174920 -143534l103302 0c22875,346 42471,-5456 58665,-17382 16888,-12656 25399,-31547 25399,-56773 0,-25052 -9563,-43473 -28454,-55077 -18768,-11617 -39552,-17370 -62068,-17370l-96844 0 0 146602zm0 -269376l89867 0c16367,0 31027,-5110 44289,-15316 13139,-10429 19820,-24224 19820,-41816 0,-23172 -7510,-40022 -22875,-50451 -15143,-10379 -32376,-15662 -51626,-15662l-79475 0 0 123245zm496269 412910l0 -678699 172050 0 159914 231000 159555 -231000 172346 0 0 678699 -175402 0 0 -420420 -156499 225210 -157031 -225210 0 420420 -174933 0zm0 0z"/>
 </g>
</svg>
