<svg xmlns="http://www.w3.org/2000/svg" xmlns:xlink="http://www.w3.org/1999/xlink" width="189.999" height="46.434" viewBox="0 0 189.999 46.434">
  <defs>
    <linearGradient id="linear-gradient" x1="0.106" y1="0.842" x2="0.831" y2="0.213" gradientUnits="objectBoundingBox">
      <stop offset="0" stop-color="#339850"/>
      <stop offset="1" stop-color="#31b757"/>
    </linearGradient>
    <linearGradient id="linear-gradient-2" x1="0.169" y1="0.787" x2="0.894" y2="0.159" gradientUnits="objectBoundingBox">
      <stop offset="0" stop-color="#32a753"/>
      <stop offset="1" stop-color="#31c25a"/>
    </linearGradient>
  </defs>
  <g id="Symbol_346_3" data-name="Symbol 346 – 3" transform="translate(-180 -176)">
    <g id="Group_322" data-name="Group 322" transform="translate(180 176)">
      <g id="Group_319" data-name="Group 319" transform="translate(0)">
        <path id="Path_151" data-name="Path 151" d="M500.184,352.349v12.189l-20.107,11.606-20.107-11.606V341.319l20.107-11.61,8.043,4.645-20.107,11.61v13.93l12.064,6.965,12.064-6.965V347.7Z" transform="translate(-459.971 -329.709)" fill="url(#linear-gradient)"/>
        <path id="Path_152" data-name="Path 152" d="M549.758,341.319v23.219l-20.107,11.606-8.043-4.641,20.107-11.61v-13.93L529.651,339l-12.064,6.965v12.189l-8.043-4.645V341.319l20.107-11.61Z" transform="translate(-488.432 -329.709)" fill="url(#linear-gradient-2)"/>
      </g>
      <g id="Group_320" data-name="Group 320" transform="translate(75.812 25.009)">
        <path id="Path_153" data-name="Path 153" d="M637.988,390.669h7.082c3.916,0,5.4,2.042,5.4,4.148a3.7,3.7,0,0,1-2.063,3.514,3.865,3.865,0,0,1,2.527,3.695c0,2.774-2.179,4.853-5.627,4.853h-7.321Zm6.68,6.394c1.665,0,2.353-.747,2.353-1.886,0-1.188-.9-1.8-2.253-1.8h-3.34v3.686Zm-3.24,7.108h3.162c1.894,0,2.752-.792,2.752-2.261,0-1.307-.843-2.14-2.772-2.14h-3.142Z" transform="translate(-637.988 -389.717)"/>
        <path id="Path_154" data-name="Path 154" d="M673.21,405.595V388.433h3.369v17.162Z" transform="translate(-658.21 -388.433)"/>
        <path id="Path_155" data-name="Path 155" d="M697.443,405.836c0,3.682-2.2,6.39-6.059,6.39-3.774,0-5.977-2.692-5.977-6.326,0-3.755,2.272-6.408,6.136-6.408C695.125,399.493,697.443,402.021,697.443,405.836Zm-8.616.024c0,2.342,1.008,3.73,2.631,3.73,1.649,0,2.566-1.389,2.566-3.71,0-2.546-.935-3.751-2.613-3.751C689.848,402.13,688.827,403.287,688.827,405.86Z" transform="translate(-665.213 -394.783)"/>
        <path id="Path_156" data-name="Path 156" d="M728.051,408.012c-.419,2.028-1.845,4.214-5.471,4.214-3.788,0-5.735-2.621-5.735-6.278,0-3.593,2.192-6.455,5.9-6.455,4.1,0,5.243,2.944,5.31,4.32h-3.289a1.9,1.9,0,0,0-2.085-1.684c-1.54,0-2.413,1.35-2.413,3.71,0,2.591.923,3.771,2.4,3.771a2.069,2.069,0,0,0,2.079-1.6Z" transform="translate(-683.262 -394.783)"/>
        <path id="Path_157" data-name="Path 157" d="M750.881,398.56c.9-1.214,2.511-3.1,4.189-5.134h3.865l-4.241,4.6,4.642,7.573h-3.817l-3.079-5.414-1.559,1.508v3.905h-3.369V388.433h3.369Z" transform="translate(-700.869 -388.433)"/>
      </g>
      <g id="Group_321" data-name="Group 321" transform="translate(75.011 4.007)">
        <path id="Path_158" data-name="Path 158" d="M650.667,350.564c-.652,3.024-2.932,5.227-6.991,5.227-5.14,0-7.57-3.638-7.57-8.249,0-4.444,2.507-8.425,7.738-8.425,4.316,0,6.408,2.534,6.8,5.243h-3.505a3.178,3.178,0,0,0-3.411-2.494c-2.89,0-4.007,2.6-4.007,5.55,0,2.74.969,5.627,4.1,5.627a3.224,3.224,0,0,0,3.315-2.478Z" transform="translate(-636.107 -339.117)"/>
        <path id="Path_159" data-name="Path 159" d="M686.149,354.836c0,3.682-2.2,6.39-6.059,6.39-3.774,0-5.977-2.692-5.977-6.325,0-3.755,2.272-6.408,6.136-6.408C683.831,348.493,686.149,351.021,686.149,354.836Zm-8.616.024c0,2.342,1.008,3.73,2.631,3.73,1.649,0,2.566-1.389,2.566-3.71,0-2.546-.935-3.751-2.613-3.751C678.554,351.13,677.533,352.287,677.533,354.86Z" transform="translate(-657.927 -344.5)"/>
        <path id="Path_160" data-name="Path 160" d="M706.819,351.911c0-1.052,0-2.1-.023-3.136h3.221c.045.3.112.976.13,1.451a3.8,3.8,0,0,1,3.382-1.733,3.214,3.214,0,0,1,3.14,1.852,4.22,4.22,0,0,1,3.749-1.852c2.121,0,3.857,1.3,3.857,4.468v7.983h-3.287v-7.573c0-1.1-.4-2.174-1.778-2.174-1.432,0-1.99.923-1.99,2.79v6.957h-3.3V353.5c0-1.261-.311-2.28-1.749-2.28-1.37,0-2.02.842-2.02,2.93v6.8h-3.328Z" transform="translate(-676.692 -344.5)"/>
        <path id="Path_161" data-name="Path 161" d="M753.814,351.911c0-1.052,0-2.1-.023-3.136h3.221c.045.3.112.976.13,1.451a3.8,3.8,0,0,1,3.382-1.733,3.215,3.215,0,0,1,3.14,1.852,4.219,4.219,0,0,1,3.749-1.852c2.121,0,3.857,1.3,3.857,4.468v7.983h-3.287v-7.573c0-1.1-.4-2.174-1.778-2.174-1.432,0-1.99.923-1.99,2.79v6.957h-3.3V353.5c0-1.261-.311-2.28-1.75-2.28-1.369,0-2.02.842-2.02,2.93v6.8h-3.328Z" transform="translate(-703.673 -344.5)"/>
        <path id="Path_162" data-name="Path 162" d="M802.769,355.58c0,1.522.765,3.01,2.442,3.01a1.919,1.919,0,0,0,2.123-1.3h3.372a5.331,5.331,0,0,1-5.584,3.936c-4.008,0-5.747-3-5.747-6.19,0-3.818,1.959-6.544,5.868-6.544,4.18,0,5.6,3.024,5.6,6.061a7.384,7.384,0,0,1-.045,1.026Zm4.7-2.069c-.023-1.417-.589-2.609-2.231-2.609-1.614,0-2.264,1.113-2.4,2.609Z" transform="translate(-729.845 -344.5)"/>
        <path id="Path_163" data-name="Path 163" d="M830.859,352.076c0-1.209,0-2.283-.023-3.3h3.3c.044.273.089,1.48.089,2.136a3.9,3.9,0,0,1,3.9-2.418v3.215c-2.446-.063-3.9.6-3.9,3.931v5.305h-3.369Z" transform="translate(-747.907 -344.5)"/>
        <path id="Path_164" data-name="Path 164" d="M861.057,357.012c-.419,2.028-1.845,4.214-5.472,4.214-3.787,0-5.735-2.621-5.735-6.278,0-3.593,2.192-6.455,5.9-6.455,4.1,0,5.243,2.944,5.31,4.32h-3.289a1.9,1.9,0,0,0-2.085-1.684c-1.54,0-2.412,1.35-2.412,3.71,0,2.591.923,3.771,2.4,3.771a2.069,2.069,0,0,0,2.079-1.6Z" transform="translate(-758.824 -344.5)"/>
        <path id="Path_165" data-name="Path 165" d="M882.578,355.58c0,1.522.765,3.01,2.443,3.01a1.919,1.919,0,0,0,2.123-1.3h3.372a5.332,5.332,0,0,1-5.584,3.936c-4.008,0-5.747-3-5.747-6.19,0-3.818,1.959-6.544,5.868-6.544,4.18,0,5.6,3.024,5.6,6.061a7.455,7.455,0,0,1-.044,1.026Zm4.7-2.069c-.023-1.417-.589-2.609-2.231-2.609-1.615,0-2.264,1.113-2.4,2.609Z" transform="translate(-775.665 -344.5)"/>
      </g>
    </g>
  </g>
</svg>
