<svg xmlns="http://www.w3.org/2000/svg" xmlns:xlink="http://www.w3.org/1999/xlink" viewBox="0 0 350.6 168"><style>.st0{display:none}.st1,.st2{display:inline}.st2,.st3{opacity:.47}.st4{stroke-width:2}.st4,.st5{display:inline;fill:none;stroke:#fff;stroke-miterlimit:10}.st6{fill:#fff}.st7{fill:#69581e}.st8{fill:#d7a938}.st9{fill:none;stroke:#000;stroke-width:1.1231;stroke-miterlimit:10}.st10{fill:#9f8129}.st11{fill:#ffd337}.st12{fill:#e1b423}.st13{fill:#a5801c}.st14{fill:none;stroke:#fff;stroke-width:.5;stroke-miterlimit:10}.st15{fill:#53609f}.st16{fill:#3d4c93}.st17{fill:#283887}.st18{opacity:.66}.st19{fill:#485699}.st20{fill:#3d3d3d}.st21,.st22{fill:none;stroke:#fff;stroke-miterlimit:10}.st22{stroke:#0ff;stroke-width:.75}</style><g id="Layer_2" class="st0"><g class="st1"><defs><path id="SVGID_1_" d="M-.4-599.5h1300v513.8H-.4z"/></defs><clipPath id="SVGID_2_"><use xlink:href="#SVGID_1_" overflow="visible"/></clipPath></g></g><g id="Layer_1"><path class="st7" d="M175.4 96.1c4.4 0 8-1.7 10.8-5.2l5.7 5.9c-4.5 5.1-9.9 7.7-16 7.7s-11.2-1.9-15.2-5.8-6-8.8-6-14.7c0-5.9 2-10.9 6.1-14.8 4.1-4 9-6 14.9-6 6.6 0 12.1 2.5 16.5 7.5l-5.6 6.3c-2.8-3.5-6.3-5.3-10.5-5.3-3.4 0-6.2 1.1-8.6 3.3-2.4 2.2-3.6 5.1-3.6 8.9 0 3.7 1.1 6.7 3.4 9 2.2 2.1 4.9 3.2 8.1 3.2z"/><path class="st8" d="M217.3 96.1c4.4 0 8-1.7 10.8-5.2l5.7 5.9c-4.5 5.1-9.9 7.7-16 7.7s-11.2-1.9-15.2-5.8-6-8.8-6-14.7c0-5.9 2-10.9 6.1-14.8 4.1-4 9-6 14.9-6 6.6 0 12.1 2.5 16.5 7.5l-5.6 6.3c-2.8-3.5-6.3-5.3-10.5-5.3-3.4 0-6.2 1.1-8.6 3.3-2.4 2.2-3.6 5.1-3.6 8.9 0 3.7 1.1 6.7 3.4 9 2.2 2.1 4.9 3.2 8.1 3.2zm56-18.8c0 6.4-2.5 10.5-7.6 12.4l10.1 14.3h-11l-8.9-12.8h-6.2V104h-8.9V64H256c6.2 0 10.7 1 13.3 3.1 2.6 2.2 4 5.6 4 10.2zm-10.8 4.8c1.1-1 1.7-2.6 1.7-4.7 0-2.2-.6-3.6-1.7-4.4-1.1-.8-3.1-1.2-6-1.2h-6.7v11.8h6.5c3 0 5.1-.5 6.2-1.5zm37.4 21.9h-17.5V64H298c2.7 0 5 .3 7 1 2 .6 3.4 1.5 4.4 2.6 1.8 2.1 2.7 4.4 2.7 7 0 3.1-1 5.5-3 7-.7.5-1.2.9-1.4 1-.3.1-.7.4-1.4.7 2.5.5 4.5 1.6 5.9 3.3 1.5 1.7 2.2 3.8 2.2 6.3 0 2.8-1 5.2-2.9 7.4-2.2 2.5-6.1 3.7-11.6 3.7zm-8.6-23.8h4.2c2.5 0 4.3-.3 5.5-.8 1.2-.5 1.8-1.7 1.8-3.5s-.6-2.9-1.7-3.5c-1.1-.6-3-.9-5.6-.9h-4.3v8.7zm0 16.3h6.1c2.6 0 4.5-.3 5.8-.9 1.3-.6 1.9-1.9 1.9-3.7 0-1.8-.7-3.1-2-3.7-1.4-.6-3.5-.9-6.5-.9h-5.3v9.2z"/><path class="st9" d="M82.4 55.7l-5.1 2.9z"/><path class="st7" d="M106.8 69.8L82.4 55.7v5.8l19.4 11.2 5.1 3v-5.8z"/><path class="st10" d="M62.9 66.9L58 69.8h-.1v28l5-2.9V72.6l19.5-11.1v-5.8z"/><path class="st7" d="M57.9 97.8v-28l-5-2.9v34.2h.1l30 17.1v-5.9"/><path class="st10" d="M83 112.3v5.9l28.9-16.9v-5.8z"/><path class="st8" d="M109.6 94.4l-2.4-1.1-24 13.3-20.3-11.7-5 2.9 5 2.9L83 112.3l28.9-16.8zM106.9 64L82.4 49.9l-29.5 17 5 2.9 24.5-14.1 24.4 14.1h.1l5-2.9z"/><path class="st10" d="M106.9 69.8l5-2.9v5.9l-5 2.9z"/><path class="st8" d="M120.8 52.7L82.3 30.5l-46 26.6 7.9 4.6 38.2-22 38.3 22.1.1-.1 7.8-4.5z"/><path class="st7" d="M120.7 61.8v44.4l-38.3 22.2-38.2-22.1V61.7l-7.9-4.6v53.8l46 26.6 38.5-22.2 7.8-4.5V57.2z"/></g></svg>