<svg version="1.0" xmlns="http://www.w3.org/2000/svg" width="746.667" height="746.667" viewBox="0 0 560 560"><path d="M0 280v278h560V2H0v278zm316.3-138.6c7.1.3 13.8.8 15 1.1 1.2.2 4.5.7 7.2 1 2.8.4 6.1.8 7.5 1 12.7 1.8 37.6 10.1 50 16.7 8.8 4.7 22 13.7 22 14.9 0 .5.5.9 1 .9 2.9 0 24 24.5 24 27.8 0 .6.3 1.2.8 1.4.6.3 5.9 10.6 8.3 16.3 1.3 3 4.8 14.6 5.4 18 3 15.1 3.4 20.2 3.1 35.5-.2 9.1-.6 17.8-1 19.5-.9 4-1.5 7.4-2.1 10.8-2.8 15.1-15 39.8-26.2 52.9-5.2 6-15.8 16-20.3 19.1-2.5 1.7-4.7 3.4-5 3.7-.3.4-2.7 1.9-5.5 3.5-2.7 1.6-5.7 3.4-6.5 4.1-.8.6-2.6 1.5-4 1.9-1.4.4-3.1 1.2-3.9 1.8-1.5 1.3-4.2 2.3-18.1 7.2-9.3 3.2-12.9 4.2-18 5.1-1.4.3-3.3.7-4.2 1-2.7.8-6 1.4-10.8 2-2.5.3-5.2.7-6 .9-4.4 1.2-24.3 1.8-66.5 2-25.8 0-47.4 0-48-.2-.7-.2-.9-45.3-.8-133.1.1-73 .2-133.4.2-134.2.1-1.2 2.2-1.5 11.9-1.7 17.9-.2 68.7-1.5 68.9-1.7.1-.1 2.1-.1 4.5 0s10.1.5 17.1.8zm-116.9 69.5c-.1 10-.4 18.4-.7 18.8-.4.3-10.2.7-21.9.8-18.8.2-21.9.5-26.5 2.3-10.2 3.9-15.7 8.2-23.5 18-2.1 2.8-5.9 13.6-6.4 18.5-.9 8.3-.5 12.7 2 21.1 4.5 15.4 17.3 27.1 33.1 30.4 1.7.4 12.1.7 23.2.7 17.3 0 20.3.2 20.4 1.5.1 2 .1 36.2 0 37.5-.2 1.6-40 .9-51.1-.9-4.6-.7-12.7-3-13.7-3.9-.7-.5-1.3-.6-1.3-.3 0 .4-1.2.1-2.7-.8-1.6-.8-4.6-2.2-6.8-3.2-3.8-1.6-10.7-5.8-13.2-7.9-.6-.5-3.2-2.8-5.8-5-9-7.7-19.4-23.5-23.1-35-3.6-10.9-4.7-18-4.6-29.5 0-22.6 7.8-42.3 22.7-57.5 4.4-4.5 9.8-9.3 12-10.7 8.2-5.2 11.5-6.9 11.5-6.1 0 .4.4.3.8-.2.9-1.3 12.6-5.1 21.2-6.8 4.1-.9 15.2-1.5 29-1.6 12.4-.1 22.7-.5 23-.7 1.8-1.8 2.5 4.2 2.4 20.5z"/></svg>