<?xml version="1.0" encoding="UTF-8"?>
<svg width="36px" height="40px" viewBox="0 0 36 40" version="1.1" xmlns="http://www.w3.org/2000/svg" xmlns:xlink="http://www.w3.org/1999/xlink">
    <!-- Generator: Sketch 49 (51002) - http://www.bohemiancoding.com/sketch -->
    <title>logo new-small</title>
    <desc>Created with Sketch.</desc>
    <defs>
        <linearGradient x1="75.3785141%" y1="80.8817182%" x2="28.6469305%" y2="18.8304518%" id="linearGradient-1">
            <stop stop-color="#4BBAFE" offset="0%"></stop>
            <stop stop-color="#7294FC" offset="100%"></stop>
        </linearGradient>
    </defs>
    <g id="pc端" stroke="none" stroke-width="1" fill="none" fill-rule="evenodd">
        <g id="-CNN" transform="translate(-85.000000, -15.000000)" fill-rule="nonzero">
            <g id="logo-new-small" transform="translate(85.000000, 15.000000)">
                <path d="M2.8782,7.88164563 C1.09725,8.91537081 0,10.8258397 0,12.8934409 L0,27.1065214 C0,29.1738209 1.09725,31.0845915 2.8782,32.1181658 L15.12165,39.2247061 C16.9029,40.2584313 19.0971,40.2584313 20.8782,39.2247061 L33.1218,32.1181658 C34.9029,31.0845915 36,29.1738209 36,27.1065214 L36,12.8934409 C36,10.8258397 34.9029,8.91537081 33.1218,7.88164563 L20.8782,0.775256192 C19.98765,0.258318198 18.9939,0 18,0 C17.0061,0 16.01235,0.258318198 15.12165,0.775256192 L2.8782,7.88164563 Z" id="Fill-1" fill="url(#linearGradient-1)"></path>
                <path d="M25.2131583,26.4249359 C25.204462,26.5043336 25.2,26.5849856 25.2,26.6666667 C25.2,26.9340509 25.247814,27.1904054 25.335458,27.4278449 C25.4329667,27.6920087 25.5797754,27.9327596 25.7648899,28.1392391 L19.1024782,32.1915292 C18.3218986,32.6663024 17.3413697,32.6793979 16.5481406,32.2256334 L8.4762816,27.608149 C8.7324771,27.4335608 8.9502165,27.2078594 9.1143987,26.9459596 L16.9992193,31.4564491 C17.2167788,31.5809034 17.4563364,31.6503784 17.6983636,31.665134 L17.104078,28.233694 L9.3097077,26.5519264 C9.40042635,26.3108622 9.45,26.0500378 9.45,25.7777778 C9.45,25.6993896 9.44589052,25.6219493 9.4378728,25.5456558 L15.8994407,26.9398487 L12.8431008,24.1389881 L9.41766697,25.4002754 C9.35810325,25.0565064 9.2185884,24.7396921 9.01869712,24.4691656 L12.4937922,23.1895924 L12.4937922,18.6662063 L8.76403635,24.1802491 C8.51843812,23.945651 8.21889832,23.7657973 7.88557702,23.660599 L12.1912279,17.2951573 L7.65006532,15.3601941 C7.65002182,15.3649732 7.65,15.3697556 7.65,15.374541 L7.65,23.6000081 C7.5046005,23.5708579 7.35410962,23.5555556 7.2,23.5555556 C7.04589037,23.5555556 6.89539947,23.5708579 6.75,23.6000081 L6.75,15.374541 C6.75,14.4920346 7.2252931,13.6763643 7.9971879,13.234804 L15.7762289,8.78482541 C15.8239424,9.09140333 15.9350955,9.37732548 16.0960328,9.62910504 L8.44826663,14.0039883 C8.3867346,14.0391876 8.3281431,14.078112 8.27271465,14.120381 L17.1086206,12.2618945 L17.431222,10.5950514 C17.6128967,10.6417899 17.8035069,10.6666667 18,10.6666667 C18.1604496,10.6666667 18.3169765,10.6500794 18.4679189,10.6185463 L18.1643178,12.1872179 L23.968196,12.387939 L19.7603068,9.82864326 C19.973273,9.56480578 20.1267052,9.25201844 20.2005189,8.91011748 L26.1513255,12.5294793 C26.5983395,12.8013594 26.3899442,13.4824127 25.8652898,13.4642681 L17.7651929,13.1841347 L13.5165194,17.291762 L13.5165194,23.3781758 L17.7265144,27.2362575 L25.2131583,26.4249359 Z M18.1371945,28.2079157 L18.6897868,31.3986161 L25.1927437,27.4433115 L18.1371945,28.2079157 Z M15.9331113,13.5418961 L9.25904227,14.9456759 L12.8836657,16.4901072 L15.9331113,13.5418961 Z M18,9.77777778 C17.2544156,9.77777778 16.65,9.18082407 16.65,8.44444444 C16.65,7.70806481 17.2544156,7.11111111 18,7.11111111 C18.7455844,7.11111111 19.35,7.70806481 19.35,8.44444444 C19.35,9.18082407 18.7455844,9.77777778 18,9.77777778 Z M27.675,14.2222222 C27.3022078,14.2222222 27,13.9237454 27,13.5555556 C27,13.1873657 27.3022078,12.8888889 27.675,12.8888889 C28.0477922,12.8888889 28.35,13.1873657 28.35,13.5555556 C28.35,13.9237454 28.0477922,14.2222222 27.675,14.2222222 Z M7.2,27.1111111 C6.45441559,27.1111111 5.85,26.5141574 5.85,25.7777778 C5.85,25.0413981 6.45441559,24.4444444 7.2,24.4444444 C7.94558437,24.4444444 8.55,25.0413981 8.55,25.7777778 C8.55,26.5141574 7.94558437,27.1111111 7.2,27.1111111 Z M27.45,28 C26.7044156,28 26.1,27.4030463 26.1,26.6666667 C26.1,25.930287 26.7044156,25.3333333 27.45,25.3333333 C28.1955844,25.3333333 28.8,25.930287 28.8,26.6666667 C28.8,27.4030463 28.1955844,28 27.45,28 Z" id="Combined-Shape" fill="#232A45"></path>
            </g>
        </g>
    </g>
</svg>