<?xml version="1.0" encoding="utf-8"?>
<!-- Generator: Adobe Illustrator 21.1.0, SVG Export Plug-In . SVG Version: 6.00 Build 0)  -->
<svg version="1.1" id="Layer_1" xmlns="http://www.w3.org/2000/svg" xmlns:xlink="http://www.w3.org/1999/xlink" x="0px" y="0px"
	 viewBox="0 0 345.8 99.1" style="enable-background:new 0 0 345.8 99.1;" xml:space="preserve" width="100">
<style type="text/css">
	.st0{fill:#23ADF0;}
</style>
<g>
	<path class="st0" d="M5.3,69.7c-0.4-0.7-0.6-1-0.5-0.8C4.9,69,5,69.3,5.3,69.7c0.2,0.3,0.4,0.6,0.5,0.8C5.8,70.7,5.7,70.4,5.3,69.7
		c-2.3-4-3.8-8.2-4.6-12.6c-0.8-4.5-0.8-8.9-0.1-13.5c1.1-6.4,3.7-12.2,7.8-17.3s9.1-9,15.2-11.5c3.1-1.3,6.3-2.2,9.6-2.7
		c3.3-0.5,6.5-0.5,9.8-0.1c3.3,0.4,6.5,1.2,9.5,2.3c3.1,1.2,6,2.7,8.7,4.7c0.6,0.4,0.9,0.8,1,1.1c0.1,0.3,0.1,0.7-0.2,1.2l-2.6,4.3
		c-0.9,1.4-1.9,1.6-2.9,0.6c-2.4-1.9-5.1-3.3-7.9-4.1c-2.9-0.9-5.8-1.4-8.9-1.6c-3.1,0-6,0.4-8.9,1.3c-2.9,0.8-5.6,2-8.1,3.6
		c-2.5,1.6-4.7,3.5-6.7,5.7c-2,2.3-3.6,4.8-4.9,7.6c-1.3,2.9-2.1,6-2.3,9.2c-0.2,3.2,0,6.3,0.7,9.3c0.7,3,1.9,5.9,3.5,8.6
		c1.6,2.7,3.7,5.1,6.2,7.2s5.2,3.7,8.2,4.8c3,1.1,6.1,1.7,9.3,1.8c3.2,0.1,6.5-0.4,9.9-1.3c3.4-0.9,6.7-2.5,10-4.5
		c0.6-0.3,1-0.5,1.4-0.5c0.3,0,0.7,0.3,1.1,1c0.6,0.9,1,1.7,1.5,2.4c0.3,0.6,0.7,1.2,0.9,1.7c0.3,0.5,0.5,0.8,0.5,0.8
		c0.3,0.5,0.3,0.9,0,1.3c-0.3,0.3-0.6,0.7-1,1c-4.4,3.3-9.3,5.4-14.7,6.5c-5.4,1-10.8,1-16.1-0.2c-5.2-1.2-10-3.3-14.4-6.5
		C11.4,78.2,7.9,74.3,5.3,69.7z"/>
	<path class="st0" d="M110.8,11.7c5.3,0,10.3,1,14.9,3c4.7,2,8.8,4.8,12.3,8.3c3.5,3.5,6.3,7.6,8.3,12.3c2,4.7,3,9.6,3,14.9
		c0,5.3-1,10.3-3,14.9c-2,4.7-4.8,8.8-8.3,12.3c-3.5,3.5-7.6,6.3-12.3,8.3c-4.7,2-9.6,3-14.9,3c-5.4,0-10.4-1-15-3
		c-4.7-2-8.7-4.8-12.2-8.3c-3.5-3.5-6.2-7.6-8.3-12.3c-2-4.7-3-9.6-3-14.9c0-5.3,1-10.3,3-14.9c2-4.7,4.8-8.7,8.3-12.3
		c3.5-3.5,7.6-6.3,12.2-8.3C100.4,12.7,105.5,11.7,110.8,11.7z M110.8,80.3c4.1,0,8-0.8,11.6-2.4c3.7-1.6,6.8-3.8,9.5-6.5
		c2.7-2.7,4.9-5.9,6.4-9.5s2.3-7.5,2.3-11.6c0-4.2-0.8-8.1-2.3-11.7s-3.7-6.8-6.4-9.5c-2.7-2.7-5.9-4.9-9.5-6.4
		c-3.7-1.6-7.5-2.3-11.6-2.3c-4.2,0-8.1,0.8-11.7,2.3s-6.8,3.7-9.5,6.4s-4.9,5.9-6.4,9.5s-2.3,7.6-2.3,11.7c0,4.1,0.8,8,2.3,11.6
		s3.7,6.8,6.4,9.5c2.7,2.7,5.9,4.9,9.5,6.5C102.7,79.5,106.6,80.3,110.8,80.3z"/>
	<path class="st0" d="M165.7,14c1.2,0,1.8,0.6,1.8,1.7v71.5c0,1-0.6,1.6-1.8,1.6h-5.4c-1,0-1.5-0.5-1.5-1.6V15.5
		c0-0.5,0.2-0.9,0.5-1.1c0.3-0.3,0.7-0.4,1.1-0.4H165.7z"/>
	<path class="st0" d="M246.6,13.9c0.8,0,1.3,0.2,1.6,0.5c0.3,0.3,0.4,0.7,0.4,1.2l-0.5,71.6c0,1-0.6,1.6-1.9,1.6h-6.8l-46.3-62.6
		v38.8l18.3,0.1c1,0,1.6,0.6,1.6,1.7V72c0,0.5-0.1,0.9-0.4,1.3c-0.3,0.3-0.7,0.5-1.3,0.5L186,73.7c-1,0-1.6-0.5-1.6-1.4V15.2
		c0-1.1,0.6-1.7,1.8-1.7h7.2c0.7,0,1.3,0.3,1.7,0.8l44.4,59.8l0.4-58.8c0-0.4,0.2-0.8,0.5-1.1s0.7-0.5,1.1-0.5h4.6H246.6z
		 M220.5,79.9c1,0,1.6,0.6,1.6,1.7v5.3c0,0.5-0.2,0.9-0.5,1.3c-0.3,0.3-0.7,0.5-1.2,0.5H186c-1,0-1.6-0.5-1.6-1.6v-5.3
		c0-0.6,0.1-1,0.4-1.4c0.3-0.3,0.7-0.5,1.3-0.5H220.5z"/>
	<path class="st0" d="M267.1,87.2c0,1-0.6,1.5-1.8,1.5h-5.3c-1.1,0-1.7-0.5-1.7-1.5V15.7c0-1.1,0.5-1.7,1.7-1.7h48.2
		c1.2,0,1.8,0.6,1.8,1.8v5.1c0,0.6-0.2,1-0.5,1.4c-0.3,0.4-0.7,0.5-1.3,0.5h-41.2V47h29.2c1,0,1.6,0.6,1.6,1.7v5.2
		c0,0.5-0.1,0.9-0.4,1.3c-0.3,0.4-0.7,0.6-1.1,0.6h-29.2V87.2z"/>
	<path class="st0" d="M327,14c1.2,0,1.8,0.6,1.8,1.7v71.5c0,1-0.6,1.6-1.8,1.6h-5.4c-1,0-1.5-0.5-1.5-1.6V15.5
		c0-0.5,0.2-0.9,0.5-1.1c0.3-0.3,0.7-0.4,1.1-0.4H327z"/>
</g>
</svg>
