<svg xmlns="http://www.w3.org/2000/svg" xmlns:xlink="http://www.w3.org/1999/xlink" width="369" height="311" viewBox="0 0 369 311">
    <defs>
        <path id="a" d="M.256.6h38.519v48.856H.255z"/>
        <path id="c" d="M0 .583h42.441v48.89H0z"/>
    </defs>
    <g fill="none" fill-rule="evenodd">
        <path fill="#8F999E" d="M111.74 296.94h-7.846v-8.943h7.833v.001h.013c2.595 0 4.707 2.005 4.707 4.471s-2.112 4.472-4.707 4.472zm-10.983 13.18h3.138v-10.198h7.832v-.001h.013c4.332 0 7.845-3.336 7.845-7.452s-3.513-7.453-7.845-7.453h-10.983v25.104zM157.953 307.531c-5.624 0-10.199-4.469-10.199-9.963 0-5.493 4.575-9.963 10.199-9.963 5.623 0 10.199 4.47 10.199 9.963 0 5.494-4.576 9.963-10.199 9.963m0-22.907c-7.366 0-13.337 5.796-13.337 12.944 0 7.15 5.971 12.945 13.337 12.945 7.365 0 13.337-5.796 13.337-12.945 0-7.148-5.972-12.944-13.337-12.944M204.542 307.531c-5.624 0-10.199-4.469-10.199-9.963 0-5.493 4.575-9.963 10.199-9.963 5.623 0 10.198 4.47 10.198 9.963 0 5.494-4.575 9.963-10.198 9.963m0-22.907c-7.366 0-13.337 5.796-13.337 12.944 0 7.15 5.97 12.945 13.337 12.945 7.365 0 13.336-5.796 13.336-12.945 0-7.148-5.971-12.944-13.336-12.944M171.049 285.016v2.982h8.63v22.123h3.137v-22.123h8.63v-2.982zM275.345 285.016h3.138v22.123h14.122v2.982h-17.26zM126.309 296.94v-8.943h7.832v.001h.012c2.595 0 4.707 2.005 4.707 4.471s-2.112 4.472-4.707 4.472h-7.845zm-3.138 13.18h3.138v-10.198h5.575l6.797 10.198h3.63l-6.912-10.3c3.74-.569 6.6-3.638 6.6-7.35 0-4.117-3.513-7.454-7.846-7.454h-10.982v25.104zM234.49 307.531c-5.623 0-10.198-4.469-10.198-9.963 0-5.493 4.575-9.963 10.199-9.963a10.28 10.28 0 0 1 6.992 2.731l2.124-2.197a13.49 13.49 0 0 0-9.116-3.515c-7.366 0-13.337 5.796-13.337 12.944 0 7.15 5.97 12.945 13.337 12.945 3.53 0 6.73-1.34 9.116-3.515l-2.124-2.196a10.283 10.283 0 0 1-6.992 2.73M258.445 307.531c-5.623 0-10.198-4.469-10.198-9.963 0-5.493 4.575-9.963 10.198-9.963 5.624 0 10.199 4.47 10.199 9.963 0 5.494-4.575 9.963-10.199 9.963m0-22.907c-7.365 0-13.336 5.796-13.336 12.944 0 7.15 5.97 12.945 13.336 12.945 7.365 0 13.337-5.796 13.337-12.945 0-7.148-5.972-12.944-13.337-12.944"/>
        <path fill="#46BCE9" d="M246.486 90.349l-55.52 32.056-55.523-32.054-.001-58.294L190.962 0l55.523 32.054z"/>
        <path fill="#F36E41" d="M208.544 156.12l-52.263 30.148-55.522-32.054-.002-64.11 52.263-30.148 55.523 32.054z"/>
        <path fill="#41B237" d="M281.207 154.302l-55.521 32.056-52.267-30.22-.002-64.111 55.52-32.057 52.268 30.222z"/>
        <path fill="#2A345A" d="M246.486 134.21l-55.52 32.057-55.523-32.055-.001-64.11 55.52-32.057L246.484 70.1z"/>
        <path fill="#FFF" d="M193.735 123.429c-12.287 0-22.284-9.542-22.284-21.272 0-11.73 9.997-21.271 22.284-21.271 5.798 0 11.07 2.142 15.038 5.62l8.454-8.745c-6.155-5.587-14.4-9.031-23.491-9.031-19.02 0-34.44 14.965-34.44 33.426 0 18.461 15.42 33.427 34.44 33.427 9.141 0 17.427-3.48 23.593-9.12l-8.453-8.743c-3.98 3.53-9.292 5.709-15.14 5.709"/>
        <g transform="translate(329.971 218.263)">
            <mask id="b" fill="#fff">
                <use xlink:href="#a"/>
            </mask>
            <path fill="#2A345A" d="M.256 41.945l5.236-5.994c4.885 3.81 9.61 5.662 15.745 5.787 5.126.104 8.809-2.16 8.793-5.69v-.135c0-3.642-1.985-5.356-11.268-7.214C8.544 26.653 2.167 23.34 2.13 14.585l-.002-.134C2.093 6.306 9.181.643 19.066.6 26.32.57 32.092 2.648 37.157 6.494l-4.666 6.333c-4.495-3.172-8.983-4.83-13.535-4.83-4.795 0-8.084 2.853-8.084 5.669v.135c0 4.025 2.3 5.285 11.911 7.415 10.537 2.399 15.957 5.972 15.99 13.845l.002.135c.037 8.89-7.264 14.215-17.72 14.26-7.608.033-14.804-2.445-20.8-7.511" mask="url(#b)"/>
        </g>
        <path fill="#2A345A" d="M232.659 219.586v8.148h-28.15v11.482h22.223v8.149H204.51v11.483h28.15v8.148H195.62v-47.41z"/>
        <g transform="translate(0 218.263)">
            <mask id="d" fill="#fff">
                <use xlink:href="#c"/>
            </mask>
            <path fill="#2A345A" d="M25.186 40.585C16.2 40.585 8.89 33.608 8.89 25.03c0-8.579 7.31-15.557 16.297-15.557 4.241 0 8.096 1.567 10.999 4.11l6.182-6.395C37.865 3.102 31.837.583 25.187.583 11.276.583 0 11.527 0 25.028 0 38.53 11.276 49.474 25.186 49.474c6.686 0 12.746-2.546 17.255-6.67l-6.181-6.393a16.644 16.644 0 0 1-11.074 4.174" mask="url(#d)"/>
        </g>
        <path fill="#2A345A" d="M69.696 258.848c-8.987 0-16.297-6.978-16.297-15.557 0-8.578 7.31-15.557 16.297-15.557 8.986 0 16.297 6.979 16.297 15.557 0 8.579-7.31 15.557-16.297 15.557m0-40.002c-13.911 0-25.188 10.944-25.188 24.445 0 13.502 11.277 24.446 25.188 24.446 13.91 0 25.187-10.944 25.187-24.446 0-13.501-11.277-24.445-25.187-24.445M148.096 219.586v8.148h16.297v39.262h8.89v-39.262h16.297v-8.148zM142.241 266.996h-8.891l-23.703-32.89v32.89h-8.89v-47.41H109.647v.005l23.705 33.024v-33.03h8.89zM286.636 219.586v8.148h16.297v39.262h8.89v-39.262h16.297v-8.148zM281.207 219.586h-8.89v33.03l-23.705-33.025v-.005h-8.889v47.41h8.889v-32.889l23.703 32.89H281.207z"/>
    </g>
</svg>
