<?xml version="1.0" encoding="utf-8"?>
<!-- Generator: Adobe Illustrator 22.1.0, SVG Export Plug-In . SVG Version: 6.00 Build 0)  -->
<svg version="1.1" id="Слой_1" xmlns="http://www.w3.org/2000/svg" xmlns:xlink="http://www.w3.org/1999/xlink" x="0px" y="0px"
	 viewBox="0 0 187 35" style="enable-background:new 0 0 187 35;" xml:space="preserve">
<style type="text/css">
	.st0{fill:#FFFFFF;}
</style>
<g>
	<path class="st0" d="M26.5,7.4c-2.6-2.1-5.7-3.3-8.9-3.3c-3.5,0-6.9,1.3-9.5,3.8S4,13.6,3.8,17.2l0,0.4h1.6l0-0.3
		c0.4-6.4,5.8-11.4,12.2-11.4c2.9,0,5.6,1,7.8,2.8l0.1,0.1l1.2-1.2L26.5,7.4z"/>
	<path class="st0" d="M24.9,23.3c-1.7,2.3-4.4,3.7-7.3,3.7c-5,0-9-4-9-9c0-4.9,4-8.9,9-8.9c2.9,0,5.6,1.4,7.3,3.7L25,13l1.2-1.2
		l-0.1-0.1c-2-2.7-5.2-4.2-8.5-4.2C11.7,7.4,7,12.2,7,18c0,5.9,4.8,10.6,10.6,10.6c3.3,0,6.5-1.6,8.5-4.2l0.1-0.1L25,23.1L24.9,23.3
		z"/>
	<path class="st0" d="M28.4,9.4c-0.3-0.3-0.5-0.7-0.8-1l-0.1-0.1l-1.2,1.2l0.1,0.1c0.3,0.3,0.6,0.6,0.8,1l0.1,0.2l1.2-1.2L28.4,9.4z
		"/>
	<path class="st0" d="M25.4,27.4l-0.1,0.1c-2.2,1.8-4.9,2.8-7.8,2.8c-6.4,0-11.8-5-12.2-11.4l0-0.4H3.7l0,0.4
		c0.2,3.5,1.8,6.8,4.3,9.3c2.6,2.4,6,3.8,9.5,3.8c3.3,0,6.4-1.2,8.9-3.3l0.1-0.1L25.4,27.4z"/>
	<path class="st0" d="M27.3,25.4l-0.1,0.2c-0.2,0.3-0.5,0.6-0.8,1l-0.1,0.1l1.2,1.2l0.1-0.1c0.3-0.3,0.6-0.7,0.8-1l0.1-0.1
		L27.3,25.4z"/>
	<path class="st0" d="M29.4,27.8c-2.9,3.5-7.2,5.6-11.8,5.6C9.1,33.4,2.3,26.5,2.3,18S9.1,2.7,17.6,2.7c4.6,0,8.9,2,11.8,5.6
		l0.1,0.2l1.2-1.2l-0.1-0.1c-3.2-3.9-8-6.1-13-6.1c-9.4,0-17,7.6-17,17s7.6,17,17,17c5,0,9.8-2.2,13-6.1l0.1-0.1l-1.2-1.2L29.4,27.8
		z"/>
	<g>
		<path class="st0" d="M43.8,17.7h0.2v-0.3c0-0.3,0-0.5,0-0.8c0-0.3,0.1-0.6,0.2-0.8c0.1-0.3,0.2-0.5,0.3-0.7
			c0.1-0.2,0.3-0.4,0.4-0.6c0.2-0.2,0.4-0.3,0.6-0.4s0.5-0.1,0.8-0.1c0.3,0,0.6,0.1,0.9,0.2c0.2,0.1,0.4,0.3,0.6,0.4
			c0.2,0.2,0.3,0.4,0.4,0.7c0.1,0.3,0.2,0.6,0.2,0.9l0,0.2h1.8l0-0.2c-0.1-0.5-0.2-1-0.4-1.5c-0.2-0.4-0.4-0.8-0.8-1.2
			c-0.3-0.3-0.7-0.6-1.2-0.7c-0.4-0.2-1-0.3-1.5-0.3c-0.5,0-0.9,0.1-1.3,0.2c-0.4,0.1-0.7,0.3-1,0.6c-0.3,0.2-0.6,0.5-0.8,0.8
			c-0.2,0.3-0.4,0.7-0.5,1c-0.1,0.4-0.2,0.8-0.3,1.2c-0.1,0.4-0.1,0.8-0.1,1.2v0.3L43.8,17.7L43.8,17.7z"/>
		<path class="st0" d="M48.4,20.1l0,0.2c0,0.3-0.1,0.6-0.2,0.9c-0.1,0.3-0.2,0.5-0.4,0.7c-0.2,0.2-0.4,0.3-0.6,0.4
			c-0.2,0.1-0.5,0.1-0.9,0.1c-0.3,0-0.6-0.1-0.8-0.1c-0.2-0.1-0.4-0.2-0.6-0.4c-0.2-0.2-0.3-0.4-0.4-0.6c-0.1-0.2-0.2-0.5-0.3-0.7
			C44.1,20.3,44,20,44,19.7c0-0.3,0-0.6,0-0.8v-0.3h-1.8v0.3c0,0.4,0,0.8,0.1,1.2c0.1,0.4,0.2,0.8,0.3,1.2c0.1,0.4,0.3,0.7,0.5,1
			c0.2,0.3,0.5,0.6,0.8,0.8c0.3,0.2,0.7,0.4,1,0.6c0.4,0.1,0.8,0.2,1.3,0.2c0.5,0,1-0.1,1.5-0.3c0.4-0.2,0.8-0.4,1.2-0.7
			c0.3-0.3,0.6-0.7,0.8-1.1c0.2-0.4,0.3-0.9,0.4-1.4l0-0.2L48.4,20.1L48.4,20.1z"/>
	</g>
	<rect x="57.7" y="20.2" class="st0" width="1.9" height="3.7"/>
	<path class="st0" d="M63.1,19c0.2-0.1,0.5-0.3,0.7-0.4c0.3-0.2,0.5-0.4,0.7-0.7c0.2-0.3,0.3-0.5,0.4-0.9c0.1-0.3,0.2-0.7,0.2-1
		c0-0.6-0.1-1.1-0.3-1.5c-0.2-0.4-0.5-0.8-0.8-1.1c-0.4-0.3-0.8-0.5-1.2-0.6s-1-0.2-1.5-0.2h-3.4v6.8h3.6l2.1,4.4h1.8h0.2L63.1,19z
		 M63.1,16.8c-0.1,0.2-0.3,0.4-0.4,0.6c-0.2,0.1-0.4,0.3-0.7,0.4c-0.3,0.1-0.5,0.1-0.8,0.1h-1.7V14h1.6c0.3,0,0.6,0.1,0.9,0.1
		s0.5,0.2,0.7,0.4c0.2,0.1,0.3,0.4,0.4,0.6c0.1,0.2,0.1,0.5,0.1,0.8C63.3,16.3,63.2,16.5,63.1,16.8z"/>
	<g>
		<polygon class="st0" points="78.2,19.7 81.8,12.5 79.8,12.5 77.4,17.7 75.1,12.5 73.1,12.5 76.7,19.7 		"/>
		<polygon class="st0" points="76.6,23.8 78.3,23.8 78.3,20.7 76.6,20.7 		"/>
	</g>
	<g>
		<rect x="104.8" y="12.5" class="st0" width="8.6" height="1.6"/>
		<polygon class="st0" points="108.1,23.8 110,23.8 110,15 108.1,15 		"/>
	</g>
	<g>
		<rect x="136" y="20.3" class="st0" width="1.8" height="3.5"/>
		<path class="st0" d="M141.3,19c0.2-0.1,0.5-0.3,0.7-0.4c0.3-0.2,0.5-0.4,0.7-0.7c0.2-0.3,0.3-0.5,0.4-0.9c0.1-0.3,0.2-0.7,0.2-1
			c0-0.6-0.1-1.1-0.3-1.5c-0.2-0.4-0.5-0.8-0.8-1.1c-0.4-0.3-0.8-0.5-1.2-0.6c-0.5-0.1-1-0.2-1.5-0.2h-3.4v6.8h3.6l2.1,4.4h1.8h0.2
			L141.3,19z M141.4,16.8c-0.1,0.2-0.3,0.4-0.4,0.6c-0.2,0.1-0.4,0.3-0.7,0.4c-0.3,0.1-0.5,0.1-0.8,0.1h-1.7V14h1.6
			c0.3,0,0.6,0.1,0.9,0.1s0.5,0.2,0.7,0.4c0.2,0.1,0.3,0.4,0.4,0.6c0.1,0.2,0.1,0.5,0.1,0.8C141.5,16.3,141.5,16.5,141.4,16.8z"/>
	</g>
	<polygon class="st0" points="151.3,12.5 151.3,14.2 153.9,14.2 153.9,23.8 155.8,23.8 155.8,12.5 	"/>
	<g>
		<path class="st0" d="M171,12.5h-1.7l0,7.6c0,0.3-0.1,0.6-0.1,0.9c-0.1,0.3-0.2,0.5-0.4,0.7c-0.2,0.2-0.4,0.4-0.6,0.5
			c-0.2,0.1-0.5,0.2-0.9,0.2c-0.3,0-0.6-0.1-0.9-0.2c-0.2-0.1-0.4-0.3-0.6-0.5c-0.2-0.2-0.3-0.5-0.4-0.7c-0.1-0.3-0.1-0.6-0.1-0.9
			v-1.5h-1.7v1.5c0,0.5,0.1,1,0.3,1.5c0.2,0.5,0.4,0.9,0.8,1.2c0.3,0.4,0.7,0.6,1.2,0.8c0.4,0.2,1,0.3,1.5,0.3c0.5,0,1-0.1,1.5-0.3
			c0.4-0.2,0.9-0.5,1.2-0.8c0.3-0.4,0.6-0.8,0.8-1.2c0.2-0.5,0.3-1,0.3-1.5L171,12.5z"/>
		<polygon class="st0" points="165.2,12.5 163.5,12.5 163.5,17.7 165.2,17.7 		"/>
	</g>
	<g>
		<polygon class="st0" points="184.3,12.5 182.5,17.6 180.8,12.5 178.8,12.5 178.8,23.8 180.5,23.8 180.5,19.3 180.4,16.2 
			181.9,20.8 183,20.8 184.6,15.9 184.6,17.7 186.3,17.7 186.3,12.5 		"/>
		<polygon class="st0" points="184.6,19.3 184.6,23.8 186.3,23.8 186.3,18.7 184.6,18.7 		"/>
	</g>
	<path class="st0" d="M96.8,14.5c-0.2-0.4-0.5-0.8-0.8-1.1c-0.4-0.3-0.7-0.5-1.2-0.7c-0.4-0.1-0.9-0.2-1.4-0.2h-3.7V17h1.8V14h2
		c0.3,0,0.6,0.1,0.8,0.1c0.2,0.1,0.5,0.2,0.6,0.4c0.2,0.2,0.3,0.4,0.4,0.6c0.1,0.2,0.1,0.5,0.1,0.8c0,0.3-0.1,0.6-0.1,0.8
		c-0.1,0.2-0.2,0.4-0.4,0.6c-0.2,0.2-0.4,0.3-0.6,0.4c-0.2,0.1-0.5,0.1-0.8,0.1h-3.7v5.9h1.8v-4.4h2c0.5,0,1-0.1,1.4-0.2
		c0.5-0.1,0.9-0.4,1.2-0.7s0.6-0.7,0.8-1.1c0.2-0.4,0.3-0.9,0.3-1.5C97.1,15.4,97,14.9,96.8,14.5z"/>
	<g>
		<polygon class="st0" points="127.5,18.8 127.5,17.2 123,17.2 123,14.1 128.2,14.1 128.2,12.5 121.2,12.5 121.2,18.8 122.8,18.8 		
			"/>
		<polygon class="st0" points="123,22.3 123,19.7 121.2,19.7 121.2,23.8 128.3,23.8 128.3,22.3 		"/>
	</g>
</g>
</svg>
