<?xml version="1.0" encoding="utf-8"?>
<!-- Generator: Adobe Illustrator 16.0.0, SVG Export Plug-In . SVG Version: 6.00 Build 0)  -->
<!DOCTYPE svg PUBLIC "-//W3C//DTD SVG 1.1//EN" "http://www.w3.org/Graphics/SVG/1.1/DTD/svg11.dtd" [
	<!ENTITY ns_extend "http://ns.adobe.com/Extensibility/1.0/">
	<!ENTITY ns_ai "http://ns.adobe.com/AdobeIllustrator/10.0/">
	<!ENTITY ns_graphs "http://ns.adobe.com/Graphs/1.0/">
	<!ENTITY ns_vars "http://ns.adobe.com/Variables/1.0/">
	<!ENTITY ns_imrep "http://ns.adobe.com/ImageReplacement/1.0/">
	<!ENTITY ns_sfw "http://ns.adobe.com/SaveForWeb/1.0/">
	<!ENTITY ns_custom "http://ns.adobe.com/GenericCustomNamespace/1.0/">
	<!ENTITY ns_adobe_xpath "http://ns.adobe.com/XPath/1.0/">
]>
<svg version="1.1" id="Layer_1" xmlns:x="&ns_extend;" xmlns:i="&ns_ai;" xmlns:graph="&ns_graphs;"
	 xmlns="http://www.w3.org/2000/svg" xmlns:xlink="http://www.w3.org/1999/xlink" x="0px" y="0px" width="220.5px"
	 height="95.875px" viewBox="0 -3.25 220.5 95.875" enable-background="new 0 -3.25 220.5 95.875" xml:space="preserve">
<metadata>
	<sfw  xmlns="&ns_sfw;">
		<slices></slices>
		<sliceSourceBounds  height="60" width="217.557" bottomLeftOrigin="true" y="41.75" x="11.5"></sliceSourceBounds>
	</sfw>
</metadata>
<g id="CRYPTO-TASK">
	<g id="Desktop-HD-Copy-9" transform="translate(-170.000000, -21.000000)">
		<g id="Group-10" transform="translate(170.000000, 0.000000)">
			<g id="Group-9" transform="translate(0.000000, 21.000000)">
				<g id="LOGO">
					<polygon id="Fill-1" fill="#5ED170" points="25.709,14.5 0,28.931 0,58.812 15.871,68.5 15.871,62.114 5.456,55.757 
						5.456,32.119 25.294,20.983 25.294,23.145 25.294,31.732 25.294,31.779 25.335,31.755 30.584,34.687 30.584,59.471 
						31.104,59.471 36.041,56.629 36.041,37.734 41,40.503 41,34.261 30.75,28.537 30.75,28.118 30.75,19.019 30.75,17.45 					"/>
					<polygon id="Fill-3" fill="#3DA2DD" points="34.769,26.711 45.478,32.67 45.478,56.793 25.27,68.221 24.896,67.996 
						24.896,56.738 14.522,50.689 14.522,38.443 21.048,34.667 21.048,28.395 9,35.366 9,53.756 19.207,59.706 19.375,59.646 
						19.375,59.805 19.375,68.775 19.375,71.023 25.192,74.5 51,59.906 51,29.531 34.769,20.5 					"/>
					<g enable-background="new    ">
						<path fill="#FFFFFF" d="M83.037,40.737l-2.061,2.44c-0.92-1.12-2.28-1.82-3.521-1.82c-2.22,0-3.9,1.761-3.9,4.062
							c0,2.34,1.68,4.12,3.9,4.12c1.181,0,2.541-0.641,3.521-1.641l2.081,2.201c-1.5,1.539-3.721,2.561-5.781,2.561
							c-4.221,0-7.362-3.102-7.362-7.201c0-4.041,3.221-7.082,7.482-7.082C79.476,38.377,81.636,39.297,83.037,40.737z"/>
						<path fill="#FFFFFF" d="M92.355,48.561h-0.1h-2.701V52.5h-3.561V38.497h6.261c3.701,0,5.821,1.761,5.821,4.881
							c0,2.141-0.9,3.681-2.541,4.501l2.942,4.621h-4.041L92.355,48.561z M92.255,45.759c1.541,0,2.44-0.78,2.44-2.261
							c0-1.46-0.9-2.2-2.44-2.2h-2.701v4.461H92.255z"/>
						<path fill="#FFFFFF" d="M108.875,52.5h-3.541v-4.421l-5.181-9.582h3.561l3.38,6.102l3.3-6.102h3.562l-5.082,9.481V52.5z"/>
						<path fill="#FFFFFF" d="M122.675,38.497c3.581,0,5.642,1.761,5.642,4.881c0,3.281-2.061,5.183-5.642,5.183h-2.54V52.5h-3.561
							V38.497H122.675z M120.135,45.759h2.36c1.56,0,2.46-0.78,2.46-2.261c0-1.46-0.9-2.2-2.46-2.2h-2.36V45.759z"/>
						<path fill="#FFFFFF" d="M137.975,41.357V52.5h-3.561V41.357h-4.182v-2.881h11.963v2.881H137.975z"/>
						<path fill="#FFFFFF" d="M158.537,45.479c0,4.082-3.241,7.182-7.582,7.182c-4.321,0-7.562-3.081-7.562-7.182
							c0-4.081,3.241-7.102,7.562-7.102C155.296,38.377,158.537,41.418,158.537,45.479z M147.034,45.498
							c0,2.361,1.819,4.182,3.96,4.182c2.16,0,3.881-1.82,3.881-4.182c0-2.36-1.721-4.141-3.881-4.141
							S147.034,43.138,147.034,45.498z"/>
						<path fill="#FFFFFF" d="M167.755,41.357V52.5h-3.562V41.357h-4.18v-2.881h11.961v2.881H167.755z"/>
						<path fill="#FFFFFF" d="M176.494,49.92l-1.02,2.58h-3.662l6.043-14.003h3.66l5.9,14.003h-3.801l-1-2.58H176.494z
							 M179.574,42.038l-2.04,5.181h4.041L179.574,42.038z"/>
						<path fill="#FFFFFF" d="M200.876,39.897l-1.341,2.78c-1.48-0.86-3.34-1.46-4.48-1.46c-0.92,0-1.541,0.34-1.541,1.021
							c0,2.42,7.402,1.04,7.402,6.101c0,2.802-2.48,4.281-5.602,4.281c-2.34,0-4.74-0.88-6.401-2.24l1.38-2.741
							c1.441,1.262,3.602,2.102,5.062,2.102c1.119,0,1.82-0.42,1.82-1.221c0-2.479-7.402-1-7.402-5.961
							c0-2.58,2.222-4.221,5.582-4.221C197.375,38.337,199.436,38.957,200.876,39.897z"/>
						<path fill="#FFFFFF" d="M209.594,46.999l-1.859,2.062V52.5h-3.561V38.497h3.561v6.062l5.361-6.062h4.12l-5.2,5.801
							l5.541,8.202h-4.262L209.594,46.999z"/>
					</g>
				</g>
			</g>
		</g>
	</g>
</g>
</svg>
