<svg xmlns="http://www.w3.org/2000/svg" xmlns:xlink="http://www.w3.org/1999/xlink" viewBox="0 0 1133.9 201.3"><g fill-rule="evenodd"><path d="M829.9 48.8c-6.6 0-12.1 5.5-12.1 12.1S823.3 73 829.9 73 842 67.5 842 60.9c.1-6.6-5.4-12.1-12.1-12.1zm213.7 2.8v54.5h74.5c-19.4-32.8-48.4-54.1-74.5-54.5z" fill="#00b4d0"/><g fill="#00502f"><use xlink:href="#B"/><use xlink:href="#B" x="-181.4"/></g><path d="M1121.7 108.9h-81V50.2h-16.8s-17.1-.6-17.6 18.7c-.6 19.3 0 38.6 0 38.6l-185.3.6s-2 56.9 14 63.4h22.3c0-.7-.1-1.4-.1-2.2 0-17.9 14.8-32.7 32.7-32.7s32.7 14.8 32.7 32.7c0 .7-.1 1.5-.1 2.2h116.3c-.1-.7-.1-1.5-.1-2.2 0-17.9 14.8-32.7 32.7-32.7s32.7 14.8 32.7 32.7c0 .7-.1 1.5-.1 2.2h4.9c31.5 0 30.1-31.6 12.8-62.6zm-147.4 27.3c0 2.8-2.2 5.5-5.5 5.5h-5c-3.3 0-5.5-2.8-5.5-5.5v-5c0-3.3 2.8-5.5 5.5-5.5h5c3.3 0 5.5 2.8 5.5 5.5v5zm11.1 19.8h-5c-3.3 0-5.5-2.8-5.5-5.5v-5c0-3.3 2.8-5.5 5.5-5.5h5c3.3 0 5.5 2.8 5.5 5.5v5c.5 3.3-2.2 5.5-5.5 5.5zm22.6-19.8c0 2.8-2.8 5.5-5.5 5.5h-5c-3.3 0-5.5-2.8-5.5-5.5v-5c0-3.3 2.8-5.5 5.5-5.5h5c3.3 0 5.5 2.8 5.5 5.5v5z" fill="#9ada36"/><path d="M968.8 141.7h-5c-3.3 0-5.5-2.8-5.5-5.5v-5c0-3.3 2.8-5.5 5.5-5.5h5c3.3 0 5.5 2.8 5.5 5.5v5c0 2.8-2.2 5.5-5.5 5.5zm16.6 14.3h-5c-3.3 0-5.5-2.8-5.5-5.5v-5c0-3.3 2.8-5.5 5.5-5.5h5c3.3 0 5.5 2.8 5.5 5.5v5c.5 3.3-2.2 5.5-5.5 5.5zm17.1-14.3h-5c-3.3 0-5.5-2.8-5.5-5.5v-5c0-3.3 2.8-5.5 5.5-5.5h5c3.3 0 5.5 2.8 5.5 5.5v5c0 2.8-2.8 5.5-5.5 5.5z" fill="#00502f"/><path d="M806.3 20.3l106.2-.5C902 14.3 881.1 4.4 859.1 4.4c-19.8 0-39.5 7.2-52.8 15.9z" fill="#fff"/><path d="M988.7 49.6h9.4c1.1 0 1.7 1.1 1.7 1.7l-6.1 48.5c0 .6-.6 1.7-1.7 1.7l-172.1 1.1-44.1 20.4c-1.7 1.1-3.3-1.7-1.7-2.8L811 84.9h160.5c.6 0 1.1-.6 1.7-1.1L987 50.7c.6-.5 1.1-1.1 1.7-1.1z" fill="#f2f2f2"/><path d="M1044.9 33.6h-29.2c-.6 0-1.1.6-1.1 1.1v9.9c0 .6.6 1.1 1.1 1.1h29.2c.6 0 1.1-.6 1.1-1.1v-9.9c0-.5-.5-1.1-1.1-1.1z" fill="#E1A12E"/><path d="M63.4 154.9v-28.7h25.9v29.2c0 13.8-4.4 24.8-12.7 33.1-8.8 8.3-19.3 12.7-32 12.7s-23.7-4.4-32-12.7C4.4 180.3 0 169.3 0 155.5V43.6C0 29.8 4.4 18.7 13.2 9.9 21.5 1.7 32-2.8 45.2-2.8c12.7 0 23.2 3.9 31.4 12.1 8.3 8.3 12.1 19.3 12.1 33.1v27H62.9V43.6c0-6.6-1.7-11.6-5-15.4-3.3-3.9-7.7-5.5-13.2-5.5s-9.9 1.7-13.2 5.5c-3.3 3.9-5 8.8-5 15.4V155c0 6.6 1.7 11.6 5 15.4 3.3 3.9 7.7 5.5 13.2 5.5s9.9-1.7 13.2-5.5c3.3-3.9 5.5-8.8 5.5-15.5zM174.2 0L215 198h-28.1l-8.3-44.7h-37.5l-8.3 44.7H108L145.6 0h28.6zM161 48.5l-15.4 83.3h32.5L161 48.5zm179.8 150h-28.1l-25.4-80c-1.7 0-4.4.6-8.3.6h-12.1v79.4h-27V0h43c15.4 0 27.6 4.4 35.8 12.7 8.8 8.8 13.2 21 13.2 36.9V70c0 19.9-7.2 33.1-21.5 39.7l30.4 88.8zM267.4 24.8v71.7h15.4c7.2 0 12.7-2.2 16.5-6.6 3.9-4.4 6.1-10.5 6.1-18.7V50.7c0-8.3-2.2-14.9-6.1-18.7-3.9-4.4-9.4-6.6-16.5-6.6h-15.4v-.6zm180.9 1.7h-32.5v172h-27.1v-172h-32.5V0h92.1zM512.8 0l40.8 198h-28.1l-8.3-44.7h-37.5l-8.3 44.7h-24.8L484.1 0h28.7zM499 48.5l-15.4 83.3h32.5L499 48.5zM671.1 0l-37.5 94.8L673.8 198h-29.2l-25.4-65.7-25.9 65.7h-28.7l40.3-102.1L567.4 0h29.2l22.6 58.5L642.4 0zm29.7 198.5V0h27.6v198h-27.6z" fill="#fff"/><g fill="#9ada36"><circle cx="1071.4" cy="169.3" r="19.3"/><circle cx="890" cy="169.3" r="19.3"/></g><path d="M937.4 48.3c-6.6 0-12.1 5.5-12.1 12.1s5.5 12.1 12.1 12.1 12.1-5.5 12.1-12.1-5.5-12.1-12.1-12.1zm-123.9 25c3.9 4.9 9.8 8 16.4 8s12.5-3.2 16.4-8.1l74-.5a20.01 20.01 0 0 0 1.9 2.2c4 4 9.2 6.6 15.2 6.6 5.9 0 11.2-2.6 15.2-6.6l3.4-3.4c33.7-7.9 20.9-48.4-36.8-51.7h-.1C917.3 18.6 889 .6 859.1.6c-22.6 0-45.1 9.3-58.4 19.8h-.1c-6.1 5-9.9 9.9-11 14.3-2.8 13.8 1.7 30.9 16 35.3m37 3.1c-3.3 3.3-7.7 5.5-12.7 5.5s-9.4-2.2-12.7-5.5-5.5-7.7-5.5-12.7 2.2-9.4 5.5-12.7 7.7-5.5 12.7-5.5 9.4 2.2 12.7 5.5 5.5 7.7 5.5 13.2c0 5-2.2 9.4-5.5 12.2zm-36.3-52.7c13.2-8.8 33-15.9 52.8-15.9 22 0 42.9 9.9 53.4 15.4l-106.2.5zm143.8 52.1c-3.3 3.3-7.7 5.5-12.7 5.5s-9.4-2.2-12.7-5.5-5.5-7.7-5.5-12.7 2.2-9.4 5.5-12.7 7.7-5.5 12.7-5.5 9.4 2.2 12.7 5.5 5.5 7.7 5.5 13.2c0 5.1-2.2 9.5-5.5 12.2z" fill="#00b4d0"/></g><defs ><path id="B" d="M1071.4 140.1c-16 0-29.2 13.2-29.2 29.2s13.2 29.2 29.2 29.2 29.2-13.2 29.2-29.2-13.2-29.2-29.2-29.2zm0 46.8c-9.4 0-17.6-7.7-17.6-17.6s7.7-17.6 17.6-17.6c9.4 0 17.6 7.7 17.6 17.6 0 9.4-7.7 17.6-17.6 17.6z"/></defs></svg>