<?xml version="1.0" encoding="utf-8"?>
<!-- Generator: Adobe Illustrator 22.0.1, SVG Export Plug-In . SVG Version: 6.00 Build 0)  -->
<svg version="1.1" xmlns="http://www.w3.org/2000/svg" xmlns:xlink="http://www.w3.org/1999/xlink" x="0px" y="0px"
	 viewBox="0 0 600 600" style="enable-background:new 0 0 600 600;" xml:space="preserve">
<style type="text/css">
	.st0{display:none;}
	.st1{display:inline;fill:none;stroke:#7EBF21;stroke-width:4;stroke-miterlimit:10;}
	.st2{fill:#7EBF21;}
	.st3{fill:#8DDB2E;}
	.st4{opacity:0.5;fill:url(#SVGID_1_);}
	.st5{fill:#FFFFFF;}
</style>
<g id="Layer_1">
	<g class="st0">
		<polyline class="st1" points="382.1,425.5 392.8,414.8 440,414.8 		"/>
		<polyline class="st1" points="367.1,435 377.8,445.7 440,445.7 		"/>
		<polyline class="st1" points="367.1,554.3 387.8,575 440,575 		"/>
		<polyline class="st1" points="337.1,434.3 354.8,452 440,452 		"/>
		<polyline class="st1" points="337.1,510.3 350.8,524 440,524 		"/>
		<polyline class="st1" points="337.1,479.3 356.8,499 440,499 		"/>
		<polyline class="st1" points="353.7,423.7 377.8,399.5 440,399.5 		"/>
		<polyline class="st1" points="352.7,469.7 363.8,458.5 440,458.5 		"/>
		<polyline class="st1" points="382.7,485.2 393.8,474 440,474 		"/>
		<polyline class="st1" points="367.7,515.2 378.8,504 440,504 		"/>
		<polyline class="st1" points="382.7,540 393.8,551.2 440,551.2 		"/>
		<polyline class="st1" points="351.7,546.2 367.8,530 440,530 		"/>
		<polyline class="st1" points="234,434 222.3,445.7 160.1,445.7 		"/>
		<polyline class="st1" points="248,556.3 229.3,575 160.1,575 		"/>
		<polyline class="st1" points="253,454.3 237.3,470 160.1,470 		"/>
		<polyline class="st1" points="262,460.3 243.3,479 160.1,479 		"/>
		<polyline class="st1" points="257.4,433.7 231.3,407.5 160.1,407.5 		"/>
		<polyline class="st1" points="252.4,515.2 241.3,504 160.1,504 		"/>
		<polyline class="st1" points="238.4,536.2 222.3,520 160.1,520 		"/>
	</g>
</g>
<g id="Layer_2">
	<circle class="st2" cx="300" cy="300" r="300"/>
	<circle class="st3" cx="300" cy="300" r="270"/>
	<g>
		<radialGradient id="SVGID_1_" cx="300" cy="300" r="270" gradientUnits="userSpaceOnUse">
			<stop  offset="4.878049e-03" style="stop-color:#FFFFFF"/>
			<stop  offset="1" style="stop-color:#FFFFFF;stop-opacity:0"/>
		</radialGradient>
		<circle class="st4" cx="300" cy="300" r="270"/>
	</g>
	<g>
		<polygon class="st2" points="465.1,175.2 459.5,169.6 481.8,147.3 549.1,147.3 549.1,155.2 485.1,155.2 		"/>
		<polygon class="st2" points="576.8,216.3 452.2,216.3 429.8,194 435.4,188.4 455.4,208.4 576.8,208.4 		"/>
		<polygon class="st2" points="533.3,472.1 471.9,472.1 429.8,430 435.4,424.4 475.2,464.2 533.3,464.2 		"/>
		<polygon class="st2" points="576.8,373.2 398.8,373.2 370.5,344.9 376.1,339.3 402,365.3 576.8,365.3 		"/>
		<polygon class="st2" points="408.8,171.6 403.2,166 452.2,117 527.4,117 527.4,124.9 455.4,124.9 		"/>
		<polygon class="st2" points="466.2,293.2 460.6,287.6 483.8,264.4 576.8,264.4 576.8,272.3 487.1,272.3 		"/>
		<polygon class="st2" points="147.8,216.3 23.2,216.3 23.2,208.4 144.6,208.4 166.6,186.4 172.1,192 		"/>
		<polygon class="st2" points="189.4,282.2 23.2,282.2 23.2,274.3 186.1,274.3 221.9,238.4 227.5,244 		"/>
		<polygon class="st2" points="175.4,394.1 144.6,363.3 23.2,363.3 23.2,355.4 147.8,355.4 180.9,388.5 		"/>
	</g>
	<g>
		<g>
			<rect x="438.7" y="151.7" class="st5" width="29.7" height="29.7"/>
		</g>
		<g>
			<rect x="409" y="181.3" class="st5" width="29.7" height="29.7"/>
		</g>
		<g>
			<rect x="438.7" y="389" class="st5" width="29.7" height="29.7"/>
		</g>
		<g>
			<rect x="409" y="329.7" class="st5" width="29.7" height="29.7"/>
		</g>
		<g>
			<rect x="349.6" y="270.3" class="st5" width="29.7" height="29.7"/>
		</g>
		<g>
			<rect x="379.3" y="240.7" class="st5" width="29.7" height="29.7"/>
		</g>
		<g>
			<rect x="438.7" y="270.3" class="st5" width="29.7" height="29.7"/>
		</g>
		<g>
			<path class="st5" d="M409,418.7V389h-29.7v29.7h-29.7V389h29.7v-59.4h-29.7V300h-29.7v-29.7h29.7v-29.7h-29.7V211h29.7v29.7h29.7
				v-59.3H409v-29.6l0.1-0.1h-86.6L271.5,233l-51.2-81.4h-40.5h-5.3h-40.5l94,147.2l-96.2,149.6h40.5h5.7h40.5l53.1-83.7l52.8,83.7
				h40.5h5.9h8.5H409h2.3h27.4v-29.7H409z M319.9,359.3v-29.7h-29.7V300h-29.7v-29.7h29.7V300v0h29.7v29.6v0h29.7v29.7H319.9z"/>
		</g>
	</g>
</g>
</svg>
