<?xml version="1.0" encoding="utf-8"?>
<!-- Generator: Adobe Illustrator 22.0.0, SVG Export Plug-In . SVG Version: 6.00 Build 0)  -->
<svg version="1.1" id="Layer_1" xmlns="http://www.w3.org/2000/svg" xmlns:xlink="http://www.w3.org/1999/xlink" x="0px" y="0px"
	 viewBox="0 0 2031.3 594.4" style="enable-background:new 0 0 2031.3 594.4;" xml:space="preserve">
<style type="text/css">
	.st0{fill:#212322;}
	.st1{fill:#FFFFFF;}
	.st2{fill:#F9C500;}
</style>
<g>
	<g>
		<path class="st0" d="M1048.4,378.5c-7.8,0-11.9-4.1-11.9-11.9v-14.2c-14.9,18.3-36.9,30.2-61.9,30.2c-46.6,0-85-39.9-85-85.7
			c0-46.6,38.4-85,85-85c25,0,47,11.6,61.9,29.4v-117c0-7.8,4.1-11.9,11.9-11.9h1.1c7.8,0,11.9,4.1,11.9,11.9v242.2
			c0,7.8-4.1,11.9-11.9,11.9h-1.1V378.5z M1034.9,296.9c0-33.2-28.7-60.4-61.1-60.4c-33.2,0-58.1,27.2-58.1,60.4
			c0,32.4,25,61.1,58.1,61.1C1006.2,358,1034.9,329.3,1034.9,296.9z"/>
		<path class="st0" d="M974.6,388.4c-49.2,0-90.8-41.9-90.8-91.6c0-50.1,40.7-90.8,90.8-90.8c20.6,0,40.4,7.5,56,21V124.4
			c0-11.1,6.6-17.8,17.8-17.8h1.1c11.1,0,17.8,6.6,17.8,17.8v242.2c0,11.1-6.6,17.8-17.8,17.8h-1.1c-11,0-17.6-6.5-17.8-17.4
			C1014.9,380.7,995.1,388.4,974.6,388.4z M974.6,217.8c-43.6,0-79.1,35.5-79.1,79.1c0,43.3,36.2,79.9,79.1,79.9
			c21.9,0,42.8-10.2,57.3-28l10.4-12.7v30.6c0,4.6,1.5,6.1,6.1,6.1h1.1c4.6,0,6.1-1.5,6.1-6.1V124.4c0-4.6-1.5-6.1-6.1-6.1h-1.1
			c-4.6,0-6.1,1.5-6.1,6.1v133.2l-10.3-12.4C1017.5,227.7,996.5,217.8,974.6,217.8z M973.8,363.8c-35.3,0-64-30-64-67
			c0-37.1,28.1-66.2,64-66.2c36.3,0,67,30.3,67,66.2C1040.8,332.6,1009.5,363.8,973.8,363.8z M973.8,242.4
			c-29.3,0-52.3,24-52.3,54.5s23.5,55.3,52.3,55.3c29.4,0,55.3-25.8,55.3-55.3C1029.1,267.3,1003.8,242.4,973.8,242.4z"/>
	</g>
	<g>
		<path class="st0" d="M1098.7,296.9c0-46.6,38.4-85,85-85c25,0,47,11.6,61.9,29.4v-14.9c0-7.8,4.1-11.9,11.9-11.9h1.1
			c7.8,0,11.9,4.1,11.9,11.9v140.9c0,7.8-4.1,11.9-11.9,11.9h-1.1c-7.8,0-11.9-4.1-11.9-11.9v-14.9c-14.9,18.3-36.9,30.2-61.9,30.2
			C1137,382.6,1098.7,342.7,1098.7,296.9z M1244,296.9c0-33.2-28.7-60.4-61.1-60.4c-33.2,0-58.1,27.2-58.1,60.4
			c0,32.4,25,61.1,58.1,61.1C1215.3,358,1244,329.3,1244,296.9z"/>
		<path class="st0" d="M1183.6,388.4c-49.2,0-90.8-41.9-90.8-91.6c0-50.1,40.7-90.8,90.8-90.8c20.6,0,40.4,7.5,56,21v-0.6
			c0-11.1,6.6-17.8,17.8-17.8h1.1c11.1,0,17.8,6.6,17.8,17.8v140.9c0,11.1-6.6,17.8-17.8,17.8h-1.1c-11.1,0-17.8-6.6-17.8-17.8v-0.4
			C1224,380.7,1204.2,388.4,1183.6,388.4z M1183.6,217.8c-43.6,0-79.1,35.5-79.1,79.1c0,43.3,36.2,79.9,79.1,79.9
			c21.9,0,42.8-10.2,57.3-28l10.4-12.7v31.3c0,4.6,1.5,6.1,6.1,6.1h1.1c4.6,0,6.1-1.5,6.1-6.1V226.5c0-4.6-1.5-6.1-6.1-6.1h-1.1
			c-4.6,0-6.1,1.5-6.1,6.1v31.1l-10.3-12.4C1226.5,227.7,1205.6,217.8,1183.6,217.8z M1182.9,363.8c-35.3,0-64-30-64-67
			c0-37.1,28.1-66.2,64-66.2c36.3,0,67,30.3,67,66.2C1249.8,332.6,1218.5,363.8,1182.9,363.8z M1182.9,242.4
			c-29.3,0-52.3,24-52.3,54.5s23.5,55.3,52.3,55.3c29.4,0,55.3-25.8,55.3-55.3C1238.1,267.3,1212.8,242.4,1182.9,242.4z"/>
	</g>
	<g>
		<path class="st0" d="M1455.7,267.8c-6.3,0-10.4-2.6-14.5-7.8c-10.4-14.2-27.2-23.5-46.6-23.5c-33.2,0-58.9,27.2-58.9,60.4
			c0,32.4,25.7,61.1,58.9,61.1c19.4,0,36.1-9.7,46.6-24.2c4.1-5.2,8.2-7.8,14.5-7.8h3.7c8.9,0,13.4,6,8.9,14.2
			c-14.5,25.3-42.5,42.5-73.8,42.5c-46.6,0-85-39.9-85-85.7c0-46.6,38.4-85,85-85c30.9,0,58.1,16.8,73,41.7
			c4.8,8.2,0.4,14.2-8.9,14.2h-2.9V267.8z"/>
		<path class="st0" d="M1394.5,388.4c-49.2,0-90.8-41.9-90.8-91.6c0-50.1,40.7-90.8,90.8-90.8c31.7,0,61.6,17.1,78.1,44.6
			c4.5,7.6,2.6,13.1,1.1,15.7c-2.7,4.7-8.2,7.4-15.1,7.4h-3c-10,0-15.5-5.4-19.1-10.1c-10-13.5-25.2-21.2-42-21.2
			c-29.7,0-53,24-53,54.5c0,30,24.3,55.3,53,55.3c16.6,0,31.9-7.9,41.8-21.8c3.8-4.9,9.3-10.3,19.3-10.3h3.7c6.7,0,12,2.6,14.7,7.2
			c1.5,2.6,3.5,8.1-0.6,15.6C1457.3,371,1427.1,388.4,1394.5,388.4z M1394.5,217.8c-43.6,0-79.1,35.5-79.1,79.1
			c0,43.3,36.2,79.9,79.1,79.9c28.4,0,54.7-15.2,68.7-39.5c1.1-2,1.1-3.4,0.8-4c-0.4-0.7-2-1.4-4.7-1.4h-3.7c-4.1,0-6.7,1.4-9.9,5.6
			c-12,16.7-30.7,26.5-51.2,26.5c-35.7,0-64.7-30-64.7-67c0-36.5,29-66.2,64.7-66.2c20.5,0,39.2,9.4,51.3,25.9
			c3.2,4,5.7,5.5,9.8,5.5h3c3,0,4.6-0.9,4.9-1.4s0.1-2-1-3.9C1448.2,232.7,1422.2,217.8,1394.5,217.8z"/>
	</g>
	<g>
		<path class="st0" d="M1595.4,246.2c-5.6-6.7-16-10.8-29.8-10.8c-19.8,0-33.5,9.3-33.5,21.6c0,12.3,10.8,19.4,37.6,24.6
			c42.1,8.6,58.9,23.1,58.9,50.3c0,28.7-22,49.2-63,49.2c-31.3,0-53.7-14.5-60.7-36.5c-2.6-7.8,2.6-12.7,10.8-12.7
			c6.7,0,9.7,3.4,13.4,8.9c6.3,9.7,20.1,16.8,36.5,16.8c24.2,0,40.2-10.8,40.2-25.7c0-15.7-10.4-20.9-40.2-26.8
			c-39.1-7.8-56.6-22-56.6-48.1c0-25,19.4-45.1,56.6-45.1c26.5,0,45.5,11.9,53.3,29.8c3.4,7.8-1.5,13-9.7,13
			C1602.5,254.8,1599.5,251.4,1595.4,246.2z"/>
		<path class="st0" d="M1565.6,387c-32.8,0-58.2-15.5-66.3-40.6c-1.7-5.1-1.1-10,1.6-13.8c3-4.2,8.3-6.5,14.8-6.5
			c9.8,0,14.2,5.5,18.3,11.5c5.6,8.6,18,14.2,31.7,14.2c20.3,0,34.4-8.2,34.4-19.9c0-9.7-3.4-14.7-35.5-21.1
			c-28.6-5.7-61.3-17-61.3-53.8c0-25.4,19.3-50.9,62.5-50.9c27.6,0,49.5,12.5,58.7,33.3c2.3,5.3,2.1,10.5-0.6,14.5
			c-2.8,4.3-8.1,6.7-14.4,6.7c-9.8,0-14.4-5.7-18.3-10.7c-4.6-5.5-13.8-8.6-25.3-8.6c-15.8,0-27.7,6.8-27.7,15.8
			c0,6.5,4,13.2,32.9,18.9c44.6,9.1,63.6,25.8,63.6,56C1634.4,365.9,1608,387,1565.6,387z M1515.7,337.8c-3,0-4.7,0.9-5.3,1.7
			c-0.6,0.9-0.3,2.5,0,3.3c6.6,20.4,27.2,32.5,55.2,32.5c35.8,0,57.1-16.2,57.1-43.3c0-20.1-9.2-35.4-54.2-44.6
			c-22-4.3-42.3-10.9-42.3-30.3c0-15.9,16.6-27.5,39.4-27.5c15.2,0,27.4,4.6,34.3,12.9l0.1,0.1c4,5.1,5.4,6.3,9.2,6.3
			c2.6,0,4.2-0.7,4.7-1.5c0.4-0.6,0.3-1.9-0.4-3.4c-7.2-16.4-25.1-26.3-47.9-26.3c-31.3,0-50.8,15-50.8,39.2c0,22.7,15,35,51.9,42.3
			c26.3,5.3,45,10.7,45,32.6c0,18.6-19,31.6-46.1,31.6c-17.7,0-33.6-7.4-41.4-19.4C1520.7,338.8,1519.3,337.8,1515.7,337.8z"/>
	</g>
	<g>
		<path class="st0" d="M1826.5,302.5c0,4.1-4.1,6-11.9,6h-130.8c5.2,27.2,28.7,49.6,57.8,49.6c15.7,0,29.4-6.3,39.5-16
			c4.5-4.5,8.6-6.7,14.9-6.7h4.8c9.7,0,14.2,6.7,8.2,14.5c-15.7,20.1-40.2,32.8-67.4,32.8c-46.6,0-85-39.9-85-85.7
			c0-46.6,38.4-85,85-85s85,38.4,85,85L1826.5,302.5L1826.5,302.5z M1683.7,284.6h115.5c-5.6-27.2-28.7-48.1-57.8-48.1
			S1689.3,257.4,1683.7,284.6z"/>
		<path class="st0" d="M1741.5,388.4c-49.2,0-90.8-41.9-90.8-91.6c0-50.1,40.7-90.8,90.8-90.8s90.8,40.7,90.8,90.8v5.6
			c0,4.4-2.3,11.8-17.8,11.8h-123.3c7.2,22.3,27.4,37.9,50.2,37.9c13.2,0,25.8-5.1,35.4-14.4c5.8-5.8,11.5-8.3,19-8.3h4.8
			c7.2,0,13,3,15.5,8c2.4,4.8,1.4,10.6-2.6,15.9C1796.2,375.7,1770,388.4,1741.5,388.4z M1741.5,217.8c-43.6,0-79.1,35.5-79.1,79.1
			c0,43.3,36.2,79.9,79.1,79.9c24.8,0,47.7-11.1,62.8-30.5c1.4-1.8,1.6-3.1,1.4-3.6c-0.3-0.6-1.9-1.5-5-1.5h-4.8
			c-4.3,0-7,1.3-10.8,5c-11.9,11.5-27.4,17.7-43.6,17.7c-30.8,0-57.5-22.8-63.5-54.3l-1.3-7h137.9c3.6,0,5.4-0.5,6.1-0.7v-5
			C1820.6,253.3,1785.1,217.8,1741.5,217.8z M1820.6,302.5L1820.6,302.5h5.8H1820.6z M1806.4,290.4h-129.9l1.4-7
			c6.4-31.1,32.5-52.7,63.5-52.7s57.1,21.7,63.5,52.7L1806.4,290.4z M1691.4,278.7h100.2c-7.4-21.7-27.1-36.4-50.1-36.4
			S1698.8,257,1691.4,278.7z"/>
	</g>
	<g>
		<path class="st0" d="M2022.5,302.5c0,4.1-4.1,6-11.9,6h-130.8c5.2,27.2,28.7,49.6,57.8,49.6c15.7,0,29.4-6.3,39.5-16
			c4.5-4.5,8.6-6.7,14.9-6.7h4.8c9.7,0,14.2,6.7,8.2,14.5c-15.7,20.1-40.2,32.8-67.4,32.8c-46.6,0-85-39.9-85-85.7
			c0-46.6,38.4-85,85-85s85,38.4,85,85L2022.5,302.5L2022.5,302.5z M1879.7,284.6h115.5c-5.6-27.2-28.7-48.1-57.8-48.1
			C1908.4,236.5,1885.3,257.4,1879.7,284.6z"/>
		<path class="st0" d="M1937.5,388.4c-49.2,0-90.8-41.9-90.8-91.6c0-50.1,40.7-90.8,90.8-90.8c50.1,0,90.8,40.7,90.8,90.8v5.6
			c0,4.4-2.3,11.8-17.8,11.8h-123.3c7.2,22.3,27.4,37.9,50.2,37.9c13.2,0,25.8-5.1,35.4-14.4c5.8-5.8,11.5-8.3,19-8.3h4.8
			c7.2,0,13,3,15.5,8c2.4,4.8,1.4,10.6-2.6,15.9C1992.2,375.7,1966,388.4,1937.5,388.4z M1937.5,217.8c-43.6,0-79.1,35.5-79.1,79.1
			c0,43.3,36.2,79.9,79.1,79.9c24.8,0,47.7-11.1,62.8-30.5c1.4-1.8,1.6-3.1,1.4-3.6c-0.3-0.6-1.9-1.5-5-1.5h-4.8
			c-4.3,0-7,1.3-10.8,5c-11.9,11.5-27.4,17.7-43.6,17.7c-30.8,0-57.5-22.8-63.5-54.3l-1.3-7h137.9c3.6,0,5.4-0.5,6.1-0.7v-5
			C2016.6,253.3,1981.1,217.8,1937.5,217.8z M2016.6,302.5L2016.6,302.5h5.8H2016.6z M2002.4,290.4h-129.9l1.4-7
			c6.4-31.1,32.5-52.7,63.5-52.7s57.1,21.7,63.5,52.7L2002.4,290.4z M1887.4,278.7h100.2c-7.4-21.7-27.1-36.4-50.1-36.4
			C1914.5,242.4,1894.8,257,1887.4,278.7z"/>
	</g>
	<g>
		<path class="st1" d="M386.6,51.9c129,0,233.6,104.6,233.6,233.6v1.3c56.6,8.1,100.1,56.7,100.1,115.6c0,14-2.4,27.4-7,39.8
			c-12.3,34-39.9,60.6-74.4,71.5c-2.3,0.7-4.6,1.4-7,2c-60.9,16.5-148.3,26.9-245.3,26.9c-97.4,0-185-10.4-246-27.1
			c-1-0.3-2-0.5-3-0.8c-1.1-0.3-2.3-0.7-3.4-1c-34.5-11-62.1-37.7-74.3-71.6c-4.5-12.4-6.9-25.8-6.9-39.7
			c0-58.8,43.4-107.5,100-115.6v-1.3C153.1,156.5,257.6,51.9,386.6,51.9 M386.6,0c-38.5,0-75.9,7.6-111.1,22.5
			c-34,14.4-64.5,35-90.7,61.2s-46.8,56.7-61.2,90.7c-9.9,23.4-16.6,47.8-19.9,72.8c-23.2,9.9-44.1,25-61,44.3
			c-26.8,30.7-41.6,70.1-41.6,111c0,19.7,3.4,39,10,57.4c8.7,24.1,23.1,46.2,41.6,64.1c18.6,17.9,41.3,31.5,65.7,39.3
			c0.3,0.1,0.6,0.2,0.9,0.3c0.6,0.2,1.2,0.4,1.9,0.6c0.5,0.1,1,0.3,1.5,0.4h0.1c1.7,0.5,3.3,0.9,4.4,1.2
			c68.2,18.6,160.3,28.8,259.3,28.8c98.4,0,190-10.1,258.1-28.5c3.3-0.8,6.6-1.7,10-2.8c24.5-7.8,47.2-21.3,65.7-39.2
			c18.6-17.8,33-40,41.7-64.1c6.7-18.4,10.1-37.7,10.1-57.5c0-40.9-14.8-80.3-41.7-111c-16.9-19.3-37.8-34.4-61-44.2
			c-3.4-25-10-49.3-19.9-72.7c-14.4-34-35-64.5-61.1-90.7c-26.2-26.2-56.7-46.8-90.7-61.2C462.5,7.6,425.1,0,386.6,0L386.6,0z"/>
		<g>
			<path class="st2" d="M386.6,555.5c-94.4,0-185.2-10-249.3-27.5c-1.1-0.3-2.2-0.6-3.4-0.9c0,0-3.5-1.1-3.6-1.1
				c-38.1-12.2-69-41.9-82.6-79.5c-5.1-14.1-7.7-28.9-7.7-44.1c0-31.4,11.4-61.7,32-85.4c18-20.6,41.9-34.9,68.2-41
				c2.3-62.3,27.7-120.5,72-164.8C258.8,64.6,320.7,39,386.5,39c65.9,0,127.8,25.6,174.3,72.2c44.3,44.3,69.7,102.5,72,164.8
				c26.3,6.1,50.3,20.4,68.3,41c20.7,23.6,32,53.9,32,85.4c0,15.2-2.6,30.1-7.8,44.2c-13.6,37.6-44.5,67.3-82.7,79.5
				c-2.7,0.9-5.2,1.6-7.8,2.2C570.1,545.8,481.9,555.5,386.6,555.5z"/>
			<path class="st0" d="M386.6,51.9c129,0,233.6,104.6,233.6,233.6v1.3c56.6,8.1,100.1,56.7,100.1,115.6c0,14-2.4,27.4-7,39.8
				c-12.3,34-39.9,60.6-74.4,71.5c-2.3,0.7-4.6,1.4-7,2c-60.9,16.5-148.3,26.9-245.3,26.9c-97.4,0-185-10.4-246-27.1
				c-1-0.3-2-0.5-3-0.8c-1.1-0.3-2.3-0.7-3.4-1c-34.5-11-62.1-37.7-74.3-71.6c-4.5-12.4-6.9-25.8-6.9-39.7
				c0-58.8,43.4-107.5,100-115.6v-1.3C153.1,156.5,257.6,51.9,386.6,51.9 M386.6,26c-35,0-69,6.9-101,20.4
				c-30.9,13.1-58.7,31.8-82.5,55.6s-42.5,51.6-55.6,82.5c-11,26-17.6,53.3-19.7,81.4c-25.2,7.8-48,22.4-65.5,42.6
				c-22.7,26-35.2,59.3-35.2,93.9c0,16.7,2.9,33,8.5,48.5c7.3,20.3,19.5,39.1,35.2,54.2c15.7,15.1,34.9,26.6,55.6,33.2
				c0.1,0,0.3,0.1,0.5,0.1c0.6,0.2,1.2,0.4,1.8,0.5c0.5,0.2,1.1,0.3,1.6,0.5c0,0,0,0,0.1,0c1.4,0.4,2.7,0.7,3.7,1
				c32.2,8.8,70.2,15.7,113.1,20.5c44,4.9,91,7.5,139.5,7.5c48.4,0,95.2-2.5,139-7.4c42.6-4.8,80.5-11.6,112.6-20.3
				c2.8-0.7,5.6-1.5,8.6-2.4c20.7-6.6,39.9-18,55.6-33.2c15.7-15.1,27.9-33.9,35.3-54.3c5.7-15.5,8.5-31.9,8.5-48.6
				c0-34.6-12.5-67.9-35.3-93.9c-17.6-20.1-40.4-34.8-65.6-42.5c-2.1-28.1-8.7-55.4-19.7-81.4c-13.1-30.9-31.8-58.7-55.6-82.5
				s-51.6-42.5-82.5-55.6C455.6,32.8,421.6,26,386.6,26L386.6,26z"/>
		</g>
		<g>
			<path class="st1" d="M542.5,441.2c-21.5,0-38.9-17.5-38.9-38.9c0-21.5,17.5-38.9,38.9-38.9s38.9,17.5,38.9,38.9
				S563.9,441.2,542.5,441.2z"/>
			<g>
				<path class="st0" d="M542.5,376.3c14.3,0,26,11.6,26,26s-11.6,26-26,26c-14.3,0-26-11.6-26-26S528.1,376.3,542.5,376.3
					 M542.5,350.4c-28.6,0-51.9,23.3-51.9,51.9s23.3,51.9,51.9,51.9s51.9-23.3,51.9-51.9C594.4,373.6,571.1,350.4,542.5,350.4
					L542.5,350.4z"/>
			</g>
		</g>
		<g>
			<path class="st1" d="M386.6,441.2c-21.5,0-38.9-17.5-38.9-38.9c0-21.5,17.5-38.9,38.9-38.9c21.5,0,38.9,17.5,38.9,38.9
				C425.6,423.7,408.1,441.2,386.6,441.2z"/>
			<g>
				<path class="st0" d="M386.6,376.3c14.3,0,26,11.6,26,26s-11.6,26-26,26c-14.3,0-26-11.6-26-26S372.3,376.3,386.6,376.3
					 M386.6,350.4c-28.6,0-51.9,23.3-51.9,51.9s23.3,51.9,51.9,51.9s51.9-23.3,51.9-51.9C438.5,373.6,415.2,350.4,386.6,350.4
					L386.6,350.4z"/>
			</g>
		</g>
		<g>
			<path class="st1" d="M230.8,441.3c-21.5,0-38.9-17.5-38.9-38.9s17.5-38.9,38.9-38.9s38.9,17.5,38.9,38.9S252.3,441.3,230.8,441.3
				z"/>
			<g>
				<path class="st0" d="M230.8,376.4c14.3,0,26,11.6,26,26s-11.6,26-26,26s-26-11.6-26-26S216.5,376.4,230.8,376.4 M230.8,350.4
					c-28.6,0-51.9,23.3-51.9,51.9s23.3,51.9,51.9,51.9s51.9-23.3,51.9-51.9C282.7,373.7,259.4,350.4,230.8,350.4L230.8,350.4z"/>
			</g>
		</g>
		<g>
			<path class="st1" d="M220,258.3c-2.6,0-5.3-0.8-7.5-2.4c-3.7-2.6-5.7-6.9-5.5-11.4c4.6-74.1,63.7-136,143.9-150.6
				c0.8-0.1,1.6-0.2,2.3-0.2c3,0,6,1.1,8.3,3c3,2.5,4.7,6.1,4.7,10v112.9c0,6.9-5.4,12.6-12.3,13c-51,2.6-98,11.6-128.8,24.7
				C223.5,258,221.8,258.3,220,258.3z"/>
			<path class="st0" d="M353.3,106.7v112.9c-54.3,2.8-101.5,12.3-133.2,25.7C224.3,176.5,280.1,120,353.3,106.7 M353.3,80.7
				c-1.5,0-3.1,0.1-4.7,0.4c-20.6,3.8-40.3,10.6-58.6,20.2c-18,9.5-34.1,21.5-47.9,35.8c-14,14.5-25.2,30.8-33.4,48.5
				c-8.5,18.5-13.4,38-14.6,58.1c-0.6,9,3.6,17.6,10.9,22.8c4.5,3.1,9.7,4.8,15,4.8c3.4,0,6.9-0.7,10.1-2.1
				c29.5-12.5,74.8-21.2,124.4-23.7c13.8-0.7,24.6-12.1,24.6-25.9V106.7c0-7.7-3.4-15-9.3-19.9C365.2,82.8,359.3,80.7,353.3,80.7
				L353.3,80.7z"/>
		</g>
		<g>
			<path class="st1" d="M553.2,258.3c-1.7,0-3.4-0.3-5.1-1c-30.8-13.1-77.8-22.1-128.8-24.7c-6.9-0.4-12.3-6.1-12.3-13V106.7
				c0-3.8,1.7-7.5,4.7-10c2.4-2,5.3-3,8.3-3c0.8,0,1.6,0.1,2.3,0.2c80.1,14.6,139.2,76.6,143.8,150.6c0.3,4.5-1.8,8.8-5.5,11.4
				C558.4,257.5,555.8,258.3,553.2,258.3z"/>
			<path class="st0" d="M420,106.7c73.2,13.4,128.9,69.8,133.2,138.7c-31.7-13.5-78.9-22.9-133.2-25.7V106.7 M420,80.7
				c-6,0-11.9,2.1-16.6,6c-5.9,4.9-9.3,12.2-9.3,19.9v112.9c0,13.8,10.8,25.2,24.6,25.9c49.5,2.5,94.9,11.2,124.4,23.7
				c3.3,1.4,6.7,2.1,10.1,2.1c5.3,0,10.5-1.6,15-4.8c7.3-5.2,11.5-13.8,10.9-22.8c-1.2-20.1-6.2-39.6-14.6-58
				c-8.1-17.7-19.4-34.1-33.4-48.5c-13.8-14.2-29.9-26.3-47.8-35.8c-18.2-9.6-37.9-16.5-58.6-20.2C423.1,80.9,421.6,80.7,420,80.7
				L420,80.7z"/>
		</g>
	</g>
</g>
</svg>
