<?xml version="1.0" encoding="UTF-8"?>
<svg width="134px" height="155px" viewBox="0 0 134 155" version="1.1" xmlns="http://www.w3.org/2000/svg" xmlns:xlink="http://www.w3.org/1999/xlink">
    <!-- Generator: Sketch 52.2 (67145) - http://www.bohemiancoding.com/sketch -->
    <title>Group 13</title>
    <desc>Created with Sketch.</desc>
    <g id="Logos-/-app" stroke="none" stroke-width="1" fill="none" fill-rule="evenodd">
        <g id="Group-13" transform="translate(67.000000, 77.000000) scale(-1, 1) translate(-67.000000, -77.000000) translate(-29.000000, -19.000000)">
            <rect id="Rectangle-3" x="0" y="0" width="192" height="192"></rect>
            <g id="Icon_Chatbot" transform="translate(29.440000, 19.200000)" fill="#0140DA" fill-rule="nonzero">
                <path d="M53.4701728,131.460378 C30.3730832,131.460378 0,103.276387 0,66.1373103 C0,28.9982338 30.3142798,0 67.0052046,0 C103.696129,0 133.44,29.6106826 133.44,66.1373103 C133.44,108.380106 100.545304,131.460378 75.6405824,151.81811 C64.2651217,158.338936 64.2651217,147.978982 64.2651217,143.872346 C64.2651217,138.354472 58.1797764,131.460378 53.4701728,131.460378 Z M38.1205109,57.5107046 C33.3347377,57.5107046 29.4551028,61.3729677 29.4551028,66.1373103 L29.4551028,71.8883808 C29.4551028,76.6527234 33.3347377,80.5149865 38.1205109,80.5149865 C42.9062835,80.5149865 46.785919,76.6527234 46.785919,71.8883808 L46.785919,66.1373103 C46.785919,61.3729677 42.9062835,57.5107046 38.1205109,57.5107046 Z M67.0052046,57.5107046 C62.2194314,57.5107046 58.3397965,61.3729677 58.3397965,66.1373103 L58.3397965,71.8883808 C58.3397965,76.6527234 62.2194314,80.5149865 67.0052046,80.5149865 C71.7909772,80.5149865 75.6706127,76.6527234 75.6706127,71.8883808 L75.6706127,66.1373103 C75.6706127,61.3729677 71.7909772,57.5107046 67.0052046,57.5107046 Z" id="Oval-3"></path>
            </g>
        </g>
    </g>
</svg>