<?xml version="1.0" encoding="iso-8859-1"?>
<!-- Generator: Adobe Illustrator 19.0.0, SVG Export Plug-In . SVG Version: 6.00 Build 0)  -->
<svg version="1.1" id="Layer_1" xmlns="http://www.w3.org/2000/svg" xmlns:xlink="http://www.w3.org/1999/xlink" x="0px" y="0px"
	 viewBox="0 0 500 500" style="enable-background:new 0 0 500 500;" xml:space="preserve">
<g>
	<path style="fill:#1A9ED6;" d="M3.572,249.93C4.329,112.734,112.855,3.451,249.499,3.001
		c136.606-0.45,247.559,108.965,246.926,246.886C495.786,388.993,385.535,493.614,254,495.233
		C112.886,496.971,5.23,385.842,3.572,249.93z M292.133,212.63c-7.78-6.132-14.103-11.858-21.131-16.523
		c-28.879-19.169-60.509-22.065-91.799-9.384c-42.5,17.225-60.913,52.816-64.115,96.735c-0.86,11.802,1.32,24.271,4.379,35.831
		c9.878,37.328,33.558,62.513,70.429,74.342c25.381,8.142,51.363,7.991,75.789-2.547c43.72-18.862,66.336-53.778,67.381-100.819
		c1.318-59.361,0.494-118.774,0.077-178.161c-0.041-5.844-2.56-12.458-5.952-17.297c-4.448-6.347-14.902-7.757-21.849-4.85
		c-8.619,3.606-13.19,10.016-13.2,19.419c-0.034,31.269-0.01,62.538-0.008,93.807C292.134,206.01,292.133,208.837,292.133,212.63z"
		/>
	<path style="fill:#FFFFFF;" d="M292.133,212.63c0-3.793,0-6.62,0-9.447c-0.002-31.269-0.026-62.538,0.008-93.807
		c0.01-9.403,4.581-15.813,13.2-19.419c6.947-2.906,17.401-1.497,21.849,4.85c3.392,4.839,5.911,11.453,5.952,17.297
		c0.418,59.387,1.241,118.8-0.077,178.161c-1.044,47.04-23.66,81.957-67.381,100.819c-24.425,10.538-50.407,10.689-75.789,2.547
		c-36.871-11.828-60.551-37.013-70.429-74.342c-3.059-11.561-5.24-24.029-4.379-35.831c3.202-43.919,21.615-79.51,64.115-96.735
		c31.29-12.682,62.92-9.785,91.799,9.384C278.03,200.772,284.353,206.498,292.133,212.63z M220.835,362.686
		c31.75,0.008,52.449-13.112,65.067-37.9c8.218-16.143,9.904-33.499,6.527-51.882c-8.574-46.674-58.803-71.494-101.015-49.468
		c-27.433,14.314-42.697,49.181-35.844,82.117C162.029,336.595,189.24,364.085,220.835,362.686z"/>
	<path style="fill:#1A9ED6;" d="M220.835,362.686c-31.594,1.4-58.806-26.091-65.264-57.133
		c-6.853-32.936,8.412-67.803,35.844-82.117c42.211-22.025,92.44,2.795,101.015,49.468c3.377,18.382,1.69,35.738-6.527,51.882
		C273.284,349.574,252.585,362.694,220.835,362.686z"/>
</g>
</svg>
