<?xml version="1.0" encoding="UTF-8"?>
<svg xmlns="http://www.w3.org/2000/svg" xmlns:xlink="http://www.w3.org/1999/xlink" version="1.1" id="desktop-logo" x="0px" y="0px" viewBox="0 0 594.9 91.7" style="enable-background:new 0 0 594.9 91.7;" xml:space="preserve">
					<style type="text/css">
						.stn0{fill:#FFFFFF;}
					    .stn1{fill:#E8B964;}
					</style>
					<path class="stn0" d="M201.5,90.8c-25,0-45.4-20.4-45.4-45.4c0-25,20.4-45.4,45.4-45.4c12.1,0,23.5,4.7,32.1,13.3l-7.3,7.3  c-6.6-6.6-15.4-10.2-24.7-10.2c-19.3,0-35,15.7-35,35c0,19.3,15.7,35,35,35c10.2,0,19.9-4.4,26.5-12.2l7.9,6.8  C227.3,85,214.7,90.8,201.5,90.8z"/>
					<path class="stn1" d="M201.6,69.5c-0.7,0-1.3,0-2-0.1l0.6-6.9c1.3,0.1,2.7,0.1,4-0.1l1,6.9C204,69.5,202.8,69.5,201.6,69.5z   M191.6,67.3c-1.7-0.8-3.3-1.8-4.7-2.9l4.3-5.5c1,0.8,2.2,1.5,3.4,2.1L191.6,67.3z M213.1,66.7l-3.3-6.1c1.2-0.6,2.3-1.4,3.3-2.3  l4.6,5.2C216.2,64.7,214.7,65.8,213.1,66.7z M181.2,58.3c-1-1.6-1.8-3.2-2.4-5l6.5-2.3c0.4,1.3,1,2.5,1.7,3.6L181.2,58.3z M222.8,57  l-6.1-3.4c0.6-1.2,1.2-2.4,1.5-3.7l6.7,1.9C224.4,53.6,223.7,55.4,222.8,57z M177.4,45.1L177.4,45.1c0-1.9,0.2-3.8,0.6-5.6l6.8,1.5  c-0.3,1.3-0.4,2.6-0.4,4L177.4,45.1z M218.9,44c-0.1-1.3-0.3-2.7-0.7-3.9l6.6-1.9c0.5,1.8,0.8,3.6,0.9,5.5L218.9,44z M187,35.6  l-5.8-3.7c1-1.6,2.2-3,3.5-4.3l4.9,4.9C188.6,33.4,187.7,34.5,187,35.6z M215.6,34.7c-0.8-1.1-1.7-2.1-2.7-3l4.6-5.2  c1.4,1.2,2.6,2.6,3.7,4.1L215.6,34.7z M194.4,29.1l-2.9-6.3c1.7-0.8,3.5-1.4,5.3-1.7l1.4,6.8C196.9,28.1,195.6,28.5,194.4,29.1z   M207.9,28.7c-1.2-0.5-2.5-0.8-3.8-1l1-6.9c1.8,0.3,3.7,0.7,5.4,1.4L207.9,28.7z"/>
					<path class="stn1" d="M483.1,91.3V46.6h15.6c5.4,0,9.5,1,12.3,3.1c2.8,2.1,4.2,5.1,4.2,9.1c0,2.2-0.6,4.1-1.7,5.8  c-1.1,1.7-2.7,2.9-4.7,3.7c2.3,0.6,4.1,1.7,5.4,3.5c1.3,1.7,2,3.9,2,6.4c0,4.3-1.4,7.5-4.1,9.8c-2.7,2.2-6.6,3.3-11.7,3.4H483.1z   M492.3,65.4h6.8c4.6-0.1,7-1.9,7-5.6c0-2-0.6-3.5-1.8-4.4c-1.2-0.9-3-1.3-5.6-1.3h-6.4V65.4z M492.3,71.9v12.1h7.9  c2.2,0,3.9-0.5,5.1-1.5c1.2-1,1.8-2.5,1.8-4.3c0-4.1-2.1-6.2-6.3-6.2H492.3z"/>
					<path class="stn1" d="M549.4,71.9h-17.7v12h20.7v7.4h-29.9V46.6h29.9v7.5h-20.7v10.6h17.7V71.9z"/>
					<path class="stn1" d="M594.9,54.1h-13.7v37.2H572V54.1h-13.5v-7.5h36.4V54.1z"/>
					<circle class="stn1" cx="464.4" cy="85.3" r="6.4"/>
					<rect x="407.8" y="3.2" class="stn0" width="64" height="10.4"/>
					<rect x="434.6" y="6.6" class="stn0" width="10.4" height="84.8"/>
					<path class="stn0" d="M25.9,89.7H0V2.9h25.9c23.9,0,43.4,19.5,43.4,43.4S49.8,89.7,25.9,89.7z M10.4,79.3h15.5c18.2,0,33-14.8,33-33  c0-18.2-14.8-33-33-33H10.4V79.3z"/>
					<rect x="81" y="3.2" class="stn0" width="62.3" height="10.4"/>
					<rect x="81" y="40.7" class="stn0" width="62.3" height="10.4"/>
					<rect x="81" y="79.3" class="stn0" width="62.3" height="10.4"/>
					<rect x="247.2" y="3.2" class="stn0" width="62.3" height="10.4"/>
					<rect x="247.2" y="40.7" class="stn0" width="62.3" height="10.4"/>
					<rect x="247.2" y="79.3" class="stn0" width="62.3" height="10.4"/>
					<rect x="354.8" y="-4.3" transform="matrix(0.8068 -0.5909 0.5909 0.8068 42.1182 221.6927)" class="stn0" width="10.4" height="101.6"/>
					<rect x="323.1" y="2" class="stn0" width="10.4" height="89.4"/>
					<rect x="386" y="2" class="stn0" width="10.4" height="89.4"/>
				</svg>