<svg xmlns="http://www.w3.org/2000/svg" xmlns:xlink="http://www.w3.org/1999/xlink" preserveAspectRatio="xMidYMid" width="654.809" height="110.469" viewBox="0 0 654.809 110.469">
  <defs>
    <style>
      .cls-1 {
        fill: #fff;
        fill-rule: evenodd;
      }
    </style>
  </defs>
  <path d="M643.460,110.153 L634.294,90.673 L610.856,90.673 L601.690,110.153 L590.335,110.153 L622.523,41.299 L654.815,110.153 L643.460,110.153 ZM622.523,65.569 L615.648,80.361 L629.502,80.361 L622.523,65.569 ZM554.711,67.340 L534.086,88.903 L503.357,56.403 L503.357,41.299 L534.086,73.798 L564.920,41.403 L564.920,110.153 L554.711,110.153 L554.711,67.340 ZM459.816,67.340 L439.191,88.903 L408.462,56.403 L408.462,41.299 L439.191,73.798 L470.025,41.403 L470.025,110.153 L459.816,110.153 L459.816,67.340 ZM330.796,-0.014 L376.963,98.319 L382.796,110.153 L279.296,110.153 L330.796,-0.014 ZM330.796,38.819 L305.129,93.819 L356.629,93.819 L330.796,38.819 ZM246.026,60.048 C243.664,57.063 240.800,54.754 237.432,53.121 C234.063,51.491 230.469,50.673 226.651,50.673 C222.206,50.673 218.109,51.785 214.359,54.007 C210.609,56.230 207.623,59.233 205.401,63.017 C203.178,66.803 202.068,70.918 202.068,75.361 C202.068,79.598 203.074,83.538 205.089,87.184 C207.102,90.830 209.862,93.798 213.370,96.090 C216.876,98.382 220.714,99.632 224.880,99.840 L228.734,100.048 L228.734,110.465 L224.359,110.153 C218.318,109.736 212.797,107.913 207.797,104.684 C202.797,101.455 198.855,97.272 195.974,92.132 C193.091,86.993 191.651,81.403 191.651,75.361 C191.651,68.973 193.214,63.105 196.339,57.757 C199.464,52.410 203.699,48.173 209.047,45.048 C214.394,41.924 220.261,40.361 226.651,40.361 C232.068,40.361 237.188,41.507 242.016,43.798 C246.841,46.090 250.852,49.319 254.047,53.486 L257.276,57.653 L249.151,64.111 L246.026,60.048 ZM154.880,41.299 L165.088,41.299 L165.088,110.153 L154.880,110.153 L154.880,41.299 ZM71.756,41.090 L128.422,41.090 L128.422,51.403 L71.756,51.403 L71.756,41.090 ZM25.714,68.903 C30.506,70.361 34.550,71.837 37.850,73.330 C41.147,74.824 44.012,77.011 46.443,79.892 C48.873,82.775 50.089,86.438 50.089,90.882 C50.089,94.840 48.855,98.278 46.391,101.194 C43.925,104.111 40.730,106.334 36.808,107.861 C32.884,109.389 28.769,110.153 24.464,110.153 C19.116,110.153 14.602,109.233 10.922,107.392 C7.241,105.553 4.498,103.157 2.693,100.205 C0.887,97.254 -0.015,94.147 -0.015,90.882 L-0.015,85.778 L10.193,85.778 L10.193,90.882 C10.193,93.313 11.355,95.431 13.683,97.236 C16.009,99.043 19.602,99.944 24.464,99.944 C28.422,99.944 31.964,99.111 35.089,97.444 C38.214,95.778 39.777,93.590 39.777,90.882 C39.777,88.798 39.116,87.063 37.797,85.673 C36.477,84.285 34.672,83.105 32.381,82.132 C30.089,81.160 26.860,80.048 22.693,78.798 C18.178,77.410 14.498,76.074 11.652,74.788 C8.803,73.504 6.339,71.699 4.256,69.371 C2.172,67.046 1.131,64.077 1.131,60.465 C1.131,57.202 2.033,54.095 3.839,51.142 C5.644,48.191 8.387,45.778 12.068,43.903 C15.748,42.028 20.262,41.090 25.610,41.090 C30.957,41.090 35.470,42.028 39.152,43.903 C42.832,45.778 45.574,48.191 47.381,51.142 C49.186,54.095 50.089,57.202 50.089,60.465 L50.089,65.569 L39.777,65.569 L39.777,60.465 C39.777,58.035 38.631,55.918 36.339,54.111 C34.047,52.306 30.470,51.403 25.610,51.403 C20.748,51.403 17.155,52.306 14.829,54.111 C12.501,55.918 11.339,58.035 11.339,60.465 C11.339,62.202 12.467,63.660 14.725,64.840 C16.980,66.022 20.644,67.376 25.714,68.903 ZM105.297,110.153 L94.985,110.153 L94.985,70.778 L105.297,70.778 L105.297,110.153 ZM220.505,70.257 L256.964,70.257 L256.964,110.257 L246.547,110.257 L246.547,80.778 L220.505,80.778 L220.505,70.257 ZM418.775,110.153 L408.462,110.153 L408.462,76.194 L418.775,76.194 L418.775,110.153 ZM513.670,110.153 L503.357,110.153 L503.357,76.194 L513.670,76.194 L513.670,110.153 Z" class="cls-1"/>
</svg>
