<?xml version="1.0" encoding="UTF-8"?>
<svg width="194px" height="70px" viewBox="0 0 194 70" version="1.1" xmlns="http://www.w3.org/2000/svg" xmlns:xlink="http://www.w3.org/1999/xlink">
    <!-- Generator: Sketch 46.2 (44496) - http://www.bohemiancoding.com/sketch -->
    <title>logo</title>
    <desc>Created with Sketch.</desc>
    <defs></defs>
    <g id="Page-1" stroke="none" stroke-width="1" fill="none" fill-rule="evenodd">
        <g id="Desktop" transform="translate(-295.000000, -52.000000)" fill="#FFFFFF">
            <g id="logo" transform="translate(295.000000, 52.000000)">
                <path d="M45.9085988,42.8836997 L23.9210917,64.7302613 L5.02798691,45.957852 C3.32202371,44.2628245 3.32202371,41.504575 5.02798691,39.8099615 L7.21690353,37.6346624 L23.9210917,54.2317725 L40.6256967,37.6346624 L45.9085988,42.8836997 Z M37.9738281,34.999793 L23.9210917,48.9624477 L9.86877206,34.999793 L23.9210917,21.0371382 L37.9738281,34.999793 Z M5.02798691,30.1900385 C3.32202371,28.495011 3.32202371,25.7367615 5.02798691,24.042148 L23.9210917,5.26973875 L45.9085988,27.1158862 L40.6256967,32.3649236 L23.9210917,15.7678135 L7.21690353,32.3649236 L5.02798691,30.1900385 Z M51.2127526,27.1158862 L23.9210917,0 L2.37611837,21.4068646 C-0.792039458,24.5547137 -0.792039458,29.6770588 2.37611837,32.8249079 L4.565035,34.999793 L2.37611837,37.1746781 C-0.792039458,40.3225272 -0.792039458,45.4448723 2.37611837,48.5927214 L23.9210917,70 L51.2127526,42.8836997 L43.2775652,34.999793 L51.2127526,27.1158862 Z" id="Fill-1"></path>
                <path d="M78.5380185,42.6315084 C84.0636619,42.6315084 86.4717139,38.8279574 86.4717139,33.4212313 C86.4717139,28.0464245 84.0636619,24.3684916 78.5380185,24.3684916 L75.42009,24.3684916 L75.42009,42.6315084 L78.5380185,42.6315084 Z M74,23.1428571 L78.6923981,23.1428571 C84.9589287,23.1428571 87.9534884,27.1660682 87.9534884,33.4212313 C87.9534884,39.7079705 84.9589287,43.8571429 78.7230718,43.8571429 L74,43.8571429 L74,23.1428571 Z" id="Fill-1"></path>
                <path d="M92.7325629,43.8571429 L94.2671229,43.8571429 L94.2671229,28.6193557 L92.7325629,28.6193557 L92.7325629,43.8571429 Z M92.1395349,23.6986181 C92.1395349,22.9048389 92.7676037,22.4285714 93.5350742,22.4285714 C94.3021637,22.4285714 94.9302326,22.9048389 94.9302326,23.6986181 C94.9302326,24.4289643 94.3021637,24.936775 93.5350742,24.936775 C92.7676037,24.936775 92.1395349,24.4289643 92.1395349,23.6986181 L92.1395349,23.6986181 Z" id="Fill-4"></path>
                <path d="M98.5258872,40.7706635 C99.7953594,41.8308109 101.126699,42.6727328 103.262996,42.6727328 C105.585234,42.6727328 106.792839,41.3007372 106.792839,39.7105161 C106.792839,37.8401082 104.87291,37.0291669 103.170026,36.4058111 C100.909993,35.5948698 98.4329165,34.6909869 98.4329165,32.1339003 C98.4329165,29.9516444 100.135801,28.1428571 103.231893,28.1428571 C104.811042,28.1428571 106.390191,28.7978744 107.473722,29.7017573 L106.730971,30.6686227 C105.740073,29.9203234 104.687307,29.3279481 103.170026,29.3279481 C100.87889,29.3279481 99.8261242,30.6686227 99.8261242,32.0402778 C99.8261242,33.693141 101.560112,34.4101193 103.324864,35.0647961 C105.647102,35.9380389 108.186047,36.7173188 108.186047,39.6482145 C108.186047,41.8931125 106.390191,43.8571429 103.170026,43.8571429 C100.971861,43.8571429 99.0522702,42.9219389 97.7209302,41.79949 L98.5258872,40.7706635 Z" id="Fill-6"></path>
                <polygon id="Fill-7" points="111.674419 23.1428571 113.053855 23.1428571 113.053855 42.5996099 122.139535 42.5996099 122.139535 43.8571429 111.674419 43.8571429"></polygon>
                <path d="M134.825354,35.1272867 C134.825354,31.2919103 133.165555,29.3279224 130.570244,29.3279224 C128.095538,29.3279224 125.892358,31.5417919 125.590846,35.1272867 L134.825354,35.1272867 Z M130.539928,28.1428571 C133.980461,28.1428571 136.093023,30.668568 136.093023,35.0646461 C136.093023,35.4387877 136.093023,35.8132697 136.032391,36.1870708 L125.590846,36.1870708 C125.651148,39.9598066 127.793696,42.672418 131.052993,42.672418 C132.622174,42.672418 133.859527,42.1420153 134.945959,41.3317725 L135.48934,42.391897 C134.342605,43.1088597 133.04495,43.8571429 130.932388,43.8571429 C127.220329,43.8571429 124.232558,40.9263106 124.232558,36.0311501 C124.232558,31.1359896 127.310947,28.1428571 130.539928,28.1428571 L130.539928,28.1428571 Z" id="Fill-8"></path>
                <path d="M146.017643,42.6379268 C147.68164,42.6379268 149.157092,41.7625222 150.758013,40.1677425 L150.758013,31.2559594 C149.157092,29.8489615 147.838647,29.3173683 146.362852,29.3173683 C143.348871,29.3173683 141.056847,32.2255964 141.056847,36.0088876 C141.056847,39.9803021 142.815117,42.6379268 146.017643,42.6379268 M146.26858,28.0978108 C148.089584,28.0978108 149.314099,28.7861165 150.82109,29.942511 L150.758013,27.1913369 L150.758013,21 L152.139535,21 L152.139535,43.4822621 L150.946558,43.4822621 L150.82109,41.543671 L150.726817,41.543671 C149.502302,42.7628871 147.838647,43.8571429 145.829098,43.8571429 C142.030083,43.8571429 139.581395,41.0745579 139.581395,36.0088876 C139.581395,31.1624099 142.689649,28.0978108 146.26858,28.0978108" id="Fill-9"></path>
                <path d="M166.142414,33.4857984 C166.142414,30.9251357 164.391518,29.281313 162.265795,29.281313 C160.13973,29.281313 158.357769,30.8933776 158.357769,33.4857984 C158.357769,36.0468064 160.171136,37.7537999 162.265795,37.7537999 C164.329047,37.7537999 166.142414,36.0468064 166.142414,33.4857984 M162.640962,49.8618893 C166.017472,49.8618893 168.174602,47.9336253 168.174602,46.0367741 C168.174602,44.3611935 166.955221,43.7291399 164.704214,43.7291399 L161.484053,43.7291399 C161.171356,43.7291399 160.389614,43.6656239 159.608214,43.4761114 C158.232826,44.4243644 157.638839,45.5942331 157.638839,46.6688277 C157.638839,48.5660241 159.451866,49.8618893 162.640962,49.8618893 M158.545182,43.1284992 L158.545182,43.0018123 C157.795188,42.5592712 157.232265,41.7373599 157.232265,40.5678364 C157.232265,39.2081099 158.20142,38.259857 158.857878,37.7855579 L158.857878,37.6592162 C157.92013,36.8369597 156.98204,35.3194788 156.98204,33.4857984 C156.98204,30.3562529 159.326924,28.1428571 162.265795,28.1428571 C163.078601,28.1428571 163.766466,28.3327149 164.235169,28.5225726 L169.331511,28.5225726 L169.331511,29.6924413 L165.829718,29.6924413 C166.798873,30.5457654 167.486737,31.9051467 167.486737,33.5175564 C167.486737,36.6156892 165.204666,38.8601525 162.265795,38.8601525 C161.421582,38.8601525 160.452427,38.6392272 159.764562,38.2280989 C159.108104,38.7655689 158.545182,39.3979677 158.545182,40.4097367 C158.545182,41.5160894 159.170575,42.4011715 161.421582,42.4011715 L164.641743,42.4011715 C168.018253,42.4011715 169.581395,43.4761114 169.581395,45.8786744 C169.581395,48.5028533 166.798873,51 162.484614,51 C158.70153,51 156.325581,49.3565226 156.325581,46.7958598 C156.325581,45.4678914 157.169794,44.139923 158.545182,43.1284992" id="Fill-10"></path>
                <path d="M181.56954,35.1272867 C181.56954,31.2919103 179.909741,29.3279224 177.31443,29.3279224 C174.839724,29.3279224 172.636873,31.5417919 172.335032,35.1272867 L181.56954,35.1272867 Z M177.284114,28.1428571 C180.724647,28.1428571 182.837209,30.668568 182.837209,35.0646461 C182.837209,35.4387877 182.837209,35.8132697 182.776577,36.1870708 L172.335032,36.1870708 C172.395004,39.9598066 174.537882,42.672418 177.797179,42.672418 C179.36636,42.672418 180.603713,42.1420153 181.690145,41.3317725 L182.233526,42.391897 C181.086462,43.1088597 179.789136,43.8571429 177.676574,43.8571429 C173.964515,43.8571429 170.976744,40.9263106 170.976744,36.0311501 C170.976744,31.1359896 174.054804,28.1428571 177.284114,28.1428571 L177.284114,28.1428571 Z" id="Fill-11"></path>
                <path d="M187.023256,28.5264726 L188.18089,28.5264726 L188.302974,31.3687147 L188.394121,31.3687147 C189.369129,29.4844652 190.80087,28.1428571 192.537322,28.1428571 C193.085868,28.1428571 193.51233,28.2070256 194,28.4623042 L193.695289,29.7397438 C193.207619,29.5486336 192.933513,29.4844652 192.354695,29.4844652 C191.044705,29.4844652 189.49088,30.5387103 188.363517,33.4130366 L188.363517,43.8571429 L187.023256,43.8571429 L187.023256,28.5264726 Z" id="Fill-12"></path>
            </g>
        </g>
    </g>
</svg>