<?xml version="1.0" encoding="iso-8859-1"?>
<!-- Generator: Adobe Illustrator 19.0.0, SVG Export Plug-In . SVG Version: 6.00 Build 0)  -->
<svg version="1.1" id="Layer_1" xmlns="http://www.w3.org/2000/svg" xmlns:xlink="http://www.w3.org/1999/xlink" x="0px" y="0px"
	 viewBox="0 0 500 500" style="enable-background:new 0 0 500 500;" xml:space="preserve">
<path style="fill:#666666;" d="M154.291,249.045c-20.809-12.017-39.439-22.756-58.048-33.53
	c-12.755-7.384-25.65-14.547-38.187-22.285c-24.154-14.908-31.965-42.875-18.758-65.906c13.96-24.343,42.568-32.042,68.053-17.705
	c27.428,15.43,54.524,31.45,81.789,47.17c3.814,2.199,7.769,4.154,13.393,7.145c0.303-5.856,0.707-10.102,0.714-14.349
	c0.057-31.989-0.259-63.982,0.143-95.966c0.266-21.202,10.162-36.985,29.852-45.443c18.29-7.856,35.447-4.356,50.474,8.212
	c11.685,9.773,16.773,22.909,16.764,38.082c-0.018,31.579-0.002,63.158-0.001,94.737c0,4.364,0,8.729,0,15.582
	c19.848-11.337,37.459-21.344,55.019-31.442c13.482-7.753,26.871-15.666,40.35-23.423c25.128-14.461,54.094-7.31,68.358,16.816
	c14.106,23.858,5.771,52.341-19.868,67.317c-30.657,17.906-61.397,35.67-93.46,54.283c2.746,2.315,4.484,4.265,6.63,5.516
	c29.688,17.31,59.596,34.248,89.101,51.863c18.571,11.087,27.297,30.807,23.452,50.079c-6.729,33.722-41.935,50.429-72.122,33.648
	c-28.221-15.688-55.986-32.195-83.967-48.313c-3.478-2.003-7.052-3.838-12.175-6.614c-0.503,4.698-1.163,8.06-1.176,11.424
	c-0.126,33.219,0.321,66.447-0.325,99.654c-0.628,32.259-28.824,54.231-59.435,47.244c-19.286-4.402-34.712-20.047-36.388-40.064
	c-1.637-19.554-1.018-39.306-1.175-58.973c-0.153-19.121-0.033-38.245-0.033-59.437c-5.845,2.976-9.816,4.78-13.577,6.948
	c-27.282,15.724-54.401,31.733-81.814,47.226c-20.854,11.786-42.012,9.774-58.139-4.732c-24.583-22.111-22.294-59.372,5.817-76.823
	c28.827-17.895,58.592-34.279,87.937-51.341C146.261,254.038,148.964,252.308,154.291,249.045z M202.51,182.142
	c-35.697-20.456-71.219-41.555-107.502-61.253c-15.341-8.329-34.048-0.86-42.201,14.167c-8.408,15.498-4.891,33.721,10.659,43.17
	c34.956,21.239,70.62,41.314,106.131,61.942c11.506-6.694,22.379-13.02,32.913-19.148C202.51,207.592,202.51,195.379,202.51,182.142
	z M169.87,258.286c-5.574,3.18-10.197,5.793-14.796,8.446c-29.457,16.989-59.014,33.809-88.317,51.06
	c-14.06,8.277-20.31,21.354-17.794,34.782c4.499,24.01,29.109,35.055,51.316,22.495c32.446-18.351,64.623-37.177,96.875-55.869
	c2.051-1.189,3.76-2.968,5.338-4.239c0-12.835,0-25.076,0-37.608C191.691,271.039,181.118,264.859,169.87,258.286z M301.493,221.194
	c10.889,6.287,21.784,12.578,32.76,18.915c35.795-20.686,71.111-40.575,105.859-61.412c15.585-9.346,19.424-28.651,10.602-44.269
	c-8.578-15.186-27.879-21.591-43.691-12.807c-35.399,19.664-70.298,40.228-105.529,60.5
	C301.493,195.277,301.493,207.876,301.493,221.194z M284.978,173.497c0-41.678,0.611-82.603-0.284-123.496
	c-0.389-17.756-15.31-30.057-32.712-30.117c-17.778-0.061-32.715,12.736-33.084,31.178c-0.809,40.477-0.251,80.981-0.251,122.303
	c11.312,6.522,22.531,12.989,33.37,19.237C263.434,185.984,273.683,180.044,284.978,173.497z M301.48,277.219
	c0,13.022,0,25.615,0,38.977c33.653,19.414,67.235,38.945,100.979,58.192c18.927,10.796,38.37,6.466,48.227-10.241
	c9.807-16.622,4.094-35.893-14.596-46.959c-25.012-14.808-50.308-29.138-75.49-43.659c-8.799-5.074-17.621-10.106-26.541-15.218
	C322.805,264.843,312.233,270.978,301.48,277.219z M218.621,325.067c0,41.276-0.558,81.779,0.251,122.255
	c0.368,18.402,15.395,31.291,33.09,31.209c17.994-0.084,31.636-12.648,33.058-31.306c0.745-9.775,0.274-19.645,0.28-29.473
	c0.021-30.669,0.008-61.337,0.008-92.654c-11.272-6.51-22.167-12.803-33.368-19.272
	C240.579,312.386,229.675,318.683,218.621,325.067z M251.926,287.614c11.422-6.577,22.32-12.853,32.925-18.959
	c0-13.473,0-25.689,0-38.755c-10.881-6.304-21.771-12.614-32.958-19.095c-11.534,6.645-22.455,12.938-32.984,19.005
	c0,13.423,0,25.654,0,38.636C229.518,274.605,240.104,280.751,251.926,287.614z M235.901,201.678
	c-6.346-3.614-11.068-6.303-16.835-9.588c0,7.003,0,12.073,0,19.075C225.065,207.785,229.771,205.133,235.901,201.678z
	 M235.644,296.658c-6.013-3.447-10.639-6.099-16.076-9.215c0,6.984,0,12.181,0,18.87
	C225.458,302.775,229.816,300.158,235.644,296.658z M202.283,239.436c-6.165,3.689-10.45,6.253-16.487,9.865
	c6.475,3.695,10.89,6.216,16.487,9.41C202.283,251.937,202.283,246.816,202.283,239.436z M318.355,249.115
	c-6.921-3.882-11.288-6.332-16.359-9.176c0,6.801,0,12.031,0,18.747C307.691,255.354,311.992,252.838,318.355,249.115z
	 M284.711,306.483c0-7.332,0-12.462,0-19.506c-5.931,3.484-10.595,6.223-16.593,9.747
	C274.15,300.272,278.606,302.893,284.711,306.483z M284.519,192.109c-5.817,3.418-10.359,6.086-16.503,9.696
	c6.428,3.667,10.972,6.259,16.503,9.414C284.519,203.958,284.519,198.891,284.519,192.109z"/>
</svg>
