<svg xmlns="http://www.w3.org/2000/svg" viewBox="0 0 132.97 45.32"><defs><style>.cls-1{fill:#fff;}</style></defs><title>DEPO</title><g id="Layer_2" data-name="Layer 2"><g id="Layer_1-2" data-name="Layer 1"><g id="Logo-White"><g id="Logo"><path class="cls-1" d="M42.28,16.33a6.57,6.57,0,0,0-6.38,5H28.84c-.7-9-7.37-16-15.48-16H13A6.57,6.57,0,1,0,4.8,12.9V32.42a6.57,6.57,0,1,0,8.1,8.08h.46c8.11,0,14.78-7.06,15.48-16H35.9a6.57,6.57,0,1,0,6.38-8.14ZM3.13,6.57A3.45,3.45,0,1,1,6.57,10,3.45,3.45,0,0,1,3.13,6.57ZM6.57,42.18A3.44,3.44,0,1,1,10,38.74,3.45,3.45,0,0,1,6.57,42.18Zm6.79-4.81H13a6.58,6.58,0,0,0-5.07-5.06V13a6.57,6.57,0,0,0,5-4.57h.48c6.85,0,12.42,6.49,12.42,14.47S20.21,37.37,13.36,37.37Zm28.92-11a3.44,3.44,0,1,1,3.44-3.44A3.45,3.45,0,0,1,42.28,26.34Z"/><path class="cls-1" d="M15,16.48H12.79V29.25H15a4.76,4.76,0,0,0,3.9-1.72,7.28,7.28,0,0,0,1.38-4.67,7.25,7.25,0,0,0-1.38-4.66A4.73,4.73,0,0,0,15,16.48Z"/></g><g id="Type"><path class="cls-1" d="M67.86,12.33a11.33,11.33,0,0,1,8,2.84,9.75,9.75,0,0,1,3.06,7.51,9.68,9.68,0,0,1-3.06,7.48,11.4,11.4,0,0,1-8,2.8h-7V12.33ZM65,29.8h2.84a6.59,6.59,0,0,0,5-1.92,7.31,7.31,0,0,0,1.81-5.2,7.34,7.34,0,0,0-1.81-5.21,6.59,6.59,0,0,0-5-1.92H65Z"/><path class="cls-1" d="M93,12.27v3.19H85.21v5.41h6.86v3.2H85.21v5.7H93V33H81V12.27Z"/><path class="cls-1" d="M109.5,22.62a5.29,5.29,0,0,1-2.32,1.55,10.1,10.1,0,0,1-3.56.58h-3.43V33H96V12.33h7.59a7.87,7.87,0,0,1,5.52,1.79,5.55,5.55,0,0,1,1.93,4.21A6.44,6.44,0,0,1,109.5,22.62Zm-9.31-1.07h3.43a3.3,3.3,0,0,0,2.4-.81,2.93,2.93,0,0,0,.82-2.2,2.93,2.93,0,0,0-.82-2.2,3.31,3.31,0,0,0-2.4-.82h-3.43Z"/><path class="cls-1" d="M122.42,33.17a10.33,10.33,0,0,1-7.51-3,10.15,10.15,0,0,1-3-7.58A10.14,10.14,0,0,1,114.93,15a10.93,10.93,0,0,1,15,0,10.16,10.16,0,0,1,3,7.58,10.15,10.15,0,0,1-3,7.58A10.31,10.31,0,0,1,122.42,33.17ZM127,27.51a6.84,6.84,0,0,0,1.75-4.92A6.8,6.8,0,0,0,127,17.68a6.57,6.57,0,0,0-9.12,0,6.81,6.81,0,0,0-1.75,4.9,6.83,6.83,0,0,0,1.75,4.91,6,6,0,0,0,4.57,1.85A6,6,0,0,0,127,27.51Z"/></g></g></g></g></svg>