<?xml version="1.0" encoding="UTF-8" standalone="no"?>
<svg
   xmlns:dc="http://purl.org/dc/elements/1.1/"
   xmlns:cc="http://creativecommons.org/ns#"
   xmlns:rdf="http://www.w3.org/1999/02/22-rdf-syntax-ns#"
   xmlns:svg="http://www.w3.org/2000/svg"
   xmlns="http://www.w3.org/2000/svg"
   viewBox="0 0 1800.0009 269.34976"
   height="269.34976"
   width="1800.0009"
   xml:space="preserve"
   version="1.1"
   id="svg2"><metadata
     id="metadata8"><rdf:RDF><cc:Work
         rdf:about=""><dc:format>image/svg+xml</dc:format><dc:type
           rdf:resource="http://purl.org/dc/dcmitype/StillImage" /><dc:title></dc:title></cc:Work></rdf:RDF></metadata><defs
     id="defs6"><clipPath
       id="clipPath136"
       clipPathUnits="userSpaceOnUse"><path
         id="path138"
         d="m 0,1080 1920,0 L 1920,0 0,0 0,1080 Z" /></clipPath></defs><g
     transform="matrix(1.25,0,0,-1.25,-299.99962,809.67412)"
     id="g10"><g
       transform="translate(656.2866,601.2632)"
       id="g12"><path
         id="path14"
         style="fill:#f2116d;fill-opacity:1;fill-rule:nonzero;stroke:none"
         d="m 0,0 0,45.477 -58.359,0 0,-64.39 8.404,-0.472 L 0,0 Z" /></g><g
       transform="translate(727.5146,646.7397)"
       id="g16"><path
         id="path18"
         style="fill:#f2116d;fill-opacity:1;fill-rule:nonzero;stroke:none"
         d="M 0,0 0,-17.836 45.962,0 0,0 Z" /></g><g
       transform="translate(388.7001,646.74)"
       id="g20"><path
         id="path22"
         style="fill:#f2116d;fill-opacity:1;fill-rule:nonzero;stroke:none"
         d="M 0,0 0.04,-0.056 0.04,0 0,0 Z" /></g><g
       transform="translate(403.3999,626.6523)"
       id="g24"><path
         id="path26"
         style="fill:#f2116d;fill-opacity:1;fill-rule:nonzero;stroke:none"
         d="m 0,0 22.532,-30.79 38.82,0 0,-6.031 58.358,-3.278 0,9.309 61.053,0 0,50.877 L 0,20.087 0,0 Z" /></g><g
       transform="translate(365.0937,485.1318)"
       id="g28"><path
         id="path30"
         style="fill:#ec6589;fill-opacity:1;fill-rule:nonzero;stroke:none"
         d="m 0,0 -66.735,0 0,33.517 40.826,0 -36.552,47.286 -4.274,0 0,5.529 -58.188,75.276 -0.171,0 0,-212.486 10.449,0 L 19.91,-25.757 0,0 Z" /></g><g
       transform="translate(948.6787,595.8628)"
       id="g32"><path
         id="path34"
         style="fill:#ffec94;fill-opacity:1;fill-rule:nonzero;stroke:none"
         d="m 0,0 0,30.392 -25.96,20.485 -52.387,0 L -82.525,0 0,0 Z" /></g><g
       transform="translate(951.3721,434.2539)"
       id="g36"><path
         id="path38"
         style="fill:#ffec94;fill-opacity:1;fill-rule:nonzero;stroke:none"
         d="m 0,0 0,50.878 -93.074,0 0,15.081 L -98.491,0 0,0 Z" /></g><g
       transform="translate(935.5103,518.6484)"
       id="g40"><path
         id="path42"
         style="fill:#ffec94;fill-opacity:1;fill-rule:nonzero;stroke:none"
         d="m 0,0 0,47.287 -71.814,0 L -75.698,0 0,0 Z" /></g><g
       transform="translate(597.9277,582.3501)"
       id="g44"><path
         id="path46"
         style="fill:#ec6589;fill-opacity:1;fill-rule:nonzero;stroke:none"
         d="M 0,0 0,-5.124 8.404,-0.472 0,0 Z" /></g><g
       transform="translate(391.4336,462.9336)"
       id="g48"><path
         id="path50"
         style="fill:#ec6589;fill-opacity:1;fill-rule:nonzero;stroke:none"
         d="M 0,0 0,15.858 -6.43,-3.559 0,0 Z" /></g><g
       transform="translate(464.7515,503.5146)"
       id="g52"><path
         id="path54"
         style="fill:#ec6589;fill-opacity:1;fill-rule:nonzero;stroke:none"
         d="m 0,0 58.359,32.301 0,50.738 L 0,86.317 0,0 Z" /></g><g
       transform="translate(727.5146,434.2539)"
       id="g56"><path
         id="path58"
         style="fill:#f1cb3f;fill-opacity:1;fill-rule:nonzero;stroke:none"
         d="m 0,0 58.359,0 0,149.497 L 0,81.706 0,0 Z" /></g><g
       transform="translate(858.2983,500.2129)"
       id="g60"><path
         id="path62"
         style="fill:#f1cb3f;fill-opacity:1;fill-rule:nonzero;stroke:none"
         d="m 0,0 0,18.436 1.514,0 3.883,47.286 -5.397,0 0,29.928 7.855,0 4.179,50.877 -30.234,0 -40.16,-46.651 0,-165.835 52.943,0 L 0,0 Z" /></g><g
       transform="translate(381.3755,434.2539)"
       id="g64"><path
         id="path66"
         style="fill:#f2116d;fill-opacity:1;fill-rule:nonzero;stroke:none"
         d="m 0,0 10.058,0 0,22.424 -6.43,2.697 L 0,0 Z" /></g><g
       transform="translate(799.9385,646.7397)"
       id="g68"><path
         id="path70"
         style="fill:#e05a44;fill-opacity:1;fill-rule:nonzero;stroke:none"
         d="M 0,0 0,-46.65 40.16,0 0,0 Z" /></g><g
       transform="translate(656.2866,491.959)"
       id="g72"><path
         id="path74"
         style="fill:#e05a44;fill-opacity:1;fill-rule:nonzero;stroke:none"
         d="m 0,0 0,25.493 71.228,0 0,-1.492 58.359,67.791 0,62.989 -12.397,0 -45.962,-17.836 0,-60.575 L 0,76.37 0,109.304 -49.955,89.919 0,0 Z" /></g><g
       transform="translate(403.3999,595.8628)"
       id="g76"><path
         id="path78"
         style="fill:#774a5b;fill-opacity:1;fill-rule:nonzero;stroke:none"
         d="M 0,0 11.616,0 0,3.41 0,0 Z" /></g><g
       transform="translate(298.3589,595.8628)"
       id="g80"><path
         id="path82"
         style="fill:#774a5b;fill-opacity:1;fill-rule:nonzero;stroke:none"
         d="m 0,0 90.381,0 0,7.714 -147.024,43.163 -1.545,0 L 0,-24.399 0,0 Z" /></g><g
       transform="translate(375.5723,518.6484)"
       id="g84"><path
         id="path86"
         style="fill:#774a5b;fill-opacity:1;fill-rule:nonzero;stroke:none"
         d="m 0,0 0,47.287 -72.939,0 L -36.387,0 0,0 Z" /></g><g
       transform="translate(391.4336,478.792)"
       id="g88"><path
         id="path90"
         style="fill:#774a5b;fill-opacity:1;fill-rule:nonzero;stroke:none"
         d="m 0,0 0,6.34 -26.34,0 L -6.43,-19.417 0,0 Z" /></g><g
       transform="translate(464.7515,434.2539)"
       id="g92"><path
         id="path94"
         style="fill:#e57b37;fill-opacity:1;fill-rule:nonzero;stroke:none"
         d="m 0,0 58.359,0 0,101.562 L 0,69.261 0,0 Z" /></g><g
       transform="translate(391.4336,456.6777)"
       id="g96"><path
         id="path98"
         style="fill:#e57b37;fill-opacity:1;fill-rule:nonzero;stroke:none"
         d="M 0,0 0,6.256 -6.43,2.697 0,0 Z" /></g><g
       transform="translate(656.2866,491.959)"
       id="g100"><path
         id="path102"
         style="fill:#e57b37;fill-opacity:1;fill-rule:nonzero;stroke:none"
         d="m 0,0 -49.955,89.919 -8.404,-4.652 0,-142.972 58.359,0 L 0,0 Z" /></g><g
       transform="translate(385.0034,459.375)"
       id="g104"><path
         id="path106"
         style="fill:#314d5d;fill-opacity:1;fill-rule:nonzero;stroke:none"
         d="m 0,0 -134.554,-25.121 130.926,0 L 0,0 Z" /></g><g
       transform="translate(948.6787,646.7397)"
       id="g108"><path
         id="path110"
         style="fill:#9dc971;fill-opacity:1;fill-rule:nonzero;stroke:none"
         d="M 0,0 -25.96,0 0,-20.485 0,0 Z" /></g><g
       transform="translate(403.3999,599.3545)"
       id="g112"><path
         id="path114"
         style="fill:#e57b37;fill-opacity:1;fill-rule:nonzero;stroke:none"
         d="m 0,0 11.847,-3.492 10.047,0 L 0,26.722 0,0 Z" /></g><g
       transform="translate(388.7402,646.3066)"
       id="g116"><path
         id="path118"
         style="fill:#e57b37;fill-opacity:1;fill-rule:nonzero;stroke:none"
         d="m 0,0 -0.314,0.433 -145.798,0 L 0,-42.631 0,0 Z" /></g><g
       transform="translate(403.3999,599.2729)"
       id="g120"><path
         id="path122"
         style="fill:#e57b37;fill-opacity:1;fill-rule:nonzero;stroke:none"
         d="m 0,0 11.616,-3.41 0.231,0 L 0,0.082 0,0 Z" /></g><g
       transform="translate(388.7402,603.6753)"
       id="g124"><path
         id="path126"
         style="fill:#e57b37;fill-opacity:1;fill-rule:nonzero;stroke:none"
         d="m 0,0 -146.112,43.064 -0.912,0 L 0,-0.099 0,0 Z" /></g><g
       transform="translate(1440.4717,484.9346)"
       id="g128"><path
         id="path130"
         style="fill:#314d5d;fill-opacity:1;fill-rule:nonzero;stroke:none"
         d="m 0,0 -29.819,0 0,67.333 -27.042,61.063 -31.318,-20.018 0,-159.256 9.586,0 L 4.198,-9.482 0,0 Z" /></g><g
       id="g132"><g
         clip-path="url(#clipPath136)"
         id="g134"><g
           transform="translate(1318.332,470.915)"
           id="g140"><path
             id="path142"
             style="fill:#314d5d;fill-opacity:1;fill-rule:nonzero;stroke:none"
             d="m 0,0 c 6.646,8.44 12.047,17.841 16.155,28.233 5.089,12.87 7.632,26.288 7.632,40.254 0,13.565 -2.394,26.832 -7.182,39.803 -0.3,0.814 -0.632,1.605 -0.949,2.407 L -26.529,83.731 0,0 Z" /></g><g
           transform="translate(1291.8027,554.6465)"
           id="g144"><path
             id="path146"
             style="fill:#617fe1;fill-opacity:1;fill-rule:nonzero;stroke:none"
             d="m 0,0 -9.369,-5.989 c 0.259,-2.654 0.43,-5.332 0.43,-8.057 0,-6.987 -0.851,-13.871 -2.544,-20.651 -1.698,-6.786 -4.242,-12.823 -7.632,-18.108 -3.396,-5.288 -7.781,-9.575 -13.169,-12.867 -5.289,-3.233 -11.55,-4.87 -18.76,-4.929 l -1.546,-51.771 c 0.187,-0.001 0.368,-0.015 0.555,-0.015 14.964,0 28.729,2.995 41.299,8.981 12.57,5.985 23.344,13.916 32.323,23.793 1.726,1.899 3.359,3.871 4.942,5.882 L 0,0 Z" /></g><g
           transform="translate(1507.0195,463.5752)"
           id="g148"><path
             id="path150"
             style="fill:#dd4563;fill-opacity:1;fill-rule:nonzero;stroke:none"
             d="M 0,0 -62.35,11.877 -145.141,-29.519 0,-29.519 0,0 Z" /></g><g
           transform="translate(1525.2734,434.0566)"
           id="g152"><path
             id="path154"
             style="fill:#dd4563;fill-opacity:1;fill-rule:nonzero;stroke:none"
             d="M 0,0 136.692,0 0,26.041 0,0 Z" /></g><g
           transform="translate(1410.6523,637.8896)"
           id="g156"><path
             id="path158"
             style="fill:#617fe1;fill-opacity:1;fill-rule:nonzero;stroke:none"
             d="m 0,0 0,8.653 -55.464,0 28.422,-33.212 L 0,0 Z" /></g><g
           transform="translate(1583.6328,552.9849)"
           id="g160"><path
             id="path162"
             style="fill:#314d5d;fill-opacity:1;fill-rule:nonzero;stroke:none"
             d="M 0,0 0,20.657 -22.751,13.074 0,0 Z" /></g><g
           transform="translate(1258.9199,591.3267)"
           id="g164"><path
             id="path166"
             style="fill:#97adff;fill-opacity:1;fill-rule:nonzero;stroke:none"
             d="m 0,0 c 5.389,-3.096 9.826,-7.183 13.319,-12.271 3.489,-5.087 6.134,-10.975 7.931,-17.657 1.114,-4.148 1.841,-8.403 2.264,-12.741 l 9.369,5.989 -28.73,90.677 c -5.571,1.272 -11.366,2.031 -17.377,2.294 L -14.794,4.447 C -9.282,3.964 -4.344,2.493 0,0" /></g><g
           transform="translate(1333.9883,581.6123)"
           id="g168"><path
             id="path170"
             style="fill:#408fb2;fill-opacity:1;fill-rule:nonzero;stroke:none"
             d="m 0,0 c -4.729,11.99 -11.233,22.772 -19.552,32.31 -8.88,10.174 -19.556,18.353 -32.023,24.54 -6.121,3.034 -12.571,5.315 -19.34,6.861 L -42.186,-26.966 0,0 Z" /></g><g
           transform="translate(1355.1885,646.543)"
           id="g172"><path
             id="path174"
             style="fill:#408fb2;fill-opacity:1;fill-rule:nonzero;stroke:none"
             d="m 0,0 -2.896,0 0,-53.23 31.318,20.018 L 0,0 Z" /></g><g
           transform="translate(1525.2734,646.543)"
           id="g176"><path
             id="path178"
             style="fill:#7c4d52;fill-opacity:1;fill-rule:nonzero;stroke:none"
             d="m 0,0 0,-70.989 35.608,-9.495 22.751,7.583 L 58.359,0 0,0 Z" /></g><g
           transform="translate(1410.6523,606.1196)"
           id="g180"><path
             id="path182"
             style="fill:#7c4d52;fill-opacity:1;fill-rule:nonzero;stroke:none"
             d="M 0,0 0,31.77 -27.042,7.211 0,0 Z" /></g><g
           transform="translate(1410.6523,552.2681)"
           id="g184"><path
             id="path186"
             style="fill:#cc6a92;fill-opacity:1;fill-rule:nonzero;stroke:none"
             d="M 0,0 0,53.852 -27.042,61.063 0,0 Z" /></g><g
           transform="translate(1456.832,484.9346)"
           id="g188"><path
             id="path190"
             style="fill:#cc6a92;fill-opacity:1;fill-rule:nonzero;stroke:none"
             d="M 0,0 -16.36,0 -12.162,-9.482 0,0 Z" /></g><g
           transform="translate(1525.2734,575.5542)"
           id="g192"><path
             id="path194"
             style="fill:#cc6a92;fill-opacity:1;fill-rule:nonzero;stroke:none"
             d="M 0,0 0,-37.258 35.608,-9.496 0,0 Z" /></g><g
           transform="translate(962.9385,453.2988)"
           id="g196"><path
             id="path198"
             style="fill:#408fb2;fill-opacity:1;fill-rule:nonzero;stroke:none"
             d="m 0,0 57.727,-19.242 0.632,0 0,40.234 L 0,1.539 0,0 Z" /></g><g
           transform="translate(1083.5479,434.0566)"
           id="g200"><path
             id="path202"
             style="fill:#408fb2;fill-opacity:1;fill-rule:nonzero;stroke:none"
             d="M 0,0 65.839,0 23.627,68.86 -31.304,50.55 0,0 Z" /></g><g
           transform="translate(1221.5117,488.8242)"
           id="g204"><path
             id="path206"
             style="fill:#408fb2;fill-opacity:1;fill-rule:nonzero;stroke:none"
             d="m 0,0 c -5.388,3.188 -9.876,7.379 -13.468,12.569 -3.592,5.186 -6.237,11.12 -7.93,17.808 -1.151,4.528 -1.878,9.185 -2.248,13.945 L -80.101,25.504 c 1.115,-4.659 2.514,-9.273 4.235,-13.833 4.886,-12.972 11.769,-24.493 20.649,-34.566 8.875,-10.076 19.552,-18.209 32.024,-24.391 9.355,-4.642 19.471,-7.541 30.347,-8.7 L 1.58,-0.86 C 1.048,-0.584 0.516,-0.306 0,0" /></g><g
           transform="translate(1240.0674,595.9653)"
           id="g208"><path
             id="path210"
             style="fill:#318777;fill-opacity:1;fill-rule:nonzero;stroke:none"
             d="m 0,0 c 1.21,0 2.386,-0.061 3.545,-0.148 l 1.41,51.818 c -1.347,0.05 -2.69,0.104 -4.059,0.104 -1.671,0 -3.323,-0.049 -4.963,-0.123 L -13.109,-2.054 C -9.184,-0.694 -4.819,0 0,0" /></g><g
           transform="translate(1240.3662,484.0342)"
           id="g212"><path
             id="path214"
             style="fill:#318777;fill-opacity:1;fill-rule:nonzero;stroke:none"
             d="m 0,0 c -6.495,0 -12.248,1.319 -17.274,3.93 l 5.574,-55.126 c 3.422,-0.365 6.924,-0.543 10.495,-0.563 L 0.204,0.006 C 0.135,0.006 0.069,0 0,0" /></g><g
           transform="translate(962.9385,434.0566)"
           id="g216"><path
             id="path218"
             style="fill:#314d5d;fill-opacity:1;fill-rule:nonzero;stroke:none"
             d="M 0,0 57.727,0 0,19.242 0,0 Z" /></g><g
           transform="translate(1021.2979,595.666)"
           id="g220"><path
             id="path222"
             style="fill:#40b49d;fill-opacity:1;fill-rule:nonzero;stroke:none"
             d="m 0,0 35.315,0 c 3.59,0 7.182,-1.945 10.773,-5.836 3.592,-3.891 5.387,-9.53 5.387,-16.909 0,-7.183 -1.548,-12.771 -4.639,-16.76 -3.096,-3.993 -6.434,-5.986 -10.025,-5.986 L 0,-45.491 0,0 Z m -58.359,-133.16 0,-7.668 58.359,19.453 0,25.008 21.847,0 9.099,-14.693 54.931,18.311 -5.671,9.252 c 9.577,6.78 17.058,15.51 22.446,26.184 5.387,10.672 8.079,22.195 8.079,34.568 0,7.859 -1.375,15.678 -4.127,23.461 l -80.117,50.161 -34.497,0 -50.349,-184.037 z" /></g><g
           transform="translate(1197.5684,540.0015)"
           id="g224"><path
             id="path226"
             style="fill:#40b49d;fill-opacity:1;fill-rule:nonzero;stroke:none"
             d="m 0,0 c 0,4.058 0.321,8.061 0.895,12.02 l -47.083,29.662 -4.082,2.555 c -0.459,-1.073 -0.924,-2.142 -1.354,-3.237 -5.089,-12.971 -7.632,-26.439 -7.632,-40.401 0,-8.926 1.044,-17.682 3.099,-26.272 L 0.297,-6.855 C 0.121,-4.592 0,-2.314 0,0" /></g><g
           transform="translate(962.9385,646.543)"
           id="g228"><path
             id="path230"
             style="fill:#70ce49;fill-opacity:1;fill-rule:nonzero;stroke:none"
             d="M 0,0 0,-184.037 50.35,0 0,0 Z" /></g><g
           transform="translate(1198.4893,552.189)"
           id="g232"><path
             id="path234"
             style="fill:#314d5d;fill-opacity:1;fill-rule:nonzero;stroke:none"
             d="m 0,0 c 0.41,2.793 0.928,5.568 1.624,8.313 1.693,6.681 4.288,12.668 7.781,17.957 3.49,5.283 7.879,9.524 13.167,12.718 1.823,1.099 3.778,1.995 5.849,2.717 l 8.681,53.712 C 24.212,94.791 12.283,91.894 1.324,86.723 -11.147,80.835 -21.973,72.956 -31.147,63.08 -39.549,54.041 -46.213,43.69 -51.186,32.063 L -47.109,29.495 0,0 Z" /></g><g
           transform="translate(1126.6436,599.7061)"
           id="g236"><path
             id="path238"
             style="fill:#314d5d;fill-opacity:1;fill-rule:nonzero;stroke:none"
             d="m 0,0 c -3.592,8.875 -8.53,16.759 -14.815,23.643 -6.285,6.883 -13.819,12.466 -22.595,16.759 -8.782,4.288 -18.36,6.435 -28.732,6.435 l -12.073,0 79.428,-50.04 C 0.834,-2.135 0.432,-1.067 0,0" /></g><g
           transform="translate(1127.8564,596.5029)"
           id="g240"><path
             id="path242"
             style="fill:#314d5d;fill-opacity:1;fill-rule:nonzero;stroke:none"
             d="m 0,0 -79.428,50.04 -0.643,0 L 0.046,-0.121 C 0.032,-0.08 0.015,-0.04 0,0" /></g><g
           transform="translate(1147.3037,584.2515)"
           id="g244"><path
             id="path246"
             style="fill:#314d5d;fill-opacity:1;fill-rule:nonzero;stroke:none"
             d="M 0,0 C -0.002,-0.004 -0.003,-0.008 -0.005,-0.013 L 4.076,-2.568 0,0 Z" /></g><g
           transform="translate(1525.2734,537.9766)"
           id="g248"><path
             id="path250"
             style="fill:#617fe1;fill-opacity:1;fill-rule:nonzero;stroke:none"
             d="m 0,0 0,-77.495 138.581,-26.425 16.146,0 0,50.878 -96.368,0 0,68.029 L 35.911,27.872 0,0 Z" /></g><g
           transform="translate(1507.0195,463.9619)"
           id="g252"><path
             id="path254"
             style="fill:#617fe1;fill-opacity:1;fill-rule:nonzero;stroke:none"
             d="m 0,0 0,20.973 -50.089,0 L -61.903,11.804 0,0 Z" /></g></g></g></g></svg>