<svg id="Layer_1" data-name="Layer 1" xmlns="http://www.w3.org/2000/svg" viewBox="0 0 258.3 58.18"><defs><style>.cls-1{fill:#5081f4;}</style></defs><title>old_logo_vr.2</title><polygon points="81.96 43.16 81.96 9.56 95.16 9.56 95.16 12.36 85.06 12.36 85.06 24.81 93.86 24.81 93.86 27.61 85.06 27.61 85.06 40.06 95.16 40.06 95.16 43.16 81.96 43.16"/><polygon points="109.25 43.16 109.25 12.36 103.35 12.36 103.35 9.56 118.25 9.56 118.25 12.36 112.35 12.36 112.35 43.16 109.25 43.16"/><polygon points="138.9 43.16 138.9 27.31 130.6 27.31 130.6 43.16 127.5 43.16 127.5 9.56 130.6 9.56 130.6 24.81 138.9 24.81 138.9 9.56 142 9.56 142 43.16 138.9 43.16"/><polygon points="153.8 43.16 153.8 9.56 167 9.56 167 12.36 156.9 12.36 156.9 24.81 165.7 24.81 165.7 27.61 156.9 27.61 156.9 40.06 167 40.06 167 43.16 153.8 43.16"/><path d="M190.39,43.42l-4.75-15.2h-4.78v15.2h-3.1V9.82H185c5.46,0,8,3,8,9.45a12.27,12.27,0,0,1-.89,4.95,6.57,6.57,0,0,1-3,3.08l-.74.4,5.32,15.72Zm-9.53-17.7h3.9a5.93,5.93,0,0,0,2.57-.47A3.85,3.85,0,0,0,189,23.81a6,6,0,0,0,.7-2.12,18.52,18.52,0,0,0,.16-2.52,18.74,18.74,0,0,0-.16-2.52,5.89,5.89,0,0,0-.73-2.14c-.86-1.27-2.35-1.89-4.46-1.89h-3.65Z" transform="translate(-0.46 -0.27)"/><rect x="203.75" y="9.56" width="3.1" height="33.6"/><path d="M226,43.72a8.23,8.23,0,0,1-3.08-.57,7.31,7.31,0,0,1-2.41-1.58,7.84,7.84,0,0,1-1.62-2.38,7.15,7.15,0,0,1-.59-2.92v-.9h3.1V36a5.14,5.14,0,0,0,1,3.12A4.14,4.14,0,0,0,226,40.62a5.44,5.44,0,0,0,2.48-.48A3.76,3.76,0,0,0,230,38.67a4.91,4.91,0,0,0,.6-2.09c0-.67.08-1.43.08-2.26a22.75,22.75,0,0,0-.11-2.41A4.85,4.85,0,0,0,230,30.1a3.76,3.76,0,0,0-1.29-1.28A13.3,13.3,0,0,0,227.1,28l-3.66-1.5a7.17,7.17,0,0,1-3.91-3.1,11.34,11.34,0,0,1-1-5.13,12.09,12.09,0,0,1,.5-3.5A7.78,7.78,0,0,1,220.47,12a6.72,6.72,0,0,1,2.34-1.82,8,8,0,0,1,3.45-.68,7.48,7.48,0,0,1,3.07.62,8,8,0,0,1,2.42,1.64,6.69,6.69,0,0,1,2,4.79v1.5h-3.1v-.15a6.45,6.45,0,0,0-1-3.57,4,4,0,0,0-3.61-1.73,4.26,4.26,0,0,0-2.23.55,4.3,4.3,0,0,0-1.35,1.3,5.47,5.47,0,0,0-.71,1.85,10.59,10.59,0,0,0-.16,1.9c0,.73,0,1.36.08,1.86a4.26,4.26,0,0,0,.49,1.62,3.74,3.74,0,0,0,1.18,1.3,9.13,9.13,0,0,0,1.78.9l3.9,1.55a9.08,9.08,0,0,1,2.48,1.37,5.61,5.61,0,0,1,1.4,1.72,8.56,8.56,0,0,1,.65,2.39,27.53,27.53,0,0,1,.19,3.34,16.9,16.9,0,0,1-.43,3.95,7.67,7.67,0,0,1-1.28,2.91A6.2,6.2,0,0,1,229.68,43,8.7,8.7,0,0,1,226,43.72Z" transform="translate(-0.46 -0.27)"/><path d="M251.66,43.72a10.67,10.67,0,0,1-2.7-.36,6,6,0,0,1-2.31-1.2,6.8,6.8,0,0,1-1.72-2.25,8.15,8.15,0,0,1-.67-3.59V16.72a7.48,7.48,0,0,1,.53-2.87,6.59,6.59,0,0,1,1.47-2.27,7.18,7.18,0,0,1,2.3-1.51,8,8,0,0,1,3-.55,6.68,6.68,0,0,1,5.12,2.05A7.39,7.39,0,0,1,258.2,14a8.15,8.15,0,0,1,.56,3v1h-3.1v-.7a5.14,5.14,0,0,0-1.06-3.21,3.79,3.79,0,0,0-3.09-1.49,3.49,3.49,0,0,0-3.41,1.71,7.29,7.29,0,0,0-.74,3.44V36a5.78,5.78,0,0,0,.83,3.15,3.6,3.6,0,0,0,3.27,1.5,4.79,4.79,0,0,0,1.36-.21,4.36,4.36,0,0,0,1.41-.75,4.14,4.14,0,0,0,1.05-1.49,5.51,5.51,0,0,0,.38-2.15v-.75h3.1v1.2a7,7,0,0,1-.55,2.74,7.55,7.55,0,0,1-1.53,2.32,7.45,7.45,0,0,1-2.26,1.61A6.57,6.57,0,0,1,251.66,43.72Z" transform="translate(-0.46 -0.27)"/><path class="cls-1" d="M66.79,20v0l-.21-.19h0l-1-.91h0l-2.61-2.33h0l-2.22-2h0l-.37-.34-1.43.25L45.23,16.73,37.38,5.93a1.49,1.49,0,0,0-.83-.52L8.64.85,5.07.27,7,2.79H7L8.38,4.6H.46L4.11,8h0L26,28.54,21.3,50.92l-1.58,7.53L20,58l5-7.89h0l6.65-10.49,20.16-9.87a3.32,3.32,0,0,0,1.7-1.47l3.79-6.12H69.22ZM6.85,7.1h3.44l7.25,10Zm4-3.34L34.58,7.61,27.1,25.78ZM24.79,46l2.87-13.24,1.93,5.54Zm6.83-9.17-2.5-7.33h17.7ZM29.26,27,36.64,9.18,49.55,27ZM52,26.05l-5.09-7,10.5-1.81Zm6.87-6.41,1.35-2.19,2.46,2.19Z" transform="translate(-0.46 -0.27)"/></svg>