<svg width="128" height="132" viewBox="0 0 128 132" fill="none" xmlns="http://www.w3.org/2000/svg">
<path d="M64 128C99.3462 128 128 99.3462 128 64C128 28.6538 99.3462 0 64 0C28.6538 0 0 28.6538 0 64C0 99.3462 28.6538 128 64 128Z" fill="white"/>
<path d="M64 5.90272C79.4072 5.907 94.182 12.0293 105.076 22.9238C115.971 33.8182 122.093 48.5928 122.097 64C122.093 79.4072 115.971 94.182 105.076 105.076C94.182 115.971 79.4072 122.093 64 122.097C48.5928 122.093 33.8182 115.971 22.9238 105.076C12.0294 94.182 5.90704 79.4072 5.90276 64C5.90704 48.5928 12.0294 33.8182 22.9238 22.9238C33.8182 12.0293 48.5928 5.907 64 5.90272ZM64 0C51.342 0 38.9683 3.75353 28.4435 10.786C17.9188 17.8184 9.71576 27.8138 4.87172 39.5082C0.0277309 51.2028 -1.23968 64.0708 1.22977 76.4856C3.69922 88.9004 9.79464 100.304 18.7452 109.255C27.6958 118.205 39.0994 124.301 51.5144 126.77C63.9292 129.24 76.7972 127.972 88.4916 123.128C100.186 118.284 110.182 110.081 117.214 99.5564C124.246 89.0316 128 76.658 128 64C127.997 47.0272 121.253 30.7504 109.251 18.7487C97.2496 6.74708 80.9728 0.00321568 64 0Z" fill="#00A651"/>
<path d="M46.494 73.9052C45.0548 76.4768 42.908 78.5816 40.3084 79.9696C37.5995 81.4252 34.446 82.1528 30.8073 82.1528H17.8699V47.9092H30.8073C34.4864 47.9092 37.6803 48.6368 40.3488 50.052C42.9436 51.4092 45.0916 53.4868 46.5344 56.0352C47.99 58.6228 48.6772 61.5744 48.6772 64.93C48.7084 68.0568 47.958 71.142 46.494 73.9052ZM37.559 72.2072C39.338 70.5092 40.2272 68.0832 40.2272 65.0108C40.2272 61.938 39.338 59.5124 37.559 57.8144C35.7802 56.1164 33.2735 55.2672 30.0392 55.2672H26.1175V74.8352H30.0392C33.2735 74.7544 35.7802 73.9052 37.559 72.2072Z" fill="#00A651"/>
<path d="M71.1964 56.48C73.2776 57.5784 75.0028 59.2472 76.1692 61.2912C77.3644 63.56 77.9888 66.0852 77.9888 68.6496C77.9888 71.2136 77.3644 73.7392 76.1692 76.0076C75.014 78.06 73.286 79.732 71.1964 80.8188C68.9732 81.9624 66.4996 82.5324 64 82.4764C61.5024 82.5124 59.0336 81.944 56.8036 80.8188C54.7024 79.7336 52.9608 78.0624 51.7904 76.0076C50.5952 73.7392 49.9708 71.2136 49.9708 68.6496C49.9708 66.0852 50.5952 63.56 51.7904 61.2912C52.9492 59.2276 54.694 57.5532 56.8036 56.48C59.0284 55.3408 61.5008 54.7712 64 54.8224C66.498 54.7816 68.968 55.3508 71.1964 56.48ZM60.038 63.7172C58.9464 64.8492 58.4208 66.5068 58.4208 68.69C58.4208 70.8732 58.9464 72.4904 60.038 73.6224C60.5488 74.1696 61.1692 74.6036 61.8588 74.8964C62.5484 75.1888 63.2916 75.3332 64.0404 75.3204C64.784 75.3372 65.5224 75.194 66.2056 74.9012C66.8892 74.6084 67.502 74.172 68.0024 73.6224C69.0536 72.4904 69.6196 70.8328 69.6196 68.69C69.6196 66.5472 69.094 64.8896 68.0024 63.7172C67.502 63.1672 66.8892 62.7308 66.2056 62.438C65.5224 62.1452 64.784 62.0024 64.0404 62.0188C63.2884 61.9832 62.5384 62.1176 61.8456 62.4116C61.1528 62.7056 60.5348 63.1516 60.038 63.7172Z" fill="#00A651"/>
<path d="M106.856 51.0628C109.726 53.3672 111.545 56.4396 112.394 60.3616H103.621C103.024 58.8472 101.98 57.55 100.63 56.642C99.2143 55.7128 97.5512 55.2336 95.8588 55.2672C94.7424 55.2324 93.6328 55.4548 92.6164 55.9176C91.5996 56.3804 90.7031 57.0708 89.9963 57.9356C88.5003 59.7144 87.7727 62.1 87.7727 65.0512C87.7727 68.0028 88.5003 70.388 89.9963 72.1264C91.4923 73.8648 93.4328 74.7544 95.8588 74.7544C97.5136 74.8044 99.1443 74.3472 100.532 73.444C101.92 72.5408 102.998 71.2344 103.621 69.7008H112.394C111.545 73.582 109.726 76.6544 106.856 78.9592C103.985 81.2636 100.387 82.436 96.0203 82.436C92.9543 82.4972 89.9267 81.744 87.2471 80.2528C84.7451 78.8024 82.7216 76.6524 81.4252 74.0672C80.0108 71.2612 79.3032 68.1524 79.3636 65.0108C79.3076 61.8696 80.0152 58.762 81.4252 55.9548C82.7444 53.3856 84.7627 51.2412 87.2471 49.7688C89.7539 48.3136 92.6647 47.5856 96.0203 47.5856C100.387 47.626 103.985 48.758 106.856 51.0628Z" fill="#00A651"/>
</svg>
