<?xml version="1.0" encoding="UTF-8"?>
<svg width="127px" height="26px" viewBox="0 0 127 26" version="1.1" xmlns="http://www.w3.org/2000/svg" xmlns:xlink="http://www.w3.org/1999/xlink">
    <!-- Generator: Sketch 42 (36781) - http://www.bohemiancoding.com/sketch -->
    <title>Group 12</title>
    <desc>Created with Sketch.</desc>
    <defs></defs>
    <g id="Page-1" stroke="none" stroke-width="1" fill="none" fill-rule="evenodd">
        <g id="Desktop-HD-Copy" transform="translate(-656.000000, -67.000000)" fill="#FFFFFF">
            <g id="Group-12" transform="translate(656.000000, 67.000000)">
                <g id="Page-1-Copy-6" transform="translate(0.000000, 0.000000)">
                    <path d="M56.981099,12.9905013 C56.9316626,19.5594247 50.1873189,23.6990002 44.3426253,21.0120293 C41.9570837,19.9134247 40.1689768,23.5442411 42.6324042,24.6762069 C53.6194208,29.735997 64.9263752,18.5062285 59.8320894,7.58829505 C59.5545924,6.9952061 59.0033294,6.57124018 58.3559918,6.45308574 C56.7758911,6.16905173 55.4481028,7.79726623 56.1430114,9.28832891 C56.6765519,10.4337319 56.9638429,11.6889491 56.981099,12.9905013 L56.981099,12.9905013 Z M38.8001469,3.77955198 C34.854559,7.69949922 34.0118075,13.5446688 36.2453088,18.3306186 C36.521873,18.9250976 37.073136,19.3490635 37.7214064,19.4662912 C39.2959105,19.7507886 40.6316273,18.1272076 39.9343869,16.6310481 C36.4579788,9.16693101 44.2288282,1.45862813 51.7333738,4.90873773 C53.2253284,5.59264342 54.8744535,4.29016449 54.5866961,2.71013847 C54.4687016,2.06654429 54.0424288,1.51886372 53.4440613,1.24409673 C48.6268063,-0.975353305 42.7438693,-0.139005222 38.8001469,3.77955198 L38.8001469,3.77955198 Z M126.030753,15.8011869 C126.030753,21.4392387 121.47234,26 115.836585,26 C110.200364,26 105.602775,21.4392387 105.602775,15.8011869 L105.602775,0 L109.681748,0 L109.681748,15.8011869 C109.681748,21.2284141 116.237207,23.9580133 120.174867,20.1413933 C121.324497,18.9899667 121.95318,17.4326448 121.95318,15.8011869 L121.95318,0 L126.030753,0 L126.030753,15.8011869 Z M75.9292488,0.000926701477 L82.7873895,15.7256607 L89.6469294,0.000926701477 L94.095743,0.000926701477 L82.7873895,25.9638586 L71.482767,0.000926701477 L75.9292488,0.000926701477 Z M10.2692554,0.00139005222 C17.4240148,0.00139005222 23.2439902,5.82292873 23.2439902,12.9840144 C23.2439902,20.1413933 17.4240148,25.9629319 10.2692554,25.9629319 L0,25.9629319 L0,0.00139005222 L10.2692554,0.00139005222 Z M10.2692554,21.883592 C18.118457,21.883592 22.1853041,12.3371768 16.5360243,6.67781085 C13.350172,3.49042111 10.1736472,4.08072996 4.07757392,4.08072996 L4.07757392,21.883592 L10.2692554,21.883592 Z" id="Fill-1"></path>
                </g>
            </g>
        </g>
    </g>
</svg>