<?xml version="1.0" encoding="utf-8"?>
<!-- Generator: Adobe Illustrator 16.0.0, SVG Export Plug-In . SVG Version: 6.00 Build 0)  -->
<!DOCTYPE svg PUBLIC "-//W3C//DTD SVG 1.1//EN" "http://www.w3.org/Graphics/SVG/1.1/DTD/svg11.dtd">
<svg version="1.1" id="Layer_1" xmlns="http://www.w3.org/2000/svg" xmlns:xlink="http://www.w3.org/1999/xlink" x="0px" y="0px"
	 width="512px" height="512px" viewBox="0 0 512 512" enable-background="new 0 0 512 512" xml:space="preserve">
<linearGradient id="SVGID_1_" gradientUnits="userSpaceOnUse" x1="349.5859" y1="445.5889" x2="153.0723" y2="445.5888">
	<stop  offset="0" style="stop-color:#5E2C75"/>
	<stop  offset="0.4644" style="stop-color:#4B4188"/>
	<stop  offset="0.9951" style="stop-color:#315DA2"/>
</linearGradient>
<path fill-rule="evenodd" clip-rule="evenodd" fill="url(#SVGID_1_)" d="M155.322,398.878
	c64.877,34.521,126.497,29.635,185.653-15.452c2.845,11.554,5.263,23.085,4.317,35.102c-1.515,19.246-7.569,36.933-19.866,51.878
	c-36.569,44.44-87.398,43.871-120.933,25.886C165.626,475.444,148.986,432.762,155.322,398.878z"/>
<path fill-rule="evenodd" clip-rule="evenodd" fill="#5FB1E2" d="M352.566,156.897c-2.849-0.224-4.055-2.701-5.803-4.355
	c-7.444-7.048-14.943-14.003-24.198-18.7c-0.59-1.338-1.893-1.784-3.027-2.467c-17.983-10.807-37.224-18.107-58.019-21.354
	c-11.383-1.777-22.827-1.907-34.225-1.38c-15.293,0.708-30.102,4.387-44.581,9.325c-0.392-14.649-0.384-7.621-0.384-15.774
	c18.808-26.637,44.771-66.99,63.046-94.002c1.005-1.485,2.08-2.923,3.544-4.973c3.24,4.653,6.207,8.786,9.043,13.007
	c19.284,28.704,38.484,57.465,57.828,86.129C326.955,118.896,352.192,154.835,352.566,156.897z"/>
<g>
	<linearGradient id="SVGID_2_" gradientUnits="userSpaceOnUse" x1="92.147" y1="102.5088" x2="92.147" y2="277.7626">
		<stop  offset="0" style="stop-color:#2CA4DD"/>
		<stop  offset="0.3728" style="stop-color:#398FCE"/>
		<stop  offset="0.9951" style="stop-color:#5465AF"/>
	</linearGradient>
	<path fill-rule="evenodd" clip-rule="evenodd" fill="url(#SVGID_2_)" d="M112.42,218.122c-13.49-0.073-26.98-0.079-40.471,0.013
		c-6.771,0.046-9.978,3.355-10.021,10.287c-0.083,13.323-0.098,26.647-0.02,39.971c0.039,6.722,3.131,9.786,9.794,9.875
		c6.66,0.088,13.323,0.019,19.985,0.021c7.16,0.003,14.324,0.102,21.482-0.027c6.052-0.109,9.184-3.288,9.217-9.378
		c0.075-13.655,0.063-27.313-0.018-40.969C122.332,221.415,119.027,218.158,112.42,218.122z"/>
	<linearGradient id="SVGID_3_" gradientUnits="userSpaceOnUse" x1="155.0254" y1="102.5088" x2="155.0254" y2="277.7626">
		<stop  offset="0" style="stop-color:#2CA4DD"/>
		<stop  offset="0.3728" style="stop-color:#398FCE"/>
		<stop  offset="0.9951" style="stop-color:#5465AF"/>
	</linearGradient>
	<path fill-rule="evenodd" clip-rule="evenodd" fill="url(#SVGID_3_)" d="M185.133,168.985c0.335-7.087-2.613-10.839-9.077-10.899
		c-13.972-0.13-27.946-0.108-41.917-0.002c-5.463,0.041-8.928,3.149-9.163,8.495c-0.241,5.457-0.563,10.957,0.271,16.414
		c-0.846,8.975-0.508,17.973-0.234,26.945c0.158,5.226,3.568,8.131,8.862,8.168c14.166,0.101,28.333,0.107,42.499,0.007
		c5.436-0.039,8.901-3.266,8.942-8.647C185.417,195.974,185.214,182.479,185.133,168.985z"/>
	<linearGradient id="SVGID_4_" gradientUnits="userSpaceOnUse" x1="102.8599" y1="102.5088" x2="102.8599" y2="277.7626">
		<stop  offset="0" style="stop-color:#2CA4DD"/>
		<stop  offset="0.3728" style="stop-color:#398FCE"/>
		<stop  offset="0.9951" style="stop-color:#5465AF"/>
	</linearGradient>
	<path fill-rule="evenodd" clip-rule="evenodd" fill="url(#SVGID_4_)" d="M125.03,120.146c-0.136-5.234-2.744-7.409-7.964-7.506
		c-4.662-0.086-9.326-0.018-13.988-0.014c-4.996,0.004-9.994-0.095-14.986,0.031c-4.924,0.125-7.451,2.552-7.504,7.351
		c-0.107,9.657-0.104,19.317-0.004,28.975c0.053,5.123,2.621,7.756,7.66,7.813c9.656,0.107,19.316,0.097,28.975,0.002
		c4.918-0.049,7.694-2.405,7.809-7.181C125.263,139.798,125.283,129.965,125.03,120.146z"/>
	<linearGradient id="SVGID_5_" gradientUnits="userSpaceOnUse" x1="56.0845" y1="102.5088" x2="56.0845" y2="277.7626">
		<stop  offset="0" style="stop-color:#2CA4DD"/>
		<stop  offset="0.3728" style="stop-color:#398FCE"/>
		<stop  offset="0.9951" style="stop-color:#5465AF"/>
	</linearGradient>
	<path fill-rule="evenodd" clip-rule="evenodd" fill="url(#SVGID_5_)" d="M72.547,186.172c-0.008-6.818,0.023-13.638-0.008-20.456
		c-0.02-4.084-2.125-6.093-6.221-6.057c-3.326,0.03-6.652,0.006-9.979,0.005c-3.326-0.002-6.653,0.054-9.979-0.016
		c-4.554-0.095-6.775,2.049-6.745,6.623c0.043,6.486,0.064,12.973,0.005,19.458c-0.04,4.312,2.115,6.616,6.288,6.71
		c6.815,0.153,13.638,0.149,20.453-0.005C70.241,192.347,72.552,190.313,72.547,186.172z"/>
</g>
<linearGradient id="SVGID_6_" gradientUnits="userSpaceOnUse" x1="131.8535" y1="314.8604" x2="137.8525" y2="478.3525">
	<stop  offset="0" style="stop-color:#4F8ABF"/>
	<stop  offset="0.2044" style="stop-color:#5175AF"/>
	<stop  offset="0.6226" style="stop-color:#584186"/>
	<stop  offset="1" style="stop-color:#5E0C5D"/>
</linearGradient>
<path fill="url(#SVGID_6_)" d="M145.24,431.91c-2.329-14.817-2.075-29.095,1.025-42.768c-18.286-13.43-33.535-30.747-44.528-50.74
	c-7.203-0.224-14.424-0.164-21.629-0.025c-9.78,0.188-15.522,6.974-14.286,16.34c3.082,23.355,10.11,45.434,21.65,65.994
	c5.023,8.952,10.172,17.863,17.469,25.266c0.117,0.308,0.164,0.672,0.361,0.915c25.561,31.498,57.98,52.411,97.15,62.872
	c1.247,0.333,2.78,1.068,4.106-0.753C173.53,493.142,152.805,467.723,145.24,431.91z"/>
<path fill="#3C92CF" d="M352.566,156.897c-0.061-0.005-0.111-0.024-0.171-0.031c0.217,0.231,0.433,0.462,0.647,0.695
	C352.883,157.341,352.727,157.117,352.566,156.897z"/>
<linearGradient id="SVGID_7_" gradientUnits="userSpaceOnUse" x1="360.6445" y1="194.1855" x2="360.6445" y2="530.1959">
	<stop  offset="0" style="stop-color:#5B6AB0"/>
	<stop  offset="0.2826" style="stop-color:#706FB1"/>
	<stop  offset="0.8614" style="stop-color:#A47BB5"/>
	<stop  offset="1" style="stop-color:#B27EB6"/>
</linearGradient>
<path fill="url(#SVGID_7_)" d="M411.375,244.11c-4.962-9.218-11.077-17.66-17.029-26.236c-5.439-7.838-10.753-15.763-16.065-23.688
	c10.339,20.85,16.16,44.336,16.16,69.186c0,43.798-18.063,83.371-47.135,111.699c16.115,41.714,4.021,90.771-32.181,119.557
	c-4.053,3.223-8.199,6.292-12.743,8.771c-4.486,2.448-9.049,4.756-14.491,7.602c2.145-0.403,3.29-0.566,4.409-0.839
	c29.012-7.058,54.816-20.321,77.423-39.854C435.865,413.158,451.762,319.145,411.375,244.11z"/>
<linearGradient id="SVGID_8_" gradientUnits="userSpaceOnUse" x1="365.6621" y1="-36.8896" x2="365.6621" y2="465.273">
	<stop  offset="0" style="stop-color:#3598D3"/>
	<stop  offset="0.2961" style="stop-color:#4583C5"/>
	<stop  offset="0.8776" style="stop-color:#6E51A1"/>
</linearGradient>
<path fill="url(#SVGID_8_)" d="M353.043,157.561c8.723,11.995,16.981,24.309,25.237,36.625"/>
<path fill="#3C92CF" d="M394.44,263.371c0-24.85-5.821-48.336-16.16-69.186c-8.256-12.315-16.515-24.629-25.237-36.625
	c-0.215-0.232-0.431-0.464-0.647-0.695c-2.72-0.312-3.921-2.706-5.632-4.324c-7.444-7.048-14.943-14.003-24.198-18.701v0
	c-0.59-1.337-1.893-1.784-3.027-2.466c-17.983-10.807-37.224-18.107-58.019-21.354c-11.383-1.777-22.827-1.907-34.225-1.38
	c-15.293,0.708-30.102,4.387-44.581,9.325c-0.059,8.813-0.278,17.628-0.128,26.438c0.139,8.158,5.794,13.53,14.076,13.608
	c9.98,0.095,19.963,0.073,29.944-0.001c3.037-0.022,5.966,0.302,8.805,1.375c5.756,3.476,7.615,8.615,7.368,15.208
	c-0.361,9.646-0.077,19.317-0.115,28.978c-0.037,9.369-5.074,14.44-14.535,14.516c-9.993,0.079-19.987-0.039-29.98,0.042
	c-10.432,0.084-15.603,5.305-15.646,15.665c-0.042,9.827-0.004,19.654-0.065,29.481c-0.061,9.739-5.058,14.816-14.708,14.883
	c-9.826,0.067-19.654-0.045-29.48,0.029c-10.834,0.082-15.92,5.216-15.936,15.955c-0.017,10.16-0.129,20.323,0.051,30.48
	c0.145,8.114-7.878,14.402-14.788,14.018c-1.944-0.108-3.891-0.179-5.838-0.239c10.993,19.993,26.242,37.311,44.528,50.74
	c2.789-12.301,7.883-24.112,15.486-35.386c11.271-16.708,22.713-33.301,33.983-50.009c11.815-17.516,23.463-35.145,35.293-52.65
	c5.733-8.484,11.716-16.8,17.926-25.679c5.762,8.456,11.259,16.491,16.724,24.549c23.54,34.701,47.024,69.441,70.617,104.107
	c4.544,6.677,8.202,13.726,11.011,20.995C376.378,346.742,394.44,307.169,394.44,263.371z"/>
<linearGradient id="SVGID_9_" gradientUnits="userSpaceOnUse" x1="248.0884" y1="-36.8896" x2="248.0884" y2="465.273">
	<stop  offset="0.1675" style="stop-color:#3598E0"/>
	<stop  offset="0.6372" style="stop-color:#5D66B3"/>
	<stop  offset="0.8776" style="stop-color:#6E51A1"/>
</linearGradient>
<path fill="url(#SVGID_9_)" d="M394.44,263.371c0-24.85-5.821-48.336-16.16-69.186c-8.256-12.315-16.515-24.629-25.237-36.625
	c-0.215-0.232-0.431-0.464-0.647-0.695c-2.72-0.312-3.921-2.706-5.632-4.324c-7.444-7.048-14.943-14.003-24.198-18.701v0
	c-0.59-1.337-1.893-1.784-3.027-2.466c-17.983-10.807-37.224-18.107-58.019-21.354c-11.383-1.777-22.827-1.907-34.225-1.38
	c-15.293,0.708-30.102,4.387-44.581,9.325c-0.059,8.813-0.278,17.628-0.128,26.438c0.139,8.158,5.794,13.53,14.076,13.608
	c9.98,0.095,19.963,0.073,29.944-0.001c3.037-0.022,5.966,0.302,8.805,1.375c5.756,3.476,7.615,8.615,7.368,15.208
	c-0.361,9.646-0.077,19.317-0.115,28.978c-0.037,9.369-5.074,14.44-14.535,14.516c-9.993,0.079-19.987-0.039-29.98,0.042
	c-10.432,0.084-15.603,5.305-15.646,15.665c-0.042,9.827-0.004,19.654-0.065,29.481c-0.061,9.739-5.058,14.816-14.708,14.883
	c-9.826,0.067-19.654-0.045-29.48,0.029c-10.834,0.082-15.92,5.216-15.936,15.955c-0.017,10.16-0.129,20.323,0.051,30.48
	c0.145,8.114-7.878,14.402-14.788,14.018c-1.944-0.108-3.891-0.179-5.838-0.239c10.993,19.993,26.242,37.311,44.528,50.74
	c2.789-12.301,7.883-24.112,15.486-35.386c11.271-16.708,22.713-33.301,33.983-50.009c11.815-17.516,23.463-35.145,35.293-52.65
	c5.733-8.484,11.716-16.8,17.926-25.679c5.762,8.456,11.259,16.491,16.724,24.549c23.54,34.701,47.024,69.441,70.617,104.107
	c4.544,6.677,8.202,13.726,11.011,20.995C376.378,346.742,394.44,307.169,394.44,263.371z"/>
</svg>
