<svg version="1" xmlns="http://www.w3.org/2000/svg" width="1365.333" height="1365.333" viewBox="0 0 1024.000000 1024.000000"><path d="M466.8 62.8c-4.9 3-24.3 14.6-26.3 15.8-1.1.6-8.3 4.8-16 9.5-7.7 4.6-14.9 8.9-16 9.5-1.1.6-10.5 6.2-21 12.4-33.2 19.7-44.8 26.6-51.5 30.6-3.6 2.1-6.6 3.9-6.8 4-.2.1-.4 18.9-.4 41.8v41.5l-3.4-1.4c-1.9-.8-5.1-2.2-7.1-3.1-2.1-.9-5.1-2.2-6.8-2.9-1.6-.8-16.7-7.2-33.3-14.4l-30.4-12.9-10.6 6.2c-5.9 3.4-19.2 11.3-29.7 17.6-10.4 6.2-28.2 16.7-39.5 23.4-11.3 6.7-29.8 17.7-41.3 24.5L106 277.3l.2 290.9.3 290.9 29 11.5c47.7 18.9 67.2 26.5 105.8 41.8 20.2 8 37 14.6 37.2 14.6.3 0 2.4.9 4.8 1.9 11.5 5.2 68 27 80.9 31.2 16.2 5.3 35.1 10.6 44.3 12.5 1.1.2 3.1.6 4.5.9 14.6 3.1 23.3 4 39.5 4 21.6-.1 32.7-1.8 51.4-8.1 11.7-3.9 21.3-8.8 41.3-21 7.3-4.5 25.7-15.4 40.8-24.4 15.1-8.9 29.1-17.3 31-18.5 1.9-1.2 9.1-5.5 16-9.5 15.9-9.2 22.7-14.1 32.3-23 7-6.6 22.7-25.9 22.7-27.9 0-.5 1.7-1.2 3.8-1.6 9.4-1.7 27-9 39.2-16.3 1.9-1.2 5.1-3 7-4.1 1.9-1 9.1-5.3 15.8-9.5 6.8-4.2 12.5-7.6 12.6-7.6.6 0 88-52.3 94.1-56.3 26.7-17.4 48-47.9 61-87 3.4-10.2 8.8-31.4 9.9-38.7.3-1.9.7-4.4 1-5.5.2-1.1.7-4.5 1.1-7.5.4-3 .9-6.3 1.1-7.2.1-1 .6-4.8.9-8.5.3-3.7.8-8.2 1-9.8.8-5.8 1.8-31.1 1.8-44 0-22.9-2.1-47.6-5.8-68.5-.1-.8-.6-3.5-1-6s-1.8-9.2-3.2-15c-1.3-5.8-2.8-12.1-3.3-14-8.8-37.8-33.9-94.2-57.2-129-10.1-14.9-14.4-20.5-30.1-39.5-10.9-13.1-39.1-40-56.2-53.7-17.4-13.9-45.3-33.8-47.4-33.8-.5 0-1.1-.4-1.3-.8-.7-1.7-32-19.6-49.3-28.2C666 144.3 473 60.9 470.7 61.1c-.7 0-2.4.8-3.9 1.7zm18 150.3c1.3.5 4.9 2.1 8 3.5 9.1 4.1 10.1 4.6 43.1 18.9 17.3 7.5 34.4 15.1 38 17 16.7 8.4 48.4 28.4 60.6 38.2.6.5 4.2 3.3 8 6.3 24.6 19.3 51.4 46.4 71.2 72.1 33.2 43.1 58.1 93.1 70.2 141.4 3.2 12.8 6.6 29.1 7.6 36.5.3 2.5.8 5.6 1 7 .2 1.4.7 4.7 1 7.5.3 2.7.7 6.5 1 8.3 2.1 17 2.1 67.1 0 80.5-.2 1.2-.6 5.2-1 8.9-.3 3.7-.8 7.7-1 9-.2 1.3-.6 4.1-1 6.3-3.4 23.5-11.1 50.6-18.6 65.7-1.8 3.5-2 3.6-6.6 3.3-12.3-1-19-1.6-20.8-2-1.1-.2-3.6-.7-5.5-.9-1.9-.3-6-1-9-1.7s-6.1-1.2-6.9-1.2c-1 0-1.2-1.5-.7-7.1 1.5-18.1 2.1-30.7 2.1-51.1 0-20.1-1-42.7-2-45.8-.2-.6-.6-4.1-.9-7.7-.3-3.6-1.1-9.2-1.6-12.5-.6-3.3-1.3-7.6-1.6-9.5-.2-1.9-1.4-7.6-2.5-12.5-1-5-2.1-10-2.4-11.2-2.3-12.6-11.3-40.5-19.6-61.3-5.7-14.4-20.7-45-27.8-56.5-2.3-3.9-4.7-7.9-5.4-9-2-3.3-19.5-29.3-21.1-31.2-.8-1-5.2-6.5-9.7-12.3-18.7-23.8-54.6-55.8-89.1-79.2-17.8-12.1-44.1-27.7-62-36.9l-8.8-4.4V207l5.8 2.6c3.1 1.4 6.7 3 8 3.5zM273.5 341.6c5 2 9.5 3.7 10 3.8 1.3.4 1.8.6 15.5 5.6 6.3 2.3 13 4.8 14.8 5.6 1.7.8 4.9 2.1 7 3 2 .9 4.7 2.1 6 2.7l2.2 1v74c0 40.7-.2 73.8-.4 73.6-.2-.2-4.5-11.2-9.4-24.4S300.7 437.1 289 406c-26.3-69.7-25-66.3-25-67.2 0-1.1-.6-1.2 9.5 2.8zm219.2 144.6c4.3 5.1 12.1 15.1 17.3 22.3 5.2 7.1 10.3 13.9 11.2 14.9 1 1.1 1.8 2.5 1.8 3.2 0 .7.4 1.4.8 1.6 2.7 1 21.7 32.7 29.5 48.9 8.5 17.7 20 53.9 22.1 69.7.7 5.1 1.6 10.3 2.1 12.8.2 1.1.7 4.5 1.1 7.5.3 3 .9 7.8 1.3 10.7.5 2.9.5 5.4.1 5.7-.3.2-24.9-8.9-54.6-20.4l-53.9-20.7-.2-90-.3-89.9 6.9 7.2c3.8 3.9 10.4 11.3 14.8 16.5zM268.1 646c9.5 12.4 17.6 22.7 17.9 23 .3.3 2.5 3.2 5 6.5 2.4 3.3 5.2 6.9 6.1 8 1 1.1 8.8 11.1 17.3 22.1l15.6 20.1 16.2 6.6c9 3.6 48 19.2 86.8 34.7 38.8 15.4 71.4 28.5 72.5 29 1.1.5 11.9 4.8 24 9.6s24.9 10.1 28.5 11.8c3.6 1.7 9.3 4.2 12.7 5.6 6 2.4 6.2 2.6 5.7 5.5-1.7 10.3-9.3 34.1-14.6 45.8l-3.1 6.8-5-.6c-29.7-3.4-105.9-28.6-218.1-72-26.3-10.1-85.8-33.7-86.5-34.2-.2-.1-.6-34.8-.8-77-.4-66.8-.3-76.6 1-75.3.8.8 9.2 11.6 18.8 24z"/></svg>