<?xml version="1.0" encoding="UTF-8"?>
<svg width="125px" height="38px" viewBox="0 0 125 38" version="1.1" xmlns="http://www.w3.org/2000/svg" xmlns:xlink="http://www.w3.org/1999/xlink">
    <!-- Generator: Sketch 50.2 (55047) - http://www.bohemiancoding.com/sketch -->
    <title>logo</title>
    <desc>Created with Sketch.</desc>
    <defs></defs>
    <g id="Page-1" stroke="none" stroke-width="1" fill="none" fill-rule="evenodd">
        <g id="seller" transform="translate(-160.000000, -25.000000)" fill="#3C80F1">
            <g id="menu" transform="translate(159.000000, 25.000000)">
                <g id="logo" transform="translate(0.800781, 0.624872)">
                    <g id="typo" transform="translate(40.608243, 7.772943)">
                        <path d="M28.9324809,11.5212532 C28.8803971,8.75590638 27.6280398,7.7123108 25.6714848,7.7123108 C23.4017871,7.7123108 22.4365306,8.86007383 22.280066,11.5212532 L28.9324809,11.5212532 Z M18.9144755,12.7213135 C18.9144755,7.73835266 21.1058342,4.89466675 25.6454429,4.89466675 C29.5062557,4.89466675 31.9849286,7.16457787 31.9849286,12.1735805 C31.9849286,12.3770059 31.980446,12.6024174 31.9716942,12.830177 C31.9516292,13.3520815 31.5215115,13.764909 30.9993935,13.764909 L22.358405,13.764909 C22.5146562,17.0517335 23.8974363,18.1999235 26.8975869,18.1999235 C28.154,18.1999235 29.2887421,18.0086652 30.3869829,17.6263621 C30.7712071,17.492524 31.1812597,17.7401352 31.2388933,18.1429302 L31.4465878,19.5974322 C31.4888525,19.8928579 31.3227822,20.1748358 31.047635,20.2907434 C29.7910085,20.819692 28.2408773,21.1479903 26.5063186,21.1479903 C21.2104285,21.1479903 18.9144755,18.3561746 18.9144755,12.7213135 Z" id="Fill-1"></path>
                        <path d="M38.3911412,7.71237483 L38.3911412,16.4519809 C38.3911412,17.8345476 39.1218075,18.4083224 40.4522905,18.4083224 C40.535539,18.4083224 40.6249779,18.405334 40.7171917,18.3993572 C41.2854166,18.3634962 41.7780774,18.790412 41.8258919,19.3579965 L41.8679431,19.8553534 C41.9127693,20.3892115 41.5496774,20.8705591 41.0241441,20.9740861 C40.5628616,21.0650192 40.0249478,21.1215855 39.4870339,21.1215855 C36.5389671,21.1215855 35.0780614,19.4258761 35.0780614,16.5303199 L35.0780614,7.71237483 L34.1397005,7.71237483 C33.577239,7.71237483 33.1215064,7.2564288 33.1215064,6.69396728 L33.1215064,6.17355696 C33.1215064,5.61109544 33.577239,5.15536286 34.1397005,5.15536286 L35.1824423,5.15536286 L35.6537573,2.26621043 C35.7297483,1.80087225 36.1088495,1.44439758 36.5782434,1.39743685 L37.2459396,1.33083799 C37.8589907,1.26936212 38.3911412,1.7509231 38.3911412,2.36717601 L38.3911412,5.15536286 L41.0514667,5.15536286 C41.6139283,5.15536286 42.0696608,5.61109544 42.0696608,6.17355696 L42.0696608,6.69396728 C42.0696608,7.2564288 41.6139283,7.71237483 41.0514667,7.71237483 L38.3911412,7.71237483 Z" id="Fill-3"></path>
                        <path d="M54.9497521,20.8608681 C54.3281628,20.8608681 53.8244022,20.3571075 53.8244022,19.7355181 L53.8244022,10.6861847 C53.8244022,8.86005248 52.885401,7.89479594 50.850507,7.89479594 C49.4677268,7.89479594 48.2676666,8.52086791 47.7197202,9.35570168 L47.7197202,19.8211147 C47.7197202,20.3953164 47.254382,20.8608681 46.6801803,20.8608681 L45.4463938,20.8608681 C44.8721921,20.8608681 44.4066404,20.3953164 44.4066404,19.8211147 L44.4066404,1.57409459 C44.4066404,0.934147863 44.9067722,0.406053063 45.5454382,0.370832512 L46.4483651,0.320883368 C47.1389013,0.283101323 47.7197202,0.832755369 47.7197202,1.52435891 L47.7197202,4.26857344 L47.6676365,6.35576461 L47.7459755,6.40763487 C48.9197804,5.31174211 50.406728,4.86860354 51.8941025,4.86860354 C55.2332242,4.86860354 57.1637373,6.98162312 57.1637373,10.6861847 L57.1637373,19.7355181 C57.1637373,20.3571075 56.6599767,20.8608681 56.0383873,20.8608681 L54.9497521,20.8608681 Z" id="Fill-5"></path>
                        <path d="M69.5182526,11.5212532 C69.4661689,8.75590638 68.2138115,7.7123108 66.2572565,7.7123108 C63.9875589,7.7123108 63.0220889,8.86007383 62.8656242,11.5212532 L69.5182526,11.5212532 Z M59.5002473,12.7213135 C59.5002473,7.73835266 61.6916059,4.89466675 66.2310012,4.89466675 C70.0920274,4.89466675 72.5707003,7.16457787 72.5707003,12.1735805 C72.5707003,12.2719846 72.569633,12.3755117 72.5674984,12.4820272 C72.5536237,13.1949765 71.9670414,13.764909 71.2538786,13.764909 L62.9439633,13.764909 C63.1004279,17.0517335 64.4832081,18.1999235 67.4833586,18.1999235 C68.6377388,18.1999235 69.6894458,18.0383358 70.704438,17.715801 C71.2321059,17.5475962 71.7862426,17.875254 71.8645816,18.4232004 L72.0063177,19.4155661 C72.0637378,19.8177207 71.8417416,20.2096294 71.4643481,20.3599038 C70.2386729,20.8480819 68.7495907,21.1479903 67.0920903,21.1479903 C61.7959868,21.1479903 59.5002473,18.3561746 59.5002473,12.7213135 Z" id="Fill-7"></path>
                        <path d="M75.0894393,19.7923406 L75.0894393,6.27533368 C75.0894393,5.70518768 75.5338586,5.23387267 76.1031507,5.20035979 L76.7159883,5.1642854 C77.2936054,5.1303456 77.7948045,5.55896903 77.8509439,6.13509185 L78.0375061,8.05130326 L78.1156317,8.05130326 C79.0811017,6.01640927 80.698472,4.92094342 82.6291986,4.92094342 C82.8206703,4.92094342 83.0055248,4.92756061 83.181841,4.94058154 C83.7884883,4.98455387 84.2495574,5.50154886 84.2117753,6.10883653 L84.1419746,7.23568069 C84.1033387,7.85983154 83.5541116,8.32346206 82.9320953,8.26049198 C82.7630367,8.24320189 82.59163,8.2340232 82.4204368,8.2340232 C80.1507391,8.2340232 78.4027325,10.0082851 78.4027325,12.9563519 L78.4027325,19.7923406 C78.4027325,20.3825516 77.9243734,20.8609108 77.3343758,20.8609108 L76.1580094,20.8609108 C75.5677984,20.8609108 75.0894393,20.3825516 75.0894393,19.7923406" id="Fill-9"></path>
                        <path d="M7.85466769,17.5737448 L6.8582463,17.5737448 L4.22033379,17.5737448 L4.03163702,17.5737448 L4.03163702,3.41679111 L4.22033379,3.41679111 L4.86988613,3.41679111 L7.85466769,3.41679111 C11.3767227,3.41679111 14.1320371,5.51508209 14.1320371,10.5763819 C14.1320371,16.0026947 11.2460865,17.5737448 7.85466769,17.5737448 M7.88070955,0.103284403 L1.58711736,0.103284403 C1.05304574,0.103284403 0.619939693,0.536390446 0.619939693,1.07046207 L0.619939693,2.63745638 L0.619939693,3.41679111 L0.619939693,17.5737448 L0.619939693,17.8096157 L0.619939693,19.8938185 C0.619939693,20.4278901 1.05304574,20.8605692 1.58711736,20.8605692 L7.93300673,20.8605692 C13.6464204,20.8605692 17.4916507,17.6984042 17.4916507,10.6024238 C17.4916507,3.79290389 13.9595631,0.103284403 7.88070955,0.103284403" id="Fill-11"></path>
                    </g>
                    <g id="symbole" transform="translate(0.930178, 0.030854)">
                        <path d="M15.0185468,0.018987106 C6.73739079,0.018987106 0.000101625902,6.75627627 0.000101625902,15.037771 C0.000101625902,15.8314693 0.088685537,16.6349914 0.253319498,17.4435949 C0.287364175,17.6116164 0.481300271,17.6836014 0.620019627,17.5828224 C0.720459894,17.5098211 0.825981455,17.441393 0.936923065,17.3790624 C1.44335881,17.0938324 2.01771453,16.9430873 2.59765968,16.9432567 L2.60053908,16.9432567 C2.74535599,16.9434261 2.85934638,16.8174099 2.83343177,16.6749643 C2.73248337,16.1200869 2.67794414,15.5730008 2.67794414,15.037771 C2.67794414,8.23290063 8.21384577,2.696999 15.0185468,2.696999 C21.8232478,2.696999 27.3593188,8.23290063 27.3593188,15.037771 C27.3593188,21.8446739 18.649979,30.5389392 15.533282,33.6095658 C15.2473744,33.891239 14.7895498,33.8910696 14.5036422,33.6093965 C13.5868072,32.7061116 12.1858941,31.3156998 10.6654013,29.630573 C10.644568,29.6285405 10.6228878,29.6280324 10.6020545,29.6258305 C9.40439321,29.5076057 8.23315469,29.2269488 7.12272234,28.7924981 C7.05361672,28.7655672 6.98451111,28.7379588 6.91591363,28.709673 C6.69487729,28.6187178 6.49975556,28.8853164 6.65168628,29.0699368 C8.65202278,31.5003202 10.8335921,33.754044 12.7863338,35.6766367 C13.4018481,36.2824964 14.2102821,36.5853416 15.0185468,36.5853416 C15.8269808,36.5853416 16.6354149,36.2824964 17.2509291,35.6764673 C22.7399134,30.2721712 30.0371613,22.2530407 30.0371613,15.037771 C30.0371613,6.75627627 23.2998721,0.018987106 15.0185468,0.018987106" id="Fill-13"></path>
                        <path d="M21.26522,16.5548594 C21.2581062,16.7653944 21.2486211,16.9752519 21.2308365,17.180875 C21.1625778,18.0062467 20.9999764,18.7760629 20.6983168,19.4764347 C20.398351,20.1779922 19.953399,20.829753 19.4029253,21.4725368 L19.4191855,21.4864257 C18.3778587,22.644961 17.0755228,23.6002444 15.6244743,24.2033942 C14.1778296,24.809762 12.5956837,25.0778851 11.0670607,24.9230749 C9.59026698,24.7802905 8.17631194,24.2384551 6.96374555,23.3666742 C7.3353576,23.3524466 7.71831787,23.300448 8.11110198,23.1901839 C8.43376422,23.09889 8.76286277,22.9659294 9.07773369,22.775889 C9.39243523,22.5880505 9.69172351,22.3402526 9.93969071,22.04757 C10.1898598,21.7559037 10.3831184,21.4220626 10.5208215,21.0846646 C10.6554758,20.7469279 10.7369459,20.4063117 10.7797982,20.0797538 C10.8238361,19.7614954 10.821126,19.4069904 10.8202791,19.2088198 L10.8202791,18.5091255 L10.8202791,17.1099062 L10.8202791,11.5137066 L10.8202791,10.114826 L10.8202791,9.41530106 L10.8202791,9.37312631 L10.8209567,9.35974556 C10.821126,9.35059923 10.8207873,9.34162228 10.8221423,9.33298408 C10.8229892,9.3155383 10.8255298,9.29843127 10.8279011,9.281663 C10.8333211,9.24761832 10.8414512,9.21492865 10.8531382,9.18342462 C10.8981923,9.05656162 10.9977857,8.94172435 11.1190593,8.87786941 C11.1795267,8.84501037 11.2438898,8.82519332 11.3124873,8.817402 C11.3295943,8.81553886 11.3468707,8.81333696 11.3648246,8.81367572 L11.3782054,8.81299821 L11.4156376,8.81282883 L11.5030358,8.81282883 L11.8527983,8.81282883 L13.2518482,8.81282883 L13.9513732,8.81282883 L14.1263391,8.81282883 L14.2125518,8.81299821 L14.2816574,8.81553886 C14.3739676,8.8202814 14.4656003,8.81689387 14.558588,8.82671771 C15.3011345,8.873635 16.0596025,9.09162256 16.7743714,9.42258425 C18.2093291,10.0868789 19.4615296,11.2306784 20.270133,12.594498 C20.4710135,12.9366386 20.645302,13.2918211 20.7913045,13.6569968 C20.9349358,14.0230194 21.044353,14.3995434 21.1261619,14.7804712 C21.2105114,15.1613989 21.2506536,15.5497792 21.2650506,15.9383289 C21.2660669,16.0384305 21.2741969,16.1271837 21.27064,16.2362622 L21.26522,16.5548594 Z M23.9413687,15.8485594 C23.9218904,15.3060465 23.8629474,14.762856 23.7472632,14.2325382 C23.6342891,13.7017122 23.4811728,13.180202 23.2836798,12.6776619 C23.0841542,12.1763074 22.8463496,11.6925681 22.5746697,11.230509 C21.4759243,9.38938645 19.8522812,7.90463202 17.902927,6.99406394 C16.9274877,6.54352245 15.8643114,6.22966779 14.7423615,6.15514212 C14.603134,6.14210013 14.4611965,6.14328577 14.320614,6.13786572 L14.214923,6.13498632 L14.1263391,6.13481694 L13.9513732,6.13481694 L13.2518482,6.13481694 L11.8527983,6.13481694 L11.5030358,6.13481694 L11.4156376,6.13481694 L11.2914846,6.13668009 C11.1929075,6.1387126 11.0938222,6.1466733 10.9954145,6.15836028 C10.6007672,6.20476944 10.2122175,6.32587364 9.86126939,6.5135428 C9.15767939,6.88634049 8.60466511,7.52184113 8.33434021,8.27404218 C8.26625086,8.46171134 8.21628479,8.65581682 8.18461138,8.85195481 C8.16919812,8.95053193 8.15700301,9.04927843 8.15073608,9.14802493 C8.14650167,9.19748287 8.14497728,9.24677144 8.14379165,9.29606 L8.14226726,9.41530106 L8.14226726,10.114826 L8.14226726,11.5137066 L8.14226726,17.1099062 L8.14226726,18.5091255 L8.14226726,19.2088198 C8.14311414,19.4766041 8.14226726,19.5897476 8.12431335,19.7343951 C8.10635944,19.8698963 8.07502479,19.9854111 8.03810071,20.0812782 C7.99812785,20.174774 7.95476747,20.2492997 7.90056699,20.311969 C7.79623106,20.4344282 7.63583151,20.5404579 7.38125863,20.6136286 C7.13058141,20.6864605 6.80571727,20.7098344 6.46493175,20.6830729 C6.12245246,20.6552952 5.76201926,20.580092 5.41005489,20.463561 C4.70527926,20.2332089 4.02828137,19.842288 3.52303127,19.3612587 L3.52049062,19.358718 C3.10551818,18.9645789 2.46646064,18.8680343 1.94156286,19.1634269 C1.29725464,19.5265702 1.06910449,20.3429649 1.43207833,20.9874425 C2.37279543,22.6576642 3.62465717,24.2265987 5.23610522,25.4220581 C6.03844171,26.0189409 6.92529708,26.5175853 7.86686106,26.8847936 C8.80774754,27.2528487 9.80097135,27.489129 10.8031721,27.5880448 C12.8118081,27.7896029 14.8356879,27.4372997 16.6595341,26.673073 C18.4830415,25.906983 20.1395437,24.7335426 21.4178282,23.203734 L21.4340883,23.2177923 C22.0965198,22.4466211 22.7264311,21.54774 23.1602043,20.5302953 C23.5980425,19.5147138 23.8156914,18.4327367 23.8997021,17.4015726 C23.9218904,17.1427653 23.9335774,16.8861599 23.9420462,16.6309095 L23.9484825,16.2501511 C23.9522088,16.1261675 23.94374,15.9818587 23.9413687,15.8485594 Z" id="Fill-16"></path>
                    </g>
                </g>
            </g>
        </g>
    </g>
</svg>
