<svg width="140px" height="40px" viewBox="0 0 140 40" version="1.1" xmlns="http://www.w3.org/2000/svg" xmlns:xlink="http://www.w3.org/1999/xlink">
    <!-- Generator: Sketch 48.2 (47327) - http://www.bohemiancoding.com/sketch -->
    <desc>Created with Sketch.</desc>
    <defs>
        <polygon id="path-1" points="5.2612676 5.76576577 0.0891958763 5.76576577 0.0891958763 0.219351351 5.2612676 0.219351351 5.2612676 5.76576577"></polygon>
        <polygon id="path-3" points="5.7496701 5.76576577 0.0775051546 5.76576577 0.0775051546 0.219315315 5.7496701 0.219315315"></polygon>
    </defs>
    <g id="Welcome" stroke="none" stroke-width="1" fill="none" fill-rule="evenodd">
        <g id="Datarius-landing" transform="translate(-60.000000, -32.000000)">
            <g id="Header">
                <g id="logo" transform="translate(60.000000, 32.000000)">
                    <path d="M15.4723093,13.9364685 C14.0239588,12.489982 12.1162784,11.7490811 9.82035052,11.7490811 C6.46431959,11.7490811 4.06230928,14.0777297 4.06230928,17.7465586 C4.06230928,21.4510631 6.46431959,23.7793514 9.82035052,23.7793514 C12.1873608,23.7793514 13.9532371,23.1090811 15.4723093,21.4510631 L15.4723093,13.9364685 Z M19.0755052,2.54115315 C19.3933918,2.54115315 19.5698351,2.71736937 19.5698351,3.03484685 L19.5698351,26.8842162 C19.5698351,27.2016937 19.3933918,27.3779099 19.0755052,27.3779099 L16.7792165,27.3779099 C16.4966907,27.3779099 16.3202474,27.2366486 16.2495258,26.9544865 L15.9312784,25.5786306 L15.6841134,25.5433153 C14.2357629,26.9544865 12.0812784,27.6600721 9.82035052,27.6600721 C4.16839175,27.6600721 0.000144329897,23.6737658 0.000144329897,17.7465586 C0.000144329897,11.8197117 4.06230928,7.86836036 9.82035052,7.86836036 C11.9751959,7.86836036 13.9178763,8.39736937 15.4723093,9.66763964 L15.4723093,3.03484685 C15.4723093,2.71736937 15.6487526,2.54115315 15.967,2.54115315 L19.0755052,2.54115315 Z" id="Fill-1" fill="#FFFFFE"></path>
                    <path d="M35.1823608,17.922955 L28.9653505,18.946018 C27.0223093,19.2638559 26.1393711,20.2159279 26.1393711,21.4508829 C26.1393711,22.8973694 27.1283918,23.8148468 29.3539588,23.8148468 C32.0384948,23.8148468 33.9461753,22.7914234 35.1823608,21.1334054 L35.1823608,17.922955 Z M35.7124124,25.1200721 C33.9815361,26.7780901 31.7559691,27.6602523 28.9299897,27.6602523 C24.8674639,27.6602523 22.0414845,25.260973 22.0414845,21.6624144 C22.0414845,18.0991712 24.620299,15.8415135 28.9653505,15.2768288 L35.1823608,14.4656577 L35.1823608,14.0418739 C35.1823608,12.3842162 33.4514845,11.7139459 31.332,11.7139459 C28.7535464,11.7139459 27.1637526,12.1723243 25.1853505,13.4072793 C24.9028247,13.5834955 24.5145773,13.5481802 24.3377732,13.3013333 L22.9601443,11.3611532 C22.7126186,11.078991 22.7833402,10.7258378 23.0305052,10.5496216 C25.3975155,8.82097297 27.7995258,7.86854054 31.332,7.86854054 C35.5002474,7.86854054 39.2798866,9.73809009 39.2798866,14.500973 L39.2798866,20.6393514 C39.2798866,22.0505225 39.3509691,23.3557477 39.7392165,24.6263784 L40.1985464,26.1078198 C40.3046289,26.389982 40.269268,26.7074595 39.8806598,26.8134054 L37.372567,27.6249369 C37.0900412,27.7308829 36.8778763,27.6249369 36.7721546,27.3427748 L35.8888557,25.1200721 L35.7124124,25.1200721 Z" id="Fill-3" fill="#FFFFFE"></path>
                    <path d="M44.0831495,4.41084685 C44.1185103,4.09336937 44.2953144,3.91715315 44.5778402,3.91715315 L47.2627371,3.91715315 C47.5099021,3.91715315 47.757067,4.09336937 47.757067,4.41084685 L47.757067,8.15066667 L52.9850567,8.15066667 C53.3029433,8.15066667 53.4797474,8.32688288 53.4797474,8.64436036 L53.4797474,11.4667027 C53.4797474,11.7841802 53.3029433,11.9607568 52.9850567,11.9607568 L47.757067,11.9607568 L47.757067,21.0980541 C47.757067,22.8973333 48.7107268,23.8148108 50.229799,23.8148108 C51.1834588,23.8148108 52.0313969,23.6378739 52.7732526,23.2501261 C53.1618608,23.0735495 53.3736649,23.2151712 53.4797474,23.4616577 L54.4334072,25.7196757 C54.5748505,26.0375135 54.5041289,26.249045 54.1862423,26.4252613 C52.8789742,27.2717477 51.5367062,27.6602162 49.7351082,27.6602162 C45.4961392,27.6602162 43.6591804,24.9787748 43.6591804,21.204 L43.6591804,11.9607568 L41.4693351,11.9607568 C41.1514485,11.9607568 40.9746443,11.7841802 40.9746443,11.4667027 L40.9746443,8.89156757 C40.9746443,8.64436036 41.1157268,8.46814414 41.3986134,8.43282883 L43.6945412,8.22093694 L44.0831495,4.41084685 Z" id="Fill-5" fill="#FFFFFE"></path>
                    <path d="M68.7036289,17.922955 L62.4866186,18.946018 C60.5435773,19.2638559 59.6606392,20.2159279 59.6606392,21.4508829 C59.6606392,22.8973694 60.6496598,23.8148468 62.8752268,23.8148468 C65.5597629,23.8148468 67.4674433,22.7914234 68.7036289,21.1334054 L68.7036289,17.922955 Z M69.2336804,25.1200721 C67.5028041,26.7780901 65.2772371,27.6602523 62.4512577,27.6602523 C58.388732,27.6602523 55.5631134,25.260973 55.5631134,21.6624144 C55.5631134,18.0991712 58.1419278,15.8415135 62.4866186,15.2768288 L68.7036289,14.4656577 L68.7036289,14.0418739 C68.7036289,12.3842162 66.9727526,11.7139459 64.853268,11.7139459 C62.2748144,11.7139459 60.6850206,12.1723243 58.7069794,13.4072793 C58.4244536,13.5834955 58.0358454,13.5481802 57.8590412,13.3013333 L56.4814124,11.3611532 C56.2338866,11.078991 56.3049691,10.7258378 56.5517732,10.5496216 C58.9187835,8.82097297 61.3207938,7.86854054 64.853268,7.86854054 C69.0215155,7.86854054 72.8011546,9.73809009 72.8011546,14.500973 L72.8011546,20.6393514 C72.8011546,22.0505225 72.8722371,23.3557477 73.2604845,24.6263784 L73.7198144,26.1078198 C73.8255361,26.389982 73.7905361,26.7074595 73.4019278,26.8134054 L70.8938351,27.6249369 C70.6113093,27.7308829 70.3991443,27.6249369 70.2934227,27.3427748 L69.4101237,25.1200721 L69.2336804,25.1200721 Z" id="Fill-7" fill="#FFFFFE"></path>
                    <path d="M79.5118093,8.15063063 C79.7589742,8.15063063 79.9357784,8.29189189 80.0061392,8.57405405 L80.3597474,10.0201802 L80.5361907,10.0201802 C81.9138196,8.64432432 83.5743351,7.86846847 85.6934588,7.86846847 C89.7206237,7.86846847 92.4051598,10.4436036 93.1470155,13.9365766 C93.2177371,14.289009 93.1116546,14.5009009 92.8291289,14.6064865 L90.0385103,15.5592793 C89.7206237,15.6652252 89.5088196,15.5945946 89.4027371,15.2767568 C88.8376856,13.2659459 87.6715,11.7138739 85.3052113,11.7138739 C83.3621701,11.7138739 81.7727371,12.5603604 80.5361907,14.2187387 L80.5361907,26.883964 C80.5361907,27.2014414 80.3597474,27.3776577 80.0415,27.3776577 L76.9329948,27.3776577 C76.6858299,27.3776577 76.4383041,27.2014414 76.4383041,26.883964 L76.4383041,8.64432432 C76.4383041,8.32684685 76.6151082,8.15063063 76.9329948,8.15063063 L79.5118093,8.15063063 Z" id="Fill-9" fill="#FFFFFE"></path>
                    <path d="M98.7274948,8.15063063 C99.0457423,8.15063063 99.2221856,8.32684685 99.2221856,8.64432432 L99.2221856,26.883964 C99.2221856,27.2014414 99.0457423,27.3776577 98.7274948,27.3776577 L95.6189897,27.3776577 C95.3011031,27.3776577 95.1246598,27.2014414 95.1246598,26.883964 L95.1246598,8.64432432 C95.1246598,8.32684685 95.3011031,8.15063063 95.6189897,8.15063063 L98.7274948,8.15063063 Z M94.2413608,3.07027027 C94.2413608,1.48288288 95.6189897,0.107027027 97.2087835,0.107027027 C98.7274948,0.107027027 100.105124,1.5181982 100.105124,3.07027027 C100.105124,4.6227027 98.7274948,5.99855856 97.2087835,5.99855856 C95.6543505,5.99855856 94.2413608,4.6227027 94.2413608,3.07027027 Z" id="Fill-11" fill="#FFFFFE"></path>
                    <path d="M105.827371,8.15063063 C106.145258,8.15063063 106.321701,8.32684685 106.321701,8.64432432 L106.321701,18.9816216 C106.321701,22.3326126 107.69933,23.7794595 110.666753,23.7794595 C112.645155,23.7794595 114.693918,22.9679279 115.965825,21.3099099 L115.965825,8.64432432 C115.965825,8.32684685 116.142268,8.15063063 116.460155,8.15063063 L119.56866,8.15063063 C119.886546,8.15063063 120.063351,8.32684685 120.063351,8.64432432 L120.063351,26.883964 C120.063351,27.2014414 119.886546,27.3776577 119.56866,27.3776577 L117.060567,27.3776577 C116.74268,27.3776577 116.566237,27.2367568 116.495155,26.9545946 L116.177629,25.5434234 L115.965825,25.5434234 C114.305309,27.0605405 112.362268,27.6601802 110.242784,27.6601802 C105.438763,27.6601802 102.224536,25.0846847 102.224536,19.2281081 L102.224536,8.64432432 C102.224536,8.32684685 102.400979,8.15063063 102.718866,8.15063063 L105.827371,8.15063063 Z" id="Fill-13" fill="#FFFFFE"></path>
                    <path d="M139.208242,10.7966847 C139.455768,10.9729009 139.490768,11.1844324 139.313964,11.4316396 L137.547727,13.619027 C137.335923,13.8658739 137.088758,13.9011892 136.806232,13.6543423 C135.216438,12.3840721 133.167675,11.6784865 130.730304,11.6784865 C128.328294,11.6784865 127.021387,12.3487568 127.021387,13.4424505 C127.021387,14.5714595 128.080768,15.1357838 131.295356,15.4532613 C136.24082,15.912 139.808655,17.5703784 139.808655,21.592 C139.808655,25.4374054 136.205459,27.6601081 131.366077,27.6601081 C127.833603,27.6601081 125.078345,26.8132613 122.534892,24.6965045 C122.287366,24.5202883 122.287366,24.2730811 122.499531,23.9909189 L124.159686,21.7682162 C124.371851,21.4860541 124.618655,21.4507387 124.86618,21.6622703 C126.809222,23.1793874 128.64618,23.850018 131.436799,23.850018 C134.404222,23.850018 135.746129,22.9678559 135.746129,21.6622703 C135.746129,20.2867748 134.404222,19.6867748 130.836026,19.3692973 C126.102727,18.9815495 122.958861,17.5703784 122.958861,13.5833514 C122.958861,10.0907387 126.314531,7.8683964 130.942108,7.8683964 C134.050613,7.8683964 136.947314,8.92677477 139.208242,10.7966847" id="Fill-15" fill="#FFFFFE"></path>
                    <g id="Group-19" transform="translate(1.804124, 34.139099)">
                        <mask id="mask-2" fill="white">
                            <use xlink:href="#path-1"></use>
                        </mask>
                        <g id="Clip-18"></g>
                        <path d="M5.23672165,1.49466667 C5.27641237,1.56385586 5.2666701,1.61322523 5.21687629,1.65286486 L4.59337113,2.12745946 C4.52409278,2.19664865 4.44471134,2.15736937 4.40502062,2.10763964 C3.99945361,1.55412613 3.55383505,1.30691892 2.88053608,1.30691892 C1.89079381,1.30691892 1.23734021,1.99881081 1.23734021,2.97754955 C1.23734021,3.95664865 1.90053608,4.67809009 2.88053608,4.67809009 C3.55383505,4.67809009 4.02904124,4.44097297 4.43496907,3.84781982 C4.48440206,3.79845045 4.53383505,3.79845045 4.59337113,3.84781982 L5.21687629,4.34187387 C5.2666701,4.3916036 5.27641237,4.4507027 5.23672165,4.50043243 C4.73192784,5.33106306 3.87063918,5.76601802 2.88053608,5.76601802 C1.29687629,5.76601802 0.0891958763,4.56926126 0.0891958763,2.97754955 C0.0891958763,1.38583784 1.29687629,0.219351351 2.88053608,0.219351351 C3.81110309,0.219351351 4.76151546,0.684216216 5.23672165,1.49466667" id="Fill-17" fill="#FFFFFE" mask="url(#mask-2)"></path>
                    </g>
                    <path d="M15.5341546,37.3046486 C16.1580206,37.3046486 16.5040515,36.908973 16.5040515,36.4051892 C16.5040515,35.9006847 16.1580206,35.5251892 15.5341546,35.5251892 L14.1085361,35.5251892 L14.1085361,37.3046486 L15.5341546,37.3046486 Z M15.5341546,34.4376216 C16.7320928,34.4376216 17.6525567,35.2877117 17.6525567,36.4051892 C17.6525567,37.1169009 17.2664742,37.7298739 16.7021443,38.056 L17.5536907,39.6873514 C17.5933814,39.7565405 17.5435876,39.8257297 17.464567,39.8257297 L16.4943093,39.8257297 C16.4152887,39.8257297 16.3557526,39.7961802 16.3160619,39.726991 L15.652866,38.3821261 C15.5835876,38.3922162 15.5341546,38.3922162 15.4944639,38.3922162 L14.1085361,38.3922162 L14.1085361,39.6873514 C14.1085361,39.7763604 14.0591031,39.8257297 13.9699794,39.8257297 L13.0989485,39.8257297 C13.0098247,39.8257297 12.9603918,39.7763604 12.9603918,39.6873514 L12.9603918,34.576 C12.9603918,34.486991 13.0098247,34.4376216 13.0989485,34.4376216 L15.5341546,34.4376216 Z" id="Fill-20" fill="#FFFFFE"></path>
                    <path d="M26.5517938,39.6874595 C26.5517938,39.7764685 26.5023608,39.8258378 26.4132371,39.8258378 L25.5422062,39.8258378 C25.4530825,39.8258378 25.4032887,39.7764685 25.4032887,39.6874595 L25.4032887,38.4514234 L23.1661753,34.5461982 C23.1365876,34.4968288 23.1661753,34.4377297 23.2354536,34.4377297 L24.3244227,34.4377297 C24.3738557,34.4377297 24.4236495,34.4672793 24.4532371,34.5166486 L25.9676186,37.3144865 L26.0368969,37.3144865 L27.4823608,34.5267387 C27.5119485,34.4672793 27.5516392,34.4377297 27.6209175,34.4377297 L28.7001443,34.4377297 C28.7694227,34.4377297 28.7990103,34.4867387 28.7694227,34.5562883 L26.5517938,38.4514234 L26.5517938,39.6874595 Z" id="Fill-22" fill="#FFFFFE"></path>
                    <path d="M37.1639021,37.3046486 C37.7679227,37.3046486 38.1143144,36.9291532 38.1143144,36.4051892 C38.1143144,35.890955 37.7679227,35.5251892 37.1639021,35.5251892 L35.7285412,35.5251892 L35.7285412,37.3046486 L37.1639021,37.3046486 Z M37.1639021,34.4376216 C38.3618402,34.4376216 39.2624588,35.2978018 39.2624588,36.4051892 C39.2624588,37.5518559 38.3618402,38.3922162 37.1639021,38.3922162 L35.7285412,38.3922162 L35.7285412,39.6873514 C35.7285412,39.7763604 35.6791082,39.8257297 35.5899845,39.8257297 L34.7189536,39.8257297 C34.6298299,39.8257297 34.5800361,39.7763604 34.5800361,39.6873514 L34.5800361,34.576 C34.5800361,34.486991 34.6298299,34.4376216 34.7189536,34.4376216 L37.1639021,34.4376216 Z" id="Fill-24" fill="#FFFFFE"></path>
                    <path d="M49.5378093,34.4376216 C49.626933,34.4376216 49.676366,34.486991 49.676366,34.576 L49.676366,35.3868108 C49.676366,35.4758198 49.626933,35.5251892 49.5378093,35.5251892 L47.8155928,35.5251892 L47.8155928,39.6873514 C47.8155928,39.7763604 47.765799,39.8257297 47.6766753,39.8257297 L46.8056443,39.8257297 C46.7165206,39.8257297 46.6670876,39.7763604 46.6670876,39.6873514 L46.6670876,35.5251892 L44.9445103,35.5251892 C44.8553866,35.5251892 44.8059536,35.4758198 44.8059536,35.3868108 L44.8059536,34.576 C44.8059536,34.486991 44.8553866,34.4376216 44.9445103,34.4376216 L49.5378093,34.4376216 Z" id="Fill-26" fill="#FFFFFE"></path>
                    <g id="Group-30" transform="translate(54.845361, 34.139099)">
                        <mask id="mask-4" fill="white">
                            <use xlink:href="#path-3"></use>
                        </mask>
                        <g id="Clip-29"></g>
                        <path d="M1.23575258,2.99733333 C1.23575258,3.97643243 1.92853608,4.68814414 2.91863918,4.68814414 C3.89863918,4.68814414 4.59178351,3.97643243 4.59178351,2.99733333 C4.59178351,1.99877477 3.89863918,1.29679279 2.91863918,1.29679279 C1.92853608,1.29679279 1.23575258,1.99877477 1.23575258,2.99733333 M2.91863918,0.219315315 C4.47271134,0.219315315 5.7496701,1.41571171 5.7496701,2.99733333 C5.7496701,4.58940541 4.47271134,5.76598198 2.91863918,5.76598198 C1.35446392,5.76598198 0.0775051546,4.58940541 0.0775051546,2.99733333 C0.0775051546,1.41571171 1.35446392,0.219315315 2.91863918,0.219315315" id="Fill-28" fill="#FFFFFE" mask="url(#mask-4)"></path>
                    </g>
                    <path d="M67.6729691,38.7482162 L69.4947732,38.7482162 C69.9598763,38.7482162 70.2272474,38.5208288 70.2272474,38.1745225 C70.2272474,37.7892973 69.9797216,37.6011892 69.4947732,37.6011892 L67.6729691,37.6011892 L67.6729691,38.7482162 Z M67.6729691,36.5334414 L69.326268,36.5334414 C69.6430722,36.5334414 69.8804948,36.3258739 69.8804948,36.0195676 C69.8804948,35.7031712 69.6726598,35.5053333 69.326268,35.5053333 L67.6729691,35.5053333 L67.6729691,36.5334414 Z M70.4451856,36.9388468 C71.0387423,37.1467748 71.3753918,37.6011892 71.3753918,38.1846126 C71.3753918,39.1633514 70.6328144,39.8256937 69.5243608,39.8256937 L66.6731237,39.8256937 C66.584,39.8256937 66.5349278,39.7766847 66.5349278,39.6873153 L66.5349278,34.575964 C66.5349278,34.486955 66.584,34.4375856 66.6731237,34.4375856 L69.3165258,34.4375856 C70.3264742,34.4375856 71.0188969,35.0801081 71.0188969,35.9107387 C71.0188969,36.335964 70.8110619,36.6819099 70.4451856,36.8696577 L70.4451856,36.9388468 Z" id="Fill-31" fill="#FFFFFE"></path>
                    <path d="M78.9282835,37.7199279 L80.8092629,37.7199279 L79.9378711,35.5051532 L79.8289021,35.5051532 L78.9282835,37.7199279 Z M81.2050876,38.7581261 L78.5126134,38.7581261 L78.1362732,39.7073153 C78.1066856,39.7862342 78.0471495,39.8258739 77.9681289,39.8258739 L76.987768,39.8258739 C76.8889021,39.8258739 76.8593144,39.7765045 76.8889021,39.6874955 L79.2252423,34.5166847 C79.2450876,34.4673153 79.2844175,34.4377658 79.3540567,34.4377658 L80.4827165,34.4377658 C80.551634,34.4377658 80.5913247,34.4673153 80.6111701,34.5166847 L82.8385412,39.6673153 C82.8681289,39.7465946 82.8186959,39.8258739 82.7295722,39.8258739 L81.7892629,39.8258739 C81.6900361,39.8258739 81.6207577,39.7765045 81.5814278,39.6874955 L81.2050876,38.7581261 Z" id="Fill-33" fill="#FFFFFE"></path>
                    <path d="M92.7076392,39.8257658 C92.6387216,39.8257658 92.5889278,39.8059459 92.5593402,39.7565766 L91.203,38.0463063 L89.8369175,36.1183784 L89.7874845,36.1281081 L89.8567629,37.7893694 L89.8567629,39.6873874 C89.8567629,39.7763964 89.8073299,39.8257658 89.7182062,39.8257658 L88.8767629,39.8257658 C88.7876392,39.8257658 88.7382062,39.7763964 88.7382062,39.6873874 L88.7382062,34.576036 C88.7382062,34.487027 88.7876392,34.4376577 88.8767629,34.4376577 L89.6388247,34.4376577 C89.7182062,34.4376577 89.7773814,34.4574775 89.8271753,34.5068468 L91.3119691,36.385045 L92.5593402,38.145045 L92.6087732,38.1353153 L92.5394948,36.4643243 L92.5394948,34.576036 C92.5394948,34.487027 92.5889278,34.4376577 92.6780515,34.4376577 L93.5194948,34.4376577 C93.6086186,34.4376577 93.6580515,34.487027 93.6580515,34.576036 L93.6580515,39.6873874 C93.6580515,39.7763964 93.6086186,39.8257658 93.5194948,39.8257658 L92.7076392,39.8257658 Z" id="Fill-35" fill="#FFFFFE"></path>
                    <path d="M100.805052,34.4376216 C100.894175,34.4376216 100.943969,34.486991 100.943969,34.576 L100.943969,36.7114955 L103.17134,34.5169009 C103.230515,34.4671712 103.319639,34.4376216 103.428608,34.4376216 L104.635928,34.4376216 C104.725052,34.4376216 104.755,34.5169009 104.685722,34.5857297 L102.319794,36.8005045 L104.834021,39.6776216 C104.903299,39.7464505 104.863969,39.8257297 104.774845,39.8257297 L103.58701,39.8257297 C103.478041,39.8257297 103.39866,39.7961802 103.339124,39.726991 L101.527784,37.4729369 L100.943969,37.9277117 L100.943969,39.6873514 C100.943969,39.7763604 100.894175,39.8257297 100.805052,39.8257297 L99.9340206,39.8257297 C99.8448969,39.8257297 99.7954639,39.7763604 99.7954639,39.6873514 L99.7954639,34.576 C99.7954639,34.486991 99.8448969,34.4376216 99.9340206,34.4376216 L100.805052,34.4376216 Z" id="Fill-37" fill="#FFFFFE"></path>
                    <path d="M100.68966,3.35827027 C100.68966,5.21268468 99.184299,6.71610811 97.327134,6.71610811 C95.4699691,6.71610811 93.9646082,5.21268468 93.9646082,3.35827027 C93.9646082,1.5034955 95.4699691,7.20720721e-05 97.327134,7.20720721e-05 C99.184299,7.20720721e-05 100.68966,1.5034955 100.68966,3.35827027" id="Fill-39" fill="#5CB79E"></path>
                </g>
            </g>
        </g>
    </g>
</svg>