<svg viewBox="0 0 261 177.75" xmlns="http://www.w3.org/2000/svg"><path d="m228.29 177.75 32.71-33.79v-143.96h-261v177.75z" fill="#e7e015"/><g fill="#323644"><path d="m112.18 15.32a1.52 1.52 0 0 1 1.43-1.11h1.27a1.53 1.53 0 0 1 1.35.87l15.77 43.79h.4l15.5-43.79a1.52 1.52 0 0 1 1.35-.87h1.27a1.52 1.52 0 0 1 1.43 1.11l10.25 53.4c.24 1.11-.24 1.91-1.43 1.91h-3.18a1.65 1.65 0 0 1 -1.43-1.11l-7.07-40.93h-.32l-14.62 42a1.6 1.6 0 0 1 -1.35.87h-1.43a1.6 1.6 0 0 1 -1.35-.87l-14.78-42h-.32l-6.92 40.93a1.54 1.54 0 0 1 -1.43 1.11h-3.17c-1.2 0-1.67-.8-1.43-1.91z"/><path d="m175.07 15.64a1.49 1.49 0 0 1 1.51-1.43h2l35.82 44.66h.16v-42.36a1.51 1.51 0 0 1 1.51-1.51h2.78a1.56 1.56 0 0 1 1.51 1.51v53.49a1.49 1.49 0 0 1 -1.51 1.43h-1.43l-36.42-45.54h-.08v43.23a1.51 1.51 0 0 1 -1.51 1.51h-2.78a1.56 1.56 0 0 1 -1.51-1.51z"/><path d="m240 16.51a1.56 1.56 0 0 1 1.5-1.51h3.18a1.56 1.56 0 0 1 1.51 1.51v52.61a1.56 1.56 0 0 1 -1.51 1.51h-3.18a1.56 1.56 0 0 1 -1.5-1.51z"/><path d="m66.46 83.74h-13.83a1.51 1.51 0 0 1 -1.51-1.5v-2.31a1.51 1.51 0 0 1 1.51-1.51h33.7a1.51 1.51 0 0 1 1.51 1.51v2.31a1.51 1.51 0 0 1 -1.51 1.5h-13.83v48.8a1.57 1.57 0 0 1 -1.5 1.51h-3a1.56 1.56 0 0 1 -1.51-1.51z"/><path d="m95.86 79.93a1.56 1.56 0 0 1 1.51-1.51h3a1.51 1.51 0 0 1 1.51 1.51v33.14c0 9.06 5.64 16.13 14.94 16.13s15.1-6.91 15.1-16v-33.27a1.51 1.51 0 0 1 1.51-1.51h3a1.57 1.57 0 0 1 1.57 1.51v33.61c0 12.08-8.59 21.3-21.14 21.3s-21-9.22-21-21.3z"/><path d="m153.47 79.93a1.49 1.49 0 0 1 1.43-1.51h17.8a27.82 27.82 0 1 1 0 55.63h-17.8a1.49 1.49 0 0 1 -1.43-1.51zm18 48.63c13 0 22.49-9.29 22.49-22.41s-9.46-22.33-22.49-22.33h-11.96v44.74z"/><path d="m212.83 79.93a1.51 1.51 0 0 1 1.5-1.51h31.31a1.51 1.51 0 0 1 1.51 1.51v2.31a1.5 1.5 0 0 1 -1.51 1.5h-26.7v19.39h22.81a1.56 1.56 0 0 1 1.51 1.51v2.36a1.51 1.51 0 0 1 -1.51 1.51h-22.81v20.26h26.7a1.51 1.51 0 0 1 1.51 1.51v2.31a1.51 1.51 0 0 1 -1.51 1.51h-31.31a1.51 1.51 0 0 1 -1.5-1.51z"/><path d="m69.3 58.32a23 23 0 1 1 23-23 23 23 0 0 1 -23 23zm0-40.51a17.56 17.56 0 1 0 17.56 17.56 17.57 17.57 0 0 0 -17.56-17.56z"/><path d="m49.93 64.32h38.75v5.4h-38.75z"/></g></svg>