<?xml version="1.0" encoding="iso-8859-1"?>
<!-- Generator: Adobe Illustrator 19.0.0, SVG Export Plug-In . SVG Version: 6.00 Build 0)  -->
<svg version="1.1" id="Layer_1" xmlns="http://www.w3.org/2000/svg" xmlns:xlink="http://www.w3.org/1999/xlink" x="0px" y="0px"
	 viewBox="0 0 500 500" style="enable-background:new 0 0 500 500;" xml:space="preserve">
<path d="M87.636,346.665c57.598-57.359,116.001-115.52,173.82-173.099c20.917,20.951,42.598,42.667,64.134,64.237
	c-57.5,57.296-115.871,115.46-173.593,172.978C130.956,389.821,109.245,368.192,87.636,346.665z M319.128,56.357
	c-12.391-12.47-24.784-24.937-37.214-37.368c-17.349-17.349-36.366-17.325-53.79,0.108
	c-47.988,48.012-95.954,96.045-143.912,144.086c-1.667,1.67-3.164,3.509-3.99,4.432c21.971,21.963,43.506,43.49,64.68,64.656
	c57.8-57.702,116.136-115.938,174.914-174.616C319.62,57.274,319.479,56.71,319.128,56.357z M268.227,354.212
	c21.239,21.15,42.845,42.665,65.238,64.964c1.932-2.171,4.297-5.108,6.945-7.762c47.387-47.502,94.839-94.941,142.205-142.464
	c14.339-14.387,15.676-34.112,2.612-47.949c-13.726-14.537-28.225-28.344-41.474-41.561
	C384.588,238.35,326.027,296.66,268.227,354.212z M348.115,87.651c-21.028,20.871-42.663,42.345-63.478,63.004
	c21.065,21.1,42.606,42.675,63.554,63.657c21.133-21.13,42.671-42.665,63.271-63.263
	C390.239,129.809,368.589,108.141,348.115,87.651z M58.969,190.961C44.171,205.235,28.412,219.26,14.1,234.632
	c-10.478,11.254-10.339,29.786,0.174,41.046c14.159,15.164,29.678,29.058,44.481,43.369c20.914-21.194,42.341-42.908,63.647-64.499
	C101.452,233.546,79.918,211.961,58.969,190.961z M244.395,378.277c-21.137,20.789-42.875,42.168-65.143,64.07
	c14.022,13.875,27.987,28.223,42.547,41.939c12.313,11.599,31.418,12.287,43.687,0.862c15.009-13.977,28.922-29.13,42.656-43.111
	C286.284,420.175,264.758,398.644,244.395,378.277z"/>
</svg>
