<?xml version="1.0" standalone="no"?>
<!DOCTYPE svg PUBLIC "-//W3C//DTD SVG 20010904//EN"
 "http://www.w3.org/TR/2001/REC-SVG-20010904/DTD/svg10.dtd">
<svg version="1.0" xmlns="http://www.w3.org/2000/svg"
 width="1680.000000pt" height="1680.000000pt" viewBox="0 0 1680.000000 1680.000000"
 preserveAspectRatio="xMidYMid meet">
<metadata>
Created by potrace 1.11, written by Peter Selinger 2001-2013
</metadata>
<g transform="translate(0.000000,1680.000000) scale(0.100000,-0.100000)"
fill="#000000" stroke="none">
<path d="M7880 16459 c-1561 -103 -3038 -644 -4284 -1568 -525 -389 -1052
-897 -1471 -1416 -888 -1100 -1483 -2468 -1684 -3870 -60 -417 -81 -716 -81
-1160 0 -444 21 -743 81 -1160 201 -1404 795 -2769 1684 -3870 348 -432 798
-882 1230 -1230 992 -800 2192 -1361 3460 -1614 523 -105 1004 -151 1570 -151
444 0 743 21 1160 81 1404 201 2769 795 3870 1684 432 348 882 798 1230 1230
966 1197 1582 2705 1729 4235 50 510 50 1080 0 1590 -126 1312 -596 2610
-1342 3709 -299 441 -579 779 -971 1172 -393 392 -731 672 -1172 971 -1192
809 -2560 1273 -4024 1368 -184 12 -801 11 -985 -1z m730 -219 c293 -10 520
-28 770 -60 1571 -205 3044 -888 4220 -1956 163 -148 464 -451 591 -594 1588
-1789 2267 -4179 1858 -6540 -206 -1189 -698 -2331 -1421 -3303 -223 -299
-422 -531 -693 -806 -780 -795 -1669 -1388 -2688 -1795 -93 -37 -171 -65 -174
-63 -2 3 6 8 19 12 13 4 108 47 211 96 538 252 1065 580 1542 963 405 324 841
759 1165 1161 942 1170 1510 2545 1664 4025 54 518 54 1102 0 1620 -152 1468
-720 2846 -1648 4005 -327 408 -768 849 -1181 1181 -1149 924 -2538 1496
-4005 1648 -510 53 -1110 53 -1620 0 -1960 -204 -3761 -1152 -5046 -2660 -38
-44 -86 -100 -107 -125 -70 -80 184 254 282 371 216 261 508 565 771 804 1174
1067 2644 1749 4215 1955 285 38 552 57 955 69 25 1 169 -3 320 -8z m2510
-5735 l0 -415 -2755 0 -2755 0 0 415 0 415 2755 0 2755 0 0 -415z m-930 -2020
l0 -425 -1805 0 -1805 0 2 -627 3 -628 2268 -3 2267 -2 0 -425 0 -425 -2712 0
-2713 0 0 1480 0 1480 2248 0 2247 0 0 -425z"/>
</g>
</svg>
