<svg width="118" height="20" viewBox="0 0 118 20" fill="none" xmlns="http://www.w3.org/2000/svg">
<path d="M6.42567 9.9191L0 0.224478H14.1561V4.54567H7.73045L11.3081 9.93313L7.73045 15.3206H14.1561V19.6418H0L6.42567 9.9191ZM16.1203 8.06716H20.8203C21.9988 8.06716 22.8406 7.22537 22.8406 6.1591C22.8406 5.09284 21.9988 4.22298 20.8203 4.22298H16.1203V0.224478H21.3113C22.8392 0.229287 24.3031 0.838348 25.3834 1.91869C26.4637 2.99904 27.0728 4.46292 27.0776 5.99075C27.0776 8.41791 25.5764 10.5224 23.3036 11.4063L29.617 19.6278H24.4119L18.3931 11.757H16.1203V8.06716ZM31.0481 0.224478H35.4254V19.6278H31.0481V0.224478ZM37.7122 16.0501L41.0233 13.3424C41.8651 14.6752 43.2681 15.7415 44.6009 15.7415C45.8916 15.7415 46.4528 15.2504 46.4528 14.3525C46.4528 13.4827 45.8215 12.9355 44.18 12.1919L43.0857 11.7009C40.1675 10.3821 38.554 8.23552 38.554 5.61194C38.5681 2.21672 41.3881 0 44.4746 0C46.6352 0 48.2767 0.519104 49.9182 2.42716L46.9719 5.54179C45.9898 4.33522 45.3866 4.09672 44.4887 4.09672C43.7451 4.09672 42.9875 4.5597 42.9875 5.42955C42.9875 6.4397 43.8293 6.98687 45.611 7.78657L46.6493 8.24955C49.329 9.45612 50.8863 11.3922 50.8863 14.0719C50.8863 17.5654 48.3188 19.8382 44.7131 19.8382C41.5704 19.8382 39.0591 18.5615 37.7122 16.0501ZM56.1194 4.53164H51.4755V0.224478H65.1687V4.54567H60.4967V19.6278H56.1194V4.53164ZM66.9084 0.224478H78.8478V4.57373H75.0597V15.2925H78.8618V19.6418H66.9224V15.2925H70.6964V4.5597H66.9224V0.224478H66.9084ZM80.1946 9.9191C80.1965 7.81112 80.8692 5.75844 82.1155 4.05834C83.3618 2.35824 85.1169 1.09898 87.1267 0.462928C89.1364 -0.173123 91.2964 -0.152943 93.2939 0.520545C95.2914 1.19403 97.0227 2.48587 98.237 4.20895L94.926 6.91672C94.4221 6.09173 93.7152 5.40966 92.8728 4.93562C92.0303 4.46158 91.0804 4.2114 90.1137 4.20895C86.971 4.20895 84.6 6.80448 84.6 9.9191C84.6 13.0337 86.9851 15.6293 90.1278 15.6293C91.0944 15.6268 92.0443 15.3766 92.8868 14.9026C93.7293 14.4286 94.4362 13.7465 94.94 12.9215L98.251 15.6293C97.0352 17.352 95.303 18.6434 93.3048 19.3166C91.3066 19.9899 89.1461 20.01 87.1356 19.3743C85.1252 18.7385 83.3691 17.4797 82.1213 15.78C80.8736 14.0802 80.1988 12.0277 80.1946 9.9191ZM107.932 15.2785H110.85L107.932 9.02119L102.951 19.6278H98.3633L107.932 0L117.5 19.6278H107.932V15.2785Z" fill="#FF0541"/>
</svg>
