<svg xmlns="http://www.w3.org/2000/svg" xmlns:xlink="http://www.w3.org/1999/xlink" width="854" height="853"><rect id="backgroundrect" width="100%" height="100%" x="0" y="0" fill="none" stroke="none" class="" style=""/><style>.st0{fill:#3c3c3b}.st1{opacity:.6}.st2{clip-path:url(#SVGID_2_);fill:#010101}.st3{opacity:.45}.st4{clip-path:url(#SVGID_4_);fill:#010101}.st5{opacity:.8}.st6,.st7,.st8{clip-path:url(#SVGID_6_);fill:#010101}.st7,.st8{clip-path:url(#SVGID_8_)}.st8{clip-path:url(#SVGID_10_)}</style><g class="currentLayer" style=""><title>Layer 1</title><g class="st1" id="svg_2"><defs transform="translate(160,10) translate(-727.5,0) "><path id="SVGID_1_" d="M720.6 306.4h508.7v266H720.6z"/></defs><clipPath id="SVGID_2_" transform="translate(160,10) translate(-727.5,0) "><use xlink:href="#SVGID_1_" overflow="visible" id="svg_3"/></clipPath><path class="st2" d="M407.5,316.4 L153.10000000000002,432.1 L407.5,582.4 l254.3,-150.3 z" id="svg_4"/></g><g class="st3" id="svg_5"><defs transform="translate(160,10) translate(-727.5,0) "><path id="SVGID_3_" d="M720.6 0H975v572.4H720.6z"/></defs><clipPath id="SVGID_4_" transform="translate(160,10) translate(-727.5,0) "><use xlink:href="#SVGID_3_" overflow="visible" id="svg_6"/></clipPath><path class="st4" d="M153.10000000000002,432.1 L407.5,582.4 V10 z" id="svg_7"/></g><g class="st5" id="svg_8"><defs transform="translate(160,10) translate(-727.5,0) "><path id="SVGID_5_" d="M975 0h254.4v572.4H975z"/></defs><clipPath id="SVGID_6_" transform="translate(160,10) translate(-727.5,0) "><use xlink:href="#SVGID_5_" overflow="visible" id="svg_9"/></clipPath><path class="st6" d="M407.5,10 v572.4 l254.3,-150.3 z" id="svg_10"/></g><g class="st3" id="svg_11"><defs transform="translate(160,10) translate(-727.5,0) "><path id="SVGID_7_" d="M720.6 470.3H975v358.4H720.6z"/></defs><clipPath id="SVGID_8_" transform="translate(160,10) translate(-727.5,0) "><use xlink:href="#SVGID_7_" overflow="visible" id="svg_12"/></clipPath><path class="st7" d="M153.10000000000002,480.3 L407.5,838.7 V630.6 z" id="svg_13"/></g><g class="st5" id="svg_14"><defs transform="translate(160,10) translate(-727.5,0) "><path id="SVGID_9_" d="M975 470.3h254.5v358.4H975z"/></defs><clipPath id="SVGID_10_" transform="translate(160,10) translate(-727.5,0) "><use xlink:href="#SVGID_9_" overflow="visible" id="svg_15"/></clipPath><path class="st8" d="M407.5,630.6 v208.1 l254.5,-358.4 z" id="svg_16"/></g></g></svg>