<?xml version="1.0" standalone="no"?>
<!DOCTYPE svg PUBLIC "-//W3C//DTD SVG 20010904//EN"
 "http://www.w3.org/TR/2001/REC-SVG-20010904/DTD/svg10.dtd">
<svg version="1.0" xmlns="http://www.w3.org/2000/svg"
 width="512.000000pt" height="512.000000pt" viewBox="0 0 512.000000 512.000000"
 preserveAspectRatio="xMidYMid meet">
<metadata>
Created by potrace 1.11, written by Peter Selinger 2001-2013
</metadata>
<g transform="translate(0.000000,512.000000) scale(0.100000,-0.100000)"
fill="#000000" stroke="none">
<path d="M1345 5064 c-607 -91 -1104 -527 -1270 -1115 -17 -60 -18 -68 -30
-139 -4 -25 -10 -54 -12 -65 -12 -51 -10 -336 3 -420 44 -278 138 -502 301
-716 l42 -56 -45 -58 c-149 -192 -254 -442 -298 -705 -14 -83 -17 -273 -7
-378 52 -517 361 -971 824 -1211 440 -229 968 -234 1411 -14 72 36 229 134
253 159 29 28 51 35 66 20 32 -33 222 -150 309 -191 738 -349 1630 -65 2022
644 68 123 140 312 160 419 3 15 7 38 10 52 24 112 28 364 10 490 -39 258
-141 504 -295 708 l-48 64 53 71 c123 169 206 342 255 534 40 156 50 246 46
423 -7 396 -166 765 -449 1045 -107 106 -178 162 -300 235 -161 97 -359 169
-551 201 -87 15 -352 19 -453 6 -153 -18 -414 -101 -514 -164 -21 -13 -40 -23
-43 -23 -9 0 -150 -93 -191 -126 l-40 -33 -25 22 c-74 69 -292 191 -434 243
-228 83 -520 113 -760 78z m291 -1098 c111 -14 229 -89 294 -187 48 -73 70
-143 75 -245 9 -161 60 -279 165 -384 110 -110 237 -163 395 -163 234 0 435
136 521 355 26 67 33 107 39 209 12 229 179 402 400 416 283 18 498 -209 462
-487 -26 -202 -203 -363 -407 -369 -167 -6 -307 -61 -410 -161 -255 -252 -215
-667 84 -861 100 -66 161 -83 323 -94 195 -12 341 -128 402 -317 13 -41 17
-143 7 -198 -11 -56 -61 -154 -102 -200 -170 -187 -455 -196 -632 -18 -53 53
-106 146 -117 203 -3 17 -8 68 -11 115 -10 160 -70 288 -182 392 -186 171
-468 196 -679 59 -94 -61 -150 -124 -201 -226 -36 -73 -51 -134 -57 -243 -6
-94 -30 -171 -73 -234 -115 -167 -320 -235 -506 -169 -108 38 -200 121 -249
225 -80 168 -39 369 99 496 82 75 161 107 287 115 114 8 170 22 254 61 171 81
293 258 309 448 28 325 -233 605 -567 606 -140 0 -267 72 -356 201 -80 116
-88 292 -19 427 48 93 175 197 266 218 44 9 125 20 135 18 6 -2 28 -5 51 -8z"/>
</g>
</svg>
