<svg width="386" height="386" viewBox="0 0 386 386" fill="none" xmlns="http://www.w3.org/2000/svg">
<circle cx="193" cy="193" r="193" fill="#0667D0"/>
<mask id="mask0" mask-type="alpha" maskUnits="userSpaceOnUse" x="68" y="68" width="250" height="250">
<rect width="248.143" height="248.143" transform="translate(68.9287 68.9286)" fill="#0667D0"/>
</mask>
<g mask="url(#mask0)">
<path fill-rule="evenodd" clip-rule="evenodd" d="M104.271 36.0034L104.271 60.7555L199.641 60.7436L201.891 63.0095L178.46 92.4641L176.21 94.7296L110.634 94.7348L104.272 94.7323L104.272 94.7516L63.7673 94.7513L63.7675 94.7314L2.2506 94.735L0 92.4691L23.4309 63.0145L25.6808 60.7484L57.6104 60.7436L63.7671 60.7557L63.7669 2.25008L66.0176 0.000150591L245.877 0L248.148 2.25007L224.679 31.5028L222.492 33.7532L106.521 33.753L104.271 36.0034ZM63.7679 109.854L63.768 155.254L66.0185 157.504L213.502 157.504L215.812 155.254L239.62 126.001L237.399 123.751L106.522 123.751L104.271 121.501L104.272 109.854L63.7679 109.854Z" transform="translate(34.8105 202.313) rotate(-30)" fill="white"/>
</g>
</svg>
