<?xml version="1.0" standalone="no"?>
<!DOCTYPE svg PUBLIC "-//W3C//DTD SVG 20010904//EN"
 "http://www.w3.org/TR/2001/REC-SVG-20010904/DTD/svg10.dtd">
<svg version="1.0" xmlns="http://www.w3.org/2000/svg"
 width="251.000000pt" height="251.000000pt" viewBox="0 0 251.000000 251.000000"
 preserveAspectRatio="xMidYMid meet">
<metadata>
Created by potrace 1.11, written by Peter Selinger 2001-2013
</metadata>
<g transform="translate(0.000000,251.000000) scale(0.100000,-0.100000)"
fill="#000000" stroke="none">
<path d="M1080 2465 c-8 -2 -49 -9 -90 -15 -183 -30 -398 -130 -549 -254 -83
-69 -199 -201 -256 -291 -67 -106 -144 -295 -159 -390 -4 -22 -10 -62 -15 -89
-13 -79 -11 -284 5 -371 20 -117 52 -219 96 -313 169 -358 502 -614 891 -685
99 -19 319 -19 420 -1 404 72 754 353 908 729 33 82 62 173 74 236 4 22 13
101 20 179 3 36 8 83 10 105 2 22 7 69 10 105 3 36 8 81 10 100 2 19 7 64 10
100 3 36 8 83 10 105 2 22 7 72 10 110 4 39 11 102 15 140 10 86 5 185 -11
233 -31 96 -116 190 -219 240 l-55 27 -560 1 c-308 1 -567 0 -575 -1z m233
-528 c49 -21 71 -58 64 -104 -12 -69 -43 -84 -152 -69 -106 13 -145 -19 -149
-123 -4 -71 -7 -69 112 -69 93 0 124 -13 139 -59 18 -50 -2 -103 -44 -122 -13
-6 -65 -11 -116 -11 l-92 0 0 -327 c0 -372 -1 -377 -72 -402 -33 -12 -46 -12
-71 -2 -66 27 -66 30 -67 399 l0 332 -66 0 c-60 0 -70 3 -98 29 -42 40 -43 90
-2 132 16 16 35 29 43 30 7 0 38 1 68 2 l54 2 2 76 c4 162 87 260 248 293 74
16 151 13 199 -7z m339 -44 c24 -24 31 -107 12 -144 -15 -29 -39 -39 -101 -39
-86 0 -115 33 -107 121 7 71 35 89 128 84 32 -2 55 -10 68 -22z m-32 -320 c16
-9 33 -27 39 -40 7 -16 11 -157 11 -423 l0 -400 -29 -32 c-25 -28 -36 -33 -75
-33 -36 0 -51 6 -73 28 l-28 27 -3 402 c-2 269 1 411 8 428 22 54 96 75 150
43z"/>
</g>
</svg>
