<?xml version="1.0" encoding="UTF-8" standalone="no"?>
<!DOCTYPE svg PUBLIC "-//W3C//DTD SVG 1.1//EN" "http://www.w3.org/Graphics/SVG/1.1/DTD/svg11.dtd">
<svg version="1.1" xmlns="http://www.w3.org/2000/svg" xmlns:xlink="http://www.w3.org/1999/xlink" preserveAspectRatio="xMidYMid meet" viewBox="234.3604514603829 161.55014108136962 201.06538549531004 210.36670174635853" width="197.07" height="206.37"><defs><path d="M365.4 162.79L368.34 163.09L371.25 163.5L374.12 164.03L376.95 164.67L379.74 165.42L382.48 166.27L385.18 167.23L387.82 168.28L390.41 169.44L392.95 170.69L395.43 172.04L397.86 173.48L400.22 175.01L402.51 176.63L404.75 178.33L406.91 180.12L409 181.98L411.02 183.93L412.96 185.95L414.83 188.04L416.61 190.2L418.31 192.44L419.93 194.74L421.46 197.1L422.9 199.53L424.25 202.01L425.51 204.55L426.67 207.15L427.73 209.8L428.68 212.5L429.54 215.24L430.29 218.04L430.93 220.87L431.46 223.75L431.88 226.66L432.18 229.61L432.36 232.6L432.43 235.61L432.4 237.66L432.31 239.69L432.18 241.7L431.98 243.7L431.74 245.68L431.44 247.65L431.09 249.6L430.68 251.53L430.23 253.44L429.73 255.33L429.18 257.2L428.58 259.05L427.93 260.88L427.24 262.69L426.5 264.47L425.71 266.22L424.88 267.96L424.01 269.66L423.09 271.35L422.13 273L421.13 274.63L420.08 276.22L419 277.79L417.88 279.33L416.72 280.84L415.52 282.31L414.28 283.76L413.01 285.17L411.7 286.54L410.35 287.89L408.97 289.19L407.56 290.46L406.12 291.7L404.64 292.9L403.13 294.06L401.59 295.18L400.02 296.26L398.42 297.3L396.79 298.3L395.14 299.26L395.01 299.35L394.87 299.44L394.72 299.54L394.57 299.65L394.41 299.76L394.24 299.87L394.07 299.98L393.9 300.1L393.73 300.22L393.55 300.34L393.36 300.46L393.18 300.59L392.99 300.71L392.81 300.84L392.62 300.97L392.43 301.09L392.25 301.22L392.06 301.34L391.88 301.47L391.7 301.59L391.52 301.71L391.34 301.82L391.17 301.94L391.01 302.05L390.85 302.16L390.69 302.26L390.54 302.36L390.4 302.46L390.27 302.55L390.14 302.63L390.02 302.71L389.91 302.79L389.81 302.85L389.72 302.91L389.64 302.97L389.58 303.01L389.48 303.08L389.43 303.11L389.06 303.35L388.54 303.69L387.88 304.12L387.08 304.64L386.17 305.25L385.12 305.93L383.97 306.69L382.71 307.52L381.34 308.42L379.88 309.38L378.34 310.4L376.71 311.47L375 312.59L373.23 313.75L371.4 314.96L369.5 316.2L367.56 317.47L365.58 318.77L363.56 320.09L361.51 321.43L359.44 322.78L357.35 324.14L355.25 325.51L353.14 326.88L351.04 328.24L348.95 329.6L346.87 330.94L344.81 332.27L342.79 333.57L340.79 334.85L338.84 336.1L336.94 337.31L335.09 338.48L333.3 339.61L331.58 340.7L329.94 341.73L328.37 342.7L326.89 343.61L325.51 344.46L324.22 345.23L323.65 345.57L323.11 345.87L322.59 346.15L322.1 346.4L321.63 346.62L321.19 346.81L320.78 346.98L320.38 347.12L320.02 347.24L319.67 347.33L319.35 347.39L319.05 347.43L318.78 347.45L318.53 347.44L318.3 347.41L318.1 347.35L317.92 347.27L317.76 347.17L317.62 347.04L317.5 346.89L317.41 346.72L317.34 346.53L317.28 346.32L317.25 346.08L317.24 345.83L317.25 345.55L317.28 345.26L317.33 344.94L317.4 344.61L317.49 344.26L317.6 343.89L317.72 343.5L317.87 343.09L318.03 342.67L318.21 342.22L318.41 341.76L318.63 341.29L318.87 340.8L319.12 340.29L319.39 339.77L319.83 338.92L320.3 338.05L320.78 337.15L321.29 336.23L321.81 335.28L322.34 334.32L322.89 333.34L323.45 332.35L324.02 331.34L324.6 330.33L325.19 329.31L325.78 328.29L326.37 327.27L326.96 326.25L327.56 325.24L328.15 324.23L328.74 323.23L329.32 322.25L329.89 321.28L330.46 320.33L331.01 319.4L331.55 318.49L332.08 317.61L332.59 316.76L333.09 315.94L333.56 315.15L334.01 314.4L334.44 313.69L334.85 313.02L335.23 312.4L335.58 311.82L335.9 311.29L336.2 310.81L336.45 310.39L336.68 310.03L336.86 309.72L337.01 309.48L337.12 309.31L337.18 309.2L337.2 309.16L337.21 309.16L337.22 309.14L337.23 309.1L337.25 309.05L337.27 308.99L337.29 308.92L337.32 308.84L337.35 308.75L337.39 308.65L337.42 308.54L337.46 308.42L337.49 308.3L337.53 308.17L337.56 308.04L337.6 307.9L337.63 307.76L337.66 307.61L337.68 307.47L337.71 307.32L337.73 307.18L337.75 307.03L337.76 306.89L337.76 306.74L337.76 306.6L337.76 306.47L337.74 306.34L337.72 306.21L337.7 306.09L337.66 305.98L337.62 305.87L337.56 305.77L337.5 305.69L337.42 305.61L337.34 305.54L337.24 305.48L337.13 305.44L337.01 305.41L336.88 305.39L336.73 305.39L336.57 305.41L336.4 305.44L336.23 305.48L336.05 305.53L335.86 305.59L335.67 305.66L335.47 305.75L335.26 305.84L335.05 305.94L334.84 306.04L334.62 306.16L334.4 306.28L334.18 306.4L333.96 306.53L333.73 306.66L333.51 306.8L333.29 306.94L333.07 307.08L332.85 307.23L332.63 307.37L332.42 307.52L332.21 307.66L332.01 307.8L331.81 307.95L331.62 308.08L331.43 308.22L331.25 308.35L331.08 308.48L330.92 308.6L330.77 308.72L330.63 308.82L330.49 308.93L330.37 309.02L330.26 309.11L330.17 309.18L330.08 309.25L330.01 309.3L329.96 309.35L329.92 309.38L329.89 309.4L329.88 309.41L243.69 366.85L243.68 366.86L243.64 366.88L243.58 366.91L243.5 366.96L243.39 367.01L243.27 367.08L243.13 367.15L242.97 367.23L242.79 367.32L242.6 367.41L242.4 367.51L242.18 367.61L241.95 367.71L241.71 367.82L241.46 367.92L241.2 368.03L240.93 368.13L240.66 368.24L240.38 368.33L240.1 368.43L239.82 368.52L239.54 368.6L239.25 368.67L238.97 368.74L238.69 368.8L238.41 368.85L238.13 368.88L237.87 368.91L237.6 368.92L237.35 368.91L237.1 368.89L236.87 368.86L236.65 368.81L236.43 368.74L236.24 368.65L236.05 368.54L235.89 368.41L235.74 368.25L235.6 368.08L235.49 367.88L235.43 367.72L235.39 367.54L235.37 367.33L235.36 367.1L235.37 366.85L235.39 366.58L235.43 366.3L235.49 366L235.55 365.68L235.63 365.35L235.71 365.02L235.81 364.67L235.92 364.31L236.03 363.95L236.15 363.58L236.28 363.2L236.41 362.83L236.54 362.45L236.68 362.08L236.83 361.71L236.97 361.34L237.12 360.97L237.26 360.61L237.41 360.26L237.55 359.92L237.69 359.6L237.82 359.28L237.96 358.98L238.08 358.69L238.2 358.42L238.32 358.17L238.42 357.94L238.52 357.73L238.6 357.54L238.68 357.38L238.74 357.25L238.79 357.14L238.83 357.06L238.85 357.01L238.86 357L283.08 285.49L283.09 285.47L283.14 285.39L283.21 285.27L283.32 285.1L283.44 284.88L283.59 284.63L283.77 284.34L283.97 284L284.18 283.64L284.42 283.24L284.67 282.81L284.93 282.35L285.21 281.87L285.51 281.36L285.81 280.83L286.12 280.28L286.45 279.72L286.78 279.14L287.11 278.54L287.45 277.93L287.79 277.32L288.13 276.7L288.47 276.07L288.8 275.45L289.14 274.82L289.46 274.19L289.79 273.57L290.1 272.96L290.4 272.35L290.7 271.76L290.98 271.18L291.24 270.61L291.49 270.06L291.73 269.54L291.94 269.03L292.14 268.55L292.31 268.09L292.46 267.66L292.59 267.26L292.69 266.9L292.7 266.85L292.71 266.81L292.72 266.77L292.73 266.73L292.74 266.69L292.75 266.65L292.76 266.61L292.77 266.57L292.78 266.53L292.79 266.49L292.79 266.46L292.8 266.42L292.81 266.38L292.81 266.35L292.82 266.31L292.82 266.28L292.83 266.25L292.84 266.21L292.84 266.18L292.85 266.15L292.85 266.12L292.85 266.08L292.86 266.05L292.86 266.02L292.86 265.99L292.87 265.96L292.87 265.93L292.87 265.91L292.88 265.88L292.88 265.85L292.88 265.82L292.88 265.79L292.88 265.77L292.88 265.74L292.89 265.71L292.89 265.68L292.89 265.66L292.89 265.63L292.89 265.61L292.89 265.58L292.6 264.85L292.51 264.81L292.41 264.78L292.31 264.77L292.19 264.77L292.07 264.78L291.93 264.81L291.79 264.85L291.64 264.9L291.47 264.96L291.3 265.04L291.12 265.12L290.93 265.22L290.73 265.33L290.52 265.45L290.3 265.58L290.08 265.72L289.84 265.87L289.6 266.03L289.35 266.21L289.09 266.39L288.82 266.58L288.54 266.77L288.26 266.98L287.96 267.2L287.66 267.42L287.35 267.65L287.04 267.89L286.71 268.14L286.38 268.39L286.04 268.65L285.69 268.92L285.34 269.19L284.98 269.47L284.61 269.76L284.23 270.05L283.85 270.35L283.46 270.65L283.06 270.96L282.66 271.27L282.25 271.58L280.43 272.99L278.69 274.34L277.02 275.65L275.42 276.92L273.89 278.13L272.43 279.3L271.03 280.43L269.7 281.5L268.43 282.54L267.22 283.52L266.07 284.46L264.98 285.35L263.94 286.2L262.96 287L262.03 287.76L261.16 288.47L260.33 289.14L259.56 289.76L258.83 290.34L258.14 290.87L257.5 291.36L256.91 291.8L256.35 292.2L255.83 292.55L255.35 292.86L254.91 293.13L254.5 293.35L254.13 293.53L253.78 293.67L253.47 293.76L253.18 293.81L252.93 293.81L252.69 293.78L252.49 293.7L252.3 293.58L252.13 293.41L251.99 293.2L251.86 292.95L251.74 292.66L251.65 292.33L251.62 292.22L251.6 292.1L251.59 291.97L251.58 291.84L251.58 291.69L251.58 291.54L251.59 291.38L251.6 291.21L251.62 291.04L251.64 290.87L251.67 290.69L251.7 290.5L251.73 290.31L251.76 290.13L251.8 289.93L251.84 289.74L251.88 289.55L251.92 289.36L251.97 289.17L252.01 288.98L252.06 288.8L252.11 288.62L252.15 288.44L252.2 288.26L252.24 288.1L252.29 287.93L252.33 287.78L252.38 287.63L252.42 287.49L252.46 287.36L252.49 287.24L252.53 287.12L252.56 287.02L252.59 286.93L252.61 286.85L252.63 286.79L252.65 286.73L252.66 286.7L252.67 286.67L291.37 209.11L292.2 207.08L293.08 205.09L294.02 203.12L295.02 201.19L296.07 199.29L297.17 197.43L298.33 195.6L299.54 193.81L300.8 192.06L302.12 190.35L303.48 188.67L304.88 187.04L306.34 185.46L307.84 183.91L309.38 182.41L310.97 180.96L312.6 179.55L314.28 178.19L315.99 176.88L317.74 175.62L319.53 174.41L321.36 173.25L323.23 172.15L325.12 171.1L327.06 170.1L329.02 169.16L331.02 168.28L333.05 167.46L335.11 166.7L337.2 166L339.31 165.36L341.45 164.78L343.62 164.26L345.81 163.82L348.02 163.43L350.26 163.12L352.52 162.87L354.8 162.69L357.1 162.59L359.41 162.55L362.42 162.61L365.4 162.79ZM332.03 275.44L345.21 275.44L345.21 242.84L378.93 242.84L378.93 232.25L345.21 232.25L345.21 211.89L383.62 211.89L383.62 200.77L332.03 200.77L332.03 275.44Z" id="g255Y9zzSH"></path></defs><g><g><use xlink:href="#g255Y9zzSH" opacity="1" fill="#ffffff" fill-opacity="1"></use><g><use xlink:href="#g255Y9zzSH" opacity="1" fill-opacity="0" stroke="#000000" stroke-width="1" stroke-opacity="0"></use></g></g></g></svg>