<?xml version="1.0" encoding="UTF-8"?> <svg xmlns="http://www.w3.org/2000/svg" viewBox="0 0 642.12 208.82"><defs><style>.cls-1{fill:#fe4f4b;}.cls-2{fill:#fff;}</style></defs><title>fluz logo svg</title><g id="Layer_2" data-name="Layer 2"><g id="Layer_1-2" data-name="Layer 1"><path class="cls-1" d="M104.45,0A104.52,104.52,0,0,0,2.6,127.69c7.65,35.38,43.23,70.87,78.52,78.49A104.48,104.48,0,0,0,208.79,104.48h0A104.37,104.37,0,0,0,104.53,0Z"></path><path class="cls-1" d="M376.34,193.58h-32.5c-1.92,0-2.74-.82-2.74-2.76V57a2.21,2.21,0,0,0-2.48-2.48H316.86c-10.46,0-17.36,6.06-17.36,15.68v4.13c0,1.92.84,2.76,3,2.76h17.91c1.92,0,2.74.82,2.74,2.74v28.92c0,1.92-.82,2.76-2.74,2.76H302.53c-2.21,0-3,.82-3,2.74v76.55c0,1.95-.82,2.76-2.76,2.76H264.26c-1.92,0-2.76-.82-2.76-2.76V114.27c0-1.92-.53-2.74-3-2.74h-6.32c-1.66,0-5.35,0-6.21-2.76l-8.14-28.92a2.48,2.48,0,0,1,2.76-2.74h17.91c2.21,0,3-.84,3-2.76V70.75c0-22.29,15.48-50.66,56.18-50.66h58.66a2.45,2.45,0,0,1,2.74,2.74v168a2.45,2.45,0,0,1-2.74,2.7Z"></path><path class="cls-1" d="M508.28,193.58H482.12c-1.92,0-2.48-.82-2.74-2.21l-1.11-4.67a1.72,1.72,0,0,0-2.36-.63l-.12.08a41.77,41.77,0,0,1-23.68,7.43c-31.66,0-51.5-18.73-51.5-48.64V68.27a2.45,2.45,0,0,1,2.74-2.74h33.06a2.45,2.45,0,0,1,2.74,2.74v76.57c0,9.09,6.63,15.68,16.54,15.68S473,153.89,473,144.85V68.27a2.48,2.48,0,0,1,2.76-2.74h32.48A2.48,2.48,0,0,1,511,68.27V190.81a2.48,2.48,0,0,1-2.76,2.76Z"></path><path class="cls-1" d="M639.4,193.58H529.79c-2.74,0-3.85-1.92-2.48-4.13L578,104.07c1.37-2.21.55-3.85-2.21-3.85H531.72A2.48,2.48,0,0,1,529,97.46V68.56a2.48,2.48,0,0,1,2.74-2.76H639.13a2.61,2.61,0,0,1,2.48,4.13L590.93,155.3c-1.37,2.21-.55,3.85,2.21,3.85H639.4c1.92,0,2.48.82,2.48,2.76v28.9C641.87,192.76,641.06,193.58,639.4,193.58Z"></path><path class="cls-2" d="M104.33,179.4c-9-41.35-30-69.47-75.84-73.74C74.92,101,97.63,73.75,104.33,29.42c7,44.07,30.69,70.31,76,76.08C134.36,109.53,111.71,136,104.33,179.4Z"></path></g></g></svg> 