<?xml version="1.0" encoding="UTF-8"?>
<svg width="700px" height="200px" viewBox="0 0 700 200" version="1.1" xmlns="http://www.w3.org/2000/svg" xmlns:xlink="http://www.w3.org/1999/xlink">
    <!-- Generator: Sketch 53.2 (72643) - https://sketchapp.com -->
    <title>logoType_horizontal_small_flat</title>
    <desc>Created with Sketch.</desc>
    <g id="logoType_horizontal_small_flat" stroke="none" stroke-width="1" fill="none" fill-rule="evenodd">
        <g id="logo/el/mark" transform="translate(30.000000, 30.000000)">
            <g id="standard">
                <polygon id="Fill-17" fill="#E0592A" points="0 69.4166667 55.4166667 69.4166667 51.0627064 39.0833333 0 39.0833333"></polygon>
                <polygon id="Fill-17-Copy" fill="#E0592A" transform="translate(112.291667, 54.250000) scale(-1, 1) translate(-112.291667, -54.250000) " points="84.5833333 69.4166667 140 69.4166667 135.64604 39.0833333 84.5833333 39.0833333"></polygon>
                <polygon id="Fill-19" fill="#E0592A" points="0 30.3333333 65.3333333 30.3333333 65.3333333 0 0 0"></polygon>
                <polygon id="Fill-19-Copy" fill="#E0592A" points="74.6666667 30.3333333 140 30.3333333 140 0 74.6666667 0"></polygon>
                <polygon id="Fill-21" fill="#535759" points="140 140 100.333333 140 109.008351 78.75 140 78.75"></polygon>
                <polygon id="Fill-21-Copy" fill="#535759" transform="translate(19.833333, 109.375000) scale(-1, 1) translate(-19.833333, -109.375000) " points="39.6666667 140 0 140 8.67501747 78.75 39.6666667 78.75"></polygon>
            </g>
        </g>
        <g id="logo/el/enWords" transform="translate(190.000000, 30.000000)" fill="#535759">
            <g id="Group" transform="translate(0.000000, 2.000000)">
                <polygon id="Fill-30" points="0.195938361 61.4957805 14.2263496 61.4957805 14.2263496 36.1808392 47.8199816 36.1808392 47.8199816 25.6315336 14.2263496 25.6315336 14.2263496 10.8658978 49.6862945 10.8658978 49.6862945 0.316592236 0.195938361 0.316592236"></polygon>
                <path d="M100.719665,47.2491299 C100.491887,48.2294351 96.5131136,51.1635668 94.6835391,51.8758993 C94.6468007,51.8894675 94.5659761,51.913212 94.4153485,51.913212 L75.7558935,51.913212 C75.6052658,51.913212 75.5244413,51.8894675 75.4436167,51.858939 C73.9006021,51.2992492 69.657312,48.1751622 69.3303398,47.2966187 L69.326666,15.7267193 C69.5581182,14.7328459 73.7279314,11.5884065 75.4877028,10.9032105 C75.5170936,10.8896422 75.601592,10.8658978 75.7558935,10.8658978 L94.4153485,10.8658978 C94.56965,10.8658978 94.6541484,10.8896422 94.6798653,10.8998184 C96.1163384,11.4595083 99.5256659,13.8509103 100.671905,15.4723149 C100.682927,15.4926672 100.715991,15.5571164 100.715991,15.6758384 L100.719665,47.2491299 Z M102.946015,2.15508858 C100.914379,1.26636895 97.707113,0.316592236 94.7900806,0.316592236 L75.1313399,0.316592236 C72.7323196,0.316592236 69.7307889,1.00518035 67.0562302,2.17544094 C64.3081947,3.46103156 59.017859,7.58238406 57.3793244,9.49889778 C56.0016328,11.0626373 55.3036024,13.0741287 55.3036024,15.482491 L55.3036024,47.3915964 C55.3036024,49.7999588 56.0016328,51.8148422 57.364629,53.3616214 C58.9590775,55.2238622 64.2420655,59.2841576 67.1003164,60.6240212 C69.7307889,61.7739294 72.7323196,62.4625175 75.1313399,62.4625175 L94.7900806,62.4625175 C97.707113,62.4625175 100.918053,61.5127408 102.993775,60.6002768 C105.701398,59.3350385 110.910909,55.2781352 112.549444,53.3684056 C113.985917,51.7368249 114.746403,49.6710605 114.746403,47.3915964 L114.746403,15.482491 C114.746403,13.1996349 113.982243,11.1304785 112.527401,9.48193748 C111.03582,7.83678854 105.866721,3.52208863 102.946015,2.15508858 L102.946015,2.15508858 Z" id="Fill-31"></path>
                <path d="M167.021533,23.5827295 C166.165527,24.7055013 163.130932,26.7000324 161.984692,26.7000324 L139.137055,26.7000324 L139.137055,10.8658978 L162.576181,10.8658978 C163.531381,11.1067341 166.180222,13.1623222 167.02888,14.2002925 C167.043576,14.3902478 167.036228,14.6242999 167.036228,14.7091014 L167.036228,23.0501762 C167.036228,23.1417618 167.043576,23.3893821 167.021533,23.5827295 M171.55873,35.030931 C173.483825,33.955648 177.517706,30.8078167 178.645576,29.4849134 C180.25472,27.5480473 181.066639,25.4483624 181.066639,23.2435236 L181.066639,14.515754 C181.066639,12.3075232 180.20696,10.0585876 178.630881,8.15903421 C177.517706,6.85648329 173.483825,3.70525985 171.566078,2.63676105 C169.023778,1.20531187 165.401367,0.316592236 162.105929,0.316592236 L125.106644,0.316592236 L125.106644,61.4957805 L139.137055,61.4957805 L139.137055,37.2459459 L153.277681,37.2459459 L170.820288,61.4957805 L186.331258,61.4957805 L167.796714,36.5573578 C169.145015,36.1876233 170.500663,35.6482858 171.55873,35.030931" id="Fill-32"></path>
                <polygon id="Fill-33" points="229.678947 30.1395809 210.96071 0.316592236 194.909685 0.316592236 194.909685 61.4957805 208.818859 61.4957805 208.818859 20.2788634 224.987448 46.4621721 234.105929 46.4621721 250.528013 20.2042381 250.528013 61.4957805 264.308603 61.4957805 264.308603 0.316592236 248.514746 0.316592236"></polygon>
                <path d="M317.480151,47.2491299 C317.252373,48.2294351 313.273599,51.1635668 311.444025,51.8758993 C311.407286,51.8894675 311.326462,51.913212 311.175834,51.913212 L292.516379,51.913212 C292.365752,51.913212 292.284927,51.8894675 292.204102,51.858939 C290.661088,51.2992492 286.417798,48.1751622 286.090826,47.2966187 L286.087152,15.7267193 C286.318604,14.7328459 290.488417,11.5884065 292.248189,10.9032105 C292.277579,10.8896422 292.362078,10.8658978 292.516379,10.8658978 L311.175834,10.8658978 C311.330136,10.8658978 311.414634,10.8896422 311.440351,10.8998184 C312.876824,11.4595083 316.286152,13.8509103 317.432391,15.4723149 C317.443413,15.4926672 317.476477,15.5571164 317.476477,15.6758384 L317.480151,47.2491299 Z M319.706501,2.15508858 C317.674865,1.26636895 314.467599,0.316592236 311.550566,0.316592236 L291.891826,0.316592236 C289.492805,0.316592236 286.491275,1.00518035 283.816716,2.17544094 C281.06868,3.46103156 275.778345,7.58238406 274.13981,9.49889778 C272.762119,11.0626373 272.060414,13.0741287 272.060414,15.482491 L272.060414,47.3915964 C272.060414,49.7999588 272.762119,51.8148422 274.125115,53.3616214 C275.719563,55.2238622 281.002551,59.2841576 283.860802,60.6240212 C286.491275,61.7739294 289.492805,62.4625175 291.891826,62.4625175 L311.550566,62.4625175 C314.467599,62.4625175 317.678539,61.5127408 319.754261,60.6002768 C322.461884,59.3350385 327.671395,55.2781352 329.30993,53.3684056 C330.746403,51.7368249 331.506888,49.6710605 331.506888,47.3915964 L331.506888,15.482491 C331.506888,13.1996349 330.742729,11.1304785 329.287887,9.48193748 C327.796306,7.83678854 322.627207,3.52208863 319.706501,2.15508858 L319.706501,2.15508858 Z" id="Fill-34"></path>
                <path d="M364.446576,10.9506993 L364.534748,10.9269549 C364.751505,10.8692899 364.751505,10.8692899 364.836004,10.8692899 L382.128789,10.8692899 C382.194918,10.8692899 382.253699,10.8726819 382.301459,10.876074 C383.93632,11.6223271 387.250128,13.8102056 388.381672,15.5740767 L390.336157,18.6201462 L403.962445,15.5672925 L403.029289,13.9865927 C401.376059,11.1949276 400.365752,9.77365461 399.333401,8.76621289 C393.892438,3.15913824 388.22737,0.316592236 382.503521,0.316592236 L364.21145,0.316592236 C361.81243,0.316592236 358.810899,1.00518035 356.13634,2.178833 C353.388305,3.46442361 348.097969,7.58577612 346.459435,9.49889778 C345.081743,11.0660293 344.380039,13.0775207 344.380039,15.4858831 L344.380039,21.4016352 C344.380039,25.8588016 347.594653,31.3064494 354.652107,32.7412907 L388.510256,39.5321941 C389.076028,39.6441321 389.921012,40.4684026 389.921012,41.3808667 L389.924686,47.2457378 C389.682212,48.2158669 385.622615,51.1533906 383.620369,51.916604 L363.715481,51.916604 C363.553832,51.916604 363.546484,51.916604 363.495051,51.8996437 C361.852842,51.2178397 358.575773,48.9892565 357.212777,47.1168396 L355.397898,44.2844697 L341.863455,47.0897031 L342.814981,48.7009314 C344.269823,51.1567826 345.232371,52.7815792 346.385958,54.019681 C351.826921,59.6233636 357.532401,62.4659096 363.340749,62.4659096 L384.120012,62.4659096 C386.519033,62.4659096 389.524237,61.7773215 392.195122,60.6036688 C395.005613,59.2909417 400.273906,55.2408225 401.879375,53.3717976 C403.253393,51.8114502 403.951424,49.7999588 403.951424,47.3949885 L403.951424,40.8008245 C403.951424,35.6109732 399.531789,30.9265387 393.444229,29.6613005 L359.699969,22.6702655 C359.17461,22.5685037 358.41045,21.8731315 358.41045,21.0149404 L358.395755,15.5978211 C358.730074,14.6242999 362.84478,11.5816224 364.446576,10.9506993" id="Fill-35"></path>
                <path d="M453.673232,38.046472 L433.140116,38.046472 L443.408511,14.5768111 L453.673232,38.046472 Z M451.487295,0.316592236 L435.329728,0.316592236 L407.992652,61.4957805 L422.875395,61.4957805 L428.599245,48.4974079 L458.206756,48.4974079 L463.805694,61.4957805 L478.82437,61.4957805 L451.487295,0.316592236 Z" id="Fill-36"></path>
            </g>
            <g id="Group-2" transform="translate(0.000000, 74.000000)">
                <polygon id="Fill-37" points="0.196758187 62.3898317 13.0942573 62.3898317 13.0942573 37.4619031 43.4638835 37.4619031 43.4638835 26.8956372 13.0942573 26.8956372 13.0942573 12.5339746 45.1498552 12.5339746 45.1498552 1.96770869 0.196758187 1.96770869"></polygon>
                <polygon id="Fill-38" points="55.5349982 62.3898317 68.4288082 62.3898317 68.4288082 1.96770869 55.5349982 1.96770869"></polygon>
                <polygon id="Fill-39" points="120.391416 41.5763655 95.2014487 1.96770869 81.3595103 1.96770869 81.3595103 62.3861216 94.1426437 62.3861216 94.1426437 23.1521814 119.565031 62.3861216 133.174549 62.3861216 133.174549 1.96770869 120.391416 1.96770869"></polygon>
                <path d="M181.687739,39.1203023 L163.422431,39.1203023 L172.553241,16.3813123 L181.687739,39.1203023 Z M165.174809,1.96770869 L140.386966,62.3898317 L154.066579,62.3898317 L159.242549,49.5938166 L185.856554,49.5938166 L190.918158,62.3898317 L204.723204,62.3898317 L179.931673,1.96770869 L165.174809,1.96770869 Z" id="Fill-40"></path>
                <polygon id="Fill-41" points="253.203192 41.5763655 228.013225 1.96770869 214.171286 1.96770869 214.171286 62.3861216 226.95442 62.3861216 226.95442 23.1521814 252.376807 62.3861216 265.986325 62.3861216 265.986325 1.96770869 253.203192 1.96770869"></polygon>
                <path d="M289.910891,17.0528341 C291.157846,15.342494 294.120286,13.0570938 295.297146,12.559945 C295.300835,12.556235 295.359863,12.5339746 295.485296,12.5339746 L309.544898,12.5339746 C309.611304,12.5339746 309.692467,12.5413947 309.766251,12.5488148 C312.245405,13.9029887 315.159885,16.4332532 316.133838,18.8373755 L316.698288,20.2360701 L329.433462,17.1270354 L328.533293,15.4797664 C327.035472,12.7194778 326.116857,11.309653 325.183485,10.3190656 C320.239936,4.7762281 315.093479,1.96770869 309.880617,1.96770869 L294.920846,1.96770869 C292.73683,1.96770869 290.003121,2.64665064 287.56455,3.81161113 C284.952585,5.14352456 280.263591,9.40638956 278.898581,11.0462384 C277.563085,12.6935074 276.887958,14.663552 276.887958,16.8970113 L276.887958,48.4140158 C276.887958,50.6771556 277.581531,52.7325318 278.883824,54.33899 C280.381646,56.2459636 285.033747,60.2083133 287.60882,61.5179663 C289.453428,62.4009619 292.375287,63.3433184 295.035212,63.3433184 L309.880617,63.3433184 C316.417908,63.3433184 321.475823,58.8986603 325.146593,55.0253521 L325.16135,55.0105119 C326.814119,53.2259705 328.013114,50.8812092 328.577564,49.6457575 L329.326475,48.0170388 L316.701978,45.2048093 L316.137527,46.5552731 C315.122993,48.9890759 312.035119,51.7345242 309.899063,52.7288217 C309.847414,52.743662 309.692467,52.7770526 309.544898,52.7770526 L295.485296,52.7770526 C295.363552,52.7770526 295.304525,52.7547922 295.293457,52.7510821 C293.67758,52.06472 290.124865,49.2153899 289.896134,48.3175541 L289.896134,17.5648231 C289.896134,17.4052903 289.896134,17.1789763 289.910891,17.0528341" id="Fill-42"></path>
                <polygon id="Fill-43" points="339.60463 62.3898317 352.49844 62.3898317 352.49844 1.96770869 339.60463 1.96770869"></polygon>
                <path d="M403.0407,39.1203023 L384.775391,39.1203023 L393.906201,16.3813123 L403.0407,39.1203023 Z M386.527769,1.96770869 L361.739926,62.3898317 L375.419539,62.3898317 L380.595509,49.5938166 L407.209514,49.5938166 L412.271118,62.3898317 L426.076164,62.3898317 L401.284633,1.96770869 L386.527769,1.96770869 Z" id="Fill-44"></path>
                <polygon id="Fill-45" points="448.421746 51.8235658 448.421746 1.96770869 435.524247 1.96770869 435.524247 62.3898317 479.916583 62.3898317 479.916583 51.8235658"></polygon>
            </g>
        </g>
    </g>
</svg>