<?xml version="1.0" standalone="no"?>
<!DOCTYPE svg PUBLIC "-//W3C//DTD SVG 20010904//EN"
 "http://www.w3.org/TR/2001/REC-SVG-20010904/DTD/svg10.dtd">
<svg version="1.0" xmlns="http://www.w3.org/2000/svg"
 width="1008.000000pt" height="1008.000000pt" viewBox="0 0 1008.000000 1008.000000"
 preserveAspectRatio="xMidYMid meet">
<metadata>
Created by potrace 1.11, written by Peter Selinger 2001-2013
</metadata>
<g transform="translate(0.000000,1008.000000) scale(0.100000,-0.100000)"
fill="#000000" stroke="none">
<path d="M4468 9299 l-618 -310 0 -630 c0 -622 0 -629 -20 -629 -11 0 -170 76
-352 169 -183 92 -461 232 -617 311 l-284 142 -621 -312 c-341 -172 -623 -314
-625 -316 -2 -2 278 -143 623 -314 l626 -312 -4 -1161 c-2 -639 -4 -1163 -5
-1164 -1 -2 -102 49 -226 112 -124 63 -231 115 -238 115 -19 -1 -759 -375
-759 -385 0 -5 274 -146 608 -314 519 -262 609 -310 614 -331 4 -14 7 -531 8
-1148 0 -618 2 -1126 5 -1128 2 -3 62 26 133 64 147 79 537 282 887 462 l237
122 0 505 c0 353 3 504 11 501 6 -2 289 -143 629 -313 l620 -310 0 -1167 c0
-643 3 -1168 7 -1168 10 0 277 142 283 150 3 4 219 116 480 248 l475 240 3
641 2 640 43 -18 c23 -10 310 -152 637 -314 l596 -296 464 235 c256 129 531
267 612 307 l147 72 2 1153 c1 633 2 1157 3 1163 1 14 -209 128 -642 347 -50
25 -91 51 -89 56 2 5 166 93 365 195 l362 186 0 1165 0 1166 -602 301 -601
300 -621 -303 c-342 -166 -633 -306 -648 -309 l-28 -7 0 633 c0 349 -4 639 -8
644 -4 6 -86 49 -182 97 -96 48 -375 186 -619 307 -244 122 -447 221 -450 220
-3 0 -284 -140 -623 -310z m-44 -3126 c314 -158 595 -298 623 -312 l53 -26 0
-105 c2 -138 2 -165 1 -1277 l-1 -953 -630 315 -630 315 -2 236 -3 236 -397
202 c-219 110 -398 204 -398 207 0 4 84 50 188 102 103 53 257 132 342 177 85
44 181 93 213 108 l57 27 0 517 c0 285 3 518 7 518 4 0 263 -129 577 -287z
m2047 -809 c109 -48 138 -63 444 -219 253 -129 248 -126 238 -135 -21 -19
-776 -410 -792 -410 -8 0 -11 114 -11 405 0 223 4 405 9 405 5 0 55 -21 112
-46z"/>
</g>
</svg>
