<?xml version="1.0" encoding="utf-8" ?>
<svg xmlns="http://www.w3.org/2000/svg" xmlns:xlink="http://www.w3.org/1999/xlink" width="189" height="40">
	<defs>
		<clipPath id="clip_0">
			<rect x="-197" y="-23" width="1440" height="4280" clip-rule="evenodd"/>
		</clipPath>
	</defs>
	<g clip-path="url(#clip_0)">
		<path fill="rgb(255,255,255)" stroke="none" transform="translate(79.5848 10.5981)" d="M20.3961 0.199966C18.1965 8.1986 15.597 15.5973 12.7976 22.1962C12.1977 23.396 11.5978 24.3958 11.1979 25.3957C10.598 26.1955 9.99809 26.9954 9.19824 27.5953C8.39839 28.1952 7.59855 28.5951 6.7987 28.7951C5.99885 28.995 4.99904 29.195 3.79927 29.195C2.99943 29.195 2.19958 29.195 1.59969 28.995C0.799847 28.7951 0.199962 28.5951 0 28.3951L0.799847 24.3958C1.79966 24.7958 2.79946 24.9957 3.79927 24.9957C4.99904 24.9957 5.99885 24.5958 6.7987 23.9959C7.59855 23.396 8.19843 22.3962 8.79832 21.1964C7.19862 18.1969 5.79889 14.9974 4.39916 11.3981C2.99943 7.79867 1.59969 4.19928 0.599885 0.199966L5.79889 0.199966C5.99885 1.39976 6.39878 2.59956 6.7987 3.99932C7.19862 5.39908 7.59855 6.59887 7.99847 7.99863C8.39839 9.39839 8.99828 10.7982 9.3982 11.9979C9.99809 13.3977 10.398 14.5975 10.9979 15.7973C11.7977 13.3977 12.5976 10.7982 13.3974 7.99863C14.1973 5.19911 14.7972 2.59956 15.3971 0L20.3961 0L20.3961 0.199966Z"/>
	</g>
	<defs>
		<clipPath id="clip_1">
			<rect x="-197" y="-23" width="1440" height="4280" clip-rule="evenodd"/>
		</clipPath>
	</defs>
	<g clip-path="url(#clip_1)">
		<path fill="rgb(255,255,255)" stroke="none" transform="translate(104.58 10.1982)" d="M19.1963 11.1981C19.1963 12.7978 18.9964 14.3975 18.5964 15.5973C18.1965 16.9971 17.5966 18.1969 16.7968 19.1967C15.9969 20.1965 14.9971 20.9964 13.7974 21.3963C12.5976 21.9962 11.1979 22.1962 9.79813 22.1962C8.79832 22.1962 7.79851 21.9962 6.99866 21.7963C6.19881 21.5963 5.39897 21.1964 4.99904 20.9964L4.99904 29.195L0 29.195L0 1.19979C0.999809 0.999829 2.19958 0.599897 3.79927 0.399932C5.19901 0.199966 6.7987 0 8.39839 0C9.99809 0 11.5978 0.199966 12.9975 0.799863C14.3972 1.39976 15.3971 1.99966 16.3969 2.99949C17.3967 3.99932 17.9966 5.19911 18.5964 6.59887C18.9964 7.99863 19.1963 9.59836 19.1963 11.1981M14.1973 11.3981C14.1973 9.19843 13.7974 7.39873 12.7976 6.19894C11.7977 4.99914 10.198 4.39925 7.99847 4.39925C7.59855 4.39925 6.99866 4.39925 6.59874 4.39925C5.99885 4.39925 5.59893 4.59921 5.19901 4.59921L5.19901 16.7971C5.59893 16.9971 6.19881 17.397 6.99866 17.597C7.79851 17.797 8.39839 17.9969 9.3982 17.9969C11.1979 17.9969 12.5976 17.397 13.3974 16.1972C13.7974 14.9974 14.1973 13.3977 14.1973 11.3981"/>
	</g>
	<defs>
		<clipPath id="clip_2">
			<rect x="-197" y="-23" width="1440" height="4280" clip-rule="evenodd"/>
		</clipPath>
	</defs>
	<g clip-path="url(#clip_2)">
		<path fill="rgb(255,255,255)" stroke="none" transform="translate(135.174 9.79834)" d="M17.1967 22.1962L12.1977 22.1962L12.1977 10.3982C12.1977 9.59836 12.1977 8.7985 12.3976 7.99863C12.3976 7.19877 12.5976 6.59887 12.7976 5.79901C12.3976 5.59904 11.9977 5.39908 11.1979 4.99915C10.398 4.79918 9.79813 4.59921 8.99828 4.59921C7.39858 4.59921 6.39878 4.99915 5.79889 5.99897C5.19901 6.9988 4.99904 8.59853 4.99904 10.7982L4.99904 22.1962L0 22.1962L0 10.1983C0 8.7985 0.199962 7.39873 0.399923 6.19894C0.599885 4.99915 0.999809 3.99932 1.59969 2.99949C2.19958 2.19962 2.99943 1.39976 4.1992 0.999829C5.19901 0.599897 6.59874 0.199966 8.19843 0.199966C8.79832 0.199966 9.3982 0.199966 10.198 0.399932C10.7979 0.599897 11.3978 0.799863 11.9977 0.999829C12.5976 1.19979 12.9975 1.39976 13.5974 1.59973C13.9973 1.79969 14.3972 1.99966 14.7972 2.19962C15.3971 1.59973 16.1969 0.999829 17.1967 0.599897C18.1965 0.199966 19.3963 0 20.796 0C22.5957 0 24.1954 0.199966 25.5951 0.399932C27.1948 0.599897 28.3946 0.999829 29.3944 1.19979L29.3944 22.1962L24.3953 22.1962L24.3953 4.99915C23.9954 4.99915 23.5955 4.79918 22.9956 4.79918C22.3957 4.79918 21.7958 4.59921 21.1959 4.59921C19.5963 4.59921 18.5964 4.99915 17.9966 5.99897C17.3967 6.9988 17.1967 8.59853 17.1967 10.7982L17.1967 22.1962L17.1967 22.1962Z"/>
	</g>
	<defs>
		<clipPath id="clip_3">
			<rect x="-197" y="-23" width="1440" height="4280" clip-rule="evenodd"/>
		</clipPath>
	</defs>
	<g clip-path="url(#clip_3)">
		<path fill="rgb(255,255,255)" stroke="none" transform="translate(169.368 9.99829)" d="M0.799847 6.59887C0.199962 7.99863 0 9.79832 0 11.598C0 13.1977 0.199962 14.5975 0.399924 15.9973C0.799847 17.397 1.59969 18.5968 2.39954 19.5966C3.19939 20.5965 4.39916 21.3963 5.79889 21.9962C6.99866 22.5961 8.79832 22.7961 10.598 22.7961C11.3978 22.7961 11.9977 22.5961 12.7976 22.5961C13.5974 22.3962 14.1973 22.3962 14.7972 22.1962C15.3971 21.9962 15.9969 21.9962 16.3969 21.7963C16.9967 21.5963 17.3967 21.5963 17.5966 21.3963L16.9967 17.397C16.3969 17.597 15.597 17.797 14.5972 17.9969C13.5974 18.1969 12.5976 18.3969 11.3978 18.3969C9.3982 18.3969 7.79851 17.9969 6.7987 16.9971C5.79889 15.9973 5.19901 14.7975 4.99904 12.9978L18.9964 12.9978L18.9964 10.9981C18.9964 7.39873 18.1965 4.59921 16.5968 2.79952C14.9971 0.999829 12.7976 0 9.79813 0C8.59836 0 7.39858 0.399932 6.19881 0.799863C4.99904 1.39976 3.99924 1.99966 2.99943 2.99949C1.99962 3.99932 1.39973 5.19911 0.799847 6.59887ZM13.9973 7.39873C14.1973 7.99863 14.1973 8.79849 14.1973 9.39839L5.19901 9.39839C5.19901 8.79849 5.39897 8.1986 5.59893 7.5987C5.99885 6.9988 6.19881 6.3989 6.59874 5.99897C6.99866 5.39908 7.39858 4.99914 7.99847 4.79918C8.59835 4.59921 9.19824 4.39925 9.99809 4.39925C10.598 4.39925 11.1979 4.59921 11.7977 4.79918C12.3976 4.99914 12.7976 5.39908 13.1975 5.79901C13.5974 6.19894 13.7974 6.79884 13.9973 7.39873Z" fill-rule="evenodd"/>
	</g>
	<defs>
		<clipPath id="clip_4">
			<rect x="-197" y="-23" width="1440" height="4280" clip-rule="evenodd"/>
		</clipPath>
	</defs>
	<g clip-path="url(#clip_4)">
		<path fill="rgb(255,255,255)" stroke="none" transform="translate(47.1909 0.399902)" d="M8.79832 0C9.99809 0 10.9979 0.199966 11.7977 0.399932C12.5976 0.599897 13.3974 0.799863 13.7974 0.999829L12.7976 4.99914C12.3976 4.79918 11.7977 4.59921 11.1979 4.39925C10.598 4.19928 9.99809 4.19928 9.19824 4.19928C8.39839 4.19928 7.79851 4.39925 7.19862 4.59921C6.59874 4.79918 6.19881 5.19911 5.79889 5.59904C5.39897 5.99897 5.19901 6.59887 5.19901 6.9988C4.99904 7.5987 4.99904 8.1986 4.99904 8.79849L4.99904 10.1983L12.7976 10.1983L12.7976 14.3975L4.99904 14.3975L4.99904 31.5946L0 31.5946L0 8.79849C0 5.99897 0.799847 3.79935 2.19958 2.39959C3.79927 0.799863 5.99885 0 8.79832 0"/>
	</g>
	<defs>
		<clipPath id="clip_5">
			<rect x="-197" y="-23" width="1440" height="4280" clip-rule="evenodd"/>
		</clipPath>
	</defs>
	<g clip-path="url(#clip_5)">
		<path fill="rgb(255,255,255)" stroke="none" transform="translate(67.3871 0.399902)" d="M7.59855 32.1945C6.19881 32.1945 4.99904 31.9945 3.99924 31.7946C2.99943 31.3946 2.19958 30.9947 1.59969 30.5948C0.999809 29.9949 0.599885 29.395 0.399924 28.5951C0.199962 27.7952 0 26.7954 0 25.7956L0 0.799863L4.99904 0L4.99904 24.3958C4.99904 24.9957 4.99904 25.3957 5.19901 25.9956C5.19901 26.3955 5.39897 26.7954 5.79889 26.9954C5.99885 27.1953 6.39878 27.3953 6.7987 27.5953C7.19862 27.7952 7.79851 27.7952 8.39839 27.9952L7.59855 32.1945Z"/>
	</g>
	<defs>
		<clipPath id="clip_6">
			<rect x="-197" y="-23" width="1440" height="4280" clip-rule="evenodd"/>
		</clipPath>
	</defs>
	<g clip-path="url(#clip_6)">
		<path fill="rgb(5,195,222)" stroke="none" transform="translate(0.599854 4.19922)" d="M0.199962 4.79918C0.199962 3.39942 0.599885 2.39959 1.59969 1.39976C2.5995 0.399932 3.59931 0 4.99904 0L20.996 0L18.1965 4.99915L5.39897 4.99915L5.39897 11.398L14.5972 11.398L11.3978 16.5972L5.19901 16.5972L5.19901 22.9961L7.79851 22.9961L4.99904 27.9952L0 27.9952L0 4.79918L0.199962 4.79918Z"/>
	</g>
	<defs>
		<clipPath id="clip_7">
			<rect x="-197" y="-23" width="1440" height="4280" clip-rule="evenodd"/>
		</clipPath>
	</defs>
	<g clip-path="url(#clip_7)">
		<path fill="rgb(255,255,255)" stroke="none" transform="translate(10.9979 4.19922)" d="M20.796 23.196C20.796 24.5958 20.3961 25.5956 19.3963 26.5954C18.3965 27.5953 17.3967 27.9952 15.9969 27.9952L0 27.9952L2.79946 22.9961L15.597 22.9961L15.597 16.5972L6.39878 16.5972L9.3982 11.398L15.597 11.398L15.597 4.99915L12.9975 4.99915L15.797 0L20.796 0L20.796 23.196Z"/>
	</g>
	<defs>
		<clipPath id="clip_8">
			<rect x="-197" y="-23" width="1440" height="4280" clip-rule="evenodd"/>
		</clipPath>
	</defs>
	<g clip-path="url(#clip_8)">
		<path fill="rgb(255,255,255)" stroke="none" transform="translate(125.576 25.7957)" d="M6.7987 3.39942C6.7987 4.39925 6.39878 5.19911 5.79889 5.79901C5.19901 6.39891 4.39916 6.79884 3.39935 6.79884C2.39954 6.79884 1.59969 6.39891 0.999809 5.79901C0.399924 5.19911 0 4.39925 0 3.39942C0 2.39959 0.399924 1.59973 0.999809 0.999829C1.59969 0.399932 2.39954 0 3.39935 0C4.39916 0 5.19901 0.399932 5.79889 0.999829C6.39878 1.59973 6.7987 2.39959 6.7987 3.39942"/>
	</g>

</svg>