<?xml version="1.0" standalone="no"?>
<!DOCTYPE svg PUBLIC "-//W3C//DTD SVG 20010904//EN"
 "http://www.w3.org/TR/2001/REC-SVG-20010904/DTD/svg10.dtd">
<svg version="1.0" xmlns="http://www.w3.org/2000/svg"
 width="520.000000pt" height="520.000000pt" viewBox="0 0 520.000000 520.000000"
 preserveAspectRatio="xMidYMid meet">
<metadata>
Created by potrace 1.11, written by Peter Selinger 2001-2013
</metadata>
<g transform="translate(0.000000,520.000000) scale(0.100000,-0.100000)"
fill="#000000" stroke="none">
<path d="M0 2600 l0 -2600 2600 0 2600 0 0 2600 0 2600 -2600 0 -2600 0 0
-2600z m2814 2205 c424 -74 774 -360 923 -755 48 -125 64 -210 70 -356 11
-284 -48 -480 -223 -744 -125 -188 -552 -698 -597 -713 -92 -30 -165 81 -105
159 12 16 95 115 183 219 288 339 376 461 456 629 71 151 84 212 84 396 0 183
-18 268 -90 417 -131 269 -362 457 -660 535 -123 32 -329 36 -463 9 -318 -66
-569 -259 -707 -544 -72 -149 -90 -234 -90 -417 0 -184 13 -245 84 -396 52
-109 132 -233 232 -360 35 -44 440 -525 899 -1068 477 -564 845 -1007 858
-1034 19 -38 22 -59 19 -112 -6 -101 -57 -178 -147 -226 -33 -18 -77 -19 -940
-19 -863 0 -907 1 -940 19 -88 46 -140 124 -148 222 -4 52 0 70 21 115 27 57
601 744 641 766 65 37 146 -10 146 -85 0 -37 -17 -60 -296 -388 -162 -192
-300 -359 -306 -371 -8 -17 -8 -30 0 -48 l12 -25 870 0 870 0 12 25 c7 16 8
32 2 44 -5 11 -371 448 -814 972 -881 1042 -961 1139 -1054 1279 -175 263
-234 460 -223 744 12 295 119 543 328 761 174 181 404 303 657 349 105 19 329
20 436 1z m57 -698 c20 -15 39 -51 39 -72 0 -9 -13 -30 -29 -46 l-29 -29 -260
0 c-247 0 -261 1 -286 21 -34 27 -36 82 -4 116 21 23 22 23 287 23 193 -1 270
-4 282 -13z m380 -506 c36 -36 37 -70 5 -108 l-24 -28 -624 -3 c-455 -2 -630
1 -651 9 -61 26 -74 84 -28 130 l29 29 632 0 632 0 29 -29z m-380 -514 c20
-15 39 -51 39 -72 0 -9 -13 -30 -29 -46 l-29 -29 -260 0 c-247 0 -261 1 -286
21 -34 27 -36 82 -4 116 21 23 22 23 287 23 193 -1 270 -4 282 -13z m-24
-2039 c33 -31 32 -90 -3 -117 -25 -20 -39 -21 -246 -21 l-219 0 -24 25 c-16
15 -25 36 -25 55 0 19 9 40 25 55 l24 25 222 0 c215 0 224 -1 246 -22z"/>
</g>
</svg>
