<?xml version="1.0" encoding="utf-8"?>
<!-- Generator: Adobe Illustrator 23.0.1, SVG Export Plug-In . SVG Version: 6.00 Build 0)  -->
<svg version="1.1" id="Layer_1" xmlns="http://www.w3.org/2000/svg" xmlns:xlink="http://www.w3.org/1999/xlink" x="0px" y="0px"
	 viewBox="0 0 40.3 56.6" style="enable-background:new 0 0 40.3 56.6;" xml:space="preserve">
<style type="text/css">
	.st0{fill:#2e2e2e;}
</style>
<title>Asset 1</title>
<path class="st0" d="M36,24.2l4.2-4.2l-20-20l-20,20l4.2,4.2l-4.2,4.2l4.1,4.1l-4.1,4.1l20,20l20-20L36,32.5l4.1-4.1L36,24.2z
	 M2.8,20L20.2,2.7L37.5,20l-2.8,2.8L20.2,8.3L5.6,22.8L2.8,20z M20.2,37.4l-9-9l9-9l9,9L20.2,37.4z M30.5,29.6l2.8,2.8L20.2,45.7
	L7,32.5l2.8-2.8L20.2,40L30.5,29.6z M20.2,16.6L9.8,27L7,24.2L20.2,11l13.2,13.2L30.5,27L20.2,16.6z M2.8,28.3l2.8-2.8l2.8,2.8
	l-2.8,2.8L2.8,28.3z M37.5,36.6L20.2,54L2.8,36.6l2.8-2.8l14.5,14.5l14.5-14.5L37.5,36.6z M31.9,28.3l2.8-2.8l2.8,2.8l-2.8,2.8
	L31.9,28.3z"/>
</svg>
