<?xml version="1.0" standalone="no"?>
<!DOCTYPE svg PUBLIC "-//W3C//DTD SVG 20010904//EN"
 "http://www.w3.org/TR/2001/REC-SVG-20010904/DTD/svg10.dtd">
<svg version="1.0" xmlns="http://www.w3.org/2000/svg"
 width="1024.000000pt" height="1024.000000pt" viewBox="0 0 1024.000000 1024.000000"
 preserveAspectRatio="xMidYMid meet">
<metadata>
Created by potrace 1.11, written by Peter Selinger 2001-2013
</metadata>
<g transform="translate(0.000000,1024.000000) scale(0.100000,-0.100000)"
fill="#000000" stroke="none">
<path d="M4668 9595 c-2 -2 -66 -6 -143 -9 -77 -3 -140 -6 -140 -7 0 -1 -33
-3 -180 -13 -44 -3 -80 -5 -80 -6 0 -1 -20 -3 -45 -5 -45 -4 -121 -12 -195
-21 -71 -8 -119 -14 -170 -19 -27 -3 -59 -6 -70 -9 -11 -2 -38 -6 -60 -10 -22
-3 -58 -8 -80 -11 -22 -4 -52 -8 -67 -10 -15 -2 -53 -9 -85 -14 -32 -6 -74
-13 -93 -16 -19 -3 -46 -8 -60 -10 -14 -3 -36 -7 -50 -10 -14 -3 -37 -7 -52
-10 -15 -4 -39 -8 -55 -10 -34 -6 -68 -13 -68 -15 0 -1 -9 -3 -20 -5 -40 -6
-223 -46 -325 -71 -58 -14 -114 -28 -125 -31 -39 -9 -50 -11 -50 -13 0 -1 -7
-3 -15 -5 -8 -1 -35 -8 -60 -16 -25 -7 -50 -13 -55 -14 -22 -5 -241 -67 -255
-72 -8 -4 -17 -7 -20 -8 -24 -7 -96 -29 -100 -30 -3 0 -30 -10 -60 -20 -30
-11 -59 -20 -65 -20 -10 -1 -68 -21 -161 -57 -29 -11 -58 -21 -65 -22 -8 -2
-27 -8 -44 -15 -16 -6 -41 -16 -55 -21 -14 -5 -38 -15 -55 -21 -16 -7 -34 -13
-40 -15 -20 -5 -322 -126 -425 -171 -190 -82 -298 -133 -510 -238 -91 -45
-203 -103 -250 -128 -47 -26 -116 -63 -153 -82 -63 -33 -68 -38 -63 -63 3 -15
8 -51 11 -80 3 -30 7 -57 9 -60 2 -4 7 -29 10 -57 7 -62 13 -103 27 -180 10
-61 11 -65 22 -125 4 -19 9 -46 11 -60 3 -14 7 -35 10 -46 2 -12 7 -39 10 -59
4 -21 13 -70 22 -109 18 -83 12 -59 59 -261 21 -88 39 -167 40 -175 2 -8 4
-17 6 -20 1 -3 3 -9 4 -15 1 -5 5 -17 8 -25 6 -15 56 -201 62 -230 2 -8 4 -16
5 -17 3 -4 7 -20 9 -33 0 -6 26 5 56 25 31 19 59 35 64 35 5 0 11 4 13 8 4 10
103 71 134 83 13 4 24 13 24 19 0 6 4 9 9 6 5 -3 14 1 21 9 7 8 16 15 20 15 4
0 47 23 96 51 49 28 132 74 184 101 52 28 104 55 115 61 11 6 22 12 25 12 16
3 206 102 212 110 4 6 8 7 8 3 0 -3 33 10 73 29 39 20 78 36 85 36 6 0 12 4
12 9 0 4 5 8 11 8 5 0 29 9 52 19 173 78 627 253 717 276 3 1 12 4 20 8 23 9
184 61 195 63 6 1 37 10 70 20 33 10 65 19 70 20 21 6 163 45 210 60 28 8 64
17 80 20 17 2 39 8 50 11 21 7 23 8 65 16 14 3 63 15 110 26 47 11 102 22 122
25 21 2 41 7 45 9 5 3 29 8 53 12 25 3 61 10 80 15 38 10 124 25 195 34 30 4
87 13 135 22 14 2 45 6 70 9 58 8 99 14 130 20 14 2 57 7 95 9 39 3 70 6 70 7
0 0 20 3 45 5 67 5 135 12 135 14 0 1 27 3 60 4 33 2 119 7 190 12 72 5 301 9
510 8 337 0 453 -4 640 -20 28 -2 86 -6 130 -10 93 -6 121 -10 135 -19 5 -3
10 -1 10 5 0 6 4 8 10 5 10 -6 59 -14 120 -20 19 -1 51 -5 70 -8 19 -4 58 -9
85 -12 92 -12 120 -15 145 -21 14 -2 41 -7 60 -9 19 -3 46 -7 60 -10 33 -7 64
-13 130 -25 30 -6 66 -13 80 -15 14 -3 48 -10 75 -15 100 -18 110 -21 125 -27
8 -3 24 -7 35 -8 11 -2 29 -5 41 -8 11 -3 68 -17 125 -30 213 -52 626 -173
729 -214 8 -3 20 -7 26 -8 14 -3 260 -93 299 -110 38 -16 99 -39 105 -41 17
-3 334 -141 403 -175 31 -15 57 -25 57 -22 0 3 8 -1 18 -10 9 -8 19 -16 22
-16 13 0 127 -56 144 -70 10 -9 21 -16 25 -15 12 1 114 -51 328 -167 52 -29
329 -192 353 -209 8 -5 36 -23 62 -40 l47 -29 12 42 c7 23 14 51 16 61 2 11 8
25 13 31 5 7 8 14 5 16 -2 3 4 34 15 69 10 35 17 67 14 71 -2 4 0 10 5 13 4 3
11 19 14 36 4 16 7 31 7 33 6 20 102 435 106 457 2 14 7 36 9 50 8 37 16 82
20 105 2 11 8 47 15 80 6 33 15 87 21 120 5 33 12 74 15 90 3 17 7 46 9 65 2
19 5 35 6 35 1 0 3 11 4 25 1 14 5 41 8 60 3 19 9 56 12 81 l7 47 -103 56
c-56 31 -105 56 -110 56 -4 0 -14 6 -21 13 -13 12 -387 200 -508 255 -36 16
-130 57 -210 91 -186 81 -176 76 -240 102 -30 12 -69 28 -87 35 -17 8 -33 14
-36 14 -2 0 -22 8 -43 17 -22 9 -45 16 -51 14 -7 -1 -13 2 -13 7 0 5 -6 9 -12
9 -7 1 -53 17 -103 36 -83 32 -267 96 -290 102 -5 1 -17 5 -25 8 -15 6 -91 30
-100 32 -3 1 -32 10 -65 20 -33 10 -62 18 -65 18 -3 0 -21 7 -40 15 -19 8 -36
14 -37 13 -2 0 -5 0 -8 0 -14 4 -24 6 -65 18 -25 7 -49 14 -55 15 -5 2 -30 8
-55 15 -25 7 -54 15 -65 18 -38 8 -50 11 -50 13 0 2 -19 7 -70 19 -72 17 -82
19 -119 29 -20 6 -36 8 -36 6 0 -3 -9 0 -19 5 -10 6 -34 13 -52 15 -38 6 -74
14 -74 16 0 1 -9 3 -20 5 -66 12 -135 26 -150 29 -5 2 -21 6 -35 9 -14 4 -38
9 -55 11 -16 3 -57 10 -90 16 -33 6 -76 14 -95 17 -19 2 -68 11 -108 19 -41 7
-77 13 -80 12 -4 -1 -25 2 -47 7 -22 5 -49 9 -60 10 -32 3 -138 16 -165 21
-27 5 -64 10 -150 18 -30 3 -71 8 -90 11 -31 4 -118 12 -220 20 -19 1 -84 5
-145 9 -60 4 -135 9 -165 12 -61 6 -917 14 -922 9z"/>
<path d="M2005 6228 c-16 -5 -39 -13 -50 -18 -11 -4 -38 -15 -60 -23 -106 -41
-305 -121 -342 -138 -49 -22 -96 -42 -103 -43 -5 -1 -14 -6 -224 -105 -71 -34
-132 -61 -137 -61 -5 0 -9 -4 -9 -10 0 -5 -5 -10 -12 -10 -12 0 -138 -60 -148
-70 -3 -3 -25 -15 -50 -28 -72 -37 -125 -67 -130 -72 -3 -3 -26 -16 -52 -29
-42 -21 -46 -25 -38 -47 14 -35 49 -114 71 -156 10 -21 17 -38 15 -38 -2 0 9
-27 25 -60 16 -33 29 -65 29 -70 0 -6 4 -10 10 -10 5 0 9 -3 8 -7 -2 -9 63
-150 110 -240 7 -13 16 -31 21 -42 58 -116 96 -187 103 -189 4 -2 8 -11 8 -21
0 -9 4 -21 9 -26 5 -6 23 -37 42 -70 18 -33 50 -89 71 -125 20 -36 44 -80 53
-97 8 -18 20 -33 26 -33 5 0 8 -4 5 -8 -3 -5 3 -20 12 -33 25 -36 52 -82 58
-101 4 -10 10 -18 14 -18 4 0 13 -13 20 -30 7 -16 16 -30 21 -30 5 0 9 -5 9
-11 0 -6 12 -29 28 -52 15 -23 32 -49 37 -58 13 -21 37 -57 95 -144 127 -189
162 -240 168 -245 4 -3 27 -34 52 -70 37 -54 157 -217 187 -255 5 -5 24 -30
43 -55 19 -25 37 -47 40 -50 4 -3 13 -14 21 -26 17 -25 87 -111 110 -134 8 -9
22 -25 30 -37 15 -22 89 -110 129 -154 14 -15 45 -51 70 -80 180 -210 553
-588 799 -809 46 -41 96 -86 111 -100 16 -14 52 -45 81 -70 29 -25 69 -59 89
-76 19 -17 46 -39 59 -50 13 -10 28 -23 35 -29 6 -5 34 -28 61 -50 28 -22 55
-44 62 -50 15 -13 27 -22 83 -65 25 -19 47 -37 50 -40 26 -27 378 -280 390
-280 5 0 10 -4 10 -8 0 -5 44 -37 98 -72 53 -36 99 -68 100 -72 2 -5 8 -8 14
-8 5 0 35 -17 66 -39 88 -60 171 -111 182 -111 6 0 10 -3 10 -8 0 -4 21 -19
48 -32 26 -14 49 -27 52 -30 7 -8 152 -94 169 -101 8 -3 37 9 65 28 28 18 56
33 63 33 7 0 13 4 13 8 0 5 18 17 40 27 22 10 40 22 40 27 0 4 4 8 9 8 16 0
507 314 531 340 3 3 34 25 70 50 36 24 70 48 75 53 6 4 35 26 65 48 30 22 68
50 84 62 17 12 38 30 48 40 10 9 20 17 23 17 5 0 243 186 255 199 3 4 59 51
125 106 66 55 138 116 160 137 22 20 49 45 61 55 120 104 202 182 403 383 260
259 349 355 558 595 53 62 199 239 243 295 14 18 30 37 35 44 6 6 40 52 77
101 37 50 74 97 81 105 7 8 35 47 62 85 27 39 51 72 55 75 3 3 23 32 45 65 22
33 42 62 45 65 3 3 37 52 75 110 39 58 72 107 75 110 17 16 298 481 351 580
13 24 30 50 37 58 7 7 10 18 7 23 -4 5 -1 9 4 9 6 0 11 4 11 10 0 5 13 32 30
60 121 205 432 873 414 890 -5 4 -40 25 -79 45 -38 21 -72 41 -75 44 -10 13
-640 321 -655 321 -3 0 -33 13 -67 28 -35 16 -135 57 -223 91 -88 35 -169 67
-180 73 -12 5 -27 10 -35 12 -8 2 -23 6 -32 9 -10 4 -24 9 -31 11 -9 3 -28
-31 -57 -98 -24 -55 -58 -134 -77 -174 -18 -41 -33 -78 -33 -83 0 -5 -5 -9
-11 -9 -5 0 -8 -4 -4 -9 3 -5 -2 -16 -10 -24 -8 -9 -15 -22 -15 -29 0 -8 -5
-19 -12 -26 -7 -7 -8 -12 -3 -12 6 0 6 -3 0 -8 -11 -8 -120 -225 -116 -231 2
-2 -1 -7 -6 -10 -5 -3 -30 -44 -55 -91 -75 -140 -109 -202 -150 -269 -21 -34
-38 -67 -38 -72 0 -5 -4 -9 -9 -9 -5 0 -11 -8 -15 -17 -3 -10 -24 -47 -46 -82
-22 -34 -40 -67 -40 -71 0 -5 -3 -10 -8 -12 -4 -1 -27 -34 -52 -73 -50 -78
-201 -299 -225 -330 -9 -11 -37 -49 -63 -85 -75 -102 -175 -235 -181 -240 -3
-3 -22 -25 -42 -50 -20 -25 -45 -55 -55 -67 -11 -11 -26 -31 -34 -43 -8 -12
-28 -36 -45 -54 -16 -18 -49 -55 -72 -83 -46 -54 -50 -58 -163 -183 -101 -113
-402 -414 -525 -526 -143 -132 -287 -254 -296 -254 -5 0 -9 -7 -9 -15 0 -8 -4
-15 -9 -15 -9 0 -164 -121 -195 -153 -10 -9 -21 -17 -25 -17 -4 0 -16 -8 -27
-18 -10 -10 -46 -38 -79 -62 -33 -25 -68 -52 -77 -60 -9 -8 -29 -23 -45 -32
-28 -16 -30 -16 -71 15 -22 18 -89 68 -148 112 -59 44 -114 87 -123 96 -9 8
-36 31 -61 50 -64 49 -325 273 -390 335 -30 29 -71 66 -90 84 -82 75 -230 224
-230 231 0 5 -6 9 -14 9 -8 0 -16 4 -18 9 -1 5 -49 58 -105 118 -139 148 -148
159 -273 303 -30 35 -62 71 -70 80 -8 8 -27 31 -41 50 -15 19 -35 45 -45 56
-11 12 -30 36 -44 54 -14 18 -29 38 -35 44 -5 6 -32 42 -60 79 -27 38 -60 79
-72 92 -13 13 -23 28 -23 34 0 5 -4 11 -8 13 -7 3 -53 64 -92 123 -8 13 -41
59 -72 104 -32 44 -58 85 -58 90 0 5 -4 11 -8 13 -8 3 -162 235 -162 244 0 3
-13 25 -30 49 -16 24 -30 48 -30 54 0 6 -4 11 -10 11 -5 0 -10 4 -10 9 0 8
-80 151 -90 161 -3 3 -16 25 -29 50 -13 25 -44 81 -68 125 -45 82 -225 445
-261 525 -11 25 -32 74 -47 110 -15 36 -31 70 -35 75 -4 6 -13 27 -19 47 -15
46 -18 48 -56 36z"/>
</g>
</svg>
