<?xml version="1.0" encoding="utf-8"?>
<!-- Generator: Adobe Illustrator 15.0.2, SVG Export Plug-In . SVG Version: 6.00 Build 0)  -->
<!DOCTYPE svg PUBLIC "-//W3C//DTD SVG 1.1//EN" "http://www.w3.org/Graphics/SVG/1.1/DTD/svg11.dtd">
<svg version="1.1" id="Layer_1" xmlns="http://www.w3.org/2000/svg" xmlns:xlink="http://www.w3.org/1999/xlink" x="0px" y="0px"
	 width="461px" height="269px" viewBox="0 0 461 269" enable-background="new 0 0 461 269" xml:space="preserve">
<metadata><?xpacket begin="﻿" id="W5M0MpCehiHzreSzNTczkc9d"?>
<x:xmpmeta xmlns:x="adobe:ns:meta/" x:xmptk="Adobe XMP Core 5.0-c060 61.134777, 2010/02/12-17:32:00        ">
   <rdf:RDF xmlns:rdf="http://www.w3.org/1999/02/22-rdf-syntax-ns#">
      <rdf:Description rdf:about=""
            xmlns:dc="http://purl.org/dc/elements/1.1/">
         <dc:format>image/svg+xml</dc:format>
         <dc:title>
            <rdf:Alt>
               <rdf:li xml:lang="x-default">Back_To_Earth_Logo</rdf:li>
            </rdf:Alt>
         </dc:title>
      </rdf:Description>
      <rdf:Description rdf:about=""
            xmlns:xmp="http://ns.adobe.com/xap/1.0/"
            xmlns:xmpGImg="http://ns.adobe.com/xap/1.0/g/img/">
         <xmp:MetadataDate>2017-10-05T15:44:01-06:00</xmp:MetadataDate>
         <xmp:ModifyDate>2017-10-05T15:44:01-06:00</xmp:ModifyDate>
         <xmp:CreateDate>2017-10-05T15:44:01-06:00</xmp:CreateDate>
         <xmp:CreatorTool>Adobe Illustrator CS5</xmp:CreatorTool>
         <xmp:Thumbnails>
            <rdf:Alt>
               <rdf:li rdf:parseType="Resource">
                  <xmpGImg:width>256</xmpGImg:width>
                  <xmpGImg:height>200</xmpGImg:height>
                  <xmpGImg:format>JPEG</xmpGImg:format>
                  <xmpGImg:image>/9j/4AAQSkZJRgABAgEASABIAAD/7QAsUGhvdG9zaG9wIDMuMAA4QklNA+0AAAAAABAASAAAAAEA&#xA;AQBIAAAAAQAB/+4ADkFkb2JlAGTAAAAAAf/bAIQABgQEBAUEBgUFBgkGBQYJCwgGBggLDAoKCwoK&#xA;DBAMDAwMDAwQDA4PEA8ODBMTFBQTExwbGxscHx8fHx8fHx8fHwEHBwcNDA0YEBAYGhURFRofHx8f&#xA;Hx8fHx8fHx8fHx8fHx8fHx8fHx8fHx8fHx8fHx8fHx8fHx8fHx8fHx8fHx8f/8AAEQgAyAEAAwER&#xA;AAIRAQMRAf/EAaIAAAAHAQEBAQEAAAAAAAAAAAQFAwIGAQAHCAkKCwEAAgIDAQEBAQEAAAAAAAAA&#xA;AQACAwQFBgcICQoLEAACAQMDAgQCBgcDBAIGAnMBAgMRBAAFIRIxQVEGE2EicYEUMpGhBxWxQiPB&#xA;UtHhMxZi8CRygvElQzRTkqKyY3PCNUQnk6OzNhdUZHTD0uIIJoMJChgZhJRFRqS0VtNVKBry4/PE&#xA;1OT0ZXWFlaW1xdXl9WZ2hpamtsbW5vY3R1dnd4eXp7fH1+f3OEhYaHiImKi4yNjo+Ck5SVlpeYmZ&#xA;qbnJ2en5KjpKWmp6ipqqusra6voRAAICAQIDBQUEBQYECAMDbQEAAhEDBCESMUEFURNhIgZxgZEy&#xA;obHwFMHR4SNCFVJicvEzJDRDghaSUyWiY7LCB3PSNeJEgxdUkwgJChgZJjZFGidkdFU38qOzwygp&#xA;0+PzhJSktMTU5PRldYWVpbXF1eX1RlZmdoaWprbG1ub2R1dnd4eXp7fH1+f3OEhYaHiImKi4yNjo&#xA;+DlJWWl5iZmpucnZ6fkqOkpaanqKmqq6ytrq+v/aAAwDAQACEQMRAD8A9U4q7FXYq7FXYq7FXYq7&#xA;FXYq7FXYq7FXYq7FXYq7FXYq7FXYq7FXYq7FXYq7FXYq7FXYq7FXYq7FXYq7FXYq7FXYq7FXYq7F&#xA;XYq7FXYq7FXYq7FXYq7FXYq7FXYq7FXYq7FXYq7FXYq7FXYq7FXYq7FXYq7FXYq7FXYq7FXYq7FX&#xA;Yq7FXYq7FXYq7FXYq7FXYq7FXYq7FXYq7FXYq7FXYq7FXYq7FXYq7FXYq7FXYq7FXYq7FXYq7FXY&#xA;q7FXYq7FXYq7FXYq7FXYq7FXYq7FXYq7FXYq7FXYq7FXYq7FXYq7FXYq7FXYq7FXYq7FXYq7FXYq&#xA;7FXYq7FXYq7FXYq7FXYq7FXYq7FXYq7FXYq7FXYq7FXYq7FXYq7FXYq7FXYq7FXYq7FXYq7FXYq7&#xA;FXYq7FXYq7FXYq7FXYq7FXYq7FXYq7FXYq7FXYq7FXYq7FXYq7FXYq7FXYq7FXYq7FXYq7FXYq7F&#xA;XYq7FXYq7FXYq7FXYq7FXYq7FXYq7FXYq7FXYq7FXYq7FXYq7FXYq7FXYq7FXYq7FXYq7FXYq7FX&#xA;Yq7FXYq7FXYq7FXYq7FXYq7FXYq7FXYq7FXYq7FXYq7FXYq7FXYq7FXYq7FXYq7FXYq7FXYq7FXY&#xA;q7FXYq7FXYq7FXYq7FXYq7FXYq7FXYq7FXYq7FXYq7FXYq7FXYq7FXYq7FXYq7FXYq7FXYq7FXYq&#xA;7FXYq7FXYq7FXYq7FXYq7FXYq7FXYq7FXYq7FXYq7FXYq7FXYq7FXYq7FXYq7FXYq7FXYq7FXYq7&#xA;FXYq7FXYq7FXYq7FXYq7FXYq7FXYq7FXYq7FXYq7FXYq7FXYq7FXYq7FXYq7FXYq7FXYq7FXYq7F&#xA;XYq7FXYq7FXYq7FXYq7FXYq7FXYq7FXYq7FXYq7FXYq7FXYq7FXYq7FXYq7FXYq7FXYq7FXYq7FX&#xA;Yq7FXYq7FXYq7FXYq7FXYq7FXYq7FXYq7FXYq7FXYq7FXYq7FXYq7FXYq7FXYq7FXYq7FXYq7FXY&#xA;q7FXYq7FXYq7FXYq7FXYq7FXYq7FXYq7FXYq7FXYq7FXYq7FXYq7FXYq7FXYq7FXYq7FXYq7FXYq&#xA;7FXYq7FXYq7FXYq7FXYq7FXYq7FXYq7FXYq7FXYq7FXYq7FXYq7FXYq7FXYq7FXYq7FXYq7FXYq7&#xA;FXYq7FXYq7FXYq7FXYq7FXYq7FXYq7FXYq7FXYq7FXYq7FXYq7FXYq7FXYq7FXYq7FXYq7FXYq7F&#xA;XYq7FXYq7FXYq7FXYq7FXYq7FXYq7FXYq7FXYq7FXYq7FXYq7FXYq7FXYq7FXYq7FXYq7FXYq7FX&#xA;Yq7FXYq7FXYq7FXYq7FXYq7FXYq7FXYq7FXYq7FXYq7FXYq7FXYq7FXYq7FXYq7FXYq7FXYq7FXY&#xA;q7FXYq7FXYq7FXYq7FXYq7FXYq7FXYq7FXYq7FXYq7FXYq7FXYq7FXYq7FXYq7FXYq7FXYq7FXYq&#xA;7FXYq7FXYq7FXYq7FXYq7FXYq7FXYq7FXYq7FXYq7FXYq7FXYq7FXYq7FXYq7FXYq7FXYq7FXYq7&#xA;FXYq7FXYq7FXYq7FXYq7FXYq7FXYq7FXYq7FXYq7FXYq7FXYq7FXYq7FXYq7FXYq7FXYq7FXYq7F&#xA;XYq7FXYq7FXYq7FXYq7FXYq7FXYq7FXYq7FXYq7FXYq7FXYq7FXYq7FXYq7FXYq7FXYq7FXYq7FX&#xA;Yq7FXYq7FXYq7FXYq7FXYq7FXYq7FXYq7FXYq7FXYq7FXYq7FXYq7FXYq7FXYq7FXYq7FXYq7FXY&#xA;q7FXYq7FXYq7FXYq7FXYq7FXYq7FXYq7FXYq7FXYq7FXYq7FXYq7FXYq7FXYq7FXYq7FXYq7FXYq&#xA;7FXYq7FXYq7FXYq7FXYq7FXYq7FXYq7FXYq7FXYq7FXYq7FXYq7FXYq7FXYq7FXYq7FXYq7FXYq7&#xA;FXYq7FXYq7FXYq7FXYq7FXYq7FXYq7FXYq7FXYq7FXYq7FXYq7FXYq7FXYq7FXYq7FXYq7FXYq7F&#xA;XYq7FX//2Q==</xmpGImg:image>
               </rdf:li>
            </rdf:Alt>
         </xmp:Thumbnails>
      </rdf:Description>
      <rdf:Description rdf:about=""
            xmlns:xmpMM="http://ns.adobe.com/xap/1.0/mm/"
            xmlns:stRef="http://ns.adobe.com/xap/1.0/sType/ResourceRef#"
            xmlns:stEvt="http://ns.adobe.com/xap/1.0/sType/ResourceEvent#">
         <xmpMM:InstanceID>xmp.iid:F77F1174072068118A6DA4E010EFBA91</xmpMM:InstanceID>
         <xmpMM:DocumentID>xmp.did:F77F1174072068118A6DA4E010EFBA91</xmpMM:DocumentID>
         <xmpMM:OriginalDocumentID>uuid:5D20892493BFDB11914A8590D31508C8</xmpMM:OriginalDocumentID>
         <xmpMM:RenditionClass>proof:pdf</xmpMM:RenditionClass>
         <xmpMM:DerivedFrom rdf:parseType="Resource">
            <stRef:instanceID>uuid:5310f4e3-4e48-2846-89f8-5358e4a6b5ff</stRef:instanceID>
            <stRef:documentID>xmp.did:94028d68-97f6-4526-a999-742d91d68118</stRef:documentID>
            <stRef:originalDocumentID>uuid:5D20892493BFDB11914A8590D31508C8</stRef:originalDocumentID>
            <stRef:renditionClass>proof:pdf</stRef:renditionClass>
         </xmpMM:DerivedFrom>
         <xmpMM:History>
            <rdf:Seq>
               <rdf:li rdf:parseType="Resource">
                  <stEvt:action>saved</stEvt:action>
                  <stEvt:instanceID>xmp.iid:2c9acd08-eb06-4a3a-8dd0-254e65ac14c6</stEvt:instanceID>
                  <stEvt:when>2017-08-28T22:57:33-07:00</stEvt:when>
                  <stEvt:softwareAgent>Adobe Illustrator CC 2017 (Macintosh)</stEvt:softwareAgent>
                  <stEvt:changed>/</stEvt:changed>
               </rdf:li>
               <rdf:li rdf:parseType="Resource">
                  <stEvt:action>saved</stEvt:action>
                  <stEvt:instanceID>xmp.iid:94028d68-97f6-4526-a999-742d91d68118</stEvt:instanceID>
                  <stEvt:when>2017-09-09T13:03-07:00</stEvt:when>
                  <stEvt:softwareAgent>Adobe Illustrator CC 2017 (Macintosh)</stEvt:softwareAgent>
                  <stEvt:changed>/</stEvt:changed>
               </rdf:li>
               <rdf:li rdf:parseType="Resource">
                  <stEvt:action>saved</stEvt:action>
                  <stEvt:instanceID>xmp.iid:F77F1174072068118A6DA4E010EFBA91</stEvt:instanceID>
                  <stEvt:when>2017-10-05T15:44:01-06:00</stEvt:when>
                  <stEvt:softwareAgent>Adobe Illustrator CS5</stEvt:softwareAgent>
                  <stEvt:changed>/</stEvt:changed>
               </rdf:li>
            </rdf:Seq>
         </xmpMM:History>
      </rdf:Description>
      <rdf:Description rdf:about=""
            xmlns:illustrator="http://ns.adobe.com/illustrator/1.0/">
         <illustrator:StartupProfile>Print</illustrator:StartupProfile>
      </rdf:Description>
      <rdf:Description rdf:about=""
            xmlns:xmpTPg="http://ns.adobe.com/xap/1.0/t/pg/"
            xmlns:stDim="http://ns.adobe.com/xap/1.0/sType/Dimensions#"
            xmlns:xmpG="http://ns.adobe.com/xap/1.0/g/">
         <xmpTPg:HasVisibleOverprint>False</xmpTPg:HasVisibleOverprint>
         <xmpTPg:HasVisibleTransparency>False</xmpTPg:HasVisibleTransparency>
         <xmpTPg:NPages>1</xmpTPg:NPages>
         <xmpTPg:MaxPageSize rdf:parseType="Resource">
            <stDim:w>6.402778</stDim:w>
            <stDim:h>3.736111</stDim:h>
            <stDim:unit>Inches</stDim:unit>
         </xmpTPg:MaxPageSize>
         <xmpTPg:SwatchGroups>
            <rdf:Seq>
               <rdf:li rdf:parseType="Resource">
                  <xmpG:groupName>Default Swatch Group</xmpG:groupName>
                  <xmpG:groupType>0</xmpG:groupType>
               </rdf:li>
            </rdf:Seq>
         </xmpTPg:SwatchGroups>
      </rdf:Description>
      <rdf:Description rdf:about=""
            xmlns:pdf="http://ns.adobe.com/pdf/1.3/">
         <pdf:Producer>Adobe PDF library 15.00</pdf:Producer>
      </rdf:Description>
   </rdf:RDF>
</x:xmpmeta>
                                                                                                    
                                                                                                    
                                                                                                    
                                                                                                    
                                                                                                    
                                                                                                    
                                                                                                    
                                                                                                    
                                                                                                    
                                                                                                    
                                                                                                    
                                                                                                    
                                                                                                    
                                                                                                    
                                                                                                    
                                                                                                    
                                                                                                    
                                                                                                    
                                                                                                    
                                                                                                    
                           
<?xpacket end="w"?>
	</metadata>
<g>
	<defs>
		<rect id="SVGID_1_" x="-176" y="-173" width="792" height="612"/>
	</defs>
	<clipPath id="SVGID_2_">
		<use xlink:href="#SVGID_1_"  overflow="visible"/>
	</clipPath>
	<path clip-path="url(#SVGID_2_)" fill="#FFFFFF" d="M214.882,155.64c0.007,6.345-3.693,12.126-12.55,12.137l-10.615,0.011
		l-0.046-43.215l9.862-0.011c8.794-0.01,11.941,5.703,11.946,11.546c0.005,4.208-1.122,7.161-3.444,8.858
		C213.053,146.911,214.876,150.112,214.882,155.64 M197.833,130.72l0.013,12.186l3.518-0.003c5.716-0.007,5.774-4.781,5.772-6.352
		c-0.002-1.568-0.069-5.842-5.785-5.834L197.833,130.72z M201.937,148.932l-4.083,0.005l0.013,12.688l4.46-0.004
		c5.277-0.005,5.963-4.277,5.961-6.099C208.286,153.762,208.154,148.925,201.937,148.932"/>
	<path clip-path="url(#SVGID_2_)" fill="#FFFFFF" d="M234.724,166.015l-1.266-8.479l-8.668,0.01l-1.247,8.481l-6.595,0.007
		l6.737-43.223l10.804-0.012l6.83,43.208L234.724,166.015z M225.789,151.389l6.657-0.008l-3.353-22.231L225.789,151.389z"/>
	<path clip-path="url(#SVGID_2_)" fill="#FFFFFF" d="M268.504,156.098c0.008,7.411-3.818,12.754-11.606,12.763
		c-9.297,0.009-11.565-6.898-11.572-12.739l-0.021-19.346c-0.008-7.476,3.756-12.755,11.544-12.763
		c9.359-0.011,11.628,6.834,11.634,12.738l0.003,1.885l-6.596,0.008l-0.002-1.886c-0.002-1.82-0.069-6.281-5.032-6.275
		c-4.962,0.005-5.02,4.466-5.018,6.287l0.02,19.347c0.003,1.82,0.07,6.281,5.032,6.276c4.963-0.007,5.021-4.467,5.019-6.287
		l-0.002-1.947l6.596-0.007L268.504,156.098z"/>
	<polygon clip-path="url(#SVGID_2_)" fill="#FFFFFF" points="272.319,126.194 278.664,126.188 278.684,144.402 288.902,126.176 
		295.498,126.17 285.967,143.202 295.544,169.385 288.571,169.392 281.768,150.682 278.695,156.088 278.71,169.402 272.366,169.41 	
		"/>
	<polygon clip-path="url(#SVGID_2_)" fill="#FFFFFF" points="302.065,140.279 299.229,140.283 299.226,137.948 307.322,137.938 
		307.325,140.273 304.488,140.276 304.502,152.957 302.079,152.96 	"/>
	<path clip-path="url(#SVGID_2_)" fill="#FFFFFF" d="M316.982,143.903l0.007,7.123c0.003,2.729-1.405,4.696-4.272,4.699
		c-2.891,0.003-4.258-1.961-4.261-4.689l-0.007-7.122c-0.003-2.752,1.382-4.696,4.25-4.699
		C315.566,139.212,316.979,141.221,316.982,143.903 M314.554,143.906c0-0.67-0.025-2.312-1.853-2.311
		c-1.804,0.002-1.848,1.644-1.848,2.315l0.008,7.123c0.001,0.67,0.049,2.312,1.853,2.311c1.827-0.002,1.849-1.645,1.848-2.315
		L314.554,143.906z"/>
	<polygon clip-path="url(#SVGID_2_)" fill="#FFFFFF" points="326.178,167.682 326.132,124.466 349.311,124.442 349.317,130.974 
		333.049,130.992 333.062,142.799 347.382,142.785 347.389,149.318 333.068,149.333 333.08,161.078 349.35,161.062 349.356,167.657 
			"/>
	<path clip-path="url(#SVGID_2_)" fill="#FFFFFF" d="M370.951,166.342l-1.266-8.479l-8.668,0.009l-1.247,8.482l-6.596,0.007
		l6.737-43.223l10.804-0.012l6.83,43.208L370.951,166.342z M362.016,151.715l6.658-0.007l-3.353-22.231L362.016,151.715z"/>
	<path clip-path="url(#SVGID_2_)" fill="#FFFFFF" d="M397.393,145.567l5.8,19.09l-7.036,0.008l-5.231-17.457
		c-1.696-0.062-3.078,0.004-4.334,0.005l0.019,17.462l-6.596,0.007l-0.046-43.215l10.615-0.012
		c8.856-0.009,12.569,6.142,12.576,12.361C403.165,139.406,401.096,143.491,397.393,145.567 M390.227,140.739
		c6.03-0.007,6.402-4.78,6.399-6.79c-0.002-1.822-0.822-6.155-6.036-6.149l-4.021,0.003l0.015,12.94L390.227,140.739z"/>
	<polygon clip-path="url(#SVGID_2_)" fill="#FFFFFF" points="413.34,130.958 405.174,130.967 405.167,124.246 428.471,124.221 
		428.478,130.941 420.312,130.951 420.352,167.444 413.379,167.451 	"/>
	<polygon clip-path="url(#SVGID_2_)" fill="#FFFFFF" points="455.241,122.526 455.288,165.741 448.315,165.749 448.296,147.156 
		438.811,147.166 438.83,165.758 431.858,165.766 431.812,122.55 438.784,122.544 438.805,140.633 448.289,140.623 448.27,122.533 	
		"/>
</g>
<g>
	<defs>
		<rect id="SVGID_3_" x="-176" y="-173" width="792" height="612"/>
	</defs>
	<clipPath id="SVGID_4_">
		<use xlink:href="#SVGID_3_"  overflow="visible"/>
	</clipPath>
	<path clip-path="url(#SVGID_4_)" fill="#FFFFFF" d="M47.077,159.229c-0.187-0.908-0.233-1.677-0.588-2.567
		c-0.314-0.786-0.775-1.562-1.025-2.369c-0.325-1.045,0.209-1.882,0.193-2.898c-0.011-0.69-0.345-1.415-0.513-2.076
		c-0.563-2.221-1.298-4.725-1.497-6.955c-0.175-1.968,0.308-3.753,0.362-5.746c0.056-2.048-0.217-3.978-0.251-5.987
		c0.569-1.353,0.388-2.971,0.136-4.421c-0.193-1.107-0.752-2.075-1.124-3.107c-0.043-0.17-0.095-0.335-0.16-0.5
		c-0.099-0.352-0.172-0.715-0.187-1.097c-0.057-1.407-0.016-2.335-0.456-3.598c0.023-0.203-0.006-0.421-0.109-0.645
		c-0.468-1.014-1.381-1.777-2.094-2.612c-0.35-0.408-0.714-0.86-1.078-1.332c-0.361-1.005-0.757-1.997-1.25-2.969
		c-0.711-1.404-0.957-2.946-1.636-4.353c-0.413-0.855-0.82-1.759-1.266-2.593c-0.066-0.121-0.138-0.239-0.213-0.356
		c-0.098-0.452-0.189-0.907-0.274-1.367c-0.741-3.982-2.161-7.588-4.862-10.195c-0.827-1.683-3.077-2.812-4.755-3.044
		c-2.564-0.357-4.619,1.435-5.854,3.572c-1.212,2.098-1.965,4.406-3.252,6.489c-1.469,2.378-3.701,4.117-5.224,6.448
		c-0.697,1.067-1.062,2.295-1.475,3.501c-0.216,0.631-0.339,1.324-0.618,1.928c-0.326,0.705-0.751,0.979-1.202,1.551
		c-0.624,0.792-0.868,1.465-0.624,2.453c0.158,0.643,0.484,1.201,0.596,1.883c0.094,0.573,0.026,1.188,0.144,1.748
		c0.237,1.13,0.741,2.15,0.884,3.323c0.164,1.35,0.136,2.716,0.227,4.072c0.108,1.622,0.465,3.182,0.38,4.815
		c-0.07,1.367-0.321,2.688-0.509,4.035c-0.128,0.321-0.132,0.688,0.042,1.004c-0.041,1.332-0.78,2.43-1.123,3.689
		c-0.239,0.875-0.368,1.84-0.528,2.734c-0.414,2.312-0.469,4.525-0.384,6.869c0.088,2.424,0.211,4.784,0.107,7.201
		c-0.081,1.893-1.216,3.96-0.36,5.759c0.428,0.902,1.069,1.449,1.675,2.198c0.658,0.812,1.133,1.766,1.792,2.579
		c0.759,0.937,1.475,1.62,1.894,2.768c0.362,0.988,0.627,1.985,1.098,2.934c0.937,1.889,1.859,3.841,2.915,5.67
		c0.467,0.81,1.166,1.65,1.846,2.308c0.554,0.72,1.184,1.368,1.929,1.926c0.863,0.644,1.87,0.923,2.722,1.57
		c0.821,0.625,1.424,1.476,2.228,2.108c3.288,2.588,6.658,0.194,9.029-2.28c1.334-1.392,2.599-2.874,3.961-4.229
		c1.504-1.497,3.355-3.067,4.271-5.01c0.937-1.984,2.249-3.654,3.268-5.587c0.478-0.903,0.834-1.832,1.269-2.753
		c0.449-0.952,1.571-1.738,1.816-2.757c0.03-0.126,0.035-0.242,0.03-0.354C47.867,161.587,47.344,160.526,47.077,159.229"/>
	<path clip-path="url(#SVGID_4_)" fill="#FFFFFF" d="M100.927,128.199c-0.154-1.006-0.511-2.037-0.848-3.047
		c-0.019-0.145-0.034-0.29-0.06-0.435c-0.147-0.817-0.562-1.58-0.779-2.377c-0.268-0.988-0.126-2.034-0.504-2.99
		c-0.542-1.369-1.339-2.219-1.256-3.833c0.056-1.113,0.279-1.742,0.008-2.841c-0.512-2.081-0.467-4.053-0.775-6.175
		c-0.285-1.964,0.321-3.696-0.375-5.612c-1.015-2.789-0.165-5.966-0.145-8.918c0.012-1.669-0.209-3.087-0.567-4.697
		c-0.46-2.067-0.005-4.214-0.496-6.365c-0.39-1.711-0.062-2.953,0.087-4.705c0.057-0.664,0.128-1.416-0.138-2.043
		c-0.114-0.267-0.423-0.429-0.576-0.667c-0.561-0.869-0.826-1.718-1.105-2.689c-0.701-2.442-2.396-4.294-3.226-6.681
		c-0.825-2.373-1.934-4.745-2.859-7.081c-0.755-1.91-2.2-3.417-3.087-5.272c-0.663-1.385-1.554-3.41-2.886-4.312
		c-2.304-1.561-4.703-0.7-6.566,1.541c-1.701,2.048-3.181,4.759-5.432,6.22c-0.915,0.595-1.391,0.924-1.936,1.982
		c-0.114,0.223,0.017,0.657-0.059,0.847c-0.301,0.767-0.843,0.925-1.389,1.411c-0.916,0.812-1.651,1.85-2.397,2.808
		c-0.433,0.556-0.866,0.993-0.607,1.785c0.094,0.287,0.192,0.423,0.271,0.503c-0.343,1.106-0.424,2.359-0.488,3.413
		c-0.072,1.188,0.07,2.392,0.037,3.584c-0.042,1.548-0.466,2.977-0.646,4.499c-0.316,2.674-0.346,5.326-0.564,8.001
		c-0.099,1.219-0.484,2.374-0.625,3.576c-0.109,0.924,0.163,1.805,0.194,2.732c0.079,2.452,0.047,4.933-0.185,7.365
		c-0.059,0.618,0.039,1.142,0.117,1.704c-0.395,0.332-0.625,0.891-0.359,1.484c0.2,0.443-0.362,2.461-0.48,2.897
		c-0.181,0.674-0.616,1.263-0.793,1.925c-0.141,0.526-0.04,1.054-0.024,1.582c0.001,0.004,0,0.008,0,0.013
		c-0.303,0.485-0.743,0.861-0.695,1.526c0.012,0.173,0.051,0.317,0.11,0.477c0.025,0.068,0.049,0.213,0.063,0.261
		c-0.097,0.203-0.203,0.418-0.319,0.667c-0.009,0.018-0.016,0.04-0.025,0.059c-0.244,0.247-0.376,0.577-0.324,0.953
		c-0.211,0.87-0.219,1.81,0.077,2.63c0.305,0.847,1.048,1.511,1.344,2.343c0.385,1.08,0.131,2.592,0.133,3.724
		c0.001,1.317-0.536,2.507-0.636,3.816c-0.132,1.734-0.435,3.409-0.526,5.148c-0.028,0.547-0.034,1.066-0.022,1.575
		c-0.02,0.021-0.039,0.042-0.059,0.063c-0.357,0.394-0.473,1.064-0.137,1.509c0.103,0.496,0.275,0.938,0.461,1.396
		c0.044,0.297,0.091,0.596,0.144,0.905c0.24,1.394-0.053,2.941,0,4.42c-0.053,0.142-0.106,0.285-0.164,0.434
		c-0.816,2.081-0.62,4.572,0.379,6.573c0.739,1.483,1.096,2.329,1.096,4.06c0,1.117-0.563,2.101-0.563,3.162
		c0,0.934,0.714,2.063,1.026,2.913c0.41,1.121,0.993,2.128,1.338,3.277c0.487,1.627,1.297,3.631,2.531,4.851
		c0.74,0.732,1.822,0.982,2.698,1.507c1.062,0.634,1.896,1.595,2.715,2.507c0.878,0.977,1.731,1.924,2.669,2.835
		c0.534,0.519,0.814,1.148,1.113,1.765c0.002,0.023,0,0.043,0.003,0.066c0.318,2.342,4.052,3.422,5.944,2.604
		c1.644-0.709,2.586-2.034,3.995-3.054c1.351-0.98,1.815-2.156,2.73-3.514c0.983-1.462,1.802-2.929,3.356-3.904
		c1.021-0.642,2.049-0.677,2.735-1.702c0.548-0.819,0.553-1.6,1.338-2.396c0.418-0.426,0.846-0.76,1.146-1.291
		c0.65-1.152,0.197-2.412,1.028-3.536c0.836-1.133,1.341-1.562,1.643-2.993c0.369-1.752,0.808-3.197,0.704-4.992
		c-0.109-1.864-0.268-3.385,0.083-5.242c0.314-1.657,0.192-3.341,0.465-5.003c0.275-1.674,0.07-3.577,0.479-5.185
		c0.096-0.38,0.253-0.742,0.428-1.098c0.042-0.026,0.083-0.054,0.122-0.088c0.362-0.2,0.562-0.633,0.596-1.03
		c0.01-0.119,0.007-0.231,0.01-0.346C100.877,129.422,101.026,128.842,100.927,128.199"/>
	<path clip-path="url(#SVGID_4_)" fill="#FFFFFF" d="M235.89,6.68c-1.628-1.225-4.235-1.585-6.229-1.584
		c-5.879,0.003-8.852,5.059-12.165,9.036c-1.518,1.822-2.416,4.011-3.322,6.198c-1.063,2.567-1.68,5.424-3.314,7.705
		c-1.865,2.603-3.154,5.588-5.085,8.128c-0.757,0.996-1.247,1.948-1.839,3.046c-0.681,1.267-1.658,2.345-2.417,3.562
		c-1.444,2.316-3.071,4.471-4.474,6.814c-0.699,1.169-1.67,2.096-2.389,3.24c-1.095,1.742-1.816,3.468-3.129,5.118
		c-1.886,2.369-4.082,4.398-5.902,6.84c-1.626,2.179-3.721,4.102-5.11,6.447c-0.9,1.518-1.534,3.255-2.263,4.927
		c-0.728,0.847-2.106,1.447-2.935,2.15c-1.33,1.129-2.587,2.619-3.389,4.175c-0.771,1.497-1.665,2.859-2.463,4.334
		c-0.924,1.709-1.607,3.541-2.667,5.171c-1.013,1.557-1.762,3.261-2.783,4.788c-1.173,1.754-2.39,3.411-3.399,5.273
		c-1.047,1.931-2.216,3.693-3.455,5.499c-0.944,1.378-1.918,3.169-3.324,4.198c-0.088-0.246-0.346-0.987-0.455-1.442
		c-0.215-0.899-0.436-1.751-0.796-2.604c-0.444-1.052-0.684-2.209-1.17-3.239c-0.299-0.636-0.83-1.125-1.151-1.745
		c-0.89-1.722-1.352-3.259-2.562-4.858c-1.229-1.624-1.899-3.4-3.021-5.047c-0.463-0.68-0.9-1.378-1.341-2.069
		c0.014-0.143,0.003-0.297-0.048-0.464c-0.41-1.363-1.845-2.055-2.554-3.254c-0.729-1.232-1.39-2.338-2.915-2.532
		c-0.325-0.041-0.622,0.118-0.836,0.359c-1.049-0.285-1.758,0.039-2.651,0.684c-1.032,0.746-2.646,0.731-3.038,2.28
		c-0.085,0.338-0.027,0.627,0.112,0.86c-0.244,0.56-0.644,1.357-0.79,1.748c-0.509,1.362-1.424,2.099-2.129,3.293
		c-1.06,1.798-1.789,3.772-2.764,5.617c-1.197,2.265-2.123,4.769-2.918,7.225c-0.749,2.316-1.672,4.663-2.353,7.008
		c-1.579,5.434-1.86,10.964-2.759,16.515c-0.387,2.388-0.439,4.718-0.602,7.125c-0.116,1.714-0.05,3.41-0.108,5.121
		c-0.068,1.979-0.768,3.766-1.114,5.694c-0.17,0.951-0.544,2.174-0.349,3.107c0.138,0.662,0.724,1.166,0.842,1.871
		c0.087,0.52,0.039,1.167,0.074,1.703c0.104,1.571-0.231,3.078-0.194,4.63c0.007,0.272,0.041,0.525,0.087,0.771
		c-0.172,0.181-0.295,0.422-0.321,0.727c-0.327,3.738-4.795,5.473-5.704,8.851c-0.178,0.661-0.425,1.285-0.708,1.896
		c-0.702,0.777-1.41,1.546-2.175,2.298c-0.747,0.734-1.277,1.538-1.616,2.466c-0.354,0.472-0.721,0.922-1.118,1.303
		c-1.303,1.25-2.63,2.25-3.667,3.72c-1.271,1.798-2.932,3.237-4.346,4.91c-1.231,1.455-2.269,3.035-3.531,4.471
		c-1.403,1.595-2.926,2.972-4.579,4.312c-0.809,0.655-1.577,1.332-2.351,2.026c-0.78,0.701-1.887,1.153-2.557,1.974
		c-1.034,1.264-1.665,2.598-2.942,3.726c-1.449,1.278-3.102,2.261-4.658,3.405c-1.808,1.328-3.294,3.2-5.158,4.396
		c-2.044,1.312-4.648,1.728-6.616,3.114c-1.466,1.033-2.708,2.394-3.849,3.774c-1.128,1.364-2.435,2.498-3.775,3.687
		c-1.077,0.954-2.356,1.766-3.398,2.749c-0.648,0.611-1.103,1.39-1.721,2.039c-1.038,1.089-1.924,1.868-2.336,3.34
		c-0.363,1.296-0.433,1.707-1.405,2.606c-0.664,0.614-1.354,1.19-2.064,1.748c-1.607,1.259-3.397,2.735-4.556,4.443
		c-1.128,1.665-1.612,3.785-2.634,5.552c-1.286,2.226-2.45,4.362-3.306,6.782c-0.604,1.71-3.166,3.508-2.667,5.535
		c0.065,0.265,0.179,0.517,0.326,0.755c-0.002,0.288,0.091,0.57,0.304,0.777c0.994,2.155,3.466,2.281,5.274,3.586
		c1.116,0.805,2.262,1.555,3.41,2.355c1.204,0.841,2.154,0.354,3.418,0.784c0.891,0.306,1.412,1.215,2.439,1.058
		c0.466-0.071,0.86-0.535,1.232-0.77c0.751-0.469,1.549-0.813,2.341-1.212c1.377-0.69,2.587-1.578,4.081-2.03
		c1.513-0.458,3.099-0.666,4.571-1.312c1.562-0.688,2.352-2.193,3.815-3.07c1.351-0.808,2.485-1.761,3.795-2.595
		c2.428-1.545,3.974-4.438,5.817-6.628c0.892-1.061,1.743-2.345,2.719-3.317c0.446-0.443,0.999-0.771,1.332-1.327
		c0.823-1.378,0.54-2.209,1.899-3.412c1.514-1.341,2.974-3.463,3.961-5.217c0.676-1.203,1.311-2.348,1.684-3.692
		c0.421-1.514,1.08-2.761,1.651-4.217c1.19-3.033,3.369-5.484,5.404-7.977c2.326-2.847,3.877-6.111,6.188-8.986
		c1.161-1.443,2.574-2.628,3.75-4.049c1.218-1.471,2.049-3.221,3.199-4.753c4.307-5.735,9.387-10.826,14.004-16.262
		c1.071-1.263,1.58-2.866,2.429-4.242c0.581-0.944,1.516-1.315,2.361-1.927c0.275,0.201,0.599,0.436,0.588,0.43
		c1.168,0.717,2.498,1.325,3.541,2.224c0.393,0.341,0.859,0.799,1.207,1.175c0.783,0.845,0.653,1.272,1.053,2.215
		c0.562,1.32,2.066,2.047,3.2,2.794c1.558,1.024,2.505,1.243,4.388,1.433c3.785,0.383,7.236-1.549,8.444-5.331
		c0.286-0.895,0.403-1.914,0.452-2.849c0.058-1.1-0.31-2.251,0.26-3.26c0.854-1.51,2.819-1.968,3.511-3.503
		c0.637-1.413-0.231-2.871,0.508-4.246c0.839-1.561,1.972-2.496,2.159-4.064c0.965-0.39,0.646-1.858-0.318-2.151
		c0.039-1.118,0.351-2.032,0.272-3.242c-0.138-2.115-0.237-4.105-0.16-6.229c0.064-1.779,0.056-3.18-0.403-4.898
		c-0.511-1.91-1.375-4.222-0.532-6.182c0.223-0.518,0.532-0.886,0.66-1.455c0.03-0.601,0.057-1.202,0.082-1.803
		c0.227-0.442,0.544-0.795,0.951-1.061c1.042-1.126,1.617-2.234,2.317-3.58c0.708-1.362,1.707-2.662,2.228-4.114
		c0.512-1.428,0.214-2.715,0.088-4.158c-0.18-2.06,0.858-2.887,2.226-4.22c0.824-0.803,1.062-1.737,1.731-2.513
		c1.01-1.17,2.458-1.711,3.198-3.146c0.804-1.557,1.167-3.117,2.225-4.583c1.029-1.424,2.614-2.197,3.59-3.597
		c1.017-1.46,1.074-2.931,2.285-4.265c0.87-0.959,1.481-1.965,2.049-3.097c0.242-0.482,0.239-0.563,0.722-1.013
		c0.199-0.186,1.428-0.948,0.661-0.779c0.382-0.084,0.73-0.44,0.819-0.818l0.022-0.095c0.079-0.335,0.021-0.625-0.118-0.856
		c0.384-0.844,0.742-1.708,1.294-2.437c0.984-1.3,2.333-2.319,3.106-3.797c0.724-1.385,1.062-2.687,2.113-3.909
		c1.246-1.447,2.678-2.798,3.797-4.35c0.729-1.012,1.089-2.166,1.969-3.095c1.172-1.235,2.208-1.764,2.643-3.487
		c0.364-1.44,0.506-2.296,1.758-3.286c0.448-0.355,0.908-0.627,1.282-1.072c0.875-1.042,1.595-2.342,2.193-3.559
		c0.911-1.852,2.267-3.082,3.589-4.625c0.979-1.143,1.96-2.377,3.073-3.39c1.157-1.055,2.798-1.663,3.797-2.87
		c1.004-1.21,1.633-2.781,2.461-4.111c0.835-1.342,2.095-2.363,2.855-3.779c0.179-0.335,0.269-0.663,0.322-0.988
		c0.368-0.335,0.726-0.677,1.019-1.115c0.6-0.903,0.928-1.968,1.287-2.979c0.038-0.106,0.088-0.206,0.131-0.31
		c0.362-0.256,0.691-0.554,0.912-0.965c0.153-0.285,0.189-0.611,0.109-0.909c0.802-1.201,1.743-2.325,2.366-3.679
		c1.11-2.407,3.591-4.229,5.105-6.451c1.559-2.288,3.298-4.492,5.062-6.639c1.947-2.372,5.343-2.17,6.836-5.207
		c1.202-2.445,1.229-4.842,1.247-7.529C238.228,10.381,237.981,8.254,235.89,6.68"/>
</g>
</svg>
