<?xml version="1.0" standalone="no"?>
<!DOCTYPE svg PUBLIC "-//W3C//DTD SVG 20010904//EN"
 "http://www.w3.org/TR/2001/REC-SVG-20010904/DTD/svg10.dtd">
<svg version="1.0" xmlns="http://www.w3.org/2000/svg"
 width="260.000000pt" height="260.000000pt" viewBox="0 0 260.000000 260.000000"
 preserveAspectRatio="xMidYMid meet">
<metadata>
Created by potrace 1.11, written by Peter Selinger 2001-2013
</metadata>
<g transform="translate(0.000000,260.000000) scale(0.100000,-0.100000)"
fill="#000000" stroke="none">
<path d="M0 1300 l0 -1300 1300 0 1300 0 0 1300 0 1300 -1300 0 -1300 0 0
-1300z m659 832 l515 -157 58 -145 c32 -79 57 -147 56 -150 -2 -3 -255 128
-562 292 -308 164 -561 296 -563 294 -2 -1 240 -153 537 -336 297 -184 538
-335 536 -338 -3 -2 -73 -14 -157 -27 l-153 -24 -37 32 c-119 102 -757 702
-753 709 3 4 6 8 7 8 1 0 233 -71 516 -158z m1801 143 c-1 -8 -713 -674 -771
-722 -11 -9 -49 -6 -167 11 -84 13 -154 25 -157 28 -3 2 238 154 535 338 297
183 539 335 537 337 -2 1 -255 -131 -563 -295 -307 -164 -560 -295 -562 -292
-1 3 24 71 56 150 l58 145 510 156 c280 86 513 156 517 155 5 -1 8 -6 7 -11z
m-1199 -832 c1 -199 37 -1159 44 -1175 4 -11 3 -18 -4 -18 -6 0 -11 2 -11 5 0
2 -52 257 -115 565 -63 309 -115 569 -115 578 1 14 167 127 193 131 4 1 7 -38
8 -86z m187 26 l99 -60 -68 -332 c-38 -183 -90 -438 -116 -567 -26 -129 -49
-226 -52 -215 -4 20 31 1235 35 1235 2 0 47 -27 102 -61z"/>
</g>
</svg>
