<?xml version="1.0" encoding="UTF-8"?>
<svg width="52px" height="15px" viewBox="0 0 52 15" version="1.1" xmlns="http://www.w3.org/2000/svg" xmlns:xlink="http://www.w3.org/1999/xlink">
    <!-- Generator: Sketch 52.6 (67491) - http://www.bohemiancoding.com/sketch -->
    <title>Group</title>
    <desc>Created with Sketch.</desc>
    <g id="Page-1" stroke="none" stroke-width="1" fill="none" fill-rule="evenodd">
        <g id="HBZcoin-Copy-3" transform="translate(-109.000000, -34.000000)" fill="#9E9071">
            <g id="Group" transform="translate(109.000000, 34.000000)">
                <path d="M10.5247129,15 L10.5247129,8.70314843 L3.27026091,8.70314843 L3.27026091,15 L0,15 L0,0 L3.27026091,0 L3.27026091,5.89205397 L10.5247129,5.89205397 L10.5247129,0 L13.8180038,0 L13.8180038,15 L10.5247129,15 Z M20.797994,15 L20.797994,0 L28.8815262,0 C31.806337,0 33.3032874,1.82158921 33.3032874,3.82308846 C33.3032874,5.71214393 32.1057271,6.97151424 30.6548367,7.26386807 C32.2899672,7.51124438 33.6026775,9.06296852 33.6026775,10.952024 C33.6026775,13.2008996 32.0596671,15 29.1348563,15 L20.797994,15 Z M24.0682549,6.02698651 L28.167596,6.02698651 C29.2730363,6.02698651 29.9639365,5.32983508 29.9639365,4.36281859 C29.9639365,3.44077961 29.2730363,2.72113943 28.167596,2.72113943 L24.0682549,2.72113943 L24.0682549,6.02698651 Z M24.0682549,12.2788606 L28.282746,12.2788606 C29.5263664,12.2788606 30.2633266,11.5817091 30.2633266,10.5022489 C30.2633266,9.55772114 29.5724264,8.74812594 28.282746,8.74812594 L24.0682549,8.74812594 L24.0682549,12.2788606 Z M39.4772273,15 L39.4772273,12.4137931 L46.7316794,2.81109445 L39.4772273,2.81109445 L39.4772273,0 L51.0152605,0 L51.0152605,2.56371814 L43.7608085,12.1889055 L51.1764706,12.1889055 L51.1764706,15 L39.4772273,15 Z" id="HBZ-Copy"></path>
            </g>
        </g>
    </g>
</svg>