<?xml version="1.0" encoding="utf-8"?>
<!-- Generator: Adobe Illustrator 22.1.0, SVG Export Plug-In . SVG Version: 6.00 Build 0)  -->
<svg version="1.1" id="Layer_1" xmlns="http://www.w3.org/2000/svg" xmlns:xlink="http://www.w3.org/1999/xlink" x="0px" y="0px"
	 viewBox="0 0 70 78" enable-background="new 0 0 70 78" width="70" height="78" xml:space="preserve">
<g>
	<g transform="translate(-928 -1251)">
		<g>
			<g>
				<path id="uedca" fill="#2BE2B3" d="M928,1317h4v-66h-4V1317z"/>
			</g>
		</g>
		<g>
			<g>
				<path id="uedcb" fill="#2BE2B3" d="M994,1317h4v-66h-4V1317z"/>
			</g>
		</g>
		<g>
			<g>
				<path id="uedcc" fill="#2BE2B3" d="M990,1317h-4.1v-30.9H930v-4.1h60V1317z"/>
			</g>
		</g>
		<g>
			<g>
				<path id="uedcd" fill="#2BE2B3" d="M982,1317h-4v-22.8h-47v-4.2h51V1317z"/>
			</g>
		</g>
		<g>
			<g>
				<path id="uedce" fill="#2BE2B3" d="M974,1317h-4.1v-14H931v-4h43V1317z"/>
			</g>
		</g>
		<g>
			<g>
				<path id="uedcf" fill="#2BE2B3" d="M953,1317h4v-16h-4V1317z"/>
			</g>
		</g>
		<g>
			<g>
				<path id="uedcg" fill="#2BE2B3" d="M944,1317h4v-15h-4V1317z"/>
			</g>
		</g>
		<g>
			<g>
				<path id="uedch" fill="#2BE2B3" d="M936,1317h4v-16h-4V1317z"/>
			</g>
		</g>
		<g>
			<g>
				<path id="uedci" fill="#2BE2B3" d="M936,1251v35h60v-4.1h-55.9V1251H936z"/>
			</g>
		</g>
		<g>
			<g>
				<path id="uedcj" fill="#2BE2B3" d="M945,1251v27h51v-4.2h-47V1251H945z"/>
			</g>
		</g>
		<g>
			<g>
				<path id="uedck" fill="#2BE2B3" d="M995,1269h-43v-18h4.1v14H995V1269z"/>
			</g>
		</g>
		<g>
			<g>
				<path id="uedcl" fill="#2BE2B3" d="M969,1267h4v-16h-4V1267z"/>
			</g>
		</g>
		<g>
			<g>
				<path id="uedcm" fill="#2BE2B3" d="M978,1266h4v-15h-4V1266z"/>
			</g>
		</g>
		<g>
			<g>
				<path id="uedcn" fill="#2BE2B3" d="M986,1267h4v-16h-4V1267z"/>
			</g>
		</g>
		<g>
			<g>
				<path id="uedco" fill="#2BE2B3" d="M933.6,1321v2.7h-3.3v-2.7H928v8h2.4v-2.8h3.3v2.8h2.4v-8H933.6z"/>
			</g>
		</g>
		<g>
			<g>
				<path id="uedcp" fill="#2BE2B3" d="M953.2,1321H952v8h9v-2.3h-6.5v-3.5h6.5v-2.3H953.2z"/>
			</g>
		</g>
		<g>
			<g>
				<path id="uedcq" fill="#2BE2B3" d="M995.6,1321v3.4l-3.3-3.4l0,0v0H990v8h2.4v-3.6l3.3,3.6h2.4v-8H995.6z"/>
			</g>
		</g>
		<g>
			<g>
				<path id="uedcr" fill="#2BE2B3" d="M971.4,1321v2.7h-3.9v-2.7H965v8h2.6v-2.8h3.9v2.8h2.6v-2.9h-2.4l2.4-2.4v-2.7H971.4z"/>
			</g>
		</g>
		<path fill="#2BE2B3" d="M947.6,1321L947.6,1321l-7.3,0H940v8h2.3v-1.7h3.3v1.7h2.3v-8H947.6z M945.7,1324.9h-3.3v-1.6h3.3V1324.9z
			"/>
		<g>
			<g>
				<path id="uedct" fill="#2BE2B3" d="M978.7,1321H978v8h0.6v0h7.3v-2.3h-5.7v-0.6h5.7v-2.3h-5.7v-0.6h5.7v-2.3H978.7z"/>
			</g>
		</g>
	</g>
</g>
</svg>
