<svg height="61.021" viewBox="0 0 197.439 61.021" width="197.439" xmlns="http://www.w3.org/2000/svg" xmlns:xlink="http://www.w3.org/1999/xlink"><clipPath id="a"><path d="m0-56.024h197.44v61.024h-197.44z" transform="translate(0 56.024)"/></clipPath><g clip-path="url(#a)" fill="#03a2de"><path d="m.265 0a.481.481 0 0 1 .544.544v6.43h11.573v-6.43a.481.481 0 0 1 .543-.544h2.675c.379 0 .569.182.569.544v16.223q0 .544-.569.545h-2.675a.481.481 0 0 1 -.544-.545v-6.577h-11.572v6.578a.481.481 0 0 1 -.544.545h-2.665q-.57 0-.57-.545v-16.224c0-.362.19-.544.57-.544z" transform="translate(67.889 11.87)"/><path d="m1.193 0a12.409 12.409 0 0 1 3.2.359 4.965 4.965 0 0 1 2.153 1.141 4.458 4.458 0 0 1 1.2 2.015 10.623 10.623 0 0 1 .37 3.018v4.253a10.746 10.746 0 0 1 -.37 3.029 4.453 4.453 0 0 1 -1.2 2.027 4.873 4.873 0 0 1 -2.151 1.126 12.806 12.806 0 0 1 -3.2.346h-7.643a12.647 12.647 0 0 1 -3.189-.346 4.865 4.865 0 0 1 -2.138-1.126 4.54 4.54 0 0 1 -1.212-2.027 10.442 10.442 0 0 1 -.382-3.029v-4.256a10.322 10.322 0 0 1 .382-3.018 4.546 4.546 0 0 1 1.212-2.012 4.958 4.958 0 0 1 2.138-1.141 12.256 12.256 0 0 1 3.189-.359zm-10.78 10.511a6.949 6.949 0 0 0 .16 1.62 2.22 2.22 0 0 0 .527 1.039 2.061 2.061 0 0 0 1 .544 6.615 6.615 0 0 0 1.595.161h7.35a6.621 6.621 0 0 0 1.595-.161 2.053 2.053 0 0 0 1-.544 2.211 2.211 0 0 0 .533-1.039 6.949 6.949 0 0 0 .16-1.62v-3.711a6.953 6.953 0 0 0 -.16-1.621 2.216 2.216 0 0 0 -.533-1.037 2.061 2.061 0 0 0 -1-.544 6.621 6.621 0 0 0 -1.595-.161h-7.345a6.615 6.615 0 0 0 -1.593.163 2.07 2.07 0 0 0 -1 .544 2.225 2.225 0 0 0 -.532 1.039 6.953 6.953 0 0 0 -.162 1.617z" transform="translate(100.484 11.87)"/><path d="m.36 0a8.27 8.27 0 0 1 .989.05 1.91 1.91 0 0 1 .691.21 2.307 2.307 0 0 1 .57.44 7.848 7.848 0 0 1 .619.755l9.2 12.067a.338.338 0 0 0 .321.174h.223c.132 0 .2-.082.2-.247v-12.905a.481.481 0 0 1 .539-.544h2.6a.481.481 0 0 1 .544.544v14.2a2.869 2.869 0 0 1 -.544 2.04 2.328 2.328 0 0 1 -1.682.532h-2.13a7.465 7.465 0 0 1 -.952-.05 2.081 2.081 0 0 1 -.681-.2 2.226 2.226 0 0 1 -.581-.432 7.277 7.277 0 0 1 -.655-.779l-9.221-12.071a.421.421 0 0 0 -.321-.172h-.223c-.132 0-.2.082-.2.247v12.908a.48.48 0 0 1 -.544.545h-2.6q-.569 0-.569-.545v-14.194a2.868 2.868 0 0 1 .547-2.04 2.325 2.325 0 0 1 1.685-.533z" transform="translate(115.704 11.87)"/><path d="m1.458 0c.379 0 .569.182.569.544v2.35q0 .544-.569.544h-10.8a6.615 6.615 0 0 0 -1.595.161 2.157 2.157 0 0 0 -1.015.544 2.1 2.1 0 0 0 -.532 1.039 7.549 7.549 0 0 0 -.151 1.618v.247h13.97a.481.481 0 0 1 .545.544v1.955a.482.482 0 0 1 -.545.545h-13.97v.42a7.545 7.545 0 0 0 .147 1.62 2.1 2.1 0 0 0 .532 1.039 2.147 2.147 0 0 0 1.015.544 6.615 6.615 0 0 0 1.595.161h10.8c.379 0 .569.182.569.544v2.349q0 .544-.569.545h-10.876a12.647 12.647 0 0 1 -3.189-.346 4.865 4.865 0 0 1 -2.138-1.126 4.519 4.519 0 0 1 -1.211-2.027 10.4 10.4 0 0 1 -.383-3.029v-4.255a10.282 10.282 0 0 1 .383-3.018 4.525 4.525 0 0 1 1.211-2.012 4.958 4.958 0 0 1 2.138-1.141 12.256 12.256 0 0 1 3.189-.359z" transform="translate(151.993 11.87)"/><path d="m1.432 0a.481.481 0 0 1 .545.544v2.35a.48.48 0 0 1 -.545.544h-12.388a1.228 1.228 0 0 0 -1.014.371 1.583 1.583 0 0 0 -.3 1.014v.841q0 1.385 1.285 1.385h9.272a4.364 4.364 0 0 1 3.239 1.1 4.3 4.3 0 0 1 1.092 3.151v1.978a4.051 4.051 0 0 1 -1.062 2.922 4.4 4.4 0 0 1 -3.313 1.113h-13.7q-.569 0-.569-.545v-2.35c0-.362.19-.544.569-.544h12.982a1.228 1.228 0 0 0 1.014-.374 1.583 1.583 0 0 0 .3-1.014v-1.011q0-1.384-1.285-1.384h-9.272a4.361 4.361 0 0 1 -3.239-1.1 4.3 4.3 0 0 1 -1.087-3.152v-1.808a4.047 4.047 0 0 1 1.063-2.918 4.392 4.392 0 0 1 3.307-1.113z" transform="translate(172.619 11.87)"/><path d="m1.628 0c.379 0 .572.182.572.544v2.424a.5.5 0 0 1 -.569.569h-7.767v13.23a.481.481 0 0 1 -.544.545h-2.7a.481.481 0 0 1 -.544-.545v-13.23h-7.764a.5.5 0 0 1 -.569-.569v-2.424c0-.362.188-.544.569-.544z" transform="translate(195.243 11.87)"/><path d="m.033 4.98-.043-51.954h.007l.003-.958 18.6 10.74-.023 23.5-4.216 2.428-.147-23.4-2.914-1.676v26.84l-4.139 2.386v-31.618l-2.784-1.608.038 37.969 16.815-9.683a.2.2 0 0 0 .089-.159l.028-26.467a.188.188 0 0 0 -.091-.16l-16.55-9.45a4.01 4.01 0 0 1 -.61.144 3.863 3.863 0 0 1 -4.422-3.206 3.864 3.864 0 0 1 3.208-4.423 3.868 3.868 0 0 1 4.423 3.209 3.88 3.88 0 0 1 .03.964l16.792 9.59a3.047 3.047 0 0 1 1.405 2.438l-.032 28.262a2.784 2.784 0 0 1 -.405 1.39 2.827 2.827 0 0 1 -1 1.045zm4.637-57.128a1.2 1.2 0 0 0 -1.37-.992 1.2 1.2 0 0 0 -.994 1.369 1.2 1.2 0 0 0 1.37.994 1.2 1.2 0 0 0 .993-1.371" fill-rule="evenodd" transform="translate(28.36 55.824)"/><path d="m1.763 4.966a3.9 3.9 0 0 1 -3.492-4.066l-16.6-9.584a3.038 3.038 0 0 1 -1.408-2.429l-.032-28.265a3.038 3.038 0 0 1 1.405-2.434l23.95-13.86.184 49.764-.033 3.108-4.271-2.461.013-18.239h-9.913v12.526l-4.378-2.526-.025-23.5 4.4-2.475v11.767h9.919l.018-20.761-16.987 9.831a.177.177 0 0 0 -.087.16l.025 26.468a.178.178 0 0 0 .091.156l16.158 9.333a3.868 3.868 0 0 1 1.863-.265 3.9 3.9 0 1 1 -.8 7.752m1.578-3.754a1.184 1.184 0 1 0 -1.3 1.055 1.182 1.182 0 0 0 1.3-1.055" fill-rule="evenodd" transform="translate(19.764 56.034)"/><path d="m.379 0a4.56 4.56 0 0 1 .888.075 1.627 1.627 0 0 1 .655.285 2.065 2.065 0 0 1 .5.571 6.2 6.2 0 0 1 .454.954l4.866 11.905a.329.329 0 0 0 .327.222h.281a.332.332 0 0 0 .328-.222l4.861-11.905a6.08 6.08 0 0 1 .461-.954 2.028 2.028 0 0 1 .5-.571 1.614 1.614 0 0 1 .644-.285 4.377 4.377 0 0 1 .873-.075h2.5a1.908 1.908 0 0 1 1.635.584 3.521 3.521 0 0 1 .42 2v14.231a.478.478 0 0 1 -.537.546h-2.382c-.342 0-.514-.182-.514-.546v-12.945c0-.164-.062-.248-.187-.248h-.209a.29.29 0 0 0 -.3.2l-4.723 11.11a7.243 7.243 0 0 1 -.572 1.127 3.453 3.453 0 0 1 -.631.757 1.966 1.966 0 0 1 -.772.423 3.737 3.737 0 0 1 -1.017.123h-1.128a3.746 3.746 0 0 1 -1.016-.123 1.966 1.966 0 0 1 -.772-.423 3.486 3.486 0 0 1 -.632-.757 7.54 7.54 0 0 1 -.572-1.127l-4.721-11.111a.288.288 0 0 0 -.3-.2h-.213c-.125 0-.187.084-.187.248v12.946q0 .546-.515.546h-2.384a.479.479 0 0 1 -.538-.546v-14.236a3.529 3.529 0 0 1 .422-2 1.938 1.938 0 0 1 1.657-.579z" transform="translate(69.165 32.302)"/><path d="m.251 0c.343 0 .513.183.513.546v16.269c0 .364-.17.546-.513.546h-2.525a.479.479 0 0 1 -.537-.546v-16.269a.479.479 0 0 1 .537-.546z" transform="translate(98.88 32.302)"/><path d="m.341 0a7.37 7.37 0 0 1 .935.05 1.769 1.769 0 0 1 .654.211 2.228 2.228 0 0 1 .538.445 7.743 7.743 0 0 1 .585.757l8.7 12.1a.321.321 0 0 0 .3.173h.211c.125 0 .187-.083.187-.247v-12.943c0-.363.171-.546.514-.546h2.453c.343 0 .515.183.515.546v14.237a3 3 0 0 1 -.515 2.046 2.119 2.119 0 0 1 -1.589.533h-2.01a6.877 6.877 0 0 1 -.9-.049 1.95 1.95 0 0 1 -.643-.2 2.154 2.154 0 0 1 -.55-.435 7.32 7.32 0 0 1 -.619-.781l-8.719-12.097a.39.39 0 0 0 -.3-.174h-.214c-.125 0-.187.084-.187.248v12.941q0 .546-.515.546h-2.454a.479.479 0 0 1 -.538-.546v-14.236a3 3 0 0 1 .514-2.044 2.111 2.111 0 0 1 1.589-.535z" transform="translate(109.723 32.302)"/><path d="m.251 0c.343 0 .513.183.513.546v16.269c0 .364-.17.546-.513.546h-2.526a.478.478 0 0 1 -.537-.546v-16.269a.479.479 0 0 1 .537-.546z" transform="translate(134.885 32.302)"/><path d="m.341 0a7.37 7.37 0 0 1 .935.05 1.775 1.775 0 0 1 .654.211 2.2 2.2 0 0 1 .537.445 7.577 7.577 0 0 1 .585.757l8.7 12.1a.324.324 0 0 0 .3.173h.21c.125 0 .187-.083.187-.247v-12.943c0-.363.172-.546.515-.546h2.453c.343 0 .514.183.514.546v14.237a3 3 0 0 1 -.514 2.046 2.119 2.119 0 0 1 -1.589.533h-2.01a6.866 6.866 0 0 1 -.9-.049 1.965 1.965 0 0 1 -.644-.2 2.173 2.173 0 0 1 -.55-.435 7.472 7.472 0 0 1 -.618-.781l-8.719-12.097a.39.39 0 0 0 -.3-.174h-.213c-.125 0-.187.084-.187.248v12.941q0 .546-.515.546h-2.455a.478.478 0 0 1 -.537-.546v-14.236a3 3 0 0 1 .513-2.044 2.112 2.112 0 0 1 1.59-.535z" transform="translate(145.768 32.302)"/><path d="m1.507 0c.343 0 .515.183.515.546v2.431q0 .57-.515.571h-11.707a5.942 5.942 0 0 0 -1.507.16 1.922 1.922 0 0 0 -.947.547 2.251 2.251 0 0 0 -.5 1.028 7.31 7.31 0 0 0 -.154 1.637v3.572a7.492 7.492 0 0 0 .154 1.65 2.254 2.254 0 0 0 .5 1.04 1.922 1.922 0 0 0 .947.547 5.942 5.942 0 0 0 1.507.16h7.714a1.1 1.1 0 0 0 .89-.333 1.882 1.882 0 0 0 .279-1.18v-2.009c0-.215-.093-.321-.279-.321h-6.85q-.515 0-.515-.572v-1.859q0-.57.515-.57h9.746q.7 0 .7.744v5.778a4.488 4.488 0 0 1 -.747 2.939 2.709 2.709 0 0 1 -2.153.855h-9.443a11.339 11.339 0 0 1 -3.015-.346 4.533 4.533 0 0 1 -2.022-1.13 4.614 4.614 0 0 1 -1.146-2.034 11.032 11.032 0 0 1 -.363-3.037v-4.266a10.91 10.91 0 0 1 .363-3.026 4.619 4.619 0 0 1 1.145-2.022 4.611 4.611 0 0 1 2.021-1.139 10.944 10.944 0 0 1 3.015-.361z" transform="translate(184.425 32.302)"/></g></svg>