<?xml version="1.0" encoding="iso-8859-1"?>
<!-- Generator: Adobe Illustrator 19.0.0, SVG Export Plug-In . SVG Version: 6.00 Build 0)  -->
<svg version="1.1" id="Layer_1" xmlns="http://www.w3.org/2000/svg" xmlns:xlink="http://www.w3.org/1999/xlink" x="0px" y="0px"
	 viewBox="0 0 500 500" style="enable-background:new 0 0 500 500;" xml:space="preserve">
<linearGradient id="SVGID_1_" gradientUnits="userSpaceOnUse" x1="189.5359" y1="127.137" x2="382.146" y2="128.7158">
	<stop  offset="0" style="stop-color:#0B65C1"/>
	<stop  offset="1" style="stop-color:#2AE4E8"/>
</linearGradient>
<path style="fill:url(#SVGID_1_);" d="M307.439,10.681c6.068,1.003,12.197,1.736,18.193,3.064
	c13.689,3.031,23.256,11.968,31.458,22.699c18.05,23.614,26.329,50.38,24.66,79.942c-1.911,33.853-14.312,63.594-36.892,88.994
	c-17.848,20.077-39.856,33.18-66.043,39.179c-4.66,1.067-9.603,1.354-13.06-2.579c-3.466-3.943-2.736-8.76-1.159-13.449
	c11.937-35.481,9.874-70.221-5.606-104.229c-7.808-17.154-18.62-32.326-31.877-45.559c-21.58-21.541-48.107-33.316-78.177-37.095
	c-8.391-1.054-16.932-0.923-25.405-1.325c-0.773-0.037-1.549-0.005-3.547-0.005c10.647-4.553,20.13-8.172,30.57-9.541
	c21.25-2.788,42.396-6.37,63.586-9.624c20.714-3.181,41.425-6.376,62.143-9.526c2.83-0.43,5.694-0.635,8.543-0.945
	C292.364,10.681,299.902,10.681,307.439,10.681z"/>
<linearGradient id="SVGID_2_" gradientUnits="userSpaceOnUse" x1="116.2427" y1="370.2396" x2="374.7148" y2="370.2396">
	<stop  offset="0" style="stop-color:#F0F9FA"/>
	<stop  offset="1" style="stop-color:#AFDCE5"/>
</linearGradient>
<path style="fill:url(#SVGID_2_);" d="M198.488,487.188c-5.703-0.606-11.403-1.239-17.109-1.815
	c-21.957-2.217-36.128-15.323-47.107-33.224c-12.727-20.751-18.945-43.252-17.921-67.487c1.393-32.964,12.821-62.236,34.012-87.612
	c17.952-21.497,40.399-35.863,67.679-42.5c2.452-0.597,4.972-1.18,7.475-1.25c10.431-0.291,14.821,6.067,10.91,15.833
	c-6.356,15.87-9.055,32.461-9.049,49.408c0.006,18.813,3.777,37.001,11.237,54.351c8.045,18.713,19.186,35.435,33.496,49.849
	c18.251,18.382,40.498,29.937,65.779,35.033c11.403,2.298,23.195,2.666,34.811,3.906c0.578,0.062,1.159,0.092,1.738,0.138
	c0.092,0.451,0.184,0.902,0.275,1.353c-9.08,2.237-18.053,5.176-27.261,6.565c-19.893,3.001-39.908,5.183-59.868,7.743
	c-22.744,2.917-45.478,5.903-68.225,8.799c-3.648,0.464-7.336,0.615-11.006,0.91C205.066,487.188,201.777,487.188,198.488,487.188z"
	/>
<linearGradient id="SVGID_3_" gradientUnits="userSpaceOnUse" x1="268.1836" y1="171.5176" x2="496.5623" y2="171.5176">
	<stop  offset="0" style="stop-color:#F0F9FA"/>
	<stop  offset="1" style="stop-color:#AFDCE5"/>
</linearGradient>
<path style="fill:url(#SVGID_3_);" d="M496.562,210.082c-1.31,12.322-5.742,23.615-11.478,34.451
	c-11.288,21.322-27.758,37.543-48.925,48.958c-17.005,9.171-35.1,15.125-54.415,16.758c-37.154,3.141-71.001-5.198-100.035-29.587
	c-3.138-2.636-6.118-5.496-8.919-8.489c-3.123-3.338-5.708-7.277-4.127-12.027c1.541-4.627,5.78-6.273,10.194-7.705
	c10.716-3.476,21.837-6.235,31.88-11.151c33.769-16.532,56.485-43.387,70.273-78.141c6.615-16.672,10.634-33.836,10.251-51.827
	c-0.425-19.969-4.709-39.127-13.42-57.151c-3.622-7.494-7.813-14.713-11.725-22.018c0.146,0.065,0.551,0.173,0.875,0.397
	c8.998,6.22,16.86,13.494,23.799,22.101c14.426,17.893,29.696,35.101,44.376,52.792c14.632,17.633,29.353,35.217,43.284,53.398
	c7.966,10.396,13.592,22.349,16.826,35.208c0.678,2.696,0.869,5.515,1.285,8.277C496.562,206.244,496.562,208.163,496.562,210.082z"
	/>
<linearGradient id="SVGID_4_" gradientUnits="userSpaceOnUse" x1="5.0766" y1="327.1882" x2="234.8899" y2="327.1882">
	<stop  offset="0" style="stop-color:#0B65C1"/>
	<stop  offset="1" style="stop-color:#2AE4E8"/>
</linearGradient>
<path style="fill:url(#SVGID_4_);" d="M130.718,467.259c-5.972-5.44-12.735-10.234-17.782-16.427
	c-26.558-32.585-52.729-65.487-78.934-98.359c-9.253-11.607-16.932-24.186-23.153-37.724c-8.177-17.796-7.396-35.106,0.629-52.757
	c16.286-35.819,43.991-58.114,81.237-68.834c35.664-10.265,70.497-7.608,103.83,9.232c13.192,6.665,24.794,15.626,34.439,26.886
	c7.377,8.612,3.947,17.137-7.298,19.183c-25.81,4.697-48.311,16.151-67.596,33.854c-25.225,23.156-40.406,52.036-46.403,85.456
	c-4.984,27.772-0.092,54.554,11.818,80.029c2.977,6.368,6.535,12.465,9.825,18.687C131.126,466.742,130.922,467.001,130.718,467.259
	z"/>
<linearGradient id="SVGID_5_" gradientUnits="userSpaceOnUse" x1="233.5701" y1="348.8557" x2="497" y2="348.8557">
	<stop  offset="0" style="stop-color:#0B65C1"/>
	<stop  offset="1" style="stop-color:#2AE4E8"/>
</linearGradient>
<path style="fill:url(#SVGID_5_);" d="M497,246.564c-2.008,8.184-3.126,16.715-6.173,24.492
	c-15.316,39.098-31.032,78.04-46.824,116.949c-6.945,17.111-15.996,33.051-28.755,46.601c-8.907,9.459-20.298,13.838-32.941,15.603
	c-36.002,5.027-67.91-4.481-95.792-27.418c-29.719-24.449-47.307-55.902-52.073-94.143c-2.195-17.61-0.202-35.019,5.512-51.886
	c1.483-4.378,3.779-8.523,8.838-9.424c5.274-0.939,8.927,2.214,12.117,5.939c0.534,0.624,1.052,1.262,1.593,1.88
	c15.501,17.668,34.386,30.384,56.378,38.571c18.11,6.742,36.879,9.279,56.096,8.54c35.04-1.348,65.998-12.714,91.541-37.46
	c11.466-11.108,20.965-23.617,28.554-37.622c0.186-0.343,0.417-0.662,0.628-0.992C496.134,246.317,496.567,246.44,497,246.564z"/>
<linearGradient id="SVGID_6_" gradientUnits="userSpaceOnUse" x1="3" y1="153.7416" x2="264.7433" y2="153.7416">
	<stop  offset="0" style="stop-color:#F0F9FA"/>
	<stop  offset="1" style="stop-color:#AFDCE5"/>
</linearGradient>
<path style="fill:url(#SVGID_6_);" d="M3,255.745c1.785-7.528,2.81-15.34,5.49-22.535c10.209-27.405,20.819-54.664,31.544-81.874
	c7.229-18.34,14.323-36.772,22.569-54.659c6.088-13.205,14.459-25.211,26.32-34.219c8.716-6.62,19.012-8.942,29.564-10.223
	c36.002-4.369,67.556,5.994,95.067,29.224c27.142,22.918,43.656,52.007,49.623,86.989c3.164,18.552,1.378,36.845-3.978,54.829
	c-0.175,0.589-0.424,1.157-0.652,1.73c-4.065,10.229-12.643,11.632-19.874,3.337c-24.107-27.654-54.57-43.524-90.91-47.244
	c-28.905-2.959-57.042,0.816-83.215,14.385c-22.802,11.821-40.568,29.151-54.179,50.832c-2.048,3.262-3.972,6.602-5.953,9.906
	C3.945,256.065,3.472,255.905,3,255.745z"/>
</svg>
