<?xml version="1.0" encoding="UTF-8"?>
<svg width="160px" height="75px" viewBox="0 0 160 75" version="1.1" xmlns="http://www.w3.org/2000/svg" xmlns:xlink="http://www.w3.org/1999/xlink">
    <!-- Generator: Sketch 48.2 (47327) - http://www.bohemiancoding.com/sketch -->
    <title>Page 1</title>
    <desc>Created with Sketch.</desc>
    <defs>
        <polygon id="path-1" points="0.00016194332 0.123733766 74.3703644 0.123733766 74.3703644 74.6753247 0.00016194332 74.6753247"></polygon>
        <polygon id="path-3" points="0 74.8762987 159.797571 74.8762987 159.797571 0.324675325 0 0.324675325"></polygon>
    </defs>
    <g id="CHECK-ACCOUNT-IHT标注" stroke="none" stroke-width="1" fill="none" fill-rule="evenodd" transform="translate(-133.000000, -69.000000)">
        <g id="Page-1" transform="translate(133.000000, 69.000000)">
            <g id="Group-3" transform="translate(0.000000, 0.200974)">
                <mask id="mask-2" fill="white">
                    <use xlink:href="#path-1"></use>
                </mask>
                <g id="Clip-2"></g>
                <path d="M36.3768421,8.67730519 C30.6220243,8.67730519 25.2730364,10.4562013 20.822834,13.5055519 C14.6275304,19.5006818 10.7561134,28.018539 10.7561134,37.469513 C10.7561134,46.6698377 14.4247773,54.9850974 20.3347368,60.9506818 C24.8795142,64.2087987 30.4098785,66.121461 36.3768421,66.121461 C51.8537652,66.121461 64.4001619,53.2620455 64.4001619,37.3993831 C64.4001619,21.5363961 51.8537652,8.67730519 36.3768421,8.67730519 M74.3703644,37.3993831 C74.3703644,57.9863961 57.7219433,74.6753571 37.1852632,74.6753571 C16.648583,74.6753571 0.00016194332,57.9863961 0.00016194332,37.3993831 C0.00016194332,16.8126948 16.648583,0.123733766 37.1852632,0.123733766 C57.7219433,0.123733766 74.3703644,16.8126948 74.3703644,37.3993831" id="Fill-1" fill="#689432" mask="url(#mask-2)"></path>
            </g>
            <polygon id="Fill-4" fill="#9ABB4B" points="53.9306235 55.7451948 44.5485992 50.4783117 44.5485992 14.7406494 53.9306235 19.8192208"></polygon>
            <polygon id="Fill-6" fill="#689432" points="53.9304615 37.8761688 31.4138623 43.331039 22.0321619 38.2524675 44.5487611 32.7972727"></polygon>
            <polygon id="Fill-8" fill="#689432" points="31.4140243 61.2 22.032 55.9327922 22.032 20.1954545 31.4140243 25.2737013"></polygon>
            <mask id="mask-4" fill="white">
                <use xlink:href="#path-3"></use>
            </mask>
            <g id="Clip-11"></g>
            <polygon id="Fill-10" fill="#9ABB4B" mask="url(#mask-4)" points="82.5723077 53.6045455 90.674332 53.6045455 90.674332 17.6162338 82.5723077 17.6162338"></polygon>
            <polygon id="Fill-12" fill="#9ABB4B" mask="url(#mask-4)" points="118.75064 53.6046753 118.75064 39.2903896 104.420599 39.2903896 104.420599 53.6046753 96.4202753 53.6046753 96.4202753 17.6163636 104.420599 17.6163636 104.420599 31.7274026 118.75064 31.7274026 118.75064 17.6163636 126.801814 17.6163636 126.801814 53.6046753"></polygon>
            <polygon id="Fill-13" fill="#9ABB4B" mask="url(#mask-4)" points="148.708567 25.2807143 148.708567 53.6044156 140.707919 53.6044156 140.707919 25.2807143 129.669215 25.2807143 129.669215 17.6161039 159.797474 17.6161039 159.797474 25.2807143"></polygon>
            <path d="M36.3768421,8.87827922 C30.6220243,8.87827922 25.2730364,10.6571753 20.822834,13.706526 C14.6275304,19.7016558 10.7561134,28.219513 10.7561134,37.670487 C10.7561134,46.8708117 14.4247773,55.1860714 20.3347368,61.1516558 C24.8795142,64.4097727 30.4098785,66.3224351 36.3768421,66.3224351 C51.8537652,66.3224351 64.4001619,53.4630195 64.4001619,37.6003571 C64.4001619,21.7373701 51.8537652,8.87827922 36.3768421,8.87827922 M74.4480972,37.6003571 C74.4480972,55.7503571 60.1753846,70.4643182 42.5682591,70.4643182 C24.9614575,70.4643182 10.6884211,55.7503571 10.6884211,37.6003571 C10.6884211,19.4503571 24.9614575,4.7363961 42.5682591,4.7363961 C60.1753846,4.7363961 74.4480972,19.4503571 74.4480972,37.6003571" id="Fill-14" fill="#9ABB4B" mask="url(#mask-4)"></path>
            <path d="M83.3992227,64.8465584 L81.8348502,60.0533766 L82.7300729,60.0533766 L83.5433522,62.8202597 L83.8471579,63.8494805 C83.8594656,63.7981818 83.9482105,63.4686364 84.1114494,62.8608442 L84.9250526,60.0533766 L85.815417,60.0533766 L86.5807611,62.8335714 L86.8356599,63.7498052 L87.1294251,62.8241558 L88.0055385,60.0533766 L88.8479676,60.0533766 L87.2499109,64.8465584 L86.34983,64.8465584 L85.5365506,61.9757792 L85.3389798,61.1592208 L84.3041619,64.8465584 L83.3992227,64.8465584 Z" id="Fill-15" fill="#689432" mask="url(#mask-4)"></path>
            <path d="M90.5180891,64.8465584 L88.9540405,60.0533766 L89.8492632,60.0533766 L90.6625425,62.8202597 L90.9660243,63.8494805 C90.978332,63.7981818 91.0670769,63.4686364 91.2303158,62.8608442 L92.043919,60.0533766 L92.9342834,60.0533766 L93.6996275,62.8335714 L93.9551741,63.7498052 L94.2489393,62.8241558 L95.1247287,60.0533766 L95.966834,60.0533766 L94.3691012,64.8465584 L93.4686964,64.8465584 L92.655417,61.9757792 L92.4578462,61.1592208 L91.4230283,64.8465584 L90.5180891,64.8465584 Z" id="Fill-16" fill="#689432" mask="url(#mask-4)"></path>
            <path d="M97.6372794,64.8465584 L96.0729069,60.0533766 L96.9681296,60.0533766 L97.7814089,62.8202597 L98.0848907,63.8494805 C98.0975223,63.7981818 98.1859433,63.4686364 98.3495061,62.8608442 L99.1631093,60.0533766 L100.053474,60.0533766 L100.818818,62.8335714 L101.07404,63.7498052 L101.367806,62.8241558 L102.243595,60.0533766 L103.0857,60.0533766 L101.487968,64.8465584 L100.587887,64.8465584 L99.7742834,61.9757792 L99.5767126,61.1592208 L98.5418947,64.8465584 L97.6372794,64.8465584 Z" id="Fill-17" fill="#689432" mask="url(#mask-4)"></path>
            <polygon id="Fill-18" fill="#689432" mask="url(#mask-4)" points="103.514494 64.8467532 104.501377 64.8467532 104.501377 63.9214286 103.514494 63.9214286"></polygon>
            <path d="M106.012632,64.8467532 L106.879352,64.8467532 L106.879352,60.0535714 L106.012632,60.0535714 L106.012632,64.8467532 Z M106.012632,59.163961 L106.879352,59.163961 L106.879352,58.2298701 L106.012632,58.2298701 L106.012632,59.163961 Z" id="Fill-19" fill="#689432" mask="url(#mask-4)"></path>
            <path d="M108.197765,64.8465584 L108.197765,58.2296753 L109.064486,58.2296753 L109.064486,60.604026 C109.468696,60.1644156 109.978818,59.9449351 110.594526,59.9449351 C110.973474,59.9449351 111.302543,60.0147403 111.581733,60.1546753 C111.861247,60.2946104 112.060437,60.4881169 112.180923,60.7348701 C112.301409,60.9816234 112.361328,61.3397403 112.361328,61.8092208 L112.361328,64.8465584 L111.494931,64.8465584 L111.494931,61.8092208 C111.494931,61.4030519 111.401328,61.1069481 111.213474,60.9222078 C111.025619,60.7371429 110.760032,60.6446104 110.417036,60.6446104 C110.160194,60.6446104 109.918575,60.7069481 109.692502,60.8319481 C109.465781,60.9569481 109.30481,61.1257792 109.208291,61.3397403 C109.112097,61.5530519 109.064486,61.8481818 109.064486,62.2241558 L109.064486,64.8465584 L108.197765,64.8465584 Z" id="Fill-20" fill="#689432" mask="url(#mask-4)"></path>
            <path d="M115.572178,64.1201623 L115.696874,64.8373701 C115.453312,64.8857468 115.235012,64.9097727 115.0423,64.9097727 C114.72813,64.9097727 114.484243,64.8633442 114.31064,64.7698377 C114.13736,64.6766558 114.015579,64.5539286 113.945296,64.4019805 C113.874364,64.2503571 113.839061,63.9305519 113.839061,63.4428896 L113.839061,60.6850974 L113.203919,60.6850974 L113.203919,60.0536039 L113.839061,60.0536039 L113.839061,58.8659416 L114.700599,58.3782792 L114.700599,60.0536039 L115.572178,60.0536039 L115.572178,60.6850974 L114.700599,60.6850974 L114.700599,63.4880195 C114.700599,63.7198377 114.716146,63.8688636 114.746267,63.9350974 C114.777036,64.0010065 114.826267,64.0536039 114.895579,64.0928896 C114.964567,64.1318506 115.063352,64.1513312 115.191611,64.1513312 C115.287806,64.1513312 115.414445,64.1412662 115.572178,64.1201623" id="Fill-21" fill="#689432" mask="url(#mask-4)"></path>
            <path d="M119.754883,63.0906494 L120.607028,63.1945455 C120.513425,63.7451948 120.275368,64.1763636 119.891887,64.4880519 C119.508405,64.7994156 119.037474,64.9549351 118.479417,64.9549351 C117.779498,64.9549351 117.217231,64.7403247 116.792291,64.3120779 C116.366704,63.8828571 116.154559,63.2685714 116.154559,62.4679221 C116.154559,61.9507143 116.245571,61.4974675 116.428243,61.1091558 C116.611563,60.7214935 116.890105,60.4302597 117.264194,60.2357792 C117.637636,60.0419481 118.044113,59.9451948 118.483951,59.9451948 C119.039093,59.9451948 119.492858,60.0766883 119.846219,60.3396753 C120.198931,60.6033117 120.425328,60.9766883 120.525085,61.4611039 L119.682656,61.5831818 C119.602332,61.2614286 119.46047,61.0188961 119.256745,60.8565584 C119.052372,60.6942208 118.806219,60.6127273 118.517636,60.6127273 C118.08136,60.6127273 117.726704,60.7594805 117.453992,61.0533117 C117.181279,61.3461688 117.044923,61.8107792 117.044923,62.4455195 C117.044923,63.0893506 117.176421,63.5575325 117.439417,63.8494156 C117.702413,64.1412987 118.046381,64.2870779 118.4697,64.2870779 C118.809781,64.2870779 119.093506,64.1893506 119.321522,63.9935714 C119.548891,63.7981169 119.693992,63.4971429 119.754883,63.0906494" id="Fill-22" fill="#689432" mask="url(#mask-4)"></path>
            <path d="M121.915822,62.4501948 C121.915822,63.0638312 122.058332,63.5235714 122.344324,63.8290909 C122.629992,64.1342857 122.988858,64.2868831 123.422543,64.2868831 C123.85234,64.2868831 124.210235,64.1336364 124.496227,63.8264935 C124.781895,63.5196753 124.924405,63.0518182 124.924405,62.4225974 C124.924405,61.8300649 124.780923,61.381039 124.493636,61.0755195 C124.206348,60.77 123.849101,60.6170779 123.422543,60.6170779 C122.988858,60.6170779 122.629992,60.7693506 122.344324,61.0732468 C122.058332,61.3768182 121.915822,61.8359091 121.915822,62.4501948 M121.025457,62.4501948 C121.025457,61.5625325 121.288453,60.9047403 121.815093,60.4774675 C122.254607,60.1225974 122.789992,59.945 123.422543,59.945 C124.125377,59.945 124.699951,60.1609091 125.145943,60.5924026 C125.591935,61.0242208 125.814769,61.620974 125.814769,62.382013 C125.814769,62.9988961 125.716308,63.4846104 125.519061,63.8378571 C125.32149,64.1914286 125.034526,64.4657792 124.657198,64.6618831 C124.280518,64.8573377 123.868534,64.9550649 123.422543,64.9550649 C122.706753,64.9550649 122.128291,64.7398052 121.687158,64.3096104 C121.246348,63.8790909 121.025457,63.258961 121.025457,62.4501948" id="Fill-23" fill="#689432" mask="url(#mask-4)"></path>
            <path d="M126.835628,64.8467532 L127.702024,64.8467532 L127.702024,60.0535714 L126.835628,60.0535714 L126.835628,64.8467532 Z M126.835628,59.163961 L127.702024,59.163961 L127.702024,58.2298701 L126.835628,58.2298701 L126.835628,59.163961 Z" id="Fill-24" fill="#689432" mask="url(#mask-4)"></path>
            <path d="M129.020761,64.8465584 L129.020761,60.0533766 L129.800356,60.0533766 L129.800356,60.7348701 C130.175741,60.2082468 130.717603,59.9449351 131.427563,59.9449351 C131.735579,59.9449351 132.018656,59.9965584 132.276794,60.1004545 C132.535579,60.2043506 132.728291,60.3407143 132.856874,60.5092208 C132.98481,60.6777273 133.075174,60.8774026 133.126348,61.1092208 C133.158089,61.2598701 133.174283,61.5235065 133.174283,61.8994805 L133.174283,64.8465584 L132.308211,64.8465584 L132.308211,61.930974 C132.308211,61.5998052 132.274202,61.3524026 132.206834,61.1881169 C132.139789,61.0244805 132.020275,60.8936364 131.848291,60.7959091 C131.676955,60.6978571 131.475498,60.6488312 131.244243,60.6488312 C130.87566,60.6488312 130.556632,60.7585714 130.288777,60.9783766 C130.020599,61.1985065 129.887158,61.6147403 129.887158,62.2287013 L129.887158,64.8465584 L129.020761,64.8465584 Z" id="Fill-25" fill="#689432" mask="url(#mask-4)"></path>
            <polygon id="Fill-26" fill="#689432" mask="url(#mask-4)" points="134.748178 64.8467532 135.735061 64.8467532 135.735061 63.9214286 134.748178 63.9214286"></polygon>
            <path d="M140.577555,63.0906494 L141.4297,63.1945455 C141.336421,63.7451948 141.09804,64.1763636 140.714883,64.4880519 C140.331077,64.7994156 139.860146,64.9549351 139.301765,64.9549351 C138.60217,64.9549351 138.039903,64.7403247 137.615287,64.3120779 C137.1897,63.8828571 136.977231,63.2685714 136.977231,62.4679221 C136.977231,61.9507143 137.068567,61.4974675 137.251563,61.1091558 C137.434235,60.7214935 137.712777,60.4302597 138.086866,60.2357792 C138.460632,60.0419481 138.867109,59.9451948 139.306623,59.9451948 C139.862089,59.9451948 140.31553,60.0766883 140.668891,60.3396753 C141.021927,60.6033117 141.248,60.9766883 141.347433,61.4611039 L140.505004,61.5831818 C140.425004,61.2614286 140.283142,61.0188961 140.079417,60.8565584 C139.875692,60.6942208 139.629215,60.6127273 139.340632,60.6127273 C138.904032,60.6127273 138.549377,60.7594805 138.276664,61.0533117 C138.004275,61.3461688 137.867271,61.8107792 137.867271,62.4455195 C137.867271,63.0893506 137.999093,63.5575325 138.262413,63.8494156 C138.525085,64.1412987 138.868729,64.2870779 139.292372,64.2870779 C139.63213,64.2870779 139.916178,64.1893506 140.144194,63.9935714 C140.372211,63.7981169 140.51634,63.4971429 140.577555,63.0906494" id="Fill-27" fill="#689432" mask="url(#mask-4)"></path>
            <path d="M142.738818,62.4501948 C142.738818,63.0638312 142.881328,63.5235714 143.166996,63.8290909 C143.452664,64.1342857 143.811854,64.2868831 144.244891,64.2868831 C144.675336,64.2868831 145.032907,64.1336364 145.318575,63.8264935 C145.604243,63.5196753 145.746753,63.0518182 145.746753,62.4225974 C145.746753,61.8300649 145.603595,61.381039 145.316308,61.0755195 C145.029344,60.77 144.672097,60.6170779 144.244891,60.6170779 C143.811854,60.6170779 143.452664,60.7693506 143.166996,61.0732468 C142.881328,61.3768182 142.738818,61.8359091 142.738818,62.4501948 M141.848453,62.4501948 C141.848453,61.5625325 142.111449,60.9047403 142.637765,60.4774675 C143.077279,60.1225974 143.612664,59.945 144.244891,59.945 C144.948049,59.945 145.522623,60.1609091 145.968291,60.5924026 C146.414607,61.0242208 146.637765,61.620974 146.637765,62.382013 C146.637765,62.9988961 146.53898,63.4846104 146.341733,63.8378571 C146.144162,64.1914286 145.857198,64.4657792 145.480194,64.6618831 C145.102866,64.8573377 144.690883,64.9550649 144.244891,64.9550649 C143.529749,64.9550649 142.951287,64.7398052 142.510154,64.3096104 C142.068696,63.8790909 141.848453,63.258961 141.848453,62.4501948" id="Fill-28" fill="#689432" mask="url(#mask-4)"></path>
            <path d="M147.653409,64.8465584 L147.653409,60.0533766 L148.428146,60.0533766 L148.428146,60.7257792 C148.588794,60.491039 148.801911,60.3020779 149.068146,60.1588961 C149.334381,60.0163636 149.638186,59.9449351 149.977943,59.9449351 C150.356567,59.9449351 150.667174,60.018961 150.909765,60.166039 C151.152032,60.3134416 151.322397,60.5192857 151.42183,60.7845455 C151.826364,60.2248052 152.353004,59.9449351 153.001101,59.9449351 C153.50766,59.9449351 153.897619,60.0767532 154.170332,60.3397403 C154.443368,60.6033766 154.579725,61.0088961 154.579725,61.5562987 L154.579725,64.8465584 L153.718186,64.8465584 L153.718186,61.8267532 C153.718186,61.5020779 153.690008,61.267987 153.633652,61.1251299 C153.577619,60.9822727 153.475595,60.8673377 153.328227,60.78 C153.180534,60.6923377 153.006931,60.6488312 152.808065,60.6488312 C152.448874,60.6488312 152.150575,60.7608442 151.912518,60.9851948 C151.675433,61.2095455 151.556891,61.567987 151.556891,62.0618182 L151.556891,64.8465584 L150.690494,64.8465584 L150.690494,61.7322727 C150.690494,61.3709091 150.619887,61.1004545 150.478672,60.9196104 C150.337134,60.7394156 150.106202,60.6488312 149.785231,60.6488312 C149.541992,60.6488312 149.316243,60.7088961 149.109279,60.8293506 C148.901992,60.9498052 148.752356,61.1257792 148.659077,61.3575974 C148.565798,61.5890909 148.519806,61.9231818 148.519806,62.3595455 L148.519806,64.8465584 L147.653409,64.8465584 Z" id="Fill-29" fill="#689432" mask="url(#mask-4)"></path>
        </g>
    </g>
</svg>