<?xml version="1.0" encoding="UTF-8"?>
<!DOCTYPE svg PUBLIC "-//W3C//DTD SVG 1.1//EN" "http://www.w3.org/Graphics/SVG/1.1/DTD/svg11.dtd">
<!-- Creator: CorelDRAW X7 -->
<svg xmlns="http://www.w3.org/2000/svg" xml:space="preserve" width="7.5in" height="7.5in" version="1.1" style="shape-rendering:geometricPrecision; text-rendering:geometricPrecision; image-rendering:optimizeQuality; fill-rule:evenodd; clip-rule:evenodd"
viewBox="0 0 7500 7500"
 xmlns:xlink="http://www.w3.org/1999/xlink">
 <defs>
  <style type="text/css">
   <![CDATA[
    .fil0 {fill:none}
    .fil3 {fill:white}
    .fil2 {fill:white;fill-rule:nonzero}
    .fil1 {fill:url(#id0)}
   ]]>
  </style>
  <linearGradient id="id0" gradientUnits="userSpaceOnUse" x1="5858" y1="5858" x2="1642" y2="1642">
   <stop offset="0" style="stop-opacity:1; stop-color:#00A97C"/>
   <stop offset="1" style="stop-opacity:1; stop-color:#0088CC"/>
  </linearGradient>
 </defs>
 <g id="Layer_x0020_1">
  <metadata id="CorelCorpID_0Corel-Layer"/>
  <rect class="fil0" width="7500" height="7500"/>
  <circle class="fil1" cx="3750" cy="3750" r="3100"/>
  <path class="fil2" d="M4512 1573c0,-16 -7,-30 -17,-40 -10,-10 -24,-17 -40,-17 -16,0 -30,7 -40,17 -11,10 -17,24 -17,40 0,16 6,30 17,40 10,11 24,17 40,17 16,0 30,-6 40,-17 10,-10 17,-24 17,-40zm11 -68c17,18 28,42 28,68 0,27 -11,51 -28,68l0 0c-18,17 -42,28 -68,28 -27,0 -51,-11 -68,-28l0 0c-17,-17 -28,-41 -28,-68 0,-26 11,-50 28,-68l0 0c17,-17 41,-28 68,-28 26,0 50,11 68,28l0 0z"/>
  <path class="fil2" d="M3102 1573c0,-16 -6,-30 -17,-40 -10,-10 -24,-17 -40,-17 -16,0 -30,7 -40,17 -10,10 -17,24 -17,40 0,16 7,30 17,40 10,11 24,17 40,17 16,0 30,-6 40,-17 11,-10 17,-24 17,-40zm11 -68c17,18 28,42 28,68 0,27 -11,51 -28,68l0 0c-17,17 -41,28 -68,28 -26,0 -50,-11 -68,-28l0 0c-17,-17 -28,-41 -28,-68 0,-26 11,-50 28,-68l0 0c18,-17 42,-28 68,-28 27,0 51,11 68,28l0 0z"/>
  <path class="fil2" d="M3454 1803c0,-16 -6,-30 -16,-41 -10,-10 -25,-16 -40,-16 -16,0 -30,6 -41,16 -10,11 -16,25 -16,41 0,15 6,30 16,40 11,10 25,17 41,17 15,0 30,-7 40,-17 10,-10 16,-25 16,-40zm11 -68c18,17 29,41 29,68 0,26 -11,50 -29,67l0 0c-17,18 -41,29 -67,29 -27,0 -51,-11 -68,-29l0 0c-18,-17 -28,-41 -28,-67 0,-27 10,-51 28,-68l0 0c17,-18 41,-28 68,-28 26,0 50,10 67,28l0 0z"/>
  <path class="fil2" d="M3807 1382c0,-16 -6,-30 -17,-40 -10,-11 -24,-17 -40,-17 -16,0 -30,6 -40,17 -11,10 -17,24 -17,40 0,16 6,30 17,40 10,11 24,17 40,17 16,0 30,-6 40,-17 11,-10 17,-24 17,-40zm11 -68c17,18 28,42 28,68 0,26 -11,50 -28,68l0 0c-18,17 -42,28 -68,28 -26,0 -50,-11 -68,-28l0 0c-17,-18 -28,-42 -28,-68 0,-26 11,-50 28,-68l0 0c18,-17 42,-28 68,-28 26,0 50,11 68,28l0 0z"/>
  <path class="fil2" d="M4159 1803c0,-16 -6,-30 -16,-41 -11,-10 -25,-16 -41,-16 -15,0 -30,6 -40,16 -10,11 -16,25 -16,41 0,15 6,30 16,40 10,10 25,17 40,17 16,0 30,-7 41,-17 10,-10 16,-25 16,-40zm11 -68c18,17 28,41 28,68 0,26 -10,50 -28,67l0 0c-17,18 -41,29 -68,29 -26,0 -50,-11 -67,-29l0 0c-18,-17 -29,-41 -29,-67 0,-27 11,-51 29,-68l0 0c17,-18 41,-28 67,-28 27,0 51,10 68,28l0 0z"/>
  <path class="fil2" d="M5754 3397c0,-16 -7,-30 -17,-40 -10,-11 -24,-17 -40,-17 -16,0 -30,6 -40,17 -11,10 -17,24 -17,40 0,16 6,30 17,40 10,11 24,17 40,17 16,0 30,-6 40,-17 10,-10 17,-24 17,-40zm11 -68c17,18 28,41 28,68 0,26 -11,50 -28,68l0 0c-18,17 -42,28 -68,28 -27,0 -51,-11 -68,-28l0 0c-17,-18 -28,-42 -28,-68 0,-27 11,-50 28,-68l0 0c17,-17 41,-28 68,-28 26,0 50,11 68,28l0 0z"/>
  <path class="fil2" d="M5175 3554c11,0 19,8 19,19 0,11 -8,20 -19,20l-502 0c-11,0 -20,-9 -20,-20 0,-11 9,-19 20,-19l502 0z"/>
  <path class="fil2" d="M6041 3730c11,0 19,9 19,19 0,11 -8,20 -19,20l-642 0 -170 170 -6 6 -8 0 -499 0c-11,0 -20,-9 -20,-19 0,-11 9,-20 20,-20l491 0 170 -170 6 -6 8 0 650 0z"/>
  <path class="fil2" d="M5620 3377c11,0 20,9 20,20 0,11 -9,19 -20,19l-229 0 -8 0 -6 -5 -170 -171 -491 0c-11,0 -20,-9 -20,-19 0,-11 9,-20 20,-20l499 0 8 0 6 6 170 170 221 0z"/>
  <path class="fil2" d="M5850 3025c11,0 19,9 19,19 0,11 -8,20 -19,20l-459 0 -8 0 -6 -6 -170 -170 -491 0c-11,0 -20,-9 -20,-20 0,-11 9,-19 20,-19l499 0 8 0 6 5 170 171 451 0z"/>
  <path class="fil2" d="M5620 4082c11,0 20,9 20,20 0,11 -9,19 -20,19l-221 0 -170 171 -6 6 -8 0 -499 0c-11,0 -20,-9 -20,-20 0,-11 9,-19 20,-19l491 0 170 -171 6 -6 8 0 229 0z"/>
  <path class="fil2" d="M5850 4435c11,0 19,9 19,19 0,11 -8,20 -19,20l-451 0 -170 170 -6 6 -8 0 -499 0c-11,0 -20,-9 -20,-19 0,-11 9,-20 20,-20l491 0 170 -170 6 -6 8 0 459 0z"/>
  <path class="fil2" d="M1860 4102c0,-16 -6,-30 -17,-40 -10,-11 -24,-17 -40,-17 -16,0 -30,6 -40,17 -10,10 -17,24 -17,40 0,16 7,30 17,40 10,10 24,17 40,17 16,0 30,-7 40,-17 11,-10 17,-24 17,-40zm11 -68c17,17 28,41 28,68 0,26 -11,50 -28,68l0 0c-17,17 -41,28 -68,28 -26,0 -50,-11 -68,-28l0 0c-17,-18 -28,-42 -28,-68 0,-27 11,-51 28,-68l0 0c18,-17 42,-28 68,-28 27,0 51,11 68,28l0 0z"/>
  <path class="fil2" d="M1860 3397c0,-16 -6,-30 -17,-40 -10,-11 -24,-17 -40,-17 -16,0 -30,6 -40,17 -10,10 -17,24 -17,40 0,16 7,30 17,40 10,11 24,17 40,17 16,0 30,-6 40,-17 11,-10 17,-24 17,-40zm11 -68c17,18 28,41 28,68 0,26 -11,50 -28,68l0 0c-17,17 -41,28 -68,28 -26,0 -50,-11 -68,-28l0 0c-17,-18 -28,-42 -28,-68 0,-27 11,-50 28,-68l0 0c18,-17 42,-28 68,-28 27,0 51,11 68,28l0 0z"/>
  <path class="fil2" d="M2325 3593c-11,0 -19,-9 -19,-20 0,-11 8,-19 19,-19l452 0c11,0 19,8 19,19 0,11 -8,20 -19,20l-452 0z"/>
  <path class="fil2" d="M1459 3769c-11,0 -19,-9 -19,-20 0,-10 8,-19 19,-19l650 0 8 0 6 6 170 170 491 0c11,0 20,9 20,20 0,10 -9,19 -20,19l-499 0 -8 0 -6 -6 -170 -170 -642 0z"/>
  <path class="fil2" d="M1880 3416c-11,0 -20,-8 -20,-19 0,-11 9,-20 20,-20l221 0 170 -170 6 -6 8 0 499 0c11,0 20,9 20,20 0,10 -9,19 -20,19l-491 0 -170 171 -6 5 -8 0 -229 0z"/>
  <path class="fil2" d="M1650 3064c-11,0 -19,-9 -19,-20 0,-10 8,-19 19,-19l451 0 170 -171 6 -5 8 0 499 0c11,0 20,8 20,19 0,11 -9,20 -20,20l-491 0 -170 170 -6 6 -8 0 -459 0z"/>
  <path class="fil2" d="M1880 4121c-11,0 -20,-8 -20,-19 0,-11 9,-20 20,-20l229 0 8 0 6 6 170 171 491 0c11,0 20,8 20,19 0,11 -9,20 -20,20l-499 0 -8 0 -6 -6 -170 -171 -221 0z"/>
  <path class="fil2" d="M1650 4474c-11,0 -19,-9 -19,-20 0,-10 8,-19 19,-19l459 0 8 0 6 6 170 170 491 0c11,0 20,9 20,20 0,10 -9,19 -20,19l-499 0 -8 0 -6 -6 -170 -170 -451 0z"/>
  <path class="fil2" d="M4512 5926c0,-16 -7,-30 -17,-41 -10,-10 -24,-16 -40,-16 -16,0 -30,6 -40,16 -11,11 -17,25 -17,41 0,15 6,30 17,40 10,10 24,17 40,17 16,0 30,-7 40,-17 10,-10 17,-25 17,-40zm11 -68c17,17 28,41 28,68 0,26 -11,50 -28,67l0 0c-18,18 -42,29 -68,29 -27,0 -51,-11 -68,-29l0 0c-17,-17 -28,-41 -28,-67 0,-27 11,-51 28,-68l0 0c17,-18 41,-28 68,-28 26,0 50,10 68,28l0 0z"/>
  <path class="fil2" d="M3927 5249c-16,0 -31,6 -41,17 -10,10 -17,24 -17,40 0,16 7,30 17,40 10,11 24,17 40,17 16,0 30,-6 40,-16 11,-11 17,-25 17,-41 0,-15 -6,-30 -16,-40 -11,-10 -25,-17 -40,-17zm-68 -11c17,-17 41,-28 68,-28 26,0 50,11 67,29 18,17 28,41 28,67 0,27 -11,51 -28,68 -18,17 -42,28 -68,28 -27,0 -51,-11 -68,-28 -17,-18 -28,-42 -28,-68 0,-27 11,-51 29,-68z"/>
  <path class="fil2" d="M3750 6061c-15,0 -30,6 -40,17 -11,10 -17,24 -17,40 0,15 6,30 17,40 10,10 24,17 40,17 15,0 30,-6 40,-17 11,-10 17,-24 17,-40 0,-16 -6,-30 -17,-40 -10,-11 -24,-17 -40,-17zm-68 -11c18,-17 42,-28 68,-28 27,0 51,11 68,28 17,18 28,42 28,68 0,27 -11,51 -28,68 -18,17 -42,28 -68,28 -27,0 -51,-11 -68,-28 -17,-18 -28,-42 -28,-68 0,-27 11,-51 28,-68z"/>
  <path class="fil2" d="M3102 5926c0,-16 -6,-30 -17,-41 -10,-10 -24,-16 -40,-16 -16,0 -30,6 -40,16 -10,11 -17,25 -17,41 0,15 7,30 17,40 10,10 24,17 40,17 16,0 30,-7 40,-17 11,-10 17,-25 17,-40zm11 -68c17,17 28,41 28,68 0,26 -11,50 -28,67l0 0c-17,18 -41,29 -68,29 -26,0 -50,-11 -68,-29l0 0c-17,-17 -28,-41 -28,-67 0,-27 11,-51 28,-68l0 0c18,-18 42,-28 68,-28 27,0 51,10 68,28l0 0z"/>
  <path class="fil2" d="M3454 5696c0,-16 -6,-30 -16,-40 -10,-10 -25,-17 -40,-17 -16,0 -30,7 -41,17 -10,10 -16,24 -16,40 0,16 6,30 16,41 11,10 25,16 41,16 15,0 30,-6 40,-16 10,-11 16,-25 16,-41zm11 -68c18,18 29,42 29,68 0,27 -11,51 -29,68l0 0c-17,17 -41,28 -67,28 -27,0 -51,-11 -68,-28l0 0c-18,-17 -28,-41 -28,-68 0,-26 10,-50 28,-68l0 0c17,-17 41,-28 68,-28 26,0 50,11 67,28l0 0z"/>
  <path class="fil2" d="M4159 5696c0,-16 -6,-30 -16,-40 -11,-10 -25,-17 -41,-17 -15,0 -30,7 -40,17 -10,10 -16,24 -16,40 0,16 6,30 16,41 10,10 25,16 40,16 16,0 30,-6 41,-16 10,-11 16,-25 16,-41zm11 -68c18,18 28,42 28,68 0,27 -10,51 -28,68l0 0c-17,17 -41,28 -68,28 -26,0 -50,-11 -67,-28l0 0c-18,-17 -29,-41 -29,-68 0,-26 11,-50 29,-68l0 0c17,-17 41,-28 67,-28 27,0 51,11 68,28l0 0z"/>
  <path class="fil2" d="M3946 5212c0,11 -9,20 -20,20 -11,0 -19,-9 -19,-20l0 -535c0,-11 8,-19 19,-19 11,0 20,8 20,19l0 535z"/>
  <path class="fil2" d="M3770 6040c0,11 -9,20 -20,20 -11,0 -20,-9 -20,-20l0 -642 -170 -170 -6 -6 0 -8 0 -499c0,-10 9,-19 20,-19 11,0 19,9 19,19l0 491 171 171 6 5 0 8 0 650z"/>
  <path class="fil2" d="M4122 5620c0,11 -9,19 -20,19 -10,0 -19,-8 -19,-19l0 -230 0 -8 6 -5 170 -171 0 -491c0,-10 9,-19 20,-19 10,0 19,9 19,19l0 499 0 8 -6 6 -170 170 0 222z"/>
  <path class="fil2" d="M4474 5849c0,11 -8,20 -19,20 -11,0 -20,-9 -20,-20l0 -459 0 -8 6 -5 171 -171 0 -491c0,-10 8,-19 19,-19 11,0 20,9 20,19l0 499 0 8 -6 6 -171 170 0 451z"/>
  <path class="fil2" d="M3417 5620c0,11 -9,19 -19,19 -11,0 -20,-8 -20,-19l0 -222 -170 -170 -6 -6 0 -8 0 -499c0,-10 9,-19 19,-19 11,0 20,9 20,19l0 491 170 171 6 5 0 8 0 230z"/>
  <path class="fil2" d="M3065 5849c0,11 -9,20 -20,20 -11,0 -19,-9 -19,-20l0 -451 -171 -170 -6 -6 0 -8 0 -499c0,-10 9,-19 20,-19 11,0 19,9 19,19l0 491 171 171 6 5 0 8 0 459z"/>
  <path class="fil2" d="M3983 2231l0 0 0 0c0,-16 -6,-30 -17,-41 -10,-10 -24,-16 -40,-16l0 0 0 0 0 0 0 0c-16,0 -30,6 -40,17 -10,10 -17,24 -17,40l0 0 0 0 0 0 0 0c0,16 7,30 17,40 10,11 25,17 41,17l0 0 0 0 0 0 0 0c15,0 29,-7 40,-17 10,-10 16,-25 16,-40l0 0 0 0zm39 0l0 0 0 0 0 0 0 0c0,26 -10,50 -28,68 -17,17 -41,28 -67,28l0 0 0 0 0 0 0 0c-27,0 -51,-11 -68,-28 -18,-17 -29,-41 -29,-68l0 0 0 0 0 0 0 0c0,-26 11,-50 28,-68 17,-17 41,-28 68,-28l0 0 0 0 0 0 0 0c26,0 50,11 68,28 17,17 28,41 28,68z"/>
  <path class="fil2" d="M3907 2325c0,-11 8,-20 19,-20 11,0 20,9 20,20l0 535c0,11 -9,19 -20,19 -11,0 -19,-8 -19,-19l0 -535z"/>
  <path class="fil2" d="M3730 1459c0,-11 9,-20 20,-20 11,0 20,9 20,20l0 649 0 8 -6 6 -171 171 0 490c0,11 -8,20 -19,20 -11,0 -20,-9 -20,-20l0 -498 0 -8 6 -6 170 -171 0 -641z"/>
  <path class="fil2" d="M4083 1879c0,-11 9,-19 19,-19 11,0 20,8 20,19l0 221 170 171 6 6 0 8 0 498c0,11 -9,20 -19,20 -11,0 -20,-9 -20,-20l0 -490 -170 -171 -6 -5 0 -9 0 -229z"/>
  <path class="fil2" d="M4435 1650c0,-11 9,-20 20,-20 11,0 19,9 19,20l0 450 171 171 6 6 0 8 0 498c0,11 -9,20 -20,20 -11,0 -19,-9 -19,-20l0 -490 -171 -171 -6 -5 0 -9 0 -458z"/>
  <path class="fil2" d="M3378 1879c0,-11 9,-19 20,-19 10,0 19,8 19,19l0 229 0 9 -6 5 -170 171 0 490c0,11 -9,20 -20,20 -10,0 -19,-9 -19,-20l0 -498 0 -8 6 -6 170 -171 0 -221z"/>
  <path class="fil2" d="M3026 1650c0,-11 8,-20 19,-20 11,0 20,9 20,20l0 458 0 9 -6 5 -171 171 0 490c0,11 -8,20 -19,20 -11,0 -20,-9 -20,-20l0 -498 0 -8 6 -6 171 -171 0 -450z"/>
  <path class="fil3" d="M2516 2516l2468 0 0 2467 -2468 0 0 -2467zm2115 1153l0 -191 -238 0 0 -399 -643 644 -643 -644 0 399 -238 0 0 191 238 0 0 161 -238 0 0 191 238 0 0 275 229 0 0 -663 414 414 414 -414 0 663 229 0 0 -275 238 0 0 -191 -238 0 0 -161 238 0z"/>
  <path class="fil2" d="M1631 3044c0,-15 -7,-30 -17,-40 -10,-10 -24,-16 -40,-16 -16,0 -30,6 -41,16 -10,10 -16,25 -16,40 0,16 6,30 16,41 11,10 25,16 41,16 16,0 30,-6 40,-16 10,-11 17,-25 17,-41zm11 -67c17,17 28,41 28,67 0,27 -11,51 -28,68l0 0c-18,18 -42,28 -68,28 -27,0 -51,-10 -68,-28l0 0c-17,-17 -28,-41 -28,-68 0,-26 11,-50 28,-67l0 0c17,-18 41,-28 68,-28 26,0 50,10 68,28l0 0z"/>
  <path class="fil2" d="M2288 3573l0 0 1 0c-1,-16 -7,-30 -17,-40 -11,-11 -25,-17 -41,-17l0 0 0 0 0 0c-15,0 -30,7 -40,17 -10,10 -17,25 -17,40 1,16 7,30 17,41 11,10 25,16 41,16 15,0 30,-6 40,-17 10,-10 17,-24 17,-40l-1 0zm39 0l0 0 0 0 0 0c1,26 -10,50 -27,68 -18,17 -42,28 -68,28 -27,0 -51,-11 -68,-28 -17,-17 -28,-41 -28,-68 0,-26 10,-50 27,-67 18,-18 42,-29 68,-29l0 0 0 0 0 0c27,0 51,11 68,28 18,17 28,41 28,68z"/>
  <path class="fil2" d="M1631 4454c0,-15 -7,-30 -17,-40 -10,-10 -24,-17 -40,-17 -16,0 -30,7 -41,17 -10,10 -16,25 -16,40 0,16 6,30 16,41 11,10 25,16 41,16 16,0 30,-6 40,-16 10,-11 17,-25 17,-41zm11 -67c17,17 28,41 28,67 0,27 -11,51 -28,68l0 0c-18,18 -42,28 -68,28 -27,0 -51,-10 -68,-28l0 0c-17,-17 -28,-41 -28,-68 0,-26 11,-50 28,-67l0 -1c17,-17 41,-28 68,-28 26,0 50,11 68,28l0 1z"/>
  <path class="fil2" d="M1440 3749c0,-15 -7,-30 -17,-40 -10,-10 -25,-17 -40,-17 -16,0 -30,7 -41,17 -10,10 -16,25 -16,40 0,16 6,30 16,41 11,10 25,16 41,16 15,0 30,-6 40,-16 10,-11 17,-25 17,-41zm10 -67c18,17 29,41 29,67 0,27 -11,51 -29,68l0 0c-17,18 -41,28 -67,28 -27,0 -51,-10 -68,-28l0 0c-18,-17 -28,-41 -28,-68 0,-26 10,-50 28,-67l0 0c17,-18 41,-29 68,-29 26,0 50,11 67,29l0 0z"/>
  <path class="fil2" d="M5983 3044c0,-15 -6,-30 -16,-40 -11,-10 -25,-16 -41,-16 -16,0 -30,6 -40,16 -10,10 -17,25 -17,40 0,16 7,30 17,41 10,10 24,16 40,16 16,0 30,-6 41,-16 10,-11 16,-25 16,-41zm11 -67c17,17 28,41 28,67 0,27 -11,51 -28,68l0 0c-17,18 -41,28 -68,28 -26,0 -50,-10 -68,-28l0 0c-17,-17 -28,-41 -28,-68 0,-26 11,-50 28,-67l0 0c18,-18 42,-28 68,-28 27,0 51,10 68,28l0 0z"/>
  <path class="fil2" d="M5269 3516c-16,0 -30,6 -41,17 -10,10 -16,24 -17,40 0,16 7,30 17,40 10,11 25,17 40,17 16,0 30,-6 41,-16 10,-11 16,-25 16,-41 1,-15 -6,-30 -16,-40 -10,-10 -25,-17 -40,-17zm-68 -11c17,-17 41,-28 68,-28 26,0 50,11 68,29 17,17 27,41 27,67 0,27 -11,51 -28,68 -17,18 -41,28 -68,28 -26,0 -50,-11 -68,-28 -17,-18 -28,-42 -27,-68 0,-27 10,-51 28,-68z"/>
  <path class="fil2" d="M5983 4454c0,-15 -6,-30 -16,-40 -11,-10 -25,-17 -41,-17 -16,0 -30,7 -40,17 -10,10 -17,25 -17,40 0,16 7,30 17,41 10,10 24,16 40,16 16,0 30,-6 41,-16 10,-11 16,-25 16,-41zm11 -67c17,17 28,41 28,67 0,27 -11,51 -28,68l0 0c-17,18 -41,28 -68,28 -26,0 -50,-10 -68,-28l0 0c-17,-17 -28,-41 -28,-68 0,-26 11,-50 28,-67l0 -1c18,-17 42,-28 68,-28 27,0 51,11 68,28l0 1z"/>
  <path class="fil2" d="M5754 4102c0,-16 -7,-30 -17,-40 -10,-11 -24,-17 -40,-17 -16,0 -30,6 -40,17 -11,10 -17,24 -17,40 0,16 6,30 17,40 10,10 24,17 40,17 16,0 30,-7 40,-17 10,-10 17,-24 17,-40zm11 -68c17,17 28,41 28,68 0,26 -11,50 -28,68l0 0c-18,17 -42,28 -68,28 -27,0 -51,-11 -68,-28l0 0c-17,-18 -28,-42 -28,-68 0,-27 11,-51 28,-68l0 0c17,-17 41,-28 68,-28 26,0 50,11 68,28l0 0z"/>
  <path class="fil2" d="M6174 3749c0,-15 -6,-30 -16,-40 -11,-10 -25,-17 -41,-17 -15,0 -30,7 -40,17 -10,10 -17,25 -17,40 0,16 7,30 17,41 10,10 25,16 40,16 16,0 30,-6 41,-16 10,-11 16,-25 16,-41zm11 -67c18,17 28,41 28,67 0,27 -10,51 -28,68l0 0c-17,18 -41,28 -68,28 -26,0 -50,-10 -67,-28l0 0c-18,-17 -29,-41 -29,-68 0,-26 11,-50 29,-67l0 0c17,-18 41,-29 67,-29 27,0 51,11 68,29l0 0z"/>
 </g>
</svg>
