<svg id="Layer_1" data-name="Layer 1" xmlns="http://www.w3.org/2000/svg" xmlns:xlink="http://www.w3.org/1999/xlink" viewBox="0 0 239.43 239.43"><defs><style>.cls-1{fill:#3a456b;}.cls-2{fill:#fff;}.cls-3{fill:#4dbd97;}.cls-4,.cls-5,.cls-6,.cls-7{opacity:0.46;}.cls-4{fill:url(#linear-gradient);}.cls-5{fill:url(#linear-gradient-2);}.cls-6{fill:url(#linear-gradient-3);}.cls-7{fill:url(#linear-gradient-4);}</style><linearGradient id="linear-gradient" x1="6848.84" y1="3220.68" x2="6896.85" y2="3220.68" gradientTransform="translate(-6722.87 -3167.39) rotate(0.56)" gradientUnits="userSpaceOnUse"><stop offset="0" stop-color="#fff"/><stop offset="1" stop-color="#fff" stop-opacity="0"/></linearGradient><linearGradient id="linear-gradient-2" x1="5983.74" y1="1144.94" x2="6036.53" y2="1123.35" gradientTransform="translate(-4943.19 -3298.1) rotate(23.3)" xlink:href="#linear-gradient"/><linearGradient id="linear-gradient-3" x1="6859.24" y1="3220.68" x2="6886.45" y2="3220.68" xlink:href="#linear-gradient"/><linearGradient id="linear-gradient-4" x1="5991.06" y1="1141.95" x2="6020.98" y2="1129.71" gradientTransform="translate(-4943.19 -3298.1) rotate(23.3)" xlink:href="#linear-gradient"/></defs><title>Logo_Token_Artboard 20</title><circle class="cls-1" cx="118.22" cy="120.22" r="110.22"/><path class="cls-2" d="M106.37,90l12.26-12,12.16,12.41,17.38.17L148,107.92l12.16,12.41-12.4,12.16h0A12.37,12.37,0,0,0,160,145l39.26.39A84.88,84.88,0,0,0,49.84,69.93C43.9,78,49.76,89.45,59.79,89.54Z"/><path class="cls-2" d="M130.18,149.74l-12.37,12.12-12.17-12.4-17.37-.17.17-17.38-12.17-12.4,12.41-12.17h0a12.48,12.48,0,0,0-12.36-12.6l-39-.38A85.12,85.12,0,0,0,33.42,124c1.85,42.84,36.1,78,78.89,80.9a84.77,84.77,0,0,0,74.86-35.18,12.38,12.38,0,0,0-10-19.52Z"/><polygon class="cls-3" points="140.98 111.11 140.93 111.06 141.06 97.81 127.86 97.68 127.81 97.68 118.53 88.21 109.11 97.45 109.06 97.5 95.81 97.37 95.68 110.55 95.68 110.62 86.21 119.9 95.45 129.32 95.5 129.37 95.37 142.62 108.55 142.75 108.62 142.75 117.9 152.22 127.32 142.98 127.37 142.93 140.62 143.06 140.75 129.88 140.75 129.81 150.22 120.53 140.98 111.11"/><polygon class="cls-4" points="135.29 113.39 135.25 113.35 135.35 103.41 125.45 103.32 125.41 103.31 118.45 96.21 111.39 103.14 111.35 103.18 101.41 103.08 101.32 112.97 101.31 113.02 94.21 119.98 101.14 127.05 101.18 127.08 101.08 137.02 110.97 137.12 111.02 137.12 117.98 144.22 125.05 137.29 125.08 137.25 135.02 137.35 135.12 127.46 135.12 127.41 142.22 120.45 135.29 113.39"/><polygon class="cls-5" points="136.6 120.51 136.58 120.47 140.51 111.34 131.42 107.42 131.39 107.41 127.71 98.17 118.51 101.83 118.47 101.85 109.34 97.92 105.43 107 105.41 107.05 96.17 110.72 99.83 119.92 99.85 119.96 95.92 129.09 105 133 105.05 133.02 108.72 142.26 117.92 138.6 117.96 138.58 127.09 142.51 131 133.43 131.02 133.39 140.26 129.71 136.6 120.51"/><polygon class="cls-6" points="127.89 116.34 127.87 116.32 127.92 110.69 122.31 110.64 122.29 110.64 118.35 106.61 114.34 110.54 114.32 110.56 108.69 110.51 108.64 116.11 108.64 116.14 104.61 120.08 108.54 124.09 108.56 124.11 108.51 129.74 114.11 129.79 114.14 129.79 118.08 133.82 122.09 129.89 122.11 129.87 127.74 129.93 127.79 124.32 127.79 124.29 131.82 120.35 127.89 116.34"/><polygon class="cls-7" points="128.63 120.39 128.62 120.36 130.85 115.19 125.7 112.97 125.68 112.96 123.59 107.72 118.39 109.8 118.36 109.81 113.19 107.58 110.97 112.73 110.96 112.75 105.72 114.84 107.8 120.05 107.81 120.07 105.58 125.25 110.73 127.46 110.75 127.47 112.84 132.71 118.05 130.63 118.07 130.62 123.25 132.85 125.46 127.7 125.47 127.68 130.71 125.59 128.63 120.39"/></svg>