<svg xmlns="http://www.w3.org/2000/svg" width="41" height="41" viewBox="0 0 41 41">
  <path d="M116.789543,85.9592542 C115.156255,83.9231247 115.156255,81.076095 116.789543,79.0399655 L120.204063,74.7842183 C123.216179,71.0256655 122.020801,66.7462423 119.630045,64.3608931 C117.251125,61.9755438 112.966701,60.7799096 109.214872,63.7926709 L104.954119,67.2079228 C102.918426,68.8415616 100.072006,68.8415616 98.0363133,67.2079228 L93.7755605,63.7926709 C90.0296487,60.7799096 85.7452251,61.9755438 83.360387,64.3608931 C80.975549,66.7462423 79.7801711,71.0256655 82.7922867,74.7842183 L86.2068066,79.0399655 C87.8400952,81.076095 87.8400952,83.9231247 86.2068066,85.9592542 L82.7922867,90.2150014 C79.7801711,93.9735542 80.975549,98.2529774 83.360387,100.638327 C84.739214,102.017449 86.7512361,103 88.9289542,103 C90.5149011,103 92.1955314,102.47913 93.7755605,101.206549 L98.0363133,97.7912969 C100.072006,96.1576581 102.918426,96.1576581 104.954119,97.7912969 L109.214872,101.206549 C112.972619,104.21931 117.245207,103.023676 119.635963,100.638327 C122.020801,98.2529774 123.222097,93.9735542 120.209981,90.2150014 L116.789543,85.9592542 Z M118.985015,99.9931577 C118.405079,100.573218 117.552928,100.987547 116.635683,100.987547 C115.966981,100.987547 115.256856,100.768544 114.588154,100.229917 L103.013109,90.948955 C102.119535,90.2327583 100.876815,90.2327583 99.9832407,90.948955 L88.4081956,100.235836 C86.8281664,101.508417 85.0173465,101.005303 84.0113354,99.9931577 C83.0053243,98.986931 82.4964011,97.1816418 83.7687092,95.595355 L93.0535997,84.0178284 C93.7696428,83.1240623 93.7696428,81.8810764 93.0535997,80.9873102 L83.7687092,69.4097837 C82.4964011,67.8234968 83.0053243,66.0182077 84.0113354,65.0119809 C85.0173465,64.0057542 86.8281664,63.5026408 88.4081956,64.7693027 L99.9832407,74.0561837 C100.876815,74.7723804 102.125452,74.7723804 103.013109,74.0561837 L114.588154,64.7693027 C116.168184,63.4967219 117.979004,63.9998352 118.985015,65.0119809 C119.991026,66.0182077 120.499949,67.8234968 119.227641,69.4097837 L109.94275,80.9873102 C109.226707,81.8810764 109.226707,83.1240623 109.94275,84.0178284 L119.227641,95.595355 C120.499949,97.1816418 119.991026,98.986931 118.985015,99.9931577 Z" transform="translate(-81 -62)"/>
</svg>
