<svg xmlns="http://www.w3.org/2000/svg" width="100" height="100"><style/><linearGradient id="SVGID_1_" gradientUnits="userSpaceOnUse" x1="83.195" y1="83.195" x2="16.805" y2="16.805"><stop offset="0" stop-color="#1d58c4"/><stop offset="1" stop-color="#00aded"/></linearGradient><path d="M80.04 57.32a10.147 10.147 0 0 0 0-14.64c6.57-11.62 7.76-21.26 3.15-25.87-4.61-4.61-14.25-3.42-25.87 3.15a10.147 10.147 0 0 0-14.64 0c-11.62-6.57-21.26-7.77-25.87-3.15-4.61 4.61-3.42 14.25 3.15 25.87a10.147 10.147 0 0 0 0 14.64c-6.57 11.62-7.76 21.26-3.15 25.87 1.86 1.86 4.54 2.78 7.84 2.78 4.87 0 11.1-2.02 18.03-5.94a10.147 10.147 0 0 0 14.64 0c6.93 3.92 13.16 5.94 18.03 5.94 3.3 0 5.98-.92 7.84-2.78 4.62-4.61 3.42-14.25-3.15-25.87zM50 81.16c-2.54 0-4.8-1.16-6.31-2.97-.19-.23-.37-.47-.53-.72a8.13 8.13 0 0 1-1.35-4.49c0-.53.06-1.05.15-1.56.06-.29.13-.58.21-.86 1.03-3.34 4.15-5.77 7.82-5.77s6.79 2.43 7.82 5.77c.09.28.16.57.21.86.1.5.15 1.02.15 1.56.02 4.51-3.65 8.18-8.17 8.18zm0-18.38c-4.48 0-8.28 2.91-9.65 6.93a22.147 22.147 0 0 1-10.07-10.06c4.03-1.36 6.93-5.17 6.93-9.65s-2.91-8.28-6.93-9.65C32.42 36 36 32.42 40.35 30.28c1.36 4.03 5.17 6.93 9.65 6.93s8.28-2.91 9.65-6.93C64 32.42 67.58 36 69.72 40.35c-4.03 1.36-6.93 5.17-6.93 9.65s2.91 8.28 6.93 9.65a22.216 22.216 0 0 1-10.07 10.07c-1.37-4.03-5.17-6.94-9.65-6.94zM27.03 41.81c.53 0 1.05.05 1.55.15.29.06.58.13.87.21 3.34 1.03 5.77 4.15 5.77 7.82s-2.43 6.79-5.77 7.82c-.28.09-.57.16-.87.21a8.13 8.13 0 0 1-6.04-1.2c-.25-.17-.5-.34-.73-.53a8.175 8.175 0 0 1-2.97-6.3c0-4.51 3.67-8.18 8.19-8.18zm45.94 16.38c-.53 0-1.05-.05-1.55-.15-.29-.06-.58-.13-.87-.21-3.34-1.03-5.77-4.15-5.77-7.82s2.43-6.79 5.77-7.82c.28-.09.57-.16.87-.21a8.13 8.13 0 0 1 6.04 1.2c.25.17.49.34.72.53a8.18 8.18 0 0 1 2.97 6.31c.01 4.5-3.66 8.17-8.18 8.17zm8.81-39.97c3.85 3.85 2.55 12.69-3.33 23.21a10.065 10.065 0 0 0-5.48-1.61c-.43 0-.84.03-1.25.09a23.896 23.896 0 0 0-11.61-11.62c.05-.41.09-.83.09-1.25 0-2.02-.6-3.9-1.61-5.48 10.5-5.89 19.34-7.19 23.19-3.34zM50 18.84c2.53 0 4.8 1.16 6.3 2.97.19.23.37.48.53.73a8.13 8.13 0 0 1 1.2 6.04c-.06.29-.13.58-.21.86-1.03 3.34-4.15 5.77-7.82 5.77s-6.79-2.43-7.82-5.77c-.09-.28-.16-.57-.21-.86-.1-.5-.15-1.02-.15-1.55-.01-4.52 3.66-8.19 8.18-8.19zm-31.78-.62c3.85-3.85 12.69-2.55 23.21 3.33a10.065 10.065 0 0 0-1.61 5.48c0 .43.03.84.09 1.25A23.815 23.815 0 0 0 28.3 39.9c-.41-.05-.83-.09-1.25-.09-2.02 0-3.9.6-5.48 1.61-5.9-10.51-7.2-19.35-3.35-23.2zm0 63.56c-3.85-3.85-2.55-12.69 3.33-23.21 1.58 1.02 3.46 1.61 5.48 1.61.43 0 .84-.03 1.25-.09 2.39 5.14 6.47 9.22 11.61 11.61-.05.41-.09.83-.09 1.25 0 2.02.6 3.9 1.61 5.48-10.5 5.9-19.34 7.2-23.19 3.35zm63.56 0c-3.85 3.85-12.69 2.55-23.21-3.33 1.02-1.58 1.61-3.46 1.61-5.48 0-.43-.03-.84-.09-1.25 5.14-2.39 9.22-6.47 11.61-11.61.41.05.83.09 1.25.09 2.02 0 3.9-.6 5.48-1.61 5.9 10.5 7.2 19.34 3.35 23.19z" fill="url(#SVGID_1_)"/></svg>