<?xml version="1.0" encoding="utf-8"?>
<!-- Generator: Adobe Illustrator 16.0.0, SVG Export Plug-In . SVG Version: 6.00 Build 0)  -->
<!DOCTYPE svg PUBLIC "-//W3C//DTD SVG 1.1//EN" "http://www.w3.org/Graphics/SVG/1.1/DTD/svg11.dtd">
<svg version="1.1" id="Layer_1" xmlns="http://www.w3.org/2000/svg" xmlns:xlink="http://www.w3.org/1999/xlink" x="0px" y="0px"
	 width="235.783px" height="23.825px" viewBox="0 0 235.783 23.825" style="enable-background:new 0 0 235.783 23.825;"
	 xml:space="preserve">
<g>
	<defs>
		<rect id="SVGID_1_" width="235.783" height="23.825"/>
	</defs>
	<clipPath id="SVGID_2_">
		<use xlink:href="#SVGID_1_"  style="overflow:visible;"/>
	</clipPath>
	<g style="clip-path:url(#SVGID_2_);">
		<defs>
			<rect id="SVGID_3_" y="0" width="235.783" height="23.825"/>
		</defs>
		<clipPath id="SVGID_4_">
			<use xlink:href="#SVGID_3_"  style="overflow:visible;"/>
		</clipPath>
		<path style="clip-path:url(#SVGID_4_);fill:#4A575E;" d="M62.448,23.464c-0.534,0-0.944-0.328-1.149-0.944L54.24,1.1
			c0-0.534,0.411-0.945,0.944-0.945h3.119c0.534,0,0.944,0.37,1.108,0.985l5.171,16.621L69.753,1.14
			c0.164-0.615,0.574-0.985,1.108-0.985h3.118c0.534,0,0.944,0.411,0.944,0.945l-7.058,21.42c-0.206,0.616-0.616,0.944-1.149,0.944
			H62.448z"/>
		<path style="clip-path:url(#SVGID_4_);fill:#4A575E;" d="M74.512,14.97c0-5.048,2.627-8.372,8.167-8.372
			c5.458,0,8.166,3.324,8.166,8.372c0,5.458-2.626,8.699-8.166,8.699S74.512,20.428,74.512,14.97 M85.593,15.011
			c0-1.684-0.288-3.981-2.914-3.981s-2.914,2.298-2.914,3.981c0,1.682,0,4.268,2.914,4.268S85.593,16.693,85.593,15.011"/>
		<path style="clip-path:url(#SVGID_4_);fill:#4A575E;" d="M103.648,7.788c0-0.534,0.411-0.944,0.944-0.944h3.037
			c0.533,0,0.944,0.41,0.944,0.944v13.214c0,0.452-0.288,0.821-0.657,1.025c-2.298,1.19-4.473,1.642-6.32,1.642
			c-5.54,0-8.084-2.133-8.084-7.55V7.788c0-0.534,0.41-0.944,0.944-0.944h3.037c0.533,0,0.944,0.41,0.944,0.944v8.332
			c0,2.954,0.697,3.158,3.036,3.158c0.369,0,1.519-0.122,2.175-0.902V7.788z"/>
		<path style="clip-path:url(#SVGID_4_);fill:#4A575E;" d="M126.341,9.306c0,0.082-0.041,0.206-0.944,2.093
			c-0.164,0.369-0.451,0.533-0.861,0.533c-0.164,0-0.369-0.041-0.574-0.164c-1.519-0.779-2.585-0.738-3.57-0.738
			c-1.888,0-3.817,1.149-3.817,4.063c0,2.954,1.929,4.185,3.817,4.185c0.985,0,2.093,0,3.611-0.779
			c0.164-0.082,0.328-0.123,0.533-0.123c0.369,0,0.738,0.164,0.861,0.534c0.903,1.888,0.944,2.011,0.944,2.093
			c0,0.369-0.287,0.739-0.656,1.025c-1.847,1.437-3.816,1.642-5.664,1.642c-5.54,0-8.371-3.118-8.371-8.576s2.831-8.495,8.371-8.495
			c1.848,0,3.858,0.246,5.664,1.682C126.054,8.568,126.341,8.938,126.341,9.306"/>
		<path style="clip-path:url(#SVGID_4_);fill:#4A575E;" d="M129.295,1.099c0-0.534,0.41-0.944,0.944-0.944h3.035
			c0.534,0,0.944,0.41,0.944,0.944v7.099c1.888-1.559,3.284-1.559,3.981-1.559c4.432,0,5.663,3.242,5.663,7.469v8.412
			c0,0.534-0.41,0.944-0.943,0.944h-3.038c-0.533,0-0.943-0.41-0.943-0.944v-8.248c0-3.037-1.148-3.242-2.585-3.242
			c-0.656,0-1.19,0.246-1.56,0.533c-0.206,0.164-0.411,0.328-0.575,0.534V22.52c0,0.534-0.41,0.944-0.944,0.944h-3.035
			c-0.534,0-0.944-0.41-0.944-0.944V1.099z"/>
		<path style="clip-path:url(#SVGID_4_);fill:#4A575E;" d="M152.069,14.026v8.495c0,0.533-0.411,0.943-0.943,0.943h-3.036
			c-0.534,0-0.944-0.41-0.944-0.943V1.099c0-0.533,0.41-0.944,0.944-0.944h13.501c0.533,0,0.942,0.411,0.942,0.944v2.503
			c0,0.534-0.409,0.945-0.942,0.945h-9.521v5.088h6.937c0.533,0,0.942,0.41,0.942,0.944v2.503c0,0.532-0.409,0.943-0.942,0.943
			H152.069z"/>
		<path style="clip-path:url(#SVGID_4_);fill:#4A575E;" d="M162.533,14.97c0-5.048,2.627-8.372,8.167-8.372
			c5.458,0,8.166,3.324,8.166,8.372c0,5.458-2.626,8.699-8.166,8.699S162.533,20.428,162.533,14.97 M173.614,15.011
			c0-1.684-0.288-3.981-2.914-3.981c-2.627,0-2.914,2.298-2.914,3.981c0,1.682,0,4.268,2.914,4.268S173.614,16.693,173.614,15.011"
			/>
		<path style="clip-path:url(#SVGID_4_);fill:#4A575E;" d="M193.352,7.87c0.37,0.287,0.534,0.616,0.534,0.985
			c0,0.082-0.041,0.205-0.082,0.369l-0.821,2.011c-0.204,0.41-0.492,0.615-0.902,0.615c-0.082,0-0.205-0.041-0.37-0.082
			c-0.943-0.492-1.928-0.738-2.626-0.738c-0.615,0-2.092,0.287-2.216,1.108V22.52c0,0.534-0.41,0.944-0.944,0.944h-3.036
			c-0.534,0-0.943-0.41-0.943-0.944V9.265c0-0.451,0.327-0.739,0.656-1.026c1.724-1.395,4.35-1.641,6.319-1.641
			C190.396,6.598,192.08,6.844,193.352,7.87"/>
		<path style="clip-path:url(#SVGID_4_);fill:#4A575E;" d="M206.853,11.03l4.351-10.382c0.205-0.328,0.451-0.493,0.819-0.493h4.269
			c0.534,0,0.903,0.411,0.944,0.944c0.533,10.752,0.738,16.046,0.943,18.713c0.082,1.559,0.123,2.463,0.164,2.709
			c0,0.492-0.533,0.944-1.066,0.944h-2.913c-0.534,0-0.944-0.411-0.944-0.944l-0.862-12.886l-3.733,9.192
			c-0.164,0.328-0.616,0.698-0.985,0.698h-1.97c-0.369,0-0.821-0.37-0.985-0.698l-3.693-9.192l-0.943,12.886
			c0,0.533-0.411,0.944-0.944,0.944h-2.913c-0.534,0-1.067-0.452-1.067-0.944c0-0.246,0.041-1.15,0.164-2.709
			c0.124-2.667,0.451-7.961,0.985-18.713c0.041-0.533,0.41-0.944,0.943-0.944h4.268c0.37,0,0.616,0.165,0.821,0.493L206.853,11.03z"
			/>
		<path style="clip-path:url(#SVGID_4_);fill:#4A575E;" d="M233.896,18.375c0.37,0,0.739,0.165,0.862,0.534l0.861,1.765
			c0.041,0.164,0.082,0.287,0.082,0.328c0,0.369-0.288,0.738-0.657,1.025c-1.846,1.642-4.35,1.642-6.195,1.642
			c-5.54,0-7.838-3.283-7.838-8.699c0-5.048,2.339-8.372,7.838-8.372c4.432,0,6.935,2.216,6.935,5.212
			c0,3.816-2.38,5.745-6.115,5.745c-1.189,0-2.38-0.164-3.61-0.534c0,1.149,0.861,2.257,2.791,2.257c0.983,0,2.995,0,4.514-0.778
			C233.526,18.417,233.69,18.375,233.896,18.375 M226.017,13.042c0.615,0.532,1.806,0.696,2.462,0.696c1.6,0,2.38-0.409,2.38-1.271
			c0-1.19-0.903-1.436-2.01-1.436C227.411,11.03,226.345,11.563,226.017,13.042"/>
		<path style="clip-path:url(#SVGID_4_);fill:#DD5E70;" d="M16.543,14.321c-0.837,1.476-2.42,2.473-4.238,2.475
			c-2.514,0.003-4.808-2.219-4.886-4.73C7.335,9.299,9.553,7.029,12.3,7.029c1.882,0,3.512,1.065,4.326,2.625
			c0.475,0.913,1.46,1.445,2.489,1.445h0.198c0.641,0,1.178-0.472,1.271-1.106c0.26-1.778,0.873-3.447,1.771-4.936
			C20.129,1.999,16.457,0,12.3,0C5.507,0,0,5.333,0,11.912c0,6.579,5.507,11.913,12.3,11.913c4.157,0,7.829-1.999,10.055-5.056
			c-0.894-1.486-1.507-3.148-1.769-4.92c-0.093-0.634-0.63-1.105-1.271-1.105h-0.193C18.035,12.744,17.08,13.375,16.543,14.321"/>
		<path style="clip-path:url(#SVGID_4_);fill:#51B748;" d="M34.433,0C28.479,0,23.517,4.097,22.38,9.538
			c-0.167,0.803,0.444,1.561,1.264,1.561h3.963c1.087,0,2.043-0.632,2.578-1.579c0.836-1.479,2.42-2.478,4.239-2.48
			c2.516-0.004,4.811,2.215,4.889,4.729c0.084,2.767-2.133,5.035-4.881,5.035c-1.878,0-3.506-1.062-4.322-2.619
			c-0.476-0.91-1.46-1.441-2.489-1.441h-3.973c-0.821,0-1.433,0.759-1.263,1.563c1.144,5.431,6.102,9.519,12.047,9.519
			c6.793,0,12.3-5.335,12.3-11.914C46.732,5.333,41.226,0,34.433,0"/>
		<g style="opacity:0.2;clip-path:url(#SVGID_4_);">
			<g>
				<defs>
					<rect id="SVGID_5_" x="17.811" y="3.261" width="4.544" height="7.838"/>
				</defs>
				<clipPath id="SVGID_6_">
					<use xlink:href="#SVGID_5_"  style="overflow:visible;"/>
				</clipPath>
				<g style="clip-path:url(#SVGID_6_);">
					<defs>
						<rect id="SVGID_7_" x="17.811" y="3.262" width="4.544" height="7.838"/>
					</defs>
					<clipPath id="SVGID_8_">
						<use xlink:href="#SVGID_7_"  style="overflow:visible;"/>
					</clipPath>
					<path style="clip-path:url(#SVGID_8_);fill:#231F20;" d="M19.115,11.099h0.198c0.641,0,1.178-0.473,1.271-1.106
						c0.259-1.779,0.873-3.448,1.771-4.937c-0.474-0.651-1.017-1.249-1.613-1.795c-1.648,2.109-2.708,4.701-2.931,7.529
						C18.211,10.988,18.657,11.099,19.115,11.099"/>
				</g>
			</g>
		</g>
		<g style="opacity:0.2;clip-path:url(#SVGID_4_);">
			<g>
				<defs>
					<rect id="SVGID_9_" x="17.814" y="12.744" width="4.542" height="7.819"/>
				</defs>
				<clipPath id="SVGID_10_">
					<use xlink:href="#SVGID_9_"  style="overflow:visible;"/>
				</clipPath>
				<g style="clip-path:url(#SVGID_10_);">
					<defs>
						<rect id="SVGID_11_" x="17.814" y="12.745" width="4.541" height="7.819"/>
					</defs>
					<clipPath id="SVGID_12_">
						<use xlink:href="#SVGID_11_"  style="overflow:visible;"/>
					</clipPath>
					<path style="clip-path:url(#SVGID_12_);fill:#231F20;" d="M22.355,18.769c-0.895-1.485-1.509-3.147-1.769-4.92
						c-0.094-0.635-0.631-1.104-1.272-1.104h-0.192c-0.47,0-0.911,0.123-1.309,0.332c0.232,2.812,1.289,5.388,2.93,7.487
						C21.338,20.018,21.881,19.417,22.355,18.769"/>
				</g>
			</g>
		</g>
	</g>
</g>
</svg>
