<?xml version="1.0" encoding="utf-8"?>
<!-- Generator: Adobe Illustrator 22.0.1, SVG Export Plug-In . SVG Version: 6.00 Build 0)  -->
<svg version="1.1" id="Layer_1" xmlns="http://www.w3.org/2000/svg" xmlns:xlink="http://www.w3.org/1999/xlink" x="0px" y="0px"
	 viewBox="0 0 465 91" style="enable-background:new 0 0 465 91;" xml:space="preserve">
<style type="text/css">
	.st0{fill:#5A6A82;}
	.st1{fill:url(#SVGID_1_);}
	.st2{fill:url(#SVGID_2_);}
	.st3{fill:url(#SVGID_3_);}
	.st4{fill:url(#SVGID_4_);}
	.st5{fill:url(#SVGID_5_);}
	.st6{fill:#261B54;}
	.st7{fill:url(#SVGID_6_);}
	.st8{fill:url(#SVGID_7_);}
	.st9{fill:url(#SVGID_8_);}
	.st10{fill:url(#SVGID_9_);}
	.st11{fill:url(#SVGID_10_);}
	.st12{fill:url(#SVGID_11_);}
</style>
<path class="st0" d="M0.8,10.9h4.7v5.2H0.8V10.9z M1.3,26.4h3.8v39.3H1.3V26.4z"/>
<path class="st0" d="M16.9,26.4h3.8v8.8c3.4-5.2,8.4-9.7,16.2-9.7c9.5,0,19.1,7.6,19.1,20.4V46c0,12.8-9.6,20.6-19.1,20.6
	c-7.9,0-12.9-4.5-16.2-9.4V78h-3.8V26.4z M51.9,46.2V46c0-10.3-7.2-16.9-15.4-16.9c-8.2,0-16,6.9-16,16.9v0.2
	c0,10.1,7.9,16.9,16,16.9C45,62.9,51.9,56.7,51.9,46.2z"/>
<path class="st0" d="M78.7,46.1v-0.2c0-11.4,8-20.5,18.6-20.5c11,0,18,8.9,18,20.6c0,0.7,0,0.9-0.1,1.5H82.8
	C83.4,57.3,90.5,63,98.2,63c6.1,0,10.2-2.7,13.5-6.2l2.6,2.3c-4,4.3-8.7,7.4-16.3,7.4C87.7,66.6,78.7,58.3,78.7,46.1z M111.3,44.2
	c-0.5-7.9-5.1-15.3-14.1-15.3c-7.8,0-13.8,6.5-14.5,15.3H111.3z"/>
<path class="st0" d="M194.5,46.2V46c0-11,8.8-20.6,20-20.6c7.4,0,12,3.4,15.7,7.2l-2.7,2.8c-3.4-3.5-7.2-6.5-13.1-6.5
	c-8.9,0-15.9,7.5-15.9,16.9V46c0,9.5,7.2,17,16.2,17c5.5,0,9.9-2.9,13.2-6.5l2.6,2.3c-4,4.5-8.8,7.8-16,7.8
	C203.2,66.6,194.5,57.2,194.5,46.2z"/>
<path class="st0" d="M241.9,9.4h3.8v24.3c2.6-4.6,7-8.2,14.2-8.2c9.9,0,15.7,6.8,15.7,16.2v24h-3.8V42.3c0-8.1-4.5-13.4-12.5-13.4
	c-7.7,0-13.6,5.9-13.6,14v22.7h-3.8V9.4z"/>
<path class="st0" d="M287.6,54.2v-0.2c0-8.2,7-12.8,17.2-12.8c5.5,0,9.2,0.7,13,1.7v-1.7c0-7.9-4.9-12-12.9-12
	c-4.8,0-8.7,1.3-12.3,3.2l-1.4-3.3c4.3-2,8.6-3.4,13.9-3.4c5.3,0,9.6,1.5,12.4,4.3c2.6,2.6,4,6.2,4,11.1v24.5h-3.7v-6.5
	c-2.7,3.8-7.6,7.5-15,7.5C295.5,66.6,287.6,62.4,287.6,54.2z M317.9,50.9v-4.5c-3.3-0.8-7.7-1.8-13.3-1.8c-8.3,0-12.9,3.7-12.9,9.2
	V54c0,5.7,5.4,9,11.4,9C311,63,317.9,58.1,317.9,50.9z"/>
<path class="st0" d="M333.2,26.4h3.8v7.3c2.6-4.6,7-8.2,14.2-8.2c9.9,0,15.7,6.8,15.7,16.2v24h-3.8V42.3c0-8.1-4.5-13.4-12.5-13.4
	c-7.7,0-13.6,5.9-13.6,14v22.7h-3.8V26.4z"/>
<path class="st0" d="M380.3,72.1l2.2-3.1c4.7,3.6,10.1,5.5,15.9,5.5c9,0,15.4-5.2,15.4-15.3v-5.7c-3.4,4.9-8.6,9.1-16.4,9.1
	c-9.5,0-18.9-7.2-18.9-18.5v-0.2c0-11.3,9.4-18.6,18.9-18.6c7.9,0,13.2,4.2,16.4,8.8v-7.9h3.8v33.2c0,5.7-1.8,10.2-5,13.3
	c-3.4,3.4-8.5,5.2-14.3,5.2C391.8,78.1,385.7,76.1,380.3,72.1z M414,44.2V44c0-9.1-8.1-14.9-16.3-14.9c-8.2,0-15.2,5.7-15.2,14.9
	v0.2c0,8.9,7.1,15,15.2,15C406,59.1,414,53.1,414,44.2z"/>
<path class="st0" d="M428.5,46.1v-0.2c0-11.4,8-20.5,18.6-20.5c11,0,18,8.9,18,20.6c0,0.7,0,0.9-0.1,1.5h-32.6
	c0.7,9.8,7.7,15.5,15.4,15.5c6.1,0,10.2-2.7,13.5-6.2l2.6,2.3c-4,4.3-8.7,7.4-16.3,7.4C437.4,66.6,428.5,58.3,428.5,46.1z
	 M461.1,44.2c-0.5-7.9-5.1-15.3-14.1-15.3c-7.8,0-13.8,6.5-14.5,15.3H461.1z"/>
<g>
	<linearGradient id="SVGID_1_" gradientUnits="userSpaceOnUse" x1="191.8394" y1="87.8483" x2="172.2052" y2="44.5049">
		<stop  offset="3.919654e-02" style="stop-color:#2CF4E1"/>
		<stop  offset="1" style="stop-color:#2CB2E1"/>
	</linearGradient>
	<polygon class="st1" points="199.5,91 173.3,64.7 181,46 	"/>
	
		<linearGradient id="SVGID_2_" gradientUnits="userSpaceOnUse" x1="-3443.7637" y1="7012.9312" x2="-3436.4651" y2="6968.1328" gradientTransform="matrix(-0.7071 0.7071 -0.7071 -0.7071 2633.3513 7399.5781)">
		<stop  offset="3.919654e-02" style="stop-color:#2CF4E1"/>
		<stop  offset="1" style="stop-color:#2CB2E1"/>
	</linearGradient>
	<path class="st2" d="M109.5,1c0,0,4.4,10.8,5.4,13.3L128.1,46l7.7-18.7L109.5,1z"/>
	<linearGradient id="SVGID_3_" gradientUnits="userSpaceOnUse" x1="152.3814" y1="61.1115" x2="122.5551" y2="91.3202">
		<stop  offset="0" style="stop-color:#2CB2E1"/>
		<stop  offset="0.9608" style="stop-color:#2CF4E1"/>
	</linearGradient>
	<path class="st3" d="M144.2,68.2C144.2,68.2,144.2,68.2,144.2,68.2l-8.4-3.5l-26.4,26.4c0,0,10.9-4.5,13.4-5.5l31.7-13.1
		L144.2,68.2z"/>
	<linearGradient id="SVGID_4_" gradientUnits="userSpaceOnUse" x1="145.1976" y1="36.5662" x2="109.9679" y2="89.4108">
		<stop  offset="0" style="stop-color:#2CE5E1"/>
		<stop  offset="1" style="stop-color:#2CB2E1"/>
	</linearGradient>
	<path class="st4" d="M142.2,33.7l-6.4-6.4L128.1,46L115,77.8c-1,2.5-5.5,13.4-5.5,13.4l26.4-26.4v0L154.5,46L142.2,33.7z"/>
	<linearGradient id="SVGID_5_" gradientUnits="userSpaceOnUse" x1="198.8416" y1="4.9297" x2="154.9958" y2="28.0982">
		<stop  offset="3.919654e-02" style="stop-color:#2CF4E1"/>
		<stop  offset="1" style="stop-color:#2CB2E1"/>
	</linearGradient>
	<polygon class="st5" points="199.6,0.9 173.3,27.3 154.5,19.5 	"/>
	<polygon class="st6" points="142.2,33.7 142.2,33.7 154.5,46 154.5,46 	"/>
	<linearGradient id="SVGID_6_" gradientUnits="userSpaceOnUse" x1="115.6231" y1="1.5969" x2="163.6284" y2="36.4395">
		<stop  offset="0" style="stop-color:#2CE5E1"/>
		<stop  offset="0.6595" style="stop-color:#2CB2E1"/>
		<stop  offset="1" style="stop-color:#2C9EE1"/>
	</linearGradient>
	<path class="st7" d="M164.9,23.8L164.9,23.8l-10.4-4.3L122.8,6.4c-2.5-1-13.3-5.4-13.3-5.4l32.7,32.7L154.5,46l0,0l12.3-12.3
		l6.4-6.4L164.9,23.8z"/>
	<linearGradient id="SVGID_7_" gradientUnits="userSpaceOnUse" x1="145.3662" y1="55.5139" x2="199.0329" y2="92.3473">
		<stop  offset="0" style="stop-color:#2C9EE1"/>
		<stop  offset="0.3405" style="stop-color:#2CB2E1"/>
		<stop  offset="1" style="stop-color:#2CE5E1"/>
	</linearGradient>
	<path class="st8" d="M166.8,58.3L166.8,58.3L166.8,58.3L154.5,46l-12.3,12.3l-6.4,6.4l8.4,3.5l10.4,4.3l31.8,13.1
		c2.5,1,13.2,5.4,13.2,5.4L166.8,58.3z"/>
	<polygon class="st6" points="154.5,46 154.5,46 154.5,46 154.5,46 	"/>
	
		<linearGradient id="SVGID_8_" gradientUnits="userSpaceOnUse" x1="-5529.3628" y1="4057.1165" x2="-5529.3267" y2="4057.4729" gradientTransform="matrix(0.7071 -0.7071 0.7071 0.7071 1195.444 -6732.7583)">
		<stop  offset="1.075300e-02" style="stop-color:#06899F"/>
		<stop  offset="1" style="stop-color:#83D3ED"/>
	</linearGradient>
	<polygon class="st9" points="154.5,46 154.5,46 154.5,46 154.5,46 	"/>
	
		<linearGradient id="SVGID_9_" gradientUnits="userSpaceOnUse" x1="-3446.9844" y1="6952.4141" x2="-3446.9353" y2="6952.8979" gradientTransform="matrix(-0.7071 0.7071 -0.7071 -0.7071 2633.3513 7399.5781)">
		<stop  offset="1.075300e-02" style="stop-color:#06899F"/>
		<stop  offset="1" style="stop-color:#83D3ED"/>
	</linearGradient>
	<polygon class="st10" points="154.5,46 154.5,46 154.5,46 154.5,46 	"/>
	
		<linearGradient id="SVGID_10_" gradientUnits="userSpaceOnUse" x1="-5529.3623" y1="4057.1165" x2="-5529.3135" y2="4057.6003" gradientTransform="matrix(0.7071 -0.7071 0.7071 0.7071 1195.444 -6732.7583)">
		<stop  offset="1.075300e-02" style="stop-color:#06899F"/>
		<stop  offset="1" style="stop-color:#83D3ED"/>
	</linearGradient>
	<polygon class="st11" points="154.5,46 154.5,46 154.5,46 154.5,46 	"/>
	<linearGradient id="SVGID_11_" gradientUnits="userSpaceOnUse" x1="164.845" y1="54.0534" x2="201.8168" y2="2.9509">
		<stop  offset="0" style="stop-color:#2CE5E1"/>
		<stop  offset="1" style="stop-color:#2CB2E1"/>
	</linearGradient>
	<path class="st12" d="M166.8,33.7L154.5,46l12.3,12.3l6.4,6.4L181,46l0,0l13.1-31.8c1-2.5,5.5-13.4,5.5-13.4L166.8,33.7z"/>
</g>
</svg>
