<?xml version="1.0" encoding="UTF-8"?>
<svg width="67px" height="67px" viewBox="0 0 67 67" version="1.1" xmlns="http://www.w3.org/2000/svg" xmlns:xlink="http://www.w3.org/1999/xlink">
    <!-- Generator: Sketch 52.4 (67378) - http://www.bohemiancoding.com/sketch -->
    <title>Token icon Copy</title>
    <desc>Created with Sketch.</desc>
    <g id="Token-icon-Copy" stroke="none" stroke-width="1" fill="none" fill-rule="evenodd">
        <g id="Logo" transform="translate(-0.939597, -0.600000)">
            <rect id="Rectangle" x="1" y="1" width="66" height="66"></rect>
            <rect id="Rectangle" fill="#1B66FF" x="0.939597315" y="0.6" width="67" height="67"></rect>
            <path d="M44.2172041,28.2565766 L44.2172041,26.2076017 C44.2172041,25.3186207 44.1932763,24.4912667 43.3069374,24.4912667 L37.3116008,24.4912667 L37.3116008,18.6098392 C37.3116008,17.7211009 36.8399998,17.8501132 35.953661,17.8501132 L33.7326115,17.8501132 C32.8465146,17.8501132 32.0661589,17.7211009 32.0661589,18.6098392 L32.0661589,24.4912667 L25.9299953,24.4912667 C25.0436565,24.4912667 24.8576082,25.3186207 24.8576082,26.2076017 L24.8576082,28.2565766 C24.8576082,29.1453149 25.0436565,30.1104803 25.9299953,30.1104803 L32.0661589,30.1104803 L32.0661589,35.2187241 L25.9299953,35.2187241 C25.0436565,35.2187241 24.8576082,35.8534332 24.8576082,36.7424141 L24.8576082,38.7911464 C24.8576082,39.6801274 25.0436565,40.3272104 25.9299953,40.3272104 L32.0518826,40.3272104 L32.0731761,40.3272104 C32.0731761,43.9030295 29.5051405,46.665567 26.2322441,47.2677642 C25.4818928,47.4060609 24.8576082,47.4534375 24.8576082,48.2184367 L24.8576082,51.5966292 C24.8576082,52.5850868 25.827669,52.6380438 26.8025691,52.4907699 C32.7119788,51.5981496 37.3307165,46.4571514 37.3307165,40.3272104 L43.3069374,40.3272104 C44.1932763,40.3272104 44.2172041,39.6801274 44.2172041,38.7911464 L44.2172041,36.7424141 C44.2172041,35.8534332 44.1932763,35.2187241 43.3069374,35.2187241 L37.3116008,35.2187241 L37.3116008,30.1104803 L43.3069374,30.1104803 C44.1932763,30.1104803 44.2172041,29.1453149 44.2172041,28.2565766 Z" id="Combined-Shape-path" fill="#FFFFFF" fill-rule="nonzero"></path>
        </g>
    </g>
</svg>