<?xml version="1.0" encoding="iso-8859-1"?>
<!-- Generator: Adobe Illustrator 19.0.0, SVG Export Plug-In . SVG Version: 6.00 Build 0)  -->
<svg version="1.1" id="Layer_1" xmlns="http://www.w3.org/2000/svg" xmlns:xlink="http://www.w3.org/1999/xlink" x="0px" y="0px"
	 viewBox="0 0 500 500" style="enable-background:new 0 0 500 500;" xml:space="preserve">
<path style="fill:#31CB9D;" d="M76.739,249.084c0.003-38.113,0.333-76.23-0.184-114.336c-0.17-12.548,4.604-21.344,14.285-28.646
	c38.284-28.877,76.407-57.967,114.587-86.982c1.083-0.823,2.115-1.715,3.2-2.535c3.727-2.816,7.685-4.701,12.181-1.828
	c4.349,2.78,4.938,6.926,3.911,11.666c-2.376,10.962-4.584,21.96-6.94,32.926c-12.996,60.488-26.105,120.951-38.875,181.486
	c-1.154,5.472-1.191,11.609-0.032,17.073c14.173,66.839,28.672,133.609,43.064,200.402c1.074,4.982,1.977,10.001,2.955,15.004
	c0.854,4.367-0.017,8.161-3.892,10.772c-4,2.695-7.842,1.593-11.36-0.985c-7.954-5.83-15.876-11.707-23.715-17.691
	c-31.089-23.73-61.972-47.734-93.297-71.147c-10.984-8.209-16.402-17.685-16.133-31.866
	C77.208,324.638,76.736,286.857,76.739,249.084z M236.276,255.799c10.302,5.967,20.624,11.898,30.953,17.818
	c45.145,25.876,90.37,51.613,135.392,77.702c12.117,7.021,21.323,6.863,21.107-12.409c-0.668-59.54-0.242-119.093-0.25-178.64
	c0-2.721,0.147-5.47-0.172-8.158c-0.839-7.061-5.372-10.365-12.09-8.327c-3.849,1.168-7.461,3.289-10.993,5.308
	c-48.427,27.676-96.826,55.402-145.22,83.136c-9.091,5.21-18.13,10.508-29.364,17.025
	C230.633,252.335,233.412,254.14,236.276,255.799z M218.619,292.317c10.098,47.472,20.217,94.94,30.398,142.395
	c3.699,17.244,7.424,34.484,11.422,51.66c2.356,10.122,8.556,12.373,17.173,6.678c1.415-0.935,2.774-1.961,4.124-2.99
	c13.498-10.297,26.983-20.61,40.482-30.906c23.761-18.123,47.594-36.153,71.264-54.393c11.598-8.937,10.919-15.623-1.887-23.032
	c-8.817-5.101-17.602-10.257-26.436-15.326c-34.46-19.774-68.924-39.54-103.408-59.272c-14.091-8.063-28.236-16.034-44.46-25.24
	C217.938,287.095,218.072,289.75,218.619,292.317z M219.254,215.56c2.997-1.501,6.078-2.857,8.98-4.524
	c41.58-23.89,83.129-47.834,124.701-71.738c13.267-7.629,26.66-15.042,39.846-22.808c11.117-6.547,11.661-13.277,1.859-21.311
	c-5.256-4.308-10.844-8.209-16.247-12.34c-32.959-25.199-65.849-50.491-98.896-75.574c-10.483-7.957-16.441-5.631-19.427,7.07
	c-2.565,10.909-5.129,21.821-7.476,32.778c-9.397,43.869-18.717,87.754-28.048,131.637c-2.522,11.86-4.985,23.733-7.475,35.6
	C217.799,214.753,218.526,215.156,219.254,215.56z"/>
</svg>
