<?xml version="1.0" encoding="UTF-8"?>
<svg width="148px" height="34px" viewBox="0 0 148 34" version="1.1" xmlns="http://www.w3.org/2000/svg" xmlns:xlink="http://www.w3.org/1999/xlink">
    <!-- Generator: Sketch 52.6 (67491) - http://www.bohemiancoding.com/sketch -->
    <title>kpy-beta-logo</title>
    <desc>Created with Sketch.</desc>
    <defs>
        <linearGradient x1="130.141469%" y1="103.37861%" x2="27.6826134%" y2="30.1146718%" id="linearGradient-1">
            <stop stop-color="#5C33F3" offset="0%"></stop>
            <stop stop-color="#2CADFF" offset="100%"></stop>
        </linearGradient>
    </defs>
    <g id="Assets" stroke="none" stroke-width="1" fill="none" fill-rule="evenodd">
        <g id="kpy-beta-logo">
            <text id="beta" font-family="Averta-Regular" font-size="10" font-weight="normal" fill="#102649">
                <tspan x="127" y="15">beta</tspan>
            </text>
            <g id="Korapay-Blue">
                <path d="M24.1329114,0.0787644788 L4.63893977,0 C4.63893977,0 4.63893977,0 4.61287831,0 C3.38798972,0 2.24128551,0.472586873 1.35519589,1.36525097 C0.469106269,2.23166023 0,3.41312741 0,4.64710425 L0,29.3528958 C0,30.5868726 0.469106269,31.7683398 1.35519589,32.634749 C2.21522405,33.5011583 3.38798972,34 4.61287831,34 C4.61287831,34 4.61287831,34 4.63893977,34 L24.1329114,33.9474903 L24.1329114,32.7660232 C24.1329114,26.7011583 21.8134415,21.16139 18.0084684,17.0393822 C21.9698103,12.7335907 24.1329114,7.19382239 24.1329114,1.28648649 L24.1329114,0.0787644788 Z M9.82517019,11.2895753 C7.5057003,10.3444015 5.0038002,9.74054054 2.3715928,9.60926641 L2.3715928,9.55675676 C6.02019712,9.00540541 8.91301911,6.06486486 9.40818684,2.38918919 L14.3077412,2.41544402 C14.0210652,5.85482625 12.4313161,9.00540541 9.82517019,11.2895753 Z M3.02312929,3.04555985 C3.44011264,2.62548263 4.01346475,2.38918919 4.61287831,2.38918919 C4.61287831,2.38918919 4.61287831,2.38918919 4.61287831,2.38918919 L6.98447112,2.38918919 C6.54142631,4.77837838 4.69106269,6.66872587 2.34553134,7.16756757 L2.34553134,4.64710425 C2.3715928,4.04324324 2.60614594,3.46563707 3.02312929,3.04555985 Z M2.3715928,24.4432432 L2.3715928,19.5073359 C8.70452744,20.0849421 13.7604506,25.2046332 14.3077412,31.584556 L9.40818684,31.6108108 C8.88695765,27.9088803 6.02019712,24.9945946 2.3715928,24.4432432 Z M4.63893977,31.6108108 C4.63893977,31.6108108 4.63893977,31.6108108 4.63893977,31.6108108 C4.0395262,31.6108108 3.4661741,31.3745174 3.04919075,30.9544402 C2.6322074,30.5343629 2.39765426,29.9567568 2.39765426,29.3528958 L2.39765426,26.8586873 C4.74318561,27.357529 6.59354922,29.2216216 7.03659403,31.6108108 L4.63893977,31.6108108 Z M21.7352571,31.5583012 L16.6532725,31.584556 C16.0799204,23.8918919 9.98153895,17.7220077 2.34553134,17.1181467 L2.34553134,11.9984556 C12.7961766,12.6023166 21.161905,21.0563707 21.7352571,31.5583012 Z M16.3144736,15.3590734 C15.0374621,14.2301158 13.6301433,13.2324324 12.1185786,12.392278 C14.7768475,9.74054054 16.392658,6.22239382 16.679334,2.41544402 L21.7613186,2.44169884 C21.4746425,7.27258687 19.572156,11.788417 16.3144736,15.3590734 Z" id="Shape" fill="url(#linearGradient-1)" fill-rule="nonzero"></path>
                <g id="Group" transform="translate(31.917722, 6.181818)" fill="#102649">
                    <path d="M21.5957402,6.4493007 C20.5661145,5.8965035 19.4044854,5.63326673 18.1108531,5.63326673 C16.79082,5.63326673 15.6027903,5.92282717 14.5731646,6.50194805 C13.5435388,7.08106893 12.751519,7.87077922 12.1971051,8.87107892 C11.6426912,9.87137862 11.3786846,11.0032967 11.3786846,12.2668332 C11.3786846,13.1881618 11.5370886,14.0831668 11.8802972,14.8728771 C12.1971051,15.6889111 12.6459163,16.3733267 13.2267309,16.9787712 C13.8075454,17.5578921 14.5203632,18.0317183 15.3651844,18.3476024 C16.2100055,18.6634865 17.1340286,18.8477522 18.1372537,18.8477522 C19.4308861,18.8477522 20.5925151,18.5845155 21.6221409,18.0317183 C22.6517666,17.4789211 23.4437865,16.6892108 24.024601,15.6889111 C24.6054155,14.6886114 24.8958228,13.5303696 24.8958228,12.2668332 C24.8958228,10.976973 24.6054155,9.81873127 24.024601,8.81843157 C23.3909851,7.79180819 22.5989653,7.0020979 21.5957402,6.4493007 Z M20.7509191,15.0571429 C20.0381013,15.7942058 19.1404788,16.1627373 18.0844524,16.1627373 C17.0020253,16.1627373 16.1044029,15.7942058 15.391585,15.0308192 C14.6787672,14.2674326 14.3355586,13.3461039 14.3355586,12.2405095 C14.3355586,11.1085914 14.6787672,10.1609391 15.3651844,9.42387612 C16.0516015,8.66048951 16.9756247,8.29195804 18.0844524,8.29195804 C19.1668795,8.29195804 20.0381013,8.66048951 20.7509191,9.39755245 C21.4637369,10.1346154 21.8069455,11.0822677 21.8069455,12.2405095 C21.8333462,13.3724276 21.4901376,14.3200799 20.7509191,15.0571429 Z" id="Shape" fill-rule="nonzero"></path>
                    <path d="M33.9512493,5.63326673 C33.8720473,5.63326673 33.7664447,5.63326673 33.5816401,5.63326673 C32.7896203,5.63326673 32.0768024,5.81753247 31.3639846,6.18606394 C30.6511668,6.5545954 30.0703522,7.08106893 29.5687397,7.76548452 L29.542339,7.76548452 L29.542339,5.84385614 L26.5854651,5.84385614 L26.5854651,18.6634865 L29.542339,18.6634865 L29.542339,12.5827173 C29.542339,11.871978 29.6743423,11.2665335 29.9383489,10.7137363 C30.2023555,10.1609391 30.6247661,9.71343656 31.1527793,9.39755245 C31.6807925,9.08166833 32.3144084,8.8974026 33.0536269,8.8974026 C33.3176335,8.8974026 33.6080407,8.8974026 33.9512493,8.92372627 L33.9512493,5.63326673 Z" id="Path"></path>
                    <path d="M44.1683049,7.34430569 L44.1155036,7.34430569 C43.1386791,6.18606394 41.8186461,5.60694306 40.1290039,5.60694306 C39.2577821,5.60694306 38.4393616,5.76488511 37.6737424,6.10709291 C36.9081233,6.4493007 36.2481068,6.8968032 35.6936929,7.47592408 C35.139279,8.05504496 34.7168685,8.76578422 34.4000605,9.58181818 C34.0832526,10.4241758 33.9248487,11.2928571 33.9248487,12.2405095 C33.9248487,13.0302198 34.0304513,13.740959 34.2152559,14.4516983 C34.4264612,15.1361139 34.7168685,15.7415584 35.0864777,16.268032 C35.456087,16.7945055 35.9048982,17.242008 36.4065107,17.6368631 C36.9081233,18.0317183 37.4889378,18.3212787 38.1225537,18.5055445 C38.7561695,18.6898102 39.4425867,18.7951049 40.1290039,18.7951049 C41.8714474,18.7951049 43.2442818,18.1633367 44.2211062,16.8734765 L44.2475069,16.8734765 L44.2475069,18.5845155 L47.0723775,18.5845155 L47.0723775,5.76488511 L44.1155036,5.76488511 L44.1155036,7.34430569 L44.1683049,7.34430569 Z M43.2178811,15.0834665 C42.5050633,15.7942058 41.6338415,16.1627373 40.6306164,16.1627373 C39.5481893,16.1627373 38.6505669,15.7942058 37.9641497,15.0834665 C37.2777325,14.3727273 36.9345239,13.4250749 36.9345239,12.2931568 C36.9345239,11.6877123 37.0401266,11.1349151 37.2249312,10.6347652 C37.4097358,10.1346154 37.6737424,9.71343656 38.016951,9.37122877 C38.3601596,9.02902098 38.7561695,8.76578422 39.2049807,8.58151848 C39.653792,8.39725275 40.1290039,8.29195804 40.6570171,8.29195804 C41.7130435,8.29195804 42.5842653,8.68681319 43.2706824,9.4501998 C43.9570996,10.2135864 44.3003082,11.1612388 44.3003082,12.2931568 C44.3003082,13.4250749 43.930699,14.3727273 43.2178811,15.0834665 Z" id="Shape" fill-rule="nonzero"></path>
                    <path d="M61.9887507,8.81843157 C61.7247441,8.31828172 61.4079362,7.8971029 61.0383269,7.50224775 C60.6687177,7.10739261 60.2463071,6.76518482 59.7974959,6.47562438 C59.3486846,6.18606394 58.8470721,5.97547453 58.2926582,5.84385614 C57.7382444,5.71223776 57.1838305,5.60694306 56.603016,5.60694306 C54.886973,5.60694306 53.5141387,6.18606394 52.5109136,7.34430569 L52.4581123,7.34430569 L52.4581123,5.79120879 L49.5012383,5.79120879 L49.5012383,23.7966034 L52.4581123,23.7966034 L52.4581123,17.0314186 L52.4845129,17.0314186 C53.4613374,18.215984 54.8077711,18.8214286 56.5502146,18.8214286 C57.2630325,18.8214286 57.923049,18.7161339 58.5566648,18.5318681 C59.1902807,18.3212787 59.7710952,18.0317183 60.2727078,17.6631868 C60.7743203,17.2946553 61.2231315,16.8208292 61.5927408,16.2943556 C61.96235,15.7678821 62.2527573,15.1624376 62.4639626,14.478022 C62.6751679,13.7936064 62.7543698,13.0565435 62.7543698,12.2668332 C62.7543698,11.6350649 62.6751679,11.0296204 62.5431646,10.4241758 C62.4111613,9.81873127 62.2527573,9.31858142 61.9887507,8.81843157 Z M58.7678701,15.0834665 C58.0814529,15.7942058 57.1838305,16.1627373 56.1014034,16.1627373 C55.045377,16.1627373 54.1477545,15.7942058 53.4349367,15.0834665 C52.7221189,14.3727273 52.3525096,13.4250749 52.3525096,12.2931568 C52.3525096,11.1349151 52.6957182,10.1872627 53.408536,9.42387612 C54.0949532,8.66048951 55.0189763,8.29195804 56.1014034,8.29195804 C57.1574298,8.29195804 58.0286516,8.66048951 58.7414695,9.39755245 C59.4542873,10.1346154 59.7974959,11.1085914 59.7974959,12.2931568 C59.7974959,13.4250749 59.4542873,14.3727273 58.7678701,15.0834665 Z" id="Shape" fill-rule="nonzero"></path>
                    <path d="M74.0010512,7.34430569 L73.9482499,7.34430569 C72.9714254,6.18606394 71.6513924,5.60694306 69.9617501,5.60694306 C69.0905283,5.60694306 68.2721079,5.76488511 67.5064887,6.10709291 C66.7408696,6.4493007 66.0808531,6.8968032 65.5264392,7.47592408 C64.9720253,8.05504496 64.5496147,8.76578422 64.2328068,9.58181818 C63.9159989,10.4241758 63.7575949,11.2928571 63.7575949,12.2405095 C63.7575949,13.0302198 63.8631976,13.740959 64.0480022,14.4516983 C64.2592075,15.1361139 64.5496147,15.7415584 64.919224,16.268032 C65.2888332,16.7945055 65.7376445,17.242008 66.239257,17.6368631 C66.7408696,18.0317183 67.3216841,18.3212787 67.9552999,18.5055445 C68.5889158,18.6898102 69.275333,18.7951049 69.9617501,18.7951049 C71.7041937,18.7951049 73.0770281,18.1633367 74.0538525,16.8734765 L74.0802532,16.8734765 L74.0802532,18.5845155 L76.9051238,18.5845155 L76.9051238,5.76488511 L73.9482499,5.76488511 L73.9482499,7.34430569 L74.0010512,7.34430569 Z M73.0506274,15.0834665 C72.3378096,15.7942058 71.4665878,16.1627373 70.4633627,16.1627373 C69.3809356,16.1627373 68.4833132,15.7942058 67.796896,15.0834665 C67.1104788,14.3727273 66.7672702,13.4250749 66.7672702,12.2931568 C66.7672702,11.6877123 66.8728729,11.1349151 67.0576775,10.6347652 C67.2424821,10.1346154 67.5064887,9.71343656 67.8496973,9.37122877 C68.1929059,9.02902098 68.5889158,8.76578422 69.037727,8.58151848 C69.4865382,8.39725275 69.9617501,8.29195804 70.4897633,8.29195804 C71.5457898,8.29195804 72.4170116,8.68681319 73.1034287,9.4501998 C73.7898459,10.2135864 74.1330545,11.1612388 74.1330545,12.2931568 C74.1330545,13.4250749 73.7634452,14.3727273 73.0506274,15.0834665 Z" id="Shape" fill-rule="nonzero"></path>
                    <polygon id="Path" points="87.9405999 5.81753247 84.6141167 14.4516983 84.587716 14.4516983 81.0500275 5.81753247 77.9347496 5.81753247 83.1620804 17.9264236 80.8388222 23.8229271 83.9541002 23.8229271 91.0294772 5.81753247"></polygon>
                    <polygon id="Path" points="11.7746946 5.81753247 8.28980737 5.81753247 3.03607595 11.6613886 2.98327463 11.6613886 2.98327463 0.157942058 0.0528013209 0.157942058 0.0528013209 18.6371628 2.98327463 18.6371628 2.98327463 15.6362637 5.14812878 13.2408092 5.2009301 13.2408092 8.52741332 18.6371628 11.8538965 18.6371628 7.15457898 11.0032967"></polygon>
                </g>
            </g>
        </g>
    </g>
</svg>