<?xml version="1.0" standalone="no"?>
<!DOCTYPE svg PUBLIC "-//W3C//DTD SVG 20010904//EN"
 "http://www.w3.org/TR/2001/REC-SVG-20010904/DTD/svg10.dtd">
<svg version="1.0" xmlns="http://www.w3.org/2000/svg"
 width="354.000000pt" height="354.000000pt" viewBox="0 0 354.000000 354.000000"
 preserveAspectRatio="xMidYMid meet">
<metadata>
Created by potrace 1.11, written by Peter Selinger 2001-2013
</metadata>
<g transform="translate(0.000000,354.000000) scale(0.100000,-0.100000)"
fill="#000000" stroke="none">
<path d="M843 3373 c-4 -2 -8 -190 -7 -418 1 -292 -2 -415 -10 -418 -6 -2 -75
-3 -153 -2 l-143 1 -14 -45 c-8 -26 -47 -147 -86 -271 -40 -124 -85 -265 -101
-315 -16 -49 -29 -95 -29 -100 0 -7 94 -10 268 -10 l269 0 -2 -135 c-1 -74 -2
-138 -3 -141 -1 -4 -136 -7 -299 -7 -164 0 -298 -4 -299 -8 -2 -5 -41 -128
-88 -274 -46 -146 -96 -301 -109 -345 -14 -44 -28 -88 -32 -97 -6 -16 20 -17
405 -18 226 0 415 -2 419 -5 5 -2 8 -140 7 -306 -1 -190 3 -304 9 -309 6 -4
217 -7 470 -6 l460 1 0 261 c0 218 2 263 15 275 8 9 41 44 72 80 31 35 75 84
97 108 l40 43 104 -158 c57 -88 154 -235 215 -328 62 -93 112 -173 112 -178 0
-4 5 -8 10 -8 6 0 10 -5 10 -11 0 -6 13 -28 30 -49 l30 -38 500 1 500 0 1 26
c4 82 35 31 -408 679 -78 114 -180 263 -226 332 -47 69 -130 191 -185 271
l-100 145 47 54 c25 30 93 108 151 175 58 66 130 150 160 185 51 59 178 205
239 275 14 17 69 80 121 140 52 61 97 112 100 115 53 55 64 74 66 110 l1 40
-504 0 -504 0 -34 -37 c-19 -21 -43 -47 -53 -58 -10 -11 -47 -53 -83 -94 -35
-41 -71 -82 -79 -91 -8 -9 -28 -32 -45 -51 -82 -94 -171 -195 -175 -199 -3 -3
-39 -43 -80 -90 -41 -47 -91 -103 -111 -124 l-37 -39 0 699 c-1 384 -1 715 -1
734 l-1 36 -459 0 c-253 -1 -463 -2 -468 -3z"/>
</g>
</svg>
