<?xml version="1.0" encoding="utf-8"?>
<!-- Generator: Adobe Illustrator 22.0.1, SVG Export Plug-In . SVG Version: 6.00 Build 0)  -->
<svg version="1.1" id="Layer_1" xmlns="http://www.w3.org/2000/svg" xmlns:xlink="http://www.w3.org/1999/xlink" x="0px" y="0px"
	 viewBox="0 0 186.5 188.1" style="enable-background:new 0 0 186.5 188.1;" xml:space="preserve">
<style type="text/css">
	.st0{fill:#010101;}
	.st1{fill:#FFFFFF;}
	.st2{opacity:0.7;fill:#FFFFFF;enable-background:new    ;}
	.st3{opacity:0.5;fill:url(#SVGID_1_);enable-background:new    ;}
	.st4{opacity:0.2;fill:#FFFFFF;enable-background:new    ;}
	.st5{opacity:0.5;fill:#FFFFFF;enable-background:new    ;}
</style>
<g>
	<path class="st0" d="M101.2,58.5c0.3,0,0.6-0.3,0.6-0.6s-0.3-0.6-0.6-0.6s-0.6,0.3-0.6,0.6C100.6,58.3,100.9,58.5,101.2,58.5z"/>
	<path class="st0" d="M101.2,58.5c0.3,0,0.6-0.3,0.6-0.6s-0.3-0.6-0.6-0.6s-0.6,0.3-0.6,0.6C100.6,58.3,100.9,58.5,101.2,58.5z"/>
	<path class="st1" d="M51.6,4.9C61,3.6,74.7,16.1,79,23.5c6.3,10.8,1.1,17.1-7.7,25.1C49.6,68.5,40.1,52,40.6,29.5
		C40.8,23.2,41,3.7,51.6,4.9z"/>
	<path class="st1" d="M52.3,64.8c10-1.4,24.5,11.8,29.1,19.8c6.7,11.5,1.2,18.1-8.1,26.6c-23.1,21.1-33.2,3.6-32.6-20.2
		C40.8,84.1,41.1,63.5,52.3,64.8z"/>
	<path class="st2" d="M118.4,65c0,0-0.9-0.9-8-9.3c-9.6-11.5-12.2-23.5-1.1-35c-6.5,6.7-14.4,15.1-18.4,19.7
		c-11.6,13.7-11.4,30.9,0.6,44.9l0.6,0.7l27.3,28.7c2.9,3.1,7,4.9,11.3,4.9c4.4,0,8.5-1.9,11.5-5.1c6.3-6.8,5.9-18.3-0.6-25
		L118.4,65z"/>
	
		<linearGradient id="SVGID_1_" gradientUnits="userSpaceOnUse" x1="-96.6761" y1="933.0228" x2="-143.7202" y2="990.1766" gradientTransform="matrix(1 0 0 1 239.86 -925.86)">
		<stop  offset="0" style="stop-color:#FFFFFF"/>
		<stop  offset="1" style="stop-color:#FFFFFF"/>
	</linearGradient>
	<path class="st3" d="M110.4,55.7c7,8.4,8,9.3,8,9.3c-1.3-1.4-1.3-3.6,0-5c5.5-5.9,19.2-20.2,23.4-24.5c6.5-6.8,6.8-17.4,0.7-24.6
		c-5.4-6.5-15.1-7.3-21.6-1.9c-0.4,0.4-0.8,0.7-1.2,1.1s-4.9,4.9-10.3,10.6C98.2,32.2,100.8,44.2,110.4,55.7z"/>
	<path class="st4" d="M109.4,20.7L109.4,20.7c-11.1,11.5-8.6,23.5,1.1,35c7,8.4,8,9.3,8,9.3c-1.3-1.4-1.3-3.6,0-5l0.6-0.6
		c-0.5-0.6-1-1.2-1.6-1.8C107.7,46.1,98.2,32.2,109.4,20.7z"/>
	<path class="st5" d="M110.4,55.7c-9.6-11.5-12.2-23.5-1.1-35c-2.3,2.4-4.7,4.9-7.1,7.4C87.5,47,140.1,87.9,140.1,87.9L118.3,65
		C118.4,65,117.5,64.2,110.4,55.7z"/>
</g>
<g>
	<path class="st1" d="M7.3,145.2c-0.1-1,0.6-2,1.6-2.1c0.2,0,0.3,0,0.5,0h2.3c1-0.1,2,0.6,2.1,1.7c0,0.2,0,0.3,0,0.5v12.6h4.7
		l7.6-13.2c0.5-1,1.4-1.5,2.5-1.5h2.5c1.7,0,2.3,1.1,1.5,2.5l-8.8,14.7v0.1l9.4,16.3c0.9,1.5,0.2,2.5-1.5,2.5h-2.8
		c-1.1,0.1-2-0.5-2.5-1.5l-8-14.3h-4.7v13.7c0.2,1-0.5,2-1.6,2.1c-0.2,0-0.3,0-0.5,0H9.3c-1,0.1-2-0.6-2.1-1.6c0-0.2,0-0.3,0-0.5
		L7.3,145.2z"/>
	<path class="st1" d="M37.4,155.4c-0.1-1.1,0.7-2,1.8-2.1c0.1,0,0.2,0,0.3,0h2.2c1-0.1,2,0.6,2.1,1.7c0,0.2,0,0.3,0,0.5v13.3
		c0,3.2,0.8,5.3,4,5.3c4.7,0,7.3-4.1,7.3-8.8v-9.8c-0.1-1,0.6-2,1.6-2.1c0.2,0,0.3,0,0.5,0h2.2c1.1-0.1,2,0.6,2.1,1.7
		c0,0.1,0,0.3,0,0.4v21.7c0.1,1-0.6,2-1.7,2.1c-0.2,0-0.3,0-0.5,0h-2c-1,0.1-2-0.6-2.1-1.6c0-0.2,0-0.3,0-0.5v-1.6
		c0-0.4,0-0.8,0.1-1.2h-0.1c-1.8,3.3-5.2,5.4-9,5.4c-5.6,0-9-2.8-9-9.9L37.4,155.4z"/>
	<path class="st1" d="M79.6,152.6c7.4,0,11.5,5.2,11.5,12.4c0,1.2-1,2.2-2.2,2.2H73c0.2,4.1,3.7,7.3,7.8,7.1c2,0,3.9-0.6,5.6-1.7
		c1.3-0.6,2.2-0.5,2.8,0.7l0.6,1c0.6,0.9,0.4,2.1-0.5,2.7c-0.1,0.1-0.2,0.1-0.3,0.2c-2.6,1.7-5.7,2.6-8.8,2.6c-8.6,0-14-6.2-14-13.6
		C66.4,158.2,71.8,152.6,79.6,152.6z M84.7,163.3c-0.1-3.6-2.3-5.8-5.2-5.8c-3.3,0-5.7,2.3-6.3,5.8H84.7z"/>
	<path class="st1" d="M95.8,155.4c-0.1-1,0.6-2,1.6-2.1c0.2,0,0.3,0,0.5,0h2c1-0.1,2,0.6,2.1,1.7c0,0.2,0,0.3,0,0.5v1.6
		c0,0.4,0,0.8-0.1,1.2h0.1c1.8-3.4,5.4-5.6,9.2-5.5c5.8,0,9.1,3,9.1,9.9v14.6c0.1,1-0.6,2-1.6,2.1c-0.2,0-0.3,0-0.5,0H116
		c-1,0.1-2-0.6-2.1-1.7c0-0.2,0-0.3,0-0.5v-13.3c0-3.2-0.8-5.3-4-5.3c-4.6,0-7.5,3.8-7.5,8.5v10c0.2,1-0.5,2-1.6,2.1
		c-0.2,0-0.3,0-0.5,0h-2.2c-1,0.1-2-0.6-2.1-1.6c0-0.2,0-0.3,0-0.5L95.8,155.4z"/>
	<path class="st1" d="M136.5,152.6c5.7,0,7.6,3.7,7.6,3.7h0.1c-0.1-0.5-0.1-1-0.1-1.5v-9.7c-0.1-1,0.6-2,1.6-2.1c0.2,0,0.3,0,0.5,0
		h2.3c1-0.1,2,0.6,2.1,1.7c0,0.2,0,0.3,0,0.5v31.9c0.2,1-0.5,2-1.6,2.1c-0.2,0-0.3,0-0.5,0h-1.9c-1.3,0-2.1-0.7-2.1-1.9v-1
		c0-0.3,0-0.6,0.1-0.9h-0.1c-1.7,2.9-4.8,4.6-8.2,4.5c-7,0-11.6-5.6-11.6-13.6S129.7,152.6,136.5,152.6z M137.8,174.4
		c3.4,0,6.5-2.5,6.5-8.2c0-4-2.1-8-6.5-8c-3.5,0-6.5,2.9-6.5,8.1c0.1,4.9,2.7,8.1,6.6,8.1L137.8,174.4z"/>
	<path class="st1" d="M168.7,152.6c7.4,0,11.5,5.2,11.5,12.4c0,1.2-1,2.2-2.2,2.2h-15.8c0.2,4.1,3.7,7.3,7.8,7.1l0,0
		c2,0,3.9-0.6,5.6-1.7c1.3-0.6,2.2-0.5,2.9,0.7l0.6,1c0.6,0.9,0.4,2.1-0.4,2.7c-0.1,0.1-0.2,0.1-0.3,0.2c-2.6,1.7-5.7,2.6-8.8,2.6
		c-8.6,0-14-6.2-14-13.6C155.5,158.2,160.9,152.6,168.7,152.6z M173.8,163.3c-0.1-3.6-2.3-5.8-5.3-5.8c-3.3,0-5.6,2.3-6.3,5.8H173.8
		z"/>
</g>
</svg>
