<svg xmlns="http://www.w3.org/2000/svg" xmlns:xlink="http://www.w3.org/1999/xlink" viewBox="0 0 200 200"><defs><style>.cls-1{fill:url(#linear-gradient);}.cls-2{fill:#fff;}</style><linearGradient id="linear-gradient" x1="99.96" y1="178.25" x2="99.96" y2="-30.62" gradientUnits="userSpaceOnUse"><stop offset="0" stop-color="#3719e5"/><stop offset="0.46" stop-color="#8b8ef5"/><stop offset="1" stop-color="#6eecf3"/></linearGradient></defs><g id="Layer_2" data-name="Layer 2"><g id="Layer_1" data-name="Layer 1"><circle cx="100" cy="100" r="100"/><path class="cls-1" d="M100,29.86a70.33,70.33,0,1,0,70.29,70.36A70.41,70.41,0,0,0,100,29.86Zm-.07,133.88a63.55,63.55,0,1,1,63.58-63.51A63.55,63.55,0,0,1,99.93,163.73Z"/><path class="cls-2" d="M137.3,75.43c-1.78,2.36-3.68,4.61-5.57,6.86s-3.84,4.44-5.83,6.61-4,4.31-6,6.44-4.07,4.22-6.13,6.3l0-2.66q3.18,3.32,6.28,6.71c2,2.29,4.12,4.54,6.11,6.87s4,4.66,5.93,7,3.85,4.79,5.65,7.31c-2.43-1.92-4.72-4-7-6s-4.53-4.14-6.74-6.27-4.37-4.29-6.56-6.44-4.29-4.38-6.39-6.6l-1.28-1.35,1.31-1.3c2.08-2.06,4.17-4.12,6.3-6.13s4.25-4,6.44-6,4.38-3.91,6.61-5.83S134.94,77.22,137.3,75.43Z"/><path class="cls-2" d="M62.62,125.65c1.78-2.36,3.68-4.61,5.57-6.86S72,114.34,74,112.18s4-4.31,6-6.44,4.07-4.22,6.13-6.3l0,2.66q-3.18-3.32-6.28-6.71c-2-2.29-4.12-4.54-6.11-6.87s-4-4.66-5.94-7-3.85-4.79-5.65-7.31c2.43,1.92,4.72,4,7,6s4.53,4.14,6.74,6.27,4.37,4.29,6.57,6.44,4.29,4.38,6.39,6.6l1.28,1.35-1.31,1.3c-2.08,2.06-4.17,4.12-6.3,6.13s-4.25,4-6.44,6-4.38,3.91-6.61,5.83S65,123.86,62.62,125.65Z"/><path class="cls-2" d="M125.07,137.88c-2.36-1.78-4.61-3.68-6.86-5.57s-4.44-3.84-6.61-5.83-4.3-4-6.44-6-4.22-4.07-6.3-6.13l2.66,0q-3.32,3.18-6.71,6.28c-2.29,2-4.54,4.12-6.87,6.11s-4.66,4-7,5.94-4.79,3.85-7.31,5.65c1.92-2.43,4-4.72,6-7s4.14-4.53,6.27-6.74,4.29-4.37,6.44-6.56,4.38-4.29,6.6-6.39l1.35-1.28,1.3,1.31c2.06,2.08,4.12,4.17,6.13,6.3s4,4.25,6,6.44,3.91,4.38,5.83,6.61S123.28,135.52,125.07,137.88Z"/><path class="cls-2" d="M74.85,63.2c2.36,1.78,4.61,3.68,6.86,5.57s4.44,3.84,6.61,5.83,4.3,4,6.44,6,4.22,4.07,6.3,6.13l-2.66,0q3.32-3.18,6.71-6.28c2.29-2,4.54-4.12,6.87-6.11s4.66-4,7-5.94,4.79-3.85,7.31-5.65c-1.92,2.43-4,4.72-6,7s-4.14,4.53-6.27,6.74-4.29,4.37-6.44,6.56-4.38,4.29-6.6,6.39l-1.35,1.28-1.3-1.31c-2.06-2.08-4.12-4.17-6.13-6.3s-4-4.25-6-6.44-3.91-4.38-5.83-6.61S76.63,65.56,74.85,63.2Z"/></g></g></svg>