<?xml version="1.0" encoding="UTF-8"?>
<svg width="45px" height="19px" viewBox="0 0 45 19" version="1.1" xmlns="http://www.w3.org/2000/svg" xmlns:xlink="http://www.w3.org/1999/xlink">
    <!-- Generator: Sketch 51.2 (57519) - http://www.bohemiancoding.com/sketch -->
    <title>logo mark</title>
    <desc>Created with Sketch.</desc>
    <defs>
        <path d="M25.0727324,3.75645405 C25.6098027,2.91157027 27.5265503,-0.561475676 23.3543643,0.120059459 C20.6481935,0.562143243 15.6757306,3.65873243 12.9364554,3.65375135 C10.2306793,3.64887297 5.33004934,0.57267027 2.65940038,0.120059459 C1.71456926,-0.0400540541 -1.56389753,0.103575676 0.910641366,3.66561351 C3.29208349,7.09362432 10.4363605,17.3777081 10.4363605,17.3777081 C10.4363605,17.3777081 12.9109488,20.9401568 15.4158786,17.401073 C15.4158786,17.401073 22.8265693,7.28983784 25.0727324,3.75645405" id="path-1"></path>
        <path d="M25.0875332,15.2435459 C25.6246528,16.0884297 27.5414004,19.5614757 23.3691651,18.8799405 C20.6629943,18.4378568 15.6905313,15.3412676 12.9513055,15.3462486 C10.2454801,15.351127 5.34485009,18.4273297 2.67420114,18.8799405 C1.72937002,19.0400541 -1.54909677,18.8964243 0.925491461,15.3343865 C3.30688425,11.9063757 10.4511613,1.62229189 10.4511613,1.62229189 C10.4511613,1.62229189 12.9257989,-1.94015676 15.4307287,1.59892703 C15.4307287,1.59892703 22.8414194,11.7101622 25.0875332,15.2435459" id="path-3"></path>
    </defs>
    <g id="Design" stroke="none" stroke-width="1" fill="none" fill-rule="evenodd">
        <g id="Platform---Home---V8" transform="translate(-250.000000, -25.000000)">
            <g id="nav_bar">
                <g id="logo" transform="translate(250.000000, 25.000000)">
                    <g id="logo-mark">
                        <g id="Group-3" transform="translate(19.000000, 0.000000)">
                            <path d="M25.0915784,3.7370253 C25.6291573,2.88928305 27.5477205,-0.5955131 23.3715826,0.0883278438 C20.6628485,0.531907311 15.6856755,3.63897306 12.9438056,3.63397512 C10.2354666,3.62908024 5.33019461,0.542469953 2.65701596,0.0883278438 C1.71128988,-0.0723273748 -1.57028235,0.0717882912 0.906600488,3.64587742 C3.29029836,7.08548607 10.4413426,17.4043636 10.4413426,17.4043636 C10.4413426,17.4043636 12.9182748,20.9788649 15.4255773,17.4278075 C15.4255773,17.4278075 22.8432876,7.28236342 25.0915784,3.7370253" id="Fill-1" fill="#EDE8D8"></path>
                            <g id="Group-4">
                                <mask id="mask-2" fill="white">
                                    <use xlink:href="#path-1"></use>
                                </mask>
                                <g id="Clip-3"></g>
                                <path d="M12.9925996,3.65611351 C12.9925996,3.65611351 22.086482,7.51804324 24.6884061,4.35844595 C25.7537647,3.0648027 26.0454383,3.78141081 26.7886831,2.45731622 C28.9374573,-1.37046486 26.6344099,1.26560541 26.6344099,1.26560541 L24.9264516,-1.29518378 L16.4475901,-0.427448649 L12.4420114,1.91109189 L12.9925996,3.65611351" id="Fill-2" fill="#C0BDAA" mask="url(#mask-2)"></path>
                            </g>
                        </g>
                        <path d="M25.091542,15.2629747 C25.6291699,16.1107169 27.5477319,19.5955131 23.3715473,18.9116722 C20.662815,18.4680927 15.6856453,15.3610269 12.9438267,15.3660249 C10.2354401,15.3709198 5.33017137,18.45753 2.65699451,18.9116722 C1.71126906,19.0723274 -1.57030098,18.9282117 0.906629584,15.3541226 C3.29027649,11.9145139 10.441316,1.59563645 10.441316,1.59563645 C10.441316,1.59563645 12.9182959,-1.97886488 15.4255968,1.57219253 C15.4255968,1.57219253 22.8433021,11.7176366 25.091542,15.2629747" id="Fill-5" fill="#C0BDAA"></path>
                        <g id="Group-8">
                            <mask id="mask-4" fill="white">
                                <use xlink:href="#path-3"></use>
                            </mask>
                            <g id="Clip-7"></g>
                            <path d="M13.0074004,15.3438865 C13.0074004,15.3438865 22.1012827,11.4819568 24.7032068,14.6415541 C25.7685655,15.9351973 26.0602391,15.2185892 26.8034839,16.5426838 C28.9521594,20.3704649 26.6492106,17.7343946 26.6492106,17.7343946 L24.9412524,20.2951838 L16.4623909,19.4274486 L12.4568121,17.0889081 L13.0074004,15.3438865" id="Fill-6" fill="#F6F2E8" mask="url(#mask-4)"></path>
                        </g>
                    </g>
                </g>
            </g>
        </g>
    </g>
</svg>