<?xml version="1.0" encoding="UTF-8"?>
<svg width="223px" height="88px" viewBox="0 0 223 88" version="1.1" xmlns="http://www.w3.org/2000/svg" xmlns:xlink="http://www.w3.org/1999/xlink">
    <!-- Generator: sketchtool 51.2 (57519) - http://www.bohemiancoding.com/sketch -->
    <title>DF07A176-A4BF-48E0-8A90-88000E6B00EE</title>
    <desc>Created with sketchtool.</desc>
    <defs>
        <path d="M43.9090359,0.0379354839 C19.6588841,0.0379354839 0,19.6712258 0,43.8900645 C0,68.1086452 19.6588841,87.7419355 43.9090359,87.7419355 C68.1594461,87.7419355 87.8183302,68.1086452 87.8183302,43.8900645 C87.8183302,19.6712258 68.1594461,0.0379354839 43.9090359,0.0379354839 Z" id="path-1"></path>
        <linearGradient x1="0%" y1="50.0000678%" x2="99.9998644%" y2="50.0000678%" id="linearGradient-3">
            <stop stop-color="#D1EFEF" offset="0%"></stop>
            <stop stop-color="#EFE6B3" offset="100%"></stop>
        </linearGradient>
    </defs>
    <g id="New-Home" stroke="none" stroke-width="1" fill="none" fill-rule="evenodd">
        <g id="like_nland_main" transform="translate(-112.000000, -13.000000)">
            <g id="Logo" transform="translate(112.000000, 13.000000)">
                <g id="Group-3" transform="translate(0.000000, 0.220129)">
                    <mask id="mask-2" fill="white">
                        <use xlink:href="#path-1"></use>
                    </mask>
                    <g id="Clip-2"></g>
                    <path d="M43.9090359,0.0379354839 C19.6588841,0.0379354839 0,19.6712258 0,43.8900645 C0,68.1086452 19.6588841,87.7419355 43.9090359,87.7419355 C68.1594461,87.7419355 87.8183302,68.1086452 87.8183302,43.8900645 C87.8183302,19.6712258 68.1594461,0.0379354839 43.9090359,0.0379354839 Z" id="Fill-1" fill="url(#linearGradient-3)" mask="url(#mask-2)"></path>
                </g>
                <g id="Group-94" transform="translate(2.584009, 2.800774)" fill="#28646E">
                    <path d="M41.3250525,3.67834839 C20.548326,3.67834839 3.64528772,20.5596387 3.64528772,41.3093161 C3.64528772,62.0592516 20.548326,78.9402839 41.3250525,78.9402839 C62.101779,78.9402839 79.0050757,62.0592516 79.0050757,41.3093161 C79.0050757,20.5596387 62.101779,3.67834839 41.3250525,3.67834839 M41.3250525,82.4205419 C18.6268567,82.4205419 0.160234415,63.9779613 0.160234415,41.3093161 C0.160234415,18.640671 18.6268567,0.198348387 41.3250525,0.198348387 C64.0235067,0.198348387 82.4898706,18.640671 82.4898706,41.3093161 C82.4898706,63.9779613 64.0235067,82.4205419 41.3250525,82.4205419" id="Fill-4"></path>
                    <path d="M38.6037806,33.799071 C38.2792291,33.799071 37.9564863,33.6651355 37.7249591,33.4032 C37.297564,32.9188129 37.3440761,32.1799742 37.8288363,31.7528774 C41.1348177,28.8424258 42.5971086,26.4426839 42.8565431,25.991329 C43.8294226,24.2994581 45.3914562,23.4241032 47.0315269,23.6468129 C47.6723612,23.7342968 48.1209452,24.3234581 48.0333473,24.9634581 C47.9460078,25.6029419 47.3576289,26.0532645 46.7152441,25.9639742 C45.7586439,25.8357161 45.118068,26.7541677 44.8870576,27.1557161 C44.5953229,27.6628129 42.9591283,30.3533935 39.377433,33.5069419 C39.1549498,33.7028129 38.8787192,33.799071 38.6037806,33.799071" id="Fill-6"></path>
                    <path d="M18.8967823,53.6156129 C18.5611195,53.6156129 18.2282991,53.4723871 17.9967718,53.1949677 C17.5828136,52.6987097 17.6499978,51.9616774 18.1466444,51.5482581 C19.3053141,50.5836129 21.6515946,49.0736774 22.4552214,48.6726452 C23.0337811,48.3833548 23.7366316,48.6181935 24.0257823,49.1952258 C24.3149329,49.7727742 24.0805633,50.4752258 23.502262,50.7637419 C22.8960534,51.0664516 20.6818159,52.4819355 19.6456282,53.3443871 C19.4267626,53.5265806 19.160868,53.6156129 18.8967823,53.6156129" id="Fill-8"></path>
                    <path d="M48.329268,42.5231226 C48.7943897,42.9579613 49.3349644,42.7711226 49.8300606,42.2983484 C53.222348,39.060671 56.8154129,34.0026065 58.0102587,31.3708645 C58.2653005,30.8085419 58.7836527,30.4960258 59.3384395,30.7189935 C59.9914187,30.980929 59.9808242,32.1017032 59.3911533,33.3195097 C57.8301533,36.5422194 55.6500247,40.0911226 51.3572101,44.5282839 C50.9442854,44.9548645 51.0047512,45.516929 51.3760733,45.8511226 C51.7551475,46.1920258 52.3704001,46.1693161 52.944567,45.5848 C55.1748254,43.3138323 56.674326,41.548929 57.965297,39.7349935 C58.295275,39.2555097 58.6945044,39.0712516 59.0908914,39.1504774 C59.6536886,39.2629935 59.7436122,39.8026065 59.5710003,40.4544774 C59.2927025,41.5063484 56.3291023,45.3863484 55.1585461,46.6900903 C51.9768555,50.2343484 48.7943897,52.1765419 42.6708045,55.3543484 C40.5340873,56.4632516 38.9353607,57.5264774 37.9658404,59.1613161 C37.0854685,60.6459613 36.8224163,61.1318968 36.7317176,61.3195097 C36.382618,62.0410581 36.6601406,62.9522839 37.3844384,63.2978323 C37.5862495,63.3940903 37.7981382,63.4395097 38.0064094,63.4395097 C38.5723074,63.4395097 39.1092645,63.1040258 39.3387246,62.5494452 C39.346735,62.5300903 39.2922124,62.5721548 40.4454557,60.6278968 C41.0015345,59.6900903 42.2036156,58.2942194 44.0516991,57.452929 C50.1752842,54.6648 52.6843572,52.4591226 56.2391788,48.908671 C57.8601278,47.2900903 60.1017559,43.8191226 60.7118404,42.7930581 C62.4229714,39.9151226 61.524253,37.4488 59.9803074,37.0299613 C59.8526574,36.9951226 59.7903827,36.8531871 59.8567918,36.7391226 C61.0529297,34.6906065 61.5981556,33.2777032 61.8224476,32.1804129 C62.1271023,30.6911226 61.7048752,28.8826065 59.6578231,28.4420903 C59.5487779,28.4183484 59.4836608,28.3060903 59.5131185,28.1987355 C59.6420606,27.7264774 59.7691939,27.1311226 59.856275,26.7391226 C60.2854789,24.804929 59.0609169,23.0516387 57.5898404,22.7368 C56.5546863,22.5153806 55.6342622,22.7520258 54.8296017,23.3117677 C54.7174557,23.3894452 54.5670664,23.3680258 54.4740421,23.2684129 C54.1556921,22.9272516 53.6461255,22.5693161 52.944567,22.556929 C51.661348,22.5344774 50.400093,22.9267355 49.4773433,24.8952516 C48.817129,26.3042839 47.8339134,28.1930581 44.9522263,31.3858323 C42.2803607,34.3460903 38.5583538,37.2317677 36.2616863,38.7383484 C35.8590977,39.0023484 35.2937165,38.940671 35.3611591,38.4008 C35.4686539,37.5427355 36.3898532,31.7793806 36.546961,30.0818323 C36.8022611,27.3238968 35.3161973,26.0645419 33.6502866,25.8397677 C32.2789528,25.6547355 30.1980502,26.0495742 29.0574685,29.1672516 C28.3889853,30.9946065 26.9954291,33.9979613 25.8155705,38.8356387 C24.9855867,42.2382194 24.8476006,46.204929 25.6072993,50.7631226 C25.6532947,51.0384774 25.6021313,51.3210581 25.4571684,51.5595097 C24.5478555,53.0539613 23.2157987,55.020929 22.4734129,56.7347355 C22.175735,57.4227355 22.4250919,58.2518968 23.0840143,58.6108645 C23.3054638,58.7316387 23.5426759,58.7881548 23.7757535,58.7881548 C24.3160699,58.7881548 24.8341637,58.4833806 25.079903,57.9626065 C25.5191846,57.0322839 26.4297895,55.2841548 26.7856075,54.5587355 C27.4049946,53.2949935 27.8143016,52.4601548 27.981487,51.9355097 C28.1344604,51.4549935 28.2246423,50.9004129 27.9478949,49.6395097 C27.4814812,47.5148645 27.3186886,43.524929 28.1856238,40.0080258 C29.3362831,35.340929 31.2879853,30.124929 31.6360513,29.2640258 C31.9841174,28.4028645 32.479472,28.132929 32.9748265,28.1780903 C33.4701811,28.2229935 34.4156701,28.4629935 34.1453827,30.2165419 C33.6601058,33.3680258 32.9748265,37.3667355 32.7497593,38.7158968 C32.6394221,39.3765419 32.5122889,40.9197677 33.7327165,41.6266065 C34.6859575,42.1783484 35.7337732,41.8712516 36.8921846,41.0991226 C39.4984163,39.3618323 43.9909749,35.8255742 46.8132298,32.6598968 C49.775538,29.3375742 50.7194766,27.3595097 51.4812425,25.5698323 C51.8285334,24.7540903 52.7194998,24.7605419 53.0344905,24.8503484 C53.3497396,24.9401548 53.7326898,25.3675097 53.4624024,26.2668645 C52.8060641,28.4518968 50.100348,33.4542194 44.8920189,38.1460903 C44.3013144,38.6784774 44.3845195,39.3073806 44.6860733,39.6353806 C44.9690224,39.9429935 45.5173491,40.1608 46.1227825,39.6451871 C50.8057825,35.6578323 53.4773897,30.8913806 54.6781788,28.3429935 C55.2784441,27.0691871 55.5053202,26.3117677 55.7063561,25.7272516 C55.9613978,24.9853161 56.531947,24.7218323 56.9296261,24.8054452 C57.4999169,24.9254452 57.8751151,25.5099613 57.6950096,26.4691871 C57.5384187,27.3032516 57.0580513,28.6673806 56.4192842,30.0219613 C54.9184917,33.2033806 51.7486875,37.4611871 48.329268,41.1174452 C47.9636307,41.5084129 47.8786168,42.1022194 48.329268,42.5231226" id="Fill-10"></path>
                    <path d="M27.1617101,26.6796129 C27.3431075,26.5209032 27.2723057,26.3165161 27.2214007,26.1544516 C26.9692014,25.3503226 25.5322338,21.9887742 25.1560021,21.3141935 C24.9668526,20.9750968 24.7270565,20.9270968 24.4696892,21.0254194 C24.1301504,21.1552258 23.7128329,21.4661935 23.0714818,22.028 C22.4303891,22.5898065 22.0673358,22.9627097 21.8944656,23.2819355 C21.7631979,23.5237419 21.7797356,23.767871 22.0916255,23.9990968 C22.7125629,24.4592258 25.862987,26.3196129 26.6283706,26.6741935 C26.7826359,26.7454194 26.9764366,26.8421935 27.1575757,26.6832258 L27.1617101,26.6796129 Z" id="Fill-12"></path>
                    <path d="M20.287341,27.8091613 C19.8989644,27.7941935 19.7333294,27.9743226 19.6837165,28.2447742 C19.618341,28.6019355 19.6674372,29.1196129 19.8147257,29.9585806 C19.9622727,30.7978065 20.0927651,31.3012903 20.2759714,31.6145806 C20.4147327,31.8522581 20.6317895,31.9650323 20.9920003,31.8192258 C21.7085461,31.5286452 24.9367489,29.8070968 25.6377906,29.3381935 C25.7788775,29.2437419 25.9623422,29.1286452 25.9207396,28.8912258 L25.919706,28.8860645" id="Fill-14"></path>
                    <path d="M53.1251892,56.4265806 C52.8843596,56.4425806 52.8164001,56.648 52.7582599,56.8077419 C52.4693677,57.5994839 51.565998,61.1414194 51.4546272,61.9052903 C51.3985542,62.2895484 51.5600548,62.4732903 51.8241406,62.5509677 C52.1727234,62.6541935 52.6934013,62.6603871 53.5445739,62.6030968 C54.3957466,62.5458065 54.9107396,62.4699355 55.242268,62.3212903 C55.4936921,62.2085161 55.6288358,62.0049032 55.5218578,61.632 C55.3086771,60.8895484 53.9378601,57.5006452 53.5453491,56.7545806 C53.4662784,56.604129 53.3711869,56.4100645 53.1306156,56.4260645 L53.1251892,56.4265806 Z" id="Fill-16"></path>
                    <path d="M55.1724739,54.7844387 C55.0611031,54.9981161 55.2014148,55.1630194 55.3076176,55.2954065 C55.8350139,55.9532129 58.3957671,58.5645677 58.9913812,59.0572129 C59.2908679,59.3044387 59.531956,59.2621161 59.7358343,59.0773419 C60.0050881,58.8332129 60.2810603,58.3921806 60.6743465,57.6363097 C61.0676327,56.8804387 61.270219,56.401471 61.3154392,56.0412129 C61.3495481,55.7681806 61.2456709,55.5467613 60.8709896,55.4445677 C60.1252445,55.2406968 56.5135747,54.6492129 55.6714461,54.5963097 C55.5016767,54.585729 55.2861703,54.5656 55.1747995,54.7795355 L55.1724739,54.7844387 Z" id="Fill-18"></path>
                    <path d="M42.6313209,74.4649032 C42.6313209,75.1854194 42.0465596,75.7694194 41.3251042,75.7694194 C40.6036488,75.7694194 40.0191459,75.1854194 40.0191459,74.4649032 C40.0191459,73.7446452 40.6036488,73.1603871 41.3251042,73.1603871 C42.0465596,73.1603871 42.6313209,73.7446452 42.6313209,74.4649032" id="Fill-20"></path>
                    <path d="M42.6313209,8.15365161 C42.6313209,8.87416774 42.0465596,9.45842581 41.3251042,9.45842581 C40.6036488,9.45842581 40.0191459,8.87416774 40.0191459,8.15365161 C40.0191459,7.43339355 40.6036488,6.84913548 41.3251042,6.84913548 C42.0465596,6.84913548 42.6313209,7.43339355 42.6313209,8.15365161" id="Fill-22"></path>
                    <path d="M51.1793786,72.9976516 C51.3662024,73.6933935 50.9525025,74.4087484 50.2558537,74.595071 C49.5589463,74.7816516 48.842659,74.3684903 48.6560935,73.6727484 C48.4692696,72.9770065 48.8827111,72.2613935 49.5796184,72.075329 C50.2762673,71.8887484 50.9925547,72.3016516 51.1793786,72.9976516" id="Fill-24"></path>
                    <path d="M33.9943216,8.94575484 C34.1811454,9.64175484 33.7677039,10.3571097 33.0707966,10.5434323 C32.3738893,10.7300129 31.6578604,10.3168516 31.4710365,9.62110968 C31.2842126,8.92536774 31.6979125,8.20975484 32.3945614,8.02343226 C33.0914687,7.83685161 33.8077561,8.2500129 33.9943216,8.94575484" id="Fill-26"></path>
                    <path d="M59.0558006,69.3706323 C59.4165283,69.9946323 59.2023139,70.7925677 58.5777589,71.1525677 C57.9529454,71.5128258 57.1542282,71.2991484 56.7935005,70.6751484 C56.4327728,70.0514065 56.6467287,69.253471 57.2715422,68.8932129 C57.8963556,68.5329548 58.6950729,68.7468903 59.0558006,69.3706323" id="Fill-28"></path>
                    <path d="M25.8569663,11.9434839 C26.217694,12.5674839 26.0034796,13.3654194 25.3789246,13.7254194 C24.7541111,14.0856774 23.9553939,13.872 23.5946662,13.248 C23.2339385,12.6242581 23.4478944,11.8263226 24.0727079,11.4660645 C24.6975213,11.1058065 25.4962386,11.3194839 25.8569663,11.9434839" id="Fill-30"></path>
                    <path d="M65.7238882,63.8315871 C66.2339716,64.3410065 66.2339716,65.1668129 65.7238882,65.6762323 C65.2138048,66.1856516 64.3869218,66.1856516 63.8768384,65.6762323 C63.3664965,65.1668129 63.3664965,64.3410065 63.8768384,63.8315871 C64.3869218,63.3219097 65.2138048,63.3219097 65.7238882,63.8315871" id="Fill-32"></path>
                    <path d="M18.7736542,16.9424774 C19.2837377,17.4518968 19.2837377,18.2777032 18.7736542,18.7871226 C18.2635708,19.2965419 17.4366878,19.2965419 16.9266044,18.7871226 C16.4162626,18.2777032 16.4162626,17.4518968 16.9266044,16.9424774 C17.4366878,16.4328 18.2635708,16.4328 18.7736542,16.9424774" id="Fill-34"></path>
                    <path d="M70.7292692,56.7574968 C71.3540826,57.1177548 71.5680386,57.9154323 71.2073109,58.5394323 C70.8468416,59.1631742 70.0478659,59.3771097 69.4230525,59.0168516 C68.798239,58.6565935 68.5842831,57.8589161 68.9450108,57.2349161 C69.3057385,56.6111742 70.1047141,56.3972387 70.7292692,56.7574968" id="Fill-36"></path>
                    <path d="M13.2272334,23.601729 C13.8517884,23.9619871 14.0660028,24.7596645 13.7052751,25.3836645 C13.3445474,26.0076645 12.5458301,26.2213419 11.9210167,25.8613419 C11.2962032,25.5008258 11.0822473,24.7034065 11.442975,24.0794065 C11.8037027,23.4554065 12.6026783,23.241471 13.2272334,23.601729" id="Fill-38"></path>
                    <path d="M73.730906,48.6307097 C74.4275549,48.8170323 74.8412548,49.5323871 74.6544309,50.228129 C74.4678655,50.924129 73.7515781,51.3370323 73.0546708,51.1507097 C72.3580219,50.964129 71.944322,50.2490323 72.1311459,49.5530323 C72.3177114,48.8570323 73.0339987,48.444129 73.730906,48.6307097" id="Fill-40"></path>
                    <path d="M9.59561506,31.4679226 C10.2925224,31.6545032 10.7059638,32.3698581 10.51914,33.0656 C10.3325745,33.7616 9.61628714,34.1745032 8.91937984,33.9881806 C8.22273094,33.8016 7.80903105,33.0862452 7.99585492,32.3902452 C8.18267879,31.6945032 8.89870776,31.2813419 9.59561506,31.4679226" id="Fill-42"></path>
                    <path d="M74.524016,40.0049548 C75.2454714,40.0049548 75.8302327,40.5889548 75.8302327,41.309471 C75.8302327,42.0299871 75.2454714,42.613729 74.524016,42.613729 C73.8025606,42.613729 73.2177993,42.0299871 73.2177993,41.309471 C73.2177993,40.5889548 73.8025606,40.0049548 74.524016,40.0049548" id="Fill-44"></path>
                    <path d="M8.12634739,40.0049548 C8.84780278,40.0049548 9.43256408,40.5889548 9.43256408,41.309471 C9.43256408,42.0299871 8.84780278,42.613729 8.12634739,42.613729 C7.404892,42.613729 6.82013071,42.0299871 6.82013071,41.309471 C6.82013071,40.5889548 7.404892,40.0049548 8.12634739,40.0049548" id="Fill-46"></path>
                    <path d="M73.0547483,31.4679226 C73.7513972,31.2813419 74.4676846,31.6945032 74.6545085,32.3902452 C74.8413323,33.0862452 74.4276324,33.8016 73.7309835,33.9881806 C73.0340762,34.1745032 72.3177889,33.7616 72.1312234,33.0656 C71.9443995,32.3698581 72.357841,31.6545032 73.0547483,31.4679226" id="Fill-48"></path>
                    <path d="M8.91945736,48.6307097 C9.61636466,48.444129 10.332652,48.8570323 10.5192175,49.5530323 C10.7060414,50.2490323 10.2923415,50.964129 9.59569258,51.1507097 C8.89878528,51.3370323 8.18249791,50.924129 7.99593244,50.228129 C7.80910857,49.5323871 8.22280846,48.8170323 8.91945736,48.6307097" id="Fill-50"></path>
                    <path d="M69.42313,23.601729 C70.0476851,23.241471 70.8466607,23.4554065 71.2073884,24.0794065 C71.5681161,24.7034065 71.3541601,25.5008258 70.7293467,25.8613419 C70.1045333,26.2213419 69.3055576,26.0076645 68.9450883,25.3836645 C68.5843606,24.7596645 68.7983166,23.9619871 69.42313,23.601729" id="Fill-52"></path>
                    <path d="M11.9210942,56.7574968 C12.5456492,56.3972387 13.3446249,56.6111742 13.7053526,57.2349161 C14.0660803,57.8589161 13.8518659,58.6565935 13.2273109,59.0168516 C12.6024975,59.3771097 11.8035218,59.1631742 11.4427941,58.5394323 C11.0823248,57.9154323 11.2962808,57.1177548 11.9210942,56.7574968" id="Fill-54"></path>
                    <path d="M63.8767092,16.9424774 C64.3867926,16.4328 65.2136756,16.4328 65.723759,16.9424774 C66.2341008,17.4518968 66.2341008,18.2777032 65.723759,18.7871226 C65.2136756,19.2965419 64.3867926,19.2965419 63.8767092,18.7871226 C63.3666257,18.2777032 63.3666257,17.4518968 63.8767092,16.9424774" id="Fill-56"></path>
                    <path d="M16.9264752,63.8315871 C17.4365586,63.3219097 18.2634416,63.3219097 18.773525,63.8315871 C19.2838669,64.3410065 19.2838669,65.1668129 18.773525,65.6762323 C18.2634416,66.1856516 17.4365586,66.1856516 16.9264752,65.6762323 C16.4163918,65.1668129 16.4163918,64.3410065 16.9264752,63.8315871" id="Fill-58"></path>
                    <path d="M56.7933971,11.9434839 C57.1541248,11.3194839 57.9528421,11.1058065 58.5776555,11.4660645 C59.2024689,11.8263226 59.4164249,12.6242581 59.0556972,13.248 C58.6949695,13.872 57.8962523,14.0856774 57.2714388,13.7254194 C56.6468838,13.3654194 56.4326694,12.5674839 56.7933971,11.9434839" id="Fill-60"></path>
                    <path d="M23.5945628,69.3706323 C23.9552905,68.7468903 24.7540078,68.5329548 25.3788212,68.8932129 C26.0036346,69.253471 26.2175906,70.0514065 25.8568629,70.6751484 C25.4961352,71.2991484 24.697418,71.5128258 24.0726045,71.1525677 C23.4480495,70.7925677 23.2338351,69.9946323 23.5945628,69.3706323" id="Fill-62"></path>
                    <path d="M48.6560418,8.94575484 C48.8426073,8.2500129 49.5588947,7.83685161 50.255802,8.02343226 C50.9524509,8.20975484 51.3661508,8.92536774 51.1793269,9.62110968 C50.992503,10.3168516 50.276474,10.7300129 49.5795667,10.5434323 C48.8826594,10.3571097 48.469218,9.64175484 48.6560418,8.94575484" id="Fill-64"></path>
                    <path d="M31.4710107,72.9976516 C31.6578345,72.3016516 32.3738635,71.8887484 33.0707708,72.075329 C33.7676781,72.2613935 34.1811196,72.9770065 33.9942957,73.6727484 C33.8077302,74.3684903 33.0914429,74.7816516 32.3945356,74.595071 C31.6978867,74.4087484 31.2841868,73.6933935 31.4710107,72.9976516" id="Fill-66"></path>
                    <path d="M111.755093,48.1811355 L106.509038,48.1811355 C106.30826,48.1811355 106.193789,48.0668129 106.193789,47.8662968 L106.193789,36.8469419 C106.193789,36.4459097 105.964329,36.2172645 105.563032,36.2172645 L103.75681,36.2172645 C103.355513,36.2172645 103.126053,36.4459097 103.126053,36.8469419 L103.126053,49.7733935 C103.126053,50.5749419 103.584973,51.0332645 104.387825,51.0332645 L111.755093,51.0332645 C112.156648,51.0332645 112.38585,50.8041032 112.38585,50.403329 L112.38585,48.811071 C112.38585,48.4102968 112.156648,48.1811355 111.755093,48.1811355" id="Fill-68"></path>
                    <path d="M120.40646,41.9545548 L118.377496,41.9545548 C117.987827,41.9545548 117.765086,42.1834581 117.765086,42.5842323 L117.765086,46.5669419 L117.765086,47.1104258 L117.765086,50.403329 C117.765086,50.8041032 117.987827,51.0332645 118.377496,51.0332645 L120.40646,51.0332645 C120.796128,51.0332645 121.018612,50.8041032 121.018612,50.403329 L121.018612,47.1104258 L121.018612,46.5669419 L121.018612,42.5842323 C121.018612,42.1834581 120.796128,41.9545548 120.40646,41.9545548" id="Fill-70"></path>
                    <path d="M118.450029,39.9170065 C118.622382,39.8132645 118.594217,39.6349419 118.576129,39.4942968 C118.487497,38.7972645 117.801959,35.8266839 117.592396,35.2176516 C117.486969,34.9115871 117.297044,34.8370065 117.071202,34.8801032 C116.773782,34.9368774 116.385147,35.1306839 115.776096,35.4981677 C115.167045,35.8653935 114.814328,36.1180387 114.625437,36.3549419 C114.482283,36.5345548 114.459802,36.7368774 114.681768,36.9727484 C115.123892,37.4416516 117.43658,39.4308129 118.013331,39.8341677 C118.129353,39.9152 118.273799,40.023071 118.446153,39.919329 L118.450029,39.9170065 Z" id="Fill-72"></path>
                    <path d="M120.241419,35.9888258 C120.418941,36.0832774 120.55796,35.9681806 120.669589,35.8806968 C121.334197,35.361471 123.254891,33.5439226 123.84482,32.8476645 C124.054383,32.6006968 124.021308,32.3996645 123.868593,32.2280516 C123.667557,32.001729 123.30192,31.7676645 122.674264,31.4329548 C122.046608,31.0985032 121.648412,30.9250839 121.34815,30.8843097 C121.120499,30.8533419 120.934967,30.937471 120.845819,31.2486968 C120.668297,31.8680516 120.140901,34.8706323 120.089221,35.5715355 C120.078627,35.7126968 120.060022,35.8920516 120.237543,35.9865032 L120.241419,35.9888258 Z" id="Fill-74"></path>
                    <path d="M136.975928,51.0223484 L135.169447,51.0223484 C134.767892,51.0223484 134.538432,50.7931871 134.538432,50.3924129 L134.538432,47.728671 C134.538432,46.7266065 133.792946,45.6667355 132.445126,45.6667355 C131.097307,45.6667355 130.351562,46.7266065 130.351562,47.728671 L130.351562,50.3924129 C130.351562,50.7931871 130.12236,51.0223484 129.720805,51.0223484 L127.914066,51.0223484 C127.512511,51.0223484 127.283051,50.7931871 127.283051,50.3924129 L127.283051,37.1144774 C127.283051,36.7134452 127.512511,36.4845419 127.914066,36.4845419 L129.720805,36.4845419 C130.12236,36.4845419 130.351562,36.7134452 130.351562,37.1144774 L130.351562,42.7454452 C130.351562,42.9743484 130.523399,43.1751226 130.810482,43.1751226 C131.060356,43.1751226 131.412815,42.9459613 131.613334,42.6308645 L134.044628,39.0517677 C134.337913,38.6476387 134.589854,38.4502194 134.991151,38.4502194 L137.090658,38.4502194 C137.549837,38.4502194 137.779038,38.8228645 137.520896,39.2236387 L134.796575,42.9173161 C134.653162,43.1462194 134.62448,43.3469935 134.968411,43.5188645 C136.402537,44.2060903 137.606943,45.752671 137.606943,47.728671 L137.606943,50.3924129 C137.606943,50.7931871 137.377742,51.0223484 136.975928,51.0223484" id="Fill-76"></path>
                    <path d="M149.118498,43.170529 C149.118498,43.3602065 149.00997,43.4685935 148.820045,43.4685935 L145.454373,43.4685935 C145.264448,43.4685935 145.15592,43.3602065 145.15592,43.170529 L145.15592,42.682529 C145.15592,41.7341419 145.861613,40.7310452 147.137338,40.7310452 C148.413063,40.7310452 149.118498,41.7341419 149.118498,42.682529 L149.118498,43.170529 Z M147.137338,38.1558194 C144.206038,38.1558194 142.251752,40.2701419 142.251752,42.682529 L142.251752,46.6941419 C142.251752,49.1067871 144.206038,51.2208516 147.137338,51.2208516 C149.807912,51.2208516 150.833246,49.9617548 151.354958,48.9119484 C151.446949,48.7269161 151.517751,48.3155613 151.191907,48.0987871 L149.91644,47.258529 C149.617987,47.0685935 149.292143,47.0959484 149.102219,47.3937548 C148.586192,48.2613677 147.984893,48.6458839 147.137338,48.6458839 C145.861613,48.6458839 145.15592,47.6430452 145.15592,46.6941419 L145.15592,46.2064 C145.15592,46.0164645 145.264448,45.9080774 145.454373,45.9080774 L150.828337,45.9080774 C151.588552,45.9080774 152.022666,45.474529 152.022666,44.7153032 L152.022666,42.682529 C152.022666,40.2701419 150.068638,38.1558194 147.137338,38.1558194 Z" id="Fill-78"></path>
                    <path d="M168.894748,40.8338581 C170.141274,40.8338581 170.651616,41.6545032 171.190123,42.5600516 C171.388317,42.8715355 171.728372,42.8999226 172.040262,42.701729 L173.371802,41.8245677 C173.712116,41.5979871 173.626844,41.173471 173.54183,40.9755355 C173.003581,39.5886968 171.416741,38.1453419 168.894748,38.1453419 C165.833989,38.1453419 163.793913,40.3528258 163.793913,42.8715355 L163.793913,46.4950194 C163.793913,49.013471 165.833989,51.2209548 168.894748,51.2209548 C171.416741,51.2209548 173.003581,49.7776 173.54183,48.3907613 C173.626844,48.1928258 173.712116,47.7683097 173.371802,47.541729 L172.040262,46.6645677 C171.728372,46.4663742 171.388317,46.4950194 171.190123,46.8062452 C170.651616,47.7115355 170.141274,48.5324387 168.894748,48.5324387 C167.562949,48.5324387 166.82599,47.4852129 166.82599,46.4950194 L166.82599,42.8715355 C166.82599,41.8810839 167.562949,40.8338581 168.894748,40.8338581" id="Fill-80"></path>
                    <path d="M184.842168,46.6942194 C184.842168,47.6431226 184.136475,48.6457032 182.860749,48.6457032 C181.585282,48.6457032 180.879331,47.6431226 180.879331,46.6942194 L180.879331,42.8193806 C180.879331,41.8709935 181.585282,40.8678968 182.860749,40.8678968 C184.136475,40.8678968 184.842168,41.8709935 184.842168,42.8193806 L184.842168,46.6942194 Z M182.860749,38.292671 C179.929449,38.292671 177.975421,40.4072516 177.975421,42.8193806 L177.975421,46.6942194 C177.975421,49.1068645 179.929449,51.220929 182.860749,51.220929 C185.792049,51.220929 187.746077,49.1068645 187.746077,46.6942194 L187.746077,42.8193806 C187.746077,40.4072516 185.792049,38.292671 182.860749,38.292671 Z" id="Fill-82"></path>
                    <path d="M215.149521,38.3013419 C214.146151,38.3013419 213.400664,38.5591484 212.655694,38.9599226 C212.540706,39.0169548 212.397552,39.0458581 212.254139,38.8453419 C212.139409,38.673471 211.967572,38.5877935 211.738112,38.5877935 L210.62027,38.5877935 C210.218715,38.5877935 209.989513,38.8166968 209.989513,39.217729 L209.989513,50.4035355 C209.989513,50.8040516 210.218715,51.0332129 210.62027,51.0332129 L212.426234,51.0332129 C212.827531,51.0332129 213.056732,50.8040516 213.056732,50.4035355 L213.056732,43.0825032 C213.056732,42.0806968 213.802219,41.0213419 215.149521,41.0213419 C216.496824,41.0213419 217.242311,42.0806968 217.242311,43.0825032 L217.242311,50.4035355 C217.242311,50.8040516 217.471512,51.0332129 217.872809,51.0332129 L219.678773,51.0332129 C220.080586,51.0332129 220.309788,50.8040516 220.309788,50.4035355 L220.309788,43.0825032 C220.309788,40.5343742 218.245681,38.3013419 215.149521,38.3013419" id="Fill-84"></path>
                    <path d="M159.574666,49.8477161 C159.574666,48.9375226 158.835897,48.1994581 157.924259,48.1994581 C157.013137,48.1994581 156.274369,48.9375226 156.274369,49.8477161 C156.274369,50.7576516 157.013137,51.4957161 157.924259,51.4957161 C158.835897,51.4957161 159.574666,50.7576516 159.574666,49.8477161" id="Fill-86"></path>
                    <path d="M204.590174,40.867871 L202.797905,40.867871 C202.39971,40.867871 202.172317,41.1019355 202.172317,41.5114839 L202.172317,46.4689032 L202.172317,47.0245161 L202.172317,50.3894194 C202.172317,50.7989677 202.39971,51.0332903 202.797905,51.0332903 L204.590174,51.0332903 C204.98837,51.0332903 205.216021,50.7989677 205.216021,50.3894194 L205.216021,47.0245161 L205.216021,46.4689032 L205.216021,41.5114839 C205.216021,41.1019355 204.98837,40.867871 204.590174,40.867871" id="Fill-88"></path>
                    <path d="M204.618676,39.1224 L202.769817,39.1224 C202.358701,39.1224 202.124073,38.8880774 202.124073,38.4774968 L202.124073,37.1291097 C202.124073,36.7190452 202.358701,36.4844645 202.769817,36.4844645 L204.618676,36.4844645 C205.029533,36.4844645 205.264161,36.7190452 205.264161,37.1291097 L205.264161,38.4774968 C205.264161,38.8880774 205.029533,39.1224 204.618676,39.1224" id="Fill-90"></path>
                    <path d="M192.256827,50.9573419 C192.160444,51.1635355 191.938219,51.2161806 191.715736,51.2326968 C191.353458,51.2600516 191.011076,51.2499871 190.774898,51.2208258 C190.26714,51.1591484 190.314944,50.9508903 190.494016,50.4930839 C190.677481,50.0239226 196.034649,38.4386323 197.018381,36.5550194 C197.107271,36.3846968 197.402365,36.2964387 197.62459,36.2799226 C197.987385,36.2528258 198.264132,36.2626323 198.50031,36.2915355 C199.008068,36.353471 198.999024,36.5901161 198.781192,37.0192774 L192.256827,50.9573419 Z" id="Fill-92"></path>
                </g>
            </g>
        </g>
    </g>
</svg>