<?xml version="1.0" encoding="iso-8859-1"?>
<!-- Generator: Adobe Illustrator 19.0.0, SVG Export Plug-In . SVG Version: 6.00 Build 0)  -->
<svg version="1.1" id="svg6409" xmlns="http://www.w3.org/2000/svg" xmlns:xlink="http://www.w3.org/1999/xlink" x="0px" y="0px"
	 viewBox="1000 -1000 2500 2500" style="enable-background:new 1000 -1000 2500 2500;" xml:space="preserve">
<g id="layer1">
	<g id="g7226" transform="matrix(2.66672 0 0 2.66672 -505.499 -542.37)">
		<polygon style="fill:#FFFFFF;stroke:#000000;stroke-miterlimit:10;" points="1034.291,-156.001 1426.299,70.344 1428.071,526.578 
			1035.178,750.267 643.17,525.25 642.284,73.002 		"/>
		<path id="path7002" style="fill:none;stroke:#E7E7E9;stroke-width:2;" d="M1036.507,749.824l0.886-452.691L644.499,73.003
			l392.894,223.688l389.35-223.245"/>
		<path id="path7000" style="fill:none;stroke:#3FA0F1;stroke-width:5;" d="M643.17,525.25l-0.886-452.248l392.008-229.003
			l392.008,226.345l1.772,456.234l-392.893,223.689L643.17,525.25L643.17,525.25z"/>
		<g id="g7124" transform="matrix(.17895 .10258 0 .25978 219.278 150.083)">
			<path id="path7068" d="M2767.237-832.404l-158.132-65.999v-41.194l158.132-65.556v49.61l-96.119,37.208l96.119,37.208V-832.404
				L2767.237-832.404z"/>
			<path id="path7070" d="M3007.313-832.404l158.132-65.999v-41.194l-158.132-65.556v49.61l96.119,37.208l-96.119,37.208V-832.404
				L3007.313-832.404z"/>
			<path id="rect7074" d="M2811.975-945.798h139.971c8.859,0,15.946,7.087,15.946,15.946v22.147c0,8.859-7.087,15.946-15.946,15.946
				h-139.971c-8.859,0-15.946-7.087-15.946-15.946v-22.147C2796.029-938.711,2803.558-945.798,2811.975-945.798z"/>
		</g>
		<path id="rect7076" style="fill:#6F9DCE;" d="M690.122,236.45l225.46,129.34c2.215,1.329,3.987,4.429,3.987,7.087v10.63
			c0,2.658-1.772,3.543-3.987,2.215l-225.46-129.34c-2.215-1.329-3.987-4.429-3.987-7.087v-10.63
			C686.137,236.007,687.908,235.121,690.122,236.45L690.122,236.45z"/>
		<path id="rect7078" style="fill:#6F9DCE;" d="M690.122,269.228l316.264,181.165c2.215,1.329,3.987,4.429,3.987,7.087v10.63
			c0,2.658-1.772,3.543-3.987,2.215L690.122,289.161c-2.215-1.329-3.987-4.429-3.987-7.087v-10.63
			C686.136,269.228,687.908,268.342,690.122,269.228z"/>
		<path id="rect7080" style="fill:#6F9DCE;" d="M690.122,300.677l316.264,181.165c2.215,1.329,3.987,4.429,3.987,7.087v10.63
			c0,2.658-1.772,3.543-3.987,2.215L690.122,320.61c-2.215-1.329-3.987-4.429-3.987-7.087v-10.63
			C686.137,300.677,687.908,299.348,690.122,300.677L690.122,300.677z"/>
		<path id="rect7082" style="fill:#6F9DCE;" d="M690.122,332.127l136.871,78.402c2.215,1.329,3.987,4.429,3.987,7.087v10.63
			c0,2.658-1.772,3.543-3.987,2.215l-136.871-78.402c-2.215-1.329-3.987-4.429-3.987-7.087v-10.63
			C686.136,331.683,687.908,330.798,690.122,332.127z"/>
		<path id="rect7084" style="fill:#6F9DCE;" d="M690.122,363.132l268.425,153.703c2.215,1.329,3.987,4.429,3.987,7.087v10.63
			c0,2.658-1.771,3.543-3.987,2.215L690.122,383.065c-2.215-1.329-3.987-4.429-3.987-7.087v-10.63
			C686.136,363.132,687.908,362.247,690.122,363.132L690.122,363.132z"/>
		<path id="rect7086" style="fill:#6F9DCE;" d="M690.122,394.581l49.167,27.905c2.215,1.329,3.987,4.429,3.987,7.087v10.63
			c0,2.658-1.772,3.543-3.987,2.215l-49.167-27.905c-2.215-1.329-3.987-4.429-3.987-7.087v-10.63
			C686.136,394.581,687.908,393.252,690.122,394.581z"/>
		<g id="g7118" transform="matrix(.17895 .10258 0 .25978 221.119 151.138)">
			<path id="path7068-8" d="M2771.512,278.058l-172.75-71.757V161.12l172.75-71.757v54.04l-104.978,40.308l104.978,40.751V278.058
				L2771.512,278.058z"/>
			<path id="path7070-7" d="M2964.636,278.058l172.749-71.757V161.12l-172.749-71.757v54.04l104.978,40.308l-104.978,40.751V278.058
				L2964.636,278.058z"/>
			<text transform="matrix(1.4435 0 0 1.4435 2823.6138 295.1736)" style="font-family:'Arial-Black'; font-size:215.6262px;">/</text>
		</g>
		<g id="g7183" transform="matrix(.45186 -.23406 -.01436 .47021 341.63 217.323)">
			<g id="g7189" transform="matrix(.98474 -.0433 .04191 1.01366 -18.103 -1.603)">
				<path id="rect7147" style="fill:#3FA0F1;" d="M1869.156,1410.966h309.619c29.678,0,54.04,23.919,54.04,54.04v205.97
					c0,29.678-23.919,54.04-54.04,54.04h-309.619c-29.678,0-54.04-23.919-54.04-54.04v-205.97
					C1815.116,1434.885,1839.035,1410.966,1869.156,1410.966L1869.156,1410.966z"/>
				<path id="rect7177" style="fill:#FFFFFF;fill-opacity:0;stroke:#3FA0F1;stroke-width:17;stroke-linejoin:bevel;" d="
					M2009.57,1261.25h28.791c58.912,0,106.75,47.838,106.75,106.75v126.682c0,58.912-47.838,106.749-106.75,106.749h-28.791
					c-58.912,0-106.751-47.838-106.751-106.749V1368C1902.819,1309.089,1950.658,1261.25,2009.57,1261.25L2009.57,1261.25z"/>
				<path id="path7179" style="fill:#2C6CEA;" d="M1992.525,1504.591c21.459-30.965,53.687-45.788,71.985-33.107
					c18.297,12.68,15.735,48.062-5.724,79.026c-21.459,30.964-53.687,45.788-71.985,33.107
					C1968.503,1570.937,1971.066,1535.555,1992.525,1504.591z"/>
				<path id="rect7181" style="fill:#2C6CEA;" d="M2013.556,1529.232h24.362c6.201,0,11.074,4.872,11.074,11.074v70.871
					c0,6.201-4.872,11.074-11.074,11.074h-24.362c-6.201,0-11.074-4.872-11.074-11.074v-70.871
					C2002.482,1534.105,2007.354,1529.232,2013.556,1529.232z"/>
			</g>
		</g>
		<g id="text7201" transform="matrix(.85395 .52036 -.9448 .5953 0 6)">
			<path id="path7208" d="M585.911-501.058c-7.973,1.772-15.946,2.658-24.362,2.658c-24.362,0-36.765-7.973-36.765-23.476v-41.637
				c0-16.832,12.403-25.248,36.765-25.248c7.972,0,15.946,0.886,23.919,2.658v9.745c-8.416-2.215-16.389-3.1-23.476-3.1
				c-3.543,0-6.201,0.443-8.859,0.886c-2.658,0.444-5.316,0.886-7.53,2.215c-2.658,0.886-4.429,2.658-5.758,4.872
				c-1.329,2.214-2.215,4.872-2.215,8.416v40.751c0,10.188,8.416,15.061,25.248,15.061c7.087,0,15.06-0.886,23.476-3.1
				L585.911-501.058z"/>
			<path id="path7210" d="M658.554-499.729h-12.403v-46.953c0-1.772,0-3.1-0.443-3.987c-0.443-0.886-0.886-2.215-1.772-3.1
				c-0.886-1.329-2.215-2.215-4.429-2.658c-1.772-0.443-4.429-0.886-7.53-0.886c-7.53,0-12.403,0.886-14.617,2.215
				c-2.215,1.772-3.543,4.429-3.543,8.416v46.952h-11.959v-94.348h11.959v37.208c1.329-6.201,8.416-9.301,21.262-9.301
				c8.416,0,14.617,1.772,17.717,4.872c3.101,3.1,4.872,7.53,4.872,14.174v47.395L658.554-499.729L658.554-499.729z"/>
			<path id="path7212" d="M730.754-499.729h-11.517l0-6.201c-0.886,4.872-7.53,7.53-19.49,7.53c-8.859,0-15.06-1.329-18.604-3.987
				c-3.543-2.658-5.316-8.416-5.316-16.832c0-7.087,1.772-12.403,4.872-15.061c3.101-2.658,9.302-3.987,18.604-3.987h19.49v-10.188
				c0-3.543-1.329-6.201-3.543-7.087c-2.215-1.329-6.201-1.772-12.403-1.772c-6.645,0-14.174,0.443-22.147,1.772v-8.859
				c8.859-0.886,16.832-1.329,23.919-1.329c11.074,0,18.161,1.329,21.262,3.987c3.1,2.658,4.872,7.973,4.872,16.389L730.754-499.729
				L730.754-499.729z M718.795-513.017v-17.717h-18.604c-5.758,0-8.859,0.886-10.63,2.215c-1.329,1.329-2.215,4.872-2.215,9.745
				c0,4.429,0.886,7.973,2.215,9.745c1.329,1.772,4.872,2.658,9.302,2.658h7.973c1.772,0,3.543-0.443,5.316-0.886
				c1.772-0.443,3.543-1.329,4.429-2.215C717.909-510.36,718.795-511.245,718.795-513.017z"/>
			<path id="path7214" d="M763.975-575.915h-11.959v-12.845h11.959V-575.915z M763.975-499.729h-11.959v-65.113h11.959V-499.729
				L763.975-499.729z"/>
			<path id="path7216" d="M841.048-499.729h-11.959v-46.953c0-1.772,0-3.1-0.443-3.987c-0.443-0.886-0.886-2.215-1.771-3.1
				c-0.886-1.329-2.215-2.215-4.429-2.658c-1.772-0.443-4.429-0.886-7.53-0.886c-7.087,0-11.959,0.886-14.174,2.215
				c-2.215,1.329-3.543,4.429-3.543,8.416v46.952h-11.959v-65.113h11.959v7.973c1.329-6.201,8.416-9.301,21.262-9.301
				c8.416,0,14.617,1.772,17.718,4.872c3.1,3.101,4.872,7.53,4.872,14.174L841.048-499.729L841.048-499.729z"/>
			<path id="path7218" d="M583.253-391.65h-55.811v-87.26h12.845v78.402l42.966,0V-391.65z"/>
			<path id="path7220" d="M608.501-467.837h-11.959v-12.845h11.959V-467.837z M608.501-391.65h-11.959v-65.113l11.959,0V-391.65z"/>
			<path id="path7222" d="M685.574-391.65h-11.959v-46.953c0-1.772,0-3.1-0.443-3.987c-0.443-0.886-0.886-2.215-1.772-3.1
				c-0.886-1.329-2.215-2.215-4.429-2.658c-1.772-0.443-4.429-0.886-7.53-0.886c-7.087,0-11.959,0.886-14.174,2.215
				c-2.215,1.329-3.543,4.429-3.543,8.416v46.953h-11.962v-65.113h11.959v7.973c1.329-6.201,8.416-9.301,21.262-9.301
				c8.416,0,14.617,1.772,17.718,4.872c3.1,3.1,4.872,7.53,4.872,14.174L685.574-391.65L685.574-391.65z"/>
			<path id="path7224" d="M764.861-391.65h-15.06l-23.919-28.791l-7.53,7.53l-1.772-14.617l30.12-30.12l15.946,0.886l-28.349,29.678
				L764.861-391.65L764.861-391.65z M718.351-391.65h-11.959v-94.348h11.959V-391.65z"/>
		</g>
	</g>
</g>
</svg>
