<svg id="Layer_1" data-name="Layer 1" xmlns="http://www.w3.org/2000/svg" viewBox="0 0 230.88 72.02"><defs><style>.cls-1{fill:#1e2527;}.cls-2{fill:#d87a5f;}</style></defs><title>locktrip</title><g id="_3" data-name="3"><path class="cls-1" d="M105.28,184.17c-2.8,0-3.49-2.19-3.49-5.79s.69-5.81,3.49-5.81,3.49,2.19,3.49,5.81S108.08,184.17,105.28,184.17Zm0-.77c2.48,0,2.66-2.29,2.66-5s-.18-5-2.66-5-2.66,2.3-2.66,5S102.8,183.4,105.28,183.4Z" transform="translate(-100.93 -115.02)"/><path class="cls-1" d="M111.17,174.92a2.37,2.37,0,0,1,4.74,0,2.34,2.34,0,0,1-2.38,2.34A2.31,2.31,0,0,1,111.17,174.92Zm9-2.14H121L112.46,184h-.88Zm-5,2.14a1.59,1.59,0,1,0-1.58,1.63A1.55,1.55,0,0,0,115.12,174.92ZM119,179.5a2.35,2.35,0,1,1,0,4.69,2.34,2.34,0,1,1,0-4.69Zm0,4a1.55,1.55,0,0,0,1.58-1.65,1.59,1.59,0,1,0-1.58,1.65Z" transform="translate(-100.93 -115.02)"/><path class="cls-1" d="M138,182.79a5.47,5.47,0,0,1-3.71,1.39,5.81,5.81,0,0,1,0-11.62,5.54,5.54,0,0,1,3.54,1.23l-.29.74a5.09,5.09,0,0,0-3.25-1.2,4.82,4.82,0,0,0-4.72,5,4.76,4.76,0,0,0,4.77,5,5.07,5.07,0,0,0,3.44-1.34Z" transform="translate(-100.93 -115.02)"/><path class="cls-1" d="M144.3,175.46a4.36,4.36,0,1,1-4.27,4.35A4.21,4.21,0,0,1,144.3,175.46Zm0,8a3.61,3.61,0,1,0-3.43-3.62A3.41,3.41,0,0,0,144.29,183.44Z" transform="translate(-100.93 -115.02)"/><path class="cls-1" d="M162.64,184h-.8v-5c0-1.84-.72-2.77-2.16-2.77s-2.38,1-2.38,2.79v5h-.8v-5.33a2.16,2.16,0,0,0-2.19-2.45,2.5,2.5,0,0,0-2.35,2.72V184h-.8v-8.31h.8V177a2.7,2.7,0,0,1,2.45-1.52,2.63,2.63,0,0,1,2.63,1.67,2.85,2.85,0,0,1,2.75-1.67c1.84,0,2.87,1.33,2.87,3.17Z" transform="translate(-100.93 -115.02)"/><path class="cls-1" d="M177.25,184h-.8v-5c0-1.84-.72-2.77-2.16-2.77s-2.38,1-2.38,2.79v5h-.8v-5.33a2.16,2.16,0,0,0-2.19-2.45,2.5,2.5,0,0,0-2.35,2.72V184h-.8v-8.31h.8V177a2.7,2.7,0,0,1,2.45-1.52,2.63,2.63,0,0,1,2.63,1.67,2.85,2.85,0,0,1,2.75-1.67c1.84,0,2.87,1.33,2.87,3.17Z" transform="translate(-100.93 -115.02)"/><path class="cls-1" d="M180.77,172.81a.66.66,0,1,1-.66.66A.65.65,0,0,1,180.77,172.81Zm-.4,2.87h.8V184h-.8Z" transform="translate(-100.93 -115.02)"/><path class="cls-1" d="M184.4,182a2.19,2.19,0,0,0,2.15,1.46,1.67,1.67,0,0,0,1.81-1.62c0-2.24-4.29-1.5-4.29-4.24a2.22,2.22,0,0,1,2.48-2.15,2.4,2.4,0,0,1,2.43,1.65l-.66.26a1.81,1.81,0,0,0-1.84-1.2,1.46,1.46,0,0,0-1.63,1.39c0,2.15,4.29,1.41,4.29,4.26a2.42,2.42,0,0,1-2.62,2.37,2.77,2.77,0,0,1-2.8-1.9Z" transform="translate(-100.93 -115.02)"/><path class="cls-1" d="M191.74,182a2.19,2.19,0,0,0,2.15,1.46,1.67,1.67,0,0,0,1.81-1.62c0-2.24-4.29-1.5-4.29-4.24a2.22,2.22,0,0,1,2.48-2.15,2.4,2.4,0,0,1,2.43,1.65l-.66.26a1.81,1.81,0,0,0-1.84-1.2,1.46,1.46,0,0,0-1.63,1.39c0,2.15,4.29,1.41,4.29,4.26a2.42,2.42,0,0,1-2.62,2.37,2.77,2.77,0,0,1-2.8-1.9Z" transform="translate(-100.93 -115.02)"/><path class="cls-1" d="M199.45,172.81a.66.66,0,1,1-.66.66A.65.65,0,0,1,199.45,172.81Zm-.4,2.87h.8V184h-.8Z" transform="translate(-100.93 -115.02)"/><path class="cls-1" d="M206.74,175.46a4.36,4.36,0,1,1-4.27,4.35A4.21,4.21,0,0,1,206.74,175.46Zm0,8a3.61,3.61,0,1,0-3.43-3.62A3.41,3.41,0,0,0,206.72,183.44Z" transform="translate(-100.93 -115.02)"/><path class="cls-1" d="M219.94,178.58V184h-.8v-5.33a2.23,2.23,0,0,0-2.26-2.45,2.49,2.49,0,0,0-2.5,2.71V184h-.8v-8.31h.8V177a2.94,2.94,0,0,1,2.59-1.52A2.88,2.88,0,0,1,219.94,178.58Z" transform="translate(-100.93 -115.02)"/><path class="cls-1" d="M223.09,182a2.19,2.19,0,0,0,2.14,1.46,1.67,1.67,0,0,0,1.81-1.62c0-2.24-4.29-1.5-4.29-4.24a2.22,2.22,0,0,1,2.48-2.15,2.4,2.4,0,0,1,2.43,1.65l-.66.26a1.81,1.81,0,0,0-1.84-1.2,1.46,1.46,0,0,0-1.63,1.39c0,2.15,4.29,1.41,4.29,4.26a2.42,2.42,0,0,1-2.62,2.37,2.77,2.77,0,0,1-2.8-1.9Z" transform="translate(-100.93 -115.02)"/><path class="cls-1" d="M239.09,175.46a4.36,4.36,0,1,1-4.27,4.35A4.21,4.21,0,0,1,239.09,175.46Zm0,8a3.61,3.61,0,1,0-3.43-3.62A3.41,3.41,0,0,0,239.07,183.44Z" transform="translate(-100.93 -115.02)"/><path class="cls-1" d="M252.29,178.58V184h-.8v-5.33a2.23,2.23,0,0,0-2.26-2.45,2.49,2.49,0,0,0-2.5,2.71V184h-.8v-8.31h.8V177a2.94,2.94,0,0,1,2.59-1.52A2.88,2.88,0,0,1,252.29,178.58Z" transform="translate(-100.93 -115.02)"/><path class="cls-1" d="M260.57,172.78h2.93a2.85,2.85,0,0,1,3.09,2.86,2.73,2.73,0,0,1-1.5,2.47,2.83,2.83,0,0,1,1.89,2.74,3.12,3.12,0,0,1-3.22,3.14h-3.19Zm3,5a2.08,2.08,0,0,0,2.14-2.13,2.05,2.05,0,0,0-2.14-2.11h-2.21v4.24Zm-.1,5.47a2.38,2.38,0,1,0,0-4.74h-2.08v4.74Z" transform="translate(-100.93 -115.02)"/><path class="cls-1" d="M273.37,175.46a4.36,4.36,0,1,1-4.27,4.35A4.21,4.21,0,0,1,273.37,175.46Zm0,8a3.61,3.61,0,1,0-3.43-3.62A3.41,3.41,0,0,0,273.36,183.44Z" transform="translate(-100.93 -115.02)"/><path class="cls-1" d="M283.9,175.46a4.36,4.36,0,1,1-4.27,4.35A4.21,4.21,0,0,1,283.9,175.46Zm0,8a3.61,3.61,0,1,0-3.43-3.62A3.41,3.41,0,0,0,283.89,183.44Z" transform="translate(-100.93 -115.02)"/><path class="cls-1" d="M290.75,172.41h.8v6.87l3.83-3.6h1.07l-4,3.73,4.23,4.58h-1.07l-4-4.47V184h-.8Z" transform="translate(-100.93 -115.02)"/><path class="cls-1" d="M299.16,172.81a.66.66,0,1,1-.66.66A.65.65,0,0,1,299.16,172.81Zm-.4,2.87h.8V184h-.8Z" transform="translate(-100.93 -115.02)"/><path class="cls-1" d="M309.12,178.58V184h-.8v-5.33a2.23,2.23,0,0,0-2.26-2.45,2.49,2.49,0,0,0-2.5,2.71V184h-.8v-8.31h.8V177a2.94,2.94,0,0,1,2.59-1.52A2.88,2.88,0,0,1,309.12,178.58Z" transform="translate(-100.93 -115.02)"/><path class="cls-1" d="M312.94,185.53a5.12,5.12,0,0,0,2.58.75c1.79,0,3.25-.8,3.25-2.95v-.9a3.53,3.53,0,0,1-3.09,1.74,4,4,0,0,1-4-4.34c0-2.56,1.63-4.39,4-4.39a3.62,3.62,0,0,1,3.17,1.79v-1.58h.8v7.11c0,3.15-1.65,4.26-4,4.26a5.9,5.9,0,0,1-2.93-.86Zm2.67-9.32c-1.81,0-3.15,1.5-3.15,3.63a3.27,3.27,0,0,0,3.18,3.59c1.94,0,3.15-1.63,3.15-3.59C318.8,177.54,317.34,176.22,315.61,176.22Z" transform="translate(-100.93 -115.02)"/><path class="cls-1" d="M322.72,182a2.19,2.19,0,0,0,2.14,1.46,1.67,1.67,0,0,0,1.81-1.62c0-2.24-4.29-1.5-4.29-4.24a2.22,2.22,0,0,1,2.48-2.15,2.4,2.4,0,0,1,2.43,1.65l-.66.26a1.81,1.81,0,0,0-1.84-1.2,1.46,1.46,0,0,0-1.63,1.39c0,2.15,4.29,1.41,4.29,4.26a2.42,2.42,0,0,1-2.62,2.37,2.77,2.77,0,0,1-2.8-1.9Z" transform="translate(-100.93 -115.02)"/><path class="cls-2" d="M107.94,150.08h13.8a.9.9,0,0,1,.91.91v4.45a.9.9,0,0,1-.91.91h-19.9a.9.9,0,0,1-.91-.91V117.36a.9.9,0,0,1,.91-.91H107a.9.9,0,0,1,.91.91Z" transform="translate(-100.93 -115.02)"/><path class="cls-2" d="M172.42,139.23A13.39,13.39,0,0,1,184.79,123a13.36,13.36,0,0,1,10.44,4.17,2.09,2.09,0,0,0,1.52.63h5.63a.72.72,0,0,0,.62-1.08,20,20,0,0,0-36.54,3.58l.5.9A44.79,44.79,0,0,0,172.42,139.23Zm24.4,5.63a2.09,2.09,0,0,0-1.53.64,13.36,13.36,0,0,1-9.79,4.25,13.05,13.05,0,0,1-3.31-.41h0c-.76-.08-8.06-1.26-16.15-15.42-6.9-12.06-13.9-16.21-19-17A20,20,0,1,0,160.41,145a3.52,3.52,0,0,0-.25-3.42c-1.3-2-3.21-5.08-4.5-7a13.8,13.8,0,0,1,.12,1.77,13.43,13.43,0,1,1-10.62-13.1c1.42.32,8.24,2.38,14.12,12.69,6.18,10.84,13.88,18.41,20.63,19.6A20,20,0,0,0,203,145.94a.72.72,0,0,0-.63-1.08Z" transform="translate(-100.93 -115.02)"/><path class="cls-2" d="M209,156.35a.9.9,0,0,1-.91-.91V117.36a.9.9,0,0,1,.91-.91h5.19a.9.9,0,0,1,.91.91v15.56l15-15.79a2,2,0,0,1,1.54-.68h7a.49.49,0,0,1,.46.46,1.13,1.13,0,0,1-.34.8l-17.62,18.07L239.93,155a1.16,1.16,0,0,1,.34.86.51.51,0,0,1-.51.51h-7a2,2,0,0,1-1.54-.68l-16.19-17v16.82a.9.9,0,0,1-.91.91Z" transform="translate(-100.93 -115.02)"/><path class="cls-1" d="M253.95,122.72H243.69a.9.9,0,0,1-.91-.91v-4.45a.9.9,0,0,1,.91-.91h27.65a.9.9,0,0,1,.91.91v4.45a.9.9,0,0,1-.91.91H261v32.72a.9.9,0,0,1-.91.91h-5.19a.9.9,0,0,1-.91-.91Z" transform="translate(-100.93 -115.02)"/><path class="cls-1" d="M288,133a1,1,0,0,1-1.08.74,7.86,7.86,0,0,0-1.77-.23c-2.74,0-5.13,1.2-5.93,3.08v18.87a.9.9,0,0,1-.91.91h-4.9a.9.9,0,0,1-.91-.91V128.76a.9.9,0,0,1,.91-.91H276a1.23,1.23,0,0,1,1.2.86l.51,1.37a12.87,12.87,0,0,1,7.87-2.68,15.5,15.5,0,0,1,2.45.23.91.91,0,0,1,.74,1.08Z" transform="translate(-100.93 -115.02)"/><path class="cls-1" d="M295.21,115a3.84,3.84,0,0,1,3.88,3.88,3.88,3.88,0,1,1-3.88-3.88Zm3.36,40.42a.9.9,0,0,1-.91.91h-5a.9.9,0,0,1-.91-.91V128.76a.9.9,0,0,1,.91-.91h5a.9.9,0,0,1,.91.91Z" transform="translate(-100.93 -115.02)"/><path class="cls-1" d="M311.57,155.72v11.12a.9.9,0,0,1-.91.91h-4.9a.9.9,0,0,1-.91-.91V128.76a.9.9,0,0,1,.91-.91h2.57a1.23,1.23,0,0,1,1.2.86l.51,1.37a12.87,12.87,0,0,1,7.87-2.68c10.6,0,13.91,8.61,13.91,14.71,0,5.81-3.08,14.19-13.28,14.71H316.7A17.05,17.05,0,0,1,311.57,155.72Zm0-19.38V149.4a10.47,10.47,0,0,0,5.59,1.6c6.67,0,8-6.27,8-8.89,0-2.22-.91-8.89-7.53-8.89A6.8,6.8,0,0,0,311.57,136.34Z" transform="translate(-100.93 -115.02)"/></g></svg>