<?xml version="1.0" encoding="iso-8859-1"?>
<!-- Generator: Adobe Illustrator 19.0.0, SVG Export Plug-In . SVG Version: 6.00 Build 0)  -->
<svg version="1.1" id="Layer_1" xmlns="http://www.w3.org/2000/svg" xmlns:xlink="http://www.w3.org/1999/xlink" x="0px" y="0px"
	 viewBox="1000 -1000 2500 2500" style="enable-background:new 1000 -1000 2500 2500;" xml:space="preserve">
<title>lrc</title>
<path style="fill:#3C3C3C;" d="M3474.023,250c0,675.832-548.191,1224.023-1224.023,1224.023S1025.977,925.832,1025.977,250
	S1574.168-974.023,2250-974.023S3474.023-425.832,3474.023,250z"/>
<path style="fill:#FFFFFF;" d="M2254.286-591.575c254.33,351.49,506.279,704.885,760.609,1056.851
	c-254.013,208.131-507.231,416.898-759.656,626.3c-257.188-208.608-512.947-418.168-770.134-626.3
	C1742.292,113.786,1998.686-238.498,2254.286-591.575L2254.286-591.575z M1802.779,424.316
	c111.924,90.492,222.896,182.413,335.297,271.952c0.476-244.328,0.953-489.133-0.476-733.461
	C2027.58,117.596,1913.751,270.004,1802.779,424.316z M2370.973-33.383c-0.476,242.9-0.476,485.799,0,728.698
	c108.59-91.921,219.086-180.508,328.153-271.952C2589.583,271.432,2479.564,119.501,2370.973-33.383z"/>
</svg>
