<?xml version="1.0" encoding="utf-8"?>
<!-- Generator: Adobe Illustrator 21.0.0, SVG Export Plug-In . SVG Version: 6.00 Build 0)  -->
<svg version="1.1" id="MESG-Logo" xmlns="http://www.w3.org/2000/svg" xmlns:xlink="http://www.w3.org/1999/xlink" x="0px" y="0px"
	 viewBox="0 0 8022 2114" style="enable-background:new 0 0 8022 2114;" xml:space="preserve">
<style type="text/css">
	.st0{fill:#491E8C;}
	.st1{opacity:0.4;fill:#491E8C;}
</style>
<g id="Logo">
	<g id="Wordmark">
		<path id="M" class="st0" d="M3879.6,387.6c-21.2-20.4-47.2-31.5-78.1-33c-36.8,0-67.7,16.8-92.1,50.4l-454.7,680.2l-449.2-680.5
			c-10.6-15.2-24.8-27.4-42.1-36.5c-17.3-9-35.4-13.6-53.7-13.6c-31.9,0-59,11.2-80.5,33.4c-21.3,22-32.1,48-32.1,77.1v1181.7
			c0,31.6,9.7,58.1,28.9,78.8c19.5,21.1,45,31.8,75.8,31.8c32.1,0,58.2-10.7,77.8-31.8c19.2-20.7,28.9-47.2,28.9-78.8V782.2
			l350.8,544.9c10.4,13.4,23.6,24.7,39.1,33.6c16.2,9.2,32.5,13.3,48.5,12c17.2,1.2,34.1-2.8,50.3-12c15.5-8.9,28.7-20.2,39.9-34.6
			L3685,798.6v848.3c0,32,10.9,58.7,32.5,79.5c21.4,20.6,49,31.1,82,31.1c33.3,0,60.7-10.9,81.4-32.5c20.6-21.4,31.1-47.6,31.1-78.1
			V465.2C3912.1,434.5,3901.1,408.4,3879.6,387.6L3879.6,387.6z"/>
		<path id="E" class="st0" d="M5139.4,569.9c31.6,0,58.1-9.7,78.8-28.9c21.1-19.5,31.8-45,31.8-75.8c0-32-10.6-58.4-31.5-78.5
			c-20.8-20-47.4-30.1-79.1-30.1h-679.7c-30.6,0-56.9,10.9-78.3,32.3c-21.4,21.4-32.3,47.7-32.3,78.3v1179.8
			c0,30.6,10.9,56.9,32.3,78.3c21.4,21.4,47.7,32.3,78.3,32.3h679.7c31.6,0,58.1-9.7,78.8-28.9c21.1-19.5,31.8-45,31.8-75.8
			c0-29.1-10.5-54.7-31.1-76.1l0,0c-20.8-21.6-47.6-32.5-79.5-32.5h-563.3v-398h475.4c31.5,0,57.9-9.3,78.6-27.7
			c21.2-18.9,32-44.8,32-77c0-30.7-10.6-56.4-31.5-76.6c-20.8-20-47.4-30.1-79.1-30.1h-475.4V569.9H5139.4z"/>
		<path id="S" class="st0" d="M6321.4,1024.2c-65.2-30.3-150.2-57-252.4-79.3c-99.2-22.9-174.6-51-224-83.6
			c-46.8-30.8-69.6-74.1-69.6-132.4c0-53.2,22.9-95,69.9-127.8c48.3-33.6,115.1-50.7,198.4-50.7c52.3,0,108.1,11.4,165.7,34
			c57.4,22.5,102.8,50.1,135.6,82.8c14.8,13.2,33.7,19.9,56.1,19.9c29.4,0,54.8-10.9,75.6-32.5c20.6-21.4,31.1-46.3,31.1-74.2
			c0-34.9-17.1-67.4-50-96.1c-45.8-44.4-106.3-80.5-179.8-107.3c-73.1-26.6-152-40.1-234.3-40.1c-91.8,0-175.6,16.2-248.9,48.3
			c-74.2,32.4-133.1,79.3-175,139.6c-42.2,60.5-63.6,131.8-63.6,211.8c0,115.3,38.4,207,114.2,272.5
			c74.2,64.1,180.9,110.7,317,138.5c110.7,24.2,193.8,54.6,247.2,90.3c50.9,34.2,76.3,81.2,77.5,143.3c0,51.8-25.3,93.8-77.5,128.6
			c-53.6,35.7-120.4,53.8-198.7,53.8c-67.8,0-129.1-11.1-182.1-32.9c-53.2-21.9-105.7-56.6-156.2-103.3
			c-18.8-17.2-41.6-25.9-68-25.9c-29.4,0-55.1,11.3-76.5,33.5c-21.3,22-32.1,47.3-32.1,75.2c0,34.9,15.8,66.2,46.6,92.6
			c67.7,61.1,139.9,105.9,214.5,133.2h0c74.5,27.2,161.2,41.1,257.7,41.1c89.2,0,172.3-16.9,247.1-50.3
			c75.3-33.6,135.7-81.5,179.7-142.2c44.2-61.3,66.7-132.3,66.7-211c0-88.9-18.7-162.3-55.5-218.3
			C6441.1,1099.4,6388.4,1055.3,6321.4,1024.2z"/>
		<path id="G" class="st0" d="M7990.6,1037.5L7990.6,1037.5c-20.8-21.6-46.9-32.5-77.5-32.5h-343.8c-30.4,0-56.7,10.5-78.1,31.1
			c-21.6,20.8-32.5,47.5-32.5,79.5c0,30.7,10.9,56.8,32.5,77.5c21.4,20.6,47.7,31.1,78.1,31.1h219.5v283
			c-31.9,14.3-69.7,26.2-112.7,35.3c-47.4,10.1-93.2,15.3-136.1,15.3c-90.3,0-173.8-22.5-248.2-67
			c-74.6-44.5-134.4-105.5-177.6-181.4c-43.2-75.8-65.2-160.8-65.2-252.4s21.9-176.9,65.2-253.5c43.3-76.5,103-137.5,177.5-181.3
			c74.5-43.8,158-66,248.3-66c84,0,168.1,19,249.8,56.6c16.8,10.4,36.6,15.7,58.8,15.7c29.5,0,55-11.3,75.8-33.7
			c20.5-22,30.9-48.5,30.9-78.9c0-18.6-4.7-36-14.1-51.6c-9.3-15.4-23.1-28.5-41-39c-49.5-29.4-105.9-51.7-167.8-66.4
			C7670.7,344.4,7606,337,7540,337c-132.6,0-256,32.3-366.8,96c-110.8,63.7-199.3,151.5-263,261c-63.7,109.5-96,231.7-96,363
			s32.3,253.5,96,363c63.7,109.5,152.2,197.3,263,261c110.8,63.7,234.2,96,366.8,96c76.8,0,152.7-11.1,225.5-32.9
			c72.8-21.8,140.7-53.1,201.4-92.7c36.4-22.7,54.8-55.1,54.8-96.3v-439.5C8021.7,1085.2,8011.2,1058.9,7990.6,1037.5z"/>
	</g>
	<g id="Brandmark">
		<circle id="Core-1_1_" class="st0" cx="1080" cy="608.3" r="161.3"/>
		<circle id="Core-2_1_" class="st0" cx="608.1" cy="951" r="161.3"/>
		<circle id="Core-3_1_" class="st0" cx="1551.9" cy="951" r="161.3"/>
		<circle id="Core-4_1_" class="st0" cx="788.4" cy="1505.7" r="161.3"/>
		<circle id="Core-5_1_" class="st0" cx="1371.6" cy="1505.7" r="161.3"/>
		<path id="Center" class="st1" d="M1167,1505.7c0-54.6,21.3-106,59.9-144.6c38.6-38.6,90-59.9,144.6-59.9
			c51.2,0,99.5,18.7,137.1,52.8c34.8-59.7,57.6-127.3,64.8-199.6c-7.1,0.7-14.4,1.1-21.6,1.1c-54.6,0-106-21.3-144.6-59.9
			s-59.9-90-59.9-144.6c0-54.6,21.3-106,59.9-144.6c12.9-12.9,27.2-23.8,42.5-32.7c-46.8-52.3-104.5-94.6-169.5-123.3
			c-8,38.6-27.1,74-55.6,102.6c-38.6,38.6-90,59.9-144.6,59.9c-54.6,0-106-21.3-144.6-59.9c-28.5-28.5-47.6-64-55.6-102.6
			c-65,28.7-122.7,71-169.5,123.3c15.3,8.9,29.6,19.8,42.5,32.7c38.6,38.6,59.9,90,59.9,144.6c0,54.6-21.3,106-59.9,144.6
			c-38.6,38.6-90,59.9-144.6,59.9c-7.3,0-14.5-0.4-21.6-1.1c7.2,72.2,30,139.8,64.8,199.6c37.7-34.1,86-52.8,137.1-52.8
			c54.6,0,106,21.3,144.6,59.9c38.6,38.6,59.9,90,59.9,144.6c0,29.3-6.1,57.6-17.7,83.5c33.8,7.3,68.8,11.1,104.8,11.1
			c35.9,0,71-3.9,104.8-11.1C1173.1,1563.3,1167,1535,1167,1505.7z"/>
		<path id="Circles" class="st1" d="M2112.2,714.3c-30.6-72.4-74.5-137.5-130.3-193.3c-55.8-55.8-120.9-99.7-193.3-130.3
			c-49.4-20.9-101.3-35.1-154.3-42.3c-29.9-63.2-70.2-120.4-119.9-170.1c-55.8-55.8-120.9-99.7-193.3-130.3
			c-75-31.7-154.6-47.8-236.7-47.8c-82.1,0-161.7,16.1-236.7,47.8c-72.4,30.6-137.5,74.5-193.3,130.3
			c-49.4,49.4-89.5,106.2-119.3,168.9c-56.3,6.7-111.3,21.3-163.7,43.5C299,421.3,234,465.1,178.1,521
			c-55.8,55.8-99.7,120.9-130.3,193.3C16.1,789.3,0,868.9,0,951c0,82.1,16.1,161.7,47.8,236.7c30.6,72.4,74.5,137.5,130.3,193.3
			c3.8,3.8,7.9,7.7,12.6,12.2c-6.9,36.8-10.4,74.6-10.4,112.5c0,82.1,16.1,161.7,47.8,236.7c30.6,72.4,74.5,137.5,130.3,193.3
			c55.8,55.8,120.9,99.7,193.3,130.3c75,31.7,154.6,47.8,236.7,47.8c82.1,0,161.7-16.1,236.7-47.8c18.5-7.8,36.9-16.7,54.8-26.5
			c17.9,9.8,36.4,18.7,54.8,26.5c75,31.7,154.6,47.8,236.7,47.8c82.1,0,161.7-16.1,236.7-47.8c72.4-30.6,137.5-74.5,193.3-130.3
			c55.8-55.8,99.7-120.9,130.3-193.3c31.7-75,47.8-154.6,47.8-236.7c0-37.9-3.5-75.7-10.4-112.5c4.7-4.4,8.7-8.3,12.6-12.2
			c55.8-55.8,99.7-120.9,130.3-193.3c31.7-75,47.8-154.6,47.8-236.7C2160,868.9,2143.9,789.3,2112.2,714.3z M2066.1,1168.2
			c-26.4,62.4-63.5,118.8-110.3,167.9c-6.6-22.7-14.6-45.3-23.9-67.1c-30.6-72.4-74.5-137.5-130.3-193.3
			c-18.3-18.3-38-35.6-58.6-51.5c-6,15.8-14.1,30.9-24,44.8c16.5,13.2,32.3,27.3,47.2,42.1c51.3,51.3,91.5,110.9,119.6,177.4
			c11.9,28.1,21.5,57.3,28.6,86.9c-43.5,37.3-92.4,67.5-145.3,89.9c-61.3,25.9-126.2,40.5-193,43.3c-0.2,17.2-2.6,34.1-6.9,50.4
			c76-2.1,149.8-18.1,219.5-47.5c48.7-20.6,94.5-47.5,136.2-79.9c3.2,24.5,4.9,49.4,4.9,74.3c0,75.4-14.8,148.4-43.8,217.2
			c-28.1,66.5-68.3,126.1-119.6,177.4c-51.3,51.3-110.9,91.5-177.4,119.6c-68.8,29.1-141.9,43.8-217.2,43.8
			c-75.3,0-148.4-14.8-217.2-43.8c-8.1-3.4-16.3-7.1-24.3-11c31.6-21.5,61.3-46.1,88.4-73.2c55.8-55.8,99.7-120.9,130.3-193.3
			c4.5-10.7,8.7-21.5,12.6-32.4c-17.2-0.8-34-3.8-50.1-8.7c-2.8,7.5-5.7,14.8-8.6,21.7c-28.1,66.5-68.4,126.1-119.6,177.4
			c-31.2,31.2-65.8,58.5-103.1,81.4c-37.2-22.8-71.9-50.2-103.1-81.4c-51.3-51.3-91.5-110.9-119.6-177.4c-2.9-6.9-5.8-14.2-8.6-21.7
			c-16.1,4.9-32.9,7.9-50.1,8.7c3.9,10.9,8.1,21.8,12.6,32.4c30.6,72.4,74.5,137.5,130.3,193.3c27.2,27.2,56.9,51.7,88.4,73.2
			c-8.1,3.9-16.2,7.5-24.3,11c-68.8,29.1-141.9,43.8-217.2,43.8S640,2049,571.2,2019.9c-66.5-28.1-126.1-68.4-177.4-119.6
			c-51.3-51.3-91.5-110.9-119.6-177.4c-29.1-68.8-43.8-141.9-43.8-217.2c0-24.9,1.6-49.8,4.9-74.3c41.7,32.4,87.4,59.3,136.2,79.9
			c69.7,29.5,143.5,45.4,219.5,47.5c-4.3-16.2-6.7-33.1-6.9-50.4c-66.8-2.8-131.7-17.4-193-43.3c-52.9-22.4-101.7-52.6-145.3-89.9
			c7.1-29.6,16.7-58.7,28.6-86.9c28.1-66.5,68.3-126.1,119.6-177.4c14.8-14.8,30.7-29,47.2-42.1c-9.9-13.9-17.9-29-24-44.8
			c-20.6,15.9-40.3,33.2-58.6,51.5c-55.8,55.8-99.7,120.9-130.3,193.3c-9.2,21.9-17.3,44.4-23.9,67.1
			c-46.9-49.1-84-105.5-110.3-167.9c-29.1-68.8-43.8-141.9-43.8-217.2c0-75.3,14.8-148.4,43.8-217.2
			c28.1-66.5,68.3-126.1,119.6-177.4c51.3-51.3,110.9-91.5,177.4-119.6c39.1-16.5,79.9-28.5,121.6-35.7
			c-24.1,66.3-36.2,135.9-36.2,207.3c0,57.6,8,114.4,23.8,169c14.4-9,29.9-16.1,46-21.3c-13.1-47.8-19.7-97.4-19.7-147.7
			c0-74.2,14.3-146.2,42.5-214c13.1-0.9,26.3-1.4,39.3-1.4c75.4,0,148.4,14.8,217.2,43.8c31.7,13.4,62.2,29.9,90.9,48.9
			c5.8-7.7,12.2-15,19.1-22c5.2-5.2,10.6-10.1,16.3-14.6c-33.5-22.9-69.4-42.6-106.8-58.4c-75-31.7-154.6-47.8-236.7-47.8
			c-4.9,0-9.9,0.1-14.9,0.2c25.6-47.4,58-90.9,96.5-129.3c51.3-51.3,110.9-91.5,177.4-119.6C936,65,1009,50.2,1084.4,50.2
			c75.3,0,148.4,14.8,217.2,43.8c66.5,28.1,126.1,68.3,177.4,119.6c38.6,38.6,71,82.1,96.7,129.6c-8-0.3-15.9-0.5-23.8-0.5
			c-82.1,0-161.7,16.1-236.7,47.8c-37.4,15.8-73.3,35.5-106.8,58.4c5.6,4.6,11.1,9.4,16.3,14.6c6.9,6.9,13.3,14.3,19.1,22
			c28.7-19,59.2-35.5,90.9-48.9c68.8-29.1,141.9-43.8,217.2-43.8c16.1,0,32.3,0.7,48.4,2.1c28,67.7,42.2,139.4,42.2,213.3
			c0,51.2-6.9,101.8-20.5,150.4c16,5.8,31.2,13.7,45.3,23.4c16.7-56,25.2-114.5,25.2-173.8c0-70.7-12-139.8-35.6-205.6
			c38.4,7.3,76.1,18.7,112.2,34c66.5,28.1,126.1,68.3,177.4,119.6c51.3,51.3,91.5,110.9,119.6,177.4
			c29.1,68.8,43.8,141.9,43.8,217.2C2109.9,1026.3,2095.2,1099.4,2066.1,1168.2z"/>
	</g>
</g>
</svg>
