<?xml version="1.0" encoding="utf-8"?>
<!-- Generator: Adobe Illustrator 22.0.1, SVG Export Plug-In . SVG Version: 6.00 Build 0)  -->
<svg version="1.1" id="Layer_1" xmlns="http://www.w3.org/2000/svg" xmlns:xlink="http://www.w3.org/1999/xlink" x="0px" y="0px"
	 viewBox="0 0 329.8 100" style="enable-background:new 0 0 329.8 100;" xml:space="preserve">
<style type="text/css">
	.st0{fill:#FFFFFF;}
	.st1{enable-background:new    ;}
	.st2{clip-path:url(#SVGID_5_);fill:#FFFFFF;}
</style>
<g>
	<path class="st0" d="M119.5,88.6C122.9,88,126,86,126,81v-7.2c-1.9,1.8-5.3,2.8-9.9,2.8c-11.3,0-17.8-6-17.8-17.8V28.2h8.7v29.2
		c0,8.3,3.3,10.9,9,10.9c6,0,9.9-2.3,9.9-10.9V41.2c0-6.4,3.1-12.7,10.6-13.9l3.1,6.8c-3.5,0.9-5,3.8-5,6.8v40.3
		c0,7.7-2.9,12.6-12,14.1L119.5,88.6z"/>
	<path class="st0" d="M170.6,75.5V44.8c0-9.4-10-11.2-18.3-7.1v37.8h-8.7V28.2h8.1l0.7,1.5c4.4-2.4,12.6-3.4,18.8-0.6
		c4.9,2.2,8.3,6.5,8.3,13.7v32.7H170.6z"/>
	<path class="st0" d="M215.8,75c-6.9,1.8-14.5,2.2-20.4,0.4c-7.7-2.5-10.9-7.3-10.9-16.8V46.4c0-18.4,16-22.9,31.1-16.1l-2.4,7.2
		c-11.6-4.4-19.8-0.9-19.8,8.3v13.7c0,10.4,13.7,9.2,20.1,7.3L215.8,75z"/>
	<polygon class="st0" points="221.5,75.5 221.5,9.4 253.9,9.4 253.9,17.9 230.3,17.9 230.3,36.5 245,36.5 241.9,44.8 230.3,44.8 
		230.3,75.5 	"/>
	<path class="st0" d="M287,75.5c-15.4,1.4-37.4,4.3-37.4-16v-7.8c0-6.8,2.7-10.7,6.7-12.6c6.9-3.3,17.4-0.6,21.8,2.3
		c0-5.4-4.4-7.9-12-7.9l0.7-6c20.2,0,20.2,10.9,20.2,19.9L287,75.5L287,75.5z M278.2,50c-5.3-2.9-19.7-7.7-19.7,2.6v6.2
		c0,7.9,6.6,11.2,19.7,9.2V50z"/>
	<path class="st0" d="M329.3,60.7c0,6.8-3.2,11-7.6,13.1c-8.6,4.3-16.1,2.7-28.3,1.7V9.4h8.8v19.7c4.6-1.9,12.3-2.8,18.7,0.1
		c4.9,2.2,8.3,6.4,8.3,13.6v17.9C329.2,60.7,329.3,60.7,329.3,60.7z M320.5,44.8c0-11.5-13.8-9.6-18.3-6.8v30
		c6.7,1.4,18.3,0.8,18.3-7.2V44.8z"/>
</g>
<g class="st1">
	<path class="st0" d="M142.5,84.1h1.4l2.7,6.4l2.7-6.4h1.4v9.8h-1.4v-6.1h0l-2,4.7H146l-2-4.7h0v6.1h-1.4V84.1z"/>
	<path class="st0" d="M157.8,91.7h-3.6l-0.7,2.2H152l3.4-9.8h1.2l3.4,9.8h-1.5L157.8,91.7z M157.4,90.4l-1.4-4.3h0l-1.4,4.3H157.4z"
		/>
	<path class="st0" d="M161.3,84.1h1.4l4.3,7h0v-7h1.4v9.8h-1.4l-4.3-7h0v7h-1.4V84.1z"/>
	<path class="st0" d="M170.6,84.1h1.4v6.3c0,0.7,0.2,1.2,0.6,1.5c0.4,0.4,0.8,0.6,1.4,0.6c0.6,0,1-0.2,1.4-0.6
		c0.4-0.3,0.5-0.9,0.5-1.5v-6.3h1.4v6.5c0,1-0.3,1.8-1,2.5c-0.6,0.6-1.4,0.9-2.4,0.9c-0.9,0-1.7-0.3-2.4-0.9c-0.7-0.6-1-1.4-1-2.4
		V84.1z"/>
	<path class="st0" d="M179.4,84.1h6.1v1.4h-4.6v2.9h3.9v1.3h-3.9v4.2h-1.4V84.1z"/>
	<path class="st0" d="M190.9,91.7h-3.6l-0.7,2.2H185l3.4-9.8h1.2l3.4,9.8h-1.5L190.9,91.7z M190.5,90.4l-1.4-4.3h0l-1.4,4.3H190.5z"
		/>
	<path class="st0" d="M200.6,91.1c-0.2,0.9-0.6,1.6-1.2,2.1c-0.6,0.5-1.3,0.7-2.1,0.7c-0.7,0-1.4-0.2-1.9-0.6
		c-0.5-0.3-0.9-0.7-1.1-1.2c-0.1-0.1-0.1-0.3-0.2-0.4c-0.1-0.1-0.1-0.3-0.1-0.5c-0.1-0.4-0.1-1.2-0.1-2.3c0-1.1,0-1.9,0.1-2.3
		c0.1-0.4,0.2-0.7,0.3-0.9c0.2-0.5,0.6-0.9,1.1-1.2c0.5-0.4,1.1-0.5,1.9-0.6c0.9,0,1.7,0.3,2.2,0.8c0.6,0.6,0.9,1.2,1.1,2.1H199
		c-0.1-0.4-0.3-0.7-0.6-1c-0.3-0.3-0.7-0.4-1.2-0.4c-0.3,0-0.6,0.1-0.9,0.2c-0.2,0.1-0.4,0.3-0.6,0.5c-0.2,0.2-0.3,0.5-0.4,0.8
		c-0.1,0.3-0.1,1-0.1,2c0,1,0,1.6,0.1,2c0.1,0.3,0.2,0.6,0.4,0.8c0.2,0.2,0.4,0.4,0.6,0.5c0.2,0.1,0.5,0.2,0.9,0.2
		c0.8,0,1.4-0.4,1.8-1.3H200.6z"/>
	<path class="st0" d="M203.4,85.4h-2.6v-1.3h6.6v1.3h-2.6v8.5h-1.4V85.4z"/>
	<path class="st0" d="M208.5,84.1h1.4v6.3c0,0.7,0.2,1.2,0.6,1.5c0.4,0.4,0.8,0.6,1.4,0.6c0.6,0,1-0.2,1.4-0.6
		c0.4-0.3,0.5-0.9,0.5-1.5v-6.3h1.4v6.5c0,1-0.3,1.8-1,2.5c-0.6,0.6-1.4,0.9-2.4,0.9c-0.9,0-1.7-0.3-2.4-0.9c-0.7-0.6-1-1.4-1-2.4
		V84.1z"/>
	<path class="st0" d="M217.3,84.1h3.7c0.8,0,1.4,0.2,1.9,0.6c0.6,0.5,0.9,1.2,0.9,2.1c0,1.3-0.6,2.2-1.8,2.7l2.2,4.3h-1.7l-2-4.2
		h-1.8v4.2h-1.4V84.1z M218.8,88.4h2.2c0.5,0,0.9-0.2,1.2-0.5c0.3-0.3,0.4-0.7,0.4-1.1c0-0.5-0.2-0.9-0.5-1.1
		c-0.2-0.2-0.6-0.3-1.1-0.3h-2.3V88.4z"/>
	<path class="st0" d="M225.7,84.1h1.4v9.8h-1.4V84.1z"/>
	<path class="st0" d="M229.3,84.1h1.4l4.3,7h0v-7h1.4v9.8H235l-4.3-7h0v7h-1.4V84.1z"/>
	<path class="st0" d="M241.8,88.5h3.4v2c0,1-0.3,1.8-1,2.5c-0.6,0.7-1.4,1-2.4,1c-0.7,0-1.4-0.2-1.9-0.6c-0.5-0.3-0.9-0.7-1.1-1.2
		c-0.1-0.1-0.1-0.3-0.2-0.4c-0.1-0.1-0.1-0.3-0.1-0.5c-0.1-0.4-0.1-1.2-0.1-2.3c0-1.1,0-1.9,0.1-2.3c0.1-0.4,0.2-0.7,0.3-0.9
		c0.2-0.5,0.6-0.9,1.1-1.2c0.5-0.4,1.1-0.5,1.9-0.6c0.9,0,1.7,0.3,2.2,0.8c0.6,0.6,0.9,1.2,1.1,2.1h-1.5c-0.1-0.4-0.3-0.7-0.6-1
		c-0.3-0.3-0.7-0.4-1.2-0.4c-0.3,0-0.6,0.1-0.9,0.2c-0.2,0.1-0.4,0.3-0.6,0.5c-0.2,0.2-0.3,0.5-0.4,0.8c-0.1,0.3-0.1,1-0.1,2
		c0,1,0,1.6,0.1,2c0.1,0.3,0.2,0.6,0.4,0.8c0.2,0.2,0.4,0.4,0.6,0.5c0.2,0.1,0.5,0.2,0.9,0.2c0.6,0,1-0.2,1.4-0.6
		c0.4-0.4,0.6-0.9,0.6-1.5v-0.5h-1.9V88.5z"/>
	<path class="st0" d="M250.4,84.1h3.7c0.9,0,1.6,0.3,2.1,0.7c0.5,0.5,0.7,1.1,0.7,1.9c0,0.4-0.1,0.8-0.3,1.2
		c-0.1,0.2-0.2,0.3-0.4,0.5c-0.2,0.2-0.4,0.3-0.7,0.4v0c0.5,0.1,0.9,0.4,1.2,0.8c0.2,0.4,0.4,0.9,0.4,1.4c0,0.8-0.3,1.5-0.8,2
		c-0.5,0.5-1.1,0.8-1.9,0.8h-4V84.1z M251.8,85.4v2.8h2.1c0.5,0,0.9-0.1,1.2-0.4c0.3-0.3,0.4-0.6,0.4-1c0-0.4-0.1-0.7-0.4-1
		c-0.2-0.3-0.6-0.4-1.2-0.4H251.8z M251.8,89.5v2.9h2.2c0.5,0,0.9-0.2,1.2-0.5c0.2-0.3,0.4-0.6,0.4-1c0-0.4-0.1-0.8-0.4-1
		c-0.2-0.3-0.6-0.4-1.2-0.4H251.8z"/>
	<path class="st0" d="M258.8,84.1h1.4v8.4h4.6v1.4h-6.1V84.1z"/>
	<path class="st0" d="M266.1,89c0-1.1,0-1.9,0.1-2.3c0.1-0.4,0.2-0.7,0.3-0.9c0.2-0.5,0.6-0.9,1.1-1.2c0.5-0.4,1.1-0.5,1.9-0.5
		c0.8,0,1.4,0.2,1.9,0.6c0.5,0.4,0.9,0.8,1.1,1.2c0.2,0.2,0.3,0.5,0.3,0.9c0.1,0.4,0.1,1.1,0.1,2.3c0,1.1,0,1.9-0.1,2.3
		c-0.1,0.4-0.2,0.7-0.3,0.9c-0.2,0.5-0.6,0.9-1.1,1.2c-0.5,0.4-1.1,0.5-1.9,0.6c-0.7,0-1.4-0.2-1.9-0.6c-0.5-0.3-0.9-0.7-1.1-1.2
		c-0.1-0.1-0.1-0.3-0.2-0.4c-0.1-0.1-0.1-0.3-0.1-0.5C266.1,90.8,266.1,90.1,266.1,89z M267.5,89c0,1,0,1.6,0.1,2
		c0.1,0.3,0.2,0.6,0.4,0.8c0.2,0.2,0.4,0.4,0.6,0.5c0.2,0.1,0.5,0.2,0.9,0.2c0.3,0,0.6-0.1,0.9-0.2c0.2-0.1,0.4-0.3,0.6-0.5
		c0.2-0.2,0.3-0.5,0.4-0.8c0.1-0.3,0.1-1,0.1-2c0-1,0-1.6-0.1-2c-0.1-0.3-0.2-0.6-0.4-0.8c-0.1-0.2-0.3-0.4-0.6-0.5
		c-0.3-0.1-0.5-0.2-0.9-0.2c-0.3,0-0.6,0.1-0.9,0.2c-0.2,0.1-0.4,0.3-0.6,0.5c-0.2,0.2-0.3,0.5-0.4,0.8
		C267.5,87.4,267.5,88,267.5,89z"/>
	<path class="st0" d="M281.2,91.1c-0.2,0.9-0.6,1.6-1.2,2.1c-0.6,0.5-1.3,0.7-2.1,0.7c-0.7,0-1.4-0.2-1.9-0.6
		c-0.5-0.3-0.9-0.7-1.1-1.2c-0.1-0.1-0.1-0.3-0.2-0.4c-0.1-0.1-0.1-0.3-0.1-0.5c-0.1-0.4-0.1-1.2-0.1-2.3c0-1.1,0-1.9,0.1-2.3
		c0.1-0.4,0.2-0.7,0.3-0.9c0.2-0.5,0.6-0.9,1.1-1.2c0.5-0.4,1.1-0.5,1.9-0.6c0.9,0,1.7,0.3,2.2,0.8c0.6,0.6,0.9,1.2,1.1,2.1h-1.5
		c-0.1-0.4-0.3-0.7-0.6-1c-0.3-0.3-0.7-0.4-1.2-0.4c-0.3,0-0.6,0.1-0.9,0.2c-0.2,0.1-0.4,0.3-0.6,0.5c-0.2,0.2-0.3,0.5-0.4,0.8
		c-0.1,0.3-0.1,1-0.1,2c0,1,0,1.6,0.1,2c0.1,0.3,0.2,0.6,0.4,0.8c0.2,0.2,0.4,0.4,0.6,0.5c0.2,0.1,0.5,0.2,0.9,0.2
		c0.8,0,1.4-0.4,1.8-1.3H281.2z"/>
	<path class="st0" d="M282.4,84.1h1.4v5h0l3.9-5h1.7l-3,3.9l3.4,5.9h-1.7l-2.6-4.8l-1.7,1.8v3h-1.4V84.1z"/>
	<path class="st0" d="M297.5,91.1c-0.2,0.9-0.6,1.6-1.2,2.1c-0.6,0.5-1.3,0.7-2.1,0.7c-0.7,0-1.4-0.2-1.9-0.6
		c-0.5-0.3-0.9-0.7-1.1-1.2c-0.1-0.1-0.1-0.3-0.2-0.4c-0.1-0.1-0.1-0.3-0.1-0.5c-0.1-0.4-0.1-1.2-0.1-2.3c0-1.1,0-1.9,0.1-2.3
		c0.1-0.4,0.2-0.7,0.3-0.9c0.2-0.5,0.6-0.9,1.1-1.2c0.5-0.4,1.1-0.5,1.9-0.6c0.9,0,1.7,0.3,2.2,0.8c0.6,0.6,0.9,1.2,1.1,2.1H296
		c-0.1-0.4-0.3-0.7-0.6-1c-0.3-0.3-0.7-0.4-1.2-0.4c-0.3,0-0.6,0.1-0.9,0.2c-0.2,0.1-0.4,0.3-0.6,0.5c-0.2,0.2-0.3,0.5-0.4,0.8
		c-0.1,0.3-0.1,1-0.1,2c0,1,0,1.6,0.1,2c0.1,0.3,0.2,0.6,0.4,0.8c0.2,0.2,0.4,0.4,0.6,0.5c0.2,0.1,0.5,0.2,0.9,0.2
		c0.8,0,1.4-0.4,1.8-1.3H297.5z"/>
	<path class="st0" d="M303.9,89.6h-3.8v4.3h-1.4v-9.8h1.4v4.2h3.8v-4.2h1.4v9.8h-1.4V89.6z"/>
	<path class="st0" d="M312.5,91.7h-3.6l-0.7,2.2h-1.5l3.4-9.8h1.2l3.4,9.8h-1.5L312.5,91.7z M312.1,90.4l-1.4-4.3h0l-1.4,4.3H312.1z
		"/>
	<path class="st0" d="M316,84.1h1.4v9.8H316V84.1z"/>
	<path class="st0" d="M319.6,84.1h1.4l4.3,7h0v-7h1.4v9.8h-1.4l-4.3-7h0v7h-1.4V84.1z"/>
</g>
<g>
	<g>
		<g>
			<path id="SVGID_1_" class="st0" d="M40.4,2.2L5.8,21.7c-2.9,1.6-5.2,5.6-5.2,8.9l0.1,38.9c0,3.2,2.4,7.2,5.3,8.8L26.7,90
				l44.8-24.4c7.8-4.3,10.6-13.9,6.2-21.6c-2.9-5-8.3-8.1-14.2-8.1c-2.8,0-5.5,0.7-7.9,2L34.7,49.3l0,0l-1.8,1l3.5,6l-15.9-4.1
				l4.6-15.3l3.5,6.1l22.7-12.4c3-1.7,7.1-2.6,7.2-2.6c1.6-0.3,3.3-0.5,5-0.5c9.1,0,17.4,4.8,21.8,12.4c3.3,5.7,4.1,12.2,2.2,18.5
				c-1.8,6.3-6,11.5-11.8,14.6L35.5,94.9l5.1,2.9c2.9,1.6,7.6,1.6,10.5,0l34.6-19.5c2.9-1.6,5.2-5.6,5.2-8.9l-0.1-38.9
				c0-3.2-2.4-7.2-5.3-8.8L64.1,9.6l-44,24.1C12.3,38,9.5,47.6,13.9,55.2c2.9,5,8.3,8.1,14.2,8.1c2.8,0,5.5-0.7,7.9-2l22.9-12.5
				l-3.5-6l15.9,4.1l-4.7,15.4l-3.5-6L40.3,68.7c-0.2,0.1-0.4,0.2-0.6,0.3c-0.1,0.1-3.1,1.5-6.6,2.3c-1.6,0.3-3.1,0.5-5,0.5
				C19,71.8,10.7,67,6.3,59.4C3,53.7,2.2,47.2,4,40.9s6-11.5,11.8-14.6L55.3,4.6l-4.4-2.4C49.5,1.4,47.6,1,45.7,1
				C43.8,1,41.9,1.4,40.4,2.2"/>
		</g>
		<g>
			<g>
				<path id="SVGID_2_" class="st0" d="M40.4,2.2L5.8,21.7c-2.9,1.6-5.2,5.6-5.2,8.9l0.1,38.9c0,3.2,2.4,7.2,5.3,8.8L26.7,90
					l44.8-24.4c7.8-4.3,10.6-13.9,6.2-21.6c-2.9-5-8.3-8.1-14.2-8.1c-2.8,0-5.5,0.7-7.9,2L34.7,49.3l0,0l-1.8,1l3.5,6l-15.9-4.1
					l4.6-15.3l3.5,6.1l22.7-12.4c3-1.7,7.1-2.6,7.2-2.6c1.6-0.3,3.3-0.5,5-0.5c9.1,0,17.4,4.8,21.8,12.4c3.3,5.7,4.1,12.2,2.2,18.5
					c-1.8,6.3-6,11.5-11.8,14.6L35.5,94.9l5.1,2.9c2.9,1.6,7.6,1.6,10.5,0l34.6-19.5c2.9-1.6,5.2-5.6,5.2-8.9l-0.1-38.9
					c0-3.2-2.4-7.2-5.3-8.8L64.1,9.6l-44,24.1C12.3,38,9.5,47.6,13.9,55.2c2.9,5,8.3,8.1,14.2,8.1c2.8,0,5.5-0.7,7.9-2l22.9-12.5
					l-3.5-6l15.9,4.1l-4.7,15.4l-3.5-6L40.3,68.7c-0.2,0.1-0.4,0.2-0.6,0.3c-0.1,0.1-3.1,1.5-6.6,2.3c-1.6,0.3-3.1,0.5-5,0.5
					C19,71.8,10.7,67,6.3,59.4C3,53.7,2.2,47.2,4,40.9s6-11.5,11.8-14.6L55.3,4.6l-4.4-2.4C49.5,1.4,47.6,1,45.7,1
					C43.8,1,41.9,1.4,40.4,2.2"/>
			</g>
			<g>
				<defs>
					<path id="SVGID_3_" d="M40.4,2.2L5.8,21.7c-2.9,1.6-5.2,5.6-5.2,8.9l0.1,38.9c0,3.2,2.4,7.2,5.3,8.8L26.7,90l44.8-24.4
						c7.8-4.3,10.6-13.9,6.2-21.6c-2.9-5-8.3-8.1-14.2-8.1c-2.8,0-5.5,0.7-7.9,2L34.7,49.3l0,0l-1.8,1l3.5,6l-15.9-4.1l4.6-15.3
						l3.5,6.1l22.7-12.4c3-1.7,7.1-2.6,7.2-2.6c1.6-0.3,3.3-0.5,5-0.5c9.1,0,17.4,4.8,21.8,12.4c3.3,5.7,4.1,12.2,2.2,18.5
						c-1.8,6.3-6,11.5-11.8,14.6L35.5,94.9l5.1,2.9c2.9,1.6,7.6,1.6,10.5,0l34.6-19.5c2.9-1.6,5.2-5.6,5.2-8.9l-0.1-38.9
						c0-3.2-2.4-7.2-5.3-8.8L64.1,9.6l-44,24.1C12.3,38,9.5,47.6,13.9,55.2c2.9,5,8.3,8.1,14.2,8.1c2.8,0,5.5-0.7,7.9-2l22.9-12.5
						l-3.5-6l15.9,4.1l-4.7,15.4l-3.5-6L40.3,68.7c-0.2,0.1-0.4,0.2-0.6,0.3c-0.1,0.1-3.1,1.5-6.6,2.3c-1.6,0.3-3.1,0.5-5,0.5
						C19,71.8,10.7,67,6.3,59.4C3,53.7,2.2,47.2,4,40.9s6-11.5,11.8-14.6L55.3,4.6l-4.4-2.4C49.5,1.4,47.6,1,45.7,1
						C43.8,1,41.9,1.4,40.4,2.2"/>
				</defs>
				<clipPath id="SVGID_5_">
					<use xlink:href="#SVGID_3_"  style="overflow:visible;"/>
				</clipPath>
				<rect x="0.6" y="1" class="st2" width="90.4" height="98.4"/>
			</g>
		</g>
		<g>
			<g>
				<path id="SVGID_4_" class="st0" d="M40.4,2.2L5.8,21.7c-2.9,1.6-5.2,5.6-5.2,8.9l0.1,38.9c0,3.2,2.4,7.2,5.3,8.8L26.7,90
					l44.8-24.4c7.8-4.3,10.6-13.9,6.2-21.6c-2.9-5-8.3-8.1-14.2-8.1c-2.8,0-5.5,0.7-7.9,2L34.7,49.3l0,0l-1.8,1l3.5,6l-15.9-4.1
					l4.6-15.3l3.5,6.1l22.7-12.4c3-1.7,7.1-2.6,7.2-2.6c1.6-0.3,3.3-0.5,5-0.5c9.1,0,17.4,4.8,21.8,12.4c3.3,5.7,4.1,12.2,2.2,18.5
					c-1.8,6.3-6,11.5-11.8,14.6L35.5,94.9l5.1,2.9c2.9,1.6,7.6,1.6,10.5,0l34.6-19.5c2.9-1.6,5.2-5.6,5.2-8.9l-0.1-38.9
					c0-3.2-2.4-7.2-5.3-8.8L64.1,9.6l-44,24.1C12.3,38,9.5,47.6,13.9,55.2c2.9,5,8.3,8.1,14.2,8.1c2.8,0,5.5-0.7,7.9-2l22.9-12.5
					l-3.5-6l15.9,4.1l-4.7,15.4l-3.5-6L40.3,68.7c-0.2,0.1-0.4,0.2-0.6,0.3c-0.1,0.1-3.1,1.5-6.6,2.3c-1.6,0.3-3.1,0.5-5,0.5
					C19,71.8,10.7,67,6.3,59.4C3,53.7,2.2,47.2,4,40.9s6-11.5,11.8-14.6L55.3,4.6l-4.4-2.4C49.5,1.4,47.6,1,45.7,1
					C43.8,1,41.9,1.4,40.4,2.2"/>
			</g>
		</g>
		<g>
			<g>
				<path id="SVGID_6_" class="st0" d="M40.4,2.2L5.8,21.7c-2.9,1.6-5.2,5.6-5.2,8.9l0.1,38.9c0,3.2,2.4,7.2,5.3,8.8L26.7,90
					l44.8-24.4c7.8-4.3,10.6-13.9,6.2-21.6c-2.9-5-8.3-8.1-14.2-8.1c-2.8,0-5.5,0.7-7.9,2L34.7,49.3l0,0l-1.8,1l3.5,6l-15.9-4.1
					l4.6-15.3l3.5,6.1l22.7-12.4c3-1.7,7.1-2.6,7.2-2.6c1.6-0.3,3.3-0.5,5-0.5c9.1,0,17.4,4.8,21.8,12.4c3.3,5.7,4.1,12.2,2.2,18.5
					c-1.8,6.3-6,11.5-11.8,14.6L35.5,94.9l5.1,2.9c2.9,1.6,7.6,1.6,10.5,0l34.6-19.5c2.9-1.6,5.2-5.6,5.2-8.9l-0.1-38.9
					c0-3.2-2.4-7.2-5.3-8.8L64.1,9.6l-44,24.1C12.3,38,9.5,47.6,13.9,55.2c2.9,5,8.3,8.1,14.2,8.1c2.8,0,5.5-0.7,7.9-2l22.9-12.5
					l-3.5-6l15.9,4.1l-4.7,15.4l-3.5-6L40.3,68.7c-0.2,0.1-0.4,0.2-0.6,0.3c-0.1,0.1-3.1,1.5-6.6,2.3c-1.6,0.3-3.1,0.5-5,0.5
					C19,71.8,10.7,67,6.3,59.4C3,53.7,2.2,47.2,4,40.9s6-11.5,11.8-14.6L55.3,4.6l-4.4-2.4C49.5,1.4,47.6,1,45.7,1
					C43.8,1,41.9,1.4,40.4,2.2"/>
			</g>
		</g>
	</g>
</g>
</svg>
