<svg xmlns="http://www.w3.org/2000/svg" viewBox="0 0 2000 1710.84" width="2000" height="2000"><path fill="#f00" d="m722.89 592.77l433.74-433.73-159.04-159.04-592.77 592.77 592.77 592.77 592.77-592.77-293.97-293.97-159.04 159.03 134.94 134.94-274.7 274.7-274.7-274.7"/><g fill="#03b2c6"><path d="m1002.41 1392.77l-433.74-433.73-159.03 159.03 433.73 433.74 159.04 159.03 159.04-159.03 433.73-433.74-159.04-159.03-433.73 433.73"/><path transform="matrix(.70711-.70711.70711.70711-238.66 1424.07)" d="m1656.22 855.43h224.91v429.38h-224.91z"/><path transform="matrix(-.70711-.70711.70711-.70711-358.38 1842.15)" d="m118.87 850.61h224.91v429.38h-224.91z"/></g></svg>