<svg width="128" height="128" viewBox="0 0 128 128" fill="none" xmlns="http://www.w3.org/2000/svg">
<path d="M64.1932 120.126C95.3104 120.126 120.536 94.9 120.536 63.7828C120.536 32.6655 95.3104 7.43996 64.1932 7.43996C33.0759 7.43996 7.85034 32.6655 7.85034 63.7828C7.85034 94.9 33.0759 120.126 64.1932 120.126Z" fill="white"/>
<path d="M29.5596 47.7768L36.9451 69.0444L43.9304 47.7768H54.5696V78.9212H46.7776V60.0564L39.881 78.9212H33.3859L26.4893 60.0564V78.9212H18.7036V47.7768H29.5596Z" fill="#56BEB7"/>
<path d="M57.8324 73.6268C56.8092 71.8476 56.2972 69.786 56.2972 67.442C56.2972 65.098 56.8092 63.0368 57.8324 61.2584C58.8468 59.4864 60.3628 58.054 62.1896 57.142C64.0732 56.1788 66.2756 55.6968 68.796 55.6968C71.3164 55.6968 73.5188 56.1788 75.4024 57.142C77.2308 58.0532 78.7484 59.4856 79.7636 61.2584C80.7868 63.0384 81.2984 65.0996 81.2984 67.442C81.2984 69.7844 80.788 71.846 79.7672 73.6268C78.7516 75.3988 77.2344 76.8308 75.4064 77.742C73.5192 78.7052 71.3168 79.1876 68.8 79.1884C66.2828 79.1892 64.0792 78.7072 62.1896 77.742C60.3632 76.83 58.8472 75.3984 57.8324 73.6268ZM73.4712 67.442C73.4712 65.7532 73.056 64.3964 72.226 63.3712C71.396 62.346 70.256 61.8344 68.806 61.836C67.3528 61.836 66.2108 62.3476 65.38 63.3712C64.5492 64.3944 64.134 65.7516 64.1348 67.442C64.1348 69.1308 64.55 70.4876 65.38 71.5128C66.21 72.538 67.352 73.0496 68.806 73.048C70.2604 73.048 71.4 72.5364 72.226 71.5128C73.0516 70.4896 73.4668 69.1324 73.4712 67.442Z" fill="#56BEB7"/>
<path d="M89.8656 49.4676C92.1936 48.1624 94.9448 47.5096 98.1188 47.5096C100.641 47.5096 102.895 48.014 104.881 49.0232C106.811 49.9804 108.453 51.4308 109.642 53.2272C110.828 55.0212 111.511 57.0752 111.689 59.3888H103.502C103.205 57.8464 102.546 56.608 101.522 55.674C100.499 54.74 99.216 54.2732 97.674 54.2732C95.5676 54.2732 93.9284 55.1036 92.7572 56.7644C91.586 58.4256 91.0004 60.6208 91.0004 63.3508C91.0004 66.0808 91.586 68.276 92.7572 69.9372C93.9284 71.598 95.5676 72.4284 97.674 72.4284C99.216 72.4284 100.499 71.9616 101.522 71.0276C102.546 70.0936 103.205 68.8556 103.502 67.3128H111.689C111.51 69.6256 110.828 71.6796 109.642 73.4748C108.453 75.2712 106.811 76.7212 104.881 77.6784C102.894 78.6916 100.64 79.1984 98.1188 79.1984C94.9448 79.1984 92.1936 78.5456 89.8656 77.2404C87.5724 75.9716 85.7068 74.0516 84.5044 71.7228C83.258 69.3504 82.6352 66.5636 82.636 63.3636C82.6368 60.1632 83.2596 57.3768 84.5044 55.004C85.7036 52.6684 87.5696 50.7416 89.8656 49.4676Z" fill="#56BEB7"/>
<path d="M64.0008 8.51156C76.8032 8.51896 89.2092 12.9518 99.1176 21.059C109.026 29.1663 115.827 40.4496 118.368 52.9972C120.91 65.5448 119.036 78.5848 113.063 89.9088C107.091 101.233 97.3876 110.144 85.5972 115.133C72.0528 120.773 56.826 120.82 43.2464 115.265C29.6668 109.71 18.839 99.0044 13.1304 85.4888C7.42192 71.9728 7.29704 56.7468 12.7832 43.1388C18.2692 29.5314 28.92 18.6494 42.4068 12.8724C49.238 9.98136 56.5828 8.49812 64.0008 8.51156ZM64.0008 0.671387C29.0239 0.671387 0.671387 29.0239 0.671387 64.0008C0.671387 98.9776 29.0239 127.33 64.0008 127.33C98.9776 127.33 127.33 98.9764 127.33 64.0008C127.33 29.0252 98.9764 0.671387 64.0008 0.671387Z" fill="#56BEB7"/>
</svg>
