<svg width="198" height="28" xmlns="http://www.w3.org/2000/svg" xmlns:xlink="http://www.w3.org/1999/xlink"><defs><path id="a" d="M.242.3h13.185v20.495H.242z"/></defs><g fill="none" fill-rule="evenodd"><path d="M19.221 7.401L31.226.471a.71.71 0 0 1 1.066.614V18.05a.775.775 0 0 1-.388.671l-3.608 2.083a.41.41 0 0 1-.617-.356V9.359a.361.361 0 0 0-.542-.314l-7.91 4.567a.777.777 0 0 0-.387.672v11.534a.774.774 0 0 1-.388.67l-1.919 1.109a.775.775 0 0 1-.774 0l-1.92-1.108a.775.775 0 0 1-.387-.671V14.284a.776.776 0 0 0-.388-.672l-7.91-4.567a.361.361 0 0 0-.54.313V20.45a.412.412 0 0 1-.618.356L.387 18.722a.775.775 0 0 1-.387-.67V1.084A.71.71 0 0 1 1.065.47L13.07 7.401l3.076 1.775 3.075-1.775z" fill="#FE5A60"/><path d="M129.838 9.717v-.161a1.5 1.5 0 0 0-1.5-1.5h-4.607a1.5 1.5 0 0 0-1.5 1.5v3.087l7.607-2.926zm-7.607 5.856v.746a1.499 1.499 0 0 0 1.5 1.5h4.608a1.5 1.5 0 0 0 1.06-.44c.281-.28.44-.629.44-.928v-.086a.5.5 0 0 1 .5-.5h2.042a.501.501 0 0 1 .5.5v.369c0 2.27-1.84 4.109-4.109 4.109h-5.475a4.108 4.108 0 0 1-4.108-4.11V9.14c0-2.269 1.839-4.108 4.108-4.108h5.475c2.27 0 4.109 1.84 4.109 4.108v1.189c0 .855-.537 1.618-1.342 1.906l-9.308 3.338zM178.027 5.514c0-.266.216-.482.482-.482h2.079c.266 0 .482.216.482.482V20.36a.482.482 0 0 1-.482.481h-2.079a.482.482 0 0 1-.482-.481V5.514zM85.718 9.555a1.497 1.497 0 0 0-1.5-1.499h-4.607a1.498 1.498 0 0 0-1.5 1.5v6.763a1.5 1.5 0 0 0 1.5 1.5h4.608a1.5 1.5 0 0 0 1.499-1.5V9.555zm3.043-.415c0-2.269-1.84-4.108-4.109-4.108h-5.475a4.108 4.108 0 0 0-4.109 4.108v7.594c0 2.27 1.84 4.109 4.109 4.109h5.475c2.27 0 4.109-1.84 4.109-4.109V9.14zM95.872 5.032h2.548a.493.493 0 0 1 .495.494v2.077a.495.495 0 0 1-.495.494h-2.548v8.222a1.5 1.5 0 0 0 1.5 1.5h1.048a.496.496 0 0 1 .495.494v2.035a.494.494 0 0 1-.495.495h-1.482a4.108 4.108 0 0 1-4.109-4.109V8.097h-1.534a.495.495 0 0 1-.495-.494V5.526a.494.494 0 0 1 .495-.494h1.534V3.184c0-.273.222-.494.495-.494h2.053c.274 0 .495.221.495.494v1.848zM151.656 5.032h-1.602a4.484 4.484 0 0 0-4.484 4.483v.516a3.527 3.527 0 0 0 2.502 3.374l6.136 1.864c.591.18.992.729.982 1.346a1.257 1.257 0 0 1-1.257 1.238h-3.864a1.464 1.464 0 0 1-1.464-1.49.489.489 0 0 0-.49-.498h-2.046a.498.498 0 0 0-.499.498v.439a4.041 4.041 0 0 0 4.041 4.04h4.154a4.484 4.484 0 0 0 4.484-4.483v-.515a3.527 3.527 0 0 0-2.501-3.374l-6.538-1.987a.841.841 0 0 1-.596-.804v-.001c0-.857.694-1.551 1.551-1.551h3.735c.721 0 1.306.584 1.306 1.306 0 .157.127.284.284.284h2.26a.499.499 0 0 0 .499-.499v-.146a4.041 4.041 0 0 0-4.04-4.04h-2.553zM164.335 8.084v12.298a.482.482 0 0 1-.483.481h-2.078a.48.48 0 0 1-.482-.481V.85a.481.481 0 0 1 .482-.481h2.078c.267 0 .483.215.483.482V5.06h6.034a4.109 4.109 0 0 1 4.097 3.806h.01v11.233c0 .286-.23.52-.516.522l-1.999.02a.524.524 0 0 1-.527-.522V9.583a1.502 1.502 0 0 0-1.5-1.5h-5.6z" fill="#FFF"/><g transform="translate(102.421 .069)"><mask id="b" fill="#fff"><use xlink:href="#a"/></mask><path d="M3.285 8.008v12.305a.482.482 0 0 1-.483.482H.724a.482.482 0 0 1-.482-.482V.782A.481.481 0 0 1 .724.299h2.078c.267 0 .483.216.483.483v4.202h6.034a4.108 4.108 0 0 1 4.097 3.806h.011v11.24c0 .286-.23.52-.517.522l-1.998.02a.525.525 0 0 1-.527-.522V9.507a1.5 1.5 0 0 0-1.5-1.499h-5.6z" fill="#FFF" mask="url(#b)"/></g><path d="M50.645 20.864h-2.042a.5.5 0 0 1-.5-.501V5.543a.512.512 0 0 1 .51-.511h2.022a.508.508 0 0 1 .51.51v2.146s.227-2.635 3.043-2.635h2.992c.752 0 1.457.202 2.064.555.169.113.55.404.691.812.348-.722 1.392-1.369 2.644-1.388h4.743c2.27 0 4.109 1.84 4.109 4.108v11.18a.522.522 0 0 1-.522.523h-2a.523.523 0 0 1-.521-.522V9.555a1.498 1.498 0 0 0-1.5-1.499h-4.1a1.497 1.497 0 0 0-1.5 1.5v10.786a.523.523 0 0 1-.522.522H59.258l-.502-.01a.522.522 0 0 1-.51-.522V9.576a1.499 1.499 0 0 0-1.5-1.499H53.81c-1.488 0-2.653 1.22-2.664 2.447v9.839a.5.5 0 0 1-.5.5M136.139 12.73a4.488 4.488 0 0 1-.006-.229v-6.94a.509.509 0 0 1 .511-.51h2.022a.51.51 0 0 1 .51.51v2.126s.204-2.365 2.62-2.614h1.666a.55.55 0 0 1 .55.55l.001 1.884a.55.55 0 0 1-.536.55l-1.636.04c-1.489 0-2.654 1.22-2.665 2.446l.005.805v8.983a.511.511 0 0 1-.51.51h-2.022a.509.509 0 0 1-.51-.51v-4.235h-.006l.006-.042V12.73zM191.832 8.056l-1.505.036c-1.442 0-2.58 1.145-2.66 2.332V17.819h5.595a1.5 1.5 0 0 0 1.5-1.5V9.555a1.5 1.5 0 0 0-1.5-1.499h-1.43zm-4.165-2.537v2.169s.227-2.635 3.043-2.635v-.021h2.987c2.269 0 4.108 1.84 4.108 4.108v7.594a4.108 4.108 0 0 1-4.108 4.109h-6.03v4.174a.51.51 0 0 1-.51.51h-2.021a.511.511 0 0 1-.511-.51v-4.174h-.005l.005-.042v-8.093a4.296 4.296 0 0 1-.005-.212V5.557c0-.052.008-.103.023-.152a.51.51 0 0 1 .493-.373h2.02a.51.51 0 0 1 .511.487z" fill="#FFF"/></g></svg>