<?xml version="1.0" encoding="utf-8"?>
<!-- Generator: Adobe Illustrator 17.0.0, SVG Export Plug-In . SVG Version: 6.00 Build 0)  -->
<!DOCTYPE svg PUBLIC "-//W3C//DTD SVG 1.1//EN" "http://www.w3.org/Graphics/SVG/1.1/DTD/svg11.dtd">
<svg version="1.1" id="Layer_1" xmlns="http://www.w3.org/2000/svg" xmlns:xlink="http://www.w3.org/1999/xlink" x="0px" y="0px"
	 width="1736px" height="280px" viewBox="0 0 1736 280" enable-background="new 0 0 1736 280" xml:space="preserve">
<path fill="#FFFFFF" d="M184.487,55.008l-22.71-13.04c-2.28-1.309-5.978-1.309-8.258,0l-22.71,13.04c-2.28,1.31-2.28,3.433,0,4.742
	l22.71,13.04c2.281,1.309,5.978,1.309,8.258,0l22.71-13.04C186.767,58.441,186.767,56.318,184.487,55.008z"/>
<g>
	<path fill="#FFFFFF" d="M186.989,64.352L164.34,77.499c-2.274,1.32-4.123,4.522-4.129,7.152l-0.062,26.188
		c-0.006,2.629,1.833,3.691,4.107,2.371l22.648-13.147c2.274-1.32,4.123-4.522,4.129-7.152l0.062-26.187
		C191.102,64.093,189.263,63.031,186.989,64.352z"/>
	<path fill="#FFFFFF" d="M150.955,77.437L128.307,64.29c-2.274-1.32-4.113-0.259-4.107,2.371l0.062,26.188
		c0.006,2.63,1.855,5.832,4.129,7.152l22.648,13.147c2.274,1.32,4.113,0.259,4.107-2.371l-0.062-26.188
		C155.078,81.959,153.229,78.757,150.955,77.437z"/>
</g>
<path fill="#FFFFFF" d="M148.537,118.872l-22.71-13.04c-2.28-1.309-5.978-1.309-8.258,0l-22.71,13.04c-2.28,1.31-2.28,3.433,0,4.742
	l22.71,13.04c2.281,1.309,5.978,1.309,8.258,0l22.71-13.04C150.818,122.305,150.818,120.182,148.537,118.872z"/>
<g>
	<path fill="#FFFFFF" d="M151.039,128.215l-22.648,13.147c-2.274,1.32-4.123,4.522-4.129,7.152l-0.062,26.188
		c-0.006,2.629,1.833,3.691,4.107,2.371l22.648-13.147c2.274-1.32,4.123-4.522,4.129-7.152l0.062-26.187
		C155.152,127.956,153.313,126.895,151.039,128.215z"/>
	<path fill="#FFFFFF" d="M115.006,141.3l-22.648-13.147c-2.274-1.32-4.113-0.259-4.107,2.371l0.062,26.188
		c0.006,2.63,1.855,5.832,4.129,7.152l22.648,13.147c2.274,1.32,4.113,0.259,4.107-2.371l-0.062-26.188
		C119.128,145.822,117.28,142.621,115.006,141.3z"/>
</g>
<path fill="#FFFFFF" d="M111.193,182.736l-22.71-13.04c-2.28-1.309-5.978-1.309-8.258,0l-22.71,13.04c-2.28,1.31-2.28,3.433,0,4.742
	l22.71,13.04c2.281,1.309,5.978,1.309,8.258,0l22.71-13.04C113.473,186.168,113.473,184.045,111.193,182.736z"/>
<g>
	<path fill="#FFFFFF" d="M113.695,192.079l-22.648,13.147c-2.274,1.32-4.123,4.522-4.129,7.152l-0.062,26.188
		c-0.006,2.629,1.833,3.691,4.107,2.371l22.648-13.147c2.274-1.32,4.123-4.522,4.129-7.152l0.062-26.187
		C117.808,191.82,115.969,190.759,113.695,192.079z"/>
	<path fill="#FFFFFF" d="M77.661,205.164l-22.648-13.147c-2.274-1.32-4.113-0.259-4.107,2.371l0.062,26.188
		c0.006,2.63,1.855,5.832,4.129,7.152l22.648,13.147c2.274,1.32,4.113,0.259,4.107-2.371l-0.062-26.188
		C81.784,209.686,79.935,206.484,77.661,205.164z"/>
</g>
<path fill="#FFFFFF" d="M400.723,182.736l-22.71-13.04c-2.28-1.309-5.978-1.309-8.258,0l-22.71,13.04c-2.28,1.31-2.28,3.433,0,4.742
	l22.71,13.04c2.281,1.309,5.978,1.309,8.258,0l22.71-13.04C403.004,186.168,403.004,184.045,400.723,182.736z"/>
<g>
	<path fill="#FFFFFF" d="M403.225,192.079l-22.648,13.147c-2.274,1.32-4.123,4.522-4.129,7.152l-0.062,26.188
		c-0.006,2.629,1.833,3.691,4.107,2.371l22.648-13.147c2.274-1.32,4.123-4.522,4.129-7.152l0.062-26.187
		C407.338,191.82,405.499,190.759,403.225,192.079z"/>
	<path fill="#FFFFFF" d="M367.192,205.164l-22.648-13.147c-2.274-1.32-4.113-0.259-4.107,2.371l0.062,26.188
		c0.006,2.63,1.855,5.832,4.129,7.152l22.648,13.147c2.274,1.32,4.113,0.259,4.107-2.371l-0.062-26.188
		C371.315,209.686,369.466,206.484,367.192,205.164z"/>
</g>
<path fill="#FFFFFF" d="M256.386,182.736l-22.71-13.04c-2.28-1.309-5.978-1.309-8.258,0l-22.71,13.04c-2.28,1.31-2.28,3.433,0,4.742
	l22.71,13.04c2.281,1.309,5.978,1.309,8.258,0l22.71-13.04C258.666,186.168,258.666,184.045,256.386,182.736z"/>
<g>
	<path fill="#FFFFFF" d="M258.888,192.079l-22.648,13.147c-2.274,1.32-4.123,4.522-4.129,7.152l-0.062,26.188
		c-0.006,2.629,1.833,3.691,4.107,2.371l22.648-13.147c2.274-1.32,4.123-4.522,4.129-7.152l0.062-26.187
		C263.001,191.82,261.162,190.759,258.888,192.079z"/>
	<path fill="#FFFFFF" d="M222.854,205.164l-22.648-13.147c-2.274-1.32-4.113-0.259-4.107,2.371l0.062,26.188
		c0.006,2.63,1.855,5.832,4.129,7.152l22.648,13.147c2.274,1.32,4.113,0.259,4.107-2.371l-0.062-26.188
		C226.977,209.686,225.128,206.484,222.854,205.164z"/>
</g>
<path fill="#FFFFFF" d="M220.436,118.872l-22.71-13.04c-2.28-1.309-5.978-1.309-8.258,0l-22.71,13.04c-2.28,1.31-2.28,3.433,0,4.742
	l22.71,13.04c2.281,1.309,5.978,1.309,8.258,0l22.71-13.04C222.717,122.305,222.717,120.182,220.436,118.872z"/>
<g>
	<path fill="#FFFFFF" d="M222.938,128.215l-22.648,13.147c-2.274,1.32-4.123,4.522-4.129,7.152l-0.062,26.188
		c-0.006,2.629,1.833,3.691,4.107,2.371l22.648-13.147c2.274-1.32,4.123-4.522,4.129-7.152l0.062-26.187
		C227.051,127.956,225.212,126.895,222.938,128.215z"/>
	<path fill="#FFFFFF" d="M186.905,141.3l-22.648-13.147c-2.274-1.32-4.113-0.259-4.107,2.371l0.062,26.188
		c0.006,2.63,1.855,5.832,4.129,7.152l22.648,13.147c2.274,1.32,4.113,0.259,4.107-2.371l-0.062-26.188
		C191.027,145.822,189.179,142.621,186.905,141.3z"/>
</g>
<path fill="#FFFFFF" d="M328.824,55.008l-22.71-13.04c-2.28-1.309-5.978-1.309-8.258,0l-22.71,13.04c-2.28,1.31-2.28,3.433,0,4.742
	l22.71,13.04c2.281,1.309,5.978,1.309,8.258,0l22.71-13.04C331.105,58.441,331.105,56.318,328.824,55.008z"/>
<g>
	<path fill="#FFFFFF" d="M331.326,64.352l-22.648,13.147c-2.274,1.32-4.123,4.522-4.129,7.152l-0.062,26.188
		c-0.006,2.629,1.833,3.691,4.107,2.371l22.648-13.147c2.274-1.32,4.123-4.522,4.129-7.152l0.062-26.187
		C335.439,64.093,333.6,63.031,331.326,64.352z"/>
	<path fill="#FFFFFF" d="M295.293,77.437L272.644,64.29c-2.274-1.32-4.113-0.259-4.107,2.371l0.062,26.188
		c0.006,2.63,1.855,5.832,4.129,7.152l22.648,13.147c2.274,1.32,4.113,0.259,4.107-2.371l-0.062-26.188
		C299.415,81.959,297.567,78.757,295.293,77.437z"/>
</g>
<path fill="#FFFFFF" d="M292.875,118.872l-22.71-13.04c-2.28-1.309-5.978-1.309-8.258,0l-22.71,13.04c-2.28,1.31-2.28,3.433,0,4.742
	l22.71,13.04c2.281,1.309,5.978,1.309,8.258,0l22.71-13.04C295.155,122.305,295.155,120.182,292.875,118.872z"/>
<g>
	<path fill="#FFFFFF" d="M295.377,128.215l-22.648,13.147c-2.274,1.32-4.123,4.522-4.129,7.152l-0.062,26.188
		c-0.006,2.629,1.833,3.691,4.107,2.371l22.648-13.147c2.274-1.32,4.123-4.522,4.129-7.152l0.062-26.187
		C299.49,127.956,297.651,126.895,295.377,128.215z"/>
	<path fill="#FFFFFF" d="M259.343,141.3l-22.648-13.147c-2.274-1.32-4.113-0.259-4.107,2.371l0.062,26.188
		c0.006,2.63,1.855,5.832,4.129,7.152l22.648,13.147c2.274,1.32,4.113,0.259,4.107-2.371l-0.062-26.188
		C263.466,145.822,261.617,142.621,259.343,141.3z"/>
</g>
<path fill="#FFFFFF" d="M364.774,118.872l-22.71-13.04c-2.28-1.309-5.978-1.309-8.258,0l-22.71,13.04c-2.28,1.31-2.28,3.433,0,4.742
	l22.71,13.04c2.281,1.309,5.978,1.309,8.258,0l22.71-13.04C367.054,122.305,367.054,120.182,364.774,118.872z"/>
<g>
	<path fill="#FFFFFF" d="M367.276,128.215l-22.648,13.147c-2.274,1.32-4.123,4.522-4.129,7.152l-0.062,26.188
		c-0.006,2.629,1.833,3.691,4.107,2.371l22.648-13.147c2.274-1.32,4.123-4.522,4.129-7.152l0.062-26.187
		C371.389,127.956,369.55,126.895,367.276,128.215z"/>
	<path fill="#FFFFFF" d="M331.242,141.3l-22.648-13.147c-2.274-1.32-4.113-0.259-4.107,2.371l0.062,26.188
		c0.006,2.63,1.855,5.832,4.129,7.152l22.648,13.147c2.274,1.32,4.113,0.259,4.107-2.371l-0.062-26.188
		C335.365,145.822,333.516,142.621,331.242,141.3z"/>
</g>
<path fill="#FFFFFF" d="M559.727,189.647V85.118l0.729-0.136c0.749-0.141,1.477-0.212,2.162-0.212c4.748,0,7.314,3.283,9.948,7.247
	c9.29,13.988,18.925,28.088,28.241,41.725c3.264,4.777,6.527,9.552,9.783,14.334c0.334,0.491,0.693,0.964,1.101,1.502l4.119-6.084
	c3.378-4.989,6.71-9.91,10.039-14.834c2.364-3.498,4.74-6.988,7.116-10.479c6.308-9.266,12.832-18.848,19.013-28.417
	c2.088-3.232,4.36-4.674,7.366-4.674c0.943,0,1.949,0.142,3.077,0.437l0.669,0.175v103.732h-15.118v-67.402
	c-0.4,0.546-0.798,1.093-1.179,1.652l-31.093,45.642c-0.91,1.336-2.333,3.112-4.172,3.113c-1.851,0-3.296-1.806-4.223-3.166
	c0,0-23.89-35.044-31.292-45.895c-0.222-0.325-0.45-0.646-0.714-1.008v67.277H559.727z"/>
<polygon fill="#FFFFFF" points="1546.261,189.733 1546.261,144.045 1499.197,144.045 1499.197,189.467 1483.368,189.467 
	1483.368,85.445 1498.909,85.445 1498.909,128.468 1546.072,128.468 1546.072,85.052 1562.091,85.052 1562.091,189.733 "/>
<path fill="#FFFFFF" d="M1386.847,191.079c-2.236-0.284-4.515-0.803-6.724-1.459c-10.792-3.205-18.77-9.887-23.714-19.858
	l-0.315-0.636l11.448-9.448l1.282,2.066c0.483,0.783,0.945,1.533,1.424,2.271c5.079,7.796,13.203,12.451,21.734,12.451
	c2.669,0,5.313-0.456,7.856-1.353c5.586-1.971,8.913-5.623,9.89-10.858c1.038-5.558-0.959-10.123-5.774-13.202
	c-2.775-1.775-5.804-3.297-8.734-4.768c-1.941-0.974-3.948-1.982-5.88-3.062c-1.544-0.863-3.157-1.703-4.718-2.516
	c-4.293-2.235-8.732-4.547-12.44-7.674c-8.017-6.763-11.725-16.578-9.918-26.255c1.846-9.883,9.028-17.875,19.21-21.379
	c3.886-1.338,7.995-2.015,12.211-2.015c12.385,0,23.778,5.855,30.95,13.628l0.395,0.587l-9.649,11.167c0,0-3.606-4.513-10.481-7.95
	c-3.979-1.99-8.079-2.606-10.816-2.606c-2.773,0-5.566,0.652-8.301,1.938c-3.774,1.774-6.367,5.037-7.114,8.952
	c-0.726,3.807,0.434,7.668,3.184,10.594c1.749,1.86,4.185,3.627,7.24,5.252c3.348,1.78,6.82,3.481,10.177,5.126
	c3.534,1.73,7.189,3.521,10.721,5.414c9.091,4.873,14.409,11.21,16.258,19.377c3.218,14.227-4.516,28.301-18.389,33.465
	c-3.049,1.135-6.026,2.103-9.2,2.548C1393.958,191.533,1389.116,191.368,1386.847,191.079z"/>
<path fill="#FFFFFF" d="M1075.501,189.46V85.815l0.687-0.163c1.799-0.427,3.138-0.691,4.257-0.691c2.565,0,3.773,1.362,5.74,4.254
	l9.972,14.665c9.971,14.665,19.943,29.329,29.918,43.991c0.384,0.565,0.795,1.111,1.252,1.722l20.478-30.29
	c1.887-2.792,3.791-5.574,5.695-8.355c4.721-6.897,9.603-14.029,14.131-21.206c2.032-3.221,4.29-4.658,7.325-4.658
	c0.951,0,1.97,0.144,3.115,0.439l0.671,0.174v103.739h-15.245v-67.253c-0.358,0.489-0.712,0.979-1.054,1.479l-31.079,45.629
	c-1.499,2.2-2.797,3.182-4.208,3.182h-0.001c-1.406,0-2.698-0.974-4.188-3.16c0,0-31.917-46.811-31.964-46.88v67.027H1075.501z"/>
<polygon fill="#FFFFFF" points="1239.735,189.435 1239.735,85.354 1305.027,85.354 1305.027,100.168 1255.437,100.168 
	1255.437,129.133 1301.307,129.133 1301.307,143.979 1255.48,143.979 1255.48,174.573 1305.005,174.573 1305.005,189.435 "/>
<path fill="#FFFFFF" d="M883.875,191.178c-3.816,0-7.671-0.378-11.457-1.123c-24.579-4.839-41.605-25.017-42.369-50.209
	c-0.781-25.798,14.664-47.593,38.435-54.233c4.938-1.379,10.136-2.079,15.449-2.079c19.195,0,37.293,9.224,45.034,22.953
	l0.365,0.647l-11.297,9.473l-0.57-0.733c-8.618-11.092-20.366-17.201-33.078-17.201c-9.532,0-18.789,3.459-25.395,9.49
	c-15.997,14.605-17.314,40.361-2.874,56.244c6.585,7.243,17.141,11.568,28.24,11.568c13.087,0,25.082-5.967,33.776-16.803
	l0.575-0.717l10.803,9.166l-0.398,0.653C922.164,179.675,905.481,191.178,883.875,191.178z"/>
<polygon fill="#FFFFFF" points="743.393,189.411 743.393,100.53 713.113,100.53 713.113,85.408 789.263,85.408 789.263,100.263 
	759.186,100.263 759.186,189.411 "/>
<circle fill="#FFFFFF" cx="1001.765" cy="137.208" r="11.169"/>
</svg>
