<svg xmlns="http://www.w3.org/2000/svg" xmlns:xlink="http://www.w3.org/1999/xlink" width="72" height="35" viewBox="0 0 72 35">
    <defs>
        <path id="a" d="M.01.076h23.22v23.153H.01z"/>
        <path id="c" d="M0 .076h23.22v23.153H0z"/>
        <path id="e" d="M.02.076h21.44v23.153H.02z"/>
    </defs>
    <g fill="none" fill-rule="evenodd">
        <g transform="translate(25.25 11.714)">
            <mask id="b" fill="#fff">
                <use xlink:href="#a"/>
            </mask>
            <path fill="#1976D2" d="M11.62 4.765c-3.809 0-6.907 3.09-6.907 6.888 0 3.797 3.098 6.887 6.907 6.887s6.907-3.09 6.907-6.887c0-3.798-3.098-6.888-6.907-6.888m0 18.464C5.218 23.23.01 18.036.01 11.653.01 5.269 5.218.076 11.62.076c6.402 0 11.61 5.193 11.61 11.577 0 6.383-5.208 11.576-11.61 11.576" mask="url(#b)"/>
        </g>
        <path fill="#1976D2" d="M23.174 24.064a4.65 4.65 0 0 1-4.656-4.642V3.466C18.518 1.552 20.576 0 23.174 0h.046l-.046 24.064z"/>
        <g transform="translate(0 11.714)">
            <mask id="d" fill="#fff">
                <use xlink:href="#c"/>
            </mask>
            <path fill="#004BA0" d="M11.61 4.765c-3.809 0-6.907 3.09-6.907 6.888 0 3.797 3.098 6.887 6.907 6.887s6.908-3.09 6.908-6.887c0-3.798-3.1-6.888-6.908-6.888m0 18.464C5.208 23.23 0 18.036 0 11.653 0 5.269 5.208.076 11.61.076c6.402 0 11.61 5.193 11.61 11.577 0 6.383-5.208 11.576-11.61 11.576" mask="url(#d)"/>
        </g>
        <g transform="translate(50.502 11.714)">
            <mask id="f" fill="#fff">
                <use xlink:href="#e"/>
            </mask>
            <path fill="#63A4FF" d="M15.789 17.146a6.899 6.899 0 0 1-5.09 1.333c-3.11-.408-5.585-2.932-5.933-6.04-.464-4.148 2.795-7.674 6.863-7.674 1.66 0 3.185.588 4.377 1.564.889.729 2.14.829 3.17.316l2.285-1.14C19.26 2.02 15.253-.22 10.758.108 5.062.525.463 5.115.05 10.794c-.493 6.77 4.892 12.435 11.578 12.435 3.985 0 7.506-2.012 9.598-5.07l-2.313-1.242a2.908 2.908 0 0 0-3.125.23" mask="url(#f)"/>
        </g>
        <path fill="#1976D2" d="M69.986 2.909c-.689 0-1.299.274-1.674.752l-.154.196-.135-.21c-.308-.476-.842-.738-1.506-.738-.6 0-1.113.21-1.446.591l-.311.357v-.874H63.72v4.663h1.104V5.305c0-.934.48-1.491 1.28-1.491.364 0 .647.118.842.351.192.23.29.57.29 1.01v2.47h1.104v-2.34c0-.934.482-1.491 1.29-1.491.719 0 1.131.496 1.131 1.36v1.402c0 .59.48 1.07 1.073 1.07h.031V4.95c0-1.317-.668-2.042-1.88-2.042M60.159 3.726c-.858 0-1.555.696-1.555 1.551a1.555 1.555 0 0 0 3.11 0c0-.855-.698-1.55-1.555-1.55m0 4.157a2.613 2.613 0 0 1-2.614-2.607 2.613 2.613 0 0 1 2.614-2.606 2.613 2.613 0 0 1 2.614 2.606 2.613 2.613 0 0 1-2.614 2.607M55.373 6.514a1.553 1.553 0 0 1-2.481-1.06 1.554 1.554 0 0 1 2.53-1.375c.2.164.482.186.714.07l.514-.256a2.615 2.615 0 0 0-4.82 1.19 2.612 2.612 0 0 0 4.768 1.659l-.521-.28a.655.655 0 0 0-.704.052M50.838 7.326a.536.536 0 1 1-1.071-.001.536.536 0 0 1 1.071.001"/>
    </g>
</svg>
