<svg width="176" height="30" viewBox="0 0 176 30" fill="none" xmlns="http://www.w3.org/2000/svg">
<path fill-rule="evenodd" clip-rule="evenodd" d="M0 14.9C0 6.60002 6.8 0 15.1 0C23.4 0 30 6.60002 30 14.9C30 23.2 23.4 30 15.1 30C6.8 30 0 23.2 0 14.9ZM27.9 16.7L27.6 15.2L26.8 14L26.3 13.8L26.9 11.4V11.2C27.2 10 26.1 8.90002 24.9 8.90002H15L14.8 8.40002L15.6 8.20001L15.8 7.90002H14.9L15.2 7.59998L14.9 7.29999L14.4 7.90002L13.6 7.70001L13.9 6.90002L14.7 6.59998L14.5 6.09998L14.8 5.90002L15.4 6.09998L15.6 6.90002L16.1 7.70001L16.4 7.40002L17 7.20001L16.7 6.59998H17.3L17.5 7.20001L18.6 7.40002L19.2 6.59998L19.4 5.40002L18.3 5.90002L18.8 6.5L18.2 6.79999L17.4 6.20001L16.8 6.5L16.5 5.70001L17.9 4.90002L19.3 4.40002L21.7 5.29999L23.7 5.5L24 5L24.5 5.29999C24.2 4.99999 23.9 4.8 23.7 4.5L23.2 5H22.4H22L22.5 4.5L23.4 5C21.1 3 18.3 1.79999 15.1 1.79999C12.1 1.79999 9.2 2.90001 7.1 4.70001L8 4.20001L9.7 3.90002L11.5 3.59998L13.8 3.29999L15.2 3.59998L14.3 4.09998V4.40002L13.5 4.70001L13 5.20001L11.9 5.5L11.3 5.70001L10.4 6L9.8 6.90002L8.9 7.09998L8.6 6.29999L9.1 4.90002H7.6L7.1 5.40002L6.3 5.59998C6.1 5.59998 6 5.79998 5.8 6.09998L7 5.79999L7.5 6.09998L7 7.20001L6.2 7L6.4 6.40002L5.8 6.20001L4.9 7.29999L4.1 8.09998C3.9 8.29998 3.8 8.39998 3.8 8.59998L4.3 8.90002L5.1 8.29999L4.9 8L5.7 7.40002L6.6 7.59998L7.1 8.70001L6.6 9.20001L6.9 9.5H6.1V9.20001L5.8 9.40002H5L4.8 10.9L4.5 10.4L4 11.2L2.9 12.3L3.2 12.8L2.1 13.7L2.3 14.6L2 14.8L1.8 14.6C1.8 14.8 1.8 15 1.8 15.1V15H2L2.6 15.5L2.3 15.8L1.8 15.5C1.8 16 1.8 16.4 2 16.6V16.8V17C2 17.3 2 17.6 2.2 17.9H2.4L3 17.4L3.3 17.6L3 19.1C2.8 19.6 3 20 3.1 20.3L2.6 19.8C2.6 20.1 2.8 20.4 2.9 20.4H3C3.5 21.2 4.1 21.6 4.7 21.6H8.5L8.7 22.1L7.9 23L8.1 23.8L7.8 24.9L7.2 25.2V25.7L7 26C9.1 27.7 12 28.7 14.8 28.7C21.5 27.9 27 23.1 27.9 16.7ZM17.6 23.5L18.2 21.8L17.4 20.9H22.5L22.8 19.2L23.4 16.8L23.7 17.4L25.1 16.6L24.6 18.3L22.9 20.3V22.6L21.5 23.5L21.8 24.4L21.2 24.9L20.9 25.8L18.5 26.4L17.6 23.5ZM22.7 24L23.3 23.5V22.6L24.5 21.7L24.7 22.3L23.8 23.7L23.2 24.5L22.7 24ZM23.6 15.7L23.8 14.9H26.1L26.3 15L24.3 16.4L23.6 15.7ZM2.7 15.5L3.2 15L3.8 15.5L3 15.8L2.7 15.5ZM3.6 10.3L3.1 9.79999C2.9 9.99999 2.9 10.1 2.8 10.4L3.1 10.6L3.6 10.3ZM12.3 5.90002L12.5 5.40002H14L14.2 5.70001L13.1 6.20001L12.3 5.90002Z" fill="#122874"/>
<path fill-rule="evenodd" clip-rule="evenodd" d="M6.8 10.9H9L11 14.8C13.7 11.8 14.8 10.9 14.8 10.9H17L15.3 18.9H13L13.8 15L10.2 18.8L8.2 14.9L7.4 19H5L6.8 10.9ZM19.9 13H17.5L18 10.9H25L24.7 13H22.3L21.1 18.9H18.7L19.9 13Z" fill="#122874"/>
<path fill-rule="evenodd" clip-rule="evenodd" d="M70.9 15.4C71.7 14.3 72.1 13.4 72.1 12.2C72.1 10.8 71.6 9.8 70.9 9C70.1 8.1 69.1 7.79999 67.9 7.79999C66.8 7.79999 65.6 8.3 64.9 9C64.1 9.9 63.7 10.8 63.7 12.2C63.7 13.4 64.2 14.5 64.9 15.4C65.7 16.2 66.9 16.6 67.9 16.6C69.1 16.6 70 16 70.9 15.4ZM86 15.4C86.8 14.3 87.4 13.4 87.4 12.2C87.4 10.8 86.8 9.8 86 9C85.2 7.9 84.3 7.59998 83.3 7.59998C82.2 7.59998 81.2 7.9 80.3 9C79.7 9.8 79.2 10.8 79.2 12.2C79.2 13.4 79.7 14.5 80.3 15.4C81.2 16 82.3 16.6 83.3 16.6C84.5 16.6 85.2 16 86 15.4ZM106.5 19C106.5 1.5 106.5 1.5 106.5 1.5C109.4 2 109.4 2 109.4 2C109.4 19 109.4 19 109.4 19H106.5ZM93.4 17.7C92.5 16.6 92.2 15.4 92.2 13.6C92.2 5.29998 92.2 5.29999 92.2 5.29999C94.9 5.29999 94.9 5.29999 94.9 5.29999C94.9 12.8 94.9 12.8 94.9 12.8C94.9 15.2 95.8 16.4 97.6 16.4C98.7 16.4 99.4 15.9 100.2 15.3C100.8 14.7 101.3 13.8 101.3 12.6C101.3 5.19998 101.3 5.20001 101.3 5.20001C104 5.20001 104 5.20001 104 5.20001C104 18.6 104 18.6 104 18.6C101.3 18.6 101.3 18.6 101.3 18.6C101.3 16.2 101.3 16.2 101.3 16.2C100.8 17 100.2 17.7 99.5 18C98.7 18.6 97.8 18.9 97.1 18.9C95.3 19 94.3 18.6 93.4 17.7ZM78.3 17C77.1 15.8 76.5 14.1 76.5 12C76.5 10 77.1 8.2 78.5 7C79.7 5.8 81.2 5.20001 83 5.20001C84.8 5.20001 86.2 6 87.4 7.5C87.4 1.2 87.4 1.20001 87.4 1.20001C90.1 1.80001 90.1 1.79999 90.1 1.79999C90.1 18.7 90.1 18.7 90.1 18.7C87.4 18.7 87.4 18.7 87.4 18.7C87.4 16.7 87.4 16.7 87.4 16.7C86.2 18.1 84.8 19 82.9 19C80.9 19 79.5 18.3 78.3 17ZM63.1 17C61.7 15.6 61 14 61 12.2C61 10.2 61.8 8.60002 63.1 7.40002C64.3 6.00002 66 5.29999 67.9 5.29999C69.9 5.29999 71.7 5.90002 72.9 7.40002C74.3 8.60002 74.9 10.4 74.9 12.2C74.9 14.2 74.3 15.7 72.9 17C71.7 18.2 69.9 19.1 67.9 19.1C66 19 64.3 18.3 63.1 17ZM39.9 19C39.9 1.5 39.9 1.5 39.9 1.5C44.6 1.5 44.6 1.5 44.6 1.5C49.9 12.3 49.9 12.3 49.9 12.3C55.2 1.49999 55.2 1.5 55.2 1.5C59.9 1.5 59.9 1.5 59.9 1.5C59.9 19 59.9 19 59.9 19C56.9 19 56.9 19 56.9 19C56.9 5.3 56.9 5.29999 56.9 5.29999C50.7 17.5 50.7 17.5 50.7 17.5C49.2 17.5 49.2 17.5 49.2 17.5C42.9 5.3 42.9 5.29999 42.9 5.29999C42.9 19 42.9 19 42.9 19H39.9Z" fill="#122874"/>
<path fill-rule="evenodd" clip-rule="evenodd" d="M171.2 8.5C170.6 7.9 169.7 7.70001 168.6 7.70001C167.5 7.70001 166.8 7.89998 165.9 8.59998C165 9.19998 164.7 10.1 164.7 11.2C172.4 11.2 172.4 11.2 172.4 11.2C172.4 10.1 172.1 9.1 171.2 8.5ZM156.2 15.4C157 14.3 157.3 13.4 157.3 12.2C157.3 10.8 157 9.8 156.2 9C155.4 7.9 154.5 7.59998 153.3 7.59998C152.2 7.59998 151.3 7.9 150.4 9C149.6 9.8 149.2 10.8 149.2 12.2C149.2 13.4 149.7 14.5 150.4 15.4C151.2 16 152.1 16.6 153.3 16.6C154.5 16.6 155.4 16 156.2 15.4ZM141.3 15.8C141.9 15.3 142.2 14.6 142.2 13.8C142.2 12.6 142.2 12.6 142.2 12.6C139.2 12.6 139.2 12.6 139.2 12.6C137.1 12.6 136.2 13.2 136.2 14.4C136.2 15.2 136.4 15.6 137 15.9C137.5 16.4 138.2 16.5 139.1 16.5C139.8 16.6 140.7 16.4 141.3 15.8ZM163.9 17C162.7 15.8 162.1 14.1 162.1 12C162.1 9.9 162.7 8.20002 164.1 6.90002C165.5 5.70002 167.1 5.20001 168.8 5.20001C170.8 5.20001 172.3 5.70001 173.6 6.70001C174.8 7.80001 175.4 9.30001 175.4 11.2C175.4 13.2 175.4 13.2 175.4 13.2C164.9 13.2 164.9 13.2 164.9 13.2C165.1 14.1 165.5 14.9 166.3 15.5C167.2 16.3 168.1 16.6 169.2 16.6C170.9 16.6 172.1 16 173 14.9C174.7 16.6 174.7 16.6 174.7 16.6C173.2 18.1 171.4 18.9 169 18.9C166.9 19 165.2 18.3 163.9 17ZM148.3 17C146.9 15.8 146.5 14.1 146.5 12C146.5 9.9 147.1 8.2 148.5 7C149.7 5.6 151.4 5.20001 153.2 5.20001C154.9 5.20001 156.4 6 157.4 7.5C157.4 1.2 157.4 1.20001 157.4 1.20001C160.3 1.80001 160.3 1.79999 160.3 1.79999C160.3 18.7 160.3 18.7 160.3 18.7C157.4 18.7 157.4 18.7 157.4 18.7C157.4 16.7 157.4 16.7 157.4 16.7C156.3 18.1 154.8 19 153 19C151.1 19 149.6 18.3 148.3 17ZM134.6 17.8C133.7 17 133.1 16 133.1 14.6C133.1 13.2 133.7 12.3 134.6 11.6C135.5 11.1 136.9 10.7 138.4 10.7C142.2 10.7 142.2 10.7 142.2 10.7C142.2 10.2 142.2 10.2 142.2 10.2C142.2 8.40001 141.1 7.5 139.3 7.5C138.1 7.5 136.9 7.8 135.4 9C134.2 7.2 134.2 7.20001 134.2 7.20001C135.7 5.80001 137.5 5.20001 139.5 5.20001C141.2 5.20001 142.4 5.70002 143.4 6.40002C144.5 7.20002 144.9 8.40001 144.9 10.2C144.9 18.8 144.9 18.8 144.9 18.8C142.3 18.8 142.3 18.8 142.3 18.8C142.3 17 142.3 17 142.3 17C141.2 18.2 139.7 19 137.9 19C136.8 19 135.5 18.7 134.6 17.8ZM125.6 19C125.6 5.6 125.6 5.59998 125.6 5.59998C128.5 5.59998 128.5 5.59998 128.5 5.59998C128.5 8.29998 128.5 8.29999 128.5 8.29999C129 7.39999 129.6 6.79999 130.5 6.29999C131.1 5.69999 132 5.20001 132.9 5.20001C132.9 8.10001 132.9 8.09998 132.9 8.09998C132.7 8.09998 132.7 8.09998 132.7 8.09998C131.3 8.09998 130.3 8.6 129.5 9.5C128.9 10.6 128.4 11.6 128.4 13.3C128.4 19 128.4 19 128.4 19H125.6ZM116.9 19C116.9 4.1 116.9 4.09998 116.9 4.09998C111.5 4.09998 111.5 4.09998 111.5 4.09998C111.5 1.39998 111.5 1.40002 111.5 1.40002C125.7 1.40002 125.7 1.40002 125.7 1.40002C125.7 4.10002 125.7 4.09998 125.7 4.09998C120.3 4.09998 120.3 4.09998 120.3 4.09998C120.3 18.9 120.3 18.9 120.3 18.9C117 18.9 117 18.9 117 18.9V19H116.9Z" fill="#122874"/>
<path fill-rule="evenodd" clip-rule="evenodd" d="M53.3 28C52.7 27.4 52.5 26.8 52.5 25.9C52.5 25 52.7 24.2 53.1 23.8C53.6 23.2 54.2 23 55.1 23C55.7 23 56.3 23.2 56.8 23.6C57.3 24.1 57.4 24.7 57.4 25.4C57.4 26 57.4 26 57.4 26C53.8 26 53.8 26 53.8 26C53.8 26.6 54 27.1 54.3 27.4C54.6 27.6 54.9 27.7 55.4 27.7C55.9 27.7 56.2 27.7 56.3 27.7C56.6 27.5 56.9 27.5 57.2 27.4C57.2 28.3 57.2 28.3 57.2 28.3C57 28.5 56.7 28.6 56.4 28.6C56.1 28.6 55.8 28.8 55.3 28.8C54.4 28.8 53.8 28.5 53.3 28ZM71.5 28C70.9 27.4 70.7 26.8 70.7 25.9C70.7 25 70.9 24.2 71.3 23.8C71.8 23.2 72.4 23 73.3 23C73.9 23 74.5 23.2 75 23.6C75.5 24.1 75.6 24.7 75.6 25.4C75.6 26 75.6 26 75.6 26C72 26 72 26 72 26C72 26.6 72.2 27.1 72.5 27.4C72.7 27.6 73.1 27.7 73.6 27.7C73.9 27.7 74.4 27.7 74.5 27.7C74.8 27.5 75.1 27.5 75.4 27.4C75.4 28.3 75.4 28.3 75.4 28.3C75.2 28.5 74.9 28.6 74.6 28.6C74.3 28.6 73.8 28.8 73.5 28.8C72.6 28.8 72 28.5 71.5 28ZM77.4 28C76.9 27.4 76.6 26.8 76.6 25.9C76.6 25 76.8 24.2 77.2 23.8C77.7 23.2 78.3 23 79.2 23C80 23 80.4 23.2 80.9 23.6C81.4 24.1 81.5 24.7 81.5 25.4C81.5 26 81.5 26 81.5 26C77.9 26 77.9 26 77.9 26C77.9 26.6 78.1 27.1 78.4 27.4C78.7 27.6 79 27.7 79.5 27.7C80 27.7 80.3 27.7 80.6 27.7C80.8 27.5 81.1 27.5 81.5 27.4C81.5 28.3 81.5 28.3 81.5 28.3C81.2 28.5 80.9 28.6 80.6 28.6C80.3 28.6 80 28.8 79.5 28.8C78.5 28.8 77.9 28.5 77.4 28ZM83.1 28C82.6 27.4 82.5 26.8 82.5 25.9C82.5 25 82.7 24.2 83.1 23.8C83.6 23.2 84 23 84.8 23C85.6 23 86 23.2 86.5 23.8C86.5 23.3 86.5 23 86.5 22.9C86.5 20.8 86.5 20.8 86.5 20.8C87.6 20.8 87.6 20.8 87.6 20.8C87.6 28.6 87.6 28.6 87.6 28.6C86.7 28.6 86.7 28.6 86.7 28.6C86.5 27.8 86.5 27.8 86.5 27.8C86 28.4 85.4 28.7 84.8 28.7C84 28.8 83.4 28.5 83.1 28ZM90.2 28.3C89.7 28.1 89.4 27.7 89.3 27.4C89 26.9 88.8 26.3 88.8 25.9C88.8 25 89.1 24.2 89.6 23.8C90.1 23.2 90.7 23 91.6 23C92.4 23 93 23.2 93.4 23.8C94 24.3 94.2 25 94.2 25.9C94.2 26.8 94 27.4 93.6 28C93 28.5 92.4 28.8 91.6 28.8C91 28.8 90.5 28.6 90.2 28.3ZM113.9 28.3C113.6 28.1 113.3 27.7 113 27.4C112.8 26.9 112.7 26.3 112.7 25.9C112.7 25 113 24.2 113.5 23.8C114 23.2 114.6 23 115.5 23C116.3 23 116.9 23.2 117.3 23.8C117.8 24.3 118.1 25 118.1 25.9C118.1 26.8 117.8 27.4 117.3 28C116.8 28.5 116.2 28.8 115.5 28.8C114.8 28.8 114.3 28.6 113.9 28.3ZM131.5 28.3C131.2 28 131 27.5 131 26.9C131 26.4 131.2 26 131.6 25.7C132 25.4 132.7 25.2 133.6 25.2C134.5 25.2 134.5 25.2 134.5 25.2C134.5 24.9 134.5 24.9 134.5 24.9C134.5 24.4 134.5 24.1 134.3 24C134.1 23.8 133.8 23.8 133.5 23.8C133.2 23.8 132.9 23.8 132.6 23.8C132.4 24 132.1 24.1 131.8 24.1C131.5 23.3 131.5 23.3 131.5 23.3C131.8 23.1 132.1 23 132.4 22.8C132.9 22.8 133.2 22.8 133.5 22.8C134.3 22.8 134.7 23 135.2 23.3C135.5 23.6 135.7 24.1 135.7 24.7C135.7 28.5 135.7 28.5 135.7 28.5C134.9 28.5 134.9 28.5 134.9 28.5C134.6 27.7 134.6 27.7 134.6 27.7C134.3 28 134 28.3 133.7 28.3C133.5 28.5 133.1 28.6 132.8 28.6C132.2 28.8 131.8 28.6 131.5 28.3ZM137.7 28C137.2 27.4 137.1 26.8 137.1 25.9C137.1 25 137.2 24.2 137.7 23.8C138 23.2 138.6 23 139.4 23C140 23 140.6 23.2 141.1 23.8C141.1 23.3 140.9 23 140.9 22.9C140.9 20.8 140.9 20.8 140.9 20.8C142.1 20.8 142.1 20.8 142.1 20.8C142.1 28.6 142.1 28.6 142.1 28.6C141.2 28.6 141.2 28.6 141.2 28.6C141 27.8 141 27.8 141 27.8C140.8 27.8 140.8 27.8 140.8 27.8C140.5 28.4 139.9 28.7 139.1 28.7C138.6 28.8 138 28.5 137.7 28ZM144.1 28C143.6 27.4 143.3 26.8 143.3 25.9C143.3 25 143.6 24.2 144.1 23.8C144.6 23.2 145.2 23 145.9 23C146.7 23 147.3 23.2 147.6 23.6C148.1 24.1 148.4 24.7 148.4 25.4C148.4 26 148.4 26 148.4 26C144.6 26 144.6 26 144.6 26C144.6 26.6 144.8 27.1 145.1 27.4C145.4 27.6 145.7 27.7 146.3 27.7C146.6 27.7 146.9 27.7 147.2 27.7C147.5 27.5 147.8 27.5 148.1 27.4C148.1 28.3 148.1 28.3 148.1 28.3C147.8 28.5 147.5 28.6 147.2 28.6C146.9 28.6 146.6 28.8 146.1 28.8C145.3 28.8 144.6 28.5 144.1 28ZM42 28.6C42 22.3 42 22.3 42 22.3C39.9 22.3 39.9 22.3 39.9 22.3C39.9 21.2 39.9 21.2 39.9 21.2C45.3 21.2 45.3 21.2 45.3 21.2C45.3 22.3 45.3 22.3 45.3 22.3C43.2 22.3 43.2 22.3 43.2 22.3C43.2 28.6 43.2 28.6 43.2 28.6C42 28.6 42 28.6 42 28.6ZM46.4 28.6C46.4 20.8 46.4 20.8 46.4 20.8C47.6 20.8 47.6 20.8 47.6 20.8C47.6 22.8 47.6 22.8 47.6 22.8C47.6 23.3 47.6 23.6 47.4 23.9C47.6 23.9 47.6 23.9 47.6 23.9C47.8 23.6 47.9 23.4 48.2 23.3C48.5 23.1 48.8 23.1 49.3 23.1C50.7 23.1 51.3 23.7 51.3 25.1C51.3 28.7 51.3 28.7 51.3 28.7C50.1 28.7 50.1 28.7 50.1 28.7C50.1 25.2 50.1 25.2 50.1 25.2C50.1 24.9 50.1 24.4 49.9 24.3C49.6 24.1 49.4 24 49 24C48.6 24 48.2 24.2 47.9 24.5C47.6 24.8 47.6 25.3 47.6 26C47.6 28.7 47.6 28.7 47.6 28.7C46.4 28.6 46.4 28.6 46.4 28.6ZM61.6 28.6C61.6 21.2 61.6 21.2 61.6 21.2C65.7 21.2 65.7 21.2 65.7 21.2C65.7 22.3 65.7 22.3 65.7 22.3C62.8 22.3 62.8 22.3 62.8 22.3C62.8 24.6 62.8 24.6 62.8 24.6C65.5 24.6 65.5 24.6 65.5 24.6C65.5 25.7 65.5 25.7 65.5 25.7C62.8 25.7 62.8 25.7 62.8 25.7C62.8 28.7 62.8 28.7 62.8 28.7C61.6 28.6 61.6 28.6 61.6 28.6ZM66.9 28.6C66.9 23 66.9 23 66.9 23C67.8 23 67.8 23 67.8 23C68 24.1 68 24.1 68 24.1C68.2 24.1 68.2 24.1 68.2 24.1C68.4 23.8 68.5 23.5 68.8 23.3C69.1 23 69.4 23 69.9 23C70.1 23 70.2 23 70.4 23C70.4 24.1 70.4 24.1 70.4 24.1C70.2 24.1 69.9 24.1 69.8 24.1C69.3 24.1 69 24.3 68.7 24.6C68.4 24.9 68.2 25.4 68.2 25.8C68.2 28.7 68.2 28.7 68.2 28.7C66.9 28.6 66.9 28.6 66.9 28.6ZM95.5 28.6C95.5 23 95.5 23 95.5 23C96.4 23 96.4 23 96.4 23C96.6 23.8 96.6 23.8 96.6 23.8C96.8 23.8 96.8 23.8 96.8 23.8C97 23.5 97.1 23.3 97.4 23.2C97.7 23 98 23 98.5 23C99.3 23 99.9 23.3 100.2 23.8C100.4 23.6 100.7 23.3 101 23.2C101.3 23 101.6 23 102.1 23C102.7 23 103.2 23.2 103.5 23.5C103.8 23.8 104 24.3 104 25C104 28.6 104 28.6 104 28.6C102.8 28.6 102.8 28.6 102.8 28.6C102.8 25.1 102.8 25.1 102.8 25.1C102.8 24.8 102.8 24.3 102.6 24.2C102.4 24 102.1 23.9 101.8 23.9C101.3 23.9 101 24.1 100.7 24.4C100.5 24.7 100.4 25.2 100.4 25.6C100.4 28.6 100.4 28.6 100.4 28.6C99.2 28.6 99.2 28.6 99.2 28.6C99.2 25.1 99.2 25.1 99.2 25.1C99.2 24.8 99.2 24.3 99 24.2C98.8 24 98.5 23.9 98.2 23.9C97.7 23.9 97.3 24.1 97.1 24.4C96.9 24.7 96.8 25.2 96.8 25.9C96.8 28.6 96.8 28.6 96.8 28.6C95.5 28.6 95.5 28.6 95.5 28.6ZM109.3 28.6C109.3 22.3 109.3 22.3 109.3 22.3C107.2 22.3 107.2 22.3 107.2 22.3C107.2 21.2 107.2 21.2 107.2 21.2C112.8 21.2 112.8 21.2 112.8 21.2C112.8 22.3 112.8 22.3 112.8 22.3C110.5 22.3 110.5 22.3 110.5 22.3C110.5 28.6 110.5 28.6 110.5 28.6C109.3 28.6 109.3 28.6 109.3 28.6ZM123.3 28.6C123.3 22.3 123.3 22.3 123.3 22.3C121.2 22.3 121.2 22.3 121.2 22.3C121.2 21.2 121.2 21.2 121.2 21.2C126.6 21.2 126.6 21.2 126.6 21.2C126.6 22.3 126.6 22.3 126.6 22.3C124.5 22.3 124.5 22.3 124.5 22.3C124.5 28.6 124.5 28.6 124.5 28.6C123.3 28.6 123.3 28.6 123.3 28.6ZM127.3 28.6C127.3 23 127.3 23 127.3 23C128.2 23 128.2 23 128.2 23C128.4 24.1 128.4 24.1 128.4 24.1C128.6 23.8 128.9 23.5 129.2 23.3C129.5 23 129.8 23 130.1 23C130.4 23 130.6 23 130.7 23C130.5 24.1 130.5 24.1 130.5 24.1C130.3 24.1 130.2 24.1 130 24.1C129.5 24.1 129.1 24.3 128.8 24.6C128.5 24.9 128.3 25.4 128.3 25.8C128.3 28.7 128.3 28.7 128.3 28.7C127.3 28.6 127.3 28.6 127.3 28.6ZM134.2 27.4C134.4 27.2 134.5 26.8 134.5 26.5C134.5 25.9 134.5 25.9 134.5 25.9C133.9 26.1 133.9 26.1 133.9 26.1C133.3 26.1 132.8 26.1 132.7 26.3C132.4 26.6 132.2 26.8 132.2 27.1C132.2 27.4 132.4 27.6 132.5 27.7C132.7 27.9 132.8 28 133.1 28C133.6 27.9 133.9 27.7 134.2 27.4ZM86.1 27.4C86.3 27.1 86.4 26.6 86.4 26C86.4 25.8 86.4 25.8 86.4 25.8C86.4 25 86.2 24.6 86.1 24.3C85.8 24 85.5 23.8 85 23.8C84.5 23.8 84.2 24 83.9 24.3C83.7 24.8 83.6 25.2 83.6 25.8C83.6 26.4 83.8 26.9 83.9 27.2C84.2 27.5 84.5 27.7 85 27.7C85.5 27.7 85.8 27.6 86.1 27.4ZM140.7 27.4C140.9 27.1 141 26.6 141 26C141 25.8 141 25.8 141 25.8C141 25 140.8 24.6 140.7 24.3C140.4 24 140.1 23.8 139.5 23.8C139.2 23.8 138.9 24 138.6 24.3C138.4 24.8 138.3 25.2 138.3 25.8C138.3 26.4 138.5 26.9 138.6 27.2C138.7 27.5 139.2 27.7 139.5 27.7C140.1 27.7 140.4 27.6 140.7 27.4ZM92.9 25.9C92.9 24.5 92.4 23.9 91.5 23.9C90.9 23.9 90.6 24.1 90.4 24.4C90.1 24.7 89.9 25.2 89.9 25.9C89.9 27.1 90.5 27.7 91.4 27.7C92.3 27.7 92.9 27.1 92.9 25.9ZM116.7 25.9C116.7 24.5 116.2 23.9 115.3 23.9C114.7 23.9 114.4 24.1 114.1 24.4C113.9 24.7 113.8 25.2 113.8 25.9C113.8 27.1 114.3 27.7 115.3 27.7C116.3 27.7 116.7 27.1 116.7 25.9ZM55.9 24.3C55.7 24 55.4 24 55.1 24C54.6 24 54.3 24 54.2 24.3C53.9 24.5 53.7 24.9 53.7 25.4C56.3 25.4 56.3 25.4 56.3 25.4C56.3 24.9 56.2 24.4 55.9 24.3ZM74.1 24.3C73.9 24 73.6 24 73.3 24C72.8 24 72.5 24 72.4 24.3C72.1 24.5 71.9 24.9 71.9 25.4C74.5 25.4 74.5 25.4 74.5 25.4C74.6 24.9 74.4 24.4 74.1 24.3ZM80.1 24.3C79.8 24 79.5 24 79.2 24C78.7 24 78.4 24 78.3 24.3C78 24.5 77.8 24.9 77.8 25.4C80.4 25.4 80.4 25.4 80.4 25.4C80.4 24.9 80.3 24.4 80.1 24.3ZM146.8 24.3C146.5 24 146.2 24 145.9 24C145.4 24 145.3 24 145 24.3C144.8 24.5 144.7 24.9 144.5 25.4C147.1 25.4 147.1 25.4 147.1 25.4C147.1 24.9 147 24.4 146.8 24.3Z" fill="#122874"/>
</svg>
