<svg id="Layer_1" data-name="Layer 1" xmlns="http://www.w3.org/2000/svg" viewBox="0 0 261.43 321.79">
    <defs>
        <style>
            .cls-1{fill:#0ebbcc;}.cls-2{fill:#bfbfbf;}.cls-3{font-size:36px;fill:#393e44;font-family:SourceSansPro-Regular,
            Source Sans Pro;letter-spacing:0.9em;}.cls-4{letter-spacing:0.86em;}
        </style>
    </defs>
    <title>logo_namitrade</title>
    <path class="cls-1"
          d="M-240.46-221A14.54,14.54,0,0,1-255-206.46,14.54,14.54,0,0,1-269.54-221,14.54,14.54,0,0,1-255-235.54h0A14.54,14.54,0,0,1-240.45-221"
          transform="translate(327.41 235.54)"/>
    <path class="cls-1"
          d="M-182.35-221a14.54,14.54,0,0,1-14.55,14.53A14.54,14.54,0,0,1-211.43-221a14.54,14.54,0,0,1,14.54-14.53A14.54,14.54,0,0,1-182.35-221"
          transform="translate(327.41 235.54)"/>
    <path class="cls-1"
          d="M-211.3-170.79a14.54,14.54,0,0,1-14.53,14.55,14.54,14.54,0,0,1-14.55-14.53,14.54,14.54,0,0,1,14.53-14.55h0a14.54,14.54,0,0,1,14.54,14.53"
          transform="translate(327.41 235.54)"/>
    <path class="cls-1"
          d="M-269.13-170.79a14.54,14.54,0,0,1-14.53,14.55,14.54,14.54,0,0,1-14.55-14.53,14.54,14.54,0,0,1,14.53-14.55h0a14.54,14.54,0,0,1,14.53,14.53"
          transform="translate(327.41 235.54)"/>
    <path class="cls-2"
          d="M-153.25-170.79a14.54,14.54,0,0,1-14.53,14.55,14.54,14.54,0,0,1-14.55-14.53,14.54,14.54,0,0,1,14.53-14.55h0a14.54,14.54,0,0,1,14.54,14.53"
          transform="translate(327.41 235.54)"/>
    <path class="cls-1"
          d="M-95.09-170.79a14.54,14.54,0,0,1-14.53,14.55,14.54,14.54,0,0,1-14.55-14.53,14.54,14.54,0,0,1,14.53-14.55h0a14.54,14.54,0,0,1,14.54,14.53"
          transform="translate(327.41 235.54)"/>
    <path class="cls-1"
          d="M-124.3-221a14.54,14.54,0,0,1-14.55,14.53A14.54,14.54,0,0,1-153.38-221a14.54,14.54,0,0,1,14.54-14.53A14.54,14.54,0,0,1-124.3-221"
          transform="translate(327.41 235.54)"/>
    <path class="cls-2"
          d="M-240.46-120.46A14.54,14.54,0,0,1-255-105.92a14.54,14.54,0,0,1-14.54-14.54A14.54,14.54,0,0,1-255-135h0a14.54,14.54,0,0,1,14.53,14.53h0"
          transform="translate(327.41 235.54)"/>
    <path class="cls-1"
          d="M-298.33-120.46a14.54,14.54,0,0,1-14.54,14.54,14.54,14.54,0,0,1-14.54-14.54A14.54,14.54,0,0,1-312.87-135a14.54,14.54,0,0,1,14.54,14.54h0"
          transform="translate(327.41 235.54)"/>
    <path class="cls-1"
          d="M-182.35-120.46a14.54,14.54,0,0,1-14.54,14.54,14.54,14.54,0,0,1-14.54-14.54A14.54,14.54,0,0,1-196.89-135a14.54,14.54,0,0,1,14.54,14.54h0"
          transform="translate(327.41 235.54)"/>
    <path class="cls-1"
          d="M-211.3-70.26a14.54,14.54,0,0,1-14.53,14.55,14.54,14.54,0,0,1-14.55-14.53,14.54,14.54,0,0,1,14.53-14.55h0A14.54,14.54,0,0,1-211.3-70.26"
          transform="translate(327.41 235.54)"/>
    <path class="cls-1"
          d="M-269.13-70.26a14.54,14.54,0,0,1-14.53,14.55,14.54,14.54,0,0,1-14.55-14.53,14.54,14.54,0,0,1,14.53-14.55h0a14.54,14.54,0,0,1,14.53,14.53"
          transform="translate(327.41 235.54)"/>
    <path class="cls-2"
          d="M-153.25-70.26a14.54,14.54,0,0,1-14.53,14.55,14.54,14.54,0,0,1-14.55-14.53A14.54,14.54,0,0,1-167.8-84.79h0a14.54,14.54,0,0,1,14.54,14.53"
          transform="translate(327.41 235.54)"/>
    <path class="cls-1"
          d="M-95.09-70.26a14.54,14.54,0,0,1-14.53,14.55,14.54,14.54,0,0,1-14.55-14.53,14.54,14.54,0,0,1,14.53-14.55h0A14.54,14.54,0,0,1-95.09-70.26"
          transform="translate(327.41 235.54)"/>
    <path class="cls-1"
          d="M-124.3-120.46a14.54,14.54,0,0,1-14.54,14.54,14.54,14.54,0,0,1-14.54-14.54A14.54,14.54,0,0,1-138.84-135a14.54,14.54,0,0,1,14.54,14.54h0"
          transform="translate(327.41 235.54)"/>
    <path class="cls-1"
          d="M-66-120.46a14.54,14.54,0,0,1-14.54,14.54,14.54,14.54,0,0,1-14.54-14.54A14.54,14.54,0,0,1-80.52-135,14.54,14.54,0,0,1-66-120.46h0"
          transform="translate(327.41 235.54)"/>
    <path class="cls-1"
          d="M-240.46-19.48A14.54,14.54,0,0,1-255-4.93a14.54,14.54,0,0,1-14.55-14.53A14.54,14.54,0,0,1-255-34h0a14.54,14.54,0,0,1,14.53,14.53"
          transform="translate(327.41 235.54)"/>
    <path class="cls-1"
          d="M-182.35-19.48A14.54,14.54,0,0,1-196.88-4.93a14.54,14.54,0,0,1-14.55-14.53A14.54,14.54,0,0,1-196.9-34h0a14.54,14.54,0,0,1,14.54,14.53"
          transform="translate(327.41 235.54)"/>
    <path class="cls-1"
          d="M-124.3-19.48A14.54,14.54,0,0,1-138.83-4.93a14.54,14.54,0,0,1-14.55-14.53A14.54,14.54,0,0,1-138.85-34h0A14.54,14.54,0,0,1-124.3-19.48"
          transform="translate(327.41 235.54)"/>
    <rect class="cls-2" y="266.54" width="261.43" height="55.25" rx="25.5" ry="25.5"/>
    <text class="cls-3" transform="translate(40.46 306)">
        <tspan class="cls-4" x="0" y="0">B</tspan>
        <tspan class="cls-4" x="50" y="0">E</tspan>
        <tspan class="cls-4" x="104.94" y="0">T</tspan>
        <tspan x="155.2" y="0">A</tspan>
    </text>
</svg>