<svg xmlns="http://www.w3.org/2000/svg" xmlns:xlink="http://www.w3.org/1999/xlink" viewBox="0 0 100 24"><defs><style>.cls-1{fill:url(#radial-gradient);}.cls-2{fill:#1f2348;}</style><radialGradient id="radial-gradient" cx="20.31" cy="23.69" r="27.01" gradientUnits="userSpaceOnUse"><stop offset="0" stop-color="#ec991c"/><stop offset="1" stop-color="#e9b213"/></radialGradient></defs><title>logo-colored</title><path class="cls-1" d="M26.7,10.88,21.07,1.12A2.25,2.25,0,0,0,19.13,0H7.87A2.25,2.25,0,0,0,5.93,1.12L.3,10.88a2.24,2.24,0,0,0,0,2.24l5.63,9.76A2.25,2.25,0,0,0,7.87,24H19.13a2.25,2.25,0,0,0,1.94-1.12l5.63-9.76A2.24,2.24,0,0,0,26.7,10.88Z"/><path class="cls-2" d="M46.39,5H48.8V19H47L39.39,9.24V19H37V5h1.84l7.55,9.76Z"/><path class="cls-2" d="M53.58,19V5h2.58V19Z"/><path class="cls-2" d="M72.55,5h2V19H72.37V10.34L68.59,19H66.94l-3.78-8.66V19H61V5h2l4.79,11Z"/><path class="cls-2" d="M79.37,19V5H82V19Z"/><path class="cls-2" d="M99.17,15.83a5.83,5.83,0,0,1-3,2.8,7.89,7.89,0,0,0,1.12,1.52,15.09,15.09,0,0,0,1.46,1.37L97.05,22.9a11.07,11.07,0,0,1-1.77-1.61,11.54,11.54,0,0,1-1.5-2.1l-.6,0a7.24,7.24,0,0,1-3.64-.87,5.79,5.79,0,0,1-2.36-2.51A8.75,8.75,0,0,1,86.37,12a8.24,8.24,0,0,1,.82-3.81,5.81,5.81,0,0,1,2.37-2.51,7.24,7.24,0,0,1,3.62-.88,7.33,7.33,0,0,1,3.65.88A5.71,5.71,0,0,1,99.18,8.2,8.21,8.21,0,0,1,100,12,8.6,8.6,0,0,1,99.17,15.83Zm-9.11,0a4.31,4.31,0,0,0,6.25,0A5.83,5.83,0,0,0,97.42,12a5.85,5.85,0,0,0-1.11-3.83,4.35,4.35,0,0,0-6.25,0A5.84,5.84,0,0,0,89,12,5.83,5.83,0,0,0,90.06,15.84Z"/></svg>