<?xml version="1.0" encoding="UTF-8"?>
<svg width="142px" height="25px" viewBox="0 0 142 25" version="1.1" xmlns="http://www.w3.org/2000/svg" xmlns:xlink="http://www.w3.org/1999/xlink">
    <!-- Generator: Sketch 51.3 (57544) - http://www.bohemiancoding.com/sketch -->
    <title>logo-neufund--full</title>
    <desc>Created with Sketch.</desc>
    <defs></defs>
    <g id="Landing-page-" stroke="none" stroke-width="1" fill="none" fill-rule="evenodd">
        <g id="landingpage_design_full" transform="translate(-85.000000, -140.000000)" fill="#394651">
            <g id="01_Header" transform="translate(-163.000000, -300.000000)">
                <g id="logo-neufund--full" transform="translate(248.000000, 440.000000)">
                    <g id="Wordmark" transform="translate(33.000000, 4.000000)">
                        <path d="M11.3471767,11.4150798 C11.3471767,12.1251957 11.4706479,13.3011989 11.4706479,13.3011989 C11.4706479,13.3011989 10.7798855,12.3212524 10.311033,11.7580105 L0.295992714,0 L0,0 L0,16.8285346 L1.67751756,16.8285346 L1.67751756,5.58492024 C1.67751756,4.87446745 1.52935207,3.69880115 1.52935207,3.69880115 C1.52935207,3.69880115 2.22011449,4.67874765 2.68862868,5.2419895 L12.7040073,17 L13,17 L13,0.171465372 L11.3471767,0.171465372 L11.3471767,11.4150798 Z" id="Fill-1"></path>
                        <path d="M99.9023079,15.3748787 L97.7559884,15.3748787 L97.7559884,1.62512134 L99.9023079,1.62512134 C104.804693,1.62512134 107.146345,4.45008898 107.146345,8.5 C107.146345,12.549911 104.804693,15.3748787 99.9023079,15.3748787 M100.024391,0 L96,0 L96,17 L100.024391,17 C105.585355,17 109,13.6497128 109,8.5 C109,3.34994337 105.560939,0 100.024391,0" id="Fill-3"></path>
                        <polygon id="Fill-5" points="48 17 49.7602682 17 49.7602682 11.2251502 57.2419111 11.2251502 57.2419111 9.57489838 49.7602682 9.57489838 49.7602682 1.60005663 58 1.60005663 58 0 48 0"></polygon>
                        <path d="M71.2295911,10.9462901 C71.2295911,13.9362757 69.5819306,15.4188654 67.0001686,15.4188654 C64.3934523,15.4188654 62.7704089,13.9362757 62.7704089,10.9462901 L62.7704089,0 L61,0 L61,11.0699808 C61,14.9985208 63.581762,17 67.0001686,17 C70.3936209,17 73,14.9985208 73,11.0699808 L73,0 L71.2295911,0 L71.2295911,10.9462901 Z" id="Fill-7"></path>
                        <path d="M89.3471767,11.4150798 C89.3471767,12.1251957 89.4706479,13.3011989 89.4706479,13.3011989 C89.4706479,13.3011989 88.7798855,12.3212524 88.311033,11.7580105 L78.2959927,0 L78,0 L78,16.8285346 L79.6775176,16.8285346 L79.6775176,5.58492024 C79.6775176,4.87547805 79.5296903,3.70183295 79.5293521,3.69880115 C79.5313817,3.70149609 80.220791,4.67942138 80.6886287,5.2419895 L90.7040073,17 L91,17 L91,0.171465372 L89.3471767,0.171465372 L89.3471767,11.4150798 Z" id="Fill-9"></path>
                        <polygon id="Fill-11" points="18.6821532 11.1499757 25.8083947 11.1499757 25.8083947 9.57504854 18.6821532 9.57504854 18.6821532 1.60002427 26.6728613 1.60002427 26.6728613 0 17 0 17 17 27 17 27 15.3999757 18.6821532 15.3999757"></polygon>
                        <path d="M41.2296409,10.9462901 C41.2296409,13.9362757 39.5820266,15.4188654 37,15.4188654 C34.3936941,15.4188654 32.7706963,13.9362757 32.7706963,10.9462901 L32.7706963,0 L31,0 L31,11.0699808 C31,14.9985208 33.5820266,17 37,17 C40.3936941,17 43,14.9985208 43,11.0699808 L43,0 L41.2296409,0 L41.2296409,10.9462901 Z" id="Fill-13"></path>
                    </g>
                    <path d="M20.8766032,18.0277397 L17.0611746,20.1880137 L17.0611746,4.64178082 L20.8766032,6.80171233 L20.8766032,12.414726 L20.8766032,18.0277397 Z M16.1354286,19.7496575 L5.78495238,4.12089041 L6.00669841,3.99520548 L10.9633333,1.18869863 L15.9199683,3.99520548 L16.1354286,4.11746575 L16.1354286,19.7496575 Z M10.9633333,23.6407534 L6.00669841,20.8342466 L5.67355556,20.6458904 L5.67355556,5.61986301 L15.796,20.9041096 L10.9633333,23.6407534 Z M4.74780952,20.1215753 L1.05006349,18.0277397 L1.05006349,12.414726 L1.05006349,6.80171233 L4.74780952,4.70787671 L4.74780952,20.1215753 Z M16.4448254,3.10376712 L10.9633333,0 L5.48184127,3.10376712 L0,6.20719178 L0.000349206349,12.414726 L0,18.6222603 L5.48184127,21.7256849 L10.9633333,24.8294521 L16.4448254,21.7256849 L21.9263175,18.6222603 L21.9263175,12.414726 L21.9263175,6.20719178 L16.4448254,3.10376712 Z" id="Brandmark"></path>
                </g>
            </g>
        </g>
    </g>
</svg>