<?xml version="1.0" encoding="utf-8"?>
<!-- Generator: Adobe Illustrator 17.0.0, SVG Export Plug-In . SVG Version: 6.00 Build 0)  -->
<!DOCTYPE svg PUBLIC "-//W3C//DTD SVG 1.1//EN" "http://www.w3.org/Graphics/SVG/1.1/DTD/svg11.dtd">
<svg version="1.1" id="Layer_1" xmlns="http://www.w3.org/2000/svg" xmlns:xlink="http://www.w3.org/1999/xlink" x="0px" y="0px"
	 width="76px" height="76px" viewBox="0 0 76 76" enable-background="new 0 0 76 76" xml:space="preserve">
<g>
	<circle fill="#FFFFFF" cx="38" cy="38" r="38"/>
	<g>
		<path fill="#EC2227" d="M3.131,37.908C3.171,18.757,18.903,3.133,38.07,3.207c19.253,0.074,34.853,15.696,34.798,34.846
			c-0.055,19.177-15.73,34.78-34.904,34.741C18.721,72.755,3.091,57.102,3.131,37.908z M58.345,34.398
			c-0.022-0.24-0.046-0.381-0.046-0.522c-0.004-1.905,0.014-3.81-0.013-5.714c-0.013-0.92-0.525-1.417-1.322-1.395
			c-0.766,0.022-1.214,0.508-1.216,1.411c-0.01,3.684-0.064,7.37,0.015,11.052c0.094,4.376,4.098,7.34,8.332,6.263
			c3.542-0.901,5.571-4.322,4.737-8.114c-0.503-2.283-1.831-3.965-4.105-4.685c-2.224-0.704-4.253-0.232-5.989,1.366
			C58.637,34.155,58.527,34.243,58.345,34.398z M41.417,41.529c-0.159-0.454-0.27-0.748-0.365-1.047
			c-0.674-2.121-1.345-4.244-2.018-6.366c-0.053-0.167-0.107-0.334-0.167-0.498c-0.341-0.93-0.952-1.327-1.68-1.094
			c-0.599,0.192-0.828,0.81-0.526,1.734c1.135,3.471,2.298,6.932,3.456,10.394c0.202,0.602,0.605,0.985,1.275,0.966
			c0.665-0.02,1.046-0.412,1.223-1.028c0.228-0.793,0.452-1.588,0.68-2.381c0.538-1.868,1.079-3.736,1.676-5.805
			c0.763,2.778,1.48,5.346,2.166,7.922c0.182,0.682,0.438,1.248,1.236,1.29c0.835,0.043,1.164-0.512,1.395-1.211
			c1.082-3.278,2.186-6.549,3.27-9.826c0.116-0.352,0.207-0.729,0.217-1.097c0.02-0.684-0.421-1.054-1.111-0.995
			c-0.761,0.065-1.027,0.626-1.225,1.247c-0.753,2.359-1.503,4.719-2.257,7.077c-0.069,0.216-0.163,0.424-0.307,0.792
			c-0.122-0.455-0.195-0.717-0.263-0.981c-0.596-2.326-1.196-4.651-1.785-6.978c-0.17-0.673-0.503-1.146-1.263-1.158
			c-0.766-0.013-1.107,0.477-1.301,1.127c-0.121,0.407-0.235,0.817-0.356,1.225C42.749,37.016,42.106,39.195,41.417,41.529z
			 M25.561,39.91c0.324,0,0.598,0,0.872,0c2.656,0,5.312,0.005,7.968-0.003c0.882-0.003,1.263-0.38,1.281-1.21
			c0.094-4.301-3.425-7.133-7.607-6.121c-3.172,0.768-5.018,3.378-4.836,6.998c0.132,2.643,1.469,4.562,3.914,5.568
			c2.554,1.05,5.01,0.701,7.235-0.944c0.234-0.173,0.417-0.706,0.322-0.958c-0.127-0.336-0.512-0.697-0.857-0.793
			c-0.327-0.091-0.757,0.115-1.119,0.249c-0.559,0.207-1.081,0.538-1.652,0.687C28.507,44.051,25.943,42.462,25.561,39.91z
			 M10.231,33.794c-0.362-1.062-0.791-1.405-1.547-1.303c-0.735,0.099-1.074,0.604-1.077,1.627
			c-0.004,1.378-0.001,2.756-0.001,4.133c0,1.979-0.01,3.958,0.006,5.937c0.008,0.974,0.575,1.518,1.429,1.431
			c0.72-0.074,1.111-0.579,1.117-1.519c0.013-2.079-0.019-4.159,0.021-6.237c0.01-0.532,0.115-1.113,0.356-1.578
			c0.629-1.211,2.29-1.86,3.849-1.609c1.581,0.254,2.637,1.166,2.93,2.615c0.113,0.559,0.119,1.145,0.125,1.719
			c0.019,1.778-0.007,3.557,0.029,5.335c0.017,0.831,0.521,1.289,1.264,1.278c0.734-0.011,1.228-0.504,1.233-1.316
			c0.014-2.129,0.052-4.26-0.018-6.387c-0.084-2.558-1.548-4.547-3.802-5.226C14.02,32.054,12.038,32.393,10.231,33.794z"/>
		<path fill="#EC2227" d="M66.571,39.023c0.004,2.539-1.783,4.437-4.182,4.442c-2.406,0.005-4.205-1.886-4.206-4.421
			c-0.001-2.524,1.811-4.413,4.223-4.402C64.776,34.652,66.567,36.536,66.571,39.023z"/>
		<path fill="#EC2227" d="M25.61,37.846c0.247-2.087,1.984-3.353,4.443-3.229c1.8,0.091,3.217,1.481,3.241,3.229
			C30.732,37.846,28.171,37.846,25.61,37.846z"/>
	</g>
</g>
</svg>
