<svg id="Layer_1" data-name="Layer 1" xmlns="http://www.w3.org/2000/svg" viewBox="0 0 628.39 273.49"><defs><style>.cls-1{fill:#378e43;}.cls-2{fill:#505d68;}</style></defs><title>banner-stacked</title><path class="cls-1" d="M297.7,0a86.61,86.61,0,0,1,73.74,41.35l-13.36,1.8A74.55,74.55,0,1,0,348,141.53a85.18,85.18,0,0,0,10.16,7.15A86.63,86.63,0,1,1,297.7,0Z"/><path class="cls-1" d="M339.23,60.08V92.36c0,26.41,16.13,41,39.06,50.59,22.94-9.59,39.07-24.18,39.07-50.59V60.08L378.29,54.8Zm12,10.45,27.09-3.66,27.1,3.66V92.36c0,17.1-8.16,28.52-27.1,37.5-18.93-9-27.09-20.4-27.09-37.5Z"/><path class="cls-1" d="M326.26,47.45A48.43,48.43,0,0,0,250.59,75H238.13A60.6,60.6,0,0,1,342.05,45.32Z"/><path class="cls-1" d="M292.59,135a50.66,50.66,0,0,0,5.11.27,48.36,48.36,0,0,0,33.87-13.82,60.15,60.15,0,0,0,6.7,10.3A59.53,59.53,0,0,1,288,146.54Z"/><path class="cls-1" d="M249.62,93.18a48.65,48.65,0,0,0,25.55,36.48L270.68,141a60.78,60.78,0,0,1-33.33-47.78Z"/><path class="cls-2" d="M46.7,272q-3.41-5.7-7.6-12.25t-8.7-13.2q-4.5-6.64-9.15-12.9T12.4,222.39V272H0v-69.3H10.3q4,4.2,8.6,9.95t9.25,12q4.65,6.21,9,12.45t7.75,11.65v-46H57.4V272Z"/><path class="cls-2" d="M134.4,237.29a43.15,43.15,0,0,1-2.65,15.7,32.47,32.47,0,0,1-7.2,11.35,29.68,29.68,0,0,1-10.65,6.85,36.41,36.41,0,0,1-13,2.3,36.8,36.8,0,0,1-13.05-2.3,29.45,29.45,0,0,1-10.7-6.85A33,33,0,0,1,69.9,253a46.85,46.85,0,0,1,0-31.35,33,33,0,0,1,7.35-11.35A30.5,30.5,0,0,1,88,203.39a37.33,37.33,0,0,1,25.8,0,29.5,29.5,0,0,1,10.65,6.9,33.78,33.78,0,0,1,7.25,11.35A42,42,0,0,1,134.4,237.29Zm-54.1,0a35.6,35.6,0,0,0,1.4,10.35,22.52,22.52,0,0,0,4,7.9,18.29,18.29,0,0,0,6.45,5,19.84,19.84,0,0,0,8.6,1.8,19.64,19.64,0,0,0,8.5-1.8,18.38,18.38,0,0,0,6.45-5,22.69,22.69,0,0,0,4-7.9,39,39,0,0,0,0-20.7,22.78,22.78,0,0,0-4-7.9,18.5,18.5,0,0,0-6.45-5,19.64,19.64,0,0,0-8.5-1.8,19.84,19.84,0,0,0-8.6,1.8,18.1,18.1,0,0,0-6.45,5.1,23.24,23.24,0,0,0-4,7.9A35.1,35.1,0,0,0,80.3,237.29Z"/><path class="cls-2" d="M184.4,272.79c-3.67,0-7.37-.11-11.1-.35a50.86,50.86,0,0,1-9.8-1.45v-67.3c1.46-.26,3-.51,4.7-.75s3.36-.41,5.1-.55,3.45-.23,5.15-.3,3.31-.1,4.85-.1a67.94,67.94,0,0,1,11.7.95,30.08,30.08,0,0,1,9.35,3.15,16.45,16.45,0,0,1,6.15,5.8,16.85,16.85,0,0,1,2.2,8.9,14.75,14.75,0,0,1-2.35,8.4,16.62,16.62,0,0,1-6.55,5.6q6.3,2.1,9.3,6.2a17.17,17.17,0,0,1,3,10.4q0,10.71-7.8,16.05T184.4,272.79Zm-8.5-41.9h8.9q7.2,0,11.3-2t4.1-7.35a7.31,7.31,0,0,0-4.25-7.1,25,25,0,0,0-11-2.1c-1.94,0-3.65,0-5.15.1s-2.79.17-3.85.3Zm0,9.9v21.1q2.1.21,4.5.3c1.6.07,3.06.1,4.4.1a48.38,48.38,0,0,0,7.25-.5,18.65,18.65,0,0,0,5.8-1.75,10.37,10.37,0,0,0,3.9-3.35,9.35,9.35,0,0,0,1.45-5.4q0-5.89-4.3-8.2t-11.9-2.3Z"/><path class="cls-2" d="M242,262.59q6.8,0,9.9-2.3a7.63,7.63,0,0,0,3.1-6.5,8.41,8.41,0,0,0-1.05-4.3,11,11,0,0,0-3-3.25,26.1,26.1,0,0,0-4.75-2.7q-2.8-1.24-6.4-2.45t-7-2.85a23,23,0,0,1-5.9-3.85,16.79,16.79,0,0,1-5.65-13.2q0-9.39,6.5-14.75t17.7-5.35a42.21,42.21,0,0,1,11.55,1.45,36,36,0,0,1,7.95,3.15l-3.9,10.2a30.31,30.31,0,0,0-7.45-2.9,35.08,35.08,0,0,0-8.35-1q-5.1,0-8,2.1a6.91,6.91,0,0,0-2.85,5.9,7.7,7.7,0,0,0,.95,3.95,9.61,9.61,0,0,0,2.7,2.95,23,23,0,0,0,4.1,2.4,53.92,53.92,0,0,0,5.15,2.1q4.89,1.8,8.75,3.65a25,25,0,0,1,6.5,4.4,17.39,17.39,0,0,1,4.05,6,22.3,22.3,0,0,1,1.4,8.35q0,9.41-6.65,14.55T242,273.49a51,51,0,0,1-7.85-.55,47.75,47.75,0,0,1-6.3-1.35,40.93,40.93,0,0,1-4.75-1.65,27,27,0,0,1-3.2-1.55l3.7-10.3a42.57,42.57,0,0,0,7.3,3A36,36,0,0,0,242,262.59Z"/><path class="cls-2" d="M323.79,273.49a32,32,0,0,1-12.45-2.4,28.36,28.36,0,0,1-10-7,33.07,33.07,0,0,1-6.69-11.35,45,45,0,0,1-2.45-15.45,42.19,42.19,0,0,1,2.64-15.45,34.35,34.35,0,0,1,7.06-11.35,29.23,29.23,0,0,1,10.19-7,32.12,32.12,0,0,1,12.11-2.35,46.55,46.55,0,0,1,7.09.5,40.46,40.46,0,0,1,5.61,1.25,40,40,0,0,1,4.1,1.5,17.38,17.38,0,0,1,2.59,1.35l-2.19,5.9a40.14,40.14,0,0,0-6.36-2.95,31.14,31.14,0,0,0-20.89.75,22.46,22.46,0,0,0-8.15,6.2,27,27,0,0,0-5,9.5,42.76,42.76,0,0,0-1.64,12.2A44,44,0,0,0,301,249.84a26.76,26.76,0,0,0,4.86,9.45,21.39,21.39,0,0,0,7.85,6,25.59,25.59,0,0,0,10.65,2.1,41.32,41.32,0,0,0,11.05-1.25,31.69,31.69,0,0,0,6.75-2.55l1.89,5.8a10.87,10.87,0,0,1-2.39,1.15,42.59,42.59,0,0,1-4.3,1.35,46.86,46.86,0,0,1-6,1.15A58.48,58.48,0,0,1,323.79,273.49Z"/><path class="cls-2" d="M398.09,223.49q0,7.8-4.1,12.3a23.16,23.16,0,0,1-10.8,6.5q1.6,2,4.15,5.4t5.25,7.45q2.7,4,5.3,8.45a86,86,0,0,1,4.4,8.4H395q-2.1-4-4.55-8t-5-7.75c-1.7-2.5-3.35-4.81-4.95-7l-4.2-5.6q-3.19.3-6.4.3h-11.2v28h-6.8V204a49.36,49.36,0,0,1,8.45-1.45q4.86-.45,9-.45,14.31,0,21.55,5.4T398.09,223.49Zm-28-15.5c-2.53,0-4.75.09-6.65.25s-3.48.32-4.75.45v29.5h9.4a83.56,83.56,0,0,0,8.9-.45,21.12,21.12,0,0,0,7.3-2,11.84,11.84,0,0,0,4.9-4.45,14.88,14.88,0,0,0,1.8-7.9,14.59,14.59,0,0,0-1.8-7.6,13.62,13.62,0,0,0-4.7-4.75,19.28,19.28,0,0,0-6.65-2.4A45.62,45.62,0,0,0,370.09,208Z"/><path class="cls-2" d="M425.09,272v-28.5Q418,232.6,412,222.44t-11.1-19.75h7.9q4.21,8.81,9.28,17.85t10.57,17.25q5.33-8.19,10.43-17.25t9.42-17.85h7.4q-5.29,9.51-11.2,19.75t-12.8,20.85V272Z"/><path class="cls-2" d="M479.29,202.09q14.7,0,21.9,5.6t7.2,15.9a22,22,0,0,1-2.1,10,17.07,17.07,0,0,1-6,6.7,27.08,27.08,0,0,1-9.55,3.7A63.88,63.88,0,0,1,478,245.19h-9.4V272h-6.8V204a49.36,49.36,0,0,1,8.45-1.45C473.48,202.24,476.49,202.09,479.29,202.09Zm.3,5.9c-2.53,0-4.68.09-6.45.25l-4.55.45v30.6h8.6a68.2,68.2,0,0,0,9.95-.65,22,22,0,0,0,7.6-2.4,12,12,0,0,0,4.85-4.85,16.22,16.22,0,0,0,1.7-7.9,14.22,14.22,0,0,0-1.85-7.6,13.6,13.6,0,0,0-4.9-4.75,21.68,21.68,0,0,0-7-2.45A45.78,45.78,0,0,0,479.59,208Z"/><path class="cls-2" d="M561,202.69v5.9h-22.2V272H532v-63.4h-22.2v-5.9Z"/><path class="cls-2" d="M628.39,237.29a43.61,43.61,0,0,1-2.6,15.7,32.47,32.47,0,0,1-7,11.35,28.86,28.86,0,0,1-10.35,6.85,35.12,35.12,0,0,1-25,0A29,29,0,0,1,573,264.34,32.77,32.77,0,0,1,566,253a48.55,48.55,0,0,1,0-31.35,33,33,0,0,1,7-11.3,29.3,29.3,0,0,1,10.35-6.85,35.12,35.12,0,0,1,25,0,29.13,29.13,0,0,1,10.35,6.85,32.71,32.71,0,0,1,7,11.3A43.25,43.25,0,0,1,628.39,237.29Zm-7.2,0a40.63,40.63,0,0,0-1.8-12.55,27.64,27.64,0,0,0-5.1-9.45,21.85,21.85,0,0,0-7.95-5.95,27.66,27.66,0,0,0-20.9,0,21.85,21.85,0,0,0-8,5.95,27.64,27.64,0,0,0-5.1,9.45,44.65,44.65,0,0,0,0,25.1,27.64,27.64,0,0,0,5.1,9.45,22.33,22.33,0,0,0,8,6,27.05,27.05,0,0,0,20.9,0,22.33,22.33,0,0,0,7.95-6,27.64,27.64,0,0,0,5.1-9.45A40.58,40.58,0,0,0,621.19,237.29Z"/></svg>