<svg xmlns="http://www.w3.org/2000/svg" width="162" height="26" viewBox="0 0 162 26">
  <g fill="#FFF" fill-rule="evenodd">
    <path d="M14.6491974,8.26238896 C17.1995656,8.26238896 19.4898813,9.3710438 21.0630424,11.1309669 L28.590063,11.1309669 C27.6358376,9.67986033 26.2644445,8.52589381 24.644446,7.84125174 C23.0622844,7.10136428 21.7393016,5.90243463 20.8501768,4.41438161 C20.846594,4.41577581 20.8432735,4.41760571 20.8397781,4.41908705 C19.5700991,2.26111826 17.2195764,0.811928711 14.5293075,0.811928711 C11.8115129,0.811928711 9.44036769,2.29057085 8.1800387,4.48513754 C7.27011666,5.97528187 5.92441421,7.1718588 4.31752316,7.89536435 C4.31769792,7.8957129 4.31778531,7.89606145 4.31787269,7.89649714 C2.77739292,8.59691116 1.47459567,9.7263048 0.561789969,11.1309669 L8.23526493,11.1309669 C9.80851343,9.3710438 12.0987417,8.26238896 14.6491974,8.26238896"/>
    <polygon points="6.006 25.092 23.146 25.092 23.146 21.248 6.006 21.248"/>
    <path d="M10.1749815 20.0336665C10.1731423 19.9805964 10.1709527 19.9276135 10.1709527 19.8740196 10.1709527 17.42738 12.1610952 15.4439697 14.6159518 15.4439697 17.0708959 15.4439697 19.0610385 17.42738 19.0610385 19.8740196 19.0610385 19.9276135 19.0589365 19.9805964 19.0570097 20.0336665L23.1436202 20.0336665C23.1445836 19.9805091 23.1457222 19.9274389 23.1457222 19.8740196 23.1457222 15.1570591 19.3088976 11.333301 14.5759265 11.333301 9.84304293 11.333301 6.00613078 15.1570591 6.00613078 19.8740196 6.00613078 19.9274389 6.00726935 19.9805091 6.00823276 20.0336665L10.1749815 20.0336665zM40.1682974 11.0285168L40.8923499 11.0285168C41.2044416 11.0285168 41.4665985 11.2896758 41.4665985 11.6005794L41.4665985 19.1617547C41.4665985 19.4726583 41.2044416 19.7338173 40.8923499 19.7338173L40.3056177 19.7338173C40.0060097 19.7338173 39.7688201 19.621892 39.5940488 19.3856053L35.7241127 14.510637 35.7241127 19.1617547C35.7241127 19.4726583 35.4619557 19.7338173 35.1498641 19.7338173L34.4258115 19.7338173C34.1137199 19.7338173 33.851563 19.4726583 33.851563 19.1617547L33.851563 11.6005794C33.851563 11.2896758 34.1137199 11.0285168 34.4258115 11.0285168L35.0125438 11.0285168C35.3121517 11.0285168 35.5493414 11.1404421 35.7241127 11.3767288L39.5940488 16.2765694 39.5940488 11.6005794C39.5940488 11.2896758 39.8562058 11.0285168 40.1682974 11.0285168zM55.5606562 19.3234245L54.9988912 17.9057042 51.5409161 17.9057042 50.9791512 19.3234245C50.8667982 19.5970197 50.6670595 19.7338173 50.3799352 19.7338173L49.6184317 19.7338173C49.3188237 19.7338173 49.0816341 19.4850944 49.0816341 19.1990631 49.0816341 19.1244463 49.0941178 19.0498294 49.1190851 18.9876487L52.2649686 11.4389095C52.3898053 11.1653144 52.5895439 11.0285168 52.8766682 11.0285168L53.7879757 11.0285168C54.0751 11.0285168 54.2748387 11.1653144 54.3996753 11.4389095L57.5455589 18.9876487C57.5705262 19.0498294 57.5830099 19.1244463 57.5830099 19.1990631 57.5830099 19.4850944 57.3458202 19.7338173 57.0462123 19.7338173L56.1598721 19.7338173C55.8727478 19.7338173 55.6730091 19.5970197 55.5606562 19.3234245zM54.2498713 16.0402826L53.2761455 13.5779262 52.289936 16.0402826 54.2498713 16.0402826zM67.8695497 11.0036445C69.1054325 11.0036445 70.0042564 11.2772396 70.5660213 11.8119938 71.1277863 12.3591841 71.4024269 13.0556082 71.4024269 13.8888298 71.4024269 14.6971791 71.1028189 15.3936032 70.5160867 15.9532296 69.9293544 16.5252922 69.1428835 16.8113235 68.1691577 16.8113235 67.7322294 16.8113235 67.4076541 16.7988874 67.1954318 16.7740151L67.1954318 19.1617547C67.1954318 19.4726583 66.9332749 19.7338173 66.6211832 19.7338173L65.772294 19.7338173C65.4602024 19.7338173 65.1980454 19.4726583 65.1980454 19.1617547L65.1980454 11.6130155C65.1980454 11.3021119 65.4602024 11.0285168 65.772294 11.0285168 66.6586342 11.0160806 67.3577195 11.0036445 67.8695497 11.0036445zM67.1954318 12.8939383L67.1954318 14.8837213C67.5075234 14.9210297 67.8196151 14.945902 68.1067394 14.945902 68.7434063 14.945902 69.2802039 14.6349984 69.2802039 13.8763937 69.2802039 13.2048419 68.8807266 12.869066 68.0692884 12.869066 68.0318374 12.869066 67.7447131 12.8815022 67.1954318 12.8939383zM78.4931485 15.381167C78.4931485 14.1002442 78.9300768 13.0182997 79.7914497 12.1602058 80.6528225 11.3021119 81.7638687 10.879283 83.1370719 10.879283 84.4977913 10.879283 85.6088375 11.2896758 86.482694 12.1104613 87.3440669 12.9312467 87.7809952 14.0256274 87.7809952 15.381167 87.7809952 16.6869621 87.3440669 17.7689066 86.4702104 18.6145644 85.5838702 19.4602221 84.472824 19.883051 83.1370719 19.883051 81.7763524 19.883051 80.6653062 19.4726583 79.8039333 18.6518728 78.9300768 17.8310873 78.4931485 16.7367067 78.4931485 15.381167zM80.6153716 15.381167C80.6153716 16.1273356 80.8650448 16.7491428 81.3519078 17.2590247 81.8387707 17.7689066 82.4379866 18.0176295 83.1370719 18.0176295 83.9360264 18.0176295 84.5602096 17.7689066 84.9971379 17.2714609 85.4340662 16.7864513 85.6587722 16.1522079 85.6587722 15.381167 85.6587722 14.59769 85.4215825 13.9634467 84.9347196 13.4784371 84.4478567 12.9934275 83.8486408 12.7447046 83.1370719 12.7447046 82.4005356 12.7447046 81.8013197 12.9809913 81.3269404 13.4660009 80.8525612 13.9510105 80.6153716 14.59769 80.6153716 15.381167zM101.200935 18.4404584L101.200935 19.1617547C101.200935 19.4726583 100.938778 19.7338173 100.626686 19.7338173L96.2199526 19.7338173C95.907861 19.7338173 95.6457041 19.4726583 95.6457041 19.1617547L95.6457041 11.6005794C95.6457041 11.2896758 95.907861 11.0285168 96.2199526 11.0285168L97.0688418 11.0285168C97.3809335 11.0285168 97.6430904 11.2896758 97.6430904 11.6005794L97.6430904 17.8683957 100.626686 17.8683957C100.938778 17.8683957 101.200935 18.1295548 101.200935 18.4404584zM113.996691 18.4404584L113.996691 19.1617547C113.996691 19.4726583 113.734534 19.7338173 113.422443 19.7338173L109.265382 19.7338173C108.953291 19.7338173 108.691134 19.4726583 108.691134 19.1617547L108.691134 11.6005794C108.691134 11.2896758 108.953291 11.0285168 109.265382 11.0285168L113.297606 11.0285168C113.609698 11.0285168 113.871855 11.2896758 113.871855 11.6005794L113.871855 12.3218757C113.871855 12.6327793 113.609698 12.8939383 113.297606 12.8939383L110.68852 12.8939383 110.68852 14.423584 112.923096 14.423584C113.235188 14.423584 113.497345 14.684743 113.497345 14.9956466L113.497345 15.7169429C113.497345 16.0278465 113.235188 16.2890055 112.923096 16.2890055L110.68852 16.2890055 110.68852 17.8683957 113.422443 17.8683957C113.734534 17.8683957 113.996691 18.1295548 113.996691 18.4404584zM121.48689 15.381167C121.48689 14.1002442 121.923819 13.0182997 122.785191 12.1602058 123.646564 11.3021119 124.757611 10.879283 126.130814 10.879283 127.491533 10.879283 128.602579 11.2896758 129.476436 12.1104613 130.337809 12.9312467 130.774737 14.0256274 130.774737 15.381167 130.774737 16.6869621 130.337809 17.7689066 129.463952 18.6145644 128.577612 19.4602221 127.466566 19.883051 126.130814 19.883051 124.770094 19.883051 123.659048 19.4726583 122.797675 18.6518728 121.923819 17.8310873 121.48689 16.7367067 121.48689 15.381167zM123.609113 15.381167C123.609113 16.1273356 123.858787 16.7491428 124.34565 17.2590247 124.832513 17.7689066 125.431728 18.0176295 126.130814 18.0176295 126.929768 18.0176295 127.553951 17.7689066 127.99088 17.2714609 128.427808 16.7864513 128.652514 16.1522079 128.652514 15.381167 128.652514 14.59769 128.415324 13.9634467 127.928461 13.4784371 127.441598 12.9934275 126.842383 12.7447046 126.130814 12.7447046 125.394277 12.7447046 124.795062 12.9809913 124.320682 13.4660009 123.846303 13.9510105 123.609113 14.59769 123.609113 15.381167zM144.95618 11.0285168L145.680233 11.0285168C145.992324 11.0285168 146.254481 11.2896758 146.254481 11.6005794L146.254481 19.1617547C146.254481 19.4726583 145.992324 19.7338173 145.680233 19.7338173L145.093501 19.7338173C144.793893 19.7338173 144.556703 19.621892 144.381932 19.3856053L140.511996 14.510637 140.511996 19.1617547C140.511996 19.4726583 140.249839 19.7338173 139.937747 19.7338173L139.213694 19.7338173C138.901603 19.7338173 138.639446 19.4726583 138.639446 19.1617547L138.639446 11.6005794C138.639446 11.2896758 138.901603 11.0285168 139.213694 11.0285168L139.800427 11.0285168C140.100035 11.0285168 140.337224 11.1404421 140.511996 11.3767288L144.381932 16.2765694 144.381932 11.6005794C144.381932 11.2896758 144.644089 11.0285168 144.95618 11.0285168zM156.291348 11.4016011L157.826839 13.8266491 159.299911 11.4016011C159.449715 11.1528782 159.674421 11.0285168 159.961545 11.0285168L160.772984 11.0285168C161.110043 11.0285168 161.3722 11.3021119 161.3722 11.6130155 161.3722 11.7249408 161.334749 11.82443 161.27233 11.9363553L159.075205 15.294114 161.384683 18.8259788C161.447102 18.9379041 161.484553 19.0373932 161.484553 19.1493185 161.484553 19.4602221 161.222396 19.7338173 160.885337 19.7338173L160.073898 19.7338173C159.786774 19.7338173 159.562068 19.6094559 159.399781 19.360733L157.76442 16.8113235 156.154028 19.360733C155.99174 19.6094559 155.767034 19.7338173 155.47991 19.7338173L154.668472 19.7338173C154.331413 19.7338173 154.069256 19.4602221 154.069256 19.1493185 154.069256 19.0373932 154.106707 18.9379041 154.169125 18.8259788L156.478603 15.294114 154.306445 11.9487914C154.244027 11.8368661 154.206576 11.737377 154.206576 11.6254517 154.206576 11.3145481 154.468733 11.0285168 154.805792 11.0285168L155.61723 11.0285168C155.904354 11.0285168 156.12906 11.1528782 156.291348 11.4016011z"/>
    <rect width="1.964" height="8.034" x="156.388" y="20.277" rx=".214" transform="rotate(90 157.37 24.294)"/>
    <rect width="1.964" height="8.034" x="66.625" y="20.277" rx=".214" transform="rotate(90 67.607 24.294)"/>
    <rect width="1.964" height="8.034" x="36.307" y="20.277" rx=".214" transform="rotate(90 37.29 24.294)"/>
  </g>
</svg>
