<!-- Generator: Adobe Illustrator 20.1.0, SVG Export Plug-In  -->
<svg version="1.1"
	 xmlns="http://www.w3.org/2000/svg" xmlns:xlink="http://www.w3.org/1999/xlink" xmlns:a="http://ns.adobe.com/AdobeSVGViewerExtensions/3.0/"
	 x="0px" y="0px" width="598.025px" height="109.348px" viewBox="0 0 598.025 109.348"
	 style="enable-background:new 0 0 598.025 109.348;" xml:space="preserve">
<style type="text/css">
	.st0{fill:#DCDDDE;}
	.st1{fill:#8DC63F;}
</style>
<defs>
</defs>
<g>
	<path class="st0" d="M130.881,22.357h10.116l33.277,43.038V22.357h10.848v62.244h-9.141l-34.252-44.282v44.282h-10.848V22.357z"/>
	<path class="st0" d="M216.75,85.669c-3.379,0-6.536-0.594-9.47-1.778c-2.935-1.186-5.484-2.846-7.647-4.98
		c-2.165-2.134-3.868-4.697-5.113-7.691c-1.245-2.993-1.867-6.298-1.867-9.915v-0.178c0-3.379,0.562-6.549,1.689-9.514
		c1.125-2.963,2.712-5.558,4.757-7.781c2.045-2.223,4.46-3.971,7.247-5.246c2.786-1.274,5.869-1.912,9.248-1.912
		c3.735,0,7.009,0.682,9.826,2.045c2.815,1.364,5.157,3.201,7.024,5.513c1.868,2.312,3.275,4.995,4.224,8.047
		c0.947,3.054,1.422,6.269,1.422,9.647c0,0.476-0.015,0.964-0.044,1.467c-0.03,0.504-0.075,1.022-0.133,1.556h-34.501
		c0.592,3.854,2.119,6.802,4.58,8.848c2.459,2.045,5.438,3.068,8.937,3.068c2.667,0,4.979-0.474,6.936-1.423
		c1.956-0.948,3.882-2.341,5.78-4.179l6.313,5.602c-2.254,2.667-4.935,4.801-8.047,6.402S221.077,85.669,216.75,85.669z
		 M227.421,57.836c-0.178-1.718-0.564-3.334-1.156-4.846c-0.593-1.512-1.394-2.815-2.401-3.913c-1.009-1.096-2.209-1.97-3.601-2.623
		c-1.394-0.652-2.979-0.979-4.757-0.979c-3.321,0-6.062,1.142-8.225,3.424c-2.165,2.283-3.483,5.261-3.957,8.936H227.421z"/>
	<path class="st0" d="M254.158,60.771L237.53,37.652h11.737l10.848,15.472l10.849-15.472h11.47l-16.628,22.853l17.34,24.097h-11.738
		l-11.56-16.45l-11.471,16.45h-11.471L254.158,60.771z"/>
	<path class="st0" d="M302.103,60.771l-16.628-23.119h11.737l10.849,15.472l10.848-15.472h11.471l-16.628,22.853l17.34,24.097
		h-11.737l-11.56-16.45l-11.471,16.45h-11.471L302.103,60.771z"/>
	<path class="st0" d="M350.73,85.58c-5.321,0-9.43-1.63-12.325-4.891c-2.897-3.26-4.345-7.647-4.345-13.161V37.652h10.848v26.613
		c0,3.668,0.866,6.491,2.6,8.473c1.734,1.981,4.188,2.972,7.362,2.972c3.114,0,5.642-1.02,7.581-3.061
		c1.939-2.04,2.909-4.894,2.909-8.56V37.652h10.848v46.95H365.36v-7.367c-1.537,2.273-3.458,4.232-5.764,5.877
		C357.291,84.757,354.335,85.58,350.73,85.58z"/>
	<path class="st0" d="M400.66,85.491c-3.379,0-6.803-0.601-10.271-1.797c-3.468-1.197-6.685-2.965-9.647-5.302l4.802-7.307
		c2.548,1.897,5.142,3.334,7.78,4.312c2.637,0.978,5.171,1.467,7.603,1.467c2.312,0,4.104-0.458,5.38-1.375
		c1.273-0.917,1.911-2.144,1.911-3.682V71.63c0-0.886-0.281-1.655-0.845-2.305c-0.563-0.65-1.333-1.213-2.312-1.687
		c-0.979-0.472-2.104-0.917-3.379-1.331c-1.275-0.414-2.594-0.828-3.957-1.242c-1.72-0.472-3.454-1.035-5.202-1.685
		c-1.749-0.65-3.32-1.494-4.712-2.529c-1.394-1.035-2.534-2.322-3.424-3.86c-0.89-1.538-1.334-3.43-1.334-5.678v-0.178
		c0-2.188,0.43-4.169,1.289-5.944s2.046-3.283,3.558-4.525c1.512-1.242,3.29-2.188,5.335-2.839c2.045-0.65,4.224-0.977,6.535-0.977
		c2.964,0,5.958,0.479,8.981,1.438s5.779,2.276,8.27,3.953l-4.269,7.681c-2.253-1.363-4.535-2.445-6.847-3.246
		s-4.446-1.201-6.402-1.201c-2.075,0-3.69,0.445-4.846,1.331c-1.156,0.888-1.734,2.012-1.734,3.371v0.178
		c0,0.828,0.296,1.553,0.89,2.174c0.592,0.621,1.378,1.182,2.356,1.685c0.978,0.503,2.104,0.977,3.379,1.42
		c1.273,0.445,2.593,0.873,3.957,1.287c1.719,0.532,3.437,1.153,5.157,1.863c1.719,0.71,3.274,1.583,4.668,2.618
		c1.393,1.035,2.534,2.292,3.424,3.771c0.889,1.479,1.333,3.283,1.333,5.412v0.178c0,2.484-0.444,4.644-1.333,6.478
		c-0.89,1.834-2.12,3.357-3.69,4.568c-1.571,1.213-3.424,2.13-5.558,2.751C405.373,85.18,403.089,85.491,400.66,85.491z"/>
	<path class="st0" d="M453.753,85.669c-4.565,0-8.773-0.831-12.626-2.49c-3.854-1.659-7.197-3.927-10.03-6.802
		c-2.833-2.875-5.056-6.269-6.669-10.181c-1.613-3.913-2.419-8.092-2.419-12.538v-0.178c0-4.446,0.791-8.61,2.375-12.493
		c1.582-3.882,3.805-7.292,6.669-10.226c2.861-2.935,6.25-5.247,10.163-6.936c3.912-1.689,8.239-2.534,12.982-2.534
		c2.845,0,5.438,0.238,7.78,0.711c2.341,0.475,4.49,1.142,6.446,2c1.957,0.86,3.765,1.883,5.425,3.068
		c1.658,1.187,3.23,2.49,4.713,3.913l-7.025,8.092c-2.489-2.312-5.128-4.179-7.913-5.602c-2.787-1.423-5.958-2.134-9.515-2.134
		c-2.965,0-5.706,0.578-8.226,1.734c-2.521,1.156-4.698,2.728-6.535,4.713c-1.839,1.987-3.261,4.312-4.269,6.98
		c-1.009,2.667-1.512,5.513-1.512,8.536v0.178c0,3.023,0.503,5.884,1.512,8.581c1.008,2.698,2.43,5.054,4.269,7.069
		c1.837,2.016,4.015,3.602,6.535,4.757c2.52,1.156,5.261,1.734,8.226,1.734c3.793,0,7.054-0.725,9.781-2.179
		c2.726-1.452,5.424-3.423,8.092-5.913l7.024,7.114c-1.601,1.72-3.276,3.246-5.024,4.579c-1.749,1.334-3.632,2.49-5.646,3.468
		c-2.016,0.979-4.224,1.721-6.624,2.224C459.311,85.416,456.658,85.669,453.753,85.669z"/>
	<path class="st0" d="M505.576,85.669c-3.557,0-6.862-0.638-9.915-1.912c-3.054-1.274-5.69-3.008-7.914-5.202
		c-2.223-2.192-3.957-4.771-5.201-7.736c-1.245-2.963-1.867-6.105-1.867-9.425v-0.178c0-3.379,0.636-6.55,1.911-9.515
		c1.274-2.963,3.023-5.558,5.246-7.78c2.224-2.223,4.86-3.986,7.914-5.291c3.053-1.303,6.387-1.956,10.004-1.956
		c3.615,0,6.949,0.638,10.003,1.912c3.053,1.275,5.691,3.023,7.914,5.246c2.224,2.223,3.957,4.802,5.202,7.736
		c1.245,2.934,1.867,6.091,1.867,9.47v0.178c0,3.32-0.638,6.462-1.912,9.425c-1.275,2.965-3.023,5.558-5.246,7.78
		c-2.223,2.223-4.877,3.988-7.958,5.291C512.541,85.016,509.191,85.669,505.576,85.669z M505.753,76.332
		c2.179,0,4.138-0.4,5.875-1.201c1.738-0.8,3.227-1.881,4.463-3.245c1.236-1.363,2.181-2.948,2.827-4.757
		c0.647-1.808,0.973-3.719,0.973-5.735v-0.178c0-2.075-0.354-4.031-1.06-5.869c-0.707-1.836-1.693-3.437-2.961-4.801
		c-1.267-1.363-2.769-2.445-4.507-3.246s-3.667-1.201-5.787-1.201c-2.121,0-4.052,0.4-5.789,1.201
		c-1.738,0.8-3.227,1.867-4.463,3.201c-1.236,1.333-2.18,2.92-2.827,4.757c-0.647,1.838-0.972,3.765-0.972,5.78v0.178
		c0,2.076,0.354,4.017,1.061,5.824c0.705,1.809,1.692,3.409,2.959,4.801c1.268,1.394,2.77,2.49,4.507,3.29
		C501.791,75.932,503.691,76.332,505.753,76.332z"/>
	<path class="st0" d="M536.101,20.224h11.648v10.226h-11.648V20.224z M536.545,37.652h10.849v46.95h-10.849V37.652z"/>
	<path class="st0" d="M555.876,37.652h10.849v7.366c0.768-1.136,1.61-2.198,2.527-3.184c0.915-0.987,1.979-1.869,3.191-2.647
		c1.211-0.778,2.542-1.391,3.99-1.839c1.447-0.449,3.088-0.674,4.921-0.674c5.32,0,9.429,1.631,12.325,4.891
		c2.896,3.261,4.345,7.647,4.345,13.16v29.877h-10.849V57.988c0-3.667-0.867-6.491-2.601-8.473
		c-1.734-1.981-4.188-2.972-7.361-2.972c-3.114,0-5.641,1.021-7.58,3.061c-1.939,2.041-2.909,4.895-2.909,8.56v26.437h-10.849
		V37.652z"/>
</g>
<g>
	<path class="st1" d="M79.728,72.712c0.048,0.023,0.29,0.047,0.755-0.146L93.1,67.339c1.358-0.562,2.069-0.137,2.372,0.166
		c0.304,0.304,0.728,1.015,0.165,2.373l-3.771,9.097c-0.686,1.653-2.517,3.484-4.169,4.169l-19.842,8.222
		c-0.893,0.369-1.879,0.368-2.776-0.003c-0.898-0.372-1.596-1.069-1.966-1.963l-5.312-12.828l-4.125-9.96l6.756-16.437l1.95,4.706
		l5.078,12.256c0.193,0.465,0.38,0.62,0.388,0.637c0.05-0.018,0.238-0.172,0.431-0.637l22.265-53.705
		C80.941,5.073,68.403,0,54.672,0C24.477,0,0,24.477,0,54.674c0,11.438,3.517,22.052,9.521,30.829l19.911-48.149
		c0.192-0.466,0.169-0.708,0.175-0.726c-0.048-0.023-0.29-0.047-0.755,0.146l-12.615,5.225c-1.358,0.562-2.069,0.138-2.373-0.166
		c-0.195-0.195-0.441-0.56-0.441-1.157c0-0.331,0.075-0.732,0.275-1.215l3.767-9.096c0.685-1.653,2.516-3.484,4.168-4.168
		l19.844-8.221c0.893-0.37,1.879-0.369,2.777,0.003c0.898,0.372,1.596,1.068,1.965,1.961l0.807,1.948v0l4.76,11.495l2.65,6.401
		c0.001,0,0.001,0.002,0.001,0.002l1.219,2.945L48.901,59.16l-1.796-4.336c-0.001-0.001-0.001-0.002-0.002-0.003l-5.227-12.618
		c-0.193-0.465-0.38-0.62-0.388-0.637c-0.05,0.018-0.238,0.172-0.431,0.637L18.792,95.908c9.603,8.364,22.145,13.44,35.88,13.44
		c30.195,0,54.674-24.477,54.674-54.674c0-11.444-3.521-22.062-9.531-30.841L79.903,71.986
		C79.711,72.452,79.734,72.694,79.728,72.712z"/>
</g>
</svg>