<?xml version="1.0" standalone="no"?>
<!DOCTYPE svg PUBLIC "-//W3C//DTD SVG 20010904//EN"
 "http://www.w3.org/TR/2001/REC-SVG-20010904/DTD/svg10.dtd">
<svg version="1.0" xmlns="http://www.w3.org/2000/svg"
 width="1024.000000pt" height="1024.000000pt" viewBox="0 0 1024.000000 1024.000000"
 preserveAspectRatio="xMidYMid meet">
<metadata>
Created by potrace 1.11, written by Peter Selinger 2001-2013
</metadata>
<g transform="translate(0.000000,1024.000000) scale(0.100000,-0.100000)"
fill="#000000" stroke="none">
<path d="M0 5120 l0 -5120 5120 0 5120 0 0 5120 0 5120 -5120 0 -5120 0 0
-5120z m5465 3569 c618 -61 1198 -304 1645 -688 252 -216 474 -478 640 -752
l62 -102 -1918 -1918 -1917 -1917 43 -38 c133 -122 332 -236 520 -298 208 -69
374 -90 638 -83 252 6 415 39 622 123 444 180 781 587 945 1142 41 141 78 321
102 497 13 101 17 205 17 460 1 328 -3 389 -41 623 l-16 104 549 549 c302 302
552 549 556 549 16 0 135 -290 196 -480 148 -458 210 -907 199 -1445 -8 -378
-39 -621 -122 -961 -338 -1379 -1308 -2311 -2590 -2488 -579 -80 -1167 -13
-1675 191 -591 237 -1085 663 -1437 1240 l-72 118 1910 1910 c1050 1051 1909
1913 1909 1918 0 28 -245 198 -370 255 -228 106 -459 152 -753 152 -352 0
-652 -82 -904 -246 -452 -294 -712 -779 -810 -1509 -13 -102 -17 -205 -17
-475 0 -337 7 -455 42 -642 l9 -46 -558 -558 -558 -558 -26 60 c-191 427 -308
904 -346 1414 -15 197 -6 658 16 840 88 738 325 1368 705 1875 540 721 1303
1131 2226 1195 143 9 425 4 579 -11z"/>
</g>
</svg>
