<?xml version="1.0" encoding="iso-8859-1"?>
<!-- Generator: Adobe Illustrator 19.0.0, SVG Export Plug-In . SVG Version: 6.00 Build 0)  -->
<svg version="1.1" id="Layer_1" xmlns="http://www.w3.org/2000/svg" xmlns:xlink="http://www.w3.org/1999/xlink" x="0px" y="0px"
	 viewBox="1000 -1000 2500 2500" style="enable-background:new 1000 -1000 2500 2500;" xml:space="preserve">
<circle style="fill:#1A53F0;" cx="2250" cy="250" r="1219.725"/>
<path style="fill:#FFFFFF;" d="M2009.958,415.199c-155.771,0-282.049,126.644-282.049,282.866s126.29,282.866,282.061,282.866
	s282.061-126.644,282.061-282.866s-126.278-282.866-282.061-282.866H2009.958z M2009.958,895.369
	c-108.555,0-196.632-88.284-196.632-197.205s88.04-197.205,196.632-197.205c108.592,0,196.644,88.284,196.644,197.205
	C2206.419,806.987,2118.489,895.234,2009.958,895.369L2009.958,895.369z M2612.332-188.186
	c-155.771,0-282.061,126.644-282.061,282.866s126.29,282.866,282.061,282.866s282.061-126.644,282.061-282.866
	s-126.266-282.879-282.049-282.879L2612.332-188.186z M2612.332,291.983c-108.555,0-196.632-88.284-196.632-197.205
	s88.003-197.205,196.644-197.205s196.644,88.284,196.644,197.205c-0.183,108.873-88.174,197.01-196.644,197.193L2612.332,291.983z
	 M2009.958-188.198c-134.279-0.085-250.044,94.76-276.731,226.747c-26.688,131.986,43.068,264.546,166.712,316.958
	c144.002,60.485,309.772-7.22,370.256-151.222c43.984-104.717,21.053-225.587-58.226-306.919h79.977v-85.564H2009.958z
	 M2206.615,94.668c0,108.909-88.04,197.205-196.644,197.205s-196.632-88.296-196.632-197.205s88.028-197.169,196.62-197.169
	c108.592,0,196.559,88.32,196.754,197.205h-0.097V94.668z"/>
</svg>
