<?xml version="1.0" standalone="no"?>
<!DOCTYPE svg PUBLIC "-//W3C//DTD SVG 20010904//EN"
 "http://www.w3.org/TR/2001/REC-SVG-20010904/DTD/svg10.dtd">
<svg version="1.0" xmlns="http://www.w3.org/2000/svg"
 width="500.000000pt" height="500.000000pt" viewBox="0 0 500.000000 500.000000"
 preserveAspectRatio="xMidYMid meet">
<metadata>
Created by potrace 1.11, written by Peter Selinger 2001-2013
</metadata>
<g transform="translate(0.000000,500.000000) scale(0.100000,-0.100000)"
fill="#000000" stroke="none">
<path d="M2230 4979 c-451 -51 -878 -220 -1240 -491 -72 -55 -264 -224 -294
-260 -11 -13 -52 -59 -91 -103 -323 -365 -539 -867 -595 -1380 -12 -114 -12
-391 1 -510 53 -488 254 -962 565 -1335 79 -95 278 -290 369 -362 452 -355
1004 -543 1579 -537 646 6 1258 261 1722 715 403 396 657 913 730 1484 17 137
19 427 4 560 -67 582 -312 1092 -720 1500 -396 398 -911 646 -1480 715 -125
16 -429 18 -550 4z m619 -449 c344 -61 656 -201 927 -416 684 -543 952 -1440
679 -2271 -171 -519 -553 -956 -1050 -1199 -124 -61 -342 -140 -450 -163 -706
-153 -1423 57 -1922 561 -173 174 -287 336 -393 553 -280 577 -280 1224 0
1800 114 235 241 408 437 596 337 322 724 501 1223 563 19 2 123 3 230 1 146
-2 226 -8 319 -25z"/>
<path d="M3190 2835 l0 -665 215 0 215 0 0 665 0 665 -215 0 -215 0 0 -665z"/>
<path d="M1980 2165 l0 -465 213 2 212 3 3 463 2 462 -215 0 -215 0 0 -465z"/>
<path d="M2585 2157 c-3 -7 -4 -102 -3 -212 l3 -200 215 0 215 0 0 210 0 210
-213 3 c-167 2 -214 0 -217 -11z"/>
<path d="M1370 1705 l0 -215 215 0 215 0 0 215 0 215 -215 0 -215 0 0 -215z"/>
</g>
</svg>
