<?xml version="1.0" encoding="UTF-8"?>
<svg width="168px" height="51px" viewBox="0 0 168 51" version="1.1" xmlns="http://www.w3.org/2000/svg" xmlns:xlink="http://www.w3.org/1999/xlink">
    <!-- Generator: Sketch 50 (54983) - http://www.bohemiancoding.com/sketch -->
    <title>07_ORCA_logo-text_RGB</title>
    <desc>Created with Sketch.</desc>
    <defs></defs>
    <g id="Page-1" stroke="none" stroke-width="1" fill="none" fill-rule="evenodd">
        <g id="orca-facelift-europa" transform="translate(-203.000000, -55.000000)" fill="#000000">
            <g id="header" transform="translate(203.000000, 55.000000)">
                <g id="07_ORCA_logo-text_RGB">
                    <g id="Shape">
                        <path d="M26.733913,0.0980769231 C12.1252174,0.0980769231 0.292173913,12.0144231 0.292173913,26.7259615 C0.292173913,36.0432692 5.06434783,44.2817308 12.2713043,49.0384615 C13.5373913,49.8230769 14.9495652,50.4605769 16.2643478,50.5586538 C17.4330435,50.6567308 18.4069565,50.4605769 19.186087,50.1173077 C20.7443478,49.4307692 21.1826087,47.4692308 20.2086957,46.0961538 C18.4069565,43.6442308 16.2156522,39.3778846 17.1895652,33.5423077 C18.6017391,25.2057692 26.8313043,27.1673077 26.8313043,27.1673077 C40.4173913,29.6192308 49.28,20.9884615 50.546087,19.5173077 C51.7147826,18.1442308 51.1304348,16.2317308 51.0330435,15.9865385 C46.8452174,6.62019231 37.5443478,0.0980769231 26.733913,0.0980769231 Z M10.3721739,28.0990385 C9.20347826,28.0990385 8.08347826,27.0201923 8.03478261,25.5980769 C7.9373913,23.8817308 11.4434783,20.4490385 15.8747826,20.1548077 C16.5565217,20.1057692 17.2382609,20.7432692 17.1895652,21.4298077 C16.9947826,23.4894231 13.6834783,28.0990385 10.3721739,28.0990385 Z" fill-rule="nonzero"></path>
                        <path d="M39.3947826,37.8086538 C35.1095652,40.5057692 29.5095652,41.1432692 29.5095652,41.1432692 C33.9895652,45.5567308 39.2,46.3903846 42.0730435,46.1451923 C44.4104348,45.9490385 45.4330435,43.5461538 43.8747826,41.8298077 C41.9269565,39.4759615 39.3947826,37.8086538 39.3947826,37.8086538 Z" fill-rule="nonzero"></path>
                        <path d="M72.8973913,14.5644231 C69.4886957,14.5644231 66.1286957,15.8884615 63.5478261,18.4875 C58.386087,23.6855769 58.386087,32.1201923 63.5478261,37.3182692 C66.1286957,39.9173077 69.5373913,41.2413462 72.8973913,41.2413462 C76.306087,41.2413462 79.666087,39.9173077 82.2469565,37.3182692 C87.4086957,32.1201923 87.4086957,23.6855769 82.2469565,18.4875 C79.7147826,15.8394231 76.306087,14.5644231 72.8973913,14.5644231 Z M78.2052174,33.1990385 C76.7930435,34.6211538 74.9426087,35.4057692 72.946087,35.4057692 C70.9495652,35.4057692 69.0991304,34.6211538 67.6869565,33.1990385 C66.2747826,31.7769231 65.4956522,29.9134615 65.4956522,27.9028846 C65.4956522,25.8923077 66.2747826,24.0288462 67.6869565,22.6067308 C69.0991304,21.1846154 70.9495652,20.4 72.946087,20.4 C74.9426087,20.4 76.7930435,21.1846154 78.2052174,22.6067308 C79.6173913,24.0288462 80.3965217,25.8923077 80.3965217,27.9028846 C80.3965217,29.9134615 79.6173913,31.7769231 78.2052174,33.1990385 Z" fill-rule="nonzero"></path>
                        <path d="M134.497391,33.1990385 C133.085217,34.6211538 131.234783,35.4057692 129.238261,35.4057692 C127.241739,35.4057692 125.391304,34.6211538 123.97913,33.1990385 C122.566957,31.7769231 121.787826,29.9134615 121.787826,27.9028846 C121.787826,25.8923077 122.566957,24.0288462 123.97913,22.6067308 C125.391304,21.1846154 127.241739,20.4 129.238261,20.4 C131.234783,20.4 133.085217,21.1846154 134.497391,22.6067308 C134.74087,22.8519231 134.984348,23.1461538 135.17913,23.4403846 L139.366957,19.3701923 C139.123478,19.0759615 138.88,18.7817308 138.587826,18.4875 C136.006957,15.8884615 132.598261,14.5644231 129.238261,14.5644231 C125.829565,14.5644231 122.469565,15.8884615 119.888696,18.4875 C114.726957,23.6855769 114.726957,32.1201923 119.888696,37.3182692 C122.469565,39.9173077 125.878261,41.2413462 129.238261,41.2413462 C132.646957,41.2413462 136.006957,39.9173077 138.587826,37.3182692 C138.88,37.0240385 139.123478,36.7298077 139.366957,36.4355769 L135.17913,32.3653846 C134.984348,32.6596154 134.74087,32.9538462 134.497391,33.1990385 Z" fill-rule="nonzero"></path>
                        <path d="M160.695652,24.5682692 C159.867826,22.7048077 157.871304,18.1932692 156.556522,15.1528846 L151.443478,15.1528846 C150.226087,17.8990385 148.229565,22.5086538 147.304348,24.5682692 L140.194783,40.6038462 L146.233043,40.6038462 L148.570435,34.9153846 C149.690435,34.9153846 158.358261,34.9153846 159.429565,34.9153846 L161.766957,40.6038462 L167.805217,40.6038462 L160.695652,24.5682692 Z M150.713043,29.6682692 C151.297391,28.2461538 151.881739,26.8730769 152.417391,25.5490385 C152.855652,24.4701923 153.293913,23.4403846 153.732174,22.3615385 L154.267826,22.3615385 C154.706087,23.4403846 155.144348,24.4701923 155.582609,25.5490385 C156.118261,26.9221154 156.702609,28.2461538 157.286957,29.6682692 C156.118261,29.6682692 151.833043,29.6682692 150.713043,29.6682692 Z" fill-rule="nonzero"></path>
                        <path d="M112.097391,22.9990385 C111.65913,19.2230769 109.175652,16.2807692 105.523478,15.4471154 C104.890435,15.3 104.208696,15.2509615 103.429565,15.2019231 C103.38087,15.2019231 103.283478,15.2019231 103.234783,15.2019231 C103.04,15.2019231 102.893913,15.1528846 102.69913,15.1528846 C102.650435,15.1528846 102.601739,15.1528846 102.553043,15.1528846 C100.556522,15.0548077 98.56,15.0548077 96.5147826,15.1038462 L90.573913,15.1038462 L90.573913,19.5173077 C90.5252174,25.4019231 90.5252174,34.5230769 90.573913,40.6038462 L96.4173913,40.6038462 C96.4173913,38.0538462 96.4173913,33.8365385 96.4173913,31.9730769 C98.8034783,32.1692308 100.118261,33.2971154 101.335652,34.2778846 C102.358261,35.1115385 104.890435,38.0048077 107.081739,40.6038462 L114.434783,40.6038462 C112.77913,38.5442308 108.006957,32.8067308 107.373913,32.0221154 C107.373913,32.0711538 112.77913,28.9326923 112.097391,22.9990385 Z M106.010435,24.0778846 C105.913043,25.9413462 104.841739,27.2653846 102.601739,27.3144231 C102.114783,27.3144231 98.2678261,27.3634615 96.5634783,27.3634615 C96.5634783,24.9115385 96.5634783,22.7048077 96.5634783,20.4 L102.553043,20.4 C104.744348,20.4 106.107826,22.0182692 106.010435,24.0778846 Z" fill-rule="nonzero"></path>
                    </g>
                </g>
            </g>
        </g>
    </g>
</svg>