<?xml version="1.0" encoding="utf-8"?>
<!-- Generator: Adobe Illustrator 21.0.0, SVG Export Plug-In . SVG Version: 6.00 Build 0)  -->
<svg version="1.1" id="Layer_1" xmlns="http://www.w3.org/2000/svg" xmlns:xlink="http://www.w3.org/1999/xlink" x="0px" y="0px"
	 viewBox="0 0 260 60" style="enable-background:new 0 0 260 60;" xml:space="preserve">
<style type="text/css">
	.st0{fill:#FFFFFF;}
	.st1{fill:#F8A400;}
	.st2{fill-rule:evenodd;clip-rule:evenodd;fill:#F8A400;}
	.st3{fill-rule:evenodd;clip-rule:evenodd;fill:#FFFFFF;}
</style>
<g id="owndata">
	<g id="data">
		<g>
			<path class="st0" d="M181.2,8.5c-0.7,0-1.3,0.2-1.7,0.7c-0.5,0.4-0.7,1-0.7,1.8v12.9c-1.1-1.4-2.5-2.4-4.1-3.2
				c-1.6-0.8-3.3-1.1-5.2-1.1c-2.3,0-4.4,0.6-6.2,1.7c-1.9,1.1-3.3,2.7-4.4,4.8c-1.1,2-1.6,4.3-1.6,6.8c0,2.5,0.6,4.7,1.7,6.8
				c1.1,2,2.7,3.6,4.8,4.8c2,1.2,4.3,1.7,6.7,1.7c2.5,0,4.7-0.6,6.7-1.7c2-1.2,3.6-2.8,4.7-4.8c1.2-2,1.7-4.3,1.7-6.8V10.9
				c0-0.7-0.2-1.3-0.7-1.8C182.5,8.7,181.9,8.5,181.2,8.5z M177.8,37.3c-0.7,1.4-1.7,2.4-3,3.2c-1.3,0.8-2.7,1.2-4.3,1.2
				c-1.6,0-3-0.4-4.3-1.2c-1.3-0.8-2.3-1.9-3.1-3.2c-0.7-1.4-1.1-2.9-1.1-4.6c0-1.7,0.4-3.2,1.1-4.6c0.7-1.4,1.8-2.4,3.1-3.2
				c1.3-0.8,2.7-1.2,4.3-1.2c1.6,0,3,0.4,4.3,1.2c1.3,0.8,2.3,1.8,3,3.2c0.7,1.4,1.1,2.9,1.1,4.6C178.9,34.4,178.6,35.9,177.8,37.3z
				 M207.9,21.2c-2-1.2-4.2-1.7-6.7-1.7c-2.5,0-4.7,0.6-6.7,1.7c-2,1.2-3.6,2.8-4.8,4.8c-1.1,2-1.7,4.3-1.7,6.8
				c0,2.5,0.5,4.7,1.6,6.8c1.1,2,2.5,3.6,4.4,4.8c1.9,1.1,3.9,1.7,6.2,1.7c1.8,0,3.6-0.4,5.2-1.1c1.6-0.8,2.9-1.8,4.1-3.2v1.8
				c0,0.7,0.2,1.3,0.7,1.7c0.5,0.5,1,0.7,1.7,0.7c0.7,0,1.3-0.2,1.7-0.7c0.5-0.5,0.7-1,0.7-1.7V32.8c0-2.5-0.6-4.7-1.7-6.8
				C211.4,24,209.9,22.4,207.9,21.2z M208.6,37.3c-0.7,1.4-1.7,2.4-3,3.2c-1.3,0.8-2.7,1.2-4.3,1.2c-1.6,0-3-0.4-4.3-1.2
				c-1.3-0.8-2.3-1.8-3.1-3.2c-0.7-1.4-1.1-2.9-1.1-4.6c0-1.7,0.4-3.2,1.1-4.6c0.7-1.4,1.8-2.4,3.1-3.2c1.3-0.8,2.7-1.2,4.3-1.2
				c1.6,0,3,0.4,4.3,1.2c1.3,0.8,2.3,1.9,3,3.2c0.7,1.4,1.1,2.9,1.1,4.6C209.7,34.5,209.3,36,208.6,37.3z M229.9,41h-1.6
				c-1,0-1.9-0.4-2.6-1.3c-0.7-0.9-1.1-1.9-1.1-3.2V24.7h4.1c0.7,0,1.2-0.2,1.6-0.6c0.4-0.4,0.6-0.9,0.6-1.4c0-0.6-0.2-1.1-0.6-1.5
				c-0.4-0.4-1-0.6-1.6-0.6h-4.1v-6.9c0-0.7-0.2-1.3-0.7-1.7c-0.4-0.4-1-0.7-1.7-0.7c-0.7,0-1.3,0.2-1.7,0.7c-0.4,0.4-0.7,1-0.7,1.7
				v6.9h-2.2c-0.7,0-1.2,0.2-1.6,0.6c-0.4,0.4-0.6,0.9-0.6,1.5c0,0.6,0.2,1.1,0.6,1.4c0.4,0.4,1,0.6,1.6,0.6h2.2v11.8
				c0,1.8,0.4,3.3,1.1,4.7c0.7,1.4,1.7,2.5,3,3.3c1.3,0.8,2.7,1.2,4.3,1.2h0.9c0.8,0,1.5-0.2,2-0.7c0.5-0.4,0.8-1,0.8-1.7
				c0-0.7-0.2-1.3-0.6-1.7C230.9,41.3,230.4,41,229.9,41z M258.3,26c-1.2-2-2.7-3.6-4.7-4.8c-2-1.2-4.2-1.7-6.7-1.7
				c-2.5,0-4.7,0.6-6.7,1.7c-2,1.2-3.6,2.8-4.8,4.8c-1.1,2-1.7,4.3-1.7,6.8c0,2.5,0.5,4.7,1.6,6.8c1.1,2,2.5,3.6,4.4,4.8
				c1.9,1.1,3.9,1.7,6.2,1.7c1.8,0,3.6-0.4,5.2-1.1c1.6-0.8,2.9-1.8,4.1-3.2v1.8c0,0.7,0.2,1.3,0.7,1.7c0.5,0.5,1,0.7,1.7,0.7
				c0.7,0,1.3-0.2,1.7-0.7c0.5-0.5,0.7-1,0.7-1.7V32.8C260,30.3,259.4,28,258.3,26z M254.2,37.3c-0.7,1.4-1.7,2.4-3,3.2
				c-1.3,0.8-2.7,1.2-4.3,1.2c-1.6,0-3-0.4-4.3-1.2c-1.3-0.8-2.3-1.8-3.1-3.2c-0.7-1.4-1.1-2.9-1.1-4.6c0-1.7,0.4-3.2,1.1-4.6
				c0.7-1.4,1.8-2.4,3.1-3.2c1.3-0.8,2.7-1.2,4.3-1.2c1.6,0,3,0.4,4.3,1.2c1.3,0.8,2.3,1.9,3,3.2c0.7,1.4,1.1,2.9,1.1,4.6
				C255.3,34.5,255,36,254.2,37.3z"/>
		</g>
	</g>
	<g id="own">
		<g>
			<path class="st1" d="M87.9,21.2c-2-1.1-4.2-1.7-6.8-1.7c-2.5,0-4.8,0.6-6.8,1.7c-2,1.1-3.6,2.7-4.7,4.7c-1.1,2-1.7,4.3-1.7,6.9
				c0,2.5,0.6,4.8,1.7,6.8c1.1,2,2.7,3.6,4.7,4.7c2,1.1,4.3,1.7,6.8,1.7c2.5,0,4.8-0.6,6.8-1.7c2-1.1,3.5-2.7,4.7-4.7
				c1.1-2,1.7-4.3,1.7-6.8c0-2.6-0.6-4.9-1.7-6.9C91.4,23.9,89.8,22.3,87.9,21.2z M88.5,37.4c-0.7,1.4-1.7,2.4-3,3.2
				c-1.3,0.8-2.7,1.1-4.4,1.1c-1.6,0-3.1-0.4-4.4-1.1c-1.3-0.8-2.3-1.8-3-3.2c-0.7-1.4-1.1-2.9-1.1-4.6s0.4-3.3,1.1-4.6
				c0.7-1.4,1.7-2.4,3-3.2c1.3-0.8,2.7-1.1,4.4-1.1c1.6,0,3.1,0.4,4.4,1.1c1.3,0.8,2.3,1.8,3,3.2c0.7,1.4,1.1,2.9,1.1,4.6
				S89.2,36,88.5,37.4z M124.9,19.7c-1.2,0-2,0.7-2.5,2.2l-5.3,16.4l-4.3-16.8c-0.2-0.5-0.4-1-0.8-1.3c-0.4-0.3-0.9-0.5-1.5-0.5
				c-0.6,0-1.2,0.2-1.6,0.5c-0.4,0.3-0.7,0.8-0.8,1.3L103.3,38l-5.2-16.1c-0.3-0.8-0.6-1.3-1-1.7c-0.4-0.4-0.9-0.5-1.5-0.5
				c-1.3,0-2,0.7-2,2c0,0.5,0.1,0.9,0.2,1.3l7.1,21.2c0.2,0.4,0.5,0.8,0.9,1.1c0.4,0.3,0.9,0.5,1.4,0.5c0.5,0,1-0.2,1.4-0.5
				c0.4-0.3,0.7-0.7,0.9-1.1l4.9-17.3l4.7,17.3c0.1,0.4,0.4,0.8,0.8,1.1c0.4,0.3,0.9,0.5,1.5,0.5c0.5,0,1-0.2,1.4-0.5
				c0.4-0.3,0.7-0.7,0.9-1.1l7.1-21.2c0.2-0.4,0.2-0.9,0.2-1.4c0-0.6-0.2-1.1-0.5-1.4C126.1,19.9,125.6,19.7,124.9,19.7z
				 M152.1,25.1c-1-1.8-2.4-3.2-4.1-4.2c-1.8-1-3.7-1.4-5.9-1.4c-1.6,0-3.1,0.3-4.5,0.8c-1.4,0.6-2.6,1.3-3.6,2.4v-0.5
				c0-0.7-0.2-1.3-0.7-1.8c-0.4-0.4-1-0.7-1.8-0.7c-0.7,0-1.3,0.2-1.7,0.7c-0.5,0.4-0.7,1-0.7,1.8v21.3c0,0.7,0.2,1.3,0.7,1.7
				c0.5,0.5,1,0.7,1.7,0.7c0.7,0,1.3-0.2,1.8-0.7c0.4-0.5,0.7-1,0.7-1.7V29.9c0-1.1,0.3-2.2,0.9-3.1c0.6-0.9,1.5-1.7,2.6-2.2
				c1.1-0.5,2.3-0.8,3.7-0.8c2.3,0,4.1,0.7,5.5,2c1.4,1.3,2.1,3.3,2.1,5.9v11.8c0,0.7,0.2,1.3,0.7,1.7c0.5,0.5,1,0.7,1.7,0.7
				c0.7,0,1.3-0.2,1.7-0.7c0.5-0.5,0.7-1,0.7-1.7V31.7C153.6,29.1,153.1,26.9,152.1,25.1z"/>
		</g>
	</g>
</g>
<g id="od-icon">
	<g id="o">
		<g>
			<path class="st2" d="M21,18C9.4,18,0,27.4,0,39c0,11.6,9.4,21,21,21c11.6,0,21-9.4,21-21C42,27.4,32.6,18,21,18z M21,49.5
				c-5.8,0-10.5-4.7-10.5-10.5c0-5.8,4.7-10.5,10.5-10.5c5.8,0,10.5,4.7,10.5,10.5C31.5,44.8,26.8,49.5,21,49.5z"/>
		</g>
	</g>
	<path id="d" class="st3" d="M58.9,39c0,11.6-9.4,21-21,21c-11.6,0-21-9.4-21-21c0-11.6,9.4-21,21-21c3.8,0,7.4,1,10.5,2.8V6.5
		c0-2.9,2.3-5.2,5.2-5.2c2.9,0,5.2,2.3,5.2,5.2V38c0,0.1,0,0.2,0,0.4C58.8,38.6,58.9,38.8,58.9,39z M37.9,28.5
		c-5.8,0-10.5,4.7-10.5,10.5s4.7,10.5,10.5,10.5c5.8,0,10.5-4.7,10.5-10.5S43.7,28.5,37.9,28.5z"/>
	<g id="o-top">
		<g>
			<path class="st2" d="M21,18C9.4,18,0,27.4,0,39h10.5c0-5.8,4.7-10.5,10.5-10.5c5.8,0,10.5,4.7,10.5,10.5H42
				C42,27.4,32.6,18,21,18z"/>
		</g>
	</g>
</g>
<g>
	<path class="st0" d="M69.5,58.7c-0.1-0.1-0.1-0.2-0.1-0.4V49c0-0.1,0-0.3,0.1-0.4c0.1-0.1,0.2-0.1,0.4-0.1h2.4c1,0,1.9,0.2,2.7,0.7
		c0.8,0.4,1.4,1.1,1.8,1.8c0.4,0.8,0.7,1.7,0.7,2.7s-0.2,1.9-0.7,2.7c-0.4,0.8-1,1.4-1.8,1.8c-0.8,0.4-1.7,0.7-2.7,0.7h-2.4
		C69.7,58.8,69.6,58.8,69.5,58.7z M72.2,57.9c0.8,0,1.5-0.2,2.1-0.5c0.6-0.4,1.1-0.9,1.5-1.5c0.4-0.6,0.5-1.4,0.5-2.2
		s-0.2-1.5-0.5-2.2c-0.4-0.6-0.8-1.1-1.5-1.5c-0.6-0.4-1.3-0.5-2.1-0.5h-1.9v8.5H72.2z"/>
	<path class="st0" d="M84.2,52c0.5,0.3,0.9,0.7,1.2,1.3c0.3,0.5,0.4,1.2,0.4,1.8c0,0.1,0,0.3-0.1,0.3c-0.1,0.1-0.2,0.1-0.3,0.1h-5.3
		c0.1,0.7,0.4,1.3,0.8,1.8c0.5,0.4,1.1,0.7,1.9,0.7c0.3,0,0.6-0.1,1-0.2c0.3-0.1,0.6-0.2,0.8-0.4c0.1-0.1,0.2-0.1,0.4-0.1
		c0.1,0,0.2,0,0.3,0.1c0.1,0.1,0.2,0.2,0.2,0.4c0,0.1,0,0.2-0.1,0.3c-0.3,0.2-0.7,0.5-1.1,0.6s-0.9,0.2-1.3,0.2
		c-0.7,0-1.3-0.2-1.9-0.5c-0.6-0.3-1-0.7-1.3-1.3c-0.3-0.6-0.5-1.2-0.5-1.9c0-0.7,0.1-1.4,0.4-1.9c0.3-0.6,0.7-1,1.2-1.3
		c0.5-0.3,1.1-0.5,1.8-0.5C83.1,51.5,83.7,51.7,84.2,52z M80.8,53.1c-0.4,0.4-0.7,1-0.8,1.6h4.8c-0.1-0.7-0.3-1.2-0.7-1.6
		s-1-0.6-1.6-0.6C81.8,52.4,81.2,52.7,80.8,53.1z"/>
	<path class="st0" d="M88.6,58.4c-0.5-0.3-1-0.8-1.3-1.3c-0.3-0.6-0.5-1.2-0.5-1.9c0-0.7,0.1-1.3,0.4-1.9s0.7-1,1.2-1.3
		c0.5-0.3,1.1-0.5,1.8-0.5c1.1,0,2,0.4,2.7,1.3c0.1,0.1,0.1,0.2,0.1,0.3c0,0.1-0.1,0.3-0.2,0.4c-0.1,0.1-0.2,0.1-0.3,0.1
		c-0.1,0-0.3-0.1-0.4-0.2c-0.3-0.3-0.6-0.5-0.9-0.7s-0.7-0.2-1.1-0.2c-0.5,0-0.9,0.1-1.3,0.4c-0.4,0.2-0.7,0.6-0.9,1
		s-0.3,0.9-0.3,1.4c0,0.5,0.1,1,0.3,1.4s0.5,0.7,0.9,1s0.9,0.4,1.4,0.4c0.7,0,1.3-0.2,1.7-0.6c0.1-0.1,0.2-0.1,0.4-0.1
		c0.1,0,0.2,0,0.3,0.1c0.1,0.1,0.2,0.2,0.2,0.4c0,0.1,0,0.2-0.1,0.3c-0.6,0.6-1.4,0.9-2.4,0.9C89.8,58.9,89.1,58.7,88.6,58.4z"/>
	<path class="st0" d="M99.9,52c0.5,0.3,0.9,0.7,1.2,1.3c0.3,0.5,0.4,1.2,0.4,1.8c0,0.1,0,0.3-0.1,0.3c-0.1,0.1-0.2,0.1-0.3,0.1h-5.3
		c0.1,0.7,0.4,1.3,0.8,1.8c0.5,0.4,1.1,0.7,1.9,0.7c0.3,0,0.6-0.1,1-0.2c0.3-0.1,0.6-0.2,0.8-0.4c0.1-0.1,0.2-0.1,0.4-0.1
		c0.1,0,0.2,0,0.3,0.1c0.1,0.1,0.2,0.2,0.2,0.4c0,0.1,0,0.2-0.1,0.3c-0.3,0.2-0.7,0.5-1.1,0.6s-0.9,0.2-1.3,0.2
		c-0.7,0-1.3-0.2-1.9-0.5c-0.6-0.3-1-0.7-1.3-1.3c-0.3-0.6-0.5-1.2-0.5-1.9c0-0.7,0.1-1.4,0.4-1.9c0.3-0.6,0.7-1,1.2-1.3
		c0.5-0.3,1.1-0.5,1.8-0.5C98.8,51.5,99.4,51.7,99.9,52z M96.5,53.1c-0.4,0.4-0.7,1-0.8,1.6h4.8c-0.1-0.7-0.3-1.2-0.7-1.6
		s-1-0.6-1.6-0.6C97.5,52.4,96.9,52.7,96.5,53.1z"/>
	<path class="st0" d="M108.3,51.9c0.5,0.3,0.9,0.6,1.2,1.2c0.3,0.5,0.4,1.1,0.4,1.8v3.4c0,0.1,0,0.3-0.1,0.4
		c-0.1,0.1-0.2,0.1-0.4,0.1c-0.1,0-0.3,0-0.4-0.1c-0.1-0.1-0.1-0.2-0.1-0.4v-3.4c0-0.8-0.2-1.4-0.7-1.8c-0.4-0.4-1-0.6-1.7-0.6
		c-0.4,0-0.8,0.1-1.2,0.3c-0.3,0.2-0.6,0.4-0.8,0.7s-0.3,0.6-0.3,1v3.9c0,0.1,0,0.3-0.1,0.4c-0.1,0.1-0.2,0.1-0.4,0.1
		s-0.3,0-0.4-0.1c-0.1-0.1-0.1-0.2-0.1-0.4v-6.2c0-0.2,0-0.3,0.1-0.4c0.1-0.1,0.2-0.1,0.4-0.1s0.3,0,0.4,0.1
		c0.1,0.1,0.1,0.2,0.1,0.4v0.4c0.3-0.3,0.6-0.6,1.1-0.8c0.4-0.2,0.9-0.3,1.3-0.3C107.3,51.5,107.8,51.7,108.3,51.9z"/>
	<path class="st0" d="M115.7,58c0.1,0.1,0.1,0.2,0.1,0.4c0,0.1-0.1,0.3-0.2,0.4c-0.1,0.1-0.2,0.1-0.4,0.1H115
		c-0.5,0-0.9-0.1-1.3-0.3c-0.4-0.2-0.7-0.5-0.9-0.9c-0.2-0.4-0.3-0.8-0.3-1.3v-3.5h-0.9c-0.1,0-0.3,0-0.3-0.1
		c-0.1-0.1-0.1-0.2-0.1-0.3c0-0.1,0-0.2,0.1-0.3c0.1-0.1,0.2-0.1,0.3-0.1h0.9v-2c0-0.1,0-0.3,0.1-0.4c0.1-0.1,0.2-0.1,0.4-0.1
		s0.3,0,0.4,0.1c0.1,0.1,0.1,0.2,0.1,0.4v2h1.5c0.1,0,0.3,0,0.3,0.1c0.1,0.1,0.1,0.2,0.1,0.3c0,0.1,0,0.2-0.1,0.3
		c-0.1,0.1-0.2,0.1-0.3,0.1h-1.5v3.5c0,0.4,0.1,0.8,0.4,1.1c0.3,0.3,0.6,0.4,1,0.4h0.4C115.5,57.8,115.6,57.9,115.7,58z"/>
	<path class="st0" d="M121.6,51.7c0.2,0.1,0.3,0.2,0.3,0.4c0,0.1,0,0.1,0,0.1c0,0.1-0.1,0.2-0.2,0.3s-0.2,0.1-0.3,0.1
		c-0.1,0-0.2,0-0.4,0c-0.1,0-0.2,0-0.3,0c-0.7,0-1.2,0.2-1.6,0.5c-0.4,0.4-0.6,0.8-0.6,1.4v4c0,0.2,0,0.3-0.1,0.4
		c-0.1,0.1-0.2,0.1-0.4,0.1s-0.3,0-0.4-0.1c-0.1-0.1-0.1-0.2-0.1-0.4v-6.2c0-0.2,0-0.3,0.1-0.4c0.1-0.1,0.2-0.1,0.4-0.1
		s0.3,0,0.4,0.1c0.1,0.1,0.1,0.2,0.1,0.4v0.6c0.3-0.4,0.6-0.7,1-0.9c0.4-0.2,0.8-0.3,1.3-0.3C121.1,51.5,121.4,51.6,121.6,51.7z"/>
	<path class="st0" d="M128.1,52c0.6,0.3,1,0.8,1.3,1.3c0.3,0.6,0.5,1.2,0.5,1.9v3.1c0,0.1,0,0.3-0.1,0.4c-0.1,0.1-0.2,0.1-0.4,0.1
		s-0.3,0-0.4-0.1c-0.1-0.1-0.1-0.2-0.1-0.4v-0.8c-0.3,0.4-0.7,0.8-1.2,1s-1,0.4-1.6,0.4c-0.7,0-1.3-0.2-1.8-0.5s-1-0.8-1.3-1.3
		c-0.3-0.6-0.5-1.2-0.5-1.9c0-0.7,0.2-1.3,0.5-1.9c0.3-0.6,0.8-1,1.3-1.3c0.6-0.3,1.2-0.5,1.9-0.5C127,51.5,127.6,51.7,128.1,52z
		 M127.6,57.6c0.4-0.2,0.7-0.6,1-1c0.2-0.4,0.4-0.9,0.4-1.4s-0.1-1-0.4-1.4c-0.2-0.4-0.6-0.7-1-1s-0.9-0.4-1.4-0.4
		c-0.5,0-1,0.1-1.4,0.4s-0.7,0.6-1,1c-0.2,0.4-0.4,0.9-0.4,1.4s0.1,1,0.4,1.4s0.6,0.7,1,1s0.9,0.4,1.4,0.4
		C126.8,58,127.2,57.9,127.6,57.6z"/>
	<path class="st0" d="M132.2,58.2c-0.3-0.4-0.5-1-0.5-1.6V49c0-0.2,0-0.3,0.1-0.4c0.1-0.1,0.2-0.1,0.4-0.1c0.2,0,0.3,0,0.4,0.1
		c0.1,0.1,0.1,0.2,0.1,0.4v7.5c0,0.4,0.1,0.7,0.2,0.9c0.2,0.2,0.3,0.4,0.6,0.4h0.3c0.1,0,0.2,0,0.3,0.1c0.1,0.1,0.1,0.2,0.1,0.4
		c0,0.1-0.1,0.3-0.2,0.4c-0.1,0.1-0.3,0.1-0.4,0.1h-0.2C133,58.8,132.5,58.6,132.2,58.2z"/>
	<path class="st0" d="M135.9,50c-0.1-0.1-0.2-0.3-0.2-0.5c0-0.2,0.1-0.4,0.2-0.5c0.1-0.1,0.3-0.2,0.5-0.2c0.2,0,0.4,0.1,0.5,0.2
		c0.1,0.1,0.2,0.3,0.2,0.5c0,0.2-0.1,0.4-0.2,0.5c-0.1,0.1-0.3,0.2-0.5,0.2C136.2,50.2,136,50.2,135.9,50z M136,58.7
		c-0.1-0.1-0.1-0.2-0.1-0.4v-6.2c0-0.2,0-0.3,0.1-0.4s0.2-0.1,0.4-0.1s0.3,0,0.4,0.1c0.1,0.1,0.1,0.2,0.1,0.4v6.2
		c0,0.2,0,0.3-0.1,0.4c-0.1,0.1-0.2,0.1-0.4,0.1S136.1,58.8,136,58.7z"/>
	<path class="st0" d="M145,58.4c0,0.3-0.2,0.5-0.5,0.5h-4.9c-0.3,0-0.5-0.2-0.5-0.5c0-0.1,0-0.3,0.1-0.3l4.3-5.5h-4
		c-0.3,0-0.5-0.2-0.5-0.5c0-0.3,0.2-0.5,0.5-0.5h4.9c0.3,0,0.5,0.2,0.5,0.5c0,0.1,0,0.3-0.1,0.3l-4.3,5.5h4
		C144.8,57.9,145,58.1,145,58.4z"/>
	<path class="st0" d="M151.3,52c0.5,0.3,0.9,0.7,1.2,1.3c0.3,0.5,0.4,1.2,0.4,1.8c0,0.1,0,0.3-0.1,0.3c-0.1,0.1-0.2,0.1-0.3,0.1
		h-5.3c0.1,0.7,0.4,1.3,0.8,1.8c0.5,0.4,1.1,0.7,1.9,0.7c0.3,0,0.6-0.1,1-0.2s0.6-0.2,0.8-0.4c0.1-0.1,0.2-0.1,0.4-0.1
		c0.1,0,0.2,0,0.3,0.1c0.1,0.1,0.2,0.2,0.2,0.4c0,0.1,0,0.2-0.1,0.3c-0.3,0.2-0.7,0.5-1.1,0.6s-0.9,0.2-1.3,0.2
		c-0.7,0-1.3-0.2-1.9-0.5c-0.6-0.3-1-0.7-1.3-1.3s-0.5-1.2-0.5-1.9c0-0.7,0.1-1.4,0.4-1.9c0.3-0.6,0.7-1,1.2-1.3
		c0.5-0.3,1.1-0.5,1.8-0.5C150.2,51.5,150.8,51.7,151.3,52z M147.9,53.1c-0.4,0.4-0.7,1-0.8,1.6h4.8c-0.1-0.7-0.3-1.2-0.7-1.6
		s-1-0.6-1.6-0.6C148.9,52.4,148.3,52.7,147.9,53.1z"/>
	<path class="st0" d="M161.3,52.1v3.1c0,0.7-0.2,1.3-0.5,1.9c-0.3,0.6-0.8,1-1.3,1.3s-1.2,0.5-1.9,0.5c-0.7,0-1.3-0.2-1.9-0.5
		c-0.6-0.3-1-0.8-1.3-1.3c-0.3-0.6-0.5-1.2-0.5-1.9s0.2-1.3,0.5-1.9c0.3-0.6,0.7-1,1.3-1.3c0.5-0.3,1.1-0.5,1.8-0.5
		c0.6,0,1.1,0.1,1.6,0.4c0.5,0.2,0.9,0.6,1.2,1V49c0-0.1,0-0.3,0.1-0.4c0.1-0.1,0.2-0.1,0.4-0.1c0.1,0,0.3,0,0.4,0.1
		c0.1,0.1,0.1,0.2,0.1,0.4v3C161.3,52,161.3,52.1,161.3,52.1z M159,57.6c0.4-0.2,0.7-0.6,1-1c0.2-0.4,0.4-0.9,0.4-1.4
		c0-0.1,0-0.3,0-0.3c0,0,0,0,0-0.1c-0.1-0.7-0.4-1.3-0.9-1.7c-0.5-0.4-1.1-0.7-1.8-0.7c-0.5,0-1,0.1-1.4,0.4c-0.4,0.2-0.7,0.6-1,1
		c-0.2,0.4-0.4,0.9-0.4,1.4c0,0.5,0.1,1,0.4,1.4c0.2,0.4,0.6,0.7,1,1c0.4,0.2,0.9,0.4,1.4,0.4C158.1,58,158.6,57.9,159,57.6z"/>
	<path class="st0" d="M167.8,58.7c-0.1-0.1-0.1-0.2-0.1-0.4V49c0-0.1,0-0.3,0.1-0.4c0.1-0.1,0.2-0.1,0.4-0.1h2.4
		c1,0,1.9,0.2,2.7,0.7s1.4,1.1,1.8,1.8c0.4,0.8,0.7,1.7,0.7,2.7s-0.2,1.9-0.7,2.7c-0.4,0.8-1,1.4-1.8,1.8c-0.8,0.4-1.7,0.7-2.7,0.7
		h-2.4C168,58.8,167.9,58.8,167.8,58.7z M170.6,57.9c0.8,0,1.5-0.2,2.1-0.5c0.6-0.4,1.1-0.9,1.5-1.5c0.4-0.6,0.5-1.4,0.5-2.2
		s-0.2-1.5-0.5-2.2c-0.4-0.6-0.8-1.1-1.5-1.5c-0.6-0.4-1.3-0.5-2.1-0.5h-1.9v8.5H170.6z"/>
	<path class="st0" d="M182.9,52c0.6,0.3,1,0.8,1.3,1.3c0.3,0.6,0.5,1.2,0.5,1.9v3.1c0,0.1,0,0.3-0.1,0.4c-0.1,0.1-0.2,0.1-0.4,0.1
		c-0.2,0-0.3,0-0.4-0.1c-0.1-0.1-0.1-0.2-0.1-0.4v-0.8c-0.3,0.4-0.7,0.8-1.2,1c-0.5,0.2-1,0.4-1.6,0.4c-0.7,0-1.3-0.2-1.8-0.5
		c-0.5-0.3-1-0.8-1.3-1.3s-0.5-1.2-0.5-1.9c0-0.7,0.2-1.3,0.5-1.9c0.3-0.6,0.8-1,1.3-1.3c0.6-0.3,1.2-0.5,1.9-0.5
		C181.7,51.5,182.3,51.7,182.9,52z M182.4,57.6c0.4-0.2,0.7-0.6,1-1s0.4-0.9,0.4-1.4s-0.1-1-0.4-1.4c-0.2-0.4-0.6-0.7-1-1
		s-0.9-0.4-1.4-0.4c-0.5,0-1,0.1-1.4,0.4c-0.4,0.2-0.7,0.6-1,1c-0.2,0.4-0.4,0.9-0.4,1.4s0.1,1,0.4,1.4s0.6,0.7,1,1
		c0.4,0.2,0.9,0.4,1.4,0.4C181.5,58,182,57.9,182.4,57.6z"/>
	<path class="st0" d="M190.2,58c0.1,0.1,0.1,0.2,0.1,0.4c0,0.1-0.1,0.3-0.2,0.4c-0.1,0.1-0.2,0.1-0.4,0.1h-0.3
		c-0.5,0-0.9-0.1-1.3-0.3s-0.7-0.5-0.9-0.9c-0.2-0.4-0.3-0.8-0.3-1.3v-3.5h-0.9c-0.1,0-0.3,0-0.3-0.1c-0.1-0.1-0.1-0.2-0.1-0.3
		c0-0.1,0-0.2,0.1-0.3s0.2-0.1,0.3-0.1h0.9v-2c0-0.1,0-0.3,0.1-0.4c0.1-0.1,0.2-0.1,0.4-0.1s0.3,0,0.4,0.1c0.1,0.1,0.1,0.2,0.1,0.4
		v2h1.5c0.1,0,0.3,0,0.3,0.1s0.1,0.2,0.1,0.3c0,0.1,0,0.2-0.1,0.3c-0.1,0.1-0.2,0.1-0.3,0.1h-1.5v3.5c0,0.4,0.1,0.8,0.4,1.1
		c0.3,0.3,0.6,0.4,1,0.4h0.4C190,57.8,190.1,57.9,190.2,58z"/>
	<path class="st0" d="M197.1,52c0.6,0.3,1,0.8,1.3,1.3c0.3,0.6,0.5,1.2,0.5,1.9v3.1c0,0.1,0,0.3-0.1,0.4c-0.1,0.1-0.2,0.1-0.4,0.1
		c-0.2,0-0.3,0-0.4-0.1c-0.1-0.1-0.1-0.2-0.1-0.4v-0.8c-0.3,0.4-0.7,0.8-1.2,1c-0.5,0.2-1,0.4-1.6,0.4c-0.7,0-1.3-0.2-1.8-0.5
		c-0.5-0.3-1-0.8-1.3-1.3s-0.5-1.2-0.5-1.9c0-0.7,0.2-1.3,0.5-1.9c0.3-0.6,0.8-1,1.3-1.3c0.6-0.3,1.2-0.5,1.9-0.5
		C195.9,51.5,196.6,51.7,197.1,52z M196.6,57.6c0.4-0.2,0.7-0.6,1-1s0.4-0.9,0.4-1.4s-0.1-1-0.4-1.4c-0.2-0.4-0.6-0.7-1-1
		s-0.9-0.4-1.4-0.4c-0.5,0-1,0.1-1.4,0.4c-0.4,0.2-0.7,0.6-1,1c-0.2,0.4-0.4,0.9-0.4,1.4s0.1,1,0.4,1.4s0.6,0.7,1,1
		c0.4,0.2,0.9,0.4,1.4,0.4C195.8,58,196.2,57.9,196.6,57.6z"/>
	<path class="st0" d="M205.1,58.7c-0.1-0.1-0.1-0.2-0.1-0.4V49c0-0.1,0-0.3,0.1-0.4c0.1-0.1,0.2-0.1,0.4-0.1c0.2,0,0.3,0.1,0.4,0.2
		l6.3,8.3v-8c0-0.1,0.1-0.3,0.2-0.4c0.1-0.1,0.2-0.1,0.4-0.1c0.1,0,0.3,0,0.4,0.1c0.1,0.1,0.1,0.2,0.1,0.4v9.3c0,0.1,0,0.3-0.1,0.4
		c-0.1,0.1-0.2,0.2-0.4,0.2c-0.2,0-0.3-0.1-0.4-0.2l-6.3-8.3v8c0,0.1,0,0.3-0.1,0.4c-0.1,0.1-0.2,0.2-0.4,0.2
		C205.3,58.8,205.2,58.8,205.1,58.7z"/>
	<path class="st0" d="M220.5,52c0.5,0.3,0.9,0.7,1.2,1.3c0.3,0.5,0.4,1.2,0.4,1.8c0,0.1,0,0.3-0.1,0.3c-0.1,0.1-0.2,0.1-0.3,0.1
		h-5.3c0.1,0.7,0.4,1.3,0.8,1.8c0.5,0.4,1.1,0.7,1.9,0.7c0.3,0,0.6-0.1,1-0.2s0.6-0.2,0.8-0.4c0.1-0.1,0.2-0.1,0.4-0.1
		c0.1,0,0.2,0,0.3,0.1c0.1,0.1,0.2,0.2,0.2,0.4c0,0.1,0,0.2-0.1,0.3c-0.3,0.2-0.7,0.5-1.1,0.6s-0.9,0.2-1.3,0.2
		c-0.7,0-1.3-0.2-1.9-0.5c-0.6-0.3-1-0.7-1.3-1.3s-0.5-1.2-0.5-1.9c0-0.7,0.1-1.4,0.4-1.9c0.3-0.6,0.7-1,1.2-1.3
		c0.5-0.3,1.1-0.5,1.8-0.5C219.4,51.5,220,51.7,220.5,52z M217.1,53.1c-0.4,0.4-0.7,1-0.8,1.6h4.8c-0.1-0.7-0.3-1.2-0.7-1.6
		s-1-0.6-1.6-0.6C218.1,52.4,217.5,52.7,217.1,53.1z"/>
	<path class="st0" d="M227.3,58c0.1,0.1,0.1,0.2,0.1,0.4c0,0.1-0.1,0.3-0.2,0.4c-0.1,0.1-0.2,0.1-0.4,0.1h-0.3
		c-0.5,0-0.9-0.1-1.3-0.3s-0.7-0.5-0.9-0.9c-0.2-0.4-0.3-0.8-0.3-1.3v-3.5h-0.9c-0.1,0-0.3,0-0.3-0.1c-0.1-0.1-0.1-0.2-0.1-0.3
		c0-0.1,0-0.2,0.1-0.3s0.2-0.1,0.3-0.1h0.9v-2c0-0.1,0-0.3,0.1-0.4c0.1-0.1,0.2-0.1,0.4-0.1s0.3,0,0.4,0.1c0.1,0.1,0.1,0.2,0.1,0.4
		v2h1.5c0.1,0,0.3,0,0.3,0.1s0.1,0.2,0.1,0.3c0,0.1,0,0.2-0.1,0.3c-0.1,0.1-0.2,0.1-0.3,0.1h-1.5v3.5c0,0.4,0.1,0.8,0.4,1.1
		c0.3,0.3,0.6,0.4,1,0.4h0.4C227.1,57.8,227.2,57.9,227.3,58z"/>
	<path class="st0" d="M237.4,51.7c0.1,0.1,0.1,0.2,0.1,0.3c0,0.1,0,0.2-0.1,0.3l-2.1,6.2c0,0.1-0.1,0.2-0.2,0.2s-0.2,0.1-0.3,0.1
		c-0.1,0-0.2,0-0.3-0.1c-0.1-0.1-0.2-0.1-0.2-0.2l-1.6-5.3l-1.6,5.3c0,0.1-0.1,0.2-0.2,0.2c-0.1,0.1-0.2,0.1-0.3,0.1
		c-0.1,0-0.2,0-0.3-0.1c-0.1-0.1-0.1-0.1-0.2-0.2l-2.1-6.2c0-0.1,0-0.2,0-0.3c0-0.3,0.1-0.4,0.4-0.4c0.2,0,0.4,0.1,0.5,0.4l1.7,5.2
		l1.6-5.1c0-0.1,0.1-0.2,0.2-0.3c0.1-0.1,0.2-0.1,0.3-0.1s0.2,0,0.3,0.1c0.1,0.1,0.1,0.2,0.2,0.3l1.5,5.1l1.7-5.1
		c0.1-0.3,0.3-0.4,0.5-0.4C237.2,51.6,237.3,51.6,237.4,51.7z"/>
	<path class="st0" d="M240,58.4c-0.6-0.3-1-0.8-1.3-1.3c-0.3-0.6-0.5-1.2-0.5-1.9c0-0.7,0.2-1.3,0.5-1.9c0.3-0.6,0.8-1,1.3-1.3
		c0.6-0.3,1.2-0.5,1.9-0.5c0.7,0,1.3,0.2,1.9,0.5c0.6,0.3,1,0.8,1.3,1.3c0.3,0.6,0.5,1.2,0.5,1.9c0,0.7-0.2,1.3-0.5,1.9
		s-0.8,1-1.3,1.3c-0.6,0.3-1.2,0.5-1.9,0.5C241.2,58.9,240.6,58.7,240,58.4z M243.3,57.6c0.4-0.2,0.7-0.6,1-1s0.3-0.9,0.3-1.4
		c0-0.5-0.1-1-0.3-1.4c-0.2-0.4-0.5-0.7-1-1c-0.4-0.2-0.9-0.4-1.4-0.4c-0.5,0-1,0.1-1.4,0.4c-0.4,0.2-0.7,0.6-1,1
		c-0.2,0.4-0.4,0.9-0.4,1.4c0,0.5,0.1,1,0.4,1.4s0.6,0.7,1,1c0.4,0.2,0.9,0.4,1.4,0.4C242.4,58,242.9,57.9,243.3,57.6z"/>
	<path class="st0" d="M251.7,51.7c0.2,0.1,0.3,0.2,0.3,0.4c0,0.1,0,0.1,0,0.1c0,0.1-0.1,0.2-0.2,0.3s-0.2,0.1-0.3,0.1
		c-0.1,0-0.2,0-0.4,0c-0.1,0-0.2,0-0.3,0c-0.7,0-1.2,0.2-1.6,0.5c-0.4,0.4-0.6,0.8-0.6,1.4v4c0,0.2,0,0.3-0.1,0.4s-0.2,0.1-0.4,0.1
		c-0.2,0-0.3,0-0.4-0.1s-0.1-0.2-0.1-0.4v-6.2c0-0.2,0-0.3,0.1-0.4s0.2-0.1,0.4-0.1c0.2,0,0.3,0,0.4,0.1s0.1,0.2,0.1,0.4v0.6
		c0.3-0.4,0.6-0.7,1-0.9c0.4-0.2,0.8-0.3,1.3-0.3C251.2,51.5,251.5,51.6,251.7,51.7z"/>
	<path class="st0" d="M259.2,58.4c0,0.1-0.1,0.3-0.2,0.4c-0.1,0.1-0.2,0.1-0.3,0.1c-0.1,0-0.3-0.1-0.4-0.2l-2.7-3.3l-1,0.9v2.1
		c0,0.1,0,0.3-0.1,0.4c-0.1,0.1-0.2,0.1-0.4,0.1s-0.3,0-0.4-0.1s-0.1-0.2-0.1-0.4V49c0-0.2,0-0.3,0.1-0.4c0.1-0.1,0.2-0.1,0.4-0.1
		s0.3,0,0.4,0.1c0.1,0.1,0.1,0.2,0.1,0.4v6l3.7-3.4c0.1-0.1,0.2-0.1,0.3-0.1c0.1,0,0.2,0.1,0.3,0.2c0.1,0.1,0.1,0.2,0.1,0.3
		c0,0.1-0.1,0.2-0.2,0.3l-2.6,2.4l2.7,3.4C259.2,58.2,259.2,58.3,259.2,58.4z"/>
</g>
</svg>
