<?xml version="1.0" encoding="utf-8"?>
<!-- Generator: Adobe Illustrator 19.0.0, SVG Export Plug-In . SVG Version: 6.00 Build 0)  -->
<svg version="1.1" id="Layer_1" xmlns="http://www.w3.org/2000/svg" xmlns:xlink="http://www.w3.org/1999/xlink" x="0px" y="0px"
	 viewBox="0 0 500 500" style="enable-background:new 0 0 500 500;" xml:space="preserve">
<style type="text/css">
	.st0{fill:#1D295B;}
</style>
<path class="st0" d="M160.9,269.6c-8.7,0-17.3-0.3-26,0.1c-19,0.8-37.8,3-56,8.8c-3.7,1.2-7.5,2.6-10.7,4.7
	c-10.9,7.3-11.6,13.9-5.4,24.8c2.5,4.4,6.2,8.1,9.4,12.1c3.3,4.1,4,8.3,1.9,11.5c-2.3,3.5-6.7,4.8-11.7,3.7
	c-11.9-2.7-21.7-9-30.3-17.3c-15.7-14.9-24.8-33.4-27.5-54.6c-2.8-22.1,3.9-42.1,17.6-59.5C33,190.3,46,179.2,60.6,169.6
	c22.7-15,47.3-25.9,72.9-34.4c24.9-8.3,50.5-14,76.5-18.2c29.5-4.7,59.2-7.2,89-6.7c13.4,0.2,26.8,2,40.1,3.4c25,2.6,49,9,71.6,20.2
	c18.1,9,34.3,20.5,48,35.3c16.8,18.1,27.4,39.4,32.2,63.7c2.7,14,4.1,28.1,3.4,42.2c-1.2,21.6-5.4,42.6-18.3,60.5
	c-15.8,21.9-37.1,37-61.8,47.6c-19.7,8.5-40.3,13.6-61.7,16c-22.1,2.5-44.2,2.1-66.3,0.9c-35.6-2-70.2-9.1-104.1-19.7
	c-24.8-7.8-49-17.5-71.6-30.6c-2.2-1.3-4.8-3.2-5.4-5.3c-1.6-5.2-0.3-9.2,6.8-9.6c13.7-0.8,27.4-1.5,41.1-2.8
	c15.2-1.4,30.4-3,45.5-5.2c22.4-3.4,44.8-7.2,67.1-11.5c8.5-1.6,16.6-5,24.8-7.8c4.2-1.4,8.1-3.4,8.3-8.8c0.1-5.6-2.6-9.1-7.4-11.8
	c-11.6-6.4-24.2-9.4-37.1-11.1c-14.5-1.9-29-4.3-43.6-5C194.1,269.9,160.9,269.9,160.9,269.6z M116.4,338.4c0,0.2-0.1,0.4-0.1,0.5
	c1.2,0.4,2.4,0.9,3.7,1.2c17.9,3.6,35.7,7.7,53.7,10.4c15.8,2.4,31.9,4,47.8,4.3c19,0.4,38.1-0.5,57-1.7c12.3-0.7,24.6-2.2,36.7-4.5
	c23.6-4.5,46.8-10.8,68.8-20.8c28.9-13.1,54.4-30.2,71.6-57.8c6.4-10.3,10.8-21.4,13.1-33.3c2.6-13.4,2.7-27,0-40.4
	c-1-5-1.6-10.9-4.5-14.7c-19.8-26-46.3-42.9-76.7-53.7c-30.2-10.7-61.8-13.8-93.5-14.1c-16.4-0.2-32.8,0.9-49.1,2.6
	c-18.7,1.9-37.4,5-56,7.9c-7.8,1.2-15.4,3.5-23.1,5.3c1.6,0.8,3,0.8,4.4,0.8c17.1-0.7,34.1,1.2,51,3.8c21.1,3.2,41.7,8.3,61.7,15.6
	c24,8.7,46.6,20.1,65.6,37.1c22.6,20.1,30.1,51.5,17.4,79.6c-6.6,14.8-17.2,25.9-30.9,34.5c-14.7,9.3-30.7,14-47.7,16.2
	c-7.2,0.9-14.6,0.9-21.8,2c-14.3,2.3-28.4,5.5-42.7,7.6c-20.1,3-40.4,5.6-60.6,7.9C147,336.4,131.7,337.2,116.4,338.4z M351.8,281.2
	c1-0.9,1.5-1.2,1.8-1.7c9.8-13.2,15-27.8,14-44.6c-0.8-13.4-5.3-25.2-13.3-35.6c-9.4-12.2-22.1-20.6-35.2-28.3
	c-21.8-12.8-45.2-21.7-69.8-27c-16.2-3.5-32.8-5.7-49.2-8.2c-5.7-0.9-11.6-1.4-17.4-1.5c-11.8,0-24.1-1.5-35.4,1.2
	c-15.7,3.8-31.2,9.8-45.9,16.8c-21.9,10.4-40.2,26-54.5,45.6c-14.1,19.4-20,40.9-14.4,64.9c3.8,16.1,12.1,29.8,21.7,42.8
	c2,2.8,4.6,5.2,6.9,7.7c-1.1-3.3-2.9-6.1-4.1-9.2c-7.5-18.1-5.2-35.8,9.1-47.9c7.8-6.6,16.9-10.9,26.5-14.1
	c28.1-9.3,57.3-12.1,86.5-13c33.3-1.1,66.7-0.5,99.8,5c17.5,3,34.8,6.8,50.6,15.2C341.9,256.1,351.2,265.3,351.8,281.2z
	 M109.8,341.7c-0.2,0.3-0.3,0.7-0.5,1c1.6,1.2,3.1,2.6,4.8,3.4c11.7,5.6,23.2,11.7,35.1,16.6c29.1,12,59.2,20.6,90.3,26.1
	c19.6,3.5,39.4,5.9,59.2,6.7c22.9,0.9,45.8,0.1,68.5-4.2c32.9-6.2,62.8-18.7,88-41.3c9.3-8.3,17.7-17.6,22.9-28.9
	c8.6-18.8,11.6-38.7,11-59.4c-0.5-17.8-4-34.8-9.9-51.4c-1.4-4-3.3-7.8-5.2-12c0,5.1-0.2,9.5,0,14c0.9,18.2-2.6,35.6-10.6,52
	c-9.6,19.7-24.3,35-42,47.4c-21.9,15.4-46.2,25.7-71.9,33c-19.3,5.5-38.8,9.7-58.8,11.4c-15.3,1.3-30.5,2.9-45.8,3.4
	c-23,0.7-45.9-0.9-68.6-4.3c-16.3-2.5-32.6-5.7-48.8-8.8C121.6,345.1,115.7,343.2,109.8,341.7z M56.9,288.7
	c8.9-9,11.6-11.1,24.5-14.7c7.6-2.1,15.5-3.4,23.3-4.5c10.2-1.4,20.4-3.2,30.6-3.3c21.2-0.3,42.4,0.4,63.6,0.7
	c22.3,0.3,44.5,2.6,66.3,7.1c10.8,2.2,21.4,5.1,30.7,11.4c9.1,6.3,8.1,19.6-1.8,24.3c-1.8,0.9-3.6,1.6-5.4,2.4
	c0.1,0.4,0.2,0.7,0.3,1c5.9-1.3,11.8-2.5,17.6-4.1c14.2-4,27-10.6,38.1-20.3c0.9-0.8,1.9-2,2.1-3.2c1.6-7.6,0.4-14.7-4.6-21
	c-5.9-7.5-14-11.9-22.5-15.4c-17.9-7.5-36.8-11.3-56-13.1c-15.6-1.5-31.2-3-46.8-3.4c-27.8-0.8-55.6,0.4-83.2,4.2
	c-15.4,2.1-30.6,5.1-45.1,10.8c-10.5,4.1-20.5,9.4-27,19.2C57.5,273.4,55.5,280.5,56.9,288.7z M65.4,171c0-0.1-0.1-0.2-0.1-0.3
	c-4.6,3.2-9.2,6.3-13.7,9.6c-16.6,12.6-30.9,27.3-38.8,47.1c-6.2,15.4-7.6,31-0.9,46.8c9,21,24.6,36.1,43.4,48.2
	c4.1,2.6,8.9,4.1,13.4,6.1c0.3-0.5,0.7-1,1-1.5c-1.2-1-2.6-1.9-3.6-3.1c-7.9-9.3-16.6-18-23.4-28.1C30.2,277.4,24,257,27.3,234.3
	c2.3-15.8,9-29.6,18.8-41.9C52,184.9,58.9,178.1,65.4,171z M68.6,331.5c-21.7-7.7-37.3-22.1-50.7-39.8
	C22.9,308.5,51.8,334.5,68.6,331.5z"/>
</svg>
