<svg xmlns="http://www.w3.org/2000/svg" xmlns:xlink="http://www.w3.org/1999/xlink" viewBox="0 0 400 105.47"><defs><linearGradient id="linear-gradient" x1="79.63" y1="83.98" x2="186.29" y2="-22.68" gradientUnits="userSpaceOnUse"><stop offset="0" stop-color="#59bf90"/><stop offset="1" stop-color="#97ca47"/></linearGradient><linearGradient id="linear-gradient-2" x1="2.74" y1="89.09" x2="33.28" y2="58.55" gradientUnits="userSpaceOnUse"><stop offset="0" stop-color="#0c6089"/><stop offset="0.37" stop-color="#294c84"/></linearGradient></defs><title>Asset 3</title><g id="Layer_2" data-name="Layer 2"><g id="Layer_1-2" data-name="Layer 1"><path d="M198,45.94a10.86,10.86,0,0,0-3.66-8.66q-3.66-3.16-10-3.17h-25V77.79h5.42V58.68H185a12.79,12.79,0,0,0,9.44-3.52A12.43,12.43,0,0,0,198,45.94Zm-7.81,5.82q-2.12,1.82-6.23,1.82H164.69V39.13h19.55a8.56,8.56,0,0,1,6,1.92,6.87,6.87,0,0,1,2.12,5.36A6.66,6.66,0,0,1,190.19,51.76Z" style="fill:#fff"/><polygon points="209.84 34.11 188.43 77.79 194.25 77.79 200.03 66.04 202.52 60.94 212.09 41.59 221.75 60.94 200.04 60.94 197.52 66.04 224.16 66.04 230.1 77.79 235.99 77.79 214.35 34.11 209.84 34.11" style="fill:#fff"/><path d="M275.74,54.39a12.21,12.21,0,0,0,2.85-8.13A11.3,11.3,0,0,0,275,37.33q-3.64-3.22-10-3.22h-25V77.79h5.42V58.68h16.93l10.92,19.11h6L268.23,58.6A12.3,12.3,0,0,0,275.74,54.39Zm-30.47-.81V39.13h19.55a8.56,8.56,0,0,1,6,1.92,6.87,6.87,0,0,1,2.12,5.36,6.66,6.66,0,0,1-2.12,5.34q-2.12,1.82-6.23,1.82Z" style="fill:#fff"/><path d="M393.55,39.65a23.55,23.55,0,0,0-32.45,0q-6.41,6.47-6.41,16.44t6.39,16.4a23.62,23.62,0,0,0,32.49,0Q400,66,400,56.07A22.33,22.33,0,0,0,393.55,39.65Zm-4.08,29.16a17.29,17.29,0,0,1-24.37,0,17.65,17.65,0,0,1-4.83-12.74,17.71,17.71,0,0,1,4.83-12.76,17.29,17.29,0,0,1,24.39,0,17.74,17.74,0,0,1,4.81,12.78A17.65,17.65,0,0,1,389.48,68.81Z" style="fill:#fff"/><polygon points="288.97 56.98 306.45 56.98 306.45 51.95 288.97 51.95 288.97 39.13 310.42 39.13 315.99 34.11 317.89 34.11 317.02 34.11 283.55 34.11 283.55 77.79 319.67 77.79 319.67 72.77 288.97 72.77 288.97 56.98" style="fill:#fff"/><polygon points="355.84 34.11 321.08 34.11 315.51 39.13 331.98 39.13 331.98 77.79 337.44 77.79 337.44 39.13 355.84 39.13 355.84 34.11" style="fill:#fff"/><path d="M43.19,77.78h82.94a5.61,5.61,0,0,0,5.61-5.61V1.66A1.66,1.66,0,0,0,129,.43Z" style="fill:url(#linear-gradient)"/><path id="_Path_" data-name="&lt;Path&gt;" d="M2.77,105,33,77.78l10.19-9.19H5.61A5.61,5.61,0,0,0,0,74.2V103.8A1.66,1.66,0,0,0,2.77,105Z" style="fill:url(#linear-gradient-2)"/></g></g></svg>