<svg width="147" height="24" xmlns="http://www.w3.org/2000/svg"><g fill="#000" fill-rule="evenodd"><path d="M34.051 12.422c0 2.163 1.44 3.794 3.587 3.794 2.234 0 3.587-1.718 3.587-3.794 0-2.078-1.353-3.796-3.587-3.796-2.147 0-3.587 1.632-3.587 3.796zm9.842 0c0 3.622-2.618 6.23-5.945 6.23-1.688 0-2.904-.68-3.723-1.719v6.37H31.63V6.5h2.595v1.408c.819-1.037 2.035-1.718 3.723-1.718 3.327 0 5.945 2.61 5.945 6.232zM53.07 18.343h2.606V6.5H53.07zM76.952 10.9v7.443h-2.606v-6.589c0-1.991-1.03-3.104-2.767-3.104-1.676 0-3.079 1.101-3.079 3.128v6.565h-2.606v-6.589c0-1.991-1.03-3.104-2.768-3.104-1.675 0-3.078 1.101-3.078 3.128v6.565H57.44V6.5h2.582v1.445c.956-1.396 2.433-1.755 3.649-1.755 1.812 0 3.29.804 4.109 2.114 1.03-1.694 2.867-2.114 4.343-2.114 2.83 0 4.828 1.942 4.828 4.71M80.98 12.422c0 2.076 1.354 3.794 3.588 3.794 2.147 0 3.588-1.631 3.588-3.794 0-2.164-1.441-3.796-3.588-3.796-2.234 0-3.587 1.718-3.587 3.796zm9.608 5.92h-2.594v-1.42c-.82 1.05-2.048 1.73-3.736 1.73-3.326 0-5.945-2.608-5.945-6.23 0-3.623 2.619-6.232 5.945-6.232 1.688 0 2.916.693 3.736 1.744V6.5h2.594v11.843zM92.486 18.343h2.607V.029h-2.607zM99.433 12.422c0 2.163 1.44 3.794 3.588 3.794 2.234 0 3.587-1.718 3.587-3.794 0-2.078-1.353-3.796-3.587-3.796-2.148 0-3.588 1.632-3.588 3.796zm9.843 0c0 3.622-2.619 6.23-5.945 6.23-1.688 0-2.905-.68-3.724-1.719v1.41h-2.594V.015h2.594v7.893c.82-1.037 2.036-1.718 3.724-1.718 3.326 0 5.945 2.61 5.945 6.232zM113.043 12.422c0 2.076 1.353 3.794 3.588 3.794 2.147 0 3.586-1.631 3.586-3.794 0-2.164-1.44-3.796-3.586-3.796-2.235 0-3.588 1.718-3.588 3.796zm9.607 5.92h-2.594v-1.42c-.82 1.05-2.048 1.73-3.736 1.73-3.326 0-5.945-2.608-5.945-6.23 0-3.623 2.619-6.232 5.945-6.232 1.688 0 2.917.693 3.736 1.744V6.5h2.594v11.843zM132.923 9.467c-.72-.446-2.197-1.014-3.675-1.014-1.415 0-2.246.568-2.246 1.409 0 .828.869 1.063 1.96 1.225l1.23.184c2.594.371 4.133 1.472 4.133 3.498 0 2.276-1.986 3.87-5.412 3.87-1.229 0-3.363-.235-5.1-1.52l1.203-1.94c.856.654 1.986 1.21 3.922 1.21 1.775 0 2.706-.556 2.706-1.446 0-.668-.645-1.112-2.06-1.31l-1.242-.161c-2.63-.359-4.033-1.57-4.033-3.473 0-2.35 1.887-3.796 4.915-3.796 1.862 0 3.587.457 4.815 1.249l-1.116 2.015M137.934 11.407h6.169c-.286-1.842-1.365-2.918-3.017-2.918-1.849 0-2.879 1.187-3.152 2.918zm8.825 1.002c0 .334-.025.667-.05.964h-8.787c.347 2.127 1.85 3.017 3.537 3.017 1.191 0 2.457-.47 3.438-1.249l1.291 1.842c-1.452 1.236-3.09 1.669-4.89 1.669-3.563 0-6.082-2.472-6.082-6.23 0-3.71 2.42-6.232 5.92-6.232 3.327 0 5.61 2.523 5.623 6.219zM51.268 6.402c-1.454 0-2.673.523-3.454 1.643V6.503h-2.57v11.84h2.599v-6.304c0-2.015 1.176-3.179 2.826-3.179.438 0 .95.073 1.402.211V6.446a6.846 6.846 0 0 0-.803-.044M55.833 2.924c0 .803-.653 1.455-1.46 1.455-.806 0-1.46-.652-1.46-1.455s.654-1.454 1.46-1.454c.807 0 1.46.651 1.46 1.454M.365 23.288V7.038c0-.771.308-1.51.855-2.056L5.352.867A2.926 2.926 0 0 1 7.417.015H23.73v23.273H.365zm21.906-2.91c0-.802-.654-1.454-1.46-1.454-.807 0-1.461.652-1.461 1.455s.654 1.454 1.46 1.454c.807 0 1.46-.651 1.46-1.454zm0-4.363c0-.803-.654-1.454-1.46-1.454-.807 0-1.461.651-1.461 1.454 0 .803.654 1.455 1.46 1.455.807 0 1.46-.652 1.46-1.455zm0-4.363c0-.803-.654-1.455-1.46-1.455-.807 0-1.461.652-1.461 1.455s.654 1.454 1.46 1.454c.807 0 1.46-.651 1.46-1.454zM4.746 7.288c0-.803-.653-1.455-1.46-1.455-.806 0-1.46.652-1.46 1.455s.654 1.455 1.46 1.455c.807 0 1.46-.652 1.46-1.455zm13.144 8.727c0-.803-.654-1.454-1.46-1.454-.807 0-1.461.651-1.461 1.454 0 .803.654 1.455 1.46 1.455.807 0 1.46-.652 1.46-1.455zm0 4.364c0-.803-.654-1.455-1.46-1.455-.807 0-1.461.652-1.461 1.455s.654 1.454 1.46 1.454c.807 0 1.46-.651 1.46-1.454zm-4.382 0c0-.803-.653-1.455-1.46-1.455-.806 0-1.46.652-1.46 1.455s.654 1.454 1.46 1.454c.807 0 1.46-.651 1.46-1.454zm4.382-17.47c0-.803-.654-1.454-1.46-1.454-.807 0-1.461.651-1.461 1.454 0 .803.654 1.455 1.46 1.455.807 0 1.46-.652 1.46-1.455zM4.746 16.015c0-.803-.653-1.454-1.46-1.454-.806 0-1.46.651-1.46 1.454 0 .803.654 1.455 1.46 1.455.807 0 1.46-.652 1.46-1.455zm4.381 0c0-.803-.653-1.454-1.46-1.454-.806 0-1.46.651-1.46 1.454 0 .803.654 1.455 1.46 1.455.807 0 1.46-.652 1.46-1.455zm0-8.727c0 .803-.653 1.455-1.46 1.455-.806 0-1.46-.652-1.46-1.455s.654-1.455 1.46-1.455c.807 0 1.46.652 1.46 1.455"/></g></svg>