<?xml version="1.0" encoding="UTF-8"?>
<svg width="514px" height="118px" viewBox="0 0 514 118" version="1.1" xmlns="http://www.w3.org/2000/svg" xmlns:xlink="http://www.w3.org/1999/xlink">
    <!-- Generator: Sketch 51.2 (57519) - http://www.bohemiancoding.com/sketch -->
    <title>PEP Green Full</title>
    <desc>Created with Sketch.</desc>
    <defs></defs>
    <g id="PepChain-Logo" stroke="none" stroke-width="1" fill="none" fill-rule="evenodd">
        <g id="PEP-Green-Full" transform="translate(-42.000000, -41.000000)">
            <g id="Group-6">
                <g id="PEP-Green" fill="#1F5C82">
                    <g id="PEP">
                        <g id="Shape">
                            <path d="M85.66,91.15 L113.803,42.416 C109.673,41.531 105.425,41 101,41 C86.84,41 73.86,46.015 63.712,54.275 L85.306,91.74 L85.66,91.15 L85.66,91.15 Z M157.286,82.3 C151.858,65.072 138.701,51.266 121.886,44.894 L100.292,82.3 L157.286,82.3 L157.286,82.3 Z M158.82,89.2 L114.629,89.2 L116.34,92.15 L144.424,140.825 C154.1,130.323 160,116.399 160,101 C160,96.929 159.587,93.035 158.82,89.2 L158.82,89.2 Z M80.586,100 L57.576,60.175 C47.959,70.677 42,84.601 42,100 C42,104.071 42.413,107.965 43.18,111.8 L87.371,111.8 L80.586,100 L80.586,100 Z M44.714,117.7 C50.142,134.928 63.299,148.734 80.114,155.106 L101.708,117.7 L44.714,117.7 L44.714,117.7 Z M111.207,117.7 L88.197,157.584 C92.327,158.469 96.575,159 101,159 C115.16,159 128.14,153.985 138.288,145.725 L116.694,108.26 L111.207,117.7 L111.207,117.7 Z"></path>
                        </g>
                    </g>
                </g>
                <g id="Group-12" transform="translate(76.000000, 51.000000)"></g>
            </g>
            <path d="M370.289062,108.796875 L370.367188,109.03125 C370.471355,114.369818 368.596373,118.83592 364.742188,122.429688 C360.888002,126.023455 355.796907,127.820312 349.46875,127.820312 C343.036426,127.820312 337.795593,125.541689 333.746094,120.984375 C329.696594,116.427061 327.671875,110.645868 327.671875,103.640625 L327.671875,93.5234375 C327.671875,86.5181941 329.696594,80.7304916 333.746094,76.1601562 C337.795593,71.5898209 343.036426,69.3046875 349.46875,69.3046875 C355.901074,69.3046875 361.01821,71.01691 364.820312,74.4414062 C368.622415,77.8659025 370.471355,82.4036176 370.367188,88.0546875 L370.289062,88.2890625 L362.90625,88.2890625 C362.90625,84.3046676 361.734387,81.1536574 359.390625,78.8359375 C357.046863,76.5182176 353.739605,75.359375 349.46875,75.359375 C345.171854,75.359375 341.747409,77.0911285 339.195312,80.5546875 C336.643216,84.0182465 335.367188,88.3150785 335.367188,93.4453125 L335.367188,103.640625 C335.367188,108.822943 336.643216,113.145816 339.195312,116.609375 C341.747409,120.072934 345.171854,121.804688 349.46875,121.804688 C353.739605,121.804688 357.046863,120.652355 359.390625,118.347656 C361.734387,116.042957 362.90625,112.859395 362.90625,108.796875 L370.289062,108.796875 Z M423.765625,127 L416.070312,127 L416.070312,101.882812 L388.453125,101.882812 L388.453125,127 L380.757812,127 L380.757812,70.125 L388.453125,70.125 L388.453125,95.828125 L416.070312,95.828125 L416.070312,70.125 L423.765625,70.125 L423.765625,127 Z M469.351562,112.351562 L445.523438,112.351562 L440.132812,127 L432.28125,127 L454.273438,70.125 L460.875,70.125 L482.515625,127 L474.664062,127 L469.351562,112.351562 Z M447.90625,105.90625 L467.046875,105.90625 L457.671875,80.0078125 L457.4375,80.0078125 L447.90625,105.90625 Z M498.453125,127 L490.71875,127 L490.71875,70.125 L498.453125,70.125 L498.453125,127 Z M555.953125,127 L548.257812,127 L520.875,83.015625 L520.640625,83.09375 L520.640625,127 L512.945312,127 L512.945312,70.125 L520.640625,70.125 L548.023438,114.03125 L548.257812,113.953125 L548.257812,70.125 L555.953125,70.125 L555.953125,127 Z" id="CHAIN" fill="#1F5C82"></path>
            <path d="M186.726562,104.1875 L186.726562,127 L179.03125,127 L179.03125,70.125 L200.789062,70.125 C206.856801,70.125 211.570296,71.6874844 214.929688,74.8125 C218.289079,77.9375156 219.96875,82.0520578 219.96875,87.15625 C219.96875,92.3385676 218.289079,96.4726408 214.929688,99.5585938 C211.570296,102.644547 206.856801,104.1875 200.789062,104.1875 L186.726562,104.1875 Z M186.726562,98.171875 L200.789062,98.171875 C204.643248,98.171875 207.520824,97.1367291 209.421875,95.0664062 C211.322926,92.9960834 212.273438,90.3854324 212.273438,87.234375 C212.273438,84.0833176 211.316416,81.4531355 209.402344,79.34375 C207.488272,77.2343645 204.617207,76.1796875 200.789062,76.1796875 L186.726562,76.1796875 L186.726562,98.171875 Z M264.03125,100.632812 L237.976562,100.632812 L237.976562,120.984375 L268.015625,120.984375 L268.015625,127 L230.28125,127 L230.28125,70.125 L267.585938,70.125 L267.585938,76.1796875 L237.976562,76.1796875 L237.976562,94.578125 L264.03125,94.578125 L264.03125,100.632812 Z M284.734375,104.1875 L284.734375,127 L277.039062,127 L277.039062,70.125 L298.796875,70.125 C304.864614,70.125 309.578108,71.6874844 312.9375,74.8125 C316.296892,77.9375156 317.976562,82.0520578 317.976562,87.15625 C317.976562,92.3385676 316.296892,96.4726408 312.9375,99.5585938 C309.578108,102.644547 304.864614,104.1875 298.796875,104.1875 L284.734375,104.1875 Z M284.734375,98.171875 L298.796875,98.171875 C302.651061,98.171875 305.528636,97.1367291 307.429688,95.0664062 C309.330739,92.9960834 310.28125,90.3854324 310.28125,87.234375 C310.28125,84.0833176 309.324228,81.4531355 307.410156,79.34375 C305.496084,77.2343645 302.625019,76.1796875 298.796875,76.1796875 L284.734375,76.1796875 L284.734375,98.171875 Z" id="PEP" fill="#148907"></path>
        </g>
    </g>
</svg>