<?xml version="1.0" standalone="no"?>
<!DOCTYPE svg PUBLIC "-//W3C//DTD SVG 20010904//EN"
 "http://www.w3.org/TR/2001/REC-SVG-20010904/DTD/svg10.dtd">
<svg version="1.0" xmlns="http://www.w3.org/2000/svg"
 width="71.000000pt" height="71.000000pt" viewBox="0 0 71.000000 71.000000"
 preserveAspectRatio="xMidYMid meet">
<metadata>
Created by potrace 1.11, written by Peter Selinger 2001-2013
</metadata>
<g transform="translate(0.000000,71.000000) scale(0.100000,-0.100000)"
fill="#000000" stroke="none">
<path d="M315 690 c-103 -11 -219 -90 -261 -178 -15 -31 -14 -35 10 -77 70
-119 247 -184 390 -143 88 25 178 100 205 170 8 22 5 33 -18 70 -71 111 -196
172 -326 158z m123 -77 c121 -90 61 -273 -89 -273 -80 0 -141 61 -145 145 -4
92 67 160 159 152 27 -2 60 -13 75 -24z"/>
<path d="M10 343 c0 -5 6 -33 14 -64 25 -108 90 -189 190 -235 51 -24 96 -31
96 -16 0 20 -42 129 -64 166 -36 60 -92 115 -139 137 -42 19 -97 25 -97 12z"/>
<path d="M602 330 c-79 -36 -154 -136 -189 -253 -8 -27 -12 -51 -9 -54 13 -13
80 11 136 48 84 57 130 127 149 232 8 46 8 47 -18 47 -14 0 -45 -9 -69 -20z"/>
</g>
</svg>
