<svg width="184" height="36" viewBox="0 0 184 36" version="1.1" xmlns="http://www.w3.org/2000/svg" xmlns:xlink="http://www.w3.org/1999/xlink">
<title>playkey_io</title>
<desc>Created using Figma</desc>
<g id="Canvas" transform="translate(778 -1917)">
<g id="playkey_io">
<g id="ICO v2 0 Mac video">
<g id="Group 15 Copy">
<g id="logo">
<g id="Fill 1">
<use xlink:href="#path0_fill" transform="translate(-715.517 1926.66)" fill="#FFFFFF"/>
</g>
<g id="Group 23">
<g id="Fill 2">
<use xlink:href="#path1_fill" transform="translate(-730.963 1926.66)" fill="#FFFFFF"/>
</g>
<g id="Fill 4">
<use xlink:href="#path2_fill" transform="translate(-760.305 1925.17)" fill="#FFFFFF"/>
</g>
<g id="Group 8">
<mask id="mask0_alpha" mask-type="alpha">
<g id="mask 2">
<g id="Vector">
<use xlink:href="#path3_fill" transform="translate(-778 1917)" fill="#FFFFFF"/>
</g>
</g>
</mask>
<g id="Fill 6" mask="url(#mask0_alpha)">
<use xlink:href="#path4_fill" transform="translate(-778 1917)" fill="#FFFFFF"/>
</g>
</g>
<g id="Fill 9">
<use xlink:href="#path5_fill" transform="translate(-702.3 1926.57)" fill="#FFFFFF"/>
</g>
<g id="Fill 11">
<use xlink:href="#path6_fill" transform="translate(-651.554 1926.66)" fill="#FFFFFF"/>
</g>
<g id="Fill 13">
<use xlink:href="#path7_fill" transform="translate(-636.831 1926.66)" fill="#FFFFFF"/>
</g>
<g id="Fill 15">
<use xlink:href="#path8_fill" transform="translate(-668.042 1926.66)" fill="#FFFFFF"/>
</g>
<g id="Fill 17">
<use xlink:href="#path9_fill" transform="translate(-686.442 1926.66)" fill="#FFFFFF"/>
</g>
<mask id="mask1_alpha" mask-type="alpha">
<g id="mask 4">
<g id="Vector">
<use xlink:href="#path10_fill" transform="translate(-778 1917)" fill="#FFFFFF"/>
</g>
</g>
</mask>
<g id="Fill 19" mask="url(#mask1_alpha)">
<use xlink:href="#path11_fill" transform="translate(-614.261 1926.68)" fill="#FFFFFF"/>
</g>
<g id="Fill 21" mask="url(#mask1_alpha)">
<use xlink:href="#path12_fill" transform="translate(-607.236 1926.46)" fill="#FFFFFF"/>
</g>
<g id="Fill 22" mask="url(#mask1_alpha)">
<use xlink:href="#path13_fill" transform="translate(-622.121 1940.37)" fill="#FFFFFF"/>
</g>
</g>
</g>
</g>
</g>
</g>
</g>
<defs>
<path id="path0_fill" fill-rule="evenodd" d="M 2.52953 -1.61631e-07L 6.96824e-07 -1.61631e-07L 6.96824e-07 16.2314L 11.0106 16.2314L 11.0106 13.8892L 2.52953 13.8892L 2.52953 -1.61631e-07Z"/>
<path id="path1_fill" fill-rule="evenodd" d="M 6.65613 7.18858C 8.5483 7.18858 9.66424 6.30698 9.66424 4.75382C 9.66424 3.20041 8.5483 2.34195 6.65613 2.34195L 2.50787 2.34195L 2.50787 7.18858L 6.65613 7.18858ZM 10.7593 1.32099C 11.7157 2.17946 12.1945 3.31611 12.1945 4.70677C 12.1945 6.12161 11.7157 7.28114 10.7593 8.18537C 9.82504 9.08986 8.52435 9.52925 6.86051 9.52925L 2.50787 9.52925L 2.50787 16.2314L 2.61309e-07 16.2314L 2.61309e-07 3.13846e-09L 6.86051 3.13846e-09C 8.52435 3.13846e-09 9.82504 0.440674 10.7593 1.32099Z"/>
<path id="path2_fill" fill-rule="evenodd" d="M 1.90084 4.66872L 6.97365 9.82826L 1.90084 14.9888L 1.90084 4.66872ZM 2.79974e-07 19.6565L 9.66195 9.82826L 2.79974e-07 4.09569e-07L 2.79974e-07 19.6565Z"/>
<path id="path3_fill" d="M 35.3898 -3.80048e-09L 0 -3.80048e-09L 0 36L 35.3898 36L 35.3898 -3.80048e-09Z"/>
<path id="path4_fill" fill-rule="evenodd" d="M 17.695 33.2662L 2.68829 17.9995L 17.695 2.73351L 32.7029 17.9995L 17.695 33.2662ZM -6.05209e-12 17.9995L 17.695 36L 35.3899 17.9995L 17.695 2.99134e-09L -6.05209e-12 17.9995Z"/>
<path id="path5_fill" fill-rule="evenodd" d="M 5.24254 10.0409L 8.1612 3.22329L 11.0773 10.0409L 5.24254 10.0409ZM 6.97595 1.27108e-07L 2.30201e-06 16.3239L 2.66637 16.3239L 4.37583 12.29L 11.9433 12.29L 13.6767 16.3239L 16.3657 16.3239L 9.39003 1.27108e-07L 6.97595 1.27108e-07Z"/>
<path id="path6_fill" fill-rule="evenodd" d="M 2.50761 8.74174L 9.71063 8.74174L 9.71063 6.40082L 2.50761 6.40082L 2.50761 2.34195L 11.3508 2.34195L 11.3508 3.13846e-09L 2.92417e-06 3.13846e-09L 2.92417e-06 16.2314L 11.6474 16.2314L 11.6474 13.8892L 2.50761 13.8892L 2.50761 8.74174Z"/>
<path id="path7_fill" fill-rule="evenodd" d="M 12.0345 3.13846e-09L 7.47594 6.56228L 2.91739 3.13846e-09L 3.03616e-06 3.13846e-09L 6.17652 8.88135L 6.17652 16.2314L 8.68311 16.2314L 8.68311 8.81167L 14.8619 3.13846e-09L 12.0345 3.13846e-09Z"/>
<path id="path8_fill" fill-rule="evenodd" d="M 11.8767 3.13846e-09L 8.89488 3.13846e-09L 3.82972 5.69945L 2.46607 7.41432L 2.46607 3.13846e-09L -1.02035e-06 3.13846e-09L -1.02035e-06 16.2314L 2.46607 16.2314L 2.46607 10.5764L 4.07308 8.84098L 9.50726 16.2314L 12.4313 16.2314L 5.69157 7.03792L 11.8767 3.13846e-09Z"/>
<path id="path9_fill" fill-rule="evenodd" d="M 7.4762 6.56228L 2.91867 1.428e-07L -4.47958e-07 1.428e-07L 6.17779 8.88135L 6.17779 16.2311L 8.6854 16.2311L 8.6854 8.81167L 14.8632 1.428e-07L 12.0368 1.428e-07L 7.4762 6.56228Z"/>
<path id="path10_fill" d="M 0 36L 184 36L 184 -3.80048e-09L 0 -3.80048e-09L 0 36Z"/>
<path id="path11_fill" fill-rule="evenodd" d="M 4.97731e-06 16.0956L 2.76117 16.0956L 2.76117 -4.23692e-07L 4.97731e-06 -4.23692e-07L 4.97731e-06 16.0956Z"/>
<path id="path12_fill" fill-rule="evenodd" d="M 10.4644 8.68903C 10.4644 10.5021 10.1336 11.8802 9.47234 12.8235C 8.81154 13.7671 7.86737 14.2386 6.64033 14.2386C 6.04859 14.2386 5.51317 14.1188 5.03509 13.8792C 4.55625 13.6398 4.14928 13.286 3.81315 12.8178C 3.47727 12.3499 3.21937 11.7696 3.04098 11.0767C 2.86157 10.3844 2.77239 9.58838 2.77239 8.68903L 2.77239 7.84882C 2.77239 6.94974 2.86157 6.1558 3.04098 5.46651C 3.21937 4.77748 3.47523 4.2008 3.8078 3.73647C 4.13985 3.27214 4.54402 2.92017 5.01853 2.68081C 5.49329 2.44144 6.02667 2.32164 6.61841 2.32164C 7.22467 2.32164 7.76672 2.44144 8.24531 2.68081C 8.72389 2.92017 9.12755 3.27214 9.45629 3.73647C 9.78503 4.2008 10.0348 4.77748 10.2071 5.46651C 10.3783 6.1558 10.4644 6.94974 10.4644 7.84882L 10.4644 8.68903ZM 12.7598 4.57668C 12.4425 3.60381 11.9927 2.77851 11.4127 2.10053C 10.8311 1.42229 10.1337 0.902687 9.31919 0.541715C 8.50498 0.180743 7.60438 2.60492e-07 6.61841 2.60492e-07C 5.63932 2.60492e-07 4.74459 0.180743 3.93369 0.541715C 3.1228 0.902687 2.42733 1.42229 1.8463 2.10053C 1.26578 2.77851 0.812428 3.60381 0.487509 4.57668C 0.162335 5.54956 -3.01127e-06 6.64764 -3.01127e-06 7.87093L -3.01127e-06 8.68903C -3.01127e-06 9.91233 0.162335 11.0089 0.487509 11.9779C 0.812428 12.9469 1.2691 13.7686 1.85778 14.443C 2.44518 15.1174 3.14497 15.6352 3.95561 15.9961C 4.7665 16.3571 5.66149 16.5379 6.64033 16.5379C 7.6263 16.5379 8.52486 16.3571 9.33576 15.9961C 10.1467 15.6352 10.8408 15.1174 11.4175 14.443C 11.9947 13.7686 12.4425 12.9469 12.7598 11.9779C 13.0778 11.0089 13.2366 9.91233 13.2366 8.68903L 13.2366 7.87093C 13.2366 6.64764 13.0778 5.54956 12.7598 4.57668Z"/>
<path id="path13_fill" fill-rule="evenodd" d="M 1.61924 -6.90461e-08C 0.707938 -6.90461e-08 -3.80765e-06 0.718859 -3.80765e-06 1.62412C -3.80765e-06 2.55148 0.707938 3.26932 1.61924 3.26932C 2.50761 3.26932 3.21556 2.55148 3.21556 1.62412C 3.21556 0.718859 2.46301 -6.90461e-08 1.61924 -6.90461e-08Z"/>
</defs>
</svg>
