<?xml version="1.0" encoding="utf-8"?>
<!-- Generator: Adobe Illustrator 23.0.3, SVG Export Plug-In . SVG Version: 6.00 Build 0)  -->
<svg version="1.1" id="Layer_1" xmlns="http://www.w3.org/2000/svg" xmlns:xlink="http://www.w3.org/1999/xlink" x="0px" y="0px"
	 viewBox="0 0 199 51" style="enable-background:new 0 0 199 51;" xml:space="preserve">
<style type="text/css">
	.st0{fill:#FE453D;}
	.st1{fill:#0E0947;}
</style>
<path class="st0" d="M11.11,17.7c3.38,0,6.11-2.73,6.11-6.1c0-3.37-2.74-6.1-6.11-6.1S5,8.23,5,11.6C5,14.97,7.74,17.7,11.11,17.7z"
	/>
<path class="st1" d="M32.58,26.32c2.65,0,3.88,2.14,3.88,4.81s-1.23,4.84-3.88,4.84c-2.74,0-3.94-2.3-3.94-4.84
	S29.84,26.32,32.58,26.32z M24.39,23.05V45.5h4.41v-7.77h0.82c0.85,1.13,2.14,1.89,4.38,1.89c4.25,0,6.87-3.55,6.87-8.49
	c0-4.87-2.58-8.49-6.87-8.49c-2.27,0-3.66,0.79-4.54,1.89h-0.82v-1.48H24.39z"/>
<path class="st1" d="M44.61,16.35v22.86h4.41V16.35H44.61z"/>
<path class="st1" d="M63.64,39.21h4.06v-10.5c0-4.34-2.96-6.07-7.34-6.07c-3.91,0-6.81,1.92-6.9,5.03h4.38
	c0.13-1.1,0.98-1.73,2.74-1.73c1.92,0,2.87,0.85,2.87,2.52v0.41h-4.32c-4.79,0-6.59,2.86-6.59,5.38c0,2.86,2.08,5.38,5.73,5.38
	c2.14,0,3.56-0.66,4.54-1.79h0.82V39.21z M59.83,36.13c-1.8,0-2.87-0.75-2.87-2.23c0-1.48,1.13-2.17,3.02-2.17h3.47v1.01
	C63.45,34.75,61.97,36.13,59.83,36.13z"/>
<path class="st1" d="M85.32,27.48c-0.35-2.89-2.8-4.84-6.87-4.84c-4.79,0-6.9,2.3-6.9,5.06s1.8,3.99,4.35,4.46l3.15,0.5
	c1.61,0.28,2.33,0.69,2.33,1.79c0,1.16-1.04,1.76-2.8,1.76c-1.86,0-2.99-0.63-3.21-2.11h-4.38c0.35,3.36,2.71,5.5,7.63,5.5
	c4.76,0,7.18-2.55,7.18-5.25c0-3.24-2.11-4.72-5.17-5.19l-2.93-0.44c-1.1-0.22-1.73-0.44-1.73-1.32c0-0.97,1.01-1.38,2.36-1.38
	c1.42,0,2.39,0.35,2.62,1.45H85.32z"/>
<path class="st1" d="M107.81,22.64c-1.99,0-3.47,0.63-4.41,1.89h-0.82c-0.85-1.26-2.21-1.89-4.13-1.89c-1.89,0-3.25,0.63-4.03,1.89
	H93.6v-1.48h-4.25v16.16h4.41v-8.68c0-2.17,0.88-3.99,2.99-3.99c1.76,0,2.46,1.23,2.46,3.33v9.34h4.41v-9.02
	c0-2.11,0.95-3.65,2.96-3.65c1.76,0,2.46,1.19,2.46,3.33v9.34h4.41V29.02C113.45,25.13,111.69,22.64,107.81,22.64z"/>
<path class="st1" d="M127.86,39.21h4.06v-10.5c0-4.34-2.96-6.07-7.34-6.07c-3.91,0-6.81,1.92-6.9,5.03h4.38
	c0.13-1.1,0.98-1.73,2.74-1.73c1.92,0,2.87,0.85,2.87,2.52v0.41h-4.32c-4.79,0-6.59,2.86-6.59,5.38c0,2.86,2.08,5.38,5.73,5.38
	c2.14,0,3.56-0.66,4.54-1.79h0.82V39.21z M124.05,36.13c-1.8,0-2.87-0.75-2.87-2.23c0-1.48,1.13-2.17,3.03-2.17h3.47v1.01
	C127.67,34.75,126.19,36.13,124.05,36.13z"/>
<path class="st1" d="M139.82,18.08V39.5h7.65c6.57,0,9.87-4.29,9.87-10.71c0-6.45-3.3-10.71-9.87-10.71H139.82z M141.8,37.7V19.88
	h5.88c5.58,0,7.68,4.11,7.68,8.91s-2.1,8.91-7.68,8.91H141.8z M163.86,37.64V18.08h-1.98V39.5h14.31v-1.86H163.86z M190.78,18.08
	h-16.41v1.74h7.23V39.5h1.98V19.82h7.2V18.08z"/>
</svg>
