<?xml version="1.0" encoding="utf-8"?>
<!-- Generator: Adobe Illustrator 23.0.1, SVG Export Plug-In . SVG Version: 6.00 Build 0)  -->
<svg version="1.1" id="Calque_1" xmlns="http://www.w3.org/2000/svg" xmlns:xlink="http://www.w3.org/1999/xlink" x="0px" y="0px"
	 viewBox="0 0 193 39" style="enable-background:new 0 0 193 39;" xml:space="preserve">
<style type="text/css">
	.st0{fill-rule:evenodd;clip-rule:evenodd;fill:#FFFFFF;}
	.st1{fill-rule:evenodd;clip-rule:evenodd;fill:#A4BE39;}
</style>
<polygon id="Fill-1" class="st0" points="22.7,12.9 35.7,12.9 35.7,0 22.7,0 "/>
<polygon id="Fill-2" class="st0" points="22.7,38.8 35.7,38.8 35.7,25.9 22.7,25.9 "/>
<polygon id="Fill-3" class="st0" points="35.7,25.9 48.7,25.9 48.7,12.9 35.7,12.9 "/>
<polygon id="Fill-4" class="st1" points="0,19.4 9.2,28.5 18.4,19.4 9.2,10.2 "/>
<path id="Fill-5" class="st0" d="M96.5,23.2c-1,1.1-2.3,1.6-3.8,1.6c-1.5,0-2.8-0.5-3.8-1.6c-1-1.1-1.5-2.4-1.5-4
	c0-1.6,0.5-2.9,1.5-4c1-1.1,2.2-1.6,3.8-1.6c1.5,0,2.8,0.5,3.8,1.6c1,1.1,1.5,2.4,1.5,4C98,20.8,97.5,22.1,96.5,23.2z M99.3,12.8
	c-1.8-1.8-4-2.6-6.6-2.6c-2.7,0-4.9,0.9-6.7,2.7c-1.8,1.8-2.7,3.9-2.7,6.5c0,2.5,0.9,4.7,2.6,6.4c1.8,1.8,4,2.6,6.6,2.6
	c2.7,0,4.9-0.9,6.7-2.7c1.8-1.8,2.7-3.9,2.7-6.4C102,16.7,101.1,14.5,99.3,12.8z M172.5,10.5h4v17.4h-4v-1.6c-1.3,1.2-3.1,1.9-5,1.9
	c-0.1,0-0.2,0-0.3,0c-1.1,0-2-0.2-3-0.5c-0.7-0.3-1.3-0.7-1.8-1.3c-1.1-1.2-1.7-2.8-1.7-4.9v-8.8v-2.3h3.8h0.3v3.8v6.1
	c0,1.4,0.3,2.4,1,3.2c0.7,0.7,1.8,0.9,2.8,0.9c3.1,0,3.9-2.3,3.9-4.5v-8V10.5z M144.7,23.2c-1,1.1-2.3,1.6-3.8,1.6
	c-1.6,0-4.8-1.1-4.9-5.5v-0.3c0.1-4.4,3.4-5.5,4.9-5.5c1.5,0,2.8,0.5,3.8,1.6c1,1.1,1.5,2.4,1.5,4C146.2,20.8,145.7,22.1,144.7,23.2
	z M147.6,12.8c-1.8-1.8-4-2.6-6.7-2.6c-1.9,0-3.6,0.7-5,1.9V3.8h-4v24.1h4v-1.5c1.3,1.2,3.1,1.9,5,1.9c2.7,0,4.9-0.9,6.7-2.6
	c1.8-1.8,2.7-3.9,2.7-6.5C150.3,16.7,149.4,14.5,147.6,12.8z M77.6,19.2c0-1.6-0.5-2.9-1.5-4c-1-1.1-2.3-1.6-3.8-1.6
	c-1.6,0-4.9,1.1-4.9,5.6v0c0,4.5,3.3,5.6,4.9,5.6c1.5,0,2.8-0.5,3.8-1.6C77.1,22.1,77.6,20.8,77.6,19.2z M79,12.8
	c1.8,1.8,2.7,3.9,2.7,6.5c0,2.5-0.9,4.7-2.7,6.5c-1.8,1.8-4,2.6-6.7,2.6c-1.9,0-3.6-0.7-5-1.9v6.8h-4V10.5h4V12
	c1.3-1.2,3.1-1.9,5-1.9C75,10.1,77.2,11,79,12.8z M192.7,22.8c0,1.8-0.6,3.1-1.8,4.1c-1.2,0.9-2.8,1.4-4.7,1.4
	c-2.7,0-5.2-0.9-7.4-2.6l1.8-2.7c1.9,1.4,3.8,2.1,5.7,2.1c0.9,0,1.5-0.2,2-0.5c0.5-0.3,0.7-0.8,0.7-1.4c0-0.3-0.1-0.6-0.3-0.8
	c-0.2-0.2-0.5-0.4-0.9-0.6c-0.4-0.2-0.8-0.3-1.1-0.4c-0.3-0.1-0.8-0.2-1.4-0.4l-0.3-0.1c-0.6-0.2-1.1-0.3-1.6-0.5
	c-0.4-0.2-0.9-0.4-1.4-0.7c-0.5-0.3-1-0.6-1.3-0.9c-0.3-0.3-0.6-0.8-0.8-1.3c-0.2-0.5-0.3-1.1-0.3-1.8c0-1.6,0.6-2.9,1.8-3.9
	c1.2-1,2.7-1.5,4.5-1.5c2.3,0,4.4,0.7,6.4,2l-1.6,2.8c-1.8-1.1-3.5-1.7-4.9-1.7c-0.8,0-1.4,0.2-1.8,0.5c-0.4,0.3-0.6,0.8-0.6,1.3
	c0,0.4,0.2,0.7,0.6,1c0.4,0.3,0.8,0.5,1.2,0.7c0.4,0.1,1,0.4,1.9,0.6c0,0,0.1,0,0.2,0.1c0.1,0,0.1,0,0.2,0c0.8,0.2,1.4,0.5,2,0.7
	c0.5,0.2,1.1,0.5,1.7,0.9c0.6,0.4,1,0.9,1.3,1.5C192.6,21.3,192.7,22,192.7,22.8z M152.9,7.8h4.3V4h-4.3V7.8z M153.1,27.9h4V10.5h-4
	V27.9z M125,10.5h4.2l-7,17.9c-0.7,1.8-1.5,3-2.4,3.8c-0.9,0.7-2,1.1-3.4,1.1c-1.5,0-2.8-0.4-4.1-1.1l1.4-3c0.8,0.4,1.6,0.7,2.4,0.7
	c0.6,0,1-0.1,1.4-0.4c0.4-0.3,0.7-0.8,1.1-1.6l-7.3-17.4h4.3l5,12.9L125,10.5z M105,27.9h4V3.8h-4V27.9z"/>
</svg>
