<?xml version="1.0" encoding="utf-8"?>
<!-- Generator: Adobe Illustrator 19.2.0, SVG Export Plug-In . SVG Version: 6.00 Build 0)  -->
<svg version="1.1" id="Слой_1" xmlns="http://www.w3.org/2000/svg" xmlns:xlink="http://www.w3.org/1999/xlink" x="0px" y="0px"
	 viewBox="0 0 283.5 283.5" style="enable-background:new 0 0 283.5 283.5;" xml:space="preserve">
<style type="text/css">
	.st0{fill-rule:evenodd;clip-rule:evenodd;fill:#FFFFFF;}
</style>
<g>
	<path class="st0" d="M4,6.7c36.3-4.9,108.9-15.3,153.7,7.2c44.8,22.5,64.5,55.1,66.9,73.7c2.4,18.6,1.5,20,4.7,22.1
		c2.1,1.4,5.1,1.3,7.5-0.2c0.7-0.5,1-0.8,2.7-1.5c0.9-0.4,3.3-0.7,3.3-0.7s-32.3,27.3-55.5,32.1c-23.2,4.8-29.5,7.8-34.6-2.8
		c-5.2-10.6-11.2-16.4-20.9-17.1c-9.6-0.7-15.9-0.4-15.9-0.4s-1.1,16.9-1,22.5c0.1,5.6-1.8,11.9,7.9,12.5c9.7,0.7,18.4,0.1,24.1-0.6
		c5.8-0.7,7.7-0.5,7.7-0.5s-12.8,9-52.3,9.3c-39.5,0.3-33,1.4-49.6,0c-16.6-1.4-39.5-5.3-40.9-11.8c-1.4-6.5-3.9-57.8-4.7-74.9
		C6.3,58.5,4,6.7,4,6.7z"/>
	<path class="st0" d="M243.9,97.4c0,0,2.5-2.9,3.7-2.6c1.2,0.3,4.7,1.9,5.2,1.3c0.5-0.6,6.7-8.1,9-9.8c2.3-1.7,8.8-4.9,12-4.7
		c3.2,0.2,3.2,0.2,3.2,0.2s-0.3,6.5-2.9,9.4c-2.6,2.9-6.3,6.6-11.2,8.9c-4.9,2.3-3.5,1.5-4.2,2c-0.7,0.5-0.6,0-0.7,0.8
		c0,0.8-0.1,5.5-1.1,6.1c-1,0.6-2.8,1.7-2.8,1.7s-1.2-2.1-1.4-2.9c-0.2-0.7-0.5-1.8-1.7-2.3c-1.3-0.5-2.5-1-2.5-1s0-2.6-0.4-3.4
		c-0.3-0.7-0.5-0.9-1.1-1.1C246.5,99.8,244.8,99.1,243.9,97.4z"/>
	<path class="st0" d="M17.4,283.5l94.8-0.1l1.8-48.5c0,0-1.7-6,8.9-6.6s42-5.6,56.3-16.6c14.2-11,36.8-32.4,41.6-52.1
		c4.7-19.7,6.8-29.9,11.3-35.7c4.5-5.8,4.5-5.8,4.5-5.8s-43.9,22.8-56.3,30.9c-12.3,8.1-38.8,28.3-49.6,30.2
		c-10.8,1.9-22.1,3.4-9.7-3.4c12.4-6.7,37.9-21.1,37.9-21.1s-40.3,14-64.3,15.5c-24,1.4-71.6,3.2-71.6,3.2s-9.3-1.3-9.2,6
		C13.8,186.7,17.4,283.5,17.4,283.5z"/>
</g>
</svg>
