<?xml version="1.0" encoding="iso-8859-1"?>
<!-- Generator: Adobe Illustrator 19.0.0, SVG Export Plug-In . SVG Version: 6.00 Build 0)  -->
<svg version="1.1" id="Layer_1" xmlns="http://www.w3.org/2000/svg" xmlns:xlink="http://www.w3.org/1999/xlink" x="0px" y="0px"
	 viewBox="0 0 500 500" style="enable-background:new 0 0 500 500;" xml:space="preserve">
<path style="fill:#5A2DA3;" d="M167.934,250.18c0.097-44.284,36.277-80.416,80.627-80.521c44.801-0.106,81.112,36.222,81.051,81.09
	c-0.061,45.018-36.286,81.17-81.149,80.987C203.556,331.552,167.835,295.376,167.934,250.18z M5.138,250.896
	c0,22.265,0.117,44.53-0.072,66.794c-0.056,6.637,2.002,9.129,9.196,8.892c17.925-0.59,35.897-0.623,53.822-0.023
	c9.582,0.321,13.69-2.853,12.276-12.54c-0.332-2.271,0.049-4.642,0.05-6.967c0.004-5.883,2.939-8.418,8.769-7.98
	c2.643,0.199,5.317,0.094,7.972,0.007c34.636-1.128,61.293-28.042,61.296-61.863c0.003-34.243-26.218-60.877-61.34-61.498
	c-27.241-0.481-54.5,0.127-81.745-0.229c-8.006-0.105-10.455,3.077-10.36,10.608c0.271,21.597,0.096,43.199,0.096,64.799
	C5.111,250.896,5.125,250.896,5.138,250.896z M482.569,326.316c4.115-0.019,9.252,1.684,11.785-3.043
	c2.289-4.271-1.775-7.379-3.705-10.597c-26.296-43.846-52.72-87.616-79.089-131.419c-6.451-10.716-9.003-10.853-15.4-0.25
	c-26.753,44.348-53.443,88.734-80.122,133.127c-5.74,9.552-4.353,12.113,7.055,12.175c26.911,0.146,53.822,0.047,80.734,0.058
	C430.076,326.377,456.323,326.436,482.569,326.316z"/>
</svg>
