<?xml version="1.0" standalone="no"?>
<!DOCTYPE svg PUBLIC "-//W3C//DTD SVG 20010904//EN"
 "http://www.w3.org/TR/2001/REC-SVG-20010904/DTD/svg10.dtd">
<svg version="1.0" xmlns="http://www.w3.org/2000/svg"
 width="157.000000pt" height="157.000000pt" viewBox="0 0 157.000000 157.000000"
 preserveAspectRatio="xMidYMid meet">
<metadata>
Created by potrace 1.11, written by Peter Selinger 2001-2013
</metadata>
<g transform="translate(0.000000,157.000000) scale(0.100000,-0.100000)"
fill="#000000" stroke="none">
<path d="M113 1434 c-142 -49 -150 -245 -13 -306 14 -6 87 -11 165 -12 77 -1
142 -4 144 -6 2 -3 -6 -36 -18 -73 -45 -133 -41 -288 10 -422 20 -53 23 -79
23 -220 1 -142 4 -164 21 -195 69 -117 250 -83 271 51 6 38 7 38 33 25 14 -8
40 -16 56 -20 17 -3 41 -9 55 -12 36 -7 164 -7 213 1 219 37 426 234 478 455
16 71 16 210 0 280 -17 69 -65 170 -108 227 -20 26 -33 55 -33 72 0 70 -59
144 -124 156 -18 4 -282 8 -586 9 -411 1 -561 -1 -587 -10z m953 -378 c148
-69 187 -262 78 -383 -93 -102 -264 -105 -355 -6 -41 44 -61 92 -66 158 -15
180 176 309 343 231z"/>
</g>
</svg>
