<?xml version="1.0" standalone="no"?>
<!DOCTYPE svg PUBLIC "-//W3C//DTD SVG 20010904//EN"
 "http://www.w3.org/TR/2001/REC-SVG-20010904/DTD/svg10.dtd">
<svg version="1.0" xmlns="http://www.w3.org/2000/svg"
 width="400.000000pt" height="400.000000pt" viewBox="0 0 400.000000 400.000000"
 preserveAspectRatio="xMidYMid meet">
<metadata>
Created by potrace 1.11, written by Peter Selinger 2001-2013
</metadata>
<g transform="translate(0.000000,400.000000) scale(0.100000,-0.100000)"
fill="#000000" stroke="none">
<path d="M1780 3795 c-113 -113 -210 -205 -217 -205 -7 0 -137 34 -290 75
-152 41 -279 73 -281 71 -1 -2 -37 -129 -78 -282 -41 -153 -78 -282 -83 -287
-4 -4 -133 -41 -286 -82 -153 -41 -279 -76 -281 -78 -2 -1 30 -126 71 -277 41
-151 75 -282 75 -290 0 -8 -93 -108 -207 -222 l-208 -208 208 -208 c114 -114
207 -214 207 -222 0 -8 -33 -139 -74 -290 -40 -151 -73 -276 -72 -277 0 0 129
-36 286 -78 157 -42 286 -78 288 -79 1 -2 36 -129 77 -282 41 -154 76 -282 78
-285 1 -3 124 27 272 67 149 41 279 74 289 74 27 0 329 81 340 91 9 8 -125
530 -149 579 -7 14 -29 91 -51 173 -28 109 -42 147 -54 147 -8 0 -82 -18 -164
-40 -82 -22 -150 -39 -152 -37 -2 2 16 77 41 167 24 91 43 165 42 165 -1 1
-40 11 -87 24 -47 12 -120 31 -163 43 l-79 21 123 123 124 124 -123 123 -123
123 163 44 c90 23 164 44 165 44 2 1 -17 75 -41 164 -23 89 -41 163 -39 165 2
2 74 -16 161 -39 86 -24 160 -43 163 -44 3 0 25 75 49 166 l43 165 124 -123
123 -123 330 330 c182 181 330 335 330 340 0 9 -653 655 -662 655 -2 0 -95
-92 -208 -205z"/>
<path d="M3193 1842 c-156 -41 -283 -78 -283 -81 0 -4 92 -98 205 -211 l205
-205 122 122 121 121 -43 166 c-24 91 -43 166 -44 165 -1 0 -128 -35 -283 -77z"/>
<path d="M2660 1334 c0 -18 147 -554 153 -560 4 -4 80 13 169 37 l163 44 43
163 c24 90 41 166 39 169 -4 4 -421 118 -544 149 -13 4 -23 2 -23 -2z"/>
<path d="M2222 1069 c-91 -332 -143 -542 -136 -548 5 -4 81 -27 168 -50 l159
-42 119 118 c65 65 118 122 118 128 0 6 -94 104 -209 219 l-209 209 -10 -34z"/>
</g>
</svg>
