<?xml version="1.0" encoding="utf-8"?>
<!-- Generator: Adobe Illustrator 23.0.3, SVG Export Plug-In . SVG Version: 6.00 Build 0)  -->
<svg version="1.1" id="Слой_1" xmlns="http://www.w3.org/2000/svg" xmlns:xlink="http://www.w3.org/1999/xlink" x="0px" y="0px"
	 viewBox="0 0 255.1 56.7" style="enable-background:new 0 0 255.1 56.7;" xml:space="preserve">
<style type="text/css">
	.st0{fill:#FFFFFF;}
	.st1{fill:#38A6FA;}
</style>
<g>
	<path class="st0" d="M172.4,34.7c0,5.4-2.8,8.4-8.8,8.4s-8.8-2.9-8.8-8.4V22c0-5.4,2.8-8.4,8.8-8.4s8.8,3,8.8,8.4V34.7z
		 M147.5,34.6c0,9.5,5.5,15.3,16.2,15.3c10.6,0,16.1-5.7,16.1-15.3V22.1c0-9.5-5.5-15.3-16.1-15.3c-10.7,0-16.2,5.7-16.2,15.3V34.6z
		"/>
	<path class="st0" d="M95.5,21.2c0,4.2-2.5,6.7-6.8,6.7h-9.5V14.4h9.5C93,14.4,95.5,17,95.5,21.2 M103.2,21.2
		c0-8.4-5.3-13.6-13.8-13.6H74c-1.2,0-2.1,0.9-2.1,2.1V47c0,1.2,0.9,2.1,2.1,2.1l0,0h3.1l0,0c1.2,0,2.1-1,2.1-2.1v-9.6v-2.7h10.2
		C97.9,34.7,103.2,29.6,103.2,21.2"/>
	<path class="st0" d="M209.8,21.2c0,4.2-2.5,6.7-6.8,6.7h-9.5V14.4h9.5C207.3,14.4,209.8,17,209.8,21.2 M217.6,21.2
		c0-8.4-5.3-13.6-13.8-13.6h-15.4c-1.2,0-2.1,0.9-2.1,2.1V47c0,1.2,0.9,2.1,2.1,2.1l0,0h3.1l0,0c1.2,0,2.1-1,2.1-2.1V34.7h10.2
		C212.2,34.7,217.6,29.6,217.6,21.2"/>
	<path class="st0" d="M133.3,21.1c0,4.2-2.5,6.7-6.8,6.7h-9.5V14.4h9.5C130.8,14.4,133.3,16.9,133.3,21.1 M141,21.1
		c0-8.4-5.3-13.6-13.8-13.6h-15.4c-1.2,0-2.1,0.9-2.1,2.1V47c0,1.2,0.9,2.1,2.1,2.1l0,0h3.1l0,0c1.2,0,2.1-1,2.1-2.1v-9.7v-2.7h7.9
		l7.2,12.5c0.9,1.6,1.9,2,4.4,2h3.1c1.4,0,1.8-0.9,1.1-2l-7.9-13.3C138,32,141,27.6,141,21.1"/>
	<path class="st0" d="M253.5,7.6c-0.5,0-2.8,0-2.8,0c-2.5,0-3.5,0.4-4.4,2l-8.8,15.4l-8.8-15.4c-0.9-1.6-1.9-2-4.4-2
		c0,0-2.3,0-2.8,0c-2.5,0-1.3,2.1-1.3,2.1l13.6,22.9l0,0V47c0,1.2,0.9,2.1,2.1,2.1l0,0h3.1l0,0c1.2,0,2.1-1,2.1-2.1V32.5l0,0
		l13.6-22.9C254.8,9.7,256,7.6,253.5,7.6"/>
	<path class="st1" d="M49.1,47.1c0,1.1-1,2-2.1,2c0,0-30.7,0-30.8,0c-1.1,0-2.1-0.9-2.1-2.1c0,0,0,0,0,0v0v0v0v-0.7
		c0-0.1,0.1-1.5,1-3.2c1.5-2.8,4.3-4.8,8.3-6.2l12.3-4.1c0.3-0.1,2.8-1,5.2-3.1c3.4-2.9,5.2-6.8,5.3-11.2l0.9,0.6c2,1.3,2,3.6,2,3.7
		V47.1z M38.6,18.4c0,2.2-0.8,4-2.4,5.5c-1.3,1.2-2.7,1.7-2.8,1.8l-12.3,4.1c-7.3,2.4-10.9,6.6-12.6,9.7c-0.3,0.6-0.6,1.2-0.8,1.8
		c0,0.1-0.1,0.1-0.1,0.2V22.9c0-2.2,1.7-3.5,2-3.7l0,0l0,0l16.8-11c1.9-1.3,3.9,0,3.9,0l8.3,5.5V18.4z M56.7,46.7V22.9
		c0-1.1-0.3-6.6-5.4-10l-5-3.3V2.1c0-1.2-1-2.1-2.1-2.1l0,0h-3.3l0,0c-1.2,0-2.1,0.9-2.1,2.1v2.5l-4.2-2.8c-3.1-2-8-2.8-12.3,0
		l-16.8,11l0,0l0,0c-1,0.6-5.4,3.9-5.4,10v23.8c0,2.3,0.5,4.2,1.6,5.8c0.8,1.3,2,2.3,3.4,3c2.5,1.2,4.9,1.3,5,1.3h36.7
		c0.1,0,2.5,0,5-1.3c1.5-0.7,2.6-1.7,3.5-3C56.2,50.9,56.7,49,56.7,46.7"/>
</g>
</svg>
