<?xml version="1.0" standalone="no"?>
<!DOCTYPE svg PUBLIC "-//W3C//DTD SVG 20010904//EN"
 "http://www.w3.org/TR/2001/REC-SVG-20010904/DTD/svg10.dtd">
<svg version="1.0" xmlns="http://www.w3.org/2000/svg"
 width="363.000000pt" height="363.000000pt" viewBox="0 0 363.000000 363.000000"
 preserveAspectRatio="xMidYMid meet">
<metadata>
Created by potrace 1.11, written by Peter Selinger 2001-2013
</metadata>
<g transform="translate(0.000000,363.000000) scale(0.100000,-0.100000)"
fill="#000000" stroke="none">
<path d="M1640 3608 c-162 -18 -212 -28 -344 -65 -599 -170 -1074 -655 -1236
-1263 -38 -141 -52 -246 -56 -410 -2 -115 1 -183 10 -225 8 -33 24 -103 36
-155 12 -52 23 -106 26 -120 13 -65 80 -246 126 -340 242 -492 666 -833 1203
-966 15 -3 184 -32 229 -39 83 -12 372 -5 456 10 14 3 50 9 80 15 549 101
1031 471 1277 980 119 246 176 495 177 770 1 127 -7 188 -33 278 -74 247 -248
450 -482 561 -135 65 -232 86 -394 85 -118 0 -164 -6 -264 -34 -273 -77 -465
-248 -567 -503 -32 -82 -64 -212 -64 -263 0 -38 -7 -27 -15 23 -27 186 -117
363 -256 503 -180 182 -409 272 -674 265 -66 -2 -129 -6 -140 -10 -54 -18 209
208 347 299 158 104 420 206 593 231 17 3 57 9 90 14 62 10 357 8 410 -3 17
-3 44 -8 60 -11 49 -8 68 -12 115 -25 100 -26 230 -74 315 -117 141 -71 155
-74 201 -53 51 22 77 62 77 117 0 49 -13 67 -91 125 -202 150 -540 286 -777
313 -27 3 -69 8 -91 11 -67 9 -274 10 -344 2z m1284 -1327 c251 -119 356 -420
233 -669 -130 -267 -469 -361 -719 -201 -104 67 -191 195 -217 317 -60 289
145 570 439 601 83 9 184 -10 264 -48z m-1904 17 c208 -40 376 -243 385 -465
11 -289 -214 -520 -505 -517 -138 1 -241 44 -341 144 -102 101 -153 222 -151
358 3 250 191 461 437 491 64 8 89 6 175 -11z m825 -718 c61 -233 243 -457
463 -569 60 -31 167 -67 237 -81 74 -15 229 -20 298 -9 28 5 52 7 54 5 3 -2
-77 -83 -141 -142 -85 -79 -282 -205 -416 -267 -299 -136 -620 -175 -962 -118
-424 71 -834 346 -1118 751 l-53 75 69 -66 c133 -127 285 -205 479 -244 108
-22 307 -7 430 32 172 55 351 185 461 338 81 111 154 305 165 435 1 14 5 3 9
-25 4 -27 15 -79 25 -115z"/>
<path d="M2635 2061 c-62 -19 -127 -79 -153 -140 -64 -146 8 -310 157 -357
169 -53 340 69 342 246 3 180 -172 307 -346 251z"/>
<path d="M832 2065 c-63 -19 -127 -72 -157 -131 -95 -187 50 -402 257 -380 96
10 166 59 215 149 25 45 24 169 -1 220 -57 116 -193 177 -314 142z"/>
</g>
</svg>
