<svg xmlns="http://www.w3.org/2000/svg" width="126" height="33" fill="none" viewBox="0 0 126 33"><path fill="#000" fill-rule="evenodd" d="M44.112 15.78h1.25c1.385 0 2.078-.6 2.078-1.802 0-1.2-.693-1.801-2.078-1.801h-1.25v3.603zm0 7.819h-3.77V9.149h6.001c1.629 0 2.876.421 3.741 1.264.866.844 1.298 2.032 1.298 3.565s-.432 2.722-1.298 3.565c-.865.843-2.112 1.265-3.74 1.265h-2.232v4.79zm17.646-7.992h.712c.743 0 1.314-.153 1.712-.46.397-.307.596-.747.596-1.322 0-.575-.2-1.016-.597-1.323-.397-.306-.968-.46-1.711-.46h-.712v3.565zm8.29 7.992h-4.694l-3.596-5.558V23.6h-3.77V9.149h5.866c.808 0 1.513.118 2.116.354.603.237 1.1.56 1.49.968.392.409.686.882.885 1.418.199.537.298 1.112.298 1.725 0 1.099-.266 1.99-.798 2.673-.532.684-1.317 1.148-2.356 1.39l4.558 5.922zm9.152-7.225c0 .575.108 1.105.326 1.59a3.993 3.993 0 0 0 2.183 2.099 4.162 4.162 0 0 0 1.568.297 4.166 4.166 0 0 0 2.875-1.13c.378-.358.676-.78.894-1.266a3.839 3.839 0 0 0 .327-1.59 3.84 3.84 0 0 0-.327-1.59 3.956 3.956 0 0 0-.894-1.266 4.174 4.174 0 0 0-2.875-1.13c-.552 0-1.074.098-1.568.296a4 4 0 0 0-2.183 2.1 3.836 3.836 0 0 0-.327 1.59zm-3.943 0a7.48 7.48 0 0 1 2.25-5.424 7.56 7.56 0 0 1 2.53-1.62c.98-.389 2.06-.584 3.24-.584 1.167 0 2.244.195 3.231.585.988.39 1.837.929 2.549 1.619a7.408 7.408 0 0 1 1.663 2.425c.398.926.596 1.926.596 2.999a7.523 7.523 0 0 1-.596 2.999 7.405 7.405 0 0 1-1.663 2.424 7.647 7.647 0 0 1-2.549 1.62c-.987.39-2.064.585-3.23.585-1.18 0-2.26-.195-3.242-.585a7.558 7.558 0 0 1-2.529-1.62 7.477 7.477 0 0 1-1.654-2.424 7.521 7.521 0 0 1-.596-3zm26.827-.594h1.25c1.385 0 2.077-.6 2.077-1.802 0-1.2-.692-1.801-2.077-1.801h-1.25v3.603zm0 7.819h-3.77V9.149h6.001c1.628 0 2.876.421 3.741 1.264.865.844 1.298 2.032 1.298 3.565s-.433 2.722-1.298 3.565-2.113 1.265-3.741 1.265h-2.231v4.79zm21.82-10.752a4.678 4.678 0 0 0-1.231-.737 3.281 3.281 0 0 0-1.193-.24c-.487 0-.885.115-1.192.345-.308.23-.462.53-.462.9 0 .256.077.467.231.633.154.166.356.31.606.431.25.122.532.227.846.316.314.09.625.186.933.288 1.231.409 2.131.955 2.702 1.639.57.683.856 1.575.856 2.673 0 .741-.125 1.412-.375 2.013a4.2 4.2 0 0 1-1.097 1.542c-.48.428-1.07.76-1.769.997-.699.236-1.49.354-2.375.354-1.834 0-3.533-.543-5.097-1.629l1.616-3.028c.564.498 1.122.87 1.673 1.112a4.03 4.03 0 0 0 1.635.364c.615 0 1.073-.14 1.375-.422.301-.28.452-.6.452-.958a1.29 1.29 0 0 0-.116-.565 1.228 1.228 0 0 0-.384-.441 3.094 3.094 0 0 0-.702-.374 23.636 23.636 0 0 0-1.048-.383 21.025 21.025 0 0 1-1.433-.508 4.512 4.512 0 0 1-1.25-.738 3.418 3.418 0 0 1-.885-1.16c-.225-.466-.337-1.056-.337-1.772 0-.715.119-1.364.356-1.945a4.328 4.328 0 0 1 1-1.495 4.46 4.46 0 0 1 1.577-.968c.622-.23 1.318-.345 2.087-.345.718 0 1.468.1 2.25.297a9.983 9.983 0 0 1 2.251.872l-1.5 2.932z" clip-rule="evenodd"/><path fill="#00D1FF" fill-rule="evenodd" d="M9.029 20.746V8.996h11.047V.402A16.406 16.406 0 0 0 16.465 0C7.37 0 0 7.345 0 16.406c0 6.394 3.673 11.93 9.029 14.637V20.746zM23.901 1.77v22.046H12.853v8.596c1.163.26 2.37.4 3.612.4 9.093 0 16.465-7.345 16.465-16.406 0-6.393-3.673-11.929-9.03-14.636zm-3.825 18.235h-7.223v-7.198h7.223v7.198z" clip-rule="evenodd"/></svg>