<?xml version="1.0" encoding="utf-8"?>
<!-- Generator: Adobe Illustrator 22.1.0, SVG Export Plug-In . SVG Version: 6.00 Build 0)  -->
<svg version="1.1" id="레이어_1" xmlns="http://www.w3.org/2000/svg" xmlns:xlink="http://www.w3.org/1999/xlink" x="0px"
	 y="0px" viewBox="0 0 1100.9 249" style="enable-background:new 0 0 1100.9 249;" xml:space="preserve">
<style type="text/css">
	.st0{fill:url(#SVGID_1_);}
	.st1{fill-rule:evenodd;clip-rule:evenodd;fill:#FFFFFF;}
	.st2{fill:#1D3220;}
</style>
<g>
	<g>
		<linearGradient id="SVGID_1_" gradientUnits="userSpaceOnUse" x1="110.6644" y1="6.905" x2="110.6644" y2="241.5923">
			<stop  offset="0" style="stop-color:#129251"/>
			<stop  offset="1" style="stop-color:#0B745C"/>
		</linearGradient>
		<polygon class="st0" points="110.7,6.9 212.3,65.6 212.3,182.9 110.7,241.6 9,182.9 9,65.6 		"/>
		<polygon class="st1" points="101.8,145.2 109.9,131.2 148.3,131.2 99.8,46.9 37.8,82.7 37.8,145.2 23.8,169.2 23.8,74.3 
			105.1,27.1 173.1,145.2 		"/>
		<polygon class="st1" points="61.9,168.1 97.6,106.5 105.5,120.5 86.1,154.2 183.6,154.2 183.6,82.1 128.9,50.5 114.8,26.4 
			197.5,74.1 197.5,168.1 		"/>
		<polygon class="st1" points="97.6,88.2 48.8,172.4 110.9,208.3 165.4,176.8 193.1,176.8 110.6,224.5 29.1,177.7 97.6,59.8 
			133.2,121.9 117.1,121.9 		"/>
	</g>
	<g>
		<path class="st2" d="M292,174.8h-26.1V73.4h80.3v20.3H292v23.9h42.7v20.3H292V174.8z"/>
		<path class="st2" d="M447.6,147.3c0,10.1-2.3,17.5-6.9,22.1c-4.6,4.6-11.9,6.9-22.1,6.9h-36.2c-10.1,0-17.5-2.3-22.1-6.9
			c-4.6-4.6-6.9-11.9-6.9-22.1V101c0-10.1,2.3-17.5,6.9-22.1c4.6-4.6,11.9-6.9,22.1-6.9h36.2c10.1,0,17.5,2.3,22.1,6.9
			c4.6,4.6,6.9,11.9,6.9,22.1V147.3z M421.5,101c0-5.8-2.9-8.7-8.7-8.7h-24.6c-5.8,0-8.7,2.9-8.7,8.7v46.3c0,5.8,2.9,8.7,8.7,8.7
			h24.6c5.8,0,8.7-2.9,8.7-8.7V101z"/>
		<path class="st2" d="M462,73.4h60.8c10.1,0,17.5,2.3,22.1,6.9c4.6,4.6,6.9,11.9,6.9,22.1v13c0,8-1.3,14.2-4,18.7
			c-2.7,4.4-6.9,7.4-12.7,8.8l18.1,31.8H525l-16.6-30.4h-20.3v30.4H462V73.4z M525.7,102.4c0-5.8-2.9-8.7-8.7-8.7h-28.9v30.4h28.9
			c5.8,0,8.7-2.9,8.7-8.7V102.4z"/>
		<path class="st2" d="M646.6,174.8h-80.3V73.4h80.3v20.3h-54.3v19.5H635v20.3h-42.7v21h54.3V174.8z"/>
		<path class="st2" d="M655.1,153.8c26.4,1.4,44.3,2.2,53.7,2.2c2.2,0,4-0.7,5.3-2c1.3-1.3,2-3.1,2-5.3v-13h-33.3
			c-10.1,0-17.5-2.3-22.1-6.9c-4.6-4.6-6.9-11.9-6.9-22.1v-4.3c0-10.1,2.3-17.5,6.9-22.1c4.6-4.6,11.9-6.9,22.1-6.9h50.8v20.3h-45
			c-5.8,0-8.7,2.9-8.7,8.7v2.9c0,5.8,2.9,8.7,8.7,8.7h26.1c9.5,0,16.4,2.2,20.8,6.7c4.4,4.4,6.7,11.4,6.7,20.8v7.2
			c0,9.5-2.2,16.4-6.7,20.8c-4.4,4.4-11.4,6.7-20.8,6.7c-4.9,0-10.1-0.1-15.6-0.3l-13.3-0.6c-9.8-0.5-20-1.2-30.5-2V153.8z"/>
		<path class="st2" d="M797.1,174.8h-26.1V93.7h-30.4V73.4h86.8v20.3h-30.4V174.8z"/>
		<path class="st2" d="M885.4,174.8h-52.1v-20.3h13V93.7h-13V73.4h52.1v20.3h-13v60.8h13V174.8z"/>
		<path class="st2" d="M986.8,174.8h-27.5L924.5,114v60.8h-26.1V73.4H926l34.7,60.8V73.4h26.1V174.8z"/>
		<path class="st2" d="M1091,172.6c-22.6,2.4-43.3,3.6-62.2,3.6c-9.5,0-16.4-2.2-20.8-6.7c-4.4-4.4-6.7-11.4-6.7-20.8v-46.3
			c0-10.1,2.3-17.5,6.9-22.1c4.6-4.6,11.9-6.9,22.1-6.9h52.1v20.3H1036c-5.8,0-8.7,2.9-8.7,8.7v46.3c0,2.2,0.7,4,2,5.3
			c1.3,1.3,3.1,2,5.3,2c11.1,0,21.2-0.2,30.4-0.7v-21h-18.8v-17.4h44.9V172.6z"/>
	</g>
</g>
</svg>
