<?xml version="1.0" encoding="UTF-8"?>
<svg width="179px" height="53px" viewBox="0 0 179 53" version="1.1" xmlns="http://www.w3.org/2000/svg" xmlns:xlink="http://www.w3.org/1999/xlink">
    <!-- Generator: sketchtool 51.3 (57544) - http://www.bohemiancoding.com/sketch -->
    <title>6B4BAF97-BB81-4BDA-A127-78E463300E2F-26095-0000B5B9171C2CF7@2x</title>
    <desc>Created with sketchtool.</desc>
    <defs>
        <polygon id="path-1" points="0.154104962 0.0607941181 5.4232638 0.0607941181 5.4232638 8.23780303 0.154104962 8.23780303"></polygon>
    </defs>
    <g id="Website" stroke="none" stroke-width="1" fill="none" fill-rule="evenodd">
        <g id="Technology" transform="translate(-126.000000, -25.000000)">
            <g id="Global-/-Navigation">
                <g id="Branding-/-Logo-black-green" transform="translate(126.000000, 25.000000)">
                    <g id="Branding-/-Logo">
                        <path d="M5.73863935,34.6419649 C5.07727251,35.4133108 4.74724651,36.3974419 4.74724651,37.5923632 C4.74724651,38.3131727 4.8294243,38.9422187 4.99509472,39.4821609 C5.14761669,39.9323344 5.37639966,40.3632242 5.68144361,40.7748303 C6.26589204,41.5973777 7.09818869,42.008319 8.17899096,42.008319 C9.2085143,42.008319 10.0283199,41.635945 10.6384078,40.8898673 C11.2484957,40.1444545 11.5535397,39.1476893 11.5535397,37.9009016 C11.5535397,36.5510462 11.2544125,35.4904454 10.6574731,34.7190994 C10.0598762,33.9091862 9.24007057,33.5042295 8.19805621,33.5042295 C7.23164541,33.5042295 6.41183979,33.883253 5.73863935,34.6419649 M0.0190652473,53 L0,53 L0,30.1681582 L4.17528916,30.1681582 L4.17528916,32.714265 C4.32781114,32.4948303 4.50860228,32.2767256 4.71832,32.0579559 C4.92803772,31.8398512 5.14432966,31.6343806 5.3665384,31.4415441 C5.58874715,31.2480426 5.81161332,31.0744897 6.03382206,30.9202205 C6.25603081,30.7659513 6.46311884,30.6382803 6.65377131,30.5345475 C7.54326371,30.0717399 8.51559132,29.8403361 9.57075415,29.8403361 C11.7185529,29.8403361 13.4028689,30.5804293 14.6230447,32.0579559 C15.8300721,33.5108792 16.4342432,35.4904456 16.4342432,37.9973202 C16.4342432,40.3113582 15.8300721,42.1632536 14.6230447,43.5510114 C14.0129568,44.271156 13.3101723,44.7924795 12.5160061,45.1129871 C11.72184,45.4341596 10.815912,45.614362 9.79953711,45.6535942 C9.62137567,45.6655634 9.44978844,45.6688882 9.28477544,45.6622386 C9.11910501,45.6555891 8.95409201,45.6402952 8.78907901,45.614362 L8.77001376,45.614362 L8.69375277,45.614362 L8.40777406,45.556511 C8.38213459,45.556511 8.36306934,45.5531863 8.35057832,45.5465367 C8.33742987,45.5405521 8.31836463,45.5372274 8.29338258,45.5372274 C8.11522113,45.486026 7.93705968,45.4314998 7.75955565,45.3736488 C7.5813942,45.3157979 7.39731595,45.2413231 7.20666348,45.1522193 C6.97788051,45.0484866 6.74581043,44.913501 6.51045324,44.7465977 C6.27509605,44.5796944 6.0436834,44.3935074 5.81490043,44.1873719 C5.77676993,44.1614387 5.73535233,44.1268611 5.69064761,44.0809793 C5.64594289,44.0364274 5.60518271,43.9945354 5.56705221,43.9559681 C5.51577327,43.9174008 5.46843886,43.8761737 5.42373415,43.8302919 C5.37902943,43.78574 5.33169502,43.7378633 5.2810735,43.6866619 C5.24294301,43.6474297 5.20481251,43.6055376 5.16668202,43.5609857 C5.12855152,43.5157689 5.09042103,43.4672273 5.05229054,43.4160259 C5.00101159,43.3521903 4.95039008,43.2910146 4.89976856,43.2331637 C4.84848962,43.1753127 4.7978681,43.114137 4.74724658,43.0503015 C4.73409813,43.7957143 4.72818133,44.4699771 4.72818133,45.0744198 L4.72818133,47.2534722 C4.72818133,47.7162799 4.64205901,48.1817473 4.47047178,48.6512044 C4.29888456,49.1206615 4.0733887,49.5675103 3.79398421,49.9917506 C3.5139223,50.4166558 3.20296155,50.8109732 2.8597871,51.1780275 C2.51661264,51.5444169 2.17015108,51.8622646 1.82040241,52.1322357 C1.47065373,52.4022068 1.13734062,52.614327 0.819805634,52.7685962 C0.501613231,52.9228654 0.234699769,53 0.0190652473,53" id="Fill-1" fill="#0B0C11"></path>
                        <path d="M27.3493428,38.3833408 C27.1966598,38.4479949 26.9485499,38.4806552 26.6050132,38.4806552 C26.4266636,38.4806552 26.2259381,38.4833213 26.0034948,38.4893202 C25.7810515,38.4966521 25.5362322,38.4993182 25.2690369,38.4993182 C23.9837356,38.5379774 23.0485522,38.7239412 22.4634867,39.0572097 C21.8527547,39.4291374 21.5473887,39.9543686 21.5473887,40.6342363 C21.5473887,41.1601341 21.7507467,41.5767197 22.1581207,41.8846598 C22.5523325,42.1925999 23.1314749,42.3459035 23.8948899,42.3459035 C24.9255002,42.3459035 25.7586755,41.9613116 26.3950741,41.1921278 C27.0308145,40.4356083 27.3493428,39.6211 27.3493428,38.7492696 L27.3493428,38.3833408 Z M27.5592819,45.2846651 L27.5592819,42.7544907 C27.3045909,43.0910919 27.0498999,43.4023646 26.7958669,43.6876425 C26.5793466,43.9342612 26.3470316,44.1768806 26.0989217,44.416834 C25.8508118,44.6561208 25.6184967,44.8347527 25.4026345,44.9513966 C24.562878,45.4179726 23.6401988,45.6512605 22.6352551,45.6512605 C20.904409,45.6512605 19.5493474,45.2200111 18.5700702,44.3561791 C17.5901349,43.5063444 17.1004963,42.3972268 17.1004963,41.0314925 C17.1004963,39.3691492 17.749399,38.0933974 19.0472046,37.204237 C19.6961073,36.7663222 20.4878213,36.4277214 21.4230047,36.1897677 C22.3581881,35.951814 23.4427639,35.8385027 24.6773903,35.8511669 L27.0058061,35.889826 C26.954473,35.5158988 26.8465419,35.1553022 26.6813547,34.8073699 C26.5793466,34.6140742 26.4424584,34.4207785 26.2706901,34.2274827 C26.0989217,34.0348535 25.885692,33.8475566 25.631659,33.6669251 C25.5934883,33.6415967 25.5553175,33.6156017 25.5171468,33.5902733 C25.478976,33.5642784 25.4408053,33.5382835 25.4026345,33.5122885 C25.3513015,33.4862936 25.3006265,33.4576325 25.2499515,33.4256387 C25.1986185,33.3936449 25.1420204,33.3643173 25.0781832,33.3383224 C24.9886793,33.3129939 24.8998336,33.286999 24.8109879,33.2610041 C24.7214841,33.2350091 24.6201342,33.2096807 24.5056219,33.1836858 L24.3911096,33.1836858 C24.3016058,33.1710216 24.2127601,33.16169 24.1239144,33.1543581 C24.0344106,33.1483593 23.9264795,33.1456932 23.799463,33.1456932 C23.3664224,33.1456932 22.9373305,33.1803531 22.5108711,33.2516725 C22.0844117,33.3223255 21.6487386,33.4283048 21.203852,33.5702772 C20.7583072,33.7122496 20.3384289,33.8762177 19.9442172,34.0635146 C19.5493474,34.250145 19.1933064,34.466103 18.8754362,34.7107221 L18.8754362,31.0574327 C19.5111766,30.7095004 20.3575143,30.4262222 21.4137911,30.2069315 C21.9606858,30.0916206 22.5016575,30.0009716 23.036048,29.9363175 C23.5704385,29.8716634 24.104829,29.8403361 24.6392195,29.8403361 L26.8531231,29.8403361 C27.5908715,29.8403361 28.2621503,29.9783093 28.8663011,30.2555887 C29.4704519,30.5328681 29.9890477,30.9027961 30.4220882,31.3667059 C30.8544707,31.8306156 31.1855033,32.3625122 31.4145278,32.9610624 C31.6435523,33.5609457 31.7580645,34.1761594 31.7580645,34.8073699 L31.7580645,37.4168623 L31.7389791,37.4168623 L31.7580645,45.2846651 L27.5592819,45.2846651 Z" id="Fill-3" fill="#0B0C11"></path>
                        <path d="M38.1882836,39.7434285 C38.1882836,40.5907194 38.3657798,41.2205522 38.7201172,41.631601 C39.087554,42.0426498 39.6062883,42.2481742 40.2776299,42.2481742 C40.6830548,42.2481742 41.0498366,42.2077323 41.3792853,42.1268485 C41.5312378,42.0864066 41.6641962,42.0426498 41.7781605,41.9949151 C41.8921249,41.9478434 41.9936448,41.9040866 42.0820654,41.8636447 L42.1960298,45.2859575 C42.0820654,45.3244104 41.9170136,45.3628634 41.7021843,45.4013163 C41.4867,45.4397693 41.2273328,45.4841891 40.9234279,45.5359016 C40.3156181,45.6128076 39.6632704,45.6512605 38.96704,45.6512605 C37.1560548,45.6512605 35.800927,45.2024217 34.9023116,44.3054072 C33.9905968,43.4335859 33.5347395,42.1009922 33.5347395,40.3063001 L33.5347395,31.1737239 C33.5347395,30.4689741 33.7024111,29.7834508 34.0384095,29.116491 C34.3737528,28.4501942 34.7785228,27.8475436 35.2540292,27.3092022 C35.7288806,26.7708609 36.2318957,26.328652 36.7637293,25.9825754 C37.2955629,25.6364988 37.7638647,25.4376042 38.1692895,25.3865546 L38.1882836,30.2124001 L41.9870951,30.2124001 L41.9870951,33.5770335 L38.1882836,33.5770335 L38.1882836,39.7434285 Z" id="Fill-5" fill="#0B0C11"></path>
                        <path d="M43.9727047,30.3162752 L48.597449,30.3162752 L48.597449,45.428571 L48.6364764,45.428571 L43.9727047,45.428571 L43.9727047,30.3162752 Z M43.9727047,28.808244 L48.6169628,28.808244 L48.6169628,26.2773109 L43.9727047,26.2773109 L43.9727047,28.808244 Z" id="Fill-7" fill="#0B0C11"></path>
                        <path d="M54.7515724,36.2418323 L59.3027469,36.2418323 L59.9391399,36.2418323 L60.2476941,36.2611139 C60.2350594,35.207274 59.9710593,34.4034301 59.457024,33.8509121 C58.9556234,33.3110269 58.235442,33.0417492 57.2971446,33.0417492 C56.3069782,33.0417492 55.5229579,33.458631 54.9444188,34.2943893 C54.5972953,34.7830785 54.3592298,35.4320045 54.2308872,36.2418323 L54.7515724,36.2418323 Z M54.2694567,39.2298178 L54.250172,39.2105362 C54.4556532,40.0928363 54.7642074,40.7570547 55.1758346,41.2045211 C55.9086508,41.9711316 57.0205099,42.3541043 58.5120768,42.3541043 C59.4889434,42.3541043 60.4086211,42.2151437 61.2697799,41.9372225 C62.1828077,41.6593013 62.7932662,41.4259273 63.1018204,41.2357706 L63.1018204,44.8028694 C62.7673317,44.9444896 62.4108984,45.0635037 62.0318555,45.1599118 C61.6521477,45.2563198 61.2571451,45.3427547 60.8455179,45.4198811 C60.0096286,45.574134 59.083966,45.6512605 58.0685301,45.6512605 C55.5355928,45.6512605 53.5492752,44.9511384 52.1095773,43.5495645 C51.3767611,42.8554263 50.8367913,42.019668 50.4896678,41.0429545 C50.1425444,40.066241 49.9689826,38.9545561 49.9689826,37.7072351 L49.9689826,37.5337006 L49.9689826,37.3987292 L49.9689826,37.3216028 L49.9689826,36.8202808 L49.9689826,36.7817176 L49.9689826,36.106861 C49.9689826,35.6826655 50.0294965,35.2325395 50.1518542,34.7578129 C50.2742119,34.2817564 50.4477736,33.8123488 50.6732044,33.3495901 C50.8979701,32.8868313 51.1679551,32.4433542 51.4824941,32.0191586 C51.7976982,31.5949631 52.1448217,31.2219636 52.5238645,30.900825 C52.9035724,30.5796863 53.3112097,30.3230414 53.7487715,30.1302252 C54.1856682,29.9374091 54.6358648,29.8403361 55.0986961,29.8403361 L57.1621522,29.8403361 L59.1484698,29.8403361 C59.8427167,29.8403361 60.4697999,29.9819563 61.0283894,30.2645317 C61.5883089,30.5477719 62.0664349,30.9201066 62.4654274,31.3828653 C62.8637549,31.8456241 63.1723091,32.376201 63.3910899,32.973931 C63.6098708,33.5709962 63.7189288,34.1853484 63.7189288,34.8149928 L63.7189288,37.2830396 C63.7189288,37.5277166 63.7222537,37.7717288 63.7289036,38.0157409 C63.7348885,38.260418 63.7382134,38.511079 63.7382134,38.7677239 L63.7382134,39.1347395 L54.2694567,39.1347395 L54.2694567,39.2298178 Z" id="Fill-9" fill="#0B0C11"></path>
                        <path d="M75.1819893,45.2058824 L75.1819893,36.4993773 C75.1819893,36.3845663 75.1687823,36.17144 75.1436891,35.8586789 C75.1179354,35.5459177 75.0386935,35.2239189 74.9046426,34.8920226 C74.7699313,34.5601262 74.5658834,34.2638609 74.291178,34.0025668 C74.0164727,33.7406128 73.6308286,33.6099658 73.1329252,33.6099658 C72.6350218,33.6099658 72.1820221,33.6997032 71.7732658,33.8778582 C71.3645096,34.0566732 71.0105623,34.3278648 70.7107637,34.6907733 C70.4103047,35.0543416 70.1772014,35.516885 70.0114537,36.0784035 C69.8450456,36.6399219 69.762502,37.2971162 69.762502,38.0493266 L69.762502,45.2058824 L65.0707196,45.2058824 L65.0707196,34.7772115 C65.0707196,34.152349 65.2080723,33.5426627 65.4827776,32.9501321 C65.7568226,32.3562818 66.1206751,31.8303944 66.5736748,31.3711502 C67.0266745,30.911906 67.5503315,30.5417393 68.1439856,30.26131 C68.7383001,29.9808807 69.3603492,29.8403361 70.0114537,29.8403361 L75.0096381,29.8403361 C75.7498898,29.8403361 76.4267479,29.9808807 77.0395521,30.26131 C77.6523564,30.5417393 78.1720513,30.911906 78.5999577,31.3711502 C79.0278641,31.8303944 79.3600199,32.3562818 79.5964249,32.9501321 C79.8321697,33.5426627 79.9503722,34.152349 79.9503722,34.7772115 L79.9503722,45.2058824 L75.1819893,45.2058824 Z" id="Fill-11" fill="#0B0C11"></path>
                        <path d="M86.1585069,39.7434285 C86.1585069,40.5907194 86.3360031,41.2205522 86.6903405,41.631601 C87.0577773,42.0426498 87.5765116,42.2481742 88.2478533,42.2481742 C88.6532782,42.2481742 89.02006,42.2077323 89.3495086,42.1268485 C89.5014611,42.0864066 89.6344195,42.0426498 89.7483838,41.9949151 C89.8623482,41.9478434 89.9638681,41.9040866 90.0522888,41.8636447 L90.1662531,45.2859575 C90.0522888,45.3244104 89.8872369,45.3628634 89.6724076,45.4013163 C89.4569233,45.4397693 89.1975562,45.4841891 88.8936512,45.5359016 C88.2858414,45.6128076 87.6334937,45.6512605 86.9372633,45.6512605 C85.1262781,45.6512605 83.7711504,45.2024217 82.8725349,44.3054072 C81.9608202,43.4335859 81.5049628,42.1009922 81.5049628,40.3063001 L81.5049628,31.1737239 C81.5049628,30.4689741 81.6726345,29.7834508 82.0086328,29.116491 C82.3439762,28.4501942 82.7487461,27.8475436 83.2242525,27.3092022 C83.6991039,26.7708609 84.202119,26.328652 84.7339526,25.9825754 C85.2657862,25.6364988 85.734088,25.4376042 86.1395129,25.3865546 L86.1585069,30.2124001 L89.9573185,30.2124001 L89.9573185,33.5770335 L86.1585069,33.5770335 L86.1585069,39.7434285 Z" id="Fill-13" fill="#0B0C11"></path>
                        <path d="M102.087598,37.803973 C102.087598,36.4031229 101.798836,35.3167493 101.223299,34.5455172 C100.634516,33.7616528 99.8020077,33.3687233 98.7264358,33.3687233 C97.6508639,33.3687233 96.8117324,33.7616528 96.2103658,34.5455172 C95.6341666,35.3167493 95.346067,36.4031229 95.346067,37.803973 C95.346067,39.1662615 95.6407896,40.2393379 96.2295725,41.0238672 C96.830939,41.8210287 97.6634476,42.219277 98.7264358,42.219277 C99.8020077,42.219277 100.627893,41.8210287 101.204092,41.0238672 C101.792875,40.2393379 102.087598,39.1662615 102.087598,37.803973 M106.600496,37.8039732 C106.600496,40.1814958 105.877929,42.0836469 104.430808,43.5110912 C103.009517,44.9372059 101.108059,45.6512605 98.7264357,45.6512605 C96.3448122,45.6512605 94.4367318,44.9372059 93.0028567,43.5110912 C91.5557356,42.0836469 90.8325062,40.1814958 90.8325062,37.8039732 C90.8325062,35.4124886 91.5557356,33.5036889 93.0028567,32.0775743 C93.732709,31.3442389 94.5711782,30.7884198 95.5189266,30.4094523 C96.466675,30.0304848 97.535624,29.8403361 98.7264357,29.8403361 C99.9172475,29.8403361 100.982885,30.0304848 101.92401,30.4094523 C102.865798,30.7884198 103.700956,31.3442389 104.430808,32.0775743 C105.877929,33.5036889 106.600496,35.4124886 106.600496,37.8039732" id="Fill-15" fill="#0B0C11"></path>
                        <path d="M117.917987,34.3265306 C117.009619,34.0713758 116.213722,34.004785 115.529634,34.1254396 C114.844884,34.2474128 114.272605,34.5177318 113.812136,34.9383746 C113.352328,35.3590174 113.003007,35.9102045 112.766818,36.5925952 C112.529306,37.2743266 112.412204,38.0549552 112.412204,38.934481 L112.412204,45.2058824 L107.710918,45.2058824 L107.710918,36.0855822 C107.710918,35.4480249 107.84853,34.7920068 108.123091,34.1162092 C108.398314,33.4404116 108.76616,32.812744 109.226629,32.2325471 C109.68776,31.6530095 110.217697,31.16182 110.819747,30.7609567 C111.420475,30.3587747 112.047004,30.1201028 112.699335,30.0436223 C113.492586,29.9671418 114.240187,29.9097814 114.944123,29.8715412 C115.251764,29.8590142 115.558744,29.8491245 115.865062,29.8425313 C116.172041,29.8365975 116.469758,29.8425313 116.757552,29.8623108 C117.045345,29.8814309 117.310644,29.9097814 117.553449,29.9480217 C117.796254,29.9862619 117.994732,30.0370292 118.148883,30.1009827 L117.917987,34.3265306 Z" id="Fill-17" fill="#0B0C11"></path>
                        <path d="M136.80397,30.0630252 L131.308755,43.9835777 C130.937725,44.931036 130.569345,45.8493621 130.204278,46.7392181 C129.839212,47.628412 129.393976,48.4189537 128.868571,49.1101811 C128.343167,49.8014086 127.697177,50.3549202 126.928616,50.770716 C126.160054,51.1865118 125.179476,51.3950718 123.988205,51.3950718 C123.643015,51.3950718 123.2965,51.4043412 122.951309,51.424204 C122.604794,51.4434048 122.265567,51.4460532 121.932965,51.4334733 L122.220513,48.2461468 C122.323209,48.2329049 122.429218,48.2236356 122.537876,48.2176768 C122.646535,48.2103937 122.765132,48.2017865 122.893667,48.1885446 C123.520443,48.1243213 124.010732,47.9740257 124.36321,47.7369956 C124.715688,47.5006276 124.98071,47.2218855 125.160924,46.9020935 C125.339813,46.5816394 125.451785,46.2426466 125.496839,45.8844531 C125.54123,45.5255975 125.563756,45.1932257 125.563756,44.8860135 L119.703474,30.0630252 L125.276208,30.0630252 L128.504167,39.8362131 L128.561809,39.8362131 L131.635393,30.0630252 L136.80397,30.0630252 Z" id="Fill-19" fill="#0B0C11"></path>
                        <path d="M139.468983,30.316801 L144.09306,30.316801 L144.09306,45.4285719 L144.132754,45.4285719 L139.468983,45.4285719 L139.468983,30.316801 Z M139.468983,28.8088223 L144.112571,28.8088223 L144.112571,26.2773109 L139.468983,26.2773109 L139.468983,28.8088223 Z" id="Fill-21" fill="#00CE7C"></path>
                        <path d="M155.576082,45.2058824 L155.576082,36.4993773 C155.576082,36.3845663 155.563535,36.17144 155.537783,35.8586789 C155.512031,35.5459177 155.432792,35.2239189 155.298747,34.8920226 C155.164702,34.5601262 154.960003,34.2638609 154.68597,34.0025668 C154.411277,33.7406128 154.02499,33.6099658 153.527108,33.6099658 C153.029887,33.6099658 152.576247,33.6997032 152.16817,33.8778582 C151.759432,34.0566732 151.40484,34.3278648 151.105054,34.6907733 C150.804609,35.0543416 150.572176,35.516885 150.406436,36.0784035 C150.240035,36.6399219 150.157495,37.2971162 150.157495,38.0493266 L150.157495,45.2058824 L145.465261,45.2058824 L145.465261,34.7772115 C145.465261,34.152349 145.602607,33.5426627 145.8773,32.9501321 C146.151993,32.3562818 146.515169,31.8303944 146.968809,31.3711502 C147.421789,30.911906 147.945423,30.5417393 148.539051,30.26131 C149.132678,29.9808807 149.75536,29.8403361 150.406436,29.8403361 L155.403738,29.8403361 C156.143957,29.8403361 156.821445,29.9808807 157.433562,30.26131 C158.046339,30.5417393 158.566671,30.911906 158.994559,31.3711502 C159.421786,31.8303944 159.753927,32.3562818 159.990321,32.9501321 C160.226716,33.5426627 160.344913,34.152349 160.344913,34.7772115 L160.344913,45.2058824 L155.576082,45.2058824 Z" id="Fill-23" fill="#00CE7C"></path>
                        <path d="M174.336228,41.5249949 L174.336228,45.1685552 C174.196624,45.1951506 174.003274,45.2337138 173.75618,45.2849098 C173.509086,45.3354409 173.202349,45.3939507 172.834658,45.4584444 C172.466966,45.522938 172.077646,45.5708096 171.666042,45.6033889 C171.253781,45.6353033 170.806784,45.6512605 170.325705,45.6512605 C167.664694,45.6512605 165.560791,44.9311919 164.015307,43.4917196 C162.456715,42.0648801 161.677419,40.1048042 161.677419,37.610827 L161.677419,36.357522 C161.677419,35.4705677 161.851106,34.6321499 162.19979,33.8409388 C162.548474,33.0503926 163.045939,32.2957501 163.692185,31.5756815 C164.29976,30.894841 164.959114,30.4347418 165.668936,30.1967136 C166.378102,29.9586854 167.10693,29.8403361 167.854766,29.8403361 L171.561174,29.8403361 C171.776808,29.8403361 172.007516,29.8629422 172.25461,29.9074893 C172.501704,29.9533663 172.745521,30.0112111 172.986716,30.0810239 C173.227255,30.1521664 173.448788,30.2359417 173.651968,30.3316849 C173.854494,30.4287578 174.025559,30.5218415 174.165163,30.6116007 L173.823033,34.1208547 C173.594947,33.953969 173.202349,33.7930672 172.644586,33.6388143 C172.112383,33.4719286 171.510051,33.3881533 170.8389,33.3881533 C169.546409,33.3881533 168.520019,33.7737856 167.75973,34.5450502 C166.986333,35.3163148 166.600289,36.3448893 166.600289,37.6301086 C166.600289,38.9798217 166.992887,40.0529433 167.778737,40.8501383 C168.589493,41.6473334 169.660452,42.0455985 170.990957,42.0455985 C171.751246,42.0455985 172.428952,41.968472 173.02473,41.8142191 C173.328846,41.7370926 173.601501,41.6765883 173.842041,41.6307113 C174.08258,41.5861641 174.247091,41.5509253 174.336228,41.5249949" id="Fill-25" fill="#00CE7C"></path>
                        <path d="M176.779156,44.2034464 C176.779156,43.4843222 177.24572,42.9789916 177.898909,42.9789916 C178.552099,42.9789916 179,43.4843222 179,44.2034464 C179,44.9038051 178.570761,45.4285714 177.880247,45.4285714 C177.226414,45.4285714 176.779156,44.9038051 176.779156,44.2034464" id="Fill-27" fill="#38B449"></path>
                        <path d="M92.0135909,23.7666409 L94.1012931,21.6786604 C94.7768229,21.0030406 94.7768229,19.8976005 94.1012931,19.2219808 L91.8295944,16.9499793 C91.1540647,16.2750168 91.1540647,15.1695767 91.8295944,14.4939569 L92.0707612,14.2521008 C86.609353,17.785303 82.4385483,16.0745654 80.067623,14.2751035 L80.2857902,14.4932997 C80.9613199,15.1689195 80.9613199,16.2743596 80.2857902,16.9499793 L78.0140915,19.2213235 C77.3385617,19.8976005 77.3385617,21.0023834 78.0140915,21.6780031 L80.1024509,23.7666409 C80.7779806,24.4422606 81.8826163,24.4416034 82.558146,23.7666409 L84.8298447,21.4946394 C85.5053745,20.8190197 86.6106673,20.8190197 87.2855399,21.4939822 L89.5578957,23.7666409 C90.2334255,24.4416034 91.3380611,24.4422606 92.0135909,23.7666409" id="Fill-29" fill="#0B0C11"></path>
                        <path d="M89.5569342,7.63219444 L87.2852464,9.90163656 C86.60972,10.5764953 85.5044325,10.5764953 84.8295631,9.90163656 L82.5578753,7.63219444 C81.8823488,6.95733575 80.7770614,6.95733575 80.1015349,7.63219444 L78.0138426,9.71782291 C77.3383162,10.3926816 77.3389733,11.49622 78.0138426,12.1710787 L80.0673643,14.2225703 C82.4382782,16.0200053 86.6090628,17.7288157 92.0704447,14.1995936 L94.1009669,12.1717352 C94.7764934,11.4968765 94.7771505,10.3933381 94.101624,9.71782291 L92.0132747,7.63219444 C91.3377482,6.95733575 90.2324607,6.95733575 89.5569342,7.63219444" id="Fill-31" fill="#00CE7C"></path>
                        <g id="Group-35" transform="translate(83.725806, 0.000000)">
                            <mask id="mask-2" fill="white">
                                <use xlink:href="#path-1"></use>
                            </mask>
                            <g id="Clip-34"></g>
                            <path d="M3.26064276,0.0606605024 C3.26064276,0.0606605024 -2.92551744,3.56266902 2.16132511,8.23780363 C2.16132511,8.23780363 8.70126571,5.18607244 3.26064276,0.0606605024" id="Fill-33" fill="#00CE7C" mask="url(#mask-2)"></path>
                        </g>
                    </g>
                </g>
            </g>
        </g>
    </g>
</svg>