<svg xmlns="http://www.w3.org/2000/svg" width="170" height="30" viewBox="0 0 170 30">
    <g fill="none" fill-rule="evenodd">
        <path fill="#FF7B00" d="M15.089 20h-5.03V10h10.06v10h-5.03zm0 5H25.148V5H5.029v15H0V0h30.178v30H10.059v-5h5.03zM0 25h5.03v5H0v-5z"/>
        <path fill="#FFF" d="M43.038 6.868c2.1 0 3.725.51 4.876 1.531 1.15 1.021 1.726 2.414 1.726 4.179 0 1.013-.198 1.96-.595 2.843-.396.883-1.042 1.608-1.936 2.176-.894.568-2.05.851-3.465.851h-2.426v5.365h-3.383V6.868h5.203zm.583 8.334c.638 0 1.15-.142 1.54-.426.389-.283.669-.617.84-1.001a2.71 2.71 0 0 0 .256-1.105c0-.599-.179-1.178-.536-1.738-.358-.56-1.05-.84-2.077-.84h-2.426v5.11h2.403zM56.367 6.868V20.59h8.106v3.224H52.97V6.868zM78.022 20.51h-5.66l-1.393 3.303h-3.317l7.702-17.544h.186l7.702 17.544h-3.898l-1.322-3.303zm-1.114-2.798l-1.647-4.105-1.717 4.105h3.364zM98.983 6.868l-6.4 11.673v5.272h-3.361V18.54L82.939 6.868h4.15l3.918 7.828 3.826-7.828z"/>
        <path fill="#FF7B00" d="M115.178 22.082c-.262.275-.728.562-1.398.86-.67.298-1.41.543-2.218.734-.808.191-1.544.287-2.206.287-1.802 0-3.385-.348-4.748-1.044-1.363-.695-2.415-1.659-3.154-2.89-.74-1.23-1.109-2.632-1.109-4.207 0-1.972.393-3.642 1.178-5.01.786-1.369 1.841-2.393 3.166-3.073 1.324-.68 2.788-1.02 4.39-1.02 1.031 0 2.002.114 2.91.343.91.23 1.71.528 2.403.895l-1.085 3.095c-.447-.244-1.06-.47-1.837-.676-.778-.206-1.429-.31-1.953-.31-1.848 0-3.261.459-4.24 1.376-.977.917-1.466 2.278-1.466 4.082 0 1.04.238 1.945.716 2.717.477.772 1.144 1.365 1.998 1.777.855.413 1.83.62 2.923.62 1.048 0 1.825-.146 2.334-.436V18.16h-2.935v-3.21h6.331v7.131zM128.727 20.51h-5.661l-1.392 3.303h-3.317l7.702-17.544h.185l7.702 17.544h-3.897l-1.322-3.303zm-1.114-2.798l-1.647-4.105-1.717 4.105h3.364zM154.53 6.269v17.544h-3.358v-8.04l-5.559 7.81h-.046l-5.35-7.306v7.536h-3.244V6.269h.024l8.64 12.115 8.848-12.115zM168.888 6.868v3.224h-8.273v3.614h7.323v3.223h-7.323v3.66h8.597v3.224h-11.957V6.868z"/>
    </g>
</svg>
