<svg xmlns="http://www.w3.org/2000/svg" width="200" height="88" viewBox="0 0 200 88"><defs><style>.a{fill:#5ca0f6;}.b{fill:#364154;}</style></defs><g transform="translate(-8.5 -40)"><ellipse class="a" cx="5.814" cy="5.814" rx="5.814" ry="5.814" transform="translate(16.708 40)"/><path class="a" d="M1301.708,530.167h7.524V498.359h-.684a6.84,6.84,0,0,0-6.84,6.84Z" transform="translate(-1293.208 -442.944)"/><path class="b" d="M1413.362,542.847h-3.42a9.245,9.245,0,0,1-9.234-9.234V506.593a9.245,9.245,0,0,1,9.234-9.234h3.42a9.245,9.245,0,0,1,9.234,9.234v27.019A9.245,9.245,0,0,1,1413.362,542.847Zm-3.42-37.964a1.712,1.712,0,0,0-1.71,1.71v27.019a1.712,1.712,0,0,0,1.71,1.71h3.42a1.712,1.712,0,0,0,1.71-1.71V506.593a1.712,1.712,0,0,0-1.71-1.71Z" transform="translate(-1358.299 -442.279)"/><path class="b" d="M1690.363,542.847h-3.42a9.245,9.245,0,0,1-9.234-9.234V506.593a9.245,9.245,0,0,1,9.234-9.234h3.42a9.245,9.245,0,0,1,9.234,9.234v27.019A9.245,9.245,0,0,1,1690.363,542.847Zm-3.42-37.964a1.712,1.712,0,0,0-1.71,1.71v27.019a1.712,1.712,0,0,0,1.71,1.71h3.42a1.712,1.712,0,0,0,1.71-1.71V506.593a1.712,1.712,0,0,0-1.71-1.71Z" transform="translate(-1540.42 -442.279)"/><path class="b" d="M1554.362,542.847h-3.42a9.245,9.245,0,0,1-9.234-9.234V497.359h7.524v36.254a1.712,1.712,0,0,0,1.71,1.71h3.42a1.712,1.712,0,0,0,1.71-1.71V497.359h7.524v36.254A9.245,9.245,0,0,1,1554.362,542.847Z" transform="translate(-1451.003 -442.279)"/><path class="b" d="M1762.363,542.847h-3.42a9.245,9.245,0,0,1-9.234-9.234V497.359h7.524v36.254a1.712,1.712,0,0,0,1.71,1.71h3.42a1.712,1.712,0,0,0,1.71-1.71V497.359h7.524v36.254A9.245,9.245,0,0,1,1762.363,542.847Z" transform="translate(-1587.722 -442.279)"/><path class="b" d="M1632.519,542.848h-18.811V497.359h7.524v37.964h11.287Z" transform="translate(-1498.344 -442.28)"/><path class="b" d="M1834.362,542.847h-3.42a9.245,9.245,0,0,1-9.234-9.234v-3.42h7.524v3.42a1.712,1.712,0,0,0,1.71,1.71h3.42a1.712,1.712,0,0,0,1.71-1.71v-5.255a1.7,1.7,0,0,0-.634-1.329l-10.307-8.343a9.2,9.2,0,0,1-3.424-7.178v-4.914a9.245,9.245,0,0,1,9.234-9.234h3.42a9.245,9.245,0,0,1,9.234,9.234v3.42h-7.524v-3.42a1.712,1.712,0,0,0-1.71-1.71h-3.42a1.712,1.712,0,0,0-1.71,1.71v4.914a1.7,1.7,0,0,0,.634,1.329l10.306,8.343a9.2,9.2,0,0,1,3.424,7.177v5.255A9.245,9.245,0,0,1,1834.362,542.847Z" transform="translate(-1635.097 -442.279)"/><path class="b" d="M1339.232,542.847h-7.524V497.359h11.628a9.245,9.245,0,0,1,9.234,9.234v13.681a9.245,9.245,0,0,1-9.234,9.234h-4.1Zm0-20.863h4.1a1.712,1.712,0,0,0,1.71-1.71V506.593a1.712,1.712,0,0,0-1.71-1.71h-4.1Z" transform="translate(-1312.947 -442.279)"/><path class="b" d="M1480.232,542.847h-7.524V497.359h11.629a9.245,9.245,0,0,1,9.234,9.234v13.681a9.245,9.245,0,0,1-9.234,9.234h-4.1Zm0-20.863h4.1a1.712,1.712,0,0,0,1.71-1.71V506.593a1.712,1.712,0,0,0-1.71-1.71h-4.1Z" transform="translate(-1405.637 -442.279)"/><g transform="translate(143.998 114.306)"><path class="a" d="M1701.666,678.485l.245,2.332h.075l.263-2.37,2.295-7.318h1.693l2.258,7.355.263,2.332h.075l.288-2.37,1.631-7.318h2.578l-3.631,13.262h-1.731l-2.351-7.317-.32-2.013h-.094l-.32,2.032-2.333,7.3h-1.825l-3.612-13.262h2.8Z" transform="translate(-1697.114 -670.867)"/><path class="a" d="M1747.824,677.207a7.834,7.834,0,0,1,1.449-5.07,5.031,5.031,0,0,1,4.138-1.777,5.8,5.8,0,0,1,2.464.489,4.647,4.647,0,0,1,1.75,1.392,6.087,6.087,0,0,1,1.035,2.163,10.8,10.8,0,0,1,.339,2.8,7.8,7.8,0,0,1-1.458,5.069,5.039,5.039,0,0,1-4.129,1.778,5.845,5.845,0,0,1-2.483-.489,4.569,4.569,0,0,1-1.74-1.392,6.179,6.179,0,0,1-1.025-2.163A10.8,10.8,0,0,1,1747.824,677.207Zm2.709,0a9.246,9.246,0,0,0,.169,1.834,4.726,4.726,0,0,0,.517,1.439,2.625,2.625,0,0,0,.893.94,2.412,2.412,0,0,0,1.3.339,2.445,2.445,0,0,0,2.125-1.072,6.2,6.2,0,0,0,.753-3.48,9.456,9.456,0,0,0-.16-1.787,4.985,4.985,0,0,0-.5-1.448,2.6,2.6,0,0,0-.884-.969,2.65,2.65,0,0,0-3.462.752A6.225,6.225,0,0,0,1750.533,677.207Z" transform="translate(-1730.48 -670.36)"/><path class="a" d="M1788.634,670.9q.433-.075.931-.141c.332-.044.665-.078,1-.1s.656-.044.969-.056.6-.019.866-.019a9.728,9.728,0,0,1,1.815.169,4.963,4.963,0,0,1,1.6.583,3.116,3.116,0,0,1,1.129,1.138,3.551,3.551,0,0,1,.423,1.815,4.315,4.315,0,0,1-.752,2.633,3.876,3.876,0,0,1-2.013,1.411l.922.583,3.01,5.023h-2.972l-2.991-5.154-1.354-.245v5.4h-2.577Zm3.95,1.975q-.395,0-.781.019a2.935,2.935,0,0,0-.592.075v3.819h1.091a2.748,2.748,0,0,0,1.712-.489,1.91,1.91,0,0,0,.639-1.618,1.7,1.7,0,0,0-.527-1.326A2.218,2.218,0,0,0,1792.584,672.875Z" transform="translate(-1757.332 -670.505)"/><path class="a" d="M1832.827,684.3h-8.334V671.13h2.577V682h5.756Z" transform="translate(-1780.927 -670.867)"/><path class="a" d="M1855.513,670.768c.264-.038.561-.069.893-.094s.674-.044,1.025-.056.693-.022,1.025-.028.63-.009.894-.009a8.167,8.167,0,0,1,2.991.489,5.09,5.09,0,0,1,2.013,1.373,5.514,5.514,0,0,1,1.129,2.107,9.57,9.57,0,0,1,.357,2.69,9.746,9.746,0,0,1-.339,2.577,5.832,5.832,0,0,1-1.129,2.2,5.663,5.663,0,0,1-2.078,1.542,7.732,7.732,0,0,1-3.188.583c-.2,0-.468-.007-.8-.019s-.677-.028-1.035-.047l-1.025-.057q-.489-.028-.734-.066Zm4.044,2.107q-.414,0-.837.019a5.132,5.132,0,0,0-.63.056v8.822a1.5,1.5,0,0,0,.254.028l.386.019.395.019c.125.006.219.01.282.01a3.831,3.831,0,0,0,1.815-.386,3.089,3.089,0,0,0,1.148-1.025,4.135,4.135,0,0,0,.592-1.477,8.678,8.678,0,0,0,.169-1.721,8.206,8.206,0,0,0-.15-1.552,3.9,3.9,0,0,0-.555-1.4,3.135,3.135,0,0,0-1.1-1.016A3.55,3.55,0,0,0,1859.557,672.875Z" transform="translate(-1801.338 -670.505)"/></g></g></svg>