<?xml version="1.0" encoding="utf-8"?>
<!-- Generator: Adobe Illustrator 22.1.0, SVG Export Plug-In . SVG Version: 6.00 Build 0)  -->
<svg version="1.1" id="Layer_1" xmlns="http://www.w3.org/2000/svg" xmlns:xlink="http://www.w3.org/1999/xlink" x="0px" y="0px"
	 viewBox="0 0 545.1 217.1" style="enable-background:new 0 0 545.1 217.1;" xml:space="preserve">
<style type="text/css">
	.st0{fill:#262261;}
	.st1{fill:#9290B0;}
	.st2{fill:#A2EEE3;}
	.st3{fill:#46DDC8;}
</style>
<g>
	<path class="st0" d="M515.1,137.6h13V90.2h16.8V78.7h-46.6v11.5h16.8V137.6z M435.8,137.6h13V95.7h0.2l25.7,41.9h17V78.7h-13v40.9
		h-0.2l-25-40.9h-17.6V137.6z M405.8,114.2h-14.4l7.2-18.3L405.8,114.2z M368.1,137.6h14.3l4.9-12.5h22.9l5.1,12.5h14.6l-25.6-58.9
		h-10.7L368.1,137.6z M362.2,78.7h-13v35.7c0,1.8-0.3,3.5-0.9,5.1c-0.6,1.6-1.4,2.9-2.5,4c-1.1,1.1-2.3,2-3.7,2.7
		c-1.4,0.6-3,1-4.7,1c-1.7,0-3.3-0.3-4.8-1c-1.5-0.6-2.7-1.5-3.8-2.7c-1.1-1.1-1.9-2.5-2.5-4c-0.6-1.6-0.9-3.2-0.9-5.1V78.7h-13
		v36.2c0,3.5,0.5,6.7,1.6,9.7c1.1,2.9,2.6,5.5,4.7,7.7c2.1,2.2,4.7,3.9,7.8,5.1c3.1,1.2,6.7,1.8,10.8,1.8c4,0,7.6-0.6,10.7-1.8
		c3.1-1.2,5.7-2.9,7.8-5.1c2.1-2.2,3.6-4.7,4.7-7.7c1.1-2.9,1.6-6.2,1.6-9.7V78.7z M253.4,100.3c0.9-2.2,2.2-4.1,3.9-5.8
		c1.6-1.6,3.5-2.9,5.7-3.9s4.5-1.4,7-1.4s4.8,0.5,7,1.4c2.2,0.9,4.1,2.2,5.7,3.9c1.6,1.6,2.9,3.6,3.9,5.8c0.9,2.2,1.4,4.6,1.4,7.2
		c0,2.6-0.5,4.9-1.4,7.2c-0.9,2.2-2.2,4.1-3.9,5.8c-1.6,1.6-3.5,2.9-5.7,3.9c-2.2,0.9-4.5,1.4-7,1.4s-4.8-0.5-7-1.4
		c-2.2-0.9-4.1-2.2-5.7-3.9c-1.6-1.6-2.9-3.6-3.9-5.8c-0.9-2.2-1.4-4.6-1.4-7.2C252,104.9,252.5,102.5,253.4,100.3 M306.1,127.7
		h-16.5v-0.2c2-0.9,3.7-2,5.2-3.5c1.5-1.4,2.7-3,3.7-4.8c0.9-1.8,1.6-3.7,2.1-5.7c0.5-2,0.7-4,0.7-6.2c0-4.4-0.8-8.5-2.5-12.2
		c-1.6-3.7-3.9-6.9-6.7-9.5c-2.8-2.7-6.2-4.7-10-6.2c-3.8-1.5-7.9-2.2-12.3-2.2c-4.4,0-8.5,0.7-12.3,2.2c-3.8,1.5-7.2,3.5-10,6.2
		c-2.8,2.7-5.1,5.9-6.7,9.6c-1.6,3.7-2.5,7.8-2.5,12.2c0,4.8,0.8,9,2.4,12.7c1.6,3.7,3.8,6.9,6.7,9.5c2.8,2.6,6.2,4.6,10.1,5.9
		c3.9,1.4,8.2,2,12.8,2h35.7V127.7z"/>
</g>
<g>
	<polygon class="st1" points="141.7,80.8 141.7,80.8 141.7,135.3 188.9,108.1 188.9,108.1 188.9,53.5 	"/>
	<polygon class="st2" points="188.9,162.6 188.9,162.6 141.7,135.3 141.7,189.9 141.7,189.9 188.9,217.1 188.9,162.6 	"/>
	<path class="st3" d="M94.5,53.5L94.5,53.5L94.5,53.5L94.5,53.5V-1L0,53.5l47.2,27.3v0L94.5,53.5L94.5,53.5z"/>
	<polygon class="st0" points="94.5,162.6 47.2,135.3 47.2,135.3 0,162.6 47.2,189.9 47.2,189.9 47.2,189.9 47.2,189.9 94.5,217.1 
		94.5,162.6 94.5,162.6 	"/>
	<polygon class="st1" points="0,53.5 0,108.1 0,108.1 0,162.6 47.2,135.3 47.2,135.3 47.2,80.8 	"/>
	<polygon class="st3" points="141.7,135.3 94.5,162.6 94.5,162.6 94.5,217.1 141.7,189.9 141.7,189.9 	"/>
	<polygon class="st0" points="141.7,80.8 188.9,53.5 141.7,26.3 141.7,26.3 141.7,26.3 141.7,26.3 141.7,26.3 141.7,26.3 94.5,-1 
		94.5,53.5 94.5,53.5 141.7,80.8 141.7,80.8 141.7,80.8 141.7,80.8 	"/>
</g>
</svg>
