<?xml version="1.0" encoding="iso-8859-1"?>
<!-- Generator: Adobe Illustrator 19.0.0, SVG Export Plug-In . SVG Version: 6.00 Build 0)  -->
<svg version="1.1" id="Layer_1" xmlns="http://www.w3.org/2000/svg" xmlns:xlink="http://www.w3.org/1999/xlink" x="0px" y="0px"
	 viewBox="1000 -1000 2500 2500" style="enable-background:new 1000 -1000 2500 2500;" xml:space="preserve">
<g id="Lines">
	<path style="fill:#2E9AD0;" d="M2508.944,1282.893h-670.416l-540.944-396.397l-206.18-640.265l205.736-640.265l540.944-396.397
		h670.859l540.944,396.397l205.736,640.265l-205.736,640.265l-7.538,7.538L2508.944,1282.893L2508.944,1282.893z M1853.603,1236.779
		h640.265l518.331-380.878l198.198-609.671l-198.198-609.671l-518.331-380.878h-640.265l-517.887,380.878l-198.198,609.671
		l198.198,609.671L1853.603,1236.779L1853.603,1236.779z"/>
	<path style="fill:#2E9AD0;" d="M3332.331,1176.034l-312.595-282L2714.68,779.638l-540.944,68.727l-548.482-68.727l-305.057,114.396
		l-15.075-45.67l312.151-121.934h7.981l548.482,76.264l548.925-76.264l7.538,7.538l320.132,121.934l312.152,289.538
		L3332.331,1176.034z"/>
	<path style="fill:#2E9AD0;" d="M2493.868,1305.506l-320.133-442.067l-335.208,442.067L1594.66,764.562l45.67-23.057
		l213.274,472.661l320.132-434.529l312.595,434.529l213.274-472.661l289.538-579.076l68.727,708.548h-45.67l-53.651-540.944
		l-213.274,434.529L2493.868,1305.506z"/>
	<path style="fill:#2E9AD0;" d="M1121.999,223.174h2118.55v45.67h-2118.55V223.174z"/>
	<path style="fill:#2E9AD0;" d="M2989.142,330.033l-266.481-525.869l-228.793,495.274L2173.736-272.1l-327.67,571.538
		l-228.793-495.274l-266.481,525.869l-61.189-701.01l46.113-7.538l45.67,548.482l235.887-464.68l228.793,495.274l327.67-564.001
		l312.595,564.001l236.331-495.274l235.887,457.142l38.132-540.944h46.113L2989.142,330.033z"/>
	<path style="fill:#2E9AD0;" d="M2699.604-233.968L2486.33-714.166L2173.736-272.1l-320.132-442.067l-213.274,480.199
		l-38.132-22.613l236.331-548.925l335.208,449.604l320.133-449.604l251.406,548.925L2699.604-233.968z M3012.199,870.977
		l-53.651-540.944l-235.887,472.661l-236.33-503.255l-312.595,571.538l-327.67-571.538l-228.793,503.255l-235.887-472.661
		l-45.67,540.944h-46.113l61.189-708.548l266.481,533.406l228.793-495.274l327.67,571.538l320.133-571.538l228.793,502.812
		l266.481-540.944l68.727,708.548L3012.199,870.977z"/>
	<path style="fill:#2E9AD0;" d="M2722.661-218.449l-556.463-76.264l-548.925,76.264l-312.151-137.453l15.076-45.67L1625.254-272.1
		l540.944-68.283l556.463,68.283l297.076-129.472l23.057,45.67L2722.661-218.449z"/>
</g>
<g id="Circles">
	<circle style="fill:#2E9AD0;" cx="1846.066" cy="1259.836" r="91.34"/>
	<circle style="fill:#2E9AD0;" cx="2486.33" cy="1259.836" r="91.34"/>
	<circle style="fill:#2E9AD0;" cx="1846.066" cy="-759.836" r="91.34"/>
	<circle style="fill:#2E9AD0;" cx="2486.33" cy="-759.836" r="91.34"/>
	<circle style="fill:#2E9AD0;" cx="3019.737" cy="-378.515" r="91.34"/>
	<circle style="fill:#2E9AD0;" cx="1312.659" cy="-378.515" r="91.34"/>
	<circle style="fill:#2E9AD0;" cx="1312.659" cy="878.958" r="91.34"/>
	<circle style="fill:#2E9AD0;" cx="1121.999" cy="246.231" r="91.34"/>
	<circle style="fill:#2E9AD0;" cx="3233.011" cy="246.231" r="91.34"/>
	<circle style="fill:#2E9AD0;" cx="2974.067" cy="246.231" r="91.34"/>
	<circle style="fill:#2E9AD0;" cx="1365.867" cy="246.231" r="91.34"/>
	<circle style="fill:#2E9AD0;" cx="1846.066" cy="246.231" r="91.34"/>
	<circle style="fill:#2E9AD0;" cx="2486.33" cy="246.231" r="91.34"/>
	<ellipse style="fill:#2E9AD0;" cx="2173.757" cy="-317.674" rx="91.34" ry="91.34"/>
	<circle style="fill:#2E9AD0;" cx="1617.273" cy="-241.505" r="91.34"/>
	<circle style="fill:#2E9AD0;" cx="2722.661" cy="-241.505" r="91.34"/>
	<circle style="fill:#2E9AD0;" cx="2173.736" cy="825.307" r="91.34"/>
	<circle style="fill:#2E9AD0;" cx="1617.273" cy="749.043" r="91.34"/>
	<circle style="fill:#2E9AD0;" cx="2722.661" cy="749.043" r="91.34"/>
	<circle style="fill:#2E9AD0;" cx="3347.407" cy="1160.959" r="121.934"/>
</g>
</svg>
