<svg width="128" height="128" viewBox="0 0 128 128" fill="none" xmlns="http://www.w3.org/2000/svg">
<g clip-path="url(#clip0)">
<path fill-rule="evenodd" clip-rule="evenodd" d="M31.7773 31.8583L0 63.786L31.9912 95.8932L63.9824 128L95.9912 95.922L128 63.8444L102.552 38.2594C73.3568 8.90668 64.4652 0.0983836 63.932 7.57117e-05C63.7248 -0.0380104 49.2548 14.298 31.7773 31.8583ZM46.3004 54.1016L55.988 63.8624L46.2216 73.7116C40.85 79.1288 36.3132 83.562 36.1397 83.5636C35.828 83.5664 16.5884 64.4688 16.3374 63.9076C16.1154 63.4112 35.4232 44.1648 36.05 44.2576C36.3594 44.3032 40.9716 48.7332 46.3004 54.1016ZM102.107 53.94L111.946 63.6804L102.109 73.6232C96.6984 79.092 92.1844 83.5664 92.0784 83.5664C91.718 83.5664 72.4264 64.2704 72.4264 63.9096C72.4264 63.4536 91.5056 44.174 91.9424 44.1888C92.1208 44.1948 96.6948 48.5828 102.107 53.94ZM74.1184 81.8552C79.398 87.1804 83.718 91.706 83.718 91.912C83.718 92.3744 64.3548 111.561 63.8876 111.561C63.4596 111.561 44.36 92.3008 44.3564 91.8652C44.3524 91.4536 63.7668 72.194 64.198 72.182C64.374 72.1768 68.8384 76.53 74.1184 81.8552Z" fill="#242A58"/>
</g>
<defs>
<clipPath id="clip0">
<rect width="128" height="128" fill="white"/>
</clipPath>
</defs>
</svg>
