<svg width="128" height="128" viewBox="0 0 128 128" fill="none" xmlns="http://www.w3.org/2000/svg">
<g clip-path="url(#clip0)">
<path d="M64 128C99.3462 128 128 99.3462 128 64C128 28.6538 99.3462 0 64 0C28.6538 0 0 28.6538 0 64C0 99.3462 28.6538 128 64 128Z" fill="white"/>
<path fill-rule="evenodd" clip-rule="evenodd" d="M60.224 0.0682977C46.1016 1.2091 34.5357 5.66532 23.9545 14.0423C21.2228 16.2049 16.1407 21.2848 13.9772 24.0153C6.38912 33.5921 1.87298 44.3804 0.339139 56.5944C-0.113046 60.1944 -0.113046 67.8976 0.339139 71.4976C1.87298 83.712 6.38912 94.5 13.9772 104.077C16.1407 106.807 21.2228 111.887 23.9545 114.05C33.5364 121.636 44.354 126.16 56.5476 127.68C60.1436 128.129 67.8612 128.129 71.4572 127.68C83.6508 126.16 94.4684 121.636 104.05 114.05C106.753 111.91 111.86 106.814 113.958 104.162C121.633 94.4624 126.137 83.7284 127.664 71.4976C128.112 67.9032 128.112 60.1888 127.664 56.5944C126.142 44.406 121.616 33.5931 114.028 24.0153C111.864 21.2848 106.782 16.2049 104.05 14.0423C94.494 6.47684 83.4748 1.863 71.5592 0.43822C69.0188 0.134443 62.1712 -0.0891035 60.224 0.0682977ZM53.6304 26.9819C53.9992 27.1444 56.212 27.9845 58.5472 28.8486C63.2168 30.5764 63.594 30.8299 63.594 32.2416C63.594 32.8588 63.4548 33.1854 62.9968 33.6432C62.1196 34.52 61.2056 34.4396 58.3856 33.2379C57.978 33.0642 56.9248 32.6581 55.4752 32.1161C55.054 31.9585 54.2236 31.6331 53.63 31.3928L52.5504 30.9559L42.444 35.9919C36.8857 38.7616 32.2952 41.0968 32.2434 41.1808C32.1584 41.3184 34.1232 42.1176 39.2894 44.0472C41.2264 44.7708 41.3916 44.8348 42.9312 45.46L44.0204 45.9024L45.6888 45.052C46.606 44.5844 48 43.8564 48.7864 43.4344C50.6156 42.452 53.8384 40.7556 56.956 39.1336C58.304 38.4326 60.1424 37.4716 61.0408 36.9984C61.9396 36.525 63.594 35.6551 64.7172 35.0649C65.8404 34.4749 67.8164 33.4343 69.1084 32.7528C72.9556 30.723 73.688 30.3663 74.0148 30.3636C74.3488 30.3608 77.3516 31.4526 77.9388 31.7903C78.134 31.9024 78.3956 31.9942 78.5208 31.9942C78.6456 31.9942 79.0376 32.1177 79.3916 32.2688C79.7456 32.4197 80.8164 32.8396 81.7712 33.2018C82.726 33.5639 83.8288 33.9829 84.222 34.1325C84.6152 34.2824 85.718 34.6974 86.6728 35.0549C88.7044 35.8157 89.5324 36.5478 89.5324 37.5841C89.5324 38.6588 88.9136 39.2022 86.0108 40.678C84.5216 41.4352 81.7404 42.8568 79.8308 43.8372C77.9212 44.818 74.4288 46.6084 72.0696 47.8168C69.7108 49.0248 66.7008 50.568 65.3808 51.246C64.0612 51.924 62.9812 52.5424 62.9812 52.6204C62.9812 52.6984 63.4176 52.9192 63.9512 53.1108C64.4848 53.3028 65.2432 53.5864 65.6364 53.7412C69.0788 55.0968 71.1712 55.88 71.3508 55.88C71.4684 55.88 71.7244 55.9676 71.9196 56.0748C72.3348 56.3028 75.514 57.5256 76.9332 58.0028L77.916 58.3336L87.962 53.32C93.4876 50.5628 98.0304 48.2424 98.0572 48.1636C98.084 48.0848 96.7512 47.5244 95.0956 46.918C93.44 46.312 91.998 45.7376 91.8912 45.642C91.7844 45.5464 91.5548 45.4676 91.3804 45.4672C91.2064 45.4664 90.8008 45.3284 90.4792 45.1608C90.1572 44.9928 89.7748 44.8556 89.6292 44.8556C89.4836 44.8556 89.1168 44.5616 88.814 44.2024C88.3576 43.66 88.2824 43.4116 88.3724 42.742C88.5304 41.5656 89.302 40.8672 90.4048 40.9028C91.1508 40.9272 95.494 42.4292 96.5244 43.0196C96.7196 43.1312 96.9952 43.2232 97.1372 43.224C97.2792 43.2248 97.642 43.3536 97.9436 43.5108C98.2448 43.668 98.772 43.8584 99.1152 43.9336C99.4588 44.0088 99.792 44.1552 99.856 44.2592C99.92 44.3628 100.114 44.4476 100.287 44.4476C100.46 44.4476 100.891 44.5748 101.245 44.7304C101.599 44.8864 102.461 45.218 103.16 45.468C104.914 46.0948 105.463 46.6416 105.463 47.7608C105.463 48.2464 105.33 48.8328 105.169 49.0632C104.887 49.4656 78.8568 62.6172 78.3424 62.6172C78.1564 62.6172 78.0948 63.6612 78.0948 66.8092C78.0948 70.7348 78.1176 70.99 78.4524 70.8204C78.6488 70.7208 84.2916 67.9096 90.9916 64.5736C102.175 59.0044 103.234 58.5188 103.913 58.6464C105.453 58.9348 106.05 60.9824 104.901 62.034C104.592 62.3168 98.438 65.4804 91.2248 69.0644L78.11 75.5808L78.1024 79.6128C78.0984 81.8304 78.15 83.6448 78.2172 83.6448C78.2848 83.6448 83.8852 80.8888 90.6624 77.52C98.5456 73.602 103.205 71.3956 103.595 71.3956C103.954 71.3956 104.465 71.6132 104.834 71.924C105.352 72.3592 105.463 72.6036 105.463 73.3076C105.463 73.778 105.322 74.3632 105.151 74.608C104.836 75.0576 78.9632 88.136 78.3892 88.136C78.1424 88.136 78.0948 88.816 78.0948 92.338C78.0948 94.6492 78.1688 96.5096 78.2592 96.472C78.3496 96.4348 80.762 95.242 83.6204 93.8216C86.4788 92.4008 89.5528 90.8776 90.4512 90.4368C91.35 89.996 92.2692 89.5292 92.4936 89.4C92.7184 89.2708 95.1364 88.0608 97.8676 86.7112C103.352 84.0004 104.02 83.8168 104.962 84.7584C105.584 85.3804 105.661 86.8392 105.106 87.4868C104.909 87.7156 101.118 89.7056 96.6804 91.9084C92.2436 94.1112 88.4656 95.9936 88.2852 96.0912C85.5188 97.5892 78.4104 100.998 78.0532 100.998C77.792 100.998 77.0744 100.807 76.458 100.574C75.842 100.341 75.108 100.078 74.8272 99.9884C74.546 99.8992 71.2376 98.6704 67.4744 97.2576C63.7112 95.8452 60.3796 94.6288 60.0708 94.5548C59.5452 94.4292 59.5092 94.4632 59.5092 95.0868C59.5092 95.4928 59.298 96.03 58.9684 96.4616C58.4356 97.16 58.4108 97.1684 57.2088 97.0596C56.5384 96.9988 55.89 96.8496 55.7684 96.7276C55.6464 96.606 55.4184 96.5064 55.2612 96.5064C55.104 96.5064 54.6856 96.3796 54.332 96.2244C53.978 96.0696 52.9072 95.6648 51.9524 95.3252C44.5004 92.6732 42.4116 91.8704 41.9624 91.484C41.5032 91.0892 41.4344 90.842 41.338 89.2428L41.2296 87.4452L35.9194 85.4436C32.9988 84.3428 30.0578 83.2552 29.3838 83.0268C28.7098 82.7988 27.9745 82.534 27.7499 82.4384C27.5252 82.3428 26.9278 82.0932 26.4223 81.8844C24.6448 81.1488 24.8029 83.2104 24.7952 60.662L24.7884 40.64L25.2935 40.1656C26.1145 39.3945 51.5428 26.7181 52.3028 26.7012C52.664 26.693 53.2612 26.8192 53.6304 26.9819ZM72.9888 35.3921C72.4832 35.6724 70.3696 36.7793 68.2912 37.852C66.2132 38.9248 63.7776 40.1924 62.8792 40.6696C61.9804 41.1464 59.4988 42.4392 57.3644 43.542C55.2304 44.6452 52.3812 46.1236 51.0332 46.8272C49.6852 47.5308 47.8728 48.4544 47.0056 48.88L45.4288 49.6532L45.4736 69.15L45.5188 88.6464L46.4376 88.9708C47.4836 89.3396 47.8804 89.4864 48.8888 89.876C49.2816 90.028 50.4308 90.4404 51.4416 90.7928C52.4528 91.1452 53.6264 91.564 54.0496 91.724C54.4732 91.884 54.9556 92.0148 55.122 92.0148C55.3868 92.0148 55.4244 89.5492 55.4244 72.1376C55.4244 52.5296 55.4296 52.2532 55.8352 51.738C56.0612 51.4508 57.4168 50.6244 58.8476 49.9012C61.2336 48.6956 63.4552 47.5652 77.38 40.4712C79.9636 39.155 82.1592 38.0279 82.2592 37.9667C82.3592 37.9054 81.578 37.5376 80.5232 37.1493C79.4684 36.761 77.6996 36.0852 76.5928 35.6477C75.4856 35.2102 74.4284 34.8591 74.244 34.8674C74.0592 34.8758 73.4944 35.112 72.9888 35.3921Z" fill="#1D70B8"/>
</g>
<defs>
<clipPath id="clip0">
<rect width="128" height="128" fill="white"/>
</clipPath>
</defs>
</svg>
