<svg width="128" height="128" viewBox="0 0 128 128" fill="none" xmlns="http://www.w3.org/2000/svg">
<path d="M64 0C99.3496 0 128 28.6563 128 64C128 99.3496 99.3496 128 64 128C28.6563 128 0 99.3464 0 64C0 28.6563 28.6563 0 64 0Z" fill="#F5AC37"/>
<path d="M66.3536 68.5192H90.6724C91.1908 68.5192 91.4356 68.5192 91.4732 67.8396C91.6716 65.3656 91.6716 62.8772 91.4732 60.4004C91.4732 59.9196 91.234 59.7208 90.7128 59.7208H42.314C41.7148 59.7208 41.5536 59.9196 41.5536 60.4812V67.6004C41.5536 68.5192 41.5536 68.5192 42.5124 68.5192H66.3536ZM88.7572 51.4004C88.8264 51.2188 88.8264 51.0204 88.7572 50.8416C88.3512 49.9576 87.87 49.1136 87.3112 48.3216C86.4704 46.968 85.4796 45.7208 84.3508 44.6008C83.818 43.924 83.2016 43.316 82.5104 42.8008C79.0484 39.8544 74.9332 37.7692 70.5092 36.7209C68.2772 36.2198 65.9964 35.9807 63.7096 36.0009H42.2304C41.6312 36.0009 41.5508 36.2399 41.5508 36.7612V50.9596C41.5508 51.5588 41.5508 51.72 42.3108 51.72H88.4692C88.4692 51.72 88.8696 51.6396 88.95 51.4004H88.7544H88.7572ZM88.7572 76.8396C88.0776 76.7648 87.392 76.7648 86.7124 76.8396H42.354C41.7552 76.8396 41.5536 76.8396 41.5536 77.6404V91.522C41.5536 92.1616 41.5536 92.3228 42.354 92.3228H62.834C63.8132 92.3976 64.7924 92.3284 65.7516 92.124C68.7236 91.9108 71.6468 91.2656 74.4348 90.2032C75.4484 89.8516 76.4276 89.3936 77.3524 88.8436H77.6316C82.4328 86.3468 86.332 82.424 88.7916 77.6088C88.7916 77.6088 89.0712 77.004 88.7572 76.8456V76.8396ZM33.5153 99.52V99.2808V89.9612V86.8016V77.4012C33.5153 76.88 33.5153 76.8024 32.8759 76.8024H24.1955C23.7146 76.8024 23.5159 76.8024 23.5159 76.1628V68.5624H32.7953C33.3137 68.5624 33.5153 68.5624 33.5153 67.8828V60.3632C33.5153 59.882 33.5153 59.764 32.8759 59.764H24.1955C23.7146 59.764 23.5159 59.764 23.5159 59.1248V52.086C23.5159 51.6452 23.5159 51.5272 24.1552 51.5272H32.755C33.354 51.5272 33.5153 51.5272 33.5153 50.7668V29.2069C33.5153 28.5675 33.5153 28.4062 34.3159 28.4062H64.3144C66.4916 28.4926 68.6544 28.7317 70.7944 29.1262C75.2036 29.9413 79.4404 31.5167 83.314 33.766C85.8828 35.278 88.2472 37.1039 90.3528 39.2064C91.9368 40.8508 93.3652 42.6308 94.6324 44.5256C95.8908 46.4468 96.9364 48.5004 97.7572 50.646C97.858 51.2044 98.3936 51.582 98.9524 51.4868H106.112C107.031 51.4868 107.031 51.4868 107.071 52.368V58.9288C107.071 59.568 106.832 59.7296 106.19 59.7296H100.669C100.11 59.7296 99.9488 59.7296 99.9892 60.4496C100.208 62.886 100.208 65.3312 99.9892 67.7676C99.9892 68.4472 99.9892 68.528 100.752 68.528H107.068C107.348 68.888 107.068 69.248 107.068 69.6108C107.109 70.0744 107.109 70.544 107.068 71.0076V75.8488C107.068 76.5288 106.87 76.7304 106.268 76.7304H98.7076C98.1808 76.6296 97.668 76.9664 97.5472 77.4904C95.7468 82.1708 92.8668 86.3668 89.146 89.7308C87.7864 90.9548 86.358 92.1068 84.8664 93.1696C83.2648 94.0912 81.7068 95.05 80.0652 95.8104C77.044 97.17 73.876 98.172 70.6244 98.8084C67.5372 99.3616 64.4064 99.612 61.2644 99.5688H33.5038V99.5284L33.5153 99.52Z" fill="#FEFEFD"/>
</svg>
