<svg width="128" height="128" viewBox="0 0 128 128" fill="none" xmlns="http://www.w3.org/2000/svg">
<path d="M51.7908 115.136C23.603 115.136 0.671387 92.2036 0.671387 64.0172C0.671387 35.8305 23.5966 12.8964 51.7908 12.8964C59.874 12.8719 67.8452 14.7856 75.0364 18.477C80.6836 21.3777 85.7472 25.2958 89.972 30.0346C90.2712 29.8611 90.5748 29.6926 90.8804 29.528C95.05 27.3102 99.7288 26.1854 104.786 26.1854C105.194 26.1854 105.609 26.193 106.021 26.2082C115.381 26.5414 121.727 29.0884 123.373 30.0409L125.12 31.0707C125.876 31.5166 126.485 32.1746 126.872 32.9633C127.258 33.752 127.404 34.6366 127.292 35.5075L127.181 36.3675L127.172 36.5005C126.294 49.568 120.527 59.5636 110.933 64.6468C110.352 64.9532 109.812 65.2164 109.275 65.4572C107.205 66.3832 105.029 67.0528 102.796 67.4508C101.023 94.0428 78.8236 115.136 51.7908 115.136Z" fill="white"/>
<path d="M98.4252 64.0172C98.4252 89.772 77.5468 110.652 51.7904 110.652C26.0346 110.652 5.15613 89.772 5.15613 64.0172C5.15613 38.2625 26.0346 17.3815 51.7904 17.3815C77.5468 17.3815 98.4252 38.2676 98.4252 64.0172Z" fill="#0083FF"/>
<path d="M50.9495 24.4667H49.5363C48.5311 24.4667 47.7159 25.2816 47.7159 26.2868V27.7003C47.7159 28.7055 48.5311 29.5204 49.5363 29.5204H50.9495C51.9547 29.5204 52.7699 28.7055 52.7699 27.7003V26.2868C52.7699 25.2816 51.9547 24.4667 50.9495 24.4667Z" fill="white"/>
<path d="M50.9495 31.543H49.5363C48.5311 31.543 47.7159 32.3579 47.7159 33.363V34.7766C47.7159 35.7818 48.5311 36.5966 49.5363 36.5966H50.9495C51.9547 36.5966 52.7699 35.7818 52.7699 34.7766V33.363C52.7699 32.3579 51.9547 31.543 50.9495 31.543Z" fill="white"/>
<path d="M29.7218 50.7496H28.3082C27.303 50.7496 26.4882 51.5644 26.4882 52.5696V53.9832C26.4882 54.9884 27.303 55.8032 28.3082 55.8032H29.7218C30.727 55.8032 31.5418 54.9884 31.5418 53.9832V52.5696C31.5418 51.5644 30.727 50.7496 29.7218 50.7496Z" fill="white"/>
<path d="M37.809 50.7496H36.3955C35.3903 50.7496 34.5754 51.5644 34.5754 52.5696V53.9832C34.5754 54.9884 35.3903 55.8032 36.3955 55.8032H37.809C38.8142 55.8032 39.6291 54.9884 39.6291 53.9832V52.5696C39.6291 51.5644 38.8142 50.7496 37.809 50.7496Z" fill="white"/>
<path d="M41.4504 38.6195H49.9364C50.1756 38.6195 50.412 38.6666 50.6328 38.758C50.8536 38.8495 51.0544 38.9836 51.2232 39.1526C51.3924 39.3216 51.5264 39.5222 51.618 39.7431C51.7096 39.9639 51.7564 40.2004 51.7564 40.4396V41.852C51.7564 42.3348 51.5644 42.798 51.2232 43.1396C50.8816 43.4812 50.418 43.6732 49.9352 43.6732H41.4488C40.9664 43.6732 40.5032 43.4816 40.162 43.14C39.8207 42.7988 39.6289 42.336 39.6289 41.8532V40.4396C39.6292 39.9568 39.8213 39.4938 40.1628 39.1525C40.5044 38.8112 40.9676 38.6195 41.4504 38.6195Z" fill="white"/>
<path d="M42.4613 50.7496H43.8732C44.356 50.7496 44.8188 50.9412 45.1604 51.2828C45.5016 51.624 45.6932 52.0872 45.6932 52.5696V61.056C45.6932 61.5388 45.5016 62.002 45.16 62.3436C44.8184 62.6852 44.3553 62.8772 43.8721 62.8772H42.4596C41.9772 62.8772 41.514 62.6856 41.1728 62.344C40.8316 62.0028 40.6396 61.54 40.6396 61.0572V52.5708C40.6396 52.088 40.8316 51.6248 41.1732 51.2832C41.5148 50.9416 41.9781 50.7496 42.4613 50.7496Z" fill="white"/>
<path d="M73.1884 50.7496H60.6556C59.6504 50.7496 58.8356 51.5644 58.8356 52.5696V53.9832C58.8356 54.9884 59.6504 55.8032 60.6556 55.8032H73.1884C74.1936 55.8032 75.0084 54.9884 75.0084 53.9832V52.5696C75.0084 51.5644 74.1936 50.7496 73.1884 50.7496Z" fill="white"/>
<path d="M33.3631 44.684H45.8948C46.3772 44.6836 46.8396 44.8748 47.1812 45.2152C47.5228 45.5556 47.7152 46.018 47.716 46.5V47.9124C47.716 48.3956 47.524 48.8588 47.1828 49.2004C46.8412 49.542 46.3776 49.7336 45.8948 49.7336H33.3631C33.124 49.7344 32.8871 49.688 32.6659 49.5972C32.4448 49.506 32.2437 49.3724 32.0742 49.204C31.9047 49.0352 31.7701 48.8348 31.6781 48.614C31.5861 48.3932 31.5385 48.1568 31.538 47.9176V46.5C31.5393 46.0172 31.7323 45.5548 32.0746 45.2144C32.4168 44.8736 32.8803 44.6828 33.3631 44.684Z" fill="white"/>
<path d="M72.1763 44.684H70.7627C69.7575 44.684 68.9427 45.4988 68.9427 46.504V47.9176C68.9427 48.9228 69.7575 49.7376 70.7627 49.7376H72.1763C73.1815 49.7376 73.9963 48.9228 73.9963 47.9176V46.504C73.9963 45.4988 73.1815 44.684 72.1763 44.684Z" fill="white"/>
<path d="M66.1108 58.8356H57.6232C56.6176 58.8356 55.802 59.6508 55.802 60.6568V62.068C55.802 63.0736 56.6176 63.8892 57.6232 63.8892H66.1108C67.1168 63.8892 67.932 63.0736 67.932 62.068V60.6568C67.932 59.6508 67.1168 58.8356 66.1108 58.8356Z" fill="white"/>
<path d="M59.0356 64.9012H57.622C56.6168 64.9012 55.802 65.716 55.802 66.7212V68.1348C55.802 69.14 56.6168 69.9548 57.622 69.9548H59.0356C60.0408 69.9548 60.8556 69.14 60.8556 68.1348V66.7212C60.8556 65.716 60.0408 64.9012 59.0356 64.9012Z" fill="white"/>
<path d="M57.6236 71.9764H59.0356C59.5188 71.9764 59.982 72.1684 60.3236 72.5096C60.6652 72.8512 60.8572 73.3148 60.8572 73.7976V75.21C60.8552 75.692 60.6628 76.1536 60.3212 76.4936C59.98 76.834 59.5176 77.0248 59.0356 77.0248H57.6236C57.1408 77.0248 56.6776 76.8332 56.3364 76.492C55.9952 76.1504 55.8032 75.6876 55.8032 75.2048V73.7976C55.8032 73.3148 55.9952 72.8516 56.3364 72.5104C56.6776 72.1688 57.1408 71.9768 57.6236 71.9764Z" fill="white"/>
<path d="M56.6164 27.5014H58.0288C58.5116 27.5014 58.9744 27.6932 59.3156 28.0345C59.6572 28.3758 59.8488 28.8388 59.8488 29.3215V41.852C59.8488 42.3348 59.6568 42.798 59.3152 43.1396C58.9736 43.4812 58.5104 43.6732 58.0276 43.6732H56.6164C56.1336 43.6732 55.6708 43.4816 55.3296 43.14C54.988 42.7988 54.7964 42.336 54.7964 41.8532V29.3202C54.7972 28.8378 54.9892 28.3754 55.3304 28.0344C55.6716 27.6934 56.134 27.5017 56.6164 27.5014Z" fill="white"/>
<path d="M51.9604 55.8032H50.5472C49.542 55.8032 48.7268 56.618 48.7268 57.6232V70.1564C48.7268 71.1616 49.542 71.9764 50.5472 71.9764H51.9604C52.9656 71.9764 53.7808 71.1616 53.7808 70.1564V57.6232C53.7808 56.618 52.9656 55.8032 51.9604 55.8032Z" fill="white"/>
<path d="M65.1 35.586H63.6892C62.6832 35.586 61.8676 36.4015 61.8676 37.4074V45.8948C61.8676 46.9008 62.6832 47.716 63.6892 47.716H65.1C66.106 47.716 66.9212 46.9008 66.9212 45.8948V37.4074C66.9212 36.4015 66.106 35.586 65.1 35.586Z" fill="white"/>
<path d="M84.5144 56.5392L116.906 37.7988C116.906 37.7988 117.613 31.0948 105.096 31.224C92.58 31.3532 85.4948 39.5429 84.546 46.9044C83.5972 54.2656 84.5144 56.5392 84.5144 56.5392Z" fill="#006E36"/>
<path d="M117.424 36.9818L85.0271 55.7272C85.0271 55.7272 84.3215 62.4316 96.8367 62.3008C109.352 62.1704 116.447 53.9732 117.392 46.6156C118.337 39.2579 117.424 36.9818 117.424 36.9818Z" fill="#00B22B"/>
<path d="M121.136 33.923C120.342 33.4657 114.742 31.0098 105.86 30.6856C101.134 30.5171 96.7925 31.4594 92.9853 33.4847C91.7549 34.1369 90.5865 34.9 89.4945 35.7646C81.4757 42.086 81.2617 49.8744 80.7337 54.3744L74.3869 57.4776C73.8241 57.714 73.3605 58.138 73.0749 58.6772C72.7893 59.2168 72.6989 59.8384 72.8197 60.4364C72.9401 61.0348 73.2641 61.5732 73.7361 61.9596C74.2085 62.3464 74.7997 62.5576 75.4101 62.558C75.8125 62.558 76.2097 62.468 76.5729 62.2944L76.6605 62.2476L76.6769 62.2388L78.1205 61.4788L81.0413 59.9412L82.4549 59.2636C85.9113 61.0368 90.3773 63.19 96.5229 63.4168C100.432 63.5548 104.097 62.862 107.441 61.3648C107.912 61.1532 108.377 60.924 108.834 60.6832C122.006 53.7032 122.569 37.8329 122.717 35.9204L122.844 34.9312L121.136 33.923ZM117.336 38.5093L117.329 38.5776C116.42 43.5844 113.742 52.5988 106.03 56.69C105.964 56.724 105.894 56.7596 105.823 56.7936C103.178 58.1504 99.5449 59.0964 96.2721 58.976C93.9565 58.8772 91.6641 58.4688 89.4565 57.7628L87.5365 56.9432L89.6517 55.8412L97.5917 51.6464C98.0889 51.3896 98.5073 51.0032 98.8029 50.528C99.0981 50.0528 99.2597 49.5068 99.2701 48.9472C99.2877 48.504 99.5309 48.376 99.3625 47.9592C99.3221 47.8616 99.2777 47.7628 99.2269 47.668L99.1841 47.5908C99.1781 47.5796 99.1713 47.5688 99.1637 47.5592C98.6141 46.608 97.6285 46.3328 96.5189 46.2924C95.9605 46.2748 95.4069 46.406 94.9157 46.6724L87.0285 50.8192L85.5365 51.6032C85.5365 51.6032 86.8473 41.5312 93.9493 37.9634C94.5025 37.6847 95.0017 37.2794 95.5705 36.9754C98.3697 35.4935 101.618 34.807 105.219 34.9375C109.603 35.0933 113.633 36.408 116.394 37.5783C116.572 37.6543 116.744 37.7252 116.91 37.8L117.353 37.9824L117.336 38.5093Z" fill="white"/>
<path d="M22.0082 83.7176H25.9346C29.5508 83.7176 31.9332 85.8352 31.9332 88.9664C31.9332 92.0972 29.5115 94.1708 25.9334 94.1708H22.007L22.0082 83.7176ZM25.9346 85.6176H24.3894V92.2328H25.9334C28.0498 92.2328 29.5064 90.9536 29.5064 88.9244C29.5064 86.8956 28.0498 85.662 25.9334 85.6176H25.9346Z" fill="white"/>
<path d="M38.6789 83.3656C42.1188 83.3656 44.4556 85.6592 44.4556 88.9664C44.4556 92.2732 42.1188 94.5228 38.6789 94.5228C35.2389 94.5228 32.902 92.2732 32.902 88.9664C32.902 85.6592 35.2389 83.3656 38.6789 83.3656ZM38.6789 92.4064C40.6192 92.4064 41.986 90.9512 41.986 88.922C41.986 86.8928 40.6192 85.4376 38.6789 85.4376C36.7385 85.4376 35.3719 86.8928 35.3719 88.922C35.3719 90.9952 36.7385 92.4064 38.6789 92.4064Z" fill="white"/>
<path d="M45.9113 94.1708V83.7176H48.3837V92.0532H52.7497V94.1708H45.9113Z" fill="white"/>
<path d="M54.0264 94.1708V83.7176H56.496V92.0532H60.862V94.1708H54.0264Z" fill="white"/>
<path d="M71.7992 94.1708H69.1976L68.5808 92.2708H64.3908L63.8172 94.1708H61.2156L64.7428 83.7176H68.316L71.7992 94.1708ZM64.9204 90.5104H68.0956L66.5072 85.8352L64.9204 90.5104Z" fill="white"/>
<path d="M72.8136 83.7176H77.88C80.3056 83.7176 81.9812 85.13 81.9812 87.202C81.9776 87.8784 81.7512 88.5348 81.3364 89.0692C80.9216 89.6036 80.342 89.986 79.6872 90.1568L82.208 94.124H79.4732L77.4012 90.4636H75.2836V94.124H72.8136V83.7176ZM75.2352 85.5704V88.746H77.4404C78.588 88.746 79.4668 88.128 79.4668 87.1576C79.4668 86.1444 78.5804 85.5264 77.4404 85.5264L75.2352 85.5704Z" fill="white"/>
</svg>
