<svg version="1.1" id="Ebene_1" xmlns="http://www.w3.org/2000/svg" xmlns:xlink="http://www.w3.org/1999/xlink" x="0px" y="0px"
	 viewBox="0 0 180.8 49.6" style="enable-background:new 0 0 180.8 49.6;" xml:space="preserve">
<style type="text/css">
	.st0{clip-path:url(#SVGID_2_);}
	.st1{clip-path:url(#SVGID_6_);}
	.st2{clip-path:url(#SVGID_10_);}
	.st3{clip-path:url(#SVGID_14_);}
	.st4{fill:#FFFFFF;}
	.st5{enable-background:new    ;}
	.st6{clip-path:url(#SVGID_22_);}
	.st7{clip-path:url(#SVGID_26_);}
	.st8{clip-path:url(#SVGID_30_);}
	.st9{clip-path:url(#SVGID_34_);}
	.st10{fill-rule:evenodd;clip-rule:evenodd;fill:#FFFFFF;}
</style>
<g>
	<g>
		<defs>
			<path id="SVGID_1_" d="M32.4,7.4c7,3.6,11.8,10.9,11.8,19.4c0,12-9.7,21.8-21.6,21.8S0.9,38.8,0.9,26.8c0-9.1,5.5-16.9,13.4-20.1
				v2.8C7.9,12.6,3.5,19.2,3.5,26.8C3.5,37.4,12,46,22.5,46c10.5,0,19-8.6,19-19.2c0-6.9-3.7-13-9.2-16.4V7.4z"/>
		</defs>
		<use xlink:href="#SVGID_1_"  style="overflow:visible;fill-rule:evenodd;clip-rule:evenodd;fill:#FFFFFF;"/>
		<clipPath id="SVGID_2_">
			<use xlink:href="#SVGID_1_"  style="overflow:visible;"/>
		</clipPath>
		<g class="st0">
			<defs>
				<rect id="SVGID_3_" x="-20.8" y="-19.3" width="1440" height="5954"/>
			</defs>
			<clipPath id="SVGID_4_">
				<use xlink:href="#SVGID_3_"  style="overflow:visible;"/>
			</clipPath>
		</g>
	</g>
	<g>
		<defs>
			<path id="SVGID_5_" d="M36.9,33v-5.3l-4.7-1.9v13.8C34.3,37.8,35.9,35.6,36.9,33"/>
		</defs>
		<use xlink:href="#SVGID_5_"  style="overflow:visible;fill-rule:evenodd;clip-rule:evenodd;fill:#FFFFFF;"/>
		<clipPath id="SVGID_6_">
			<use xlink:href="#SVGID_5_"  style="overflow:visible;"/>
		</clipPath>
		<g class="st1">
			<defs>
				<rect id="SVGID_7_" x="-20.8" y="-19.3" width="1440" height="5954"/>
			</defs>
			<clipPath id="SVGID_8_">
				<use xlink:href="#SVGID_7_"  style="overflow:visible;"/>
			</clipPath>
		</g>
	</g>
	<g>
		<defs>
			<path id="SVGID_9_" d="M10,37.8V26.3l-3,1.8v4.7C7.7,34.6,8.7,36.3,10,37.8"/>
		</defs>
		<use xlink:href="#SVGID_9_"  style="overflow:visible;fill-rule:evenodd;clip-rule:evenodd;fill:#FFFFFF;"/>
		<clipPath id="SVGID_10_">
			<use xlink:href="#SVGID_9_"  style="overflow:visible;"/>
		</clipPath>
		<g class="st2">
			<defs>
				<rect id="SVGID_11_" x="-20.8" y="-19.3" width="1440" height="5954"/>
			</defs>
			<clipPath id="SVGID_12_">
				<use xlink:href="#SVGID_11_"  style="overflow:visible;"/>
			</clipPath>
		</g>
	</g>
	<g>
		<defs>
			<path id="SVGID_13_" d="M23.3,1.4L17,5v11.7l4.4,1.8v24.9c0.7,0,1.3,0,1.9,0c1.5-0.2,2.9-0.4,4.3-1.1V27.9l2-1.5V4L23.3,1.4z"/>
		</defs>
		<use xlink:href="#SVGID_13_"  style="overflow:visible;fill-rule:evenodd;clip-rule:evenodd;fill:#FFFFFF;"/>
		<clipPath id="SVGID_14_">
			<use xlink:href="#SVGID_13_"  style="overflow:visible;"/>
		</clipPath>
		<g class="st3">
			<defs>
				<rect id="SVGID_15_" x="-20.8" y="-19.3" width="1440" height="5954"/>
			</defs>
			<clipPath id="SVGID_16_">
				<use xlink:href="#SVGID_15_"  style="overflow:visible;"/>
			</clipPath>
		</g>
	</g>
	<g>
		<path class="st4" d="M12.8,19.1v6.9v14.4c0.8,0.6,1.6,1.1,2.5,1.5c0.5,0.2,0.9,0.4,1.4,0.6c0.1,0,0.2,0.1,0.3,0.1l0-25.9
			L12.8,19.1z"/>
	</g>
</g>
<g>
	<g>
		<g>
			<g>
				<g>
					<defs>
						<path id="SVGID_17_" d="M68.6,34.2c-1.8-2.7-4.5-5.8-7.1-8.5c0.9,0.2,1.7,0.2,2.5,0.2c2.1,0,3.4-1.4,3.4-3.6S66,18.8,64,18.8
							h-3.5v15.4h-3.6V15.9h7.6c4.1,0,6.8,2.5,6.8,6.2c0,2.8-1.6,4.7-3.6,5.6c1.6,1.8,3.5,4.1,5.3,6.6H68.6z"/>
					</defs>
					<use xlink:href="#SVGID_17_"  style="overflow:visible;fill-rule:evenodd;clip-rule:evenodd;fill:#FFFFFF;"/>
					<clipPath id="SVGID_18_">
						<use xlink:href="#SVGID_17_"  style="overflow:visible;"/>
					</clipPath>
				</g>
			</g>
		</g>
	</g>
	<g>
		<g>
			<g class="st5">
				<g>
					<g>
						<defs>
							<path id="SVGID_19_" d="M103,30.9h-8.5c-0.5,1.1-1,2.2-1.4,3.3h-3.9c2.9-6.2,6.4-13.2,9.5-18.6h0.2
								c3.1,5.5,6.6,12.4,9.5,18.6h-3.9C104,33.1,103.5,32,103,30.9 M98.8,21.8c-1,1.9-2,4-3,6.1h5.9
								C100.7,25.8,99.8,23.8,98.8,21.8"/>
						</defs>
						<use xlink:href="#SVGID_19_"  style="overflow:visible;fill-rule:evenodd;clip-rule:evenodd;fill:#FFFFFF;"/>
						<clipPath id="SVGID_20_">
							<use xlink:href="#SVGID_19_"  style="overflow:visible;"/>
						</clipPath>
					</g>
				</g>
			</g>
		</g>
	</g>
	<g>
		<defs>
			<polygon id="SVGID_21_" points="122,34.2 110.2,34.2 110.2,15.9 113.8,15.9 113.8,31.3 122,31.3 			"/>
		</defs>
		<use xlink:href="#SVGID_21_"  style="overflow:visible;fill-rule:evenodd;clip-rule:evenodd;fill:#FFFFFF;"/>
		<clipPath id="SVGID_22_">
			<use xlink:href="#SVGID_21_"  style="overflow:visible;"/>
		</clipPath>
		<g class="st6">
			<defs>
				<rect id="SVGID_23_" x="-23.7" y="-19.3" width="1440" height="5954"/>
			</defs>
			<clipPath id="SVGID_24_">
				<use xlink:href="#SVGID_23_"  style="overflow:visible;"/>
			</clipPath>
		</g>
	</g>
	<g>
		<defs>
			<rect id="SVGID_25_" x="124" y="15.9" width="3.6" height="18.4"/>
		</defs>
		<use xlink:href="#SVGID_25_"  style="overflow:visible;fill-rule:evenodd;clip-rule:evenodd;fill:#FFFFFF;"/>
		<clipPath id="SVGID_26_">
			<use xlink:href="#SVGID_25_"  style="overflow:visible;"/>
		</clipPath>
		<g class="st7">
			<defs>
				<rect id="SVGID_27_" x="-23.7" y="-19.3" width="1440" height="5954"/>
			</defs>
			<clipPath id="SVGID_28_">
				<use xlink:href="#SVGID_27_"  style="overflow:visible;"/>
			</clipPath>
		</g>
	</g>
	<g>
		<defs>
			<path id="SVGID_29_" d="M137,26.7l-0.9-0.2c-3.3-0.8-5.5-1.7-5.5-5.2c0-3.6,2.6-5.6,6.9-5.6c1.9,0,4.1,0.4,5.8,1.1v2.7
				c-1.9-0.6-3.7-0.9-5-0.9c-2.7,0-4,0.8-4,2.1c0,1.4,1.5,1.8,3.5,2.3l0.9,0.2c3.2,0.7,5.7,2.2,5.7,5.7c0,3.5-2.5,5.6-6.8,5.6
				c-2,0-4.6-0.4-6.2-1.3v-2.7c1.9,0.8,3.9,1.1,5.2,1.1c2.8,0,4.1-0.8,4.1-2.3C140.7,27.8,139.1,27.2,137,26.7"/>
		</defs>
		<use xlink:href="#SVGID_29_"  style="overflow:visible;fill-rule:evenodd;clip-rule:evenodd;fill:#FFFFFF;"/>
		<clipPath id="SVGID_30_">
			<use xlink:href="#SVGID_29_"  style="overflow:visible;"/>
		</clipPath>
		<g class="st8">
			<defs>
				<rect id="SVGID_31_" x="-23.7" y="-19.3" width="1440" height="5954"/>
			</defs>
			<clipPath id="SVGID_32_">
				<use xlink:href="#SVGID_31_"  style="overflow:visible;"/>
			</clipPath>
		</g>
	</g>
	<g>
		<defs>
			<polygon id="SVGID_33_" points="154.6,18.8 154.6,34.2 151,34.2 151,18.8 145.3,18.8 145.3,15.9 160.2,15.9 160.2,18.8 			"/>
		</defs>
		<use xlink:href="#SVGID_33_"  style="overflow:visible;fill-rule:evenodd;clip-rule:evenodd;fill:#FFFFFF;"/>
		<clipPath id="SVGID_34_">
			<use xlink:href="#SVGID_33_"  style="overflow:visible;"/>
		</clipPath>
		<g class="st9">
			<defs>
				<rect id="SVGID_35_" x="-23.7" y="-19.3" width="1440" height="5954"/>
			</defs>
			<clipPath id="SVGID_36_">
				<use xlink:href="#SVGID_35_"  style="overflow:visible;"/>
			</clipPath>
		</g>
	</g>
	<g>
		<defs>
			<path id="SVGID_37_" d="M160.3,25.1c0-5.7,3.9-9.4,9.8-9.4c5.8,0,9.7,3.8,9.7,9.4c0,5.7-3.9,9.4-9.7,9.4
				C164.2,34.5,160.3,30.7,160.3,25.1 M176.1,25.1c0-3.9-2.4-6.5-6-6.5c-3.6,0-6,2.6-6,6.5c0,3.9,2.4,6.5,6,6.5
				C173.7,31.5,176.1,28.9,176.1,25.1"/>
		</defs>
		<use xlink:href="#SVGID_37_"  style="overflow:visible;fill-rule:evenodd;clip-rule:evenodd;fill:#FFFFFF;"/>
		<clipPath id="SVGID_38_">
			<use xlink:href="#SVGID_37_"  style="overflow:visible;"/>
		</clipPath>
	</g>
	<polygon class="st10" points="87.6,34.3 74.6,34.3 74.6,16 87.4,16 87.4,18.9 78.3,18.9 78.3,23.5 86.5,23.5 86.5,26.5 78.3,26.5 
		78.3,31.3 87.6,31.3 	"/>
</g>
</svg>
