<?xml version="1.0" standalone="no"?>
<!DOCTYPE svg PUBLIC "-//W3C//DTD SVG 20010904//EN"
 "http://www.w3.org/TR/2001/REC-SVG-20010904/DTD/svg10.dtd">
<svg version="1.0" xmlns="http://www.w3.org/2000/svg"
 width="260.000000pt" height="260.000000pt" viewBox="0 0 260.000000 260.000000"
 preserveAspectRatio="xMidYMid meet">
<metadata>
Created by potrace 1.11, written by Peter Selinger 2001-2013
</metadata>
<g transform="translate(0.000000,260.000000) scale(0.100000,-0.100000)"
fill="#000000" stroke="none">
<path d="M1270 2507 c-120 -54 -156 -70 -165 -71 -5 -1 -32 -12 -60 -25 -27
-12 -83 -36 -122 -52 -40 -16 -81 -33 -90 -38 -10 -5 -58 -26 -108 -46 -49
-21 -108 -45 -130 -55 -22 -10 -80 -35 -130 -55 -49 -21 -110 -46 -135 -57
-25 -11 -58 -25 -75 -32 -16 -7 -41 -18 -55 -24 -14 -6 -45 -19 -70 -30 -25
-10 -64 -27 -87 -37 l-42 -18 0 -984 0 -983 1300 0 1299 0 -2 986 -3 986 -95
39 c-97 41 -119 51 -202 88 -26 12 -49 21 -52 21 -3 0 -31 12 -63 26 -124 55
-380 164 -387 164 -3 0 -31 12 -63 26 -32 14 -67 30 -78 34 -11 5 -40 18 -65
28 -25 11 -74 32 -110 47 -36 15 -81 35 -100 43 -19 9 -39 17 -45 18 -5 1 -17
4 -25 7 -8 3 -26 1 -40 -6z"/>
</g>
</svg>
