<?xml version="1.0" encoding="utf-8"?>
<!-- Generator: Adobe Illustrator 22.0.1, SVG Export Plug-In . SVG Version: 6.00 Build 0)  -->
<svg version="1.1" id="Layer_1" xmlns="http://www.w3.org/2000/svg" xmlns:xlink="http://www.w3.org/1999/xlink" x="0px" y="0px"
	 viewBox="0 0 200 330" style="enable-background:new 0 0 200 330;" xml:space="preserve">
<style type="text/css">
	.st0{fill:#808284;}
	.st1{fill:#303232;}
	.st2{fill:url(#SVGID_1_);}
	.st3{fill:url(#SVGID_2_);}
	.st4{fill:url(#SVGID_3_);}
	.st5{fill:url(#SVGID_4_);}
	.st6{fill:url(#SVGID_5_);}
	.st7{fill:url(#SVGID_6_);}
</style>
<g>
	<polygon class="st0" points="100,245.4 100,326.8 0,187.1 	"/>
	<polygon class="st1" points="100,245.4 100,326.8 200,187.1 	"/>
	
		<linearGradient id="SVGID_1_" gradientUnits="userSpaceOnUse" x1="72.15" y1="-554.35" x2="99.994" y2="-554.35" gradientTransform="matrix(1 0 0 -1 0 -520)">
		<stop  offset="0" style="stop-color:#EEA831"/>
		<stop  offset="1" style="stop-color:#FFC929"/>
	</linearGradient>
	<polygon class="st2" points="100,65.5 100,3.2 72.1,49.4 	"/>
	
		<linearGradient id="SVGID_2_" gradientUnits="userSpaceOnUse" x1="100" y1="-624.65" x2="163.9" y2="-624.65" gradientTransform="matrix(1 0 0 -1 0 -520)">
		<stop  offset="0" style="stop-color:#B32629"/>
		<stop  offset="0.5834" style="stop-color:#8C1E21"/>
		<stop  offset="1" style="stop-color:#7A1A1D"/>
	</linearGradient>
	<polygon class="st3" points="100,84 100,146.4 100,146.4 163.9,109.1 136.1,62.9 	"/>
	
		<linearGradient id="SVGID_3_" gradientUnits="userSpaceOnUse" x1="100" y1="-554.35" x2="127.85" y2="-554.35" gradientTransform="matrix(1 0 0 -1 0 -520)">
		<stop  offset="0" style="stop-color:#E8A333"/>
		<stop  offset="0.6121" style="stop-color:#C68931"/>
		<stop  offset="1" style="stop-color:#AB762F"/>
	</linearGradient>
	<polygon class="st4" points="100,65.5 127.9,49.4 100,3.2 	"/>
	
		<linearGradient id="SVGID_4_" gradientUnits="userSpaceOnUse" x1="100" y1="-695" x2="200" y2="-695" gradientTransform="matrix(1 0 0 -1 0 -520)">
		<stop  offset="0" style="stop-color:#B32629"/>
		<stop  offset="0.5834" style="stop-color:#8C1E21"/>
		<stop  offset="1" style="stop-color:#7A1A1D"/>
	</linearGradient>
	<polygon class="st5" points="172.1,122.8 100,164.9 100,164.9 100,227.2 200,168.9 	"/>
	
		<linearGradient id="SVGID_5_" gradientUnits="userSpaceOnUse" x1="0" y1="-695" x2="100" y2="-695" gradientTransform="matrix(1 0 0 -1 0 -520)">
		<stop  offset="0" style="stop-color:#AE2524"/>
		<stop  offset="0.5629" style="stop-color:#D01D19"/>
		<stop  offset="1" style="stop-color:#ED1913"/>
	</linearGradient>
	<polygon class="st6" points="0,168.9 100,227.2 100,164.9 27.9,122.8 	"/>
	
		<linearGradient id="SVGID_6_" gradientUnits="userSpaceOnUse" x1="36.1" y1="-624.65" x2="100" y2="-624.65" gradientTransform="matrix(1 0 0 -1 0 -520)">
		<stop  offset="0" style="stop-color:#AE2524"/>
		<stop  offset="0.5629" style="stop-color:#D01D19"/>
		<stop  offset="1" style="stop-color:#ED1913"/>
	</linearGradient>
	<polygon class="st7" points="63.9,62.9 36.1,109.1 100,146.4 100,84 	"/>
</g>
</svg>
