<?xml version="1.0" encoding="UTF-8"?>
<svg width="308px" height="91px" viewBox="0 0 308 91" version="1.1" xmlns="http://www.w3.org/2000/svg" xmlns:xlink="http://www.w3.org/1999/xlink">
    <!-- Generator: Sketch 52.6 (67491) - http://www.bohemiancoding.com/sketch -->
    <title>Remme</title>
    <desc>Created with Sketch.</desc>
    <g id="Page-1" stroke="none" stroke-width="1" fill="none" fill-rule="evenodd">
        <g id="Remme">
            <g id="Group" transform="translate(82.000000, 14.000000)" fill="#000000">
                <path d="M23.1,42.6 L15.6,28.5 L11.4,28.5 L11.4,42.6 L0.6,42.6 L0.6,0 L18.4,0 C23.5,0 27.4,1.3 30,4 C32.7,6.7 34,10 34,14.1 C34,19.5 31.5,24.3 26.2,26.8 L35.4,42.6 L23.1,42.6 Z M11.4,9.8 L11.4,19 L17.9,19 C24.8,19.3 24.3,9.3 18.3,9.8 L11.4,9.8 Z" id="Shape" fill-rule="nonzero"></path>
                <path d="M70.5,30 L47.8,30 C49,33.3 51.5,35 55.6,35 C59.1,35 62.3,34 65.2,32.1 L69.2,39 C65.1,41.9 60.4,43.4 55.1,43.4 C49.4,43.4 45.1,41.8 42.1,38.6 C39,35.4 37.5,31.4 37.5,26.8 C37.5,22 39.1,18 42.2,14.9 C45.4,11.7 49.5,10.1 54.5,10.1 C59.2,10.1 63.1,11.5 66.2,14.4 C69.3,17.2 70.8,21.1 70.8,26 C70.8,27.2 70.7,28.5 70.5,30 Z M47.6,23 L61.1,23 C60.2,19.9 57.9,18.1 54.5,18.1 C51,18.1 48.7,19.7 47.6,23 Z" id="Shape" fill-rule="nonzero"></path>
                <path d="M124.9,13.3 C127.5,15.5 128.8,18.8 128.8,23.2 L128.8,42.6 L118.6,42.6 L118.6,25.2 C118.6,21.2 116.4,19.2 113.3,19.2 C109.8,19.2 107.4,21.6 107.4,25.5 L107.4,42.6 L97.3,42.6 L97.3,25.2 C97.3,21.5 95.1,19.2 91.8,19.2 C88.5,19.2 86,21.6 86,25.5 L86,42.6 L75.9,42.6 L75.9,10.8 L85.8,10.8 L85.8,15.2 C87.6,11.9 91.6,9.8 95.7,9.8 C100,9.9 102.9,11.6 104.5,15.1 C106.9,11.6 111.1,9.8 115.7,9.8 C119.2,9.8 122.3,11 124.9,13.3 Z" id="Path"></path>
                <path d="M184,13.3 C186.6,15.5 187.9,18.8 187.9,23.2 L187.9,42.6 L177.7,42.6 L177.7,25.2 C177.7,21.2 175.5,19.2 172.4,19.2 C168.9,19.2 166.5,21.6 166.5,25.5 L166.5,42.6 L156.4,42.6 L156.4,25.2 C156.4,21.5 154.2,19.2 150.9,19.2 C147.6,19.2 145.1,21.6 145.1,25.5 L145.1,42.6 L135,42.6 L135,10.8 L144.9,10.8 L144.9,15.2 C146.7,11.9 150.7,9.8 154.8,9.8 C159.1,9.9 162,11.6 163.6,15.1 C166,11.6 170.2,9.8 174.8,9.8 C178.3,9.8 181.4,11 184,13.3 Z" id="Path"></path>
                <path d="M225.5,30 L202.8,30 C204,33.3 206.5,35 210.6,35 C214.1,35 217.3,34 220.2,32.1 L224.2,39 C220.1,41.9 215.4,43.4 210.1,43.4 C204.4,43.4 200.1,41.8 197.1,38.6 C194,35.4 192.5,31.4 192.5,26.8 C192.5,22 194.1,18 197.2,14.9 C200.3,11.8 204.5,10.1 209.5,10.1 C214.2,10.1 218.1,11.5 221.2,14.4 C224.3,17.3 225.8,21.1 225.8,26 C225.8,27.2 225.7,28.5 225.5,30 Z M202.7,23 L216.2,23 C215.3,19.9 213,18.1 209.6,18.1 C206,18.1 203.8,19.7 202.7,23 Z" id="Shape" fill-rule="nonzero"></path>
            </g>
            <g id="Group">
                <path d="M66.9,64.4 L62.7,54.5 L52.6,58.8 L47.3,46.2 C52.6,41.3 55.7,34.4 55.7,26.9 C55.7,12.4 43.9,0.6 29.4,0.6 C14.9,0.6 3.1,12.4 3.1,26.9 C3.1,34.4 6.2,41.3 11.6,46.3 L0.3,72.5 L10.2,76.7 L14.3,66.9 L24.5,71.2 L28.7,61.3 L18.6,57 L25,42.4 L21.1,39.9 C16.6,37 13.9,32.1 13.9,26.8 C13.9,18.3 20.8,11.3 29.4,11.3 C38,11.3 44.9,18.2 44.9,26.8 C44.9,32.1 42.2,37 37.8,39.8 L34,42.3 L49.5,78.5 L59.4,74.3 L56.9,68.6 L66.9,64.4 Z" id="Path" fill="#533A75"></path>
                <polygon id="Path" fill="#657CBD" points="16.3 90.9 6.1 86.6 10.3 76.6 20.5 80.9"></polygon>
            </g>
        </g>
    </g>
</svg>