<?xml version="1.0" encoding="iso-8859-1"?>
<!-- Generator: Adobe Illustrator 19.0.0, SVG Export Plug-In . SVG Version: 6.00 Build 0)  -->
<svg version="1.1" id="Layer_1" xmlns="http://www.w3.org/2000/svg" xmlns:xlink="http://www.w3.org/1999/xlink" x="0px" y="0px"
	 viewBox="1000 -1000 2500 2500" style="enable-background:new 1000 -1000 2500 2500;" xml:space="preserve">
<circle style="fill:#5F2652;" cx="2250" cy="250" r="1213.522"/>
<path style="fill:#FFFFFF;" d="M2940.009,564.302l-634.915-1138.77c-16.498-30.562-54.647-41.962-85.209-25.464
	c-10.789,5.824-19.64,14.675-25.464,25.464l-634.672,1138.77c-16.504,29.367-7.038,67.472,22.572,84.947l635.643,380.075
	c20.465,11.644,45.551,11.644,66.016,0l634.672-379.347C2946.804,631.774,2957.241,593.669,2940.009,564.302 M2460.182,105.348
	l-15.533-13.106l-0.971-0.971c-4.943-4.038-10.13-7.767-15.533-11.164l-0.971-0.971c-5.097-3.398-10.436-7.038-16.504-10.436
	c-0.971,0-0.971-0.971-1.699-0.971c-5.097-3.398-11.164-6.068-16.504-8.737c-0.971,0-0.971-0.971-1.699-0.971
	c-5.097-2.67-11.164-5.097-17.232-7.767c-0.971,0-0.971-0.971-1.699-0.971c-5.097-1.699-10.436-4.369-15.533-6.068
	c-14.032-5.257-28.484-9.317-43.201-12.135c-11.164,21.601-26.94,40.774-44.172,57.036c26.94,1.699,52.91,8.737,76.209,18.203
	c13.781,5.932,27.088,12.909,39.804,20.873c0.677,0.071,1.294,0.423,1.699,0.971c3.398,1.699,6.068,4.369,9.466,7.038
	c1.624,0.898,3.098,2.045,4.369,3.398c3.143,2.045,6.07,4.403,8.737,7.038c1.699,1.699,3.398,2.67,5.097,4.369
	c2.67,2.67,5.097,4.369,7.767,7.038l5.097,5.097l7.039,7.038l5.097,5.097c1.839,2.498,3.868,4.851,6.068,7.038
	c1.699,1.942,3.398,4.369,5.097,6.068l5.097,7.767c1.699,2.67,3.398,4.369,4.369,7.038l5.097,7.767
	c1.699,2.67,2.67,5.097,4.369,7.038c1.699,2.67,2.67,5.097,4.369,7.767c1.699,2.67,2.67,5.097,4.369,7.767
	c0.971,2.67,2.67,5.097,3.398,7.767c1.699,3.398,2.67,7.038,4.369,9.465c7.287,17.734,12.263,36.333,14.805,55.337l7.767,30.338
	c3.398,13.106,34.707,123.779,107.275,161.156c83.248,43.201,193.193,97.082,236.394,117.712l-570.355,341.243V721.818
	c0-37.134,73.539-80.578,107.275-95.14l1.699-0.971c7.038-3.398,13.834-7.038,20.873-11.164l2.67-1.699
	c14.776-8.757,28.674-18.916,41.502-30.338c0.971-0.971,2.67-1.699,3.398-3.398c1.699-0.971,2.67-2.67,4.369-3.398
	c4.369-3.398,7.767-7.767,12.135-11.164l1.699-1.699c4.49-4.201,8.555-8.835,12.135-13.834c0.971-1.699,2.67-2.67,3.398-4.369
	c3.398-3.398,6.068-7.767,9.466-12.135c0.971-0.971,1.699-2.67,2.67-3.398l10.436-15.533c0-0.971,0.971-0.971,0.971-1.699
	c4.369-7.038,8.737-14.805,13.106-21.601c-17.232-20.873-30.338-43.201-40.774-64.074c-4.421,12.83-9.943,25.255-16.504,37.134
	c-2.67,5.097-6.068,10.436-8.737,15.533c-0.971,0.971-0.971,1.699-1.699,1.699c-2.68,4.208-5.597,8.259-8.737,12.135
	c-0.971,0.971-1.699,2.67-2.67,3.398c-2.692,4.09-5.871,7.839-9.466,11.164c-0.971,0.971-0.971,1.699-1.699,1.699
	c-20.873,23.3-45.871,43.201-74.51,57.036l-5.097,2.67c-14.805,6.068-141.982,64.074-141.982,151.448v233.725l-571.569-340.272
	c37.134-22.571,144.652-86.646,232.996-114.314c34.707-11.164,108.246,35.435,149.749,69.171l2.67,2.67
	c5.349,5.377,11.111,10.327,17.232,14.805l1.699,1.699c13.106,10.436,26.94,20.873,42.473,28.639l10.436,5.097
	c0.677,0.071,1.294,0.423,1.699,0.971c9.466,5.097,18.931,9.466,29.367,13.834c1.413,0.671,2.873,1.239,4.369,1.699
	c0.971,0,1.699,0.971,3.398,0.971c14.805,5.097,29.367,9.466,44.172,13.106c11.164-21.601,27.668-40.774,45.143-57.036
	c-24.339-1.653-48.301-6.887-71.113-15.533c-0.971-0.971-2.67-0.971-3.398-1.699c-2.714-0.823-5.321-1.964-7.767-3.398
	c-0.971-0.971-2.67-0.971-3.398-1.699c-2.67-0.971-5.097-2.67-7.038-3.398c-17.232-8.737-33.008-18.203-47.57-30.338l-22.572-20.872
	c-20.86-18.334-43.457-34.591-67.472-48.541c-56.307-32.037-103.877-42.473-140.283-31.066
	c-75.238,24.27-161.156,70.142-213.094,100.48l570.599-1025.184v449.489c0,15.533-23.3,57.036-102.179,92.713l-5.097,2.67
	c-7.767,3.398-14.805,7.767-22.572,12.135l-1.699,0.971c-14.931,8.983-29.133,19.127-42.473,30.338
	c-8.404,6.836-16.2,14.389-23.3,22.571l-0.971,0.971c-7.672,7.447-14.657,15.57-20.873,24.27l-0.971,0.971
	c-3.398,4.369-6.068,8.737-9.465,13.106c0,0.971-0.971,0.971-0.971,1.699c-2.67,4.369-5.097,7.767-7.767,12.135
	c0,0.971-0.971,0.971-0.971,1.699l-7.766,13.106c-0.971,0.971-0.971,1.699-1.699,3.398c-2.67,4.369-4.369,8.737-6.068,12.135
	c-0.071,0.677-0.423,1.294-0.971,1.699c-1.699,4.369-3.398,7.767-5.097,12.135c-0.671,1.413-1.239,2.873-1.699,4.369l-5.097,13.106
	c-0.671,1.413-1.239,2.873-1.699,4.369c-0.807,3.263-1.946,6.434-3.398,9.465c-0.971,1.699-0.971,3.398-1.699,5.097
	c-0.971,4.369-2.67,8.737-3.398,12.135c-0.971,1.699-0.971,4.369-1.699,6.068c-0.971,2.67-0.971,6.068-1.699,8.737
	c-0.971,2.67-0.971,5.097-1.699,7.767c-0.971,3.398-0.971,7.038-1.699,10.436c0,2.67-0.971,4.369-0.971,7.038
	c0,3.398-0.971,6.068-0.971,9.466c0.159,3.186-0.169,6.378-0.971,9.466v13.106c-0.103,15.679,1.033,31.342,3.398,46.842
	c22.572,5.097,45.871,14.805,71.112,26.94c-7.038-22.571-10.436-45.871-11.164-70.142v-4.369
	c-0.161-5.761,0.164-11.525,0.971-17.232v-4.369c0-5.097,0.971-9.466,1.699-14.805v-1.699c0.971-5.097,1.699-10.436,2.67-16.504
	c0-1.699,0.971-2.67,0.971-4.369c0.971-4.369,2.67-8.737,3.398-13.106c0-0.971,0.971-1.699,0.971-2.67l5.097-15.533
	c0.971-0.971,0.971-2.67,1.699-3.398c1.699-4.369,3.398-8.737,5.097-12.135c0.971-0.971,0.971-1.699,1.699-3.398
	c2.67-5.097,4.369-9.465,7.767-13.834c0.651-0.833,1.22-1.727,1.699-2.67c2.67-4.369,4.369-7.767,7.038-12.135
	c0.651-0.833,1.22-1.727,1.699-2.67c2.913-4.538,6.073-8.914,9.466-13.106c-0.014-0.523,0.399-0.957,0.922-0.971
	c0.016,0,0.033,0,0.049,0c3.398-4.369,6.068-7.767,9.465-12.135c0.651-0.833,1.22-1.727,1.699-2.67
	c15.625-17.258,33.407-32.43,52.91-45.143l26.94-13.106c14.805-6.068,141.254-65.773,141.254-153.389v-447.79l575.938,1033.921
	c-51.211-24.999-141.982-70.142-212.124-106.547c-40.774-20.873-67.472-94.412-75.239-121.352l-7.766-31.066
	c0-16.504-4.369-33.008-9.466-49.269C2532.424,187.168,2501.255,141.292,2460.182,105.348"/>
</svg>
