<?xml version="1.0" encoding="iso-8859-1"?>
<!-- Generator: Adobe Illustrator 19.0.0, SVG Export Plug-In . SVG Version: 6.00 Build 0)  -->
<svg version="1.1" id="Layer_1" xmlns="http://www.w3.org/2000/svg" xmlns:xlink="http://www.w3.org/1999/xlink" x="0px" y="0px"
	 viewBox="1000 -1000 2500 2500" style="enable-background:new 1000 -1000 2500 2500;" xml:space="preserve">
<linearGradient id="SVGID_1_" gradientUnits="userSpaceOnUse" x1="2250" y1="-944.9902" x2="2250" y2="1465.3865">
	<stop  offset="0" style="stop-color:#6CFDCC"/>
	<stop  offset="1" style="stop-color:#5A89F9"/>
</linearGradient>
<path style="fill:url(#SVGID_1_);" d="M1486.636-947.6h776.005c78.439,12.454,158.913,1.317,236.753,17.963
	c173.404,31.855,330.401,140.95,421.534,291.721c107.779,174.601,121.91,402.253,39.878,589.908
	c-74.247,172.685-229.568,307.887-410.995,356.867c-115.203,33.292-236.155,20.837-354.472,23.113
	c202.624,335.67,404.888,671.7,606.673,1008.088c-52.811,36.884-117.479,59.158-161.189,107.539h-6.826
	c-262.501-439.018-527.636-876.479-791.094-1314.898c187.056-0.958,374.231,1.437,561.167-1.198
	c215.797-5.868,404.529-196.636,409.079-412.432c14.131-186.457-106.821-372.315-283.697-433.629
	c-73.289-28.621-153.165-27.304-230.646-26.466c-270.764,0-541.527,0-812.291-0.12"/>
</svg>
