<svg width="128" height="128" viewBox="0 0 128 128" fill="none" xmlns="http://www.w3.org/2000/svg">
<path fill-rule="evenodd" clip-rule="evenodd" d="M64 0C99.348 0 128 28.652 128 64C128 99.344 99.348 128 64 128C28.656 128 0 99.344 0 64C0 28.652 28.656 0 64 0Z" fill="#FFC404"/>
<path fill-rule="evenodd" clip-rule="evenodd" d="M77.496 50.464H66.256V49.608C66.08 46.18 67.244 42.816 69.504 40.236C71.712 37.876 74.832 36.596 78.06 36.728C79.34 36.784 80.588 36.336 81.552 35.488C82.444 34.704 82.944 33.556 82.912 32.364C82.94 31.168 82.432 30.024 81.532 29.24C80.572 28.392 79.316 27.952 78.04 28.008C74.132 27.928 70.276 28.896 66.872 30.808C63.624 32.644 60.984 35.384 59.268 38.696C57.4 42.104 56.464 45.948 56.568 49.832V50.46H52.472C51.288 50.404 50.128 50.816 49.244 51.608C48.412 52.388 47.96 53.492 48.008 54.632C47.98 55.724 48.432 56.772 49.248 57.496C50.136 58.284 51.292 58.692 52.476 58.632H56.576V64.652H52.472C51.292 64.604 50.136 65.008 49.248 65.788C48.416 66.564 47.968 67.656 48.004 68.788C47.976 69.876 48.428 70.916 49.248 71.632C50.128 72.424 51.288 72.836 52.472 72.784H56.576V92.452C56.52 93.756 57.012 95.024 57.932 95.944C58.8 96.812 59.984 97.2964 61.216 97.288C62.58 97.368 63.924 96.88 64.928 95.944C65.836 95.012 66.316 93.748 66.256 92.452V72.784H71.352C72.544 72.836 73.712 72.424 74.6 71.632C75.404 70.908 75.852 69.868 75.82 68.788C75.872 67.64 75.428 66.528 74.6 65.732C73.696 64.972 72.536 64.584 71.352 64.648H66.256V58.632H77.496C78.68 58.692 79.84 58.284 80.728 57.496C81.54 56.772 81.996 55.724 81.964 54.632C82.016 53.488 81.564 52.38 80.728 51.596C79.84 50.812 78.68 50.404 77.496 50.464Z" fill="white"/>
</svg>
