<svg width="128" height="128" viewBox="0 0 128 128" fill="none" xmlns="http://www.w3.org/2000/svg">
<g clip-path="url(#clip0)">
<path d="M64.1281 128.256C99.4743 128.256 128.128 99.6022 128.128 64.256C128.128 28.9098 99.4743 0.256012 64.1281 0.256012C28.7818 0.256012 0.128052 28.9098 0.128052 64.256C0.128052 99.6022 28.7818 128.256 64.1281 128.256Z" fill="white"/>
<path d="M23.8933 23.8866V64.072L43.6144 44.3508L23.8933 23.8866Z" fill="url(#paint0_linear)"/>
<path d="M85.6512 44.3508L105.372 64.072V23.8866L85.6512 44.3508Z" fill="url(#paint1_linear)"/>
<path d="M26.6462 68.2136L63.4576 122.261L45.7828 49.0892L26.6462 68.2136Z" fill="url(#paint2_linear)"/>
<path d="M66.0032 122.261L102.802 68.2136L83.678 49.0892L66.0032 122.261Z" fill="url(#paint3_linear)"/>
<path d="M79.244 48.2976H64.7H50.1556L57.4276 79.9928L64.7 111.676L71.972 79.9928L79.244 48.2976Z" fill="url(#paint4_linear)"/>
</g>
<defs>
<linearGradient id="paint0_linear" x1="23.8933" y1="43.9792" x2="43.6144" y2="43.9792" gradientUnits="userSpaceOnUse">
<stop stop-color="#A71E22"/>
<stop offset="0.1551" stop-color="#B81F24"/>
<stop offset="0.4908" stop-color="#DA2126"/>
<stop offset="0.6826" stop-color="#EC2227"/>
</linearGradient>
<linearGradient id="paint1_linear" x1="85.6512" y1="43.9792" x2="105.372" y2="43.9792" gradientUnits="userSpaceOnUse">
<stop stop-color="#A71E22"/>
<stop offset="0.1551" stop-color="#B81F24"/>
<stop offset="0.4908" stop-color="#DA2126"/>
<stop offset="0.6826" stop-color="#EC2227"/>
</linearGradient>
<linearGradient id="paint2_linear" x1="26.6462" y1="85.6752" x2="63.4576" y2="85.6752" gradientUnits="userSpaceOnUse">
<stop stop-color="#A71E22"/>
<stop offset="0.1551" stop-color="#B81F24"/>
<stop offset="0.4908" stop-color="#DA2126"/>
<stop offset="0.6826" stop-color="#EC2227"/>
</linearGradient>
<linearGradient id="paint3_linear" x1="66.0032" y1="85.6752" x2="102.802" y2="85.6752" gradientUnits="userSpaceOnUse">
<stop stop-color="#A71E22"/>
<stop offset="0.1551" stop-color="#B81F24"/>
<stop offset="0.4908" stop-color="#DA2126"/>
<stop offset="0.6826" stop-color="#EC2227"/>
</linearGradient>
<linearGradient id="paint4_linear" x1="50.1556" y1="79.9864" x2="79.244" y2="79.9864" gradientUnits="userSpaceOnUse">
<stop stop-color="#A71E22"/>
<stop offset="0.1551" stop-color="#B81F24"/>
<stop offset="0.4908" stop-color="#DA2126"/>
<stop offset="0.6826" stop-color="#EC2227"/>
</linearGradient>
<clipPath id="clip0">
<rect width="128" height="128" fill="white"/>
</clipPath>
</defs>
</svg>
