<svg xmlns="http://www.w3.org/2000/svg" width="130" height="30" viewBox="0 0 130 30">
    <defs>
        <filter id="a" width="101.3%" height="125%" x="-.7%" y="-12.5%" filterUnits="objectBoundingBox">
            <feOffset dy="1" in="SourceAlpha" result="shadowOffsetOuter1"/>
            <feGaussianBlur in="shadowOffsetOuter1" result="shadowBlurOuter1" stdDeviation="1.5"/>
            <feColorMatrix in="shadowBlurOuter1" result="shadowMatrixOuter1" values="0 0 0 0 0 0 0 0 0 0 0 0 0 0 0 0 0 0 0.1 0"/>
            <feMerge>
                <feMergeNode in="shadowMatrixOuter1"/>
                <feMergeNode in="SourceGraphic"/>
            </feMerge>
        </filter>
        <linearGradient id="b" x1="12.525%" x2="60.15%" y1="0%" y2="100%">
            <stop offset="0%" stop-color="#FF3E54"/>
            <stop offset="100%" stop-color="#803AFF"/>
        </linearGradient>
    </defs>
    <g fill="none" fill-rule="evenodd" filter="url(#a)" transform="translate(-17 -18)">
        <path d="M20 20h125v24H20z"/>
        <path fill="#FFF" d="M54.953 31.654h1.135c.761 0 1.312-.141 1.654-.424.342-.282.513-.701.513-1.257 0-.565-.185-.971-.554-1.217-.369-.246-.925-.37-1.668-.37h-1.08v3.268zm0 1.354V37H53.32v-9.994h2.824c1.29 0 2.244.241 2.864.724.62.484.93 1.213.93 2.188 0 1.244-.648 2.13-1.942 2.66L60.818 37H58.96l-2.393-3.992h-1.613zM70.921 37h-5.653v-9.994h5.653v1.38H66.9v2.721h3.767v1.368h-3.767v3.137h4.02V37zm6.78 0h-1.62v-9.994h5.64v1.38H77.7v3.125h3.767v1.387H77.7V37zm14.485 0h-5.654v-9.994h5.654v1.38h-4.02v2.721h3.767v1.368h-3.767v3.137h4.02V37zm6.793-5.346h1.135c.761 0 1.313-.141 1.655-.424.341-.282.512-.701.512-1.257 0-.565-.184-.971-.553-1.217-.37-.246-.926-.37-1.668-.37h-1.08v3.268zm0 1.354V37h-1.633v-9.994h2.823c1.29 0 2.244.241 2.864.724.62.484.93 1.213.93 2.188 0 1.244-.647 2.13-1.942 2.66L104.845 37h-1.86l-2.392-3.992h-1.614zM114.947 37h-5.653v-9.994h5.653v1.38h-4.02v2.721h3.767v1.368h-3.766v3.137h4.02V37zm12.994-9.994v6.467c0 .738-.158 1.384-.475 1.938-.316.553-.774.98-1.374 1.278-.599.298-1.316.448-2.15.448-1.24 0-2.203-.328-2.891-.985-.688-.656-1.032-1.558-1.032-2.707v-6.44h1.64v6.324c0 .825.192 1.433.574 1.825.383.392.971.588 1.764.588 1.54 0 2.31-.809 2.31-2.427v-6.31h1.634zM137.818 37l-2.898-8.347h-.055c.078 1.24.116 2.402.116 3.487V37h-1.483v-9.994h2.304l2.775 7.95h.041l2.858-7.95h2.31V37h-1.572v-4.942c0-.497.012-1.144.037-1.942.026-.797.047-1.28.065-1.449h-.054L139.26 37h-1.443z"/>
        <path fill="url(#b)" d="M0 0v10c1.649-1.667 4.287-2.5 7.915-2.5.005-.635.005-.97 0-2.002l6.679 4.252-6.679 4.75v-2c-2.968 0-5.936 2.917-5.936 6.75 0 1.851.495 3.75 1.484 4.75h17.315l-2.714-6.405a.998.998 0 0 1 .175-1.055c1.692-1.893 2.539-4.157 2.539-6.79 0-5.02-3.606-9.763-8.905-9.75C8.34.009 4.383.009 0 0z" transform="translate(20 20)"/>
    </g>
</svg>
