<svg width="128" height="128" viewBox="0 0 128 128" fill="none" xmlns="http://www.w3.org/2000/svg">
<path d="M64 128C99.3462 128 128 99.3462 128 64C128 28.6538 99.3462 0 64 0C28.6538 0 0 28.6538 0 64C0 99.3462 28.6538 128 64 128Z" fill="white"/>
<path d="M23.264 67.488H16.224C16.096 67.488 16 67.584 16 67.712V74.72C16 74.848 16.096 74.944 16.224 74.944H23.232C23.36 74.944 23.456 74.848 23.456 74.72V67.712C23.488 67.584 23.392 67.488 23.264 67.488ZM48.992 67.488H41.984C41.856 67.488 41.76 67.584 41.76 67.712V89.408C41.76 89.536 41.856 89.632 41.984 89.632H48.992C49.12 89.632 49.216 89.536 49.216 89.408V67.712C49.248 67.584 49.12 67.488 48.992 67.488ZM91.872 60.48H98.88C99.008 60.48 99.104 60.384 99.104 60.256V53.248C99.104 53.12 99.008 53.024 98.88 53.024H91.872C91.744 53.024 91.648 53.12 91.648 53.248V60.256C91.648 60.384 91.744 60.48 91.872 60.48ZM38.56 49.248H60.256C60.384 49.248 60.48 49.152 60.48 49.024V42.016C60.48 41.888 60.384 41.792 60.256 41.792H38.56C38.432 41.792 38.336 41.888 38.336 42.016V49.024C38.336 49.152 38.432 49.248 38.56 49.248ZM53.248 36.384H60.256C60.384 36.384 60.48 36.288 60.48 36.16V29.12C60.48 28.992 60.384 28.896 60.256 28.896H53.248C53.12 28.896 53.024 28.992 53.024 29.12V36.16C53.024 36.288 53.12 36.384 53.248 36.384ZM79.008 60.48H86.016C86.144 60.48 86.24 60.384 86.24 60.256V38.56C86.24 38.432 86.144 38.336 86.016 38.336H79.008C78.88 38.336 78.784 38.432 78.784 38.56V60.256C78.752 60.384 78.88 60.48 79.008 60.48ZM53.248 23.52H60.256C60.384 23.52 60.48 23.424 60.48 23.296V16.256C60.48 16.128 60.384 16.032 60.256 16.032H53.248C53.12 16.032 53.024 16.128 53.024 16.256V23.264C53.024 23.392 53.12 23.52 53.248 23.52ZM36.128 67.488H29.12C28.992 67.488 28.896 67.584 28.896 67.712V74.72C28.896 74.848 28.992 74.944 29.12 74.944H36.128C36.256 74.944 36.352 74.848 36.352 74.72V67.712C36.352 67.584 36.256 67.488 36.128 67.488ZM104.256 65.984H73.504C73.376 65.984 73.28 66.08 73.28 66.208V73.024C73.28 73.152 73.376 73.248 73.504 73.248H104.256C104.384 73.248 104.48 73.152 104.48 73.024V66.208C104.48 66.08 104.384 65.984 104.256 65.984ZM89.44 78.752H67.744C67.616 78.752 67.52 78.848 67.52 78.976V85.984C67.52 86.112 67.616 86.208 67.744 86.208H89.44C89.568 86.208 89.664 86.112 89.664 85.984V78.976C89.664 78.848 89.568 78.752 89.44 78.752ZM111.776 52.992H104.768C104.64 52.992 104.544 53.088 104.544 53.216V60.224C104.544 60.352 104.64 60.448 104.768 60.448H111.776C111.904 60.448 112 60.352 112 60.224V53.216C112 53.088 111.904 52.992 111.776 52.992ZM54.72 54.976C54.72 54.848 54.624 54.752 54.496 54.752H23.744C23.616 54.752 23.52 54.848 23.52 54.976V61.792C23.52 61.92 23.616 62.016 23.744 62.016H54.496C54.624 62.016 54.72 61.92 54.72 61.792V54.976ZM74.752 91.616H67.744C67.616 91.616 67.52 91.712 67.52 91.84V98.88C67.52 99.008 67.616 99.104 67.744 99.104H74.752C74.88 99.104 74.976 99.008 74.976 98.88V91.84C74.976 91.712 74.88 91.616 74.752 91.616ZM61.76 73.28H54.944C54.816 73.28 54.72 73.376 54.72 73.504V104.224C54.72 104.352 54.816 104.448 54.944 104.448H61.76C61.888 104.448 61.984 104.352 61.984 104.224V73.504C62.016 73.408 61.888 73.28 61.76 73.28ZM73.28 54.496V23.744C73.28 23.616 73.184 23.52 73.056 23.52H66.24C66.112 23.52 66.016 23.616 66.016 23.744V54.528C66.016 54.656 66.112 54.752 66.24 54.752H73.056C73.184 54.752 73.28 54.624 73.28 54.496ZM74.752 104.48H67.744C67.616 104.48 67.52 104.576 67.52 104.704V111.712C67.52 111.84 67.616 111.936 67.744 111.936H74.752C74.88 111.936 74.976 111.84 74.976 111.712V104.704C74.976 104.608 74.88 104.48 74.752 104.48Z" fill="#009EDE"/>
</svg>
