<svg width="128" height="128" viewBox="0 0 128 128" fill="none" xmlns="http://www.w3.org/2000/svg">
<path d="M51.7908 115.12C23.603 115.12 0.671387 92.1872 0.671387 64.0004C0.671387 35.814 23.5966 12.8799 51.7908 12.8799C59.874 12.8554 67.8452 14.7691 75.0364 18.4604C80.6836 21.3612 85.7472 25.2793 89.972 30.018C90.2712 29.8445 90.5748 29.6761 90.8804 29.5114C95.05 27.2936 99.7288 26.1689 104.786 26.1689C105.194 26.1689 105.609 26.1765 106.021 26.1917C115.381 26.5248 121.727 29.0719 123.373 30.0244L125.12 31.0541C125.876 31.5 126.485 32.1581 126.872 32.9468C127.258 33.7354 127.404 34.62 127.292 35.491L127.181 36.351L127.172 36.484C126.294 49.5512 120.527 59.5472 110.933 64.63C110.352 64.9364 109.812 65.2 109.275 65.4408C107.205 66.3668 105.029 67.036 102.796 67.4344C101.023 94.0264 78.8236 115.12 51.7908 115.12Z" fill="white"/>
<path d="M98.4252 64.002C98.4252 89.758 77.5468 110.638 51.7908 110.638C26.0347 110.638 5.15625 89.758 5.15625 64.002C5.15625 38.2458 26.0347 17.3674 51.7908 17.3674C77.5468 17.3674 98.4252 38.2509 98.4252 64.002Z" fill="#0083FF"/>
<path d="M49.4056 24.4806H49.0472C48.042 24.4806 47.2272 25.2955 47.2272 26.3007V26.6591C47.2272 27.6643 48.042 28.4792 49.0472 28.4792H49.4056C50.4108 28.4792 51.2256 27.6643 51.2256 26.6591V26.3007C51.2256 25.2955 50.4108 24.4806 49.4056 24.4806Z" fill="white"/>
<path d="M49.0471 31.4798H49.4044C49.8872 31.4798 50.35 31.6716 50.6916 32.013C51.0328 32.3543 51.2243 32.8172 51.2243 33.3V33.6584C51.2243 33.8974 51.1775 34.1341 51.0859 34.355C50.9943 34.5758 50.8604 34.7764 50.6916 34.9454C50.5224 35.1144 50.322 35.2485 50.1012 35.34C49.88 35.4314 49.6436 35.4785 49.4044 35.4785H49.046C48.8072 35.4785 48.5704 35.4314 48.3496 35.34C48.1288 35.2485 47.928 35.1144 47.7592 34.9454C47.59 34.7764 47.4559 34.5758 47.3643 34.355C47.2731 34.1341 47.226 33.8974 47.226 33.6584V33.3012C47.226 32.8182 47.418 32.3549 47.7596 32.0133C48.1008 31.6718 48.5643 31.4798 49.0471 31.4798Z" fill="white"/>
<path d="M29.4089 52.4748H29.0504C28.0452 52.4748 27.2303 53.2896 27.2303 54.2948V54.6532C27.2303 55.6584 28.0452 56.4732 29.0504 56.4732H29.4089C30.4141 56.4732 31.2289 55.6584 31.2289 54.6532V54.2948C31.2289 53.2896 30.4141 52.4748 29.4089 52.4748Z" fill="white"/>
<path d="M36.4081 52.4748H36.0496C35.0444 52.4748 34.2295 53.2896 34.2295 54.2948V54.6532C34.2295 55.6584 35.0444 56.4732 36.0496 56.4732H36.4081C37.4133 56.4732 38.2281 55.6584 38.2281 54.6532V54.2948C38.2281 53.2896 37.4133 52.4748 36.4081 52.4748Z" fill="white"/>
<path d="M41.0488 38.4777H49.4084C49.8912 38.4777 50.354 38.6694 50.6952 39.0108C51.0368 39.3521 51.2284 39.815 51.2284 40.2976V40.6576C51.2284 41.1404 51.0364 41.6036 50.6948 41.9452C50.3532 42.2868 49.89 42.4788 49.4072 42.4788H41.0476C40.5648 42.478 40.1024 42.286 39.7613 41.9444C39.4203 41.6028 39.2288 41.14 39.2288 40.6576V40.3004C39.2288 39.8172 39.4206 39.354 39.7622 39.0124C40.1036 38.6708 40.5672 38.4789 41.05 38.4789L41.0488 38.4777Z" fill="white"/>
<path d="M43.0488 52.4748H43.406C43.8888 52.4748 44.3516 52.6664 44.6928 53.008C45.0344 53.3492 45.226 53.812 45.226 54.2948V62.6544C45.2244 63.136 45.032 63.5976 44.6908 63.9376C44.3496 64.278 43.8876 64.4688 43.406 64.4692H43.0488C42.566 64.4692 42.1032 64.2776 41.7616 63.9364C41.4204 63.5948 41.2288 63.132 41.2288 62.6492V54.2896C41.2304 53.808 41.4228 53.3464 41.764 53.0064C42.1048 52.6664 42.5668 52.4752 43.0488 52.4748Z" fill="white"/>
<path d="M73.4013 51.4752H60.0453C59.0401 51.4752 58.2249 52.2904 58.2249 53.2956V53.654C58.2249 54.6592 59.0401 55.474 60.0453 55.474H73.4013C74.4065 55.474 75.2213 54.6592 75.2213 53.654V53.2956C75.2213 52.2904 74.4065 51.4752 73.4013 51.4752Z" fill="white"/>
<path d="M33.0503 45.4704H46.4064C46.8892 45.4704 47.352 45.6624 47.6936 46.0036C48.0348 46.3448 48.2264 46.808 48.2264 47.2904V47.6476C48.2264 48.1308 48.0348 48.594 47.6932 48.9356C47.3516 49.2772 46.8884 49.4692 46.4052 49.4692H33.0503C32.5676 49.4692 32.1046 49.2772 31.7633 48.936C31.422 48.5948 31.2302 48.1316 31.2302 47.6488V47.292C31.2302 46.8088 31.4219 46.346 31.7632 46.0044C32.1045 45.6628 32.5675 45.4708 33.0503 45.4704Z" fill="white"/>
<path d="M70.0424 44.476H70.3996C70.882 44.476 71.3453 44.668 71.6865 45.0092C72.0277 45.3508 72.2197 45.8136 72.2197 46.2964V46.6536C72.2197 47.1364 72.0277 47.5996 71.686 47.9412C71.3444 48.2828 70.8813 48.4748 70.3981 48.4748H70.0424C69.5596 48.4748 69.0965 48.2832 68.7553 47.9416C68.414 47.6004 68.222 47.1376 68.222 46.6548V46.2976C68.222 45.8148 68.414 45.3516 68.7553 45.01C69.0965 44.6684 69.5596 44.4764 70.0424 44.476Z" fill="white"/>
<path d="M65.4004 58.4744H57.046C56.04 58.4744 55.2244 59.29 55.2244 60.296V60.6516C55.2244 61.6576 56.04 62.4732 57.046 62.4732H65.4004C66.406 62.4732 67.2216 61.6576 67.2216 60.6516V60.296C67.2216 59.29 66.406 58.4744 65.4004 58.4744Z" fill="white"/>
<path d="M57.4032 65.4724H57.0444C56.0392 65.4724 55.2244 66.2872 55.2244 67.2924V67.6508C55.2244 68.656 56.0392 69.4712 57.0444 69.4712H57.4032C58.4084 69.4712 59.2232 68.656 59.2232 67.6508V67.2924C59.2232 66.2872 58.4084 65.4724 57.4032 65.4724Z" fill="white"/>
<path d="M57.4032 72.4716H57.0444C56.0392 72.4716 55.2244 73.2864 55.2244 74.2916V74.65C55.2244 75.6552 56.0392 76.47 57.0444 76.47H57.4032C58.4084 76.47 59.2232 75.6552 59.2232 74.65V74.2916C59.2232 73.2864 58.4084 72.4716 57.4032 72.4716Z" fill="white"/>
<path d="M56.0464 28.4805H56.4036C56.8864 28.4805 57.3492 28.6722 57.6908 29.0136C58.032 29.3549 58.2236 29.8178 58.2236 30.3006V43.6556C58.222 44.1372 58.0296 44.5988 57.6884 44.9388C57.3472 45.2792 56.8852 45.47 56.4036 45.4704H56.0464C55.5632 45.4704 55.1 45.2788 54.7584 44.9372C54.4168 44.5956 54.2252 44.1324 54.2252 43.6492V30.3006C54.2256 29.8177 54.4176 29.3548 54.7592 29.0135C55.1004 28.6722 55.5636 28.4805 56.0464 28.4805Z" fill="white"/>
<path d="M50.4052 55.474H50.0468C49.0416 55.474 48.2264 56.2888 48.2264 57.294V70.6504C48.2264 71.6556 49.0416 72.4704 50.0468 72.4704H50.4052C51.4104 72.4704 52.2252 71.6556 52.2252 70.6504V57.294C52.2252 56.2888 51.4104 55.474 50.4052 55.474Z" fill="white"/>
<path d="M63.4016 36.479H63.0456C62.0396 36.479 61.2244 37.2944 61.2244 38.3004V46.6548C61.2244 47.6608 62.0396 48.476 63.0456 48.476H63.4016C64.4076 48.476 65.2228 47.6608 65.2228 46.6548V38.3004C65.2228 37.2944 64.4076 36.479 63.4016 36.479Z" fill="white"/>
<path d="M84.5144 56.524L116.906 37.7848C116.906 37.7848 117.613 31.0808 105.096 31.21C92.58 31.3392 85.4948 39.5289 84.546 46.8904C83.5972 54.2516 84.5144 56.524 84.5144 56.524Z" fill="#006E36"/>
<path d="M117.424 36.9679L85.0271 55.7132C85.0271 55.7132 84.3215 62.416 96.8367 62.2868C109.352 62.1576 116.447 53.968 117.392 46.6068C118.337 39.2452 117.424 36.973 117.424 36.973" fill="#00B22B"/>
<path d="M121.136 33.9065C120.342 33.4492 114.742 30.9933 105.86 30.6691C101.134 30.5006 96.7925 31.443 92.9853 33.4682C91.7549 34.1204 90.5865 34.8836 89.4945 35.7481C81.4757 42.0696 81.2617 49.858 80.7337 54.358L74.3869 57.4612C73.8241 57.6976 73.3605 58.1216 73.0749 58.6608C72.7893 59.2004 72.6989 59.8216 72.8197 60.42C72.9401 61.0184 73.2641 61.5564 73.7361 61.9432C74.2085 62.33 74.7997 62.5412 75.4101 62.5416C75.8125 62.5416 76.2097 62.4516 76.5729 62.278L76.6605 62.2312L76.6769 62.2224L78.1205 61.4624L81.0413 59.9248L82.4549 59.2472C85.9113 61.0204 90.3773 63.1736 96.5229 63.4004C100.432 63.5384 104.097 62.8456 107.441 61.3484C107.912 61.1368 108.377 60.9076 108.834 60.6668C122.006 53.6868 122.569 37.8164 122.717 35.9039L122.844 34.9147L121.136 33.9065ZM117.336 38.4928L117.329 38.5612C116.42 43.568 113.742 52.5824 106.03 56.6732C105.964 56.7076 105.894 56.7432 105.823 56.7772C103.178 58.1336 99.5449 59.08 96.2721 58.9596C93.9565 58.8604 91.6641 58.4524 89.4565 57.746L87.5365 56.9268L89.6517 55.8248L97.5917 51.63C98.0889 51.3732 98.5073 50.9864 98.8029 50.5116C99.0981 50.0364 99.2597 49.49 99.2701 48.9308C99.2877 48.4876 99.5309 48.3596 99.3625 47.9428C99.3221 47.8452 99.2777 47.7464 99.2269 47.6516L99.1841 47.5744C99.1781 47.5628 99.1713 47.5524 99.1637 47.5424C98.6141 46.5912 97.6285 46.3164 96.5189 46.276C95.9605 46.2584 95.4069 46.3896 94.9157 46.656L87.0285 50.8028L85.5365 51.5868C85.5365 51.5868 86.8473 41.5148 93.9493 37.9469C94.5025 37.6682 95.0017 37.2629 95.5705 36.959C98.3697 35.477 101.618 34.7906 105.219 34.921C109.603 35.0768 113.633 36.3915 116.394 37.5618C116.572 37.6378 116.744 37.7088 116.91 37.7835L117.353 37.9659L117.336 38.4928Z" fill="white"/>
<path d="M32.9223 91.6032V97.2524H29.0276V81.1476H35.3377C37.2519 81.1476 38.7102 81.6224 39.7125 82.5712C40.7148 83.5204 41.2156 84.8 41.2148 86.4104C41.2312 87.346 40.9996 88.2696 40.5432 89.0868C40.0768 89.886 39.3827 90.5284 38.5498 90.932C37.6691 91.3796 36.5984 91.6032 35.3377 91.6032H32.9223ZM37.2503 86.4104C37.2503 84.9984 36.4683 84.2924 34.9045 84.2912H32.9223V88.4836H34.9045C36.4692 88.4836 37.2511 87.7928 37.2503 86.4104Z" fill="white"/>
<path d="M51.3956 97.2524L47.9112 91.1728H47.0248V97.2524H43.1272V81.1476H49.7768C51.0528 81.1476 52.1308 81.368 53.0104 81.8088C53.8376 82.2004 54.5284 82.8312 54.9928 83.62C55.4436 84.4236 55.6728 85.3332 55.6564 86.2544C55.6564 87.424 55.3336 88.4188 54.6876 89.2388C54.0416 90.0584 53.104 90.62 51.8744 90.9232L55.7008 97.256L51.3956 97.2524ZM47.022 88.5052H49.4376C50.2116 88.5052 50.7808 88.3364 51.1448 87.9988C51.5088 87.6608 51.6912 87.1544 51.692 86.4788C51.692 85.8404 51.5056 85.3392 51.1336 84.9752C50.7612 84.6116 50.1956 84.4292 49.4376 84.428H47.022V88.5052Z" fill="white"/>
<path d="M69.4012 81.9572C70.6272 82.6508 71.6396 83.6672 72.3284 84.8956C73.0428 86.1484 73.4 87.5648 73.4 89.1436C73.4244 90.634 73.0524 92.104 72.322 93.4032C71.6292 94.6356 70.6132 95.6556 69.3836 96.3532C68.1244 97.0476 66.71 97.412 65.2724 97.412C63.8344 97.412 62.42 97.0476 61.1608 96.3532C59.9312 95.6556 58.9152 94.6356 58.2224 93.4032C57.4908 92.1044 57.1176 90.6344 57.1408 89.1436C57.1408 87.5648 57.5012 86.1484 58.2224 84.8956C58.918 83.668 59.9336 82.6524 61.1608 81.9572C62.424 81.2624 63.842 80.898 65.2836 80.898C66.7252 80.898 68.1432 81.2624 69.4064 81.9572H69.4012ZM62.226 85.7568C61.4748 86.5852 61.0988 87.7128 61.0988 89.14C61.0988 90.5524 61.4748 91.676 62.226 92.5104C62.9776 93.3444 63.9908 93.762 65.266 93.7628C66.5264 93.7628 67.5364 93.3452 68.2956 92.5104C69.0548 91.6752 69.4348 90.5516 69.4356 89.14C69.4356 87.728 69.0596 86.604 68.3084 85.768C67.5568 84.9324 66.5436 84.5148 65.2684 84.5156C63.9924 84.518 62.9784 84.9332 62.226 85.7604V85.7568Z" fill="white"/>
</svg>
