<svg width="128" height="128" viewBox="0 0 128 128" fill="none" xmlns="http://www.w3.org/2000/svg">
<g clip-path="url(#clip0)">
<path d="M66.0768 0L54.268 6.81032L22.1179 25.3333L10.3088 32.1436V45.7056V82.5752V96.1372L22.1179 102.889L54.2976 121.265L66.1064 128.016L77.916 121.206L110.007 102.684L121.816 95.9024V82.3404V45.4412V31.8794L110.007 25.1278L77.8272 6.75164L66.0184 0H66.0768Z" fill="white"/>
<path d="M66.0768 27.1239L98.2568 45.5V82.3992L66.1656 100.893L33.986 82.546V45.6468L66.0768 27.1239ZM66.0768 0L54.268 6.81032L22.1179 25.3333L10.3088 32.1436V45.7056V82.5752V96.1372L22.1179 102.889L54.2976 121.265L66.1064 128.016L77.916 121.206L110.007 102.684L121.816 95.9024V82.3404V45.4412V31.8794L110.007 25.1278L77.8272 6.75164L66.0184 0H66.0768Z" fill="#375BD2"/>
</g>
<defs>
<clipPath id="clip0">
<rect width="128" height="128" fill="white"/>
</clipPath>
</defs>
</svg>
