<svg xmlns="http://www.w3.org/2000/svg" xmlns:xlink="http://www.w3.org/1999/xlink" viewBox="0 0 700.09 624.01"><defs><style>.cls-1{opacity:.16;fill:url(#radial-gradient)}.cls-2{opacity:.24;fill:url(#linear-gradient)}.cls-3{opacity:.55;fill:url(#linear-gradient-2)}.cls-4{fill:#f5333f}.cls-5{fill:#101820}.cls-6{fill:url(#radial-gradient-2)}.cls-7{opacity:.36;fill:url(#linear-gradient-3)}.cls-8{fill:url(#linear-gradient-4)}.cls-9{fill:url(#radial-gradient-4)}.cls-10{fill:url(#radial-gradient-5)}.cls-11{opacity:.44}.cls-12{fill:url(#radial-gradient-6)}.cls-13{fill:url(#radial-gradient-7)}.cls-14{fill:url(#radial-gradient-8)}.cls-15{font-size:8.77px;fill:#003889;font-family:MyriadPro-Regular,Myriad Pro}</style><radialGradient id="radial-gradient" cx="233.74" cy="625.09" r="138.86" gradientTransform="matrix(1.72 0 0 .13 -45.54 281.79)" gradientUnits="userSpaceOnUse"><stop offset="0" stop-color="#130c0e" stop-opacity=".95"/><stop offset=".37" stop-color="#130c0e" stop-opacity=".7"/><stop offset=".41" stop-color="#130c0e" stop-opacity=".65"/><stop offset="1" stop-color="#130c0e" stop-opacity="0"/></radialGradient><linearGradient id="linear-gradient" x1="-309.35" y1="-518.07" x2="-251.29" y2="-511.12" gradientTransform="matrix(-.12 -1.1 .93 -.14 910.73 -162.32)" gradientUnits="userSpaceOnUse"><stop offset="0" stop-color="#fff" stop-opacity=".5"/><stop offset="1" stop-color="#fff" stop-opacity="0"/></linearGradient><linearGradient id="linear-gradient-2" x1="-245.58" y1="-349.25" x2="-213.87" y2="-380.96" gradientTransform="rotate(-168.5 130.383 -183.857)" xlink:href="#linear-gradient"/><radialGradient id="radial-gradient-2" cx="355.15" cy="172.65" fx="526.069" fy="172.649" r="172.65" gradientUnits="userSpaceOnUse"><stop offset="0" stop-color="#fff" stop-opacity="0"/><stop offset=".83" stop-color="#bcbec0" stop-opacity=".2"/><stop offset=".97" stop-color="#bcbec0" stop-opacity=".5"/><stop offset="1" stop-color="#bcbec0" stop-opacity=".7"/></radialGradient><linearGradient id="linear-gradient-3" x1="176.55" y1="152.49" x2="221.42" y2="157.61" gradientTransform="rotate(82.95 241.988 159.962)" xlink:href="#linear-gradient"/><linearGradient id="linear-gradient-4" x1="271.98" y1="309.1" x2="303.69" y2="277.39" xlink:href="#linear-gradient"/><radialGradient id="radial-gradient-4" cx="263.16" cy="47.64" r="121.27" gradientUnits="userSpaceOnUse"><stop offset="0" stop-color="#fff" stop-opacity=".9"/><stop offset="1" stop-color="#fff" stop-opacity="0"/></radialGradient><radialGradient id="radial-gradient-5" cx="266.18" cy="49.41" r="56.94" gradientTransform="matrix(1 -.03 .01 .23 -7.08 52.03)" xlink:href="#radial-gradient-4"/><radialGradient id="radial-gradient-6" cx="171.45" cy="-117.3" r="121.27" gradientTransform="rotate(180 309.27 92.085)" gradientUnits="userSpaceOnUse"><stop offset="0" stop-color="#fff" stop-opacity=".9"/><stop offset="1" stop-color="#fff" stop-opacity="0"/></radialGradient><radialGradient id="radial-gradient-7" cx="170.83" cy="-110.95" r="56.94" gradientTransform="matrix(-1 .03 -.01 -.23 617.46 264.57)" gradientUnits="userSpaceOnUse"><stop offset="0" stop-color="#fff"/><stop offset="1" stop-color="#fff" stop-opacity="0"/></radialGradient><radialGradient id="radial-gradient-8" cx="282.94" cy="-386.14" r="56.94" gradientTransform="matrix(.03 1 -.23 .01 357.78 -212.24)" gradientUnits="userSpaceOnUse"><stop offset="0" stop-color="#fff"/><stop offset="1" stop-color="#fff" stop-opacity="0"/></radialGradient></defs><title>Asset 1</title><g id="Layer_2" data-name="Layer 2"><g id="Layer_1-2" data-name="Layer 1"><ellipse class="cls-1" cx="355.66" cy="362.88" rx="267.25" ry="18.76"/><ellipse class="cls-2" cx="464.15" cy="205.82" rx="74.61" ry="50.2" transform="rotate(-71.3 464.113 205.828)"/><path class="cls-3" d="M520.27 165.48s-3-104.41-107-148.46C337.09-15.27 287 22.57 287 22.57s144.57-7.84 145.79 125.66c1.38-.35 60.06-59.6 87.48 17.25z"/><path class="cls-4" d="M.6 413.19h73.26a89.48 89.48 0 0 1 18 1.57 27.4 27.4 0 0 1 12.24 5.59 23 23 0 0 1 6.95 11q2.21 7 2.2 17.63v8.2q0 10.31-2.34 17a22.92 22.92 0 0 1-7.25 10.64 29.11 29.11 0 0 1-12.38 5.5 87.17 87.17 0 0 1-17.73 1.57H56l72.38 50.13H90l-76.6-55.16c-9-7.08-.62-14.93 3-15.09l39.05.2 17-.15a64 64 0 0 0 9-.53 12.43 12.43 0 0 0 5.71-2.09 8.4 8.4 0 0 0 3-4.54 28.38 28.38 0 0 0 .88-7.86v-6.45a27.64 27.64 0 0 0-.88-7.69 8.5 8.5 0 0 0-2.93-4.53 12.11 12.11 0 0 0-5.71-2.1 65.71 65.71 0 0 0-9.08-.52H26.53v20.39H0z"/><path class="cls-5" d="M182.68 543.72q-12.52 0-20.86-2.37a29 29 0 0 1-13.36-7.59 29.59 29.59 0 0 1-7.09-13.67 88.2 88.2 0 0 1-2.09-20.79v-40.62a88.57 88.57 0 0 1 2.09-20.7 29.62 29.62 0 0 1 7.09-13.76 29 29 0 0 1 13.36-7.59q8.34-2.38 20.86-2.38h28v24.49h-28a32.07 32.07 0 0 0-9 1.05 12 12 0 0 0-5.59 3.32 12.23 12.23 0 0 0-2.84 6.07 50.3 50.3 0 0 0-.75 9.5v8.73h97v23h-97v9.11a51.42 51.42 0 0 0 .75 9.68 12.78 12.78 0 0 0 2.75 6.08 10.42 10.42 0 0 0 5.59 3.13 40.34 40.34 0 0 0 9.1.85h79.45v24.49zm138.7 0q-12.53 0-20.86-2.37a29 29 0 0 1-13.36-7.59 29.49 29.49 0 0 1-7.09-13.67A88.2 88.2 0 0 1 278 499.3v-85.05h25.21v83.91a42.66 42.66 0 0 0 .91 9.59 14.2 14.2 0 0 0 3.26 6.45 13.14 13.14 0 0 0 6.26 3.7 36.23 36.23 0 0 0 9.93 1.14h67.6v24.68zm125.51 0q-12.51 0-20.86-2.37a28.94 28.94 0 0 1-13.35-7.59 29.5 29.5 0 0 1-7.1-13.67 88.25 88.25 0 0 1-2.08-20.79v-40.62a88.62 88.62 0 0 1 2.08-20.7 29.54 29.54 0 0 1 7.1-13.76 28.94 28.94 0 0 1 13.32-7.59q8.34-2.38 20.86-2.38h28v24.49h-28a32.12 32.12 0 0 0-9 1.05 12 12 0 0 0-5.59 3.32 12.32 12.32 0 0 0-2.84 6.07 50.3 50.3 0 0 0-.75 9.5v8.73h97v23h-97v9.11a51.42 51.42 0 0 0 .75 9.68 12.78 12.78 0 0 0 2.75 6.08 10.41 10.41 0 0 0 5.6 3.13 40.18 40.18 0 0 0 9.09.85h79.45v24.49zm216.31 0l-46.9-49.55-46.73 49.55h-35.39l65.43-67-61.75-62.46h36.55l43.39 45.94 45.74-45.94h34.55l-61.93 62.27 63.93 67.2z"/><circle class="cls-6" cx="355.15" cy="172.65" r="172.65"/><circle class="cls-6" cx="355.15" cy="172.65" r="172.65"/><path class="cls-4" d="M264.27 67.81h115.35A140.05 140.05 0 0 1 408 70.29q11.76 2.46 19.26 8.79t11 17.32q3.46 11 3.46 27.76v12.92q0 16.23-3.69 26.81a36.09 36.09 0 0 1-11.42 16.76q-7.74 6.19-19.5 8.66a137.21 137.21 0 0 1-27.91 2.48h-27.72l114 78.93H405l-120.61-86.85c-14.21-11.15-1-23.52 4.65-23.77l61.5.31 26.77-.24a101.17 101.17 0 0 0 14.19-.82 19.76 19.76 0 0 0 9-3.3 13.2 13.2 0 0 0 4.73-7.15 44.94 44.94 0 0 0 1.38-12.37v-10.17a43.73 43.73 0 0 0-1.38-12.09 13.45 13.45 0 0 0-4.62-7.15 19.07 19.07 0 0 0-9-3.3 103.85 103.85 0 0 0-14.31-.82h-72.21v32.11h-41.77z"/><ellipse class="cls-7" cx="241.99" cy="159.96" rx="74.61" ry="50.2" transform="rotate(-82.95 241.987 159.966)"/><path class="cls-8" d="M195.18 210.8s24 101.66 134.76 123.8c81.15 16.23 122.52-30.94 122.52-30.94s-140 36.88-168.16-93.66c-1.24.65-46.75 70.53-89.12.8z"/><path class="cls-9" d="M380.06 26.11a144.34 144.34 0 0 0-57 1.71 159.57 159.57 0 0 0-28.24 9.44l-3.43 1.53c-1.14.51-2.25 1.12-3.38 1.67l-3.37 1.69c-1.12.56-2.2 1.23-3.3 1.83L278 45.83c-.56.3-1.09.64-1.62 1l-1.61 1-3.2 2-.8.5-.78.54-1.55 1.09-3.11 2.15c-.51.36-1.05.7-1.54 1.08l-1.5 1.16-3 2.3-1.5 1.15-1.4 1.2-2.88 2.43c-1 .81-1.93 1.61-2.82 2.48L248 68.48c-.9.87-1.86 1.69-2.7 2.6a156.58 156.58 0 0 0-18.94 22.79 140.62 140.62 0 0 0-21.85 52.19c.68-17.92 6.86-36.79 17.48-54a149.17 149.17 0 0 1 43.24-44.81 151.32 151.32 0 0 1 57.67-24.08c19.98-3.74 39.99-2.77 57.16 2.94z"/><ellipse class="cls-10" cx="259.35" cy="56.3" rx="56.62" ry="15.18" transform="rotate(-39.41 259.36 56.3)"/><g class="cls-11"><path class="cls-12" d="M330.2 323a144.53 144.53 0 0 0 57-1.72 159.57 159.57 0 0 0 28.24-9.44l3.43-1.53c1.14-.51 2.25-1.12 3.38-1.67l3.37-1.69c1.12-.56 2.2-1.23 3.3-1.83l3.29-1.85c.56-.3 1.09-.64 1.62-1l1.61-1 3.2-2 .8-.5.78-.54 1.55-1.09 3.11-2.14c.51-.37 1-.71 1.54-1.09l1.5-1.16 3-2.3 1.5-1.15 1.44-1.22 2.87-2.43c1-.81 1.93-1.61 2.83-2.48l2.73-2.57c.9-.87 1.86-1.69 2.71-2.6a157.15 157.15 0 0 0 19-22.76 140.62 140.62 0 0 0 21.85-52.19c-.68 17.92-6.86 36.79-17.48 54a149 149 0 0 1-43.24 44.81A151.32 151.32 0 0 1 387.41 326c-20.03 3.68-40.04 2.71-57.21-3z"/><ellipse class="cls-13" cx="447.41" cy="294.82" rx="56.62" ry="15.18" transform="rotate(-40.71 447.407 294.809)"/></g><ellipse class="cls-14" cx="455.18" cy="68.03" rx="15.18" ry="56.62" transform="rotate(-42.15 455.22 68.032)"/><text class="cls-15" transform="translate(499.2 286.41)">TM</text><path class="cls-5" d="M314.11 604.9H314a15.22 15.22 0 0 1-5.2 6 15.56 15.56 0 0 1-14.11.55 12.81 12.81 0 0 1-4.48-3.83 16.65 16.65 0 0 1-2.6-5.56 26.41 26.41 0 0 1 .06-13.52 15.85 15.85 0 0 1 2.76-5.56 13.32 13.32 0 0 1 4.65-3.7 14.79 14.79 0 0 1 6.57-1.37 14.39 14.39 0 0 1 4 .55 13.8 13.8 0 0 1 3.61 1.6 11.34 11.34 0 0 1 2.89 2.6 11.66 11.66 0 0 1 1.89 3.51h.13v-20.53h2.47v46.41h-2.47zm-12.42 5.79a11.09 11.09 0 0 0 5.49-1.3 11.77 11.77 0 0 0 3.84-3.45 15.16 15.16 0 0 0 2.27-4.91 21.32 21.32 0 0 0 .75-5.62 21.68 21.68 0 0 0-.75-5.69 16.13 16.13 0 0 0-2.24-4.94 11.05 11.05 0 0 0-3.87-3.47 11.33 11.33 0 0 0-5.55-1.3 11.8 11.8 0 0 0-5.66 1.26 11.37 11.37 0 0 0-3.87 3.42 14.25 14.25 0 0 0-2.21 4.94 24.52 24.52 0 0 0-.68 5.78 21.62 21.62 0 0 0 .75 5.69 15.26 15.26 0 0 0 2.27 4.91 11.34 11.34 0 0 0 3.87 3.41 11.63 11.63 0 0 0 5.59 1.27zm30.16-15.02v.39a19.82 19.82 0 0 0 .78 5.59 14.06 14.06 0 0 0 2.32 4.68 11 11 0 0 0 3.84 3.19 11.78 11.78 0 0 0 5.38 1.17 11.46 11.46 0 0 0 7.95-2.64 13.79 13.79 0 0 0 4-7.31h2.47a15 15 0 0 1-4.78 9q-3.68 3.12-9.71 3.12a14.72 14.72 0 0 1-6.47-1.33 13.24 13.24 0 0 1-4.62-3.64 15.62 15.62 0 0 1-2.76-5.46 24.28 24.28 0 0 1-.91-6.79 23.74 23.74 0 0 1 .94-6.73 16.91 16.91 0 0 1 2.83-5.66 14.2 14.2 0 0 1 4.71-3.9 14.4 14.4 0 0 1 6.66-1.46 14.07 14.07 0 0 1 6.21 1.3 13.06 13.06 0 0 1 4.52 3.54 15.9 15.9 0 0 1 2.76 5.2 20.78 20.78 0 0 1 .95 6.34v1.43zm24.57-2.14a20.13 20.13 0 0 0-.91-5.17 12.53 12.53 0 0 0-2.32-4.29 11.52 11.52 0 0 0-3.71-3 10.87 10.87 0 0 0-5-1.1 11.79 11.79 0 0 0-5.28 1.13 12 12 0 0 0-3.84 3 13.34 13.34 0 0 0-2.41 4.33 19.88 19.88 0 0 0-1 5.07zm27.49 18.52h-3.05l-13.46-33.41h2.86l12.09 30.55h.13l11.31-30.55h2.73zm23.53-16.38v.39a19.47 19.47 0 0 0 .79 5.59 14.23 14.23 0 0 0 2.31 4.68 11 11 0 0 0 3.85 3.19 11.73 11.73 0 0 0 5.37 1.17 11.42 11.42 0 0 0 7.95-2.64 13.72 13.72 0 0 0 4-7.31h2.47a15 15 0 0 1-4.77 9q-3.68 3.12-9.72 3.12a14.72 14.72 0 0 1-6.47-1.33 13.11 13.11 0 0 1-4.61-3.64 15.47 15.47 0 0 1-2.77-5.46 24.65 24.65 0 0 1-.91-6.79 23.74 23.74 0 0 1 .95-6.73 16.89 16.89 0 0 1 2.82-5.66 14.13 14.13 0 0 1 4.72-3.9 14.35 14.35 0 0 1 6.66-1.46 14.1 14.1 0 0 1 6.21 1.3 13.11 13.11 0 0 1 4.51 3.54 15.74 15.74 0 0 1 2.77 5.2 21.09 21.09 0 0 1 .94 6.34v.75a6.49 6.49 0 0 0 0 .68zm24.56-2.14a19.71 19.71 0 0 0-.91-5.17 12.68 12.68 0 0 0-2.31-4.29 11.45 11.45 0 0 0-3.72-3 10.8 10.8 0 0 0-5-1.1 11.79 11.79 0 0 0-5.28 1.13 12.13 12.13 0 0 0-3.85 3 13.53 13.53 0 0 0-2.41 4.33 20.31 20.31 0 0 0-1 5.07zm17.82-27.89v46.41h-2.47v-46.41zm12.81 29.71a21.7 21.7 0 0 1 1-6.73 16.84 16.84 0 0 1 2.95-5.56 14.12 14.12 0 0 1 4.81-3.8 16.09 16.09 0 0 1 13.13 0 14 14 0 0 1 4.81 3.8 16.86 16.86 0 0 1 3 5.56 22 22 0 0 1 1 6.73 22.39 22.39 0 0 1-1 6.76 16.43 16.43 0 0 1-3 5.55 14.07 14.07 0 0 1-4.81 3.77 16.09 16.09 0 0 1-13.13 0 14.16 14.16 0 0 1-4.81-3.77 16.41 16.41 0 0 1-2.95-5.55 22.08 22.08 0 0 1-1-6.76zm2.47 0a19.65 19.65 0 0 0 .84 5.75 15.85 15.85 0 0 0 2.47 4.91 12.17 12.17 0 0 0 4 3.41 12.65 12.65 0 0 0 11.05 0 12 12 0 0 0 4-3.41 15.43 15.43 0 0 0 2.54-4.91 19.91 19.91 0 0 0 0-11.51 15.38 15.38 0 0 0-2.47-4.9 12 12 0 0 0-4-3.42 12.74 12.74 0 0 0-11.05 0 12.2 12.2 0 0 0-4 3.42 15.8 15.8 0 0 0-2.47 4.9 19.72 19.72 0 0 0-.91 5.76zm43.48-9.04h.2a12.74 12.74 0 0 1 1.3-2.73 11 11 0 0 1 2.4-2.76 12.88 12.88 0 0 1 8.45-3 14.67 14.67 0 0 1 6.67 1.43 13.38 13.38 0 0 1 4.67 3.84 16.36 16.36 0 0 1 2.77 5.59 24.46 24.46 0 0 1 .91 6.69 25.72 25.72 0 0 1-.91 7 15.52 15.52 0 0 1-2.77 5.49 12.8 12.8 0 0 1-4.7 3.61 15.78 15.78 0 0 1-6.67 1.3 15 15 0 0 1-7.43-1.82 10.62 10.62 0 0 1-4.76-5.91h-.13V624h-2.4v-45.36h2.4zm12.32 24.38a12.16 12.16 0 0 0 5.64-1.24 11.23 11.23 0 0 0 3.91-3.31 14.48 14.48 0 0 0 2.28-4.85 22.86 22.86 0 0 0 0-11.5 15.53 15.53 0 0 0-2.22-4.94 11.37 11.37 0 0 0-3.87-3.51 11.64 11.64 0 0 0-5.74-1.34 11.48 11.48 0 0 0-5.67 1.3 10.88 10.88 0 0 0-3.81 3.44 14.4 14.4 0 0 0-2.12 4.91 24.66 24.66 0 0 0-.65 5.75 27.69 27.69 0 0 0 .58 5.75 14 14 0 0 0 2 4.88 10.23 10.23 0 0 0 3.78 3.38 12.5 12.5 0 0 0 5.89 1.28zm27.4-32.05h2.47v6.83h.13a8.91 8.91 0 0 1 1.36-3 10.39 10.39 0 0 1 2.38-2.44 11.36 11.36 0 0 1 3.11-1.62 11.15 11.15 0 0 1 3.61-.59 12.57 12.57 0 0 1 4.16.62 9.81 9.81 0 0 1 3 1.62 8.2 8.2 0 0 1 2 2.28 8.72 8.72 0 0 1 1 2.57h.13a12.15 12.15 0 0 1 4-5.3 11.14 11.14 0 0 1 6.6-1.79 12.48 12.48 0 0 1 4.19.68 8.87 8.87 0 0 1 3.32 2.08 9.65 9.65 0 0 1 2.18 3.55 14.84 14.84 0 0 1 .78 5.07v22.81h-2.47v-22.84a10.67 10.67 0 0 0-1-5 7.79 7.79 0 0 0-2.31-2.77 6.69 6.69 0 0 0-2.66-1.17 13.15 13.15 0 0 0-2.05-.22 11 11 0 0 0-4.19.78 9 9 0 0 0-3.32 2.34 11 11 0 0 0-2.17 3.86 16.56 16.56 0 0 0-.78 5.3v19.76h-2.47v-22.88a11 11 0 0 0-1-5 7.26 7.26 0 0 0-2.21-2.76 6.5 6.5 0 0 0-2.6-1.17 11 11 0 0 0-2.11-.26 10.37 10.37 0 0 0-7.08 2.92 11.24 11.24 0 0 0-2.54 3.84 14.29 14.29 0 0 0-1 5.52v19.76h-2.46zm59.08 17.03v.39a19.82 19.82 0 0 0 .78 5.59 14.25 14.25 0 0 0 2.32 4.68 11 11 0 0 0 3.84 3.19 11.78 11.78 0 0 0 5.38 1.17 11.46 11.46 0 0 0 7.95-2.64 13.79 13.79 0 0 0 4-7.31h2.47a15 15 0 0 1-4.78 9q-3.68 3.12-9.71 3.12a14.72 14.72 0 0 1-6.47-1.33 13.24 13.24 0 0 1-4.62-3.64 15.62 15.62 0 0 1-2.76-5.46 24.28 24.28 0 0 1-.91-6.79 23.74 23.74 0 0 1 .94-6.73 16.91 16.91 0 0 1 2.83-5.66 14.2 14.2 0 0 1 4.71-3.9 14.42 14.42 0 0 1 6.67-1.46 14 14 0 0 1 6.2 1.3 13.06 13.06 0 0 1 4.52 3.54 15.71 15.71 0 0 1 2.76 5.2 20.78 20.78 0 0 1 1 6.34v1.43zm24.62-2.14a20.13 20.13 0 0 0-.91-5.17 12.68 12.68 0 0 0-2.31-4.29 11.56 11.56 0 0 0-3.72-3 10.87 10.87 0 0 0-5-1.1 11.78 11.78 0 0 0-5.27 1.13 11.91 11.91 0 0 0-3.85 3 13.34 13.34 0 0 0-2.41 4.33 20.31 20.31 0 0 0-1 5.07zm14.71-14.89h2.47v7.15h.13a10.71 10.71 0 0 1 1.85-3.35 12.27 12.27 0 0 1 6.27-4.06 14.28 14.28 0 0 1 3.84-.52 15.08 15.08 0 0 1 5 .72 9.71 9.71 0 0 1 3.35 1.88 9.28 9.28 0 0 1 2 2.63 12.31 12.31 0 0 1 1.08 3 19 19 0 0 1 .39 2.89c0 .94.06 1.75.06 2.44v20.67h-2.47v-21.16a30.94 30.94 0 0 0-.19-3.12 9.46 9.46 0 0 0-1.14-3.61 8.22 8.22 0 0 0-2.86-3 9.78 9.78 0 0 0-5.3-1.23 11.66 11.66 0 0 0-5.07 1 10.91 10.91 0 0 0-3.77 2.89 12.68 12.68 0 0 0-2.37 4.42 18.57 18.57 0 0 0-.81 5.62v18.07h-2.47zm52.51 2.15h-7.28v23.33a9.13 9.13 0 0 0 .46 3.19 3.59 3.59 0 0 0 1.4 1.78 4.89 4.89 0 0 0 2.27.75 23.28 23.28 0 0 0 3.09.07v2.14a22.42 22.42 0 0 1-3.67 0 7.3 7.3 0 0 1-3.15-1 5.7 5.7 0 0 1-2.18-2.43 9.34 9.34 0 0 1-.69-4.49v-23.34h-6.17v-2.15h6.17v-10.4h2.47v10.4h7.28z"/></g></g></svg>