<svg data-name="Layer 1" xmlns="http://www.w3.org/2000/svg" viewBox="0 0 348 348" width="2500" height="2500"><title>rmc</title><path d="M155 101v68h32c18.78 0 36-14.22 36-33s-17.22-35-36-35z" fill="#01d8f5"/><path d="M174 0A174 174 0 0 0 19.45 94H53v64H.74C.26 163.27 0 168.6 0 174a174.9 174.9 0 0 0 4.17 38H32v42H19.45A174 174 0 1 0 174 0zm42 282l-62-99v99h-49V65h103.68a59.39 59.39 0 0 1 29.38 7.49c24.43 13.89 30.93 40.59 32.54 56.86a67.06 67.06 0 0 1-4.85 33.23C250.93 197.05 213 198 213 198l60 84z" fill="#02d8f3"/></svg>