<svg xmlns="http://www.w3.org/2000/svg" viewBox="0 0 149.064 24.923">
  <defs>
    <style>
      .cls-1 {
        fill: #fff;
      }

      .cls-2 {
        fill: #15d1ea;
      }
    </style>
  </defs>
  <g id="组_6123" data-name="组 6123" transform="translate(-94 -129.5)">
    <g id="组_6122" data-name="组 6122">
      <path id="路径_17411" data-name="路径 17411" class="cls-1" d="M99.179,22.24c-.027-4.791,0-8.591,0-8.591,0-2.627,2.607-8.19,9.53-8.19s9.53,5.47,9.53,8.19V22.24c0,3.342-2.561,8.143-9.53,8.143S99.2,25.335,99.179,22.24Zm6.1-8.591V22.24a3.248,3.248,0,0,0,3.433,2.969,3.31,3.31,0,0,0,3.433-2.969V13.649a3.164,3.164,0,0,0-3.433-2.911A3.3,3.3,0,0,0,105.276,13.649Z" transform="translate(-5.167 124.041)"/>
      <path id="路径_17412" data-name="路径 17412" class="cls-1" d="M99.179,22.24c-.027-4.791,0-8.591,0-8.591,0-2.627,2.607-8.19,9.53-8.19s9.53,5.47,9.53,8.19V22.24c0,3.342-2.561,8.143-9.53,8.143S99.2,25.335,99.179,22.24Zm6.1-8.591V22.24a3.248,3.248,0,0,0,3.433,2.969,3.31,3.31,0,0,0,3.433-2.969V13.649a3.164,3.164,0,0,0-3.433-2.911A3.3,3.3,0,0,0,105.276,13.649Z" transform="translate(84.249 124.041)"/>
      <path id="路径_17413" data-name="路径 17413" class="cls-1" d="M99.179,22.24c-.027-4.791,0-8.591,0-8.591,0-2.627,2.607-8.19,9.53-8.19s9.53,5.47,9.53,8.19V22.24c0,3.342-2.561,8.143-9.53,8.143S99.2,25.335,99.179,22.24Zm6.1-8.591V22.24a3.248,3.248,0,0,0,3.433,2.969,3.31,3.31,0,0,0,3.433-2.969V13.649a3.164,3.164,0,0,0-3.433-2.911A3.3,3.3,0,0,0,105.276,13.649Z" transform="translate(105.783 124.041)"/>
      <path id="路径_17414" data-name="路径 17414" class="cls-1" d="M532.354,7H527.4a7.355,7.355,0,0,0-1.444-3.327A5.287,5.287,0,0,0,522.933,1.2h21.883V7h-6.41V25.391h-6.051Z" transform="translate(-301.751 128.667)"/>
      <path id="brad-barmore-333929-unsplash" class="cls-1" d="M101.9,1.2h3.157a2,2,0,0,1,1.6.972c.817,1.192,5.806,9.981,6.178,10.5s1.122.64,1.123-.441c0-.954,0-9.611,0-9.611A1.378,1.378,0,0,1,115.328,1.2h4.686V23.951s.066,1.436-1.222,1.436h-3.464c-.783,0-1.694-1.436-1.694-1.436s-5.551-9.139-6.076-9.884-1.112-.388-1.112.407c-.008,1.27,0,6.824,0,9.477a1.541,1.541,0,0,1-1.266,1.436h-4.563V2.626S100.615,1.2,101.9,1.2Z" transform="translate(15.505 128.669)"/>
      <path id="路径_17415" data-name="路径 17415" class="cls-2" d="M-6,0H12.326V5.463H-6Z" transform="translate(145.27 139.185)"/>
      <path id="路径_17416" data-name="路径 17416" class="cls-2" d="M-6,0H10.139V3.684l2.082,1.779H-6Z" transform="translate(145.27 129.872)"/>
      <path id="路径_17417" data-name="路径 17417" class="cls-2" d="M-6,0H12.426V4.194l-1.012,1.27H-6Z" transform="translate(145.27 148.621)"/>
      <path id="路径_17418" data-name="路径 17418" class="cls-1" d="M7.769,11.324C9.032,11.3,9.7,9.606,9.683,8.274c-.007-.638-.22-2.8-1.984-2.8,0,0-3.311,0-4.444,0S2.1,6.7,2.1,6.7V22.783A1.316,1.316,0,0,1,1,24.206H-4.7l1-1.423V5.47l-2.25-1.961V0H7.749c3.207,0,7.763,2.175,7.763,8.507,0,3.976-1.679,6.257-4.074,7.45-.018.011-.419.164-.147.7l5.535,6.126v1.423H11.291s-.584-.772-5.278-6.827a1.854,1.854,0,0,0-1.526-.958H3.856V11.837a.5.5,0,0,1,.489-.513C4.836,11.316,6.643,11.324,7.769,11.324Z" transform="translate(165.589 129.867)"/>
    </g>
  </g>
</svg>
