<?xml version="1.0" encoding="UTF-8"?>
<svg width="150px" height="24px" viewBox="0 0 150 24" version="1.1" xmlns="http://www.w3.org/2000/svg" xmlns:xlink="http://www.w3.org/1999/xlink">
    <!-- Generator: Sketch 51.2 (57519) - http://www.bohemiancoding.com/sketch -->
    <title>Group 2</title>
    <desc>Created with Sketch.</desc>
    <defs></defs>
    <g id="Symbols" stroke="none" stroke-width="1" fill="none" fill-rule="evenodd">
        <g id="RocketDAO-Blue-Copy" transform="translate(-1.000000, -3.000000)">
            <g id="Group-2" transform="translate(1.000000, 1.000000)">
                <g id="Group" transform="translate(0.000000, 6.000000)">
                    <g id="Page-1" transform="translate(82.000000, 0.000000)">
                        <path d="M12.9411765,5.20312097 C12.9411765,4.27749719 12.183466,3.47826087 11.2160516,3.47826087 C10.2902858,3.47826087 9.49019608,4.23512451 9.49019608,5.20312097 C9.49019608,5.9183425 9.95344435,6.54954924 10.6263965,6.80232417 C9.99509285,7.05436853 9.49019608,7.68557527 9.49019608,8.4007968 C9.49019608,9.15839101 9.95344435,9.74722508 10.6263965,10 C9.95344435,10.2520444 9.49019608,10.841609 9.49019608,11.5984726 C9.49019608,12.3560668 9.95344435,12.9449009 10.6263965,13.1976758 C9.95344435,13.4497202 9.49019608,14.0392848 9.49019608,14.796879 C9.49019608,15.7225028 10.2479066,16.5217391 11.2160516,16.5217391 C12.1418175,16.5217391 12.9411765,15.7641449 12.9411765,14.796879 C12.9411765,14.0392848 12.4779282,13.4497202 11.8049761,13.1976758 C12.4779282,12.9449009 12.9411765,12.3560668 12.9411765,11.5984726 C12.9411765,10.841609 12.4779282,10.2520444 11.8049761,10 C12.4779282,9.74722508 12.9411765,9.15839101 12.9411765,8.4007968 C12.9411765,7.68557527 12.4779282,7.05436853 11.8049761,6.80232417 C12.4779282,6.54954924 12.9411765,5.9183425 12.9411765,5.20312097" id="Fill-16" fill="#000000"></path>
                        <path d="M28.4705882,5.23291995 C28.4705882,4.29130493 27.7237465,3.47826087 26.7702088,3.47826087 C25.8577223,3.47826087 25.0691092,4.24820022 25.0691092,5.23291995 C25.0691092,5.96049778 25.5257126,6.60260936 26.1890118,6.85975127 C25.5667637,7.11614999 25.0691092,7.75826157 25.0691092,8.4858394 C25.0691092,9.25652193 25.5257126,9.85552881 26.1890118,10.1126707 C25.7331286,10.2836032 25.3593476,10.6685729 25.1519316,11.1828567 C24.9034645,10.4976404 24.3229876,10.0272045 23.5761458,10.0272045 C22.8710753,10.0272045 22.2488272,10.4976404 21.9996399,11.1828567 C21.7511728,10.5407451 21.1289247,10.0272045 20.4238542,10.0272045 C19.6770124,10.0272045 19.0965355,10.4976404 18.8473482,11.1828567 C18.6817035,10.7116776 18.3079225,10.3267079 17.810268,10.1126707 C18.4742874,9.85552881 18.9301706,9.25652193 18.9301706,8.4858394 C18.9301706,7.75826157 18.4742874,7.11614999 17.810268,6.85975127 C18.4325161,6.60260936 18.9301706,5.96049778 18.9301706,5.23291995 C18.9301706,4.29130493 18.184049,3.47826087 17.2297912,3.47826087 C16.3173046,3.47826087 15.5294118,4.24820022 15.5294118,5.23291995 C15.5294118,5.96049778 15.9852949,6.60260936 16.6493143,6.85975127 C16.0270662,7.11614999 15.5294118,7.75826157 15.5294118,8.4858394 C15.5294118,9.25652193 15.9852949,9.85552881 16.6493143,10.1126707 C15.9852949,10.3690694 15.5294118,10.9688195 15.5294118,11.7387588 C15.5294118,12.5094414 15.9852949,13.1084482 16.6493143,13.3655902 C15.9852949,13.6219889 15.5294118,14.2217389 15.5294118,14.9924215 C15.5294118,15.7199993 15.9852949,16.3621109 16.6493143,16.6185096 C16.0270662,16.8756515 15.5294118,17.5177631 15.5294118,18.2453409 C15.5294118,19.1869559 16.2755334,20 17.2297912,20 C18.1422777,20 18.9301706,19.2293175 18.9301706,18.2453409 C18.9301706,17.5177631 18.4742874,16.8756515 17.810268,16.6185096 C18.4325161,16.3621109 18.9301706,15.7199993 18.9301706,14.9924215 C18.9301706,14.2217389 18.4742874,13.6219889 17.810268,13.3655902 C18.2668714,13.1946577 18.6399322,12.8089448 18.8473482,12.2954042 C19.0965355,12.9806205 19.6770124,13.4510564 20.4238542,13.4510564 C21.1289247,13.4510564 21.7511728,12.9806205 21.9996399,12.2954042 C22.2488272,12.9375158 22.8710753,13.4510564 23.5761458,13.4510564 C24.3229876,13.4510564 24.9034645,12.9806205 25.1519316,12.2954042 C25.3182965,12.7665833 25.6913573,13.151553 26.1890118,13.3655902 C25.5257126,13.6219889 25.0691092,14.2217389 25.0691092,14.9924215 C25.0691092,15.7199993 25.5257126,16.3621109 26.1890118,16.6185096 C25.5667637,16.8756515 25.0691092,17.5177631 25.0691092,18.2453409 C25.0691092,19.1869559 25.815951,20 26.7702088,20 C27.6826954,20 28.4705882,19.2293175 28.4705882,18.2453409 C28.4705882,17.5177631 28.0139849,16.8756515 27.3506857,16.6185096 C27.9729338,16.3621109 28.4705882,15.7199993 28.4705882,14.9924215 C28.4705882,14.2217389 28.0139849,13.6219889 27.3506857,13.3655902 C28.0139849,13.1084482 28.4705882,12.5094414 28.4705882,11.7387588 C28.4705882,10.9688195 28.0139849,10.3690694 27.3506857,10.1126707 C28.0139849,9.85552881 28.4705882,9.25652193 28.4705882,8.4858394 C28.4705882,7.75826157 28.0139849,7.11614999 27.3506857,6.85975127 C27.9729338,6.60260936 28.4705882,5.96049778 28.4705882,5.23291995" id="Fill-21" fill="#000000"></path>
                        <path d="M33.3736035,13.1976758 C34.0472863,12.9449009 34.5098039,12.3560668 34.5098039,11.5984726 C34.5098039,10.841609 34.0472863,10.2520444 33.3736035,10 C34.0472863,9.74722508 34.5098039,9.15839101 34.5098039,8.4007968 C34.5098039,7.68557527 34.0472863,7.05436853 33.3736035,6.80232417 C34.0049072,6.54954924 34.5098039,5.9183425 34.5098039,5.20312097 C34.5098039,4.27749719 33.7520934,3.47826087 32.7846791,3.47826087 C31.8589132,3.47826087 31.0588235,4.23512451 31.0588235,5.20312097 C31.0588235,5.9183425 31.5220718,6.54954924 32.1950239,6.80232417 C31.5637203,7.05436853 31.0588235,7.68557527 31.0588235,8.4007968 C31.0588235,9.15839101 31.5220718,9.74722508 32.1950239,10 C31.5220718,10.2520444 31.0588235,10.841609 31.0588235,11.5984726 C31.0588235,12.3560668 31.5220718,12.9449009 32.1950239,13.1976758 C31.5220718,13.4504508 31.0588235,14.0392848 31.0588235,14.796879 C31.0588235,15.7225028 31.816534,16.5217391 32.7846791,16.5217391 C33.7104449,16.5217391 34.5098039,15.7641449 34.5098039,14.796879 C34.5098039,14.0809269 34.0472863,13.4504508 33.3736035,13.1976758" id="Fill-23" fill="#000000"></path>
                        <path d="M7.82763372,16.4500733 C7.09740196,16.4500733 6.52983514,16.9266038 6.28618983,17.6188508 C6.0432487,16.9266038 5.47568188,16.4500733 4.74545013,16.4500733 C4.05606065,16.4500733 3.44765155,16.9266038 3.20400624,17.6188508 C3.04204549,17.1430719 2.6772817,16.7529783 2.23083336,16.5801045 C2.83924246,16.3200421 3.3258289,15.6706378 3.3258289,14.9347965 C3.3258289,14.155361 2.87938056,13.5495509 2.23083336,13.2902401 C2.88008473,13.0301778 3.3258289,12.4243677 3.3258289,11.6449322 C3.3258289,10.8654966 2.87938056,10.2596866 2.23083336,9.99962419 C2.88008473,9.74031343 3.3258289,9.13450336 3.3258289,8.35506783 C3.3258289,7.61922658 2.87938056,6.96982224 2.23083336,6.70975986 C2.83924246,6.4504491 3.3258289,5.80104476 3.3258289,5.0652035 C3.3258289,4.28576797 2.87938056,3.67995791 2.23083336,3.41989552 C2.6772817,3.24702168 3.04204549,2.85692811 3.20400624,2.38114924 C3.44765155,3.03055357 4.05606065,3.54992672 4.74545013,3.54992672 C5.47568188,3.54992672 6.0432487,3.07339622 6.28618983,2.38114924 C6.52983514,3.07339622 7.09740196,3.54992672 7.82763372,3.54992672 C8.71982623,3.54992672 9.49019608,2.77049119 9.49019608,1.77458755 C9.49019608,0.779435529 8.7606685,0 7.82763372,0 C7.09740196,0 6.52983514,0.476530497 6.28618983,1.16877748 C6.0432487,0.476530497 5.47568188,0 4.74545013,0 C4.05606065,0 3.44765155,0.476530497 3.20400624,1.16877748 C2.96106511,0.519373144 2.35265601,0 1.66326654,0 C0.77107403,0 0,0.779435529 0,1.77458755 C0,2.55402307 0.446448343,3.15983314 1.09499554,3.41989552 C0.446448343,3.67995791 0,4.28576797 0,5.0652035 C0,5.80104476 0.446448343,6.4504491 1.09499554,6.70975986 C0.486586443,6.96982224 0,7.61922658 0,8.35506783 C0,9.13450336 0.446448343,9.74031343 1.09499554,9.99962419 C0.446448343,10.2596866 0,10.8654966 0,11.6449322 C0,12.4243677 0.446448343,13.0301778 1.09499554,13.2902401 C0.446448343,13.5495509 0,14.155361 0,14.9347965 C0,15.6706378 0.446448343,16.3200421 1.09499554,16.5801045 C0.486586443,16.8394152 0,17.4888196 0,18.2246608 C0,19.1769702 0.730231753,20 1.66326654,20 C2.35265601,20 2.96106511,19.5234695 3.20400624,18.8312225 C3.44765155,19.4806269 4.05606065,20 4.74545013,20 C5.47568188,20 6.0432487,19.5234695 6.28618983,18.8312225 C6.52983514,19.5234695 7.09740196,20 7.82763372,20 C8.71982623,20 9.49019608,19.2205645 9.49019608,18.2246608 C9.49019608,17.2295088 8.7606685,16.4500733 7.82763372,16.4500733" id="Fill-13" fill="#000000"></path>
                        <path d="M20.7711097,3.47826087 C21.5136393,3.47826087 22.1689463,3.01135056 22.4313725,2.33307864 C22.6930403,2.96937282 23.3483473,3.47826087 24.090877,3.47826087 C25.0518423,3.47826087 25.8823529,2.71456057 25.8823529,1.73949866 C25.8823529,0.763700301 25.0958328,0 24.090877,0 C23.3483473,0 22.6930403,0.466910309 22.4313725,1.14518223 C22.1689463,0.50888805 21.5136393,0 20.7711097,0 C19.8101444,0 18.9803922,0.763700301 18.9803922,1.73949866 C18.9803922,2.71456057 19.7661538,3.47826087 20.7711097,3.47826087" id="Fill-18" fill="#000000"></path>
                        <path d="M35.4377763,3.47826087 C36.2242965,3.47826087 36.835613,3.01135056 37.0980392,2.33307864 C37.359707,3.01135056 37.9710235,3.47826087 38.7575436,3.47826087 C39.7185089,3.47826087 40.5490196,2.71456057 40.5490196,1.73949866 C40.5490196,0.763700301 39.7624995,0 38.7575436,0 C37.9710235,0 37.359707,0.466910309 37.0980392,1.14518223 C36.835613,0.466910309 36.2242965,0 35.4377763,0 C34.476811,0 33.6470588,0.763700301 33.6470588,1.73949866 C33.6470588,2.71456057 34.4328205,3.47826087 35.4377763,3.47826087" id="Fill-25" fill="#000000"></path>
                        <path d="M38.7583021,16.5217391 C37.9717819,16.5217391 37.3604654,16.9886494 37.0980392,17.6669214 C36.8363715,16.9886494 36.2250549,16.5217391 35.4385348,16.5217391 C34.4775695,16.5217391 33.6470588,17.2854394 33.6470588,18.2605013 C33.6470588,19.1935855 34.433579,20 35.4385348,20 C36.2250549,20 36.8363715,19.5330897 37.0980392,18.8548178 C37.3604654,19.5330897 37.9717819,20 38.7583021,20 C39.7192674,20 40.5490196,19.2362997 40.5490196,18.2605013 C40.5057875,17.2854394 39.7192674,16.5217391 38.7583021,16.5217391" id="Fill-28" fill="#000000"></path>
                        <path d="M44,8.40125163 C44,7.68607015 43.5367517,7.05489876 42.8637996,6.802138 C43.4951032,6.55010775 44,5.91893636 44,5.20375489 C44,4.27818295 43.2422895,3.47826087 42.2748751,3.47826087 C41.3491093,3.47826087 40.5490196,4.23581265 40.5490196,5.20375489 C40.5490196,5.91893636 41.0122679,6.55010775 41.68522,6.802138 C41.0539164,7.05489876 40.5490196,7.68607015 40.5490196,8.40125163 C40.5490196,9.1588034 41.0122679,9.7476045 41.68522,10.0003653 C41.0122679,10.2523955 40.5490196,10.8411966 40.5490196,11.5987484 C40.5490196,12.3563001 41.0122679,12.9451012 41.68522,13.197862 C41.0122679,13.4498922 40.5490196,14.0394239 40.5490196,14.7962451 C40.5490196,15.7218171 41.3067301,16.5217391 42.2748751,16.5217391 C43.200641,16.5217391 44,15.7641874 44,14.7962451 C44,14.0394239 43.5367517,13.4498922 42.8637996,13.197862 C43.5367517,12.9451012 44,12.3563001 44,11.5987484 C44,10.8411966 43.5367517,10.2523955 42.8637996,10.0003653 C43.5367517,9.7476045 44,9.1588034 44,8.40125163" id="Fill-31" fill="#000000"></path>
                        <g id="Fill-13-+-Clip-19-+-Fill-18-+-Clip-26-+-Fill-25-+-Clip-29-+-Fill-28-+-Clip-32-+-Fill-31-Mask" transform="translate(40.549020, 2.608696)"></g>
                    </g>
                    <g id="Page-1" fill="#000000">
                        <path d="M2.47994651,8.50956522 L2.47994651,2.59478261 L5.20762093,2.59478261 C7.01803953,2.59478261 8.15901628,3.32173913 8.15901628,5.30173913 L8.15901628,5.55217391 C8.15901628,7.6573913 7.01803953,8.50956522 5.20762093,8.50956522 L2.47994651,8.50956522 Z M10.6380163,5.8026087 L10.6380163,5.05043478 C10.6380163,1.94347826 8.45587674,0.289565217 5.45543488,0.289565217 L8.60465116e-05,0.289565217 L8.60465116e-05,19.0843478 L2.47994651,19.0843478 L2.47994651,9.88695652 L8.23387674,19.0843478 L11.2085047,19.0843478 L5.7041093,10.5895652 C8.45587674,10.4391304 10.6380163,8.90956522 10.6380163,5.8026087 Z" id="Fill-1"></path>
                        <path d="M18.1591698,17.0293043 C16.0011233,17.0293043 14.3653791,15.3510435 14.3653791,12.8197391 C14.3653791,10.2893043 16.0011233,8.60930435 18.1591698,8.60930435 C20.3172163,8.60930435 21.9538209,10.2893043 21.9538209,12.8197391 C21.9538209,15.3510435 20.3172163,17.0293043 18.1591698,17.0293043 M18.1591698,6.30408696 C14.563286,6.30408696 11.8855186,8.98582609 11.8855186,12.8197391 C11.8855186,16.6536522 14.563286,19.3345217 18.1591698,19.3345217 C21.7550535,19.3345217 24.4328209,16.6536522 24.4328209,12.8197391 C24.4328209,8.98582609 21.7550535,6.30408696 18.1591698,6.30408696" id="Fill-3"></path>
                        <path d="M32.2772512,17.0290435 C30.1691116,17.0290435 28.582414,15.3507826 28.582414,12.8194783 C28.582414,10.2890435 30.1691116,8.60904348 32.2772512,8.60904348 C34.0627163,8.60904348 35.5745535,9.63686957 35.8232279,11.5412174 L38.4020419,11.5412174 C38.1043209,8.40904348 35.5504605,6.30382609 32.2772512,6.30382609 C28.7312744,6.30382609 26.1025535,8.98556522 26.1025535,12.8194783 C26.1025535,16.6533913 28.7312744,19.3351304 32.2772512,19.3351304 C35.649414,19.3351304 38.2531814,17.129913 38.4510884,13.8212174 L35.8731349,13.8212174 C35.6244605,15.902087 34.0876698,17.0290435 32.2772512,17.0290435" id="Fill-5"></path>
                        <polygon id="Fill-7" points="51.981386 6.55417391 48.6832233 6.55417391 43.3517814 12.1176522 43.3517814 0.289826087 40.8719209 0.289826087 40.8719209 19.0846087 43.3517814 19.0846087 43.3517814 12.4933043 49.2786651 19.0846087 52.4279674 19.0846087 46.1534558 12.268087"></polygon>
                        <path d="M54.9765791,11.8672174 C55.2734395,9.762 56.6131837,8.50982609 58.6223698,8.50982609 C60.6057419,8.50982609 61.9687186,9.762 62.2673,11.8672174 L54.9765791,11.8672174 Z M58.6223698,6.30373913 C55.100486,6.30373913 52.5216721,8.98547826 52.5216721,12.8193913 C52.5216721,16.6533043 55.100486,19.3350435 58.6223698,19.3350435 C61.4739512,19.3350435 63.6311372,17.9063478 64.3995326,15.3254783 L61.7217651,15.3254783 C61.2252767,16.4533043 60.2340209,17.1298261 58.7204628,17.1298261 C56.6372767,17.1298261 55.2493465,15.8515652 54.9516256,13.6715652 L64.6723,13.6715652 C64.6972535,13.395913 64.722207,13.1202609 64.722207,12.8193913 C64.722207,8.98547826 62.1425326,6.30373913 58.6223698,6.30373913 Z" id="Fill-9"></path>
                        <path d="M70.2022512,2.84565217 L67.7223907,2.84565217 L67.7223907,6.55434783 L65.6891116,6.55434783 L65.6891116,8.75956522 L67.7223907,8.75956522 L67.7223907,14.9491304 C67.7223907,18.3578261 69.4588093,19.3352174 71.8388558,19.3352174 C72.5582047,19.3352174 73.3266,19.1847826 73.7731814,19.0343478 L73.7731814,16.803913 C73.3515535,16.9543478 72.8559256,17.0291304 72.3103907,17.0291304 C70.871693,17.0291304 70.2022512,16.3526087 70.2022512,14.7986957 L70.2022512,8.75956522 L73.7731814,8.75956522 L73.7731814,6.55434783 L70.2022512,6.55434783 L70.2022512,2.84565217 Z" id="Fill-11"></path>
                    </g>
                </g>
                <path d="M136.6395,6.75 C136.6395,8.127 135.7125,9.09 134.4795,9.09 C133.8045,9.09 133.2375,8.748 132.8775,8.19 L132.8775,9 L132.1575,9 L132.1575,2.25 L132.8775,2.25 L132.8775,5.31 C133.2375,4.752 133.8045,4.41 134.4795,4.41 C135.7125,4.41 136.6395,5.373 136.6395,6.75 Z M134.3985,5.067 C133.5345,5.067 132.8775,5.742 132.8775,6.75 C132.8775,7.758 133.5345,8.433 134.3985,8.433 C135.2625,8.433 135.9195,7.758 135.9195,6.75 C135.9195,5.742 135.2625,5.067 134.3985,5.067 Z M141.7335,6.75 C141.7335,6.84 141.7245,6.912 141.7245,7.002 L138.0435,7.002 C138.1425,7.902 138.7275,8.46 139.5645,8.46 C140.1855,8.46 140.6355,8.154 140.8335,7.65 L141.6165,7.65 C141.3285,8.559 140.5545,9.09 139.5375,9.09 C138.2685,9.09 137.3415,8.127 137.3415,6.75 C137.3415,5.373 138.2685,4.41 139.5375,4.41 C140.8065,4.41 141.7335,5.373 141.7335,6.75 Z M139.5375,5.04 C138.7185,5.04 138.1515,5.58 138.0525,6.471 L141.0225,6.471 C140.9235,5.58 140.3565,5.04 139.5375,5.04 Z M143.7405,7.461 C143.7405,8.127 144.0195,8.433 144.6045,8.433 C144.8385,8.433 145.0095,8.388 145.1625,8.343 L145.1625,8.982 C145.0005,9.036 144.7215,9.09 144.4695,9.09 C143.6325,9.09 143.0205,8.73 143.0205,7.506 L143.0205,5.13 L142.2645,5.13 L142.2645,4.5 L143.0205,4.5 L143.0205,3.186 L143.7405,3.186 L143.7405,4.5 L145.1625,4.5 L145.1625,5.13 L143.7405,5.13 L143.7405,7.461 Z M149.2035,9 L149.2035,8.172 C148.8975,8.811 148.2765,9.09 147.6015,9.09 C146.7735,9.09 146.0535,8.694 146.0535,7.83 C146.0535,5.868 149.1945,6.957 149.1945,5.805 C149.1945,5.274 148.7175,4.986 148.0785,4.986 C147.4125,4.986 146.9265,5.328 146.9265,5.994 L146.1885,5.994 C146.1885,4.851 147.1065,4.41 148.0785,4.41 C149.0325,4.41 149.9145,4.806 149.9145,5.832 L149.9145,9 L149.2035,9 Z M146.7915,7.785 C146.7915,8.253 147.1785,8.487 147.7365,8.487 C148.4925,8.487 149.2035,8.019 149.2035,7.146 L149.2035,6.714 C148.4205,7.155 146.7915,6.84 146.7915,7.785 Z" id="beta" fill="#000000"></path>
            </g>
        </g>
    </g>
</svg>
