<svg xmlns="http://www.w3.org/2000/svg" xmlns:xlink="http://www.w3.org/1999/xlink" width="45" height="40" viewBox="0 0 45 40"><g fill="#FFF" fill-rule="evenodd"><g transform="translate(0 -17)"><use filter="url(#a)" xlink:href="#b"/><use xlink:href="#b"/></g><path d="M16.917 12.226l1.74-1.028V1.029L16.917 0l-1.741 1.029v10.169zm-1.741 6.624v.703l1.74 1.02 1.741-1.02V29.76l7.458 4.394 2.977 1.75 10.436-6.144V17.415l-5.205-3.068-1.405-.83V9.438L43 15.385v16.404L29.092 40l-13.916-8.211z"/><path d="M30.833 8.202v16.413l-8.368 4.927-1.723-1.01v-2.058l6.61-3.898V12.29l-10.435 6.153L6.48 12.29v10.286l5.205 3.068h.008l1.397.821v4.097L3 24.615V8.202l10.09-5.946v4.096l-1.396.821h-.008l-3.49 2.049 3.49 2.057h.008l5.231 3.077 5.222-3.077 3.482-2.057-3.482-2.049-1.405-.83V2.256z"/></g></svg>