<svg width="128" height="128" viewBox="0 0 128 128" fill="none" xmlns="http://www.w3.org/2000/svg">
<path d="M64 128C99.3464 128 128 99.3464 128 64C128 28.6538 99.3464 0 64 0C28.6538 0 0 28.6538 0 64C0 99.3464 28.6538 128 64 128Z" fill="#ECFAF6"/>
<path fill-rule="evenodd" clip-rule="evenodd" d="M64 127.6C99.1252 127.6 127.6 99.1252 127.6 64C127.6 28.8747 99.1252 0.4 64 0.4C28.8747 0.4 0.4 28.8747 0.4 64C0.4 99.1252 28.8747 127.6 64 127.6ZM64 128C99.346 128 128 99.346 128 64C128 28.6539 99.346 0 64 0C28.6539 0 0 28.6539 0 64C0 99.346 28.6539 128 64 128Z" fill="#00D9A1"/>
<path d="M64 124C97.1372 124 124 97.1372 124 64C124 30.8629 97.1372 4 64 4C30.8629 4 4 30.8629 4 64C4 97.1372 30.8629 124 64 124Z" fill="#00D9A1"/>
<path fill-rule="evenodd" clip-rule="evenodd" d="M64 122.8C96.4744 122.8 122.8 96.4744 122.8 64C122.8 31.5258 96.4744 5.2 64 5.2C31.5258 5.2 5.2 31.5258 5.2 64C5.2 96.4744 31.5258 122.8 64 122.8ZM64 124C97.1372 124 124 97.1372 124 64C124 30.8629 97.1372 4 64 4C30.8629 4 4 30.8629 4 64C4 97.1372 30.8629 124 64 124Z" fill="white"/>
<path fill-rule="evenodd" clip-rule="evenodd" d="M30.2151 29.875C35.0695 29.875 39.0048 33.8104 39.0048 38.6648V68.7464C39.0048 82.5824 50.2208 93.7984 64.0564 93.7984C77.8924 93.7984 89.1084 82.5824 89.1084 68.7464V38.6648C89.1084 33.8104 93.0436 29.875 97.898 29.875V68.7464C97.898 87.4368 82.7468 102.588 64.0564 102.588C45.3664 102.588 30.2151 87.4368 30.2151 68.7464V29.875Z" fill="white"/>
<path fill-rule="evenodd" clip-rule="evenodd" d="M45.3263 44.1407C49.3283 44.1407 52.5723 47.3851 52.5723 51.3871V52.5839C55.7411 50.1227 59.7219 48.6575 64.0447 48.6575C74.3823 48.6575 82.7631 57.0379 82.7631 67.3759H82.7635C82.7635 77.7139 74.3827 86.0947 64.0447 86.0947C53.7067 86.0947 45.3263 77.714 45.3259 67.3764C45.3259 67.1784 45.3287 66.9811 45.3351 66.7847H45.3263V44.1407ZM52.5715 67.3759H52.5723C52.5723 73.7123 57.7087 78.8487 64.0447 78.8487C70.3811 78.8487 75.5175 73.7124 75.5175 67.3764C75.5175 61.04 70.3807 55.9035 64.0447 55.9035C57.7083 55.9035 52.5719 61.0395 52.5715 67.3759Z" fill="white"/>
<path d="M83.1203 41.6692C83.1203 44.0516 81.1891 45.9824 78.8071 45.9824C76.4251 45.9824 74.4939 44.0516 74.4939 41.6692C74.4939 39.2873 76.4251 37.3562 78.8071 37.3562C81.1891 37.3562 83.1203 39.2873 83.1203 41.6692Z" fill="white"/>
</svg>
