<svg width="128" height="128" viewBox="0 0 128 128" fill="none" xmlns="http://www.w3.org/2000/svg">
<path d="M64 128C99.3462 128 128 99.3462 128 64C128 28.6538 99.3462 0 64 0C28.6538 0 0 28.6538 0 64C0 99.3462 28.6538 128 64 128Z" fill="#2775C9"/>
<path d="M63 110C37.04 110 16 88.96 16 63C16 37.04 37.04 16 63 16C88.96 16 110 37.04 110 63C110 75.4652 105.048 87.4198 96.234 96.234C87.4198 105.048 75.4652 110 63 110V110ZM60.2 45.56C57.6284 45.6875 55.1974 46.7717 53.3842 48.5997C51.571 50.4277 50.5066 52.8675 50.4 55.44C50.4 60.28 53.36 63.44 59.64 64.76L64.04 65.8C68.32 66.8 70.08 68.24 70.08 70.68C70.08 73.12 67 75.52 63 75.52C61.5792 75.6503 60.1504 75.378 58.8771 74.7343C57.6038 74.0905 56.5375 73.1014 55.8 71.88C55.5815 71.4166 55.2366 71.0243 54.8049 70.7483C54.3732 70.4723 53.8724 70.3238 53.36 70.32H51C50.8185 70.3536 50.6455 70.4228 50.4908 70.5235C50.3362 70.6243 50.203 70.7546 50.0989 70.907C49.9948 71.0595 49.9219 71.231 49.8843 71.4117C49.8467 71.5924 49.8453 71.7787 49.88 71.96C50.4549 74.3062 51.7915 76.3956 53.6806 77.9011C55.5697 79.4066 57.9047 80.2432 60.32 80.28V83.64C60.32 84.3879 60.6171 85.1052 61.146 85.634C61.6748 86.1629 62.3921 86.46 63.14 86.46C63.8879 86.46 64.6052 86.1629 65.134 85.634C65.6629 85.1052 65.96 84.3879 65.96 83.64V80.24C68.6911 80.209 71.3023 79.1131 73.2373 77.1855C75.1724 75.2579 76.2785 72.651 76.32 69.92C76.32 64.84 73.4 61.92 66.48 60.44L62.48 59.56C58.48 58.56 56.6 57.24 56.6 55C56.6 52.76 59 50.28 63 50.28C64.2597 50.1484 65.5306 50.3843 66.6592 50.9593C67.7878 51.5342 68.7258 52.4236 69.36 53.52C69.6171 54.0675 70.0241 54.531 70.5338 54.8567C71.0435 55.1823 71.6351 55.3569 72.24 55.36H74.12C74.5474 55.2554 74.9168 54.9874 75.1487 54.6134C75.3805 54.2394 75.4564 53.7893 75.36 53.36C74.8181 51.1937 73.6059 49.254 71.8963 47.8174C70.1868 46.3808 68.0672 45.5208 65.84 45.36V42.6C65.84 41.8521 65.5429 41.1348 65.014 40.606C64.4852 40.0771 63.7679 39.78 63.02 39.78C62.2721 39.78 61.5548 40.0771 61.026 40.606C60.4971 41.1348 60.2 41.8521 60.2 42.6V45.56V45.56ZM27.76 63C27.7646 70.3683 30.0839 77.5489 34.3903 83.5277C38.6968 89.5065 44.7727 93.9813 51.76 96.32H52.32C52.7974 96.32 53.2552 96.1304 53.5928 95.7928C53.9304 95.4552 54.12 94.9974 54.12 94.52V93.68C54.1213 92.9354 53.9015 92.2072 53.4885 91.5877C53.0755 90.9681 52.4878 90.4852 51.8 90.2C46.3584 88.0036 41.6974 84.2311 38.4151 79.3667C35.1329 74.5024 33.3792 68.7681 33.3792 62.9C33.3792 57.0319 35.1329 51.2976 38.4151 46.4333C41.6974 41.5689 46.3584 37.7964 51.8 35.6C52.4847 35.3219 53.071 34.8462 53.4842 34.2335C53.8973 33.6208 54.1187 32.899 54.12 32.16V31.24C54.1226 30.9699 54.06 30.7031 53.9375 30.4623C53.8151 30.2215 53.6364 30.0138 53.4166 29.8568C53.1967 29.6998 52.9423 29.5981 52.6748 29.5604C52.4073 29.5226 52.1347 29.5499 51.88 29.64C44.8639 31.9604 38.7572 36.4324 34.4273 42.421C30.0975 48.4095 27.7646 55.6101 27.76 63V63ZM98.24 63C98.227 55.6386 95.9039 48.4669 91.598 42.4961C87.2921 36.5253 81.2208 32.0566 74.24 29.72H73.64C73.1414 29.72 72.6632 29.9181 72.3106 30.2706C71.9581 30.6232 71.76 31.1014 71.76 31.6V32.2C71.7761 32.9715 72.0151 33.7218 72.448 34.3606C72.8809 34.9993 73.4894 35.4992 74.2 35.8C79.6292 38.0028 84.2776 41.7756 87.5503 46.6354C90.8231 51.4952 92.5713 57.2209 92.5713 63.08C92.5713 68.9391 90.8231 74.6648 87.5503 79.5246C84.2776 84.3844 79.6292 88.1572 74.2 90.36C73.5029 90.6639 72.907 91.1602 72.4819 91.7907C72.0568 92.4212 71.8203 93.1598 71.8 93.92V94.6C71.8034 94.8965 71.8769 95.1881 72.0145 95.4508C72.1522 95.7135 72.35 95.9399 72.5918 96.1115C72.8337 96.2831 73.1127 96.3951 73.4061 96.4383C73.6995 96.4815 73.999 96.4547 74.28 96.36C81.2663 94.0123 87.3381 89.5285 91.6376 83.5423C95.937 77.5561 98.2466 70.3702 98.24 63V63Z" fill="white"/>
</svg>
