<svg width="128" height="128" viewBox="0 0 128 128" fill="none" xmlns="http://www.w3.org/2000/svg">
<path d="M64 128C99.3462 128 128 99.3462 128 64C128 28.6538 99.3462 0 64 0C28.6538 0 0 28.6538 0 64C0 99.3462 28.6538 128 64 128Z" fill="#26A17B"/>
<path fill-rule="evenodd" clip-rule="evenodd" d="M71.688 69.532V69.524C71.248 69.556 68.9799 69.692 63.9199 69.692C59.8799 69.692 57.0359 69.572 56.0359 69.524V69.536C40.4839 68.852 28.8759 66.144 28.8759 62.904C28.8759 59.668 40.4839 56.96 56.0359 56.264V66.84C57.0519 66.912 59.9639 67.084 63.9879 67.084C68.8159 67.084 71.236 66.884 71.688 66.844V56.272C87.208 56.964 98.7879 59.672 98.7879 62.904C98.7879 66.144 87.208 68.844 71.688 69.532V69.532ZM71.688 55.172V45.708H93.3439V31.276H34.38V45.708H56.0359V55.168C38.4359 55.976 25.2 59.464 25.2 63.64C25.2 67.816 38.4359 71.3 56.0359 72.112V102.44H71.688V72.104C89.26 71.296 102.464 67.812 102.464 63.64C102.464 59.468 89.26 55.984 71.688 55.172" fill="white"/>
</svg>
