<?xml version="1.0" encoding="UTF-8"?>
<svg width="156px" height="27px" viewBox="0 0 156 27" version="1.1" xmlns="http://www.w3.org/2000/svg" xmlns:xlink="http://www.w3.org/1999/xlink">
    <!-- Generator: Sketch 53.2 (72643) - https://sketchapp.com -->
    <title>social logo</title>
    <desc>Created with Sketch.</desc>
    <g id="Symbols" stroke="none" stroke-width="1" fill="none" fill-rule="evenodd">
        <g id="Header-/-Dark" transform="translate(-52.000000, -29.000000)">
            <g id="social-logo-/-reverse" transform="translate(52.000000, 29.000000)">
                <g id="social-logo">
                    <path d="M58.3593625,27 C62.2904269,27 65.16,24.7554248 65.16,21.1171994 C65.16,18.6792944 64.1772339,17.3246178 62.6442573,16.3571138 C61.3076608,15.505847 60.0497894,15.1961089 58.6737439,14.6538964 C57.6911508,14.2670658 56.7869368,13.8029715 56.7869368,12.8354675 C56.7869368,12.0609514 57.1800433,11.6742917 57.9662561,11.6742917 C58.791745,11.6742917 59.4599567,12.0223197 59.8925122,12.7188884 C60.3641707,13.4932335 60.9538304,14.1899731 62.1724257,14.1899731 C63.3910211,14.1899731 64.4130632,13.4932335 64.4130632,12.100096 C64.4130632,11.1324211 63.9806807,10.3968787 63.5482982,9.93244257 C62.3689789,8.57810787 60.639276,7.92 58.3593625,7.92 C55.4505134,7.92 52.1483847,9.39091381 52.1483847,13.1448636 C52.1483847,15.4670443 53.288255,17.0924852 55.135959,18.0599892 C56.6689357,18.8338215 58.1628093,19.2984286 59.5386818,20.0722609 C60.0497894,20.3821699 60.4428958,20.7688296 60.4428958,21.4265956 C60.4428958,22.3556388 59.8530632,22.8204168 58.6737439,22.8204168 C57.2585953,22.8204168 56.4723825,22.0460717 56.1580011,21.4653983 C55.5290655,20.2273008 54.5855754,19.8787601 53.7600865,19.8787601 C52.384214,19.8787601 51.48,20.8852378 51.48,22.2785461 C51.48,22.8588776 51.5980011,23.439551 52.0303836,24.0585142 C53.1311508,25.877456 55.2145111,27 58.3593625,27" id="Fill-1" fill="#FFFFFF"></path>
                    <path d="M75.3610267,27 C80.6501627,27 84.96,22.738196 84.96,17.46 C84.96,12.0640283 80.6501627,7.92 75.3610267,7.92 C70.0720616,7.92 65.88,12.0640283 65.88,17.46 C65.88,22.738196 70.0720616,27 75.3610267,27 M75.1823974,12.69 C77.7391037,12.69 79.7924003,14.7819283 79.7924003,17.2612001 C79.7924003,19.740301 77.7391037,21.8325712 75.1823974,21.8325712 C72.6643229,21.8325712 70.6498291,19.740301 70.6498291,17.2612001 C70.6498291,14.7819283 72.6643229,12.69 75.1823974,12.69" id="Fill-3" fill="#FFFFFF"></path>
                    <path d="M96.3426036,27 C99.2095563,27 101.644824,26.0225816 103.058254,24.4976517 C103.804457,23.6766407 104.04,23.0120373 104.04,22.4253811 C104.04,21.1351478 103.136884,20.001322 101.840793,20.001322 C101.094763,20.001322 100.309505,20.3531106 99.7986727,20.9004512 C99.1309268,21.6047121 97.992095,22.0735925 96.6175476,22.0735925 C93.6719654,22.0735925 91.7477027,20.001322 91.7477027,17.4598291 C91.7477027,14.7622706 93.6719654,12.8460656 96.5389181,12.8460656 C97.5208365,12.8460656 98.4636993,13.1199068 99.1703279,13.6672474 C99.8771294,14.2145881 100.544875,14.4494557 101.17322,14.4494557 C102.62657,14.4494557 103.608315,13.4720373 103.608315,12.2597513 C103.608315,11.1260964 103.097483,10.2264544 101.998225,9.48356173 C100.741536,8.6234062 99.092044,7.92 96.3426036,7.92 C90.9622718,7.92 86.76,12.0641992 86.76,17.4598291 C86.76,22.7773406 90.9622718,27 96.3426036,27" id="Fill-5" fill="#FFFFFF"></path>
                    <path d="M108.779447,5.56573533 C106.991788,5.56573533 105.84,4.54323063 105.84,2.72610934 C105.84,1.17380326 106.991788,0 108.779447,0 C110.090468,0 111.6,1.17380326 111.6,2.72610934 C111.6,4.54323063 110.090468,5.56573533 108.779447,5.56573533 M108.681076,7.83982955 C110.326841,7.83982955 111.188647,8.6906916 111.188647,10.4691762 L111.188647,24.1272473 C111.188647,25.8284585 110.405219,26.64 108.720354,26.64 C107.035488,26.64 106.251353,25.8284585 106.251353,24.1272473 L106.251353,10.4691762 C106.251353,8.6906916 107.035488,7.83982955 108.681076,7.83982955" id="Fill-7" fill="#FFFFFF"></path>
                    <path d="M121.480931,27 C123.775889,27 125.915343,25.983608 126.654411,24.8492693 C127.00455,26.1789891 127.743447,26.8437635 128.910407,26.8437635 C130.583008,26.8437635 131.4,25.9442924 131.4,24.1456922 L131.4,10.7741369 C131.4,9.0927995 130.583008,8.27178857 128.988158,8.27178857 C127.743447,8.27178857 127.04334,8.89741838 126.770953,10.1091915 C125.876381,8.58443254 123.81485,7.92 121.480931,7.92 C116.26849,7.92 113.04,12.0252256 113.04,17.46 C113.04,22.7775116 116.30728,27 121.480931,27 M122.020558,12.69 C124.458832,12.69 126.211416,14.7819283 126.211416,17.2612001 C126.211416,19.8568801 124.458832,21.8325712 122.020558,21.8325712 C119.582112,21.8325712 117.829528,19.8568801 117.829528,17.2612001 C117.829528,14.7819283 119.582112,12.69 122.020558,12.69" id="Fill-9" fill="#FFFFFF"></path>
                    <path d="M152.658469,27 C154.23614,27 155.52,25.7910337 155.52,24.1557522 C155.52,22.4133835 154.23614,21.24 152.658469,21.24 C150.97083,21.24 149.76,22.4133835 149.76,24.1557522 C149.76,25.7910337 150.97083,27 152.658469,27" id="Fill-11" fill="#4681FF"></path>
                    <path d="M136.96172,27 C138.509478,27 139.32,26.1708675 139.32,24.4335469 L139.32,2.68477704 C139.32,0.868919785 138.509478,0 136.924825,0 C135.450858,0 134.64,0.868919785 134.64,2.68477704 L134.64,24.4335469 C134.64,26.1708675 135.413963,27 136.96172,27" id="Fill-13" fill="#FFFFFF"></path>
                    <path d="M144.88172,27 C146.429478,27 147.24,26.1708675 147.24,24.4335469 L147.24,2.68477704 C147.24,0.868919785 146.429478,0 144.844825,0 C143.37069,0 142.56,0.868919785 142.56,2.68477704 L142.56,24.4335469 C142.56,26.1708675 143.333963,27 144.88172,27" id="Fill-15" fill="#FFFFFF"></path>
                    <path d="M33.8300623,15.41332 L34.2133775,15.41332 C33.3051994,11.0206264 29.3761326,7.70657374 24.6809521,7.70657374 L19.0316163,7.70657374 C17.9619155,7.70657374 17.0947209,8.57514357 17.0947209,9.64654066 C17.0947209,10.7179377 17.9619155,11.58668 19.0316163,11.58668 L24.6809521,11.58668 C27.8883324,11.58668 30.4974932,14.17359 30.4974932,17.3532869 C30.4974932,20.5331562 27.8883324,23.1200662 24.6809521,23.1200662 L9.72993774,23.1200662 C6.52272957,23.1200662 3.91356886,20.5331562 3.91356886,17.3532869 C3.91356886,14.17359 6.52272957,11.58668 9.72993774,11.58668 L9.51520546,11.58668 C10.4232113,15.9790287 14.3524503,19.2932538 19.0474586,19.2932538 L24.695589,19.2932538 C25.7652898,19.2932538 26.6324844,18.424684 26.6324844,17.3532869 C26.6324844,16.2817173 25.7652898,15.41332 24.695589,15.41332 L19.0474586,15.41332 C15.8402505,15.41332 13.2309176,12.82641 13.2309176,9.64654066 C13.2309176,6.46684382 15.8402505,3.87993382 19.0474586,3.87993382 L33.8300623,3.87993382 C37.0372704,3.87993382 39.6466033,6.46684382 39.6466033,9.64654066 C39.6466033,12.82641 37.0372704,15.41332 33.8300623,15.41332 M33.8300623,0 L19.0474586,0 C14.3524503,0 10.4233835,3.31405265 9.51520546,7.70657374 L9.72993774,7.70657374 C4.36490269,7.70657374 0,12.0340728 0,17.3532869 C0,22.6725009 4.36490269,27 9.72993774,27 L24.6809521,27 C29.3761326,27 33.3051994,23.6857749 34.2133775,19.2932538 L33.8300623,19.2932538 C39.1952695,19.2932538 43.56,14.9657547 43.56,9.64654066 C43.56,4.32749909 39.1952695,0 33.8300623,0" id="Fill-17" fill="#4681FF"></path>
                </g>
            </g>
        </g>
    </g>
</svg>