<?xml version="1.0" encoding="utf-8"?>
<!-- Generator: Adobe Illustrator 19.0.0, SVG Export Plug-In . SVG Version: 6.00 Build 0)  -->
<svg version="1.1" id="Layer_1" xmlns="http://www.w3.org/2000/svg" xmlns:xlink="http://www.w3.org/1999/xlink" x="0px" y="0px"
	 viewBox="0 0 370.6 94.3" style="enable-background:new 0 0 370.6 94.3;" xml:space="preserve">
<style type="text/css">
	.st0{fill:#142D51;}
	.st1{fill:none;stroke:#00B6FA;stroke-width:2.463;stroke-miterlimit:10;}
	.st2{clip-path:url(#XMLID_2_);fill:url(#XMLID_3_);}
	.st3{clip-path:url(#XMLID_4_);fill:url(#XMLID_10_);}
	.st4{clip-path:url(#XMLID_11_);fill:url(#XMLID_13_);}
	.st5{clip-path:url(#XMLID_30_);fill:url(#XMLID_31_);}
	.st6{clip-path:url(#XMLID_32_);fill:url(#XMLID_33_);}
	.st7{fill:#119FED;}
	.st8{fill:#E8E8E8;}
</style>
<path id="XMLID_59_" class="st0" d="M77.6,10.5l0,31.7c0,6.6,0.6,18.9-5,28.4c-7.2,12.1-20.3,21.3-33.1,22.4
	C26.7,91.8,13.6,82.6,6.4,70.5c-5.6-9.4-5-21.8-5-28.4V10.5H77.6z"/>
<path id="XMLID_58_" class="st1" d="M77.7,10.5l0,31.8c0,6.6,0.6,19-5.1,28.4C65.4,82.8,52.2,92,39.5,93.1
	C26.7,92,13.5,82.8,6.3,70.7c-5.6-9.5-5-21.8-5-28.4V10.5H77.7z"/>
<g id="XMLID_53_">
	<defs>
		<path id="XMLID_54_" d="M62.8,57c-0.4,2.2-7.7,17.7-21.8,20.2c-5.7,1-6.5,2.6-5.1,4.1c1.2,0.3,2.4,0.5,3.6,0.6
			c9.2-0.8,18.7-7.5,24-16.4c1.3-2.3,2.2-4.8,2.7-7.3c-0.9-1.1-1.9-2.1-2.6-2.1C63.2,56.1,63,56.3,62.8,57"/>
	</defs>
	<clipPath id="XMLID_2_">
		<use xlink:href="#XMLID_54_"  style="overflow:visible;"/>
	</clipPath>
	
		<linearGradient id="XMLID_3_" gradientUnits="userSpaceOnUse" x1="84.9448" y1="136.124" x2="86.3844" y2="136.124" gradientTransform="matrix(23.1773 0 0 -23.1773 -1933.4675 3224.0039)">
		<stop  offset="0" style="stop-color:#01AAE4"/>
		<stop  offset="1" style="stop-color:#1F96F4"/>
	</linearGradient>
	<rect id="XMLID_55_" x="34.5" y="56.1" class="st2" width="31.6" height="25.9"/>
</g>
<g id="XMLID_50_">
	<defs>
		<rect id="XMLID_51_" x="18.6" y="21.4" width="44" height="4.5"/>
	</defs>
	<clipPath id="XMLID_4_">
		<use xlink:href="#XMLID_51_"  style="overflow:visible;"/>
	</clipPath>
	
		<linearGradient id="XMLID_10_" gradientUnits="userSpaceOnUse" x1="85.9078" y1="136.2653" x2="87.3474" y2="136.2653" gradientTransform="matrix(30.5289 0 0 -30.5289 -2604.0601 4183.6895)">
		<stop  offset="0" style="stop-color:#01AAE4"/>
		<stop  offset="1" style="stop-color:#1F96F4"/>
	</linearGradient>
	<rect id="XMLID_52_" x="18.6" y="21.4" class="st3" width="44" height="4.5"/>
</g>
<g id="XMLID_47_">
	<defs>
		<path id="XMLID_48_" d="M11.8,21.4v16.5L58,72.5c2.1-2.1,3.9-4.4,5.4-7c2.1-3.5,3-7.6,3.4-11.4L23,21.4H11.8z"/>
	</defs>
	<clipPath id="XMLID_11_">
		<use xlink:href="#XMLID_48_"  style="overflow:visible;"/>
	</clipPath>
	
		<linearGradient id="XMLID_13_" gradientUnits="userSpaceOnUse" x1="87.8492" y1="135.5336" x2="89.2888" y2="135.5336" gradientTransform="matrix(68.2215 0 0 -68.2215 -6001.3062 9293.2627)">
		<stop  offset="0" style="stop-color:#01AAE4"/>
		<stop  offset="1" style="stop-color:#1F96F4"/>
	</linearGradient>
	<rect id="XMLID_49_" x="11.8" y="21.4" class="st4" width="54.9" height="51.1"/>
</g>
<g id="XMLID_44_">
	<defs>
		<path id="XMLID_45_" d="M29.9,21.4l37.1,27.8c0-1.7,0-3.3,0-4.6l0-23.3H29.9z"/>
	</defs>
	<clipPath id="XMLID_30_">
		<use xlink:href="#XMLID_45_"  style="overflow:visible;"/>
	</clipPath>
	
		<linearGradient id="XMLID_31_" gradientUnits="userSpaceOnUse" x1="88.1408" y1="135.3727" x2="89.5804" y2="135.3727" gradientTransform="matrix(78.4981 0 0 -78.4981 -6912.2217 10661.8379)">
		<stop  offset="0" style="stop-color:#01AAE4"/>
		<stop  offset="1" style="stop-color:#1F96F4"/>
	</linearGradient>
	<rect id="XMLID_46_" x="29.9" y="21.4" class="st5" width="37.2" height="27.8"/>
</g>
<g id="XMLID_41_">
	<defs>
		<path id="XMLID_42_" d="M11.8,44.7c0,4.8-0.4,13.9,3.7,20.8c5.2,8.9,14.7,15.6,24,16.4c5.3-0.5,10.7-2.9,15.3-6.5L11.8,43.3V44.7z
			"/>
	</defs>
	<clipPath id="XMLID_32_">
		<use xlink:href="#XMLID_42_"  style="overflow:visible;"/>
	</clipPath>
	
		<linearGradient id="XMLID_33_" gradientUnits="userSpaceOnUse" x1="88.0229" y1="135.5445" x2="89.4626" y2="135.5445" gradientTransform="matrix(82.1759 0 0 -82.1759 -7276.4463 11201.1162)">
		<stop  offset="0" style="stop-color:#01AAE4"/>
		<stop  offset="1" style="stop-color:#1F96F4"/>
	</linearGradient>
	<rect id="XMLID_43_" x="11.4" y="43.3" class="st6" width="43.3" height="38.7"/>
</g>
<g id="XMLID_5_">
	<path id="XMLID_6_" class="st7" d="M87,0.4h-1.2V0h2.9v0.4h-1.2V4H87V0.4z"/>
	<path id="XMLID_8_" class="st7" d="M92.7,2.2c0-0.6-0.1-1.2-0.1-1.7h0c-0.1,0.5-0.3,1-0.5,1.5l-0.7,1.9h-0.4l-0.6-1.9
		C90.2,1.5,90.1,1,90,0.5h0c0,0.5,0,1.2-0.1,1.8L89.8,4h-0.5l0.3-4h0.7l0.7,1.9c0.2,0.5,0.3,0.9,0.4,1.3h0c0.1-0.4,0.2-0.8,0.4-1.3
		L92.4,0h0.7l0.2,4h-0.5L92.7,2.2z"/>
</g>
<g id="XMLID_12_">
	<path id="XMLID_14_" class="st8" d="M106.3,60.9c2.4,1.4,5.8,2.7,9.4,2.7c5.4,0,8.5-2.8,8.5-6.9c0-3.8-2.2-6-7.7-8.1
		c-6.6-2.4-10.7-5.8-10.7-11.5c0-6.3,5.2-11,13.1-11c4.2,0,7.2,1,9,2l-1.4,4.3c-1.3-0.7-4-1.9-7.7-1.9c-5.5,0-7.7,3.3-7.7,6.1
		c0,3.8,2.5,5.7,8.1,7.8c6.9,2.7,10.4,6,10.4,11.9c0,6.3-4.6,11.7-14.2,11.7c-3.9,0-8.2-1.1-10.4-2.6L106.3,60.9z"/>
	<path id="XMLID_16_" class="st8" d="M161.8,48.2H146v14.7h17.6v4.4h-22.9V26.7h21.9v4.4H146v12.8h15.8V48.2z"/>
	<path id="XMLID_18_" class="st8" d="M174.4,67.3V26.7h5.7l13,20.6c3,4.8,5.4,9,7.3,13.2l0.1-0.1c-0.5-5.4-0.6-10.4-0.6-16.7v-17
		h4.9v40.6h-5.3l-12.9-20.6c-2.8-4.5-5.5-9.2-7.6-13.6l-0.2,0.1c0.3,5.1,0.4,10,0.4,16.8v17.4H174.4z"/>
	<path id="XMLID_20_" class="st8" d="M225.9,31.1h-12.4v-4.5h30.1v4.5h-12.4v36.2h-5.3V31.1z"/>
	<path id="XMLID_22_" class="st8" d="M257.4,26.7v40.6h-5.2V26.7H257.4z"/>
	<path id="XMLID_24_" class="st8" d="M270.6,67.3V26.7h5.7l13,20.6c3,4.8,5.4,9,7.3,13.2l0.1-0.1c-0.5-5.4-0.6-10.4-0.6-16.7v-17
		h4.9v40.6h-5.3l-12.9-20.6c-2.8-4.5-5.5-9.2-7.6-13.6l-0.2,0.1c0.3,5.1,0.4,10,0.4,16.8v17.4H270.6z"/>
	<path id="XMLID_26_" class="st8" d="M335.4,48.2h-15.8v14.7h17.6v4.4h-22.9V26.7h21.9v4.4h-16.7v12.8h15.8V48.2z"/>
	<path id="XMLID_28_" class="st8" d="M348,26.7h5.2v36.2h17.4v4.4H348V26.7z"/>
</g>
</svg>
