<svg id="sugar_cube_white" xmlns="http://www.w3.org/2000/svg" viewBox="0 0 582.361 660.147">
  <defs>
    <style>
      .cls-1 {
        fill: #312950;
      }
    </style>
  </defs>
  <g id="Layer_2" data-name="Layer 2" transform="translate(0 0)">
    <path id="Path_2264" data-name="Path 2264" class="cls-1" d="M582.2,477.944a34.493,34.493,0,0,1-53.67,28.673L327.51,622.106a11.522,11.522,0,0,1,0,2.083,34.494,34.494,0,1,1-68.926,0,33.513,33.513,0,0,1,1.777-10.844l-18.748-10.783,6.127-10.6,18.38,10.661a34.371,34.371,0,0,1,46.5-7.046l200.835-115.55a11.516,11.516,0,0,1,0-2.083,34.371,34.371,0,0,1,19.177-30.634V211.675a27.081,27.081,0,0,1-3.676-2.083L327.51,327.1a14.091,14.091,0,0,1,0,2.267,34.494,34.494,0,0,1-68.926,0,11.885,11.885,0,0,1,0-2.083L53.828,209.47a34.494,34.494,0,1,1,0-57.224l205-115.857a9.253,9.253,0,0,1,0-1.838,34.494,34.494,0,1,1,39.027,34.126V91.959H285.6V68.126a34.249,34.249,0,0,1-11.641-5.085l-205,115.918-3.431,1.961,3.431,1.961L274.085,300.7a33.94,33.94,0,0,1,11.334-4.84V275.148h12.254V295.06a33.635,33.635,0,0,1,14.4,5.392L513.456,183.125a14.464,14.464,0,0,1,0-2.328,34.065,34.065,0,0,1,1.348-10.661l-6.127-3.37,6.127-10.6,6.127,3.186a34.126,34.126,0,0,1,26.958-13.05,34.494,34.494,0,0,1,15.317,65.372V447.31A34.371,34.371,0,0,1,582.2,477.944ZM67.552,488.3a33.88,33.88,0,0,0,1.532-10.354,34.555,34.555,0,1,0-7.352,21.26l22,12.621,6.127-10.661Zm1.47-309.339-3.431,1.961,3.431,1.961a11.519,11.519,0,0,0,0-2.083,9.251,9.251,0,0,0-.061-1.838ZM358.45,64.94,330.634,49.072l-6.127,10.661,27.877,15.991ZM367.395,366.5l-27.815-15.991-6.127,10.661,27.815,15.991ZM113.257,440.816l-6.127-10.66L79.254,446.146l6.127,10.661Zm47.237-27.141-6.127-10.6-27.815,15.991,6.127,10.6ZM203.749,388.8l-6.127-10.6-27.877,15.991,6.127,10.6Zm47.6-27.264-6.127-10.6-27.815,15.93,6.127,10.661ZM136.294,527.877l-27.815-15.991-6.127,10.661,27.815,15.93Zm46.2,26.529-27.815-15.991-6.127,10.6L176.363,565Zm46.747,26.9-27.815-15.991-6.127,10.6L223.171,591.9ZM415.551,394.191,387.736,378.2l-6.127,10.6,27.815,15.991Zm43.255,24.875L430.99,403.075l-6.127,10.6,27.815,15.991Zm47.237,27.08-28-15.991-6.127,10.661,27.815,15.991ZM285.48,115.3l-.49,30.634h12.254l.49-30.634Zm0,54.405-.49,30.634h12.254l.49-30.634Zm0,52.813-.49,30.634h12.254l.49-30.634ZM297.734,382.55H285.48l-.49,30.634h12.254ZM40.962,239.858H28.708l-.429,30.634H40.533Zm0,53.058H28.708l-.429,30.634H40.533Zm0,52.813H28.708l-.429,30.634H40.533Zm0,53.241H28.708L28.279,429.6H40.533Zm257.323,35.413H286.032l-.49,30.634h12.253Zm0,54.651H286.032l-.49,30.634h12.253Zm0,53.119H286.032l-.49,30.634h12.253ZM404.89,91.959,377.075,75.968l-6.127,10.6,27.815,15.991Zm45.522,26.59-27.509-16.3-6.127,10.661,27.57,15.807Zm46.012,26.529-27.815-15.991-6.127,10.6L490.3,155.677Z" transform="translate(0.031 0.011)"/>
  </g>
</svg>
