<svg width="118" height="45" viewBox="0 0 118 45" fill="none" xmlns="http://www.w3.org/2000/svg">
<path fill-rule="evenodd" clip-rule="evenodd" d="M22.4762 0C10.0629 0 0 10.0737 0 22.5C0 34.9264 10.0629 45 22.4762 45C34.8895 45 44.9524 34.9264 44.9524 22.5C44.9524 10.0737 34.8895 0 22.4762 0Z" fill="#4360DF"/>
<path fill-rule="evenodd" clip-rule="evenodd" d="M23.2309 21.5138C24.3595 21.6314 25.4882 21.749 26.8757 21.6716C30.6352 21.4618 32.9125 19.5302 32.7509 16.6428C32.5862 13.7052 29.5565 11.8953 26.5251 12.0645C21.5849 12.34 17.9521 16.6819 17.543 21.6444C18.2139 21.4871 18.9201 21.3932 19.586 21.356C20.9737 21.2787 22.1023 21.3962 23.2309 21.5138ZM13.5465 27.936C13.7024 30.6289 16.5727 32.288 19.4446 32.1328C24.1247 31.8802 27.5665 27.9002 27.954 23.3511C27.3184 23.4954 26.6495 23.5816 26.0185 23.6156C24.7039 23.6866 23.6346 23.5788 22.5653 23.471C21.4961 23.3632 20.4268 23.2554 19.1122 23.3264C15.5508 23.5187 13.3932 25.2893 13.5465 27.936Z" fill="white"/>
<path d="M53.6992 26.2361H56.9481C56.9481 26.7871 57.1033 27.1825 57.4137 27.4227C57.7241 27.6628 58.1228 27.7828 58.6096 27.7828C59.0117 27.7828 59.3398 27.7087 59.5938 27.5604C59.8548 27.405 59.9853 27.1543 59.9853 26.8082C59.9853 26.6034 59.9289 26.4374 59.816 26.3103C59.7102 26.1761 59.5444 26.0596 59.3187 25.9607C59.0929 25.8547 58.8036 25.7488 58.4508 25.6428C58.0981 25.5369 57.6748 25.4027 57.1809 25.2403C56.7365 25.0991 56.3167 24.9543 55.9216 24.8059C55.5335 24.6506 55.1914 24.4599 54.895 24.2339C54.5987 24.0079 54.366 23.7324 54.1966 23.4076C54.0344 23.0827 53.9532 22.6801 53.9532 22.1999C53.9532 21.6489 54.0625 21.1723 54.2813 20.7697C54.4999 20.3671 54.8069 20.0351 55.202 19.7738C55.597 19.5125 56.0697 19.3183 56.6201 19.1911C57.1703 19.0569 57.7771 18.9898 58.4402 18.9898C59.2516 18.9898 59.9501 19.0817 60.5357 19.2653C61.1213 19.4489 61.601 19.6996 61.975 20.0174C62.3489 20.3353 62.624 20.7096 62.8004 21.1404C62.9838 21.5712 63.0755 22.0338 63.0755 22.5283H59.8054C59.8054 22.0974 59.6926 21.7619 59.4668 21.5218C59.2481 21.2817 58.913 21.1617 58.4614 21.1617C58.1157 21.1617 57.8194 21.2394 57.5725 21.3947C57.3256 21.543 57.2021 21.769 57.2021 22.0727C57.2021 22.2775 57.2586 22.4435 57.3714 22.5706C57.4914 22.6907 57.6642 22.8001 57.89 22.8991C58.1157 22.9979 58.3944 23.1003 58.726 23.2063C59.0576 23.3052 59.4386 23.4252 59.8689 23.5664C60.3346 23.6936 60.7685 23.8348 61.1706 23.9902C61.5728 24.1456 61.9255 24.3363 62.2289 24.5623C62.5393 24.7813 62.7827 25.0602 62.9591 25.3992C63.1425 25.7312 63.2343 26.1549 63.2343 26.6705C63.2343 27.2779 63.1073 27.797 62.8533 28.2278C62.5993 28.6516 62.2571 28.9976 61.8268 29.266C61.4034 29.5344 60.9096 29.7251 60.3452 29.8381C59.7808 29.9581 59.1881 30.0182 58.5672 30.0182C57.0222 30.0182 55.8228 29.6969 54.9691 29.0541C54.1225 28.4044 53.6992 27.465 53.6992 26.2361Z" fill="black"/>
<path d="M64.0598 21.7443V19.2759H65.7002V16.1719H69.002V19.2759H71.3831V21.7443H69.002V25.484C69.002 25.8724 69.0372 26.1832 69.1078 26.4162C69.1784 26.6423 69.2771 26.8223 69.4041 26.9565C69.5381 27.0837 69.6969 27.1684 69.8803 27.2108C70.0708 27.2461 70.2825 27.2637 70.5153 27.2637C70.6564 27.2637 70.8363 27.2602 71.055 27.2531C71.2737 27.2391 71.4642 27.2178 71.6265 27.1896V29.7321C71.3796 29.7745 71.0692 29.8134 70.6952 29.8487C70.3283 29.884 69.8945 29.9016 69.3936 29.9016C69.0055 29.9016 68.5963 29.8734 68.166 29.8169C67.7356 29.7604 67.3369 29.6121 66.9701 29.372C66.6032 29.1318 66.2999 28.7646 66.06 28.2702C65.8201 27.7687 65.7002 27.0837 65.7002 26.2149V21.7443H64.0598Z" fill="black"/>
<path fill-rule="evenodd" clip-rule="evenodd" d="M72.9492 22.3164C72.7023 22.9873 72.5789 23.7148 72.5789 24.4987C72.5789 25.2827 72.7023 26.0102 72.9492 26.6811C73.2032 27.352 73.5525 27.9312 73.9969 28.4185C74.4485 28.9058 74.9741 29.2907 75.5738 29.5732C76.1805 29.8557 76.8296 29.997 77.5211 29.997C78.3253 29.997 79.0167 29.8275 79.5952 29.4885C80.1737 29.1495 80.5932 28.7398 80.8549 28.2596V29.7321H84.1669V19.2759H80.8549V20.7697C80.5651 20.2612 80.1314 19.8409 79.5529 19.5089C78.9814 19.177 78.3041 19.0111 77.5211 19.0111C76.8225 19.0111 76.1734 19.1523 75.5738 19.4348C74.9741 19.7173 74.4485 20.1022 73.9969 20.5896C73.5525 21.0698 73.2032 21.6454 72.9492 22.3164ZM76.05 25.5369C75.9301 25.205 75.8701 24.8589 75.8701 24.4987C75.8701 24.1386 75.9301 23.7995 76.05 23.4817C76.177 23.1639 76.3463 22.8814 76.5579 22.6342C76.7767 22.387 77.0377 22.1928 77.3411 22.0515C77.6445 21.9103 77.9831 21.8396 78.3571 21.8396C78.7381 21.8396 79.0802 21.9103 79.3836 22.0515C79.687 22.1928 79.9445 22.387 80.1561 22.6342C80.3749 22.8814 80.5443 23.1639 80.6639 23.4817C80.7907 23.7995 80.8549 24.1386 80.8549 24.4987C80.8549 24.866 80.7907 25.2121 80.6639 25.5369C80.5443 25.8618 80.3749 26.1444 80.1561 26.3845C79.9445 26.6175 79.6834 26.8082 79.373 26.9565C79.0697 27.0978 78.731 27.1684 78.3571 27.1684C77.9831 27.1684 77.6445 27.0978 77.3411 26.9565C77.0377 26.8082 76.7767 26.6175 76.5579 26.3845C76.3463 26.1444 76.177 25.8618 76.05 25.5369Z" fill="black"/>
<path d="M85.9448 21.7443V19.2759H87.5848V16.1719H90.8872V19.2759H93.268V21.7443H90.8872V25.484C90.8872 25.8724 90.9225 26.1832 90.9923 26.4162C91.063 26.6423 91.1617 26.8223 91.2893 26.9565C91.4234 27.0837 91.5815 27.1684 91.7654 27.2108C91.9556 27.2461 92.1675 27.2637 92.4003 27.2637C92.5416 27.2637 92.7214 27.2602 92.9397 27.2531C93.1589 27.2391 93.3491 27.2178 93.5113 27.1896V29.7321C93.2648 29.7745 92.9542 29.8134 92.5801 29.8487C92.2133 29.884 91.779 29.9016 91.2781 29.9016C90.8904 29.9016 90.481 29.8734 90.0507 29.8169C89.6205 29.7604 89.2215 29.6121 88.8547 29.372C88.4878 29.1318 88.1844 28.7646 87.9452 28.2702C87.7052 27.7687 87.5848 27.0837 87.5848 26.2149V21.7443H85.9448Z" fill="black"/>
<path d="M95.1521 25.484V19.2759H98.4433V24.6365C98.4433 25.3851 98.5773 25.996 98.8454 26.4692C99.1135 26.9353 99.5928 27.1684 100.285 27.1684C100.976 27.1684 101.484 26.9318 101.808 26.4586C102.14 25.9783 102.306 25.3321 102.306 24.5199V19.2759H105.618V29.7321H102.306V28.2384C102.016 28.7893 101.575 29.2201 100.983 29.5308C100.39 29.8416 99.6811 29.997 98.8559 29.997C98.1358 29.997 97.5434 29.884 97.0778 29.658C96.6195 29.432 96.2454 29.1459 95.9564 28.7998C95.6241 28.3973 95.4058 27.9312 95.2998 27.4015C95.2011 26.8717 95.1521 26.2326 95.1521 25.484Z" fill="black"/>
<path d="M107.756 26.2361H111.005C111.005 26.7871 111.16 27.1825 111.471 27.4227C111.78 27.6628 112.179 27.7828 112.666 27.7828C113.068 27.7828 113.396 27.7087 113.651 27.5604C113.912 27.405 114.042 27.1543 114.042 26.8082C114.042 26.6034 113.986 26.4374 113.872 26.3103C113.767 26.1761 113.601 26.0596 113.375 25.9607C113.15 25.8547 112.86 25.7488 112.508 25.6428C112.155 25.5369 111.731 25.4027 111.238 25.2403C110.793 25.0991 110.373 24.9543 109.978 24.8059C109.59 24.6506 109.248 24.4599 108.952 24.2339C108.655 24.0079 108.423 23.7324 108.253 23.4076C108.091 23.0827 108.01 22.6801 108.01 22.1999C108.01 21.6489 108.119 21.1723 108.338 20.7697C108.557 20.3671 108.863 20.0351 109.258 19.7738C109.654 19.5125 110.126 19.3183 110.677 19.1911C111.227 19.0569 111.833 18.9898 112.497 18.9898C113.308 18.9898 114.006 19.0817 114.592 19.2653C115.178 19.4489 115.658 19.6996 116.032 20.0174C116.406 20.3353 116.68 20.7096 116.857 21.1404C117.041 21.5712 117.132 22.0338 117.132 22.5283H113.862C113.862 22.0974 113.75 21.7619 113.523 21.5218C113.305 21.2817 112.969 21.1617 112.518 21.1617C112.172 21.1617 111.876 21.2394 111.629 21.3947C111.382 21.543 111.259 21.769 111.259 22.0727C111.259 22.2775 111.315 22.4435 111.428 22.5706C111.548 22.6907 111.721 22.8001 111.947 22.8991C112.172 22.9979 112.451 23.1003 112.782 23.2063C113.115 23.3052 113.495 23.4252 113.925 23.5664C114.391 23.6936 114.825 23.8348 115.227 23.9902C115.63 24.1456 115.982 24.3363 116.285 24.5623C116.596 24.7813 116.839 25.0602 117.016 25.3992C117.199 25.7312 117.291 26.1549 117.291 26.6705C117.291 27.2779 117.164 27.797 116.91 28.2278C116.656 28.6516 116.313 28.9976 115.883 29.266C115.46 29.5344 114.966 29.7251 114.402 29.8381C113.837 29.9581 113.245 30.0182 112.624 30.0182C111.079 30.0182 109.88 29.6969 109.026 29.0541C108.179 28.4044 107.756 27.465 107.756 26.2361Z" fill="black"/>
</svg>
