<svg id="Layer_1" data-name="Layer 1" xmlns="http://www.w3.org/2000/svg" viewBox="0 0 116.54 23.98"><defs><style>.cls-1{fill:#4ebd94;}.cls-2{fill:#383838;}.cls-3{fill:#898989;}.cls-4{fill:#368866;}.cls-5{fill:#222323;}.cls-6{fill:#fff;opacity:0.94;}</style></defs><title>NEW LOGO</title><path class="cls-1" d="M105.82,8.11,103,1.32c-.08-.19,0-.32.22-.32H105a.3.3,0,0,1,.31.23l1.38,4c.09.26.27.26.36,0l1.4-4a.3.3,0,0,1,.32-.23h1.8c.22,0,.3.13.22.32l-2.87,6.8a.31.31,0,0,1-.33.21h-1.44A.35.35,0,0,1,105.82,8.11Z"/><path class="cls-1" d="M111.88,8.05V1.28a.26.26,0,0,1,.29-.28h1.58a.26.26,0,0,1,.29.28v.64c0,.25.13.31.31.1A3.14,3.14,0,0,1,116.23,1a.25.25,0,0,1,.31.27V2.8a.26.26,0,0,1-.28.28c-1.39.07-2.11.64-2.11,1.92V8.05c0,.19-.1.28-.29.28h-1.69C112,8.33,111.88,8.24,111.88,8.05Z"/><path class="cls-2" d="M70.72,11.36a1.18,1.18,0,0,1-.83-.34,1.91,1.91,0,0,0-.13.68,2.12,2.12,0,1,0,2.12-2.12l-.13,0a1.12,1.12,0,0,1,.17.57A1.19,1.19,0,0,1,70.72,11.36Z"/><path class="cls-2" d="M33.12,10.89c-1.37-.42-2.66-.7-2.66-1.67,0-.8.72-1.24,1.74-1.24a4.83,4.83,0,0,1,2.4.71.42.42,0,0,0,.62-.12l.66-1A.36.36,0,0,0,35.76,7a6.87,6.87,0,0,0-3.44-.92c-2.22,0-4.15,1.12-4.15,3.36s1.86,2.82,3.48,3.32c1.3.4,2.43.71,2.43,1.73s-.77,1.42-1.9,1.42a5.66,5.66,0,0,1-3.06-1.05.38.38,0,0,0-.61.09L27.86,16a.4.4,0,0,0,.13.61,7.74,7.74,0,0,0,4.17,1.24c2.49,0,4.27-1.25,4.27-3.58S34.7,11.38,33.12,10.89Z"/><path class="cls-2" d="M45.33,6.08a5.12,5.12,0,0,0-3.58,1.33c-.29.27-.51.2-.51-.2V6.74a.41.41,0,0,0-.44-.45H39.29a.41.41,0,0,0-.44.45V22.58a.4.4,0,0,0,.44.44H40.8a.4.4,0,0,0,.44-.44V16.76c0-.39.22-.46.51-.2a5.16,5.16,0,0,0,3.58,1.33A5.74,5.74,0,0,0,51,12,5.77,5.77,0,0,0,45.33,6.08Zm-.5,9.7A3.7,3.7,0,0,1,41.08,12a3.75,3.75,0,1,1,7.5,0A3.72,3.72,0,0,1,44.83,15.78Z"/><path class="cls-2" d="M75.44,14.38a.39.39,0,0,0-.61.08A3.6,3.6,0,0,1,72,15.73,3.67,3.67,0,0,1,68.27,12,3.66,3.66,0,0,1,72,8.23,3.57,3.57,0,0,1,74.83,9.5a.41.41,0,0,0,.61.07l1.11-.89a.39.39,0,0,0,.06-.62,6.13,6.13,0,0,0-4.58-2,5.91,5.91,0,0,0-5.94,4.61H64.3a5.72,5.72,0,0,0-5.76-4.62,5.91,5.91,0,1,0,.06,11.82,5.75,5.75,0,0,0,4.93-2.56c.14-.24,0-.44-.23-.57l-1.12-.47a.45.45,0,0,0-.62.18,3.75,3.75,0,0,1-6.64-1.69c-.06-.29.12-.46.41-.46h1.11a2.1,2.1,0,0,0,4,0H66A5.9,5.9,0,0,0,72,17.86a6.16,6.16,0,0,0,4.61-2,.39.39,0,0,0-.09-.6Zm-20.27-4.2A3.59,3.59,0,0,1,58.56,8a3.51,3.51,0,0,1,3.33,2.21c.12.31-.06.5-.35.51H60.3a2.09,2.09,0,0,0-1.84-1.11l-.13,0a1.22,1.22,0,0,1,.16.57,1.14,1.14,0,0,1-.13.52H55.54C55.22,10.69,55,10.48,55.17,10.18Z"/><path class="cls-2" d="M84.61,6.29H82.69a.39.39,0,0,1-.44-.44V3.59a.4.4,0,0,0-.44-.44H80.29a.4.4,0,0,0-.44.44V5.85a.39.39,0,0,1-.44.44h-1a.42.42,0,0,0-.45.45v1a.4.4,0,0,0,.45.44h1a.4.4,0,0,1,.44.44v5.77a3.13,3.13,0,0,0,3.46,3.33h1.28a.39.39,0,0,0,.44-.44v-1a.39.39,0,0,0-.44-.44H83.8a1.49,1.49,0,0,1-1.55-1.69V8.57a.4.4,0,0,1,.44-.44h1.92a.4.4,0,0,0,.44-.44v-1A.41.41,0,0,0,84.61,6.29Z"/><path class="cls-2" d="M88.32,1a1.49,1.49,0,1,0,1.49,1.49A1.49,1.49,0,0,0,88.32,1Z"/><path class="cls-2" d="M89.06,6.29H87.55a.41.41,0,0,0-.44.45V17.23a.4.4,0,0,0,.44.44h1.51a.39.39,0,0,0,.44-.44V6.74A.4.4,0,0,0,89.06,6.29Z"/><path class="cls-2" d="M102.45,6.29h-1.61a.48.48,0,0,0-.51.35l-3,7.32c-.15.39-.43.39-.58,0L93.85,6.64a.51.51,0,0,0-.52-.35H91.72c-.33,0-.46.21-.33.51L96,17.34a.52.52,0,0,0,.51.33h1.08a.48.48,0,0,0,.5-.33L102.79,6.8C102.91,6.5,102.79,6.29,102.45,6.29Z"/><circle class="cls-2" cx="11.99" cy="11.99" r="11.99"/><path class="cls-3" d="M.61,12.11C.61,5.49,5.37.12,12,.12c9.93,0-3.4,5.37-3.4,12S18.61,24,12,24C4.56,22.24.61,18.73.61,12.11Z"/><path class="cls-1" d="M11.87,15.77c-3.18,0-5.49-1.26-7.93-3.82C6.4,9.54,8.72,7.73,11.87,7.73a10.92,10.92,0,0,1,8,3.71C17.38,13.9,15.2,15.77,11.87,15.77Z"/><path class="cls-4" d="M20.33,11.11,14.56,7.27,9.77,6.66,8,16.11S17.31,18.1,20.33,11.11Z"/><path class="cls-1" d="M15.1,11.63a6.28,6.28,0,0,1-2.39,4.92c-1.07.85-2.36.34-3.71-.23C5.61,14.9,4,13.7,3.45,12.26c-.19-.52,2.45-5.18,5.92-5.18,1.7,0,2.69-1.06,3.82,0A6.29,6.29,0,0,1,15.1,11.63Z"/><path class="cls-5" d="M12,0A12,12,0,1,0,24,12,12,12,0,0,0,12,0ZM22.71,12.9a15.53,15.53,0,0,0-8.9-6.34,38.07,38.07,0,0,1,7.31-.26A10.75,10.75,0,0,1,22.76,12C22.76,12.29,22.74,12.6,22.71,12.9ZM11.87,15.77c-3.18,0-5.49-1.26-7.93-3.82C6.4,9.54,8.72,7.73,11.87,7.73a10.92,10.92,0,0,1,8,3.71C17.38,13.9,15.2,15.77,11.87,15.77ZM12,1.22a10.73,10.73,0,0,1,8.22,3.83C11.36,4.81,7.79,6.49,3.13,11c-.49-.58-1-1.22-1.5-1.95A10.78,10.78,0,0,1,12,1.22ZM1.3,10.71A15.45,15.45,0,0,0,10.05,17a37.57,37.57,0,0,1-7.45.29A10.66,10.66,0,0,1,1.22,12,10.86,10.86,0,0,1,1.3,10.71ZM12,22.76a10.74,10.74,0,0,1-8.56-4.27l1.6,0c7.81,0,11.22-1.8,15.67-6.19.56.65,1.13,1.4,1.73,2.25A10.79,10.79,0,0,1,12,22.76Zm2.27-11.1a2.27,2.27,0,0,1-4.54,0,2.2,2.2,0,0,1,.13-.73,1.27,1.27,0,0,0,.9.37A1.29,1.29,0,0,0,12,10a1.23,1.23,0,0,0-.16-.61l.12,0A2.27,2.27,0,0,1,14.26,11.66Z"/><circle class="cls-6" cx="10.76" cy="10.02" r="0.72"/></svg>