<svg xmlns="http://www.w3.org/2000/svg" width="282.5" height="97.3" viewBox="0 0 282.5 97.3">
  <path fill="#cf0078" d="M209.1 75.5v-9.6h9.1c1.6 0 2.4.6 2.4 1.9V69c0 .9-.6 1.5-1.8 1.6 1.3.1 1.9.8 1.9 1.8v1.2c0 1.2-1 1.9-3.1 1.9h-8.5zm8-8h-5.6v2.3h5.6c.8 0 1.1-.2 1.1-.7v-.9c.1-.5-.3-.7-1.1-.7zm0 3.8h-5.6v2.4h5.6c.4 0 .7 0 .9-.1.2-.1.3-.4.3-.7v-.7c0-.4-.1-.6-.3-.7-.2-.1-.5-.2-.9-.2z"/>
  <path fill="#727171" d="M224.3 75.5v-9.6h2.5v7.8h8.5v1.8h-11zM238.2 68.2c0-.9.2-1.5.6-1.8.4-.3 1.1-.5 2.1-.5h7.8c1 0 1.7.2 2.1.5.4.3.6.9.6 1.8v5c0 .9-.2 1.5-.6 1.8-.4.3-1.1.5-2.1.5h-7.8c-1 0-1.7-.2-2.1-.5-.4-.3-.6-.9-.6-1.8v-5zm2.5 5.5h8.2v-6.1h-8.2v6.1zM253.4 68.2c0-.9.2-1.5.6-1.8.4-.3 1.1-.5 2.1-.5h7.8c1 0 1.7.2 2.1.5.4.3.6.9.6 1.8v5c0 .9-.2 1.5-.6 1.8-.4.3-1.1.5-2.1.5H256c-1 0-1.7-.2-2.1-.5-.4-.3-.6-.9-.6-1.8v-5zm2.4 5.5h8.2v-6.1h-8.2v6.1zM269.9 75.5v-9.6h1.8l4.5 5.8 4.4-5.8h1.8v9.6h-2.1v-5.9c0-.2 0-.6.1-1-.2.5-.4.8-.6 1l-3.6 4.8h-.4l-3.6-4.8c-.3-.3-.5-.7-.6-1 0 .4.1.7.1 1v5.9h-1.8z"/>
  <g>
    <path fill="#cf0078" d="M125.1 67.6h-7v2.1h6.6c1 0 1.7.2 2.1.5.4.3.6.9.6 1.8v1.3c0 .9-.2 1.5-.6 1.8-.4.3-1.1.5-2.1.5h-6.2c-1 0-1.7-.2-2.1-.5-.4-.3-.6-.9-.6-1.8v-.5h2.2v.9h7.2v-2.2h-6.6c-1 0-1.7-.2-2.1-.5-.4-.3-.6-.9-.6-1.8v-1.1c0-.9.2-1.5.6-1.8.4-.3 1.1-.5 2.1-.5h6c1 0 1.7.1 2 .4.4.3.6.8.6 1.6v.5H125v-.7z"/>
    <path fill="#727171" d="M129.6 75.5l5.6-9.6h2.2l5.6 9.6h-2.6l-1.2-2.1H133l-1.1 2.1h-2.3zm4.4-3.8h4.3l-2.1-3.9-2.2 3.9z"/>
    <path fill="#cf0078" d="M145.5 75.5v-9.6h2.5v4l5.9-4h3.6l-7 4.5 7.9 5.1h-4l-6.4-4.2v4.2h-2.5z"/>
    <path fill="#727171" d="M163 65.9v7.8h7v-7.8h2.5v7.3c0 .9-.2 1.5-.6 1.8-.4.3-1.1.5-2.1.5h-6.7c-1 0-1.7-.2-2.1-.5-.4-.3-.6-.9-.6-1.8v-7.3h2.6zM176.1 75.5v-9.6h9.1c1.6 0 2.4.6 2.4 1.9V70c0 1.2-.8 1.9-2.4 1.9h-1.4l4.9 3.6h-3.5l-4.3-3.6h-2.3v3.6h-2.5zm8-8h-5.6v2.7h5.6c.4 0 .7 0 .8-.1.2-.1.3-.3.3-.7v-1.2c0-.3-.1-.5-.3-.7-.1.1-.4 0-.8 0zM189.5 75.5l6-9.6h2.4l6.1 9.6h-2.8l-1.3-2.1h-6.7l-1.2 2.1h-2.5zm4.8-3.8h4.7l-2.3-3.9-2.4 3.9z"/>
  </g>
  <g>
    <linearGradient id="a" x1="759.552" x2="833.962" y1="-736.036" y2="-754.108" gradientTransform="rotate(20.149 -1760.446 -2480.391)" gradientUnits="userSpaceOnUse">
      <stop offset="0" stop-color="#be3645"/>
      <stop offset=".098" stop-color="#c03247"/>
      <stop offset=".25" stop-color="#c3234a"/>
      <stop offset=".434" stop-color="#c3004c"/>
      <stop offset=".467" stop-color="#c2004c"/>
      <stop offset=".487" stop-color="#c2004e"/>
      <stop offset=".495" stop-color="#c50452"/>
      <stop offset=".5" stop-color="#c9235b"/>
      <stop offset=".505" stop-color="#cf3b68"/>
      <stop offset=".508" stop-color="#d7557b"/>
      <stop offset=".512" stop-color="#e17294"/>
      <stop offset=".515" stop-color="#ed94b5"/>
      <stop offset=".516" stop-color="#f2a5c6"/>
      <stop offset=".531" stop-color="#f098be"/>
      <stop offset=".554" stop-color="#ee8ab6"/>
      <stop offset=".582" stop-color="#ed82b1"/>
      <stop offset=".624" stop-color="#ed7faf"/>
      <stop offset=".632" stop-color="#ed7dae"/>
      <stop offset=".691" stop-color="#eb71a7"/>
      <stop offset=".772" stop-color="#eb6aa3"/>
      <stop offset="1" stop-color="#ea68a2"/>
    </linearGradient>
    <path fill="url(#a)" d="M28.5 25.8C42 26.9 43 36.3 41.9 43.8c2.7-5.7 6.8-13.6 11.4-21 6-9.7 18.2-11.6 30.8-7.4 0 0-26.3-15.5-39.9 10.2-2.7-6-36.1-20.9-44.2 21 6.6-13 17.6-21.7 28.5-20.8z"/>
    <linearGradient id="b" x1="758.495" x2="760.02" y1="-626.505" y2="-653.352" gradientTransform="rotate(12.393 -2732.734 -3521.758)" gradientUnits="userSpaceOnUse">
      <stop offset="0" stop-color="#be3645"/>
      <stop offset=".302" stop-color="#b90044"/>
      <stop offset=".306" stop-color="#cb4c69"/>
      <stop offset=".31" stop-color="#de8497"/>
      <stop offset=".314" stop-color="#edacbe"/>
      <stop offset=".317" stop-color="#f5c5d8"/>
      <stop offset=".319" stop-color="#f8cde0"/>
      <stop offset=".42" stop-color="#f6bfd7"/>
      <stop offset=".671" stop-color="#f19fc3"/>
      <stop offset=".873" stop-color="#ee8ab6"/>
      <stop offset="1" stop-color="#ed82b1"/>
    </linearGradient>
    <path fill="url(#b)" d="M42.7 50.1c.3.6.9 1.1 1.6 1.1 3.9.2 19.3 0 27.8-.2-3.4-1.2-4.4-2-7.9-4.2-5.4-3.5-8.6-8.8-9.2-20.3l-3.2 18.7-9.1 4.9z"/>
    <linearGradient id="c" x1="793.536" x2="768.551" y1="-655.611" y2="-661.363" gradientTransform="rotate(17.855 -1832.376 -2583.605)" gradientUnits="userSpaceOnUse">
      <stop offset=".235" stop-color="#f9d5e5"/>
      <stop offset=".708" stop-color="#ec75a9"/>
      <stop offset="1" stop-color="#e73e90"/>
    </linearGradient>
    <path fill="url(#c)" d="M96.8 53.8c-1.5 0-41.3.3-51.1 0L77 66.2l19.8-12.4z"/>
    <linearGradient id="d" x1="42.565" x2="54.931" y1="37.668" y2="39.15" gradientUnits="userSpaceOnUse">
      <stop offset=".158" stop-color="#e84c95"/>
      <stop offset=".295" stop-color="#e95398"/>
      <stop offset=".481" stop-color="#ea66a1"/>
      <stop offset=".694" stop-color="#ed82b1"/>
      <stop offset=".926" stop-color="#f2a6c7"/>
      <stop offset="1" stop-color="#f4b2cf"/>
    </linearGradient>
    <path fill="url(#d)" d="M42.7 50.1l9.1-5L55 26.4c-5 8.5-9.5 16.7-12.2 21.6-.5.9-.4 1.8.1 2.4-.1-.1-.1-.2-.2-.3z"/>
    <linearGradient id="e" x1="1.33" x2="69.96" y1="47.918" y2="-.137" gradientUnits="userSpaceOnUse">
      <stop offset="0" stop-color="#e4007f"/>
      <stop offset=".034" stop-color="#e4007f"/>
      <stop offset=".272" stop-color="#ec7aac"/>
      <stop offset=".514" stop-color="#f4b2cf"/>
      <stop offset=".721" stop-color="#fadeeb"/>
      <stop offset=".771" stop-color="#f9d4e4"/>
      <stop offset=".867" stop-color="#f4b6d1"/>
      <stop offset=".996" stop-color="#ed81b0"/>
      <stop offset="1" stop-color="#ed7faf"/>
    </linearGradient>
    <path fill="url(#e)" d="M44.2 25.7C57.7 0 84.1 15.5 84.1 15.5 68.6-1.5 45.4-3.2 29.1 4 12.7 11.4.6 28.1 0 46.7c8.1-42 41.5-27.1 44.2-21z"/>
    <linearGradient id="f" x1="26.886" x2="51.028" y1="97.18" y2="50.966" gradientUnits="userSpaceOnUse">
      <stop offset="0" stop-color="#f2a3c5"/>
      <stop offset=".384" stop-color="#f19ec2"/>
      <stop offset=".761" stop-color="#b70046"/>
      <stop offset="1" stop-color="#aa2f3d"/>
    </linearGradient>
    <path fill="url(#f)" d="M45.7 53.8c4.9 3.8 6.6 11.2 2.3 17.9-8.8 13.5-27.1 9.6-42.3 0 12.5 12.9 26.4 17.8 43 17.1C67.1 88 78.2 66.9 77 66.2L45.7 53.8z"/>
    <g>
      <linearGradient id="g" x1="11.79" x2="99.529" y1="90.673" y2="62.41" gradientUnits="userSpaceOnUse">
        <stop offset=".198" stop-color="#a9001e"/>
        <stop offset=".437" stop-color="#d50077"/>
        <stop offset=".68" stop-color="#ed7faf"/>
        <stop offset=".762" stop-color="#ef8fb9"/>
        <stop offset=".909" stop-color="#f2a7c8"/>
      </linearGradient>
      <path fill="url(#g)" d="M77 66.2c1.2.7-9.9 21.8-28.3 22.6-16.6.7-30.5-4.3-43-17.1 0 0 7.4 14.8 23.6 21.6 16.3 6.8 33.9 4.9 48.1-5.3 13.1-9.5 18.7-25 19.4-34.1L77 66.2z"/>
    </g>
  </g>
  <g fill="#cf0078">
    <path d="M153.8 26.2H125v8.5h27.4c4.2 0 7.1.6 8.6 1.9 1.6 1.3 2.3 3.7 2.3 7.4v5.4c0 3.7-.8 6.1-2.3 7.4-1.6 1.3-4.4 1.9-8.6 1.9h-25.7c-4.2 0-7.1-.6-8.6-1.9-1.6-1.3-2.3-3.7-2.3-7.4v-2h9v3.9h29.6v-9H127c-4.2 0-7-.6-8.6-1.9-1.5-1.3-2.3-3.7-2.3-7.4v-4.4c0-3.7.8-6.1 2.3-7.4 1.5-1.3 4.4-1.9 8.6-1.9h25c4 0 6.8.6 8.5 1.8 1.6 1.2 2.4 3.5 2.4 6.8v2h-9v-3.7zM175.9 58.8V19.4h10.3v16.4l24.3-16.4h14.8l-29 18.6 32.6 20.9h-16.4l-26.2-17.4v17.4h-10.4zM234.8 58.8V19.4h37.5c6.6 0 9.9 2.5 9.9 7.6v4.8c0 3.9-2.5 6.1-7.6 6.7 5.3.6 7.9 3.1 7.9 7.6v5c0 5.1-4.3 7.7-12.9 7.7h-34.8zm33.3-33h-23.3v9.4h23.3c3.1 0 4.7-.9 4.7-2.8v-3.7c-.1-2-1.6-2.9-4.7-2.9zm0 15.9h-23.3v10h23.3c1.7 0 2.9-.2 3.6-.5.9-.5 1.4-1.5 1.4-3v-3c0-1.5-.5-2.5-1.4-3-.7-.3-1.9-.5-3.6-.5z"/>
  </g>
</svg>