<?xml version="1.0" encoding="utf-8"?>
<!-- Generator: Adobe Illustrator 22.0.1, SVG Export Plug-In . SVG Version: 6.00 Build 0)  -->
<svg version="1.1" id="Layer_1" xmlns="http://www.w3.org/2000/svg" xmlns:xlink="http://www.w3.org/1999/xlink" x="0px" y="0px"
	 viewBox="0 0 1468.6 219.7" style="enable-background:new 0 0 1468.6 219.7;" xml:space="preserve">
<path d="M87.7,43.8l87.7,66V66L87.7,0V43.8z M0,66l175.4,131.5v-43.8L0,22.2V66z M0,153.7l87.7,66v-44.4L0,109.9V153.7z M259.4,74.8
	c0-11.3,4.6-18.6,15-18.6c10.3,0,15,6.7,15,18.6v4.1h13.9v-3.6c0-19.6-9.3-32.5-28.9-32.5s-28.9,12.4-28.9,32.5
	c0,36.6,43.3,39.2,43.3,68.1c0,11.9-4.6,18.6-15.5,18.6c-10.3,0-15.5-6.7-15.5-18.6v-8.3h-13.4v7.2c0,19.6,9.3,32.5,29.4,32.5
	s29.4-12.9,29.4-32.5C303.3,106.8,259.4,104.2,259.4,74.8z M389.4,44.4H375l-34.6,62.9V44.4H326v130h14.4v-43.8l7.7-12.9l27.9,56.2
	h15l-34-70.7L389.4,44.4z M469.9,138.7c0-13.9-4.6-23.7-16.5-27.3c11.3-3.6,16-12.4,16-26.8V73.8c0-19.1-8.8-29.9-28.9-29.9h-28.9
	v130H426v-54.7h10.3c11.9,0,19.1,4.6,19.1,19.1v20.6c0,8.8,0.5,11.9,2.6,16h14.4c-2.6-4.6-2.6-9.8-2.6-15.5
	C469.9,159.4,469.9,138.7,469.9,138.7z M437.4,105.7h-10.8v-48h13.9c10.8,0,15,6.2,15,18.1v12.4
	C455.4,102.1,448.7,105.7,437.4,105.7z M539,143.9c0,11.9-4.6,18.6-15,18.6c-10.8,0-15.5-7.2-15.5-18.6V44.4h-14.4v98.5
	c0,19.6,9.3,33,28.9,33c20.1,0,29.4-13.4,29.4-33V44.4H539V143.9z M618.4,148.5L597.3,44.9h-20.1v130h12.4V71.2l21.7,103.2h13.9
	l20.6-104.2v104.7h13.9V44.4h-20.1L618.4,148.5z M726.2,105.2c11.3-3.6,15.5-11.9,15.5-25.8v-6.2c0-19.1-7.7-28.9-28.4-28.9h-29.4
	v130h29.9c20.1,0,29.9-10.8,29.9-30.4v-10.8C743.7,118.6,738.6,108.8,726.2,105.2z M698.3,57.8h14.4c10.3,0,14.4,5.7,14.4,17v7.7
	c0,13.4-6.2,17-17.5,17h-11.3L698.3,57.8L698.3,57.8z M729.3,143.9c0,11.9-4.6,17.5-15.5,17.5h-15.5V113h12.4
	c12.4,0,18.1,4.6,18.1,19.1V144h0.5V143.9z M781.4,44.4H767v130h51.6V161h-37.1L781.4,44.4L781.4,44.4z M892.8,57.8V44.4h-53.6v130
	h53.6V161h-39.2v-46.4h32v-12.9h-32V57.3L892.8,57.8L892.8,57.8z"/>
<g>
	<path d="M945.3,80h-0.4v95.6h-18.7v-132h26l20.9,79h0.4v-79H992v132h-21.3L945.3,80z"/>
	<path d="M1027.7,99.3h28.5v18.9h-28.5v38.6h35.8v18.9h-56.6v-132h56.6v18.9h-35.8V99.3z"/>
	<path d="M1070.3,43.6h64.1v18.9h-21.7v113.1H1092V62.5h-21.7V43.6z"/>
	<path d="M1189.6,105.3h-0.4l-7.4,70.3h-28.5l-14.7-132h20.2l10.9,104.1h0.4l9.8-104.1h20l10.2,104.8h0.4l10.6-104.8h18.1l-14.7,132
		H1197L1189.6,105.3z"/>
	<path d="M1247.9,75.3c0-21.1,11.1-33.2,31.5-33.2s31.5,12.1,31.5,33.2v68.6c0,21.1-11.1,33.2-31.5,33.2s-31.5-12.1-31.5-33.2V75.3z
		 M1268.6,145.3c0,9.4,4.1,13,10.7,13s10.7-3.6,10.7-13V74c0-9.4-4.1-13-10.7-13s-10.7,3.6-10.7,13V145.3z"/>
	<path d="M1367.6,175.6c-1.1-3.4-1.9-5.5-1.9-16.2v-20.7c0-12.3-4.1-16.8-13.6-16.8h-7.2v53.7h-20.7v-132h31.3
		c21.5,0,30.7,10,30.7,30.4v10.4c0,13.6-4.3,22.2-13.6,26.6v0.4c10.4,4.3,13.8,14.1,13.8,27.9v20.4c0,6.4,0.2,11.1,2.3,16
		L1367.6,175.6L1367.6,175.6z M1344.9,62.5V103h8.1c7.7,0,12.4-3.4,12.4-14V76c0-9.4-3.2-13.6-10.6-13.6L1344.9,62.5L1344.9,62.5z"
		/>
	<path d="M1427.1,123l-6.4,12.1v40.5H1400v-132h20.7v57.1h0.4l26.8-57.1h20.7l-28.8,58.8l28.8,73.1h-21.3L1427.1,123z"/>
</g>
</svg>
