<?xml version="1.0" encoding="utf-8"?>
<svg version="1.1" id="Layer_1" xmlns="http://www.w3.org/2000/svg" xmlns:xlink="http://www.w3.org/1999/xlink" x="0px" y="0px"
	 viewBox="0 0 590 145" style="enable-background:new 0 0 590 145;" xml:space="preserve">
<style type="text/css">
	.st0{fill:none;}
	.st1{fill:#1FCCBF;}
	.st2{fill:#183E7A;}
	.st3{fill:#036DA1;}
	.st4{fill:#0F3165;}
</style>
<g>
	<g>
		<path class="st0" d="M15.5,32.8L15.5,32.8L15.5,32.8z"/>
		<polygon class="st0" points="77.3,94.6 122,49.9 108,33.2 46.5,33.2 32.5,49.9 30.7,48.1 30.7,48.1 		"/>
		<path class="st1" d="M123.4,51.5L123.4,51.5l-1.4-1.7L77.3,94.6l0,0l0,0v31.5l52.4-52.4c0.2-1.4,0.3-2.8,0.3-4.2
			C130,62.6,127.5,56.4,123.4,51.5z"/>
		<path class="st2" d="M119,9H35.5l-20,23.8l0,0l7.8-9.4c-0.3,1.7-0.5,3.4-0.5,5.2c0,7.5,3,14.4,7.9,19.4l1.8,1.8l14-16.7H108
			l14,16.7l1.4,1.6l0,0c4.1,4.8,6.6,11.1,6.6,18c0,1.4-0.1,2.9-0.3,4.2l0,0l6.7-6.7l0,0l17-17L119,9z"/>
		<path class="st3" d="M77.3,94.6L77.3,94.6L30.7,48.1l0,0c-4.8-5-7.9-11.9-7.9-19.4c0-1.8,0.2-3.5,0.5-5.2l-7.8,9.3l0,0l0,0L1.1,50
			l76.2,76.2V94.6L77.3,94.6z"/>
	</g>
	<path class="st4" d="M188.3,87.7c0,0,7.4,11.3,21.1,11.3c7.1,0,15-3,15-8.6c0-6-5.1-9-15.8-11.1c-14.9-3-25.4-8.9-25.4-22
		c0-10.1,10.1-20,25.6-20c16.4,0,25.7,10.5,25.7,10.5l-8.3,8.6c0,0-6.9-7.7-17.5-7.7c-8.9,0-13.2,4.4-13.2,8.9
		c0,5.3,5.4,8.1,16.8,10.5c13.2,2.9,24.5,7.8,24.5,22c0,13.4-14.1,20.3-27.5,20.3c-19.6,0-29.8-14.6-29.8-14.6L188.3,87.7z"/>
	<path class="st4" d="M265.6,74.9v33.7H253V1.8h12.6v68.1l29.8-30.8h16.5l-32.5,32.8l35.2,36.7H297L265.6,74.9z"/>
	<path class="st4" d="M368.1,39.1l-4.7,11.4c0,0-2.7-1.5-8-1.5c-11,0-15.9,11.7-15.9,11.7v47.8h-12.6V39.1h11.7v10.7
		c0,0,6.2-12.5,19.4-12.5C363.7,37.3,368.1,39.1,368.1,39.1z"/>
	<path class="st4" d="M434,62.9v45.7h-11.6V98.5c0,0-7.8,11.9-23.6,11.9c-12.5,0-25.9-8.7-25.9-23.8c0-13.5,11.9-23.2,27.5-23.2
		c12.8,0,20.9,5.7,20.9,5.7v-3.8c0-14.4-12-16.4-17.6-16.4c-10.5,0-20.8,5.9-20.8,5.9l-5.3-10.5c0,0,10.8-7.1,26-7.1
		C424.2,37.3,434,49.9,434,62.9z M421.3,88.7v-9.8c0,0-6.9-5-18.2-5c-10.8,0-17.6,5.4-17.6,12.6c0,9,8.1,12.6,15.9,12.6
		C413.8,99.3,421.3,88.7,421.3,88.7z"/>
	<path class="st4" d="M462.5,39.1v10.1c0,0,6.9-11.9,23.5-11.9c18.8,0,33.7,16.1,33.7,36.6s-14.9,36.6-33.7,36.6
		c-12.8,0-20-7.2-22.4-12.7v45.5H451V39.1H462.5z M463.5,86.8c0,0,6.6,11.9,20.5,11.9c14.1,0,23-11.1,23-24.8s-8.9-24.8-23-24.8
		c-13.8,0-20.5,11.9-20.5,11.9V86.8z"/>
	<path class="st4" d="M538.3,87.7c0,0,7.4,11.3,21.1,11.3c7.1,0,15-3,15-8.6c0-6-5.1-9-15.8-11.1c-14.9-3-25.4-8.9-25.4-22
		c0-10.1,10.1-20,25.6-20c16.4,0,25.7,10.5,25.7,10.5l-8.3,8.6c0,0-6.9-7.7-17.5-7.7c-8.9,0-13.2,4.4-13.2,8.9
		c0,5.3,5.4,8.1,16.8,10.5c13.2,2.9,24.5,7.8,24.5,22c0,13.4-14.1,20.3-27.5,20.3c-19.6,0-29.8-14.6-29.8-14.6L538.3,87.7z"/>
</g>
</svg>
