<svg id="Слой_1" data-name="Слой 1" xmlns="http://www.w3.org/2000/svg" xmlns:xlink="http://www.w3.org/1999/xlink" viewBox="0 0 709.19483 98.31307"><defs><style>.cls-1{fill:url(#Безымянный_градиент_151);}.cls-2{fill:#231f20;}</style><linearGradient id="Безымянный_градиент_151" x1="44.94554" y1="0.51206" x2="44.94554" y2="97.3406" gradientUnits="userSpaceOnUse"><stop offset="0" stop-color="#6005e1"/><stop offset="0.36603" stop-color="#971ce7"/><stop offset="1" stop-color="#ff46f3"/></linearGradient></defs><title>logo_snovian_space</title><path class="cls-1" d="M79.4756,32.39255a17.47369,17.47369,0,0,0-9.78217-1.36812A16.78583,16.78583,0,0,0,59.658,36.12413a.27333.27333,0,0,1-.39455.0517q-7.1466-3.81418-14.29725-7.62075a2.44275,2.44275,0,0,1-.38009-.23553,9.2117,9.2117,0,0,1-2.46447-2.85944,4.58809,4.58809,0,0,1,.19195-5.01376A10.356,10.356,0,0,1,45.537,17.48253c1.64343-1.02885,3.37577-1.91537,5.06493-2.87182a.36208.36208,0,0,1,.26977-.05625,8.0503,8.0503,0,1,0-2.87913-9.09237c-.01894.05361-.037.10749-.05466.16154l-.01679.05275a6.63351,6.63351,0,0,0-.22259.91855A8.08859,8.08859,0,0,0,47.56475,8.051c0,.25646.01332.50974.03677.76007a.4255.4255,0,0,1-.02258.082q-2.54064,1.42459-5.08115,2.84943-2.73947,1.5387-5.47578,3.083a.37393.37393,0,0,1-.49082-.0406,12.86462,12.86462,0,0,0-3.53959-2.03845,14.65689,14.65689,0,0,0-3.27635-.78615c-.11139-.04309-.23378.00767-.34458-.04037l-.44825-.01408a8.33943,8.33943,0,0,0-1.16142.00044l-.40685.01391c-.10664.05043-.2253-.00337-.33294.0384-.12986.02068-.25918.0459-.38964.06136a12.77176,12.77176,0,0,0-4.00179,1.14957,12.95817,12.95817,0,0,0-4.51909,3.50378,13.31187,13.31187,0,0,0-2.28634,3.96192,12.63527,12.63527,0,0,0-.70257,2.96034c-.04134.09115.00479.1944-.03946.28516l-.01584.29635c-.04316.14727.015.30326-.03866.44961L15.027,25.8371c.05562.14708-.0055.30478.04122.45267l.01382.24593c.04552.0897-.00149.1922.03914.28257a13.8612,13.8612,0,0,0,.23166,1.36794,12.67657,12.67657,0,0,0,1.43506,3.66709,13.04084,13.04084,0,0,0,3.0877,3.6523,13.81682,13.81682,0,0,0,2.95734,1.84993,12.58562,12.58562,0,0,0,1.88232.693,11.24247,11.24247,0,0,0,2.20035.40722c.09185.03646.194-.00609.285.03715l.34916.01528a16.13964,16.13964,0,0,0,1.63706-.00122l.30089-.01337c.10659-.05092.226.00518.33331-.03989.12674-.02042.25307-.04379.38025-.06082a12.9088,12.9088,0,0,0,3.69174-1.09431,17.97712,17.97712,0,0,0,2.05236-1.18091c.47976-.35581.75167-.51416,1.096-.81142.26149-.22575.272-.23417.56924-.07409,1.48808.80134,2.98155,1.59266,4.47247,2.38871,1.21142.64681,2.42648,1.2869,3.638,1.93355,1.73947.92846,3.4717,1.87111,5.22224,2.778a7.27018,7.27018,0,0,1,2.16817,1.60878,3.81565,3.81565,0,0,1,.70013,4.55766,7.66267,7.66267,0,0,1-3.05837,3.09788c-1.69868,1.002-3.41088,1.98141-5.1156,2.97331-3.43226,1.99706-6.87,3.98478-10.29626,5.9921l-.01452.00769a21.42954,21.42954,0,1,0,7.534,16.31293,21.56172,21.56172,0,0,0-.32435-3.731q1.34422-.77982,2.68677-1.5626,2.0691-1.20184,4.13945-2.40156,2.35106-1.36546,4.70115-2.73259,2.37366-1.37812,4.7487-2.75386c.8391-.48684,1.67677-.9761,2.5172-1.46063l.0093-.00558A17.59939,17.59939,0,1,0,79.4756,32.39255Z"/><path class="cls-2" d="M512.47142,74.92129c0,5.0946.00449,10.45069-.00182,15.80676-.00327,2.74149-.65179,3.39638-3.35537,3.40383-2.681.00739-5.36231.02614-8.04288-.00764-1.89769-.02391-2.76387-.80851-2.76176-2.63662.01562-13.34026-.19054-26.68764.18077-40.01863.34675-12.448,8.28295-21.6203,20.205-23.69746,9.8619-1.71824,18.31715,1.28264,24.35135,9.3875,6.10492,8.19986,6.748,17.30241,2.08243,26.33756-4.63246,8.971-12.46638,13.27783-22.52751,13.06767C519.28836,76.49506,515.99408,75.51965,512.47142,74.92129Zm21.4599-22.99724c-.02025-6.37283-4.58719-11.02107-10.78387-10.97583-6.20314.04528-10.69211,4.7184-10.66723,11.10474.02479,6.36342,4.61058,11.02554,10.79594,10.97561C529.49061,62.97841,533.95166,58.32923,533.93132,51.92405Z"/><path class="cls-2" d="M360.6613,74.75568c-8.15468,3.1447-16.50615,2.75175-24.27393-2.5886a24.69045,24.69045,0,0,1,14.93732-44.83591c12.91983.34047,23.06967,9.52517,24.00823,22.42248.5867,8.06236.28336,16.19065.33747,24.28964a2.26174,2.26174,0,0,1-2.55013,2.45785c-2.99825.01756-6.00483.1313-8.99048-.06324C363.10713,76.37127,362.13679,75.50173,360.6613,74.75568Zm.84487-22.76816c.00089-6.37247-4.537-11.04-10.73283-11.03934-6.20368.00064-10.71791,4.65092-10.7184,11.04135-.00049,6.38936,4.51133,11.03522,10.72062,11.039C356.969,63.0324,361.50528,58.36491,361.50617,51.98752Z"/><path class="cls-2" d="M587.526,74.76746c-9.62094,3.50011-18.942,2.56295-27.01354-4.82365a24.65561,24.65561,0,0,1,17.68641-42.61039c13.33957.3835,23.37714,10.02333,24.09791,23.61515.40484,7.6353.17,15.305.20261,22.95922a2.32745,2.32745,0,0,1-2.61673,2.59612c-2.93453.0123-5.8787.13984-8.79868-.0661C590.00449,76.36167,588.98168,75.48078,587.526,74.76746ZM566.87323,51.99858c.00234,6.38711,4.5212,11.03248,10.72967,11.03,6.19481-.00248,10.72378-4.67019,10.72158-11.05011-.0022-6.37052-4.54711-11.03739-10.74192-11.03029C571.37791,40.95528,566.87089,45.60587,566.87323,51.99858Z"/><path class="cls-2" d="M675.4407,57.58765a10.2532,10.2532,0,0,0,11.79719,7.62317c2.006-.325,3.87418-1.47167,5.82079-2.202a14.55617,14.55617,0,0,1,3.708-1.19892c2.6026-.21442,5.23079-.17783,7.84733-.14637,2.35257.02829,2.98644,1.09041,1.98866,3.186a18.11859,18.11859,0,0,1-9.06532,9.245c-9.66116,4.21128-19.10723,3.66965-27.76022-2.54635-8.03853-5.77461-11.20312-16.74736-8.26316-27.02A24.16218,24.16218,0,0,1,682.186,27.38109c15.81257-1.92683,28.67154,10.18449,26.83339,27.88754a2.30882,2.30882,0,0,1-2.35631,2.28494c-.57162.04438-1.14825.03333-1.72258.03343q-13.59994.00236-27.19992.00064C676.98756,57.58763,676.23448,57.58765,675.4407,57.58765Zm-.12413-10.8811h19.55926c-.53622-3.72506-3.83915-6.56962-8.02712-6.95906C681.14878,39.21745,676.98233,41.67774,675.31657,46.70655Z"/><path class="cls-2" d="M230.05808,76.656a24.668,24.668,0,1,1,24.8282-24.54524A24.51774,24.51774,0,0,1,230.05808,76.656Zm10.75924-24.59588c.02776-6.3889-4.45425-11.06107-10.66006-11.11235-6.19361-.05118-10.76922,4.59945-10.792,10.96891-.02289,6.405,4.43926,11.06136,10.64863,11.112C236.20344,63.07928,240.78968,58.42291,240.81732,52.06017Z"/><path class="cls-2" d="M648.72756,46.30564c-.76567-.00005-1.53583-.05353-2.29626.00961a7.04536,7.04536,0,0,1-6.69656-2.59648c-2.46342-2.96433-7.88887-3.402-11.76347-1.56719a10.69852,10.69852,0,0,0-5.87336,10.90126,10.1639,10.1639,0,0,0,7.23423,9.187c4.42448,1.20024,8.43032.57,11.62765-3.17169a4.56876,4.56876,0,0,1,2.89571-1.44966c3.1796-.18476,6.3774-.11407,9.56664-.05719,2.439.0435,3.00918.94974,2.24622,3.32342-2.91189,9.05953-11.58822,15.31206-21.85936,15.75278-12.85405.55156-23.7527-8.229-25.51377-20.55533-1.89137-13.23831,5.43967-24.75777,17.84711-28.04345C638.62185,24.734,651.39564,31.05666,655.483,42.5615c1.05181,2.9606.53519,3.72416-2.54419,3.74276C651.53506,46.31274,650.13131,46.3057,648.72756,46.30564Z"/><path class="cls-2" d="M117.70775,59.91894c1.02156,0,2.05125.08239,3.063-.01732a4.19615,4.19615,0,0,1,4.53452,2.33078c1.46728,2.52034,7.84551,2.95251,9.91968.89956a2.45176,2.45176,0,0,0-.58493-4.032,29.17283,29.17283,0,0,0-5.23585-1.71767c-3.19774-.85463-6.49646-1.39444-9.61555-2.46592-4.96971-1.70722-8.18483-5.1407-8.74492-10.56072-.58064-5.61887,1.12979-10.34694,5.867-13.704,6.684-4.73673,18.5831-4.99538,25.49825-.59443a14.56963,14.56963,0,0,1,6.80783,10.39091c.39179,2.41678-.27828,3.18726-2.7,3.216-2.80891.03333-5.61926-.03-8.42747.0254a3.00335,3.00335,0,0,1-2.9369-1.68682,6.17084,6.17084,0,0,0-8.31492-2.048,2.57128,2.57128,0,0,0,.17881,4.71877,45.74127,45.74127,0,0,0,6.57051,1.92321c2.82481.76427,5.72119,1.31367,8.479,2.26722,11.28874,3.90323,10.13546,18.64678,3.19875,23.5855a21.71245,21.71245,0,0,1-9.86873,3.8608c-5.3257.7184-10.58316.51678-15.58843-1.70323a14.6349,14.6349,0,0,1-9.08162-11.69109c-.32127-2.02967.35267-2.90395,2.38546-2.978,1.53028-.05573,3.06423-.011,4.59654-.011Z"/><path class="cls-2" d="M460.96806,59.91981c.89387-.00089,1.79351.06456,2.68045-.01383,2.19061-.19363,3.81483.27625,5.0547,2.44936,1.39585,2.44645,7.74491,2.77471,9.79034.79825a2.48335,2.48335,0,0,0-.69425-4.13992,31.928,31.928,0,0,0-5.25956-1.65522c-3.19733-.85525-6.48974-1.42114-9.60389-2.5058-4.98137-1.735-8.105-5.24077-8.6171-10.65516-.52488-5.54912,1.19474-10.20988,5.858-13.52727,6.66777-4.74332,18.575-5.01982,25.49794-.63127A14.65082,14.65082,0,0,1,492.48169,40.226c.47139,2.60816-.2093,3.41778-2.83159,3.44149-2.74521.02482-5.49158-.03294-8.23594.022a3.00778,3.00778,0,0,1-2.95389-1.65825,5.976,5.976,0,0,0-8.10751-2.13983,3.365,3.365,0,0,0-1.50412,2.37305,3.02745,3.02745,0,0,0,1.43733,2.37288,62.1228,62.1228,0,0,0,6.751,1.98158c2.82341.7698,5.71944,1.32934,8.46858,2.3052,11.057,3.92485,9.95815,18.40967,3.2274,23.3863a21.34355,21.34355,0,0,1-10.01306,3.99386c-5.32541.72422-10.58216.52871-15.5896-1.68662a14.57382,14.57382,0,0,1-9.066-11.483c-.39284-2.34876.2614-3.15935,2.69-3.20876C458.15829,59.89733,459.56342,59.9207,460.96806,59.91981Z"/><path class="cls-2" d="M198.2973,60.79958c0,4.21228.01227,8.42463-.00485,12.63684-.00946,2.32763-.75616,3.0549-3.10926,3.06931q-3.73348.02286-7.4672.00108c-2.47788-.01184-3.20487-.71988-3.20784-3.1646-.00969-7.9778.01587-15.9557-.01588-23.93339a6.59085,6.59085,0,0,0-3.92011-6.28983,6.497,6.497,0,0,0-7.19508.7785,6.888,6.888,0,0,0-2.67334,5.85706q.03313,11.67942.0058,23.359c-.002,2.735-.65293,3.38645-3.36385,3.39419-2.48905.00711-4.97832.019-7.46718-.004-2.12869-.01966-2.94692-.78091-2.951-2.8387-.0166-8.36068-.10151-16.723.02744-25.08175A20.67061,20.67061,0,0,1,176.058,28.65877c10.64219-.73514,20.42031,6.64116,21.7866,17.0542C198.49383,50.66114,198.18358,60.7992,198.2973,60.79958Z"/><path class="cls-2" d="M424.34943,60.92462c0,4.08463.00608,8.16928-.00222,12.25389-.00536,2.62387-.68092,3.31717-3.2369,3.3284-2.489.01093-4.97823.01528-7.46719-.00142-2.33812-.0157-3.07882-.75087-3.08214-3.097-.01125-7.97778.00863-15.95562-.01265-23.93337a6.63318,6.63318,0,0,0-3.86541-6.32754,6.49485,6.49485,0,0,0-7.20212.70982,6.83062,6.83062,0,0,0-2.72313,5.83112q.02469,11.67944.00423,23.359c-.00171,2.83879-.62849,3.45556-3.48953,3.46085-2.48907.00461-4.97844.02369-7.46714-.007-1.99167-.02457-2.8206-.81249-2.82439-2.77039-.01639-8.48827-.14639-16.98.04581-25.46406.23284-10.27777,8.90223-18.98491,19.20819-19.61433,10.59979-.64736,20.30178,6.6824,21.65025,16.9951C424.54032,50.65877,424.23239,60.92414,424.34943,60.92462Z"/><path class="cls-2" d="M279.26267,58.29938c2.71216-8.70653,5.28671-16.96892,7.85963-25.23182.97576-3.13366,1.19413-3.29987,4.40247-3.30091,2.68181-.00087,5.36369-.01117,8.0454.00329,2.57971.01391,3.2007.872,2.3156,3.34586-2.5549,7.14123-5.15121,14.26765-7.72863,21.40084-2.31742,6.41355-4.68181,12.81085-6.91689,19.253-.69166,1.99347-1.8095,2.87311-3.94223,2.78256-2.86821-.12177-5.74613-.06871-8.61855-.0164a2.98771,2.98771,0,0,1-3.22366-2.131Q263.935,53.5389,256.40808,32.67518c-.67932-1.89239.00546-2.85979,1.97708-2.89194,3.25562-.05308,6.51286.00229,9.76917-.0218,1.82971-.01353,2.51131,1.12056,2.98315,2.66236,2.40594,7.86152,4.85542,15.70972,7.29671,23.56039C278.63467,56.62892,278.88788,57.25725,279.26267,58.29938Z"/><path class="cls-2" d="M322.05132,53.14265q0,10.05308-.003,20.10616c-.00337,2.57685-.69465,3.25-3.3068,3.25846-2.6808.00865-5.36191.02492-8.04236-.00635-1.98571-.02316-2.812-.81657-2.81435-2.78067q-.02512-20.58484.00023-41.16973c.00243-1.96073.83007-2.75214,2.82167-2.77522,2.74427-.0318,5.48924-.021,8.23379-.00471,2.35192.01393,3.10155.74584,3.10613,3.07442Q322.06657,42.99379,322.05132,53.14265Z"/><path class="cls-2" d="M447.33354,69.44647a7.45362,7.45362,0,1,1-7.35085-7.49108A7.48667,7.48667,0,0,1,447.33354,69.44647Z"/><path class="cls-2" d="M322.04744,19.21066a7.08364,7.08364,0,1,1-7.05606-7.064A7.10763,7.10763,0,0,1,322.04744,19.21066Z"/></svg>