<svg width="128" height="128" viewBox="0 0 128 128" fill="none" xmlns="http://www.w3.org/2000/svg">
<path d="M64 128C99.3462 128 128 99.3462 128 64C128 28.6538 99.3462 0 64 0C28.6538 0 0 28.6538 0 64C0 99.3462 28.6538 128 64 128Z" fill="black"/>
<path fill-rule="evenodd" clip-rule="evenodd" d="M43.6588 62.3812C44.0676 52.1536 47.7496 44.7896 61.2504 43.562C61.4548 43.562 61.6592 43.562 61.864 43.562H94.5924L99.9108 36.1982C100.934 34.7663 99.9108 32.9253 98.2744 32.9253H26.067C24.4306 32.9253 23.4078 34.9709 24.4306 36.1982L43.6588 62.3812ZM72.5008 73.6316L89.0696 51.1308H61.864C59.8184 51.1308 57.9772 49.4944 57.9772 47.244C48.1588 49.4944 45.9088 54.4036 44.2724 62.3812H64.3184H64.5232H64.7276C75.16 62.7904 75.3644 67.904 72.5008 73.6316ZM17.0667 31.2889L60.6364 117.61C61.4548 119.042 63.5004 119.042 64.3184 117.61L70.2508 105.951L62.4776 94.2916L17.0667 31.2889ZM64.3184 70.154H49.386L60.432 85.2912C61.2504 86.314 62.8868 86.314 63.7048 85.2912L68.614 78.5408L70.4552 76.086C70.6596 75.8816 70.6596 75.6772 70.8644 75.4724C72.0916 70.5632 72.91 65.654 67.5916 64.4268C67.796 65.0404 68.0004 65.654 68.0004 66.2676C68.2052 68.5176 66.5688 70.154 64.3184 70.154ZM68.614 85.9048L64.3184 92.0412L71.8872 103.087L72.91 101.042L108.093 31.2889L68.614 85.9048Z" fill="white"/>
</svg>
