<svg width="41" height="42" viewBox="0 0 41 42" version="1.1" xmlns="http://www.w3.org/2000/svg" xmlns:xlink="http://www.w3.org/1999/xlink">
<title>SPANK_Icon</title>
<desc>Created using Figma</desc>
<g id="Canvas" transform="translate(803 230)">
<g id="SPANK_Icon">
<g id="Home">
<g id="Home v. 3">
<g id="Group 3">
<g id="Oval 5">
<use xlink:href="#path0_fill" transform="translate(-799.817 -227.349)" fill="#FFFFFF"/>
</g>
<g id="Rectangle 6 Copy 2">
<use xlink:href="#path1_fill" transform="translate(-803 -230)" fill="#FF3B81"/>
</g>
<g id="S">
<use xlink:href="#path2_fill" transform="translate(-793.731 -224.819)" fill="#FF3B81"/>
</g>
<g id="!">
<use xlink:href="#path3_fill" transform="matrix(0.987688 0.156434 -0.156434 0.987688 -776.894 -217.971)" fill="#FF3B81"/>
</g>
</g>
</g>
</g>
</g>
</g>
<defs>
<path id="path0_fill" d="M 17.5 35C 27.165 35 35 27.165 35 17.5C 35 7.83502 27.165 0 17.5 0C 7.83502 0 0 7.83502 0 17.5C 0 27.165 7.83502 35 17.5 35Z"/>
<path id="path1_fill" fill-rule="evenodd" d="M 6.44022 32.4006L 6.44022 32.6677L 3.69107 32.6677L 3.69107 27.626L 3.60581 27.9049L 0.976783 27.1011L 2.46198 22.2432L 2.27915 22.5143L 1.96936e-09 20.977L 2.84788 16.7548L 2.57628 16.9748L 0.846184 14.8383L 4.94449 11.5195L 4.42079 11.7206L 3.43559 9.15401L 8.33064 7.27498L 7.75855 7.31498L 7.56678 4.57253L 12.6918 4.21416L 12.2291 4.10733L 12.8475 1.42865L 17.7432 2.55889L 17.4347 2.38083L 18.8093 2.69008e-09L 23.0792 2.46523L 22.913 2.28703L 24.9236 0.412115L 28.2487 3.97783L 28.1779 3.83251L 30.6488 2.62737L 32.7819 7.00086L 32.7625 6.87848L 35.4778 6.44842L 36.2778 11.4995L 36.3347 11.1399L 39.05 11.57L 38.2381 16.6967L 38.4388 16.285L 40.9097 17.4902L 38.6219 22.1809L 38.9562 21.8224L 40.9668 23.6973L 37.4124 27.509L 37.8427 27.2605L 39.2173 29.6414L 34.7493 32.221L 35.1988 32.1172L 35.8172 34.7959L 30.8803 35.9357L 31.2607 35.9623L 31.0689 38.7047L 26.1271 38.3591L 26.3789 38.4558L 25.3937 41.0224L 20.6632 39.2065L 20.9621 39.4486L 19.232 41.5851L 15.3275 38.4233L 15.5203 38.709L 13.2411 40.2463L 10.4501 36.1084L 10.5331 36.3798L 7.90266 37.184L 6.44022 32.4006ZM 6.44022 29.1339L 8.15728 28.609L 9.49172 32.9738L 10.9764 31.9724L 13.5138 35.7343L 14.6471 34.3348L 18.1637 37.1824L 18.7927 35.5438L 23.0304 37.1705L 23.1546 35.3954L 27.6892 35.7125L 27.2812 33.9451L 31.7265 32.9188L 30.8055 31.3235L 34.7734 29.0326L 33.4144 27.7653L 36.5488 24.4041L 34.8767 23.5885L 36.8925 19.4555L 35.0636 19.1658L 35.7824 14.6274L 34.0336 14.9043L 33.3151 10.3678L 31.74 11.136L 29.7387 7.03274L 28.4549 8.22993L 25.3581 4.909L 24.472 6.44378L 20.5518 4.18049L 20.1467 5.93526L 15.7366 4.91711L 15.8646 6.74815L 11.3376 7.06471L 12.007 8.8085L 7.74443 10.4447L 8.89128 11.861L 5.3127 14.7589L 6.82309 15.7776L 4.24315 19.6025L 5.98159 20.134L 4.63399 24.5418L 6.44022 24.5418L 6.44022 29.1339Z"/>
<path id="path2_fill" d="M 10.6761 18.3918C 10.6761 17.7082 10.4349 17.1854 9.95232 16.8235C 9.46978 16.4536 8.60122 16.0676 7.34662 15.6654C 6.09203 15.2553 5.09881 14.8532 4.36696 14.4591C 2.37247 13.3814 1.37523 11.9298 1.37523 10.1042C 1.37523 9.15522 1.64063 8.31078 2.17142 7.57089C 2.71025 6.82295 3.47829 6.23989 4.47553 5.82169C 5.48081 5.40349 6.60673 5.19439 7.85329 5.19439C 9.10788 5.19439 10.2258 5.4236 11.2069 5.88201C 12.1881 6.33238 12.9481 6.97174 13.4869 7.80009C 14.0338 8.62845 14.3072 9.56939 14.3072 10.6229L 10.6882 10.6229C 10.6882 9.8187 10.4349 9.19543 9.92819 8.7531C 9.42153 8.30273 8.70979 8.07755 7.79297 8.07755C 6.90832 8.07755 6.2207 8.26654 5.73012 8.64453C 5.23955 9.01448 4.99426 9.50506 4.99426 10.1163C 4.99426 10.6873 5.27976 11.1658 5.85076 11.5518C 6.4298 11.9378 7.27826 12.2997 8.39614 12.6375C 10.455 13.2568 11.9548 14.0248 12.8958 14.9416C 13.8367 15.8585 14.3072 17.0005 14.3072 18.3676C 14.3072 19.8876 13.7322 21.0819 12.5821 21.9505C 11.4321 22.811 9.88396 23.2413 7.93773 23.2413C 6.58663 23.2413 5.35616 22.996 4.24632 22.5054C 3.13649 22.0068 2.28803 21.3272 1.70094 20.4667C 1.1219 19.6062 0.832376 18.6089 0.832376 17.475L 4.46347 17.475C 4.46347 19.4131 5.62155 20.3822 7.93773 20.3822C 8.79825 20.3822 9.46978 20.2093 9.95232 19.8635C 10.4349 19.5097 10.6761 19.0191 10.6761 18.3918Z"/>
<path id="path3_fill" fill-rule="evenodd" d="M 4.94118 4.69592e-07L 3.49312 13.1162L 0.62241 13.3671L 0.711325 0.0660434L 4.94118 4.69592e-07ZM 4.14093 14.3578L 3.9504 18.9412L 6.26123e-07 18.4392L 0.190533 14.0408L 4.14093 14.3578Z"/>
</defs>
</svg>
