<svg xmlns="http://www.w3.org/2000/svg" viewBox="0 0 1686.16 498.37"><defs><style>.cls-1{fill:#00a372;}.cls-2{fill:#6fc393;}.cls-3{fill:#ffdd15;}.cls-4{fill:#fff;}.cls-5{fill:#e4e7e7;}</style></defs><title>Asset 2</title><g id="Layer_2" data-name="Layer 2"><g id="Layer_1-2" data-name="Layer 1"><polygon class="cls-1" points="0 0 40 447.62 219.74 498.37 399.49 447.62 439.49 0 0 0"/><polygon class="cls-2" points="220.21 460.37 366.28 419.05 400.07 34.95 220.21 34.95 220.21 460.37"/><polygon class="cls-3" points="220.21 403.87 220.39 403.82 220.21 403.76 220.21 403.87"/><polygon class="cls-3" points="220.21 345.35 220.39 345.29 220.21 345.24 220.21 345.35"/><polygon class="cls-4" points="362.59 92.35 352.38 207.4 295.88 207.4 301.09 148.64 219.92 148.64 219.92 92.35 362.59 92.35"/><polygon class="cls-4" points="285.68 285.41 342.19 285.41 334.58 371.16 219.99 403.76 219.99 345.35 219.99 345.25 281.94 327.62 285.68 285.41"/><polygon class="cls-5" points="219.92 92.35 219.92 148.64 141.62 148.64 157.68 327.62 219.81 345.29 220 345.34 220 403.76 219.81 403.81 105.05 371.16 80.11 92.35 219.92 92.35"/><path class="cls-4" d="M525.29,101.23h37.85q26.31,0,40.75,14.14t14.45,39.83q0,25.86-14.45,40.07t-40.75,14.22H525.29Zm36.94,95.18q40,0,40-41.21,0-40.89-40-40.9H541v82.11Z"/><path class="cls-4" d="M639.78,209.49V101.23h15.66V209.49Z"/><path class="cls-4" d="M693.07,207.36a50.06,50.06,0,0,1-18-10l5.63-11.55A53.5,53.5,0,0,0,697.1,195a59.27,59.27,0,0,0,19.16,2.89q12.15,0,18.85-4.56a14.74,14.74,0,0,0,6.69-12.93,11.47,11.47,0,0,0-6.23-10.56q-6.24-3.57-19.77-6.62A111.56,111.56,0,0,1,694.66,157a32.42,32.42,0,0,1-12.92-9.58q-4.71-6-4.71-15.43a28.51,28.51,0,0,1,5-16.65A33,33,0,0,1,696.26,104a52.52,52.52,0,0,1,21.21-4,64.06,64.06,0,0,1,21.36,3.5,45.54,45.54,0,0,1,16.65,9.88L749.86,125a53.1,53.1,0,0,0-15.36-9.2,47.61,47.61,0,0,0-16.88-3q-11.7,0-18.39,5a15.81,15.81,0,0,0-6.69,13.45,12.41,12.41,0,0,0,5.85,11.1q5.85,3.79,18.78,6.84a148.1,148.1,0,0,1,21.89,6.39,34,34,0,0,1,13.38,9.12q5,5.77,5,14.9a27.38,27.38,0,0,1-5,16.42,32.26,32.26,0,0,1-14.37,10.87q-9.35,3.88-22,3.88A75,75,0,0,1,693.07,207.36Z"/><path class="cls-4" d="M800.64,209.49V114.3H764V101.23h89.1V114.3H816.46v95.19Z"/><path class="cls-4" d="M954.36,209.49H937.79l-13.54-36q-2.13-5.77-6.23-8t-11.25-2.21H883.05v46.23H867.54V101.23h44.55q17.79,0,27.29,7.9t9.51,22.66q0,10.65-5.63,18.09t-16,10.49q9.44,1.68,13.69,13.38Zm-44.09-58.85q11.85,0,17.63-4.63t5.78-13.92q0-9.27-5.7-13.76t-17.71-4.48H883.05v36.79Z"/><path class="cls-4" d="M973.52,209.49V101.23h15.66V209.49Z"/><path class="cls-4" d="M1092.72,163.11q5.17,6.84,5.17,16.88,0,14-9.65,21.74t-27,7.76h-46.83V101.23h45.31q16.73,0,26.07,7.45t9.35,20.83a24.51,24.51,0,0,1-17,24.17Q1087.56,156.27,1092.72,163.11Zm-62.79-14.9h27.36q22.67,0,22.66-17.48,0-16.89-22.66-16.88h-27.36Zm47.13,44.32q5.48-4.34,5.47-13.45,0-9.29-5.55-13.76t-17.25-4.49h-29.8v36h29.8Q1071.58,196.87,1077.06,192.53Z"/><path class="cls-4" d="M1129.14,199.45q-11.17-11.25-11.18-33V101.23h15.36v66.29q0,15.06,7.22,22.73t21.36,7.68q14,0,21.21-7.75t7.23-22.66V101.23h15.51v65.23q0,21.73-11.18,33T1161.9,210.7Q1140.32,210.7,1129.14,199.45Z"/><path class="cls-4" d="M1256.17,209.49V114.3h-36.64V101.23h89.1V114.3H1272v95.19Z"/><path class="cls-4" d="M1323.07,209.49V101.23h70.25V114h-54.74v34.06h51.7v12.77h-51.7v35.88h54.74v12.78Z"/><path class="cls-4" d="M1412.93,101.23h37.86q26.3,0,40.75,14.14T1506,155.2q0,25.86-14.44,40.07t-40.75,14.22h-37.86Zm37,95.18q40,0,40-41.21,0-40.89-40-40.9h-21.29v82.11Z"/><path class="cls-4" d="M545.58,386.4a44.9,44.9,0,0,1-17.86-19.24q-6.24-12.46-6.24-29.49t6.24-29.35a44.47,44.47,0,0,1,17.86-19.16q11.64-6.69,27.3-6.69a60.45,60.45,0,0,1,20.6,3.42,43,43,0,0,1,16,10L604,307.41a54.62,54.62,0,0,0-15-9.05,44.76,44.76,0,0,0-16-2.81q-16.87,0-26.08,10.95t-9.2,31.17q0,20.37,9.2,31.39t26.08,11a44.54,44.54,0,0,0,16-2.82,54.33,54.33,0,0,0,15-9l5.48,11.55a42.85,42.85,0,0,1-16,10,60.45,60.45,0,0,1-20.6,3.42Q557.2,393.16,545.58,386.4Z"/><path class="cls-4" d="M647.45,386.4A45,45,0,0,1,630,367.16q-6.16-12.46-6.16-29.34t6.08-29.5a44,44,0,0,1,17.49-19.16q11.4-6.69,26.76-6.69,15.51,0,26.83,6.69a44,44,0,0,1,17.41,19.16q6.09,12.46,6.09,29.35t-6.09,29.49A44.37,44.37,0,0,1,700.9,386.4q-11.4,6.77-26.76,6.76T647.45,386.4Zm52-17.11q9-11.1,9-31.62t-9-31.4q-9.06-11-25.32-11t-25.24,11q-9,11-9,31.4t9,31.62q9,11.1,25.17,11.1T699.46,369.29Z"/><path class="cls-4" d="M837.13,283.69h12.62V392H835.61V317.6L803.53,392h-10.8l-32.53-73.9.15,73.9H746.21V283.69h12.62l39.38,89.4Z"/><path class="cls-4" d="M875.14,283.69h45q17,0,26.53,8.29t9.51,22.57q0,14.29-9.66,22.58t-26.38,8.29H890.81V392H875.14ZM918.33,333q11.25,0,16.95-4.71t5.7-13.69q0-8.81-5.7-13.53t-16.95-4.71H890.81V333Z"/><path class="cls-4" d="M985.76,381.91q-11.18-11.25-11.18-33V283.69h15.36V350q0,15.06,7.22,22.73t21.37,7.68q14,0,21.2-7.75T1047,350V283.69h15.51v65.23q0,21.74-11.18,33t-32.76,11.25Q996.93,393.16,985.76,381.91Z"/><path class="cls-4" d="M1112.79,392V296.76h-36.64V283.69h89.1v13.07h-36.64V392Z"/><path class="cls-4" d="M1179.69,392V283.69h70.25v12.77H1195.2v34.06h51.7v12.77h-51.7v35.88h54.74V392Z"/><path class="cls-4" d="M1310.15,392V283.69h15.66v95.18h52.61V392Z"/><path class="cls-4" d="M1475.27,392l-11.56-26.76H1409L1397.42,392h-16l48.19-108.26h13.23L1491.23,392Zm-61-39.23h44.09l-22.05-51.55Z"/><path class="cls-4" d="M1583.53,345.57q5.16,6.84,5.17,16.88,0,14-9.66,21.74t-27,7.76h-46.83V283.69h45.31q16.73,0,26.08,7.45T1586,312a24.52,24.52,0,0,1-17,24.17Q1578.35,338.74,1583.53,345.57Zm-62.8-14.9h27.37q22.65,0,22.65-17.48,0-16.89-22.65-16.88h-27.37ZM1567.87,375q5.48-4.33,5.47-13.45,0-9.29-5.55-13.76t-17.26-4.49h-29.8v36h29.8Q1562.4,379.33,1567.87,375Z"/><path class="cls-4" d="M1621.77,389.82a50.06,50.06,0,0,1-18-10l5.63-11.55a53.39,53.39,0,0,0,16.42,9.27,59.25,59.25,0,0,0,19.15,2.89q12.16,0,18.86-4.56a14.73,14.73,0,0,0,6.69-12.92,11.47,11.47,0,0,0-6.24-10.57q-6.23-3.57-19.76-6.62a111.56,111.56,0,0,1-21.14-6.31,32.5,32.5,0,0,1-12.92-9.57q-4.71-6-4.71-15.44a28.51,28.51,0,0,1,5-16.65A33,33,0,0,1,1625,286.5a52.52,52.52,0,0,1,21.21-4,64.06,64.06,0,0,1,21.36,3.5,45.68,45.68,0,0,1,16.65,9.88l-5.62,11.56a53.1,53.1,0,0,0-15.36-9.2,47.61,47.61,0,0,0-16.88-3q-11.7,0-18.4,4.95a15.83,15.83,0,0,0-6.69,13.45,12.41,12.41,0,0,0,5.86,11.1q5.85,3.81,18.78,6.84a148.1,148.1,0,0,1,21.89,6.39,34.11,34.11,0,0,1,13.38,9.12q5,5.79,5,14.9a27.38,27.38,0,0,1-5,16.42,32.35,32.35,0,0,1-14.37,10.88q-9.35,3.87-22,3.87A75,75,0,0,1,1621.77,389.82Z"/></g></g></svg>