<svg id="Layer_1" data-name="Layer 1" xmlns="http://www.w3.org/2000/svg" width="160.1883mm" height="17.87971mm" viewBox="0 0 454.07708 50.68265"><defs><style>.cls-1{fill:#fff;}</style></defs><title>Logo_White_Horizontal</title><path class="cls-1" d="M188.24244,25.25691h8.19786c5.90613,0,8.82448-4.23783,8.82448-8.47566,0-4.16838-2.91835-8.40778-8.82448-8.40778h-10.769V49.92154H178.7235V1.28674h17.7168c10.56064,0,15.84175,7.78277,15.84175,15.49451a14.6404,14.6404,0,0,1-12.57617,14.86791l15.354,18.27238h-9.10068l-17.7168-21.32961Z"/><path class="cls-1" d="M145.37772,13.77689c-.97541-4.38776-5.712-6.26756-9.95929-6.19812-3.27347.06945-6.89417,1.18376-8.845,3.69015a6.39754,6.39754,0,0,0-1.18375,4.52824c.34881,5.01437,5.85089,5.641,11.0736,6.1271,6.68582.83652,14.97365,2.57742,16.85345,10.37755a17.37644,17.37644,0,0,1,.34881,3.204c0,9.40056-9.33269,14.83319-18.10665,14.83319-7.52234,0-16.64512-4.45722-17.55108-13.16173l-.06945-1.32422,7.10251-.1389.071,1.04486v-.27936c.48771,4.52666,5.98821,6.89574,10.51645,6.89574,5.22271,0,10.93312-2.92623,10.93312-7.9406a7.73381,7.73381,0,0,0-.20992-1.66988c-.83494-3.69172-5.84931-4.31832-10.7232-4.806-7.59179-.76549-16.50622-2.43695-17.27172-12.60457v.06944a13.189,13.189,0,0,1,2.64687-9.26324c3.27189-4.2473,9.12277-6.47591,14.76374-6.47591,7.52076,0,15.32089,3.90006,16.57409,12.81292Z"/><polygon class="cls-1" points="240.438 49.921 247.471 49.921 247.471 15.866 271.011 49.921 276.582 49.921 276.582 1.173 269.619 1.173 269.619 35.505 245.869 1.173 240.438 1.103 240.438 49.921"/><rect class="cls-1" x="222.69433" y="1.24018" width="7.12933" height="48.68057"/><rect class="cls-1" x="161.54018" y="1.24018" width="7.12933" height="48.68057"/><polygon class="cls-1" points="303.028 0.981 300.367 0.981 300.367 50.205 328.662 50.205 328.662 47.544 303.028 47.544 303.028 0.981"/><path class="cls-1" d="M406.72957,23.38578a11.43807,11.43807,0,0,0,4.20215-5.39258,14.22,14.22,0,0,0-.002-9.75586l-.00292-.00781a11.0294,11.0294,0,0,0-10.752-7.24707H380.09676V50.20512H402.085c8.33105,0,12.60254-6.22461,13.13965-12.39258C415.7325,31.99027,412.95516,25.52445,406.72957,23.38578ZM402.085,47.61137H382.75789V25.25394H402.085c7.29394,0,10.61621,5.79493,10.61621,11.17871S409.379,47.61137,402.085,47.61137Zm-1.91016-25.01856h-17.417V3.64359h17.417a8.57179,8.57179,0,0,1,8.334,5.56446,11.017,11.017,0,0,1,.0039,7.81152A8.57784,8.57784,0,0,1,400.17488,22.59281Z"/><path class="cls-1" d="M453.74812,33.64457c-1.71386-7.99805-9.25-8.74414-16.53808-9.46582-7.28125-.72168-14.1582-1.40235-14.73926-9.31348a9.26373,9.26373,0,0,1,1.95606-6.75976c2.8291-3.70508,7.98339-5.08692,11.86425-5.14453,4.63477-.05176,8.86817,1.46386,11.33594,4.10449a9.93751,9.93751,0,0,1,2.39746,4.78418l.16895,1.35156,2.56543-.51465-.166-1.31445C451.61531,6.168,447.62215,2.35746,441.6368.917c-7.33106-1.76465-15.46387.59961-19.34571,5.62207a11.93165,11.93165,0,0,0-2.4082,8.50781c.69629,10.09473,9.32812,10.96094,16.94434,11.72559,6.67285.66992,12.97461,1.30176,14.29394,7.40039a9.85061,9.85061,0,0,1-1.94336,8.6123c-2.65918,3.27149-7.49707,5.30371-12.627,5.30371-6.48047,0-13.73731-3.52832-14.42481-10.09472l-.17578-1.24317-2.65332.332.18067,1.23925c.85156,8.02832,9.39746,12.36035,17.00488,12.36035,5.998,0,11.69726-2.44531,14.874-6.38183A12.29,12.29,0,0,0,453.74812,33.64457Z"/><polygon class="cls-1" points="352.881 0.607 333.105 50.581 335.946 50.581 342.143 35.254 343.613 31.717 353.963 4.993 364.301 31.531 372.044 50.581 374.886 50.581 355.107 0.607 352.881 0.607"/><path class="cls-1" d="M14.52577,12.36869c2.07825.323,4.429-4.103,5.849-6.74609l.08611-.16051c-.6913-1.14908-.30649-2.773.12554-4.09623.05155-.14448.24811-.647.091-.74383A.20387.20387,0,0,0,20.48859.6196a19.15044,19.15044,0,0,0-2.80114,2.5949A17.39677,17.39677,0,0,1,14.4747,6.12319c-.5916,1.69055-1.32037,4.60994-.62372,5.7926A.88923.88923,0,0,0,14.52577,12.36869Z"/><path class="cls-1" d="M82.00011,7.39134a.19736.19736,0,0,1,.37082-.11366c1.45218,2.39063,3.40407,5.52944,4.55119,6.4892.4328,2.39388.35967,4.26681-.20038,5.03372a.80637.80637,0,0,1-.58309.35514c-.98826.11973-2.38293-.81815-4.31549-6.18245A9.31773,9.31773,0,0,0,82.00011,7.39134Z"/><path class="cls-1" d="M11.61924,7.43188a.19735.19735,0,0,0-.37081-.11366c-1.45218,2.39063-3.40408,5.52944-4.5512,6.4892-.4328,2.39388-.35966,4.26681.20038,5.03372a.80637.80637,0,0,0,.5831.35514c.98826.11973,2.38293-.81815,4.31548-6.18245A9.31773,9.31773,0,0,1,11.61924,7.43188Z"/><path class="cls-1" d="M10.21208,32.16119c.00778-.467.01509-.92676.0326-1.36411-.01265-.01606-.02529-.03212-.03747-.04866q-.09192-.12186-.179-.24713c-.06425-.09291-.126-.1868-.18635-.28214-.06615-.10461-.12987-.21115-.19169-.31867q-.10067-.17583-.19455-.35562c-.06716-.13039-.13237-.26222-.19413-.39551q-.10074-.216-.19217-.43589-.09924-.23717-.18778-.4782-.09558-.25908-.18-.52152-.09122-.28167-.17074-.56675-.08543-.305-.15861-.61348-.07814-.32908-.144-.6611c-.04668-.236-.089-.47336-.127-.71076q-.06057-.38022-.10749-.76185-.04962-.4057-.08563-.81388-.03795-.43346-.06129-.86788c-.00778-.15179-.01562-.30311-.02143-.45439-.00291-.07735-.01129-.31667-.01571-.35881.00026-.00522-.00517-.0609-.00573-.0633a.30714.30714,0,0,0-.328-.28464.31754.31754,0,0,0-.3.23478.29333.29333,0,0,0-.02284.06283c-.00588.0297-.01265.05936-.01852.08953-.01265.05983-.02477.12016-.03647.18047-.02286.11628-.04477.233-.06663.3493q-.08249.44-.16491.88054-.0759.405-.15226.81-.07011.37216-.1411.74383-.06423.34082-.1294.68109-.05987.31012-.1202.62075-.05469.28242-.10992.56431c-.034.17076-.06764.34153-.10215.51178q-.04675.23134-.09388.46217-.04313.208-.0876.416c-.02678.12405-.0535.24858-.08124.37264-.02482.11141-.04964.22281-.07542.33371q-.035.14886-.0715.29726-.03287.13281-.06764.26512c-.0209.07881-.04228.15714-.06467.23547-.01995.07-.04038.14009-.06229.20966-.01948.06277-.03991.125-.06081.1873-.01948.05644-.03937.11238-.06081.16832-.01948.05108-.03937.10167-.06081.15227-.01948.04721-.04038.09389-.06176.14012-.02043.04377-.0414.08756-.06372.13085-.02144.04235-.0433.08418-.06616.12552-.01122.02093-.02292.04136-.03456.06179-.00535.00973-.03747.052-.035.06081,1.58886,5.3844,2.782,6.14189,3.34,6.20342a.9646.9646,0,0,0,.23747.00016C9.98627,36.87021,10.16926,35.04652,10.21208,32.16119Z"/><path class="cls-1" d="M83.42011,32.16119c-.00778-.467-.01509-.92676-.03261-1.36411.01265-.01606.0253-.03212.03748-.04866q.09192-.12186.179-.24713c.06426-.09291.126-.1868.18635-.28214.06616-.10461.12988-.21115.1917-.31867q.10065-.17583.19455-.35562c.06716-.13039.13237-.26222.19413-.39551q.10074-.216.19217-.43589.09922-.23717.18777-.4782.09558-.25908.18-.52152.09122-.28167.17073-.56675.08543-.305.15862-.61348.07812-.32908.144-.6611c.04668-.236.089-.47336.127-.71076q.06057-.38022.10748-.76185.04962-.4057.08564-.81388.038-.43346.06128-.86788c.00778-.15179.01562-.30311.02144-.45439.00291-.07735.01129-.31667.01571-.35881-.00027-.00522.00517-.0609.00573-.0633a.30713.30713,0,0,1,.328-.28464.31754.31754,0,0,1,.3.23478.29273.29273,0,0,1,.02283.06283c.00588.0297.01265.05936.01853.08953.01265.05983.02477.12016.03646.18047.02287.11628.04478.233.06663.3493q.0825.44.16492.88054.07588.405.15226.81.07011.37216.1411.74383.06423.34082.1294.68109.05986.31012.1202.62075.05469.28242.10992.56431c.034.17076.06764.34153.10214.51178q.04677.23134.09389.46217.04311.208.08759.416c.02679.12405.05351.24858.08124.37264.02483.11141.04965.22281.07542.33371q.035.14886.0715.29726.03288.13281.06764.26512c.02091.07881.04228.15714.06467.23547.02.07.04039.14009.0623.20966.01948.06277.03991.125.06081.1873.01948.05644.03937.11238.06081.16832.01948.05108.03937.10167.06081.15227.01948.04721.04038.09389.06176.14012.02043.04377.04139.08756.06372.13085.02144.04235.04329.08418.06616.12552.01122.02093.02292.04136.03456.06179.00534.00973.03747.052.035.06081-1.58886,5.3844-2.782,6.14189-3.34,6.20342a.96468.96468,0,0,1-.23748.00016C83.64591,36.87021,83.46292,35.04652,83.42011,32.16119Z"/><path class="cls-1" d="M14.81112,47.242l-.02827-.02675q-.105-.09777-.20773-.198c-.08557-.0832-.16978-.16735-.25393-.252q-.14884-.151-.29431-.305-.16641-.17585-.32888-.3561-.18173-.20065-.35851-.4062-.19338-.22479-.38143-.45486-.20283-.24883-.39889-.503-.20943-.27147-.41059-.54878-.21237-.294-.41594-.59448-.21387-.31526-.41694-.63827-.21094-.33641-.41059-.68059-.20649-.35685-.39943-.72195c-.21889-.41546-.42086-.833-.61689-1.25923-.04792-.11751-.12882-.28649-.26971-.31269a.19957.19957,0,0,0-.20209.10723.56041.56041,0,0,0,.01089.383c.03079.13465.07287.26641.10549.4006.06514.268.125.53756.18189.80755q.22038,1.04351.41546,2.09188c.07346.3926.14841.78519.20726,1.18023a5.79157,5.79157,0,0,1,.10024,1.12864,2.78763,2.78763,0,0,1-.02874.28458c-.00826.05353-.04038.13768-.01212.19071,1.62532,3.06194,3.35622,4.409,5.507,4.409.0465,0,.093-.00067.14478-.00434a.33352.33352,0,0,0,.02208-.07711.70494.70494,0,0,0,.00821-.08519c.00152-.03614.0011-.07235-.00044-.10849-.00189-.044-.0055-.088-.01025-.13181-.00561-.05191-.01284-.10363-.0212-.15517-.00969-.05976-.02092-.11928-.03331-.17855q-.02119-.10144-.04657-.202-.02841-.11325-.061-.2254-.03617-.12507-.07657-.24888-.0445-.1369-.09329-.27237-.05343-.14876-.11118-.2959-.06291-.16062-.13021-.31946-.073-.17248-.15041-.343-.0836-.18439-.17174-.36667-.09482-.19629-.19425-.3903-.04069-.0795-.0821-.15863l-.04242-.08067-.02212-.04172A.17924.17924,0,0,0,14.81112,47.242Z"/><path class="cls-1" d="M78.76242,47.242l.02827-.02675q.105-.09777.20773-.198c.08557-.0832.16978-.16735.25393-.252q.14884-.151.29431-.305.16639-.17585.32888-.3561.18171-.20065.35851-.4062.19338-.22479.38143-.45486.20283-.24883.39889-.503.20942-.27147.41059-.54878.21236-.294.41593-.59448.21389-.31526.41695-.63827.21093-.33641.41059-.68059.20647-.35685.39942-.72195c.2189-.41546.42087-.833.6169-1.25923.04792-.11751.12882-.28649.26971-.31269a.19959.19959,0,0,1,.20209.10723.56046.56046,0,0,1-.01089.383c-.03079.13465-.07287.26641-.10549.4006-.06514.268-.125.53756-.1819.80755q-.22038,1.04351-.41546,2.09188c-.07346.3926-.1484.78519-.20725,1.18023a5.79079,5.79079,0,0,0-.10024,1.12864,2.78763,2.78763,0,0,0,.02874.28458c.00825.05353.04038.13768.01211.19071-1.62531,3.06194-3.35622,4.409-5.507,4.409-.0465,0-.093-.00067-.14477-.00434a.33352.33352,0,0,1-.02208-.07711.70293.70293,0,0,1-.00821-.08519c-.00152-.03614-.00111-.07235.00044-.10849.00189-.044.0055-.088.01024-.13181.00562-.05191.01285-.10363.0212-.15517.0097-.05976.02093-.11928.03331-.17855q.02119-.10144.04658-.202.02841-.11325.061-.2254.03618-.12507.07657-.24888.04452-.1369.0933-.27237.05342-.14876.11118-.2959.06289-.16062.13021-.31946.073-.17248.1504-.343.08361-.18439.17175-.36667.09481-.19629.19425-.3903.04069-.0795.0821-.15863l.04242-.08067.02211-.04172A.17968.17968,0,0,1,78.76242,47.242Z"/><path class="cls-1" d="M4.6562,12.45468c.18543.00579,1.92845-.734,5.58421-7.26529l.166-.309c-.142-.86379.15452-1.5396.94435-2.70714a1.03434,1.03434,0,0,0,.25-.77572.015.015,0,0,0-.02426-.0104,23.011,23.011,0,0,0-4.65225,4.463c-2.60111,3.64056-2.56144,6.29864-2.28794,6.59438A.02628.02628,0,0,0,4.6562,12.45468Z"/><path class="cls-1" d="M88.74992,12.49167c-.18543.00579-1.92845-.73394-5.58421-7.26529l-.166-.309c.142-.86379-.15453-1.5396-.94435-2.70714a1.03429,1.03429,0,0,1-.25-.77572.015.015,0,0,1,.02426-.01039,23.0104,23.0104,0,0,1,4.65224,4.463c2.60111,3.64056,2.56144,6.29865,2.28794,6.59439A.02628.02628,0,0,1,88.74992,12.49167Z"/><path class="cls-1" d="M4.95911,20.26284c.002-.01265-.02921-.05107-.036-.06277l-.037-.06663c-.02382-.04329-.04668-.08662-.06907-.13038a5.45794,5.45794,0,0,1-.31961-.77059,6.5435,6.5435,0,0,1-.20874-.80416,8.3047,8.3047,0,0,1-.11723-.82656c-.02624-.27875-.04038-.55846-.04667-.83819-.00541-.28021-.003-.55995.00481-.83968q.00588-.20871.01461-.41691c.00344-.0691.00635-.13816.00974-.20726.00534-.106.03307-.32154-.13231-.31961a.64476.64476,0,0,0-.48993.37558,5.10207,5.10207,0,0,0-.24081.52684q-.28674.6553-.54676,1.32129a22.718,22.718,0,0,0-.953,2.952,13.53281,13.53281,0,0,0-.39556,3.185A22.44948,22.44948,0,0,0,1.688,26.78465a5.66992,5.66992,0,0,0,.89559,2.78173.57955.57955,0,0,0,.146.125C3.38338,29.00011,4.37435,24.37462,4.95911,20.26284Z"/><path class="cls-1" d="M6.67414,38.79492q-.08543-.09775-.16735-.199c-.06716-.08269-.13231-.16637-.19656-.2515q-.11385-.15106-.22234-.306-.1255-.17949-.24467-.3629-.13575-.20871-.26367-.42179c-.09537-.15858-.18825-.31961-.27828-.48161q-.14956-.27-.28992-.54486-.154-.30212-.29728-.60959c-.1041-.22329-.21112-.44644-.30114-.67569-.10854-.27639-.166-.44789-.26073-.74631-.108-.34026-.12066-.42054-.21557-.79555-.03954-.15617-.03983-.42722-.326-.40432-.2461.01907-.21858.40827-.22345.49972-.01408.26806-.01237.50752-.02793.77606-.003.05449-.00588.109-.00926.16346-.018.32255-.035.6446-.04816.96762-.01265.32253-.02144.64555-.02287.96858s.0044.64558.02043.9681a9.70568,9.70568,0,0,0,1.118,3.6365A19.92445,19.92445,0,0,0,5.591,43.06534a5.78813,5.78813,0,0,0,1.988,2.08555.22879.22879,0,0,0,.33882-.18613,27.32729,27.32729,0,0,0-1.15859-6.074C6.73056,38.85915,6.70187,38.82705,6.67414,38.79492Z"/><path class="cls-1" d="M86.96463,38.79492q.08543-.09775.16735-.199c.06716-.08269.13231-.16637.19657-.2515q.11383-.15106.22233-.306.12552-.17949.24467-.3629.13575-.20871.26367-.42179c.09537-.15858.18825-.31961.27828-.48161q.14956-.27.28992-.54486.154-.30212.29728-.60959c.10411-.22329.21113-.44644.30115-.67569.10853-.27639.166-.44789.26072-.74631.108-.34026.12066-.42054.21558-.79555.03953-.15617.03983-.42722.326-.40432.24611.01907.21859.40827.22345.49972.01408.26806.01237.50752.02793.77606.003.05449.00588.109.00926.16346.018.32255.035.6446.04817.96762.01265.32253.02143.64555.02286.96858s-.00439.64558-.02043.9681a9.7055,9.7055,0,0,1-1.118,3.6365,19.92264,19.92264,0,0,1-1.17362,2.08948,5.78813,5.78813,0,0,1-1.988,2.08555.22879.22879,0,0,1-.33882-.18613,27.328,27.328,0,0,1,1.15859-6.074C86.90822,38.85915,86.9369,38.82705,86.96463,38.79492Z"/><path class="cls-1" d="M28.98028,12.16767c2.95585.3308,4.69114-3.25408,5.8782-6.56558-1.16027-1.08634-1.38166-2.9807-1.443-4.35892l-.0019-.0832C33.40437.54605,33.24332.15491,32.46935.09849c-.5011-.03311-1.6429,1.405-2.46212,2.45867a12.39458,12.39458,0,0,1-3.23365,3.30569c-.38387,2.212-.12649,4.31072.67379,5.40287A2.1105,2.1105,0,0,0,28.98028,12.16767Z"/><path class="cls-1" d="M30.47465,14.92006a5.5041,5.5041,0,0,1-2.8635-.10116c-.73555,2.27918-2.45475,4.92126-3.795,5.83051.29966,3.71966,2.13027,8.88514,4.50384,8.96689,3.168.09,4.35016-4.27085,5.129-9.10945A9.20275,9.20275,0,0,1,30.47465,14.92006Z"/><path class="cls-1" d="M29.79956,32.50109a5.4134,5.4134,0,0,1-2.77543-.053c-.48744,3.01861-1.22839,4.95579-2.35748,6.16128.65336,1.59278,3.05947,5.9405,5.64855,6.50041a2.20369,2.20369,0,0,0,1.91773-.31231c1.35191-1.0513,1.53292-4.10349,1.60246-5.95358C32.069,37.59944,30.74379,35.5173,29.79956,32.50109Z"/><path class="cls-1" d="M18.01365,13.66946c.09389,1.9542.718,5.2516,2.539,5.29976.018.001.03551.00145.053.00145,1.5825,0,3.09986-1.91431,4.63182-5.84414-.85527-1.15249-1.66285-3.15241-1.28724-6.47074a4.65223,4.65223,0,0,1-1.04987-.06518C21.58342,9.06585,19.97461,11.99789,18.01365,13.66946Z"/><path class="cls-1" d="M24.42056,30.86757c-1.313-1.35193-2.85377-3.99793-3.3042-9.10017a4.75563,4.75563,0,0,1-1.351-.01657c-.86061,4.60361-1.64676,7.51765-3.08774,9.27483.49474,1.60637,2.25682,5.93414,4.67119,6.064C22.74607,37.19915,23.89025,34.7862,24.42056,30.86757Z"/><path class="cls-1" d="M22.22918,39.95a4.762,4.762,0,0,1-1.2965.05205c.24324,3.23026.20191,5.34987-.54587,6.74656,1.30475,2.01016,3.71485,4.92322,6.27323,3.99892.4398-.16.69766-1.65893.39794-3.59466C25.041,45.73238,23.41861,43.31213,22.22918,39.95Z"/><path class="cls-1" d="M10.21939,20.651c.20719,4.96654,1.60488,8.95522,3.16357,8.95718h.00149c2.16043,0,3.40586-6.62057,3.86366-9.20624a8.42462,8.42462,0,0,1-1.92456-5.39851,3.72934,3.72934,0,0,1-1.79023-.1129C13.07992,16.2649,11.85688,19.54918,10.21939,20.651Z"/><path class="cls-1" d="M14.3013,32.55207a3.78611,3.78611,0,0,1-1.73239-.0068c-.17661,2.646-.468,4.59-1.19971,5.87089,1.13112,2.87657,4.24024,7.14257,6.08593,7.14257.03795-.0005.09051.0574.26367-.14255.24325-.28461.98319-1.58886.40626-6.5505A12.21774,12.21774,0,0,1,14.3013,32.55207Z"/><path class="cls-1" d="M33.1208,13.64087c.43589,2.482,1.68809,5.07985,3.98042,5.26133,3.60244.28654,4.74905-3.16654,5.46274-5.65538-1.12036-1.09848-2.4057-3.09891-2.82407-6.64344a8.51749,8.51749,0,0,1-2.2339-.02824C36.62543,9.02072,35.33427,11.88562,33.1208,13.64087Z"/><path class="cls-1" d="M37.75975,37.0965l.04911.00051c3.01767,0,4.25045-4.04949,4.73206-6.67019-2.0058-2.06949-3.21227-4.79187-3.86468-8.72852a7.96775,7.96775,0,0,1-2.55107.01654c-.84553,4.85463-1.99707,7.71614-3.7873,9.39841C32.76354,32.48223,34.43268,37.04739,37.75975,37.0965Z"/><path class="cls-1" d="M39.23506,39.92152a7.64778,7.64778,0,0,1-2.29916.03064c-.17222,2.64648-.61441,5.42821-2.17214,7.08809,1.3563,3.95025,4.13654,4.15507,5.6982,3.91619,1.43368-.22231,2.13371-1.27313,2.61-3.97653C40.84921,45.17166,39.81638,42.20946,39.23506,39.92152Z"/><path class="cls-1" d="M46.71411,12.19585h.00968c3.25217-.00778,4.23583-3.79167,4.53068-6.299C50.14771,5.27707,49.56341,3.947,48.9967,2.65637,48.40558,1.31075,47.84759.04006,46.842.00211,45.7567-.04653,45.43174.74742,44.898,2.2526A6.13861,6.13861,0,0,1,42.43545,5.891C42.62127,8.04128,43.40937,12.19585,46.71411,12.19585Z"/><path class="cls-1" d="M46.7033,29.01938c2.54579-.0005,4.4732-3.15291,5.18351-8.45267a11.88043,11.88043,0,0,1-3.53771-5.64665,6.61764,6.61764,0,0,1-3.20306.03649,11.44193,11.44193,0,0,1-3.45742,5.6082C41.97468,22.70966,43.67007,29.01986,46.7033,29.01938Z"/><path class="cls-1" d="M48.34322,32.02485a7.72087,7.72087,0,0,1-3.21132-.03941c-.64457,3.1213-1.727,5.291-3.29642,6.6084.4062,1.68812,1.87979,6.76263,4.90814,6.76263h.01508c1.925-.01022,4.32925-2.48157,5.129-6.62007C50.29789,37.50608,49.18869,35.404,48.34322,32.02485Z"/><path class="cls-1" d="M56.47521,18.9022c2.29085-.18148,3.54406-2.77929,3.97941-5.26133-2.212-1.75427-3.50415-4.61967-4.3856-7.06573a8.49238,8.49238,0,0,1-2.23349.02824c-.41836,3.54453-1.70364,5.545-2.82454,6.64344C51.72516,15.73566,52.86352,19.18434,56.47521,18.9022Z"/><path class="cls-1" d="M55.76686,37.09692l.04959-.00051c3.329-.04863,4.99526-4.61427,5.41992-5.98277-1.78975-1.68275-2.94123-4.54426-3.78724-9.39886a7.95951,7.95951,0,0,1-2.54965-.01657c-.65288,3.93666-1.85935,6.659-3.86515,8.72852C51.51594,33.04693,52.74967,37.09692,55.76686,37.09692Z"/><path class="cls-1" d="M54.34043,39.92152c-.58186,2.28794-1.61421,5.25014-3.83695,7.05839.47627,2.7034,1.17631,3.75422,2.611,3.97653,1.55916.23743,4.336.03406,5.69671-3.91619-1.55672-1.65988-1.99849-4.44161-2.17023-7.08809A7.62387,7.62387,0,0,1,54.34043,39.92152Z"/><path class="cls-1" d="M64.67187,12.16764a2.10638,2.10638,0,0,0,1.53191-.90192c.80075-1.09218,1.05765-3.19086.67378-5.4029a12.376,12.376,0,0,1-3.23121-3.30471C62.82707,1.50536,61.7437.08,61.18275.09846,60.4083.15488,60.24725.546,60.23751,1.16l-.0019.08317c-.06134,1.37822-.28267,3.27309-1.44146,4.35892C59.97972,8.91258,61.69506,12.49749,64.67187,12.16764Z"/><path class="cls-1" d="M65.25432,29.61638c2.37358-.08174,4.20419-5.24722,4.50438-8.96688-1.33932-.90925-3.05852-3.55181-3.79359-5.831a5.52088,5.52088,0,0,1-2.8635.1017,9.19849,9.19849,0,0,1-2.9758,5.58629C60.90518,25.34456,62.06836,29.7307,65.25432,29.61638Z"/><path class="cls-1" d="M66.55213,32.44767a5.41457,5.41457,0,0,1-2.7768.054c-.94381,3.01621-2.268,5.09787-4.03541,6.34229.07008,1.84962.24954,4.90182,1.6015,5.95362a2.20524,2.20524,0,0,0,1.91916.31231c2.58813-.56,4.99425-4.90766,5.6476-6.50041C67.77957,37.404,67.03767,35.46676,66.55213,32.44767Z"/><path class="cls-1" d="M72.96961,18.97029l.05255-.001c2.10064-.05594,2.47572-4.19008,2.538-5.30169-1.961-1.672-3.56888-4.60215-4.88575-7.07692a4.55,4.55,0,0,1-1.04886.06521c.376,3.31928-.4325,5.31873-1.28724,6.47074C69.86928,17.05645,71.38711,18.97029,72.96961,18.97029Z"/><path class="cls-1" d="M73.80991,21.751a4.765,4.765,0,0,1-1.35.01653c-.4515,5.10129-1.99172,7.74777-3.30568,9.10021.52247,3.85975,1.66427,6.22406,3.01131,6.22406.02043,0,.04086-.00047.06229-.00243,2.412-.12893,4.175-4.45717,4.67072-6.06354C75.45666,29.26815,74.671,26.35361,73.80991,21.751Z"/><path class="cls-1" d="M72.64269,40.00214a4.79886,4.79886,0,0,1-1.2965-.052c-1.189,3.36112-2.8119,5.78234-4.82838,7.20287-.30014,1.93573-.04229,3.43411.39841,3.59513,2.55553.92433,4.96414-1.98534,6.27276-3.99939C72.44078,45.351,72.39992,43.2324,72.64269,40.00214Z"/><path class="cls-1" d="M73.18446,5.46194l.08611.16c1.42,2.64357,3.77073,7.06959,5.849,6.74656a.88924.88924,0,0,0,.6748-.4529c.69665-1.18266-.03213-4.102-.62319-5.7926a17.39256,17.39256,0,0,1-3.21322-2.90869A19.17748,19.17748,0,0,0,73.15673.61945a.20387.20387,0,0,0-.18879.00243c-.15713.09683.039.59935.09051.74336C73.491,2.68846,73.87577,4.31286,73.18446,5.46194Z"/><path class="cls-1" d="M78.25187,15.00347A8.4209,8.4209,0,0,1,76.32636,20.402c.45828,2.58516,1.70513,9.20624,3.86462,9.20624h.001c1.55869-.002,2.95638-3.99064,3.16358-8.95718-1.637-1.10237-2.86054-4.38662-3.31388-5.76047A3.74445,3.74445,0,0,1,78.25187,15.00347Z"/><path class="cls-1" d="M82.20563,38.41616c-.7302-1.28-1.02113-3.22441-1.19869-5.87089a3.80173,3.80173,0,0,1-1.73281.0068,12.22632,12.22632,0,0,1-3.82382,6.31456c-.57693,4.96022.16254,6.26494.40673,6.54907.17073.20043.22572.14253.26415.143C77.96593,45.55873,81.07458,41.29273,82.20563,38.41616Z"/><path class="cls-1" d="M91.73683,20.1558a22.72748,22.72748,0,0,0-.95308-2.952q-.26046-.66621-.54676-1.32129a5.10418,5.10418,0,0,0-.24081-.52684.64476.64476,0,0,0-.48993-.37558c-.16539-.00193-.13765.21358-.13231.31961.00339.0691.0063.13816.00974.20726q.00873.20794.01461.41691c.00778.27973.01021.55947.00434.83968-.00582.27973-.02.55944-.04621.83819-.02624.2773-.06372.55315-.11722.82656a6.5435,6.5435,0,0,1-.20874.80416,5.45794,5.45794,0,0,1-.31961.77059c-.02239.04376-.04526.08709-.06907.13038l-.037.06663c-.00677.0117-.03794.05012-.036.06277.58476,4.11178,1.57573,8.73727,2.22956,9.42855a.57973.57973,0,0,0,.146-.125,5.67544,5.67544,0,0,0,.89559-2.78173,22.38254,22.38254,0,0,0,.29188-3.44381A13.533,13.533,0,0,0,91.73683,20.1558Z"/></svg>