<svg id="Layer_1" data-name="Layer 1" xmlns="http://www.w3.org/2000/svg" viewBox="0 0 46 50"><defs><style>.cls-1{fill:#fff;}</style></defs><title>Logo-Base</title><path class="cls-1" d="M45.3,23.46A.66.66,0,0,0,45,23L36.11,18,45,13.15A.66.66,0,0,0,45,12L23.32.08a.66.66,0,0,0-.63,0L1,12,1,12H1l-.08.07,0,0-.05.07,0,0,0,.1v0l0,.09v0a.65.65,0,0,0,0,.11h0V23.67a.66.66,0,0,0,.34.58L13,30.8,1.49,37.11a.66.66,0,0,0,0,1.14L22.68,49.92a.66.66,0,0,0,.64,0L45,38a.66.66,0,0,0,.34-.57V23.66s0,0,0,0A.66.66,0,0,0,45.3,23.46ZM2,13.69,22.68,25.12a.66.66,0,0,0,.64,0l11.44-6.32,8.57,4.73L23,34.72,2,23.13Z"/></svg>