<?xml version="1.0" encoding="utf-8"?>
<!-- Generator: Adobe Illustrator 23.0.1, SVG Export Plug-In . SVG Version: 6.00 Build 0)  -->
<svg version="1.1" id="Layer_1" xmlns="http://www.w3.org/2000/svg" xmlns:xlink="http://www.w3.org/1999/xlink" x="0px" y="0px"
	 viewBox="0 0 213.2 279.8" style="enable-background:new 0 0 213.2 279.8;" xml:space="preserve">
<style type="text/css">
	.st0{fill:#063C8C;}
	.st1{fill-rule:evenodd;clip-rule:evenodd;fill:#CFDDEE;}
	.st2{fill-rule:evenodd;clip-rule:evenodd;fill:#BAD2E9;}
	.st3{fill-rule:evenodd;clip-rule:evenodd;fill:#94B6DA;}
	.st4{fill-rule:evenodd;clip-rule:evenodd;fill:#497DB9;}
	.st5{fill-rule:evenodd;clip-rule:evenodd;fill:#063C8C;}
</style>
<path class="st0" d="M163.6,276.8c2.3,1.7,7.3,3.1,12,3.1c11.5,0,18.2-6.4,19.4-13.9c1.1-7.1-2.4-11-10.2-14.2
	c-6.3-2.6-9-4.8-8.2-9.3c0.5-3.3,3.7-7.2,10.4-7.2c4.4,0,7.5,1.4,8.9,2.3l2.5-5.1c-2-1.2-5.4-2.4-10.4-2.4
	c-9.5,0-16.7,5.6-17.9,13.1c-1.1,6.8,3.2,10.9,10.7,13.7c6.2,2.5,8.4,5.1,7.7,9.6c-0.8,4.9-5.1,8.2-11.6,8.2
	c-4.4,0-8.3-1.4-10.8-3.1L163.6,276.8z M158.3,272.6c-2.7,1.2-6.8,2-10.6,2c-11.9,0-17.6-7.6-15.7-19.4c2-12.7,10.8-19.9,22.3-19.9
	c4.1,0,7.3,0.9,9.5,2l2.3-5.1c-1.5-0.9-5.2-2.2-11.3-2.2c-15.2,0-27.2,10.3-29.6,25.4c-2.5,15.8,6.4,24.4,20.2,24.4
	c5.9,0,10.8-1.1,13.3-2.3L158.3,272.6z M94.2,259.1l7-14c1.4-2.9,2.7-5.9,3.9-8.7h0.1c0.3,2.8,0.5,5.7,1.1,8.8l2.6,13.9H94.2z
	 M109.5,263.9l2.8,15.2h6.7l-8.9-48.3h-7.6l-24.4,48.3h6.5l7.5-15.2H109.5z M61.2,279.1h6.4l6.9-43h15l0.9-5.3H54.1l-0.9,5.3h14.9
	L61.2,279.1z M14.8,276.8c2.3,1.7,7.3,3.1,12,3.1c11.5,0,18.2-6.4,19.4-13.9c1.1-7.1-2.4-11-10.2-14.2c-6.3-2.6-9-4.8-8.2-9.3
	c0.5-3.3,3.7-7.2,10.4-7.2c4.4,0,7.5,1.4,8.9,2.3l2.5-5.1c-2-1.2-5.4-2.4-10.4-2.4c-9.5,0-16.7,5.6-17.9,13.1
	c-1.1,6.8,3.2,10.9,10.7,13.7c6.2,2.5,8.4,5.1,7.7,9.6c-0.8,4.9-5.1,8.2-11.6,8.2c-4.4,0-8.3-1.4-10.8-3.1L14.8,276.8z"/>
<g>
	<path class="st1" d="M154.3,123.1l18.4,11.1l12.1-7.3l-27.8-16.6c-2-1.2-3.3-0.7-4.6,0.1l-60,36.3l11.6,7.5L154.3,123.1z
		 M104.3,94.8l-11.7-7.6c-11.4,6.8-30.7,18.7-48.4,29.7l11.9,7.7L104.3,94.8z M208.2,140.9l-7.6-4.6l-12.2,7.2l6.3,3.8
		c0,0-89.8,54.1-95,57c-2.8,1.5-1.7,2.6-0.6,3.2c0.7,0.4,5.3,3,7.9,4.6c0.9,0.6,2.1,1.1,4.2-0.2c14-8.5,90.8-54.4,98.6-59.5
		C218.3,147,208.2,140.9,208.2,140.9z M8.5,139c-2,1.3-3.4,2.1-4,2.6c-6.7,4.3-1.7,10.1-1.7,10.1L53.8,182c1.1,0.5,2.7,1.3,5.2-0.2
		l8.7-5.4L8.5,139z"/>
	<path class="st2" d="M116.6,65l-8.1-5.2c0,0-2.6-2.3-12.6,3.5c-6.5,3.8-44.2,26.8-69.6,42.3l12,7.4L116.6,65z M209.4,119.1
		c-4.5-2.6-3.5-1.3-3.5-1.3l-96,59.3c0,0-2.9,1.9-5.8,0c-2.9-1.9-85.9-51.7-85.9-51.7l0.3-0.2L6.2,118c-2.1,1.3-3.4,2.1-3.4,2.1
		s-6.8,6.8,0.6,11.3c7.4,4.5,95.8,57.7,95.8,57.7s6.8,5.5,13.9,0.3c7.1-5.2,94-57.7,94-57.7S218.7,125.9,209.4,119.1z"/>
	<path class="st3" d="M101.5,41.7c0,0-10.1,6-23.8,14.1l11.9,7.6c6.7-4,11.5-6.9,12.9-7.9c6.4-4.2,10.3,0.3,10.3,0.3l45.4,27.6
		l11.4-6.9c-21.8-13-45.5-27.3-51.9-31.7C106.7,37.5,101.5,41.7,101.5,41.7 M209.5,100.4c0,0-8.6-5.1-20.5-12.2
		c-3.6,2.2-7.6,4.5-11.7,6.9l29.3,17.8c0,0-1,0.6,2.3-1.3C217.9,105.9,209.5,100.4,209.5,100.4z M73.2,73.3L61,65.8
		C36.8,80.2,9.9,96.4,4.8,99.8c-9.7,6.5,1.6,12.6,1.6,12.6l92.9,56.1c9,5.5,11.3,2.3,11.3,2.3l7.4-4.5l-98.7-60.6
		C19.3,105.6,49.2,87.8,73.2,73.3z"/>
	<path class="st4" d="M101,74.3l-10.7,6.5l35,22.7l11.3-6.8L101,74.3z M4.1,80.4c0,0-6.4,6.4-0.3,10.3c2.3,1.6,3.9,2.6,3.9,2.6
		l12.2-7.2L7.2,78.6L4.1,80.4z M119.5,26.3l-9.4-5.5c0,0-2.6-2.9-8.1,1.3L28.4,66L41,73.5l19.9-11.8l15.4,10l10.6-6.3l-16-10.1
		C75.4,52.7,119.5,26.3,119.5,26.3z"/>
	<path class="st5" d="M59,100.6l95.3-58.7l40.4,24.3c0,0-89.8,54.1-95,57c-2.8,1.5-1.7,2.6-0.6,3.2c0.7,0.4,5.3,3,7.9,4.6
		c0.9,0.6,2.1,1.1,4.2-0.2c14-8.5,90.8-54.4,98.6-59.5c8.6-5.6-1.5-11.6-1.5-11.6L156.9,29c-2-1.2-3.3-0.7-4.6,0.1L55.2,87.8
		L19.3,65.9l97.1-57.4c0.9-0.6,2.3-1.9,0.2-3.3c-2.3-1.6-5.7-3.7-7.3-4.6c-2.6-1.5-5.8,0.4-5.8,0.4S11.1,56,4.4,60.3
		c-6.7,4.3-1.7,10.1-1.7,10.1l51.1,30.4C54.9,101.3,56.5,102.1,59,100.6"/>
	<path class="st1" d="M154.3,123.1l18.4,11.1l12.1-7.3l-27.8-16.6c-2-1.2-3.3-0.7-4.6,0.1l-60,36.3l11.6,7.5L154.3,123.1z
		 M104.3,94.8l-11.7-7.6c-11.4,6.8-30.7,18.7-48.4,29.7l11.9,7.7L104.3,94.8z M208.2,140.9l-7.6-4.6l-12.2,7.2l6.3,3.8
		c0,0-89.8,54.1-95,57c-2.8,1.5-1.7,2.6-0.6,3.2c0.7,0.4,5.3,3,7.9,4.6c0.9,0.6,2.1,1.1,4.2-0.2c14-8.5,90.8-54.4,98.6-59.5
		C218.3,147,208.2,140.9,208.2,140.9z M8.5,139c-2,1.3-3.4,2.1-4,2.6c-6.7,4.3-1.7,10.1-1.7,10.1L53.8,182c1.1,0.5,2.7,1.3,5.2-0.2
		l8.7-5.4L8.5,139z"/>
	<path class="st2" d="M116.6,65l-8.1-5.2c0,0-2.6-2.3-12.6,3.5c-6.5,3.8-44.2,26.8-69.6,42.3l12,7.4L116.6,65z M209.4,119.1
		c-4.5-2.6-3.5-1.3-3.5-1.3l-96,59.3c0,0-2.9,1.9-5.8,0c-2.9-1.9-85.9-51.7-85.9-51.7l0.3-0.2L6.2,118c-2.1,1.3-3.4,2.1-3.4,2.1
		s-6.8,6.8,0.6,11.3c7.4,4.5,95.8,57.7,95.8,57.7s6.8,5.5,13.9,0.3c7.1-5.2,94-57.7,94-57.7S218.7,125.9,209.4,119.1z"/>
	<path class="st3" d="M101.5,41.7c0,0-10.1,6-23.8,14.1l11.9,7.6c6.7-4,11.5-6.9,12.9-7.9c6.4-4.2,10.3,0.3,10.3,0.3l45.4,27.6
		l11.4-6.9c-21.8-13-45.5-27.3-51.9-31.7C106.7,37.5,101.5,41.7,101.5,41.7 M209.5,100.4c0,0-8.6-5.1-20.5-12.2
		c-3.6,2.2-7.6,4.5-11.7,6.9l29.3,17.8c0,0-1,0.6,2.3-1.3C217.9,105.9,209.5,100.4,209.5,100.4z M73.2,73.3L61,65.8
		C36.8,80.2,9.9,96.4,4.8,99.8c-9.7,6.5,1.6,12.6,1.6,12.6l92.9,56.1c9,5.5,11.3,2.3,11.3,2.3l7.4-4.5l-98.7-60.6
		C19.3,105.6,49.2,87.8,73.2,73.3z"/>
	<path class="st4" d="M101,74.3l-10.7,6.5l35,22.7l11.3-6.8L101,74.3z M4.1,80.4c0,0-6.4,6.4-0.3,10.3c2.3,1.6,3.9,2.6,3.9,2.6
		l12.2-7.2L7.2,78.6L4.1,80.4z M119.5,26.3l-9.4-5.5c0,0-2.6-2.9-8.1,1.3L28.4,66L41,73.5l19.9-11.8l15.4,10l10.6-6.3l-16-10.1
		C75.4,52.7,119.5,26.3,119.5,26.3z"/>
	<path class="st5" d="M59,100.6l95.3-58.7l40.4,24.3c0,0-89.8,54.1-95,57c-2.8,1.5-1.7,2.6-0.6,3.2c0.7,0.4,5.3,3,7.9,4.6
		c0.9,0.6,2.1,1.1,4.2-0.2c14-8.5,90.8-54.4,98.6-59.5c8.6-5.6-1.5-11.6-1.5-11.6L156.9,29c-2-1.2-3.3-0.7-4.6,0.1L55.2,87.8
		L19.3,65.9l97.1-57.4c0.9-0.6,2.3-1.9,0.2-3.3c-2.3-1.6-5.7-3.7-7.3-4.6c-2.6-1.5-5.8,0.4-5.8,0.4S11.1,56,4.4,60.3
		c-6.7,4.3-1.7,10.1-1.7,10.1l51.1,30.4C54.9,101.3,56.5,102.1,59,100.6"/>
</g>
<g>
</g>
<g>
</g>
<g>
</g>
<g>
</g>
<g>
</g>
<g>
</g>
<g>
</g>
<g>
</g>
<g>
</g>
<g>
</g>
<g>
</g>
<g>
</g>
<g>
</g>
<g>
</g>
<g>
</g>
</svg>
