<?xml version="1.0" encoding="utf-8"?>
<!-- Generator: Adobe Illustrator 19.0.0, SVG Export Plug-In . SVG Version: 6.00 Build 0)  -->
<svg version="1.1" id="Layer_1" xmlns="http://www.w3.org/2000/svg" xmlns:xlink="http://www.w3.org/1999/xlink" x="0px" y="0px"
	 viewBox="0 0 487 148.1" style="enable-background:new 0 0 487 148.1;" xml:space="preserve">
<style type="text/css">
	.Drop_x0020_Shadow{fill:none;}
	.Round_x0020_Corners_x0020_2_x0020_pt{fill:#FFFFFF;stroke:#000000;stroke-miterlimit:10;}
	.Live_x0020_Reflect_x0020_X{fill:none;}
	.Bevel_x0020_Soft{fill:url(#SVGID_1_);}
	.Dusk{fill:#FFFFFF;}
	.Foliage_GS{fill:#FFDD00;}
	.Pompadour_GS{fill-rule:evenodd;clip-rule:evenodd;fill:#44ADE2;}
	.st0{fill:#42B8E4;}
	.st1{fill:#217ABB;}
	.st2{fill:#08456B;}
</style>
<linearGradient id="SVGID_1_" gradientUnits="userSpaceOnUse" x1="-70" y1="-270" x2="-69.2929" y2="-269.2929">
	<stop  offset="0" style="stop-color:#DEDFE3"/>
	<stop  offset="0.1738" style="stop-color:#D8D9DD"/>
	<stop  offset="0.352" style="stop-color:#C9CACD"/>
	<stop  offset="0.5323" style="stop-color:#B4B5B8"/>
	<stop  offset="0.7139" style="stop-color:#989A9C"/>
	<stop  offset="0.8949" style="stop-color:#797C7E"/>
	<stop  offset="1" style="stop-color:#656B6C"/>
</linearGradient>
<rect id="XMLID_84_" x="21.8" y="111.8" class="st0" width="443.1" height="5.9"/>
<rect id="XMLID_83_" x="21.8" y="118.9" class="st1" width="443.1" height="5.9"/>
<rect id="XMLID_82_" x="21.8" y="125.9" class="st2" width="443.1" height="5.9"/>
<path id="XMLID_80_" d="M173.5,26.5v5.3H139V105h-7V31.9H97.3v-5.3H173.5z"/>
<path id="XMLID_77_" d="M235.4,105h-8.1l-12.8-24.6h-48L153.1,105h-7.6L188,26.5h6L235.4,105z M190.9,35.2
	c-3.5,6.8-21.8,39.8-21.8,39.8h42.8L190.9,35.2z"/>
<path id="XMLID_73_" d="M317.9,81.8c0,7.4-2.9,13.2-8.6,17.4c-5.7,4.2-16.8,5.7-23.6,5.7H239V26.5h44.5c10.3,0,18.1,1.9,23.4,5.3
	c5.3,3.4,8,8.4,8,15c0,4.4-1.4,8.1-4.2,10.9c-2.8,2.9-4.8,4.4-9.5,5.3v0.2c5.4,1.8,8.3,3.4,11.2,5.7
	C316.5,72.3,317.9,76.7,317.9,81.8z M308.3,46.3c0-9.2-9.8-14.6-25.9-14.6H246v29.1h38.8C300.5,60.9,308.3,55.4,308.3,46.3z
	 M311.2,81.5c0-5.2-5.1-9.4-10.2-11.8c-6-2.9-8-2.9-16.1-2.9H246v31.7h37.1C301.8,98.5,311.2,94.2,311.2,81.5z"/>
<polygon id="XMLID_72_" points="390,99 390,105 325.8,105 325.8,26.5 332.7,26.5 332.7,99 "/>
<polygon id="XMLID_71_" points="464.9,99 464.9,105 395.1,105 395.1,26.5 464.2,26.5 464.2,31.9 401.7,31.9 401.7,60.9 456.9,60.9 
	456.9,66.9 401.7,66.9 401.7,99 "/>
<path id="XMLID_70_" d="M101.2,50.7h-7.4c0,0,0.1-13.8-14.8-18.1S35.4,30.4,34.3,43c-0.6,6.6,1.9,9.8,2.5,10.5s6.6,5.4,21.8,7.4
	c0,0,22.3,2.5,29.5,5.6c4.4,1.9,12.2,4.8,14,14.6c1.6,8.5-2,17.4-17.1,21.6c-9.8,2.8-14,2.7-24.9,2.7s-25.4-3.4-31.5-11.1
	c-2.6-3.3-4.8-7.3-4.8-17.5l7.1,0.2c0,0-1.8,8.7,3.9,14.4s14,8.1,26.6,8.5s22.1-2.3,28.3-5.4s10.3-16.9-1.5-21.3s-14.9-3.7-31-6.6
	C43.3,64.3,32,61.9,28.3,52.5c-3.5-8.9,0.8-16.8,2-17.9s6.5-9.6,31.5-9.5S99.7,32.7,101.2,50.7z"/>
</svg>
