<?xml version="1.0" encoding="utf-8"?>
<!-- Generator: Adobe Illustrator 22.0.0, SVG Export Plug-In . SVG Version: 6.00 Build 0)  -->
<svg version="1.1" id="Layer_1" xmlns="http://www.w3.org/2000/svg" xmlns:xlink="http://www.w3.org/1999/xlink" x="0px" y="0px"
	 viewBox="0 0 257.1 71.3" style="enable-background:new 0 0 257.1 71.3;" xml:space="preserve">
<style type="text/css">
	.st0{fill:#FFFFFF;}
</style>
<g>
	<path class="st0" d="M249.4,9.6V4.9c-16,0-29.2,12.4-30.4,28.3C217.9,17.3,204.7,5,188.7,4.9v4.7c14.2,0,25.8,11.5,25.8,25.8
		S203,61.2,188.7,61.2v4.7c16,0,29.2-12.4,30.4-28.3c1.1,15.9,14.4,28.3,30.4,28.3v-4.7c-14.2,0-25.8-11.5-25.8-25.8
		S235.2,9.6,249.4,9.6L249.4,9.6z"/>
	<polyline class="st0" points="86.4,65.9 86.4,62.4 86.3,35.4 81.8,35.4 81.8,65.9 	"/>
	<path class="st0" d="M147.4,4.9c-16.8,0-30.5,13.7-30.5,30.5s13.7,30.5,30.5,30.5s30.5-13.7,30.5-30.5S164.3,4.9,147.4,4.9z
		 M147.4,61.2L147.4,61.2c-14.2,0-25.8-11.6-25.8-25.8s11.5-25.8,25.8-25.8l0,0c14.2,0,25.8,11.5,25.8,25.8S161.7,61.2,147.4,61.2
		L147.4,61.2L147.4,61.2z"/>
	<path class="st0" d="M65,4.9c-16.8,0-30.5,13.7-30.5,30.5c0,14.2-11.6,25.8-25.8,25.8v4.7c16.8,0,30.5-13.7,30.5-30.5
		C39.2,21.2,50.8,9.6,65,9.6h39.2V4.9H65z"/>
</g>
</svg>
