<?xml version="1.0" encoding="UTF-8"?>
<svg width="60px" height="60px" viewBox="0 0 60 60" version="1.1" xmlns="http://www.w3.org/2000/svg" xmlns:xlink="http://www.w3.org/1999/xlink">
    <!-- Generator: Sketch 53.2 (72643) - https://sketchapp.com -->
    <title>sKRW_blue</title>
    <desc>Created with Sketch.</desc>
    <defs>
        <path d="M0.1976,0.03796 L1.6916,0.03796 L1.6916,3.1654 L4.4804,0.03796 L6.29312,0.03796 L3.7334,2.90644 L6.46244,7 L4.66964,7 L2.67764,4.0618 L1.6916,5.16736 L1.6916,7 L0.1976,7 L0.1976,0.03796 Z M9.83888,0.028 C10.3435225,0.028 10.7900581,0.122619054 11.1785,0.31186 C11.5669419,0.501100946 11.8673989,0.77167824 12.07988,1.1236 C12.2923611,1.47552176 12.3986,1.88387768 12.3986,2.34868 C12.3986,2.79356222 12.2923611,3.18697829 12.07988,3.52894 C11.8673989,3.87090171 11.5752419,4.1315191 11.2034,4.3108 L12.57788,7 L10.92452,7 L9.7592,4.6594 L8.49428,4.6594 L8.49428,7 L7.00028,7 L7.00028,0.028 L9.83888,0.028 Z M8.49428,3.4144 L9.71936,3.4144 C10.0712818,3.4144 10.351819,3.31812096 10.56098,3.12556 C10.770141,2.93299904 10.87472,2.67404163 10.87472,2.34868 C10.87472,2.01667834 10.770141,1.75440096 10.56098,1.56184 C10.351819,1.36927904 10.0712818,1.273 9.71936,1.273 L8.49428,1.273 L8.49428,3.4144 Z M12.68744,0.028 L14.23124,0.01804 L15.51608,5.11756 L16.8806,0.028 L18.2252,0.028 L19.54988,5.11756 L20.8646,0.028 L22.37852,0.028 L20.44628,7 L18.7232,7 L17.51804,2.3686 L16.34276,7 L14.61968,7 L12.68744,0.028 Z" id="path-1"></path>
    </defs>
    <g id="Page-1" stroke="none" stroke-width="1" fill="none" fill-rule="evenodd">
        <g id="Home-Page-Variant" transform="translate(-349.000000, -807.000000)">
            <g id="sKRW_blue" transform="translate(349.000000, 807.000000)">
                <circle id="Oval-Copy" fill="#1E1A31" cx="30.0338028" cy="30.0709381" r="29.8989188"></circle>
                <g id="Group-19" transform="translate(14.800000, 17.000000)">
                    <g id="Group-Copy" transform="translate(0.131507, 0.038308)" fill="#FFFFFF">
                        <g id="Group-6" transform="translate(0.000000, 0.117649)">
                            <g id="Group-5" transform="translate(0.143624, 0.090911)">
                                <g id="Group-4" transform="translate(0.012606, 0.077894)">
                                    <path d="M10.9518407,11.0374946 C11.7619331,11.0374946 12.4186428,11.6942042 12.4186428,12.5042967 C12.4186428,13.3143892 11.7619331,13.9710988 10.9518407,13.9710988 L7.14445777,13.9710988 C3.45690496,13.9710988 0.46755277,10.9817467 0.46755277,7.29419382 C0.46755277,3.60664101 3.45690496,0.61728882 7.14445777,0.61728882 L16.9634978,0.61728882 C17.7735903,0.61728882 18.4302999,1.2739985 18.4302999,2.08409095 C18.4302999,2.8941834 17.7735903,3.55089308 16.9634978,3.55089308 L7.14445777,3.55089308 C5.07708985,3.55089308 3.40115702,5.22682591 3.40115702,7.29419382 C3.40115702,9.36156173 5.07708985,11.0374946 7.14445777,11.0374946 L10.9518407,11.0374946 Z" id="Rectangle-2"></path>
                                    <path d="M10.951841,21.4577003 C11.7619335,21.4577003 12.4186431,22.11441 12.4186431,22.9245024 C12.4186431,23.7345949 11.7619335,24.3913045 10.951841,24.3913045 L7.14445813,24.3913045 C3.45690532,24.3913045 0.467553131,21.4019524 0.467553131,17.7143996 C0.467553131,14.0268467 3.45690532,11.0374946 7.14445813,11.0374946 L16.9634982,11.0374946 C17.7735906,11.0374946 18.4303003,11.6942042 18.4303003,12.5042967 C18.4303003,13.3143892 17.7735906,13.9710988 16.9634982,13.9710988 L7.14445813,13.9710988 C5.07709021,13.9710988 3.40115738,15.6470317 3.40115738,17.7143996 C3.40115738,19.7817674 5.07709021,21.4577003 7.14445813,21.4577003 L10.951841,21.4577003 Z" id="Rectangle-2-Copy" transform="translate(9.448927, 17.714400) rotate(-180.000000) translate(-9.448927, -17.714400) "></path>
                                    <polygon id="Path-3" fill-opacity="0.5" points="3.09338844 23.7996031 0.708786084 22.0908884 15.7070097 1.16006732 18.091612 2.8687819"></polygon>
                                </g>
                            </g>
                        </g>
                    </g>
                    <g id="KRW" transform="translate(25.016877, 12.761320) rotate(-90.000000) translate(-25.016877, -12.761320) translate(13.816877, 9.161320)">
                        <g>
                            <use fill="#000000" xlink:href="#path-1"></use>
                            <use fill="#FFFFFF" xlink:href="#path-1"></use>
                        </g>
                    </g>
                </g>
            </g>
        </g>
    </g>
</svg>