<?xml version="1.0" encoding="UTF-8"?>
<svg width="191px" height="43px" viewBox="0 0 191 43" version="1.1" xmlns="http://www.w3.org/2000/svg" xmlns:xlink="http://www.w3.org/1999/xlink">
    <!-- Generator: Sketch 48.2 (47327) - http://www.bohemiancoding.com/sketch -->
    <title>Logo</title>
    <desc>Created with Sketch.</desc>
    <defs></defs>
    <g id="Homepage" stroke="none" stroke-width="1" fill="none" fill-rule="evenodd" transform="translate(-100.000000, -32.000000)">
        <g id="Intro">
            <g id="Header" transform="translate(100.000000, 32.000000)">
                <g id="Logo">
                    <g id="Icon">
                        <polyline id="Fill-1" fill="#FFFFFE" points="10.9703947 9.75567174 30.1361842 0.0183217391 49.2677632 9.75567174 45.4967105 11.9582065 30.1361842 4.09556304 14.7065789 11.9693304 10.9703947 9.75567174"></polyline>
                        <path d="M30.1539474,5.73012391 L15.8657895,12.8409217 L25.5644737,17.4292087 C25.5644737,17.4292087 27.9052632,18.438213 30.1368421,18.438213 C32.3677632,18.438213 34.6973684,17.4292087 34.6973684,17.4292087 L43.8993421,12.8409217 L30.1539474,5.73012391" id="Fill-2" fill="#ED9D2F"></path>
                        <path d="M31.8493421,36.9274652 L44.4421053,30.4356804 L44.4421053,15.800537 L37.6381579,19.6768935 C37.6381579,19.6768935 31.8493421,22.5043304 31.8493421,31.215663 L31.8493421,36.9274652" id="Fill-3" fill="#ED9D2F"></path>
                        <polyline id="Fill-4" fill="#ED9D2F" points="58.5473684 13.9258304 58.5473684 18.0351348 50.9401316 21.899713 50.9401316 17.8074217 58.5473684 13.9258304"></polyline>
                        <path d="M22.6697368,19.6768935 L15.8657895,15.800537 L15.8657895,30.4356804 L28.4585526,36.9274652 L28.4585526,31.215663 C28.4585526,22.5043304 22.6697368,19.6768935 22.6697368,19.6768935" id="Fill-5" fill="#ED9D2F"></path>
                        <polyline id="Fill-6" fill="#FFFFFE" points="14.6144737 19.2424065 14.6144737 15.1618935 0.438157895 7.92742391 0.438157895 12.0393457 10.8782895 17.3434891 10.8782895 33.8029543 28.4585526 42.7348022 28.4585526 38.6536348 14.6144737 31.5892957 14.6144737 19.2424065"></polyline>
                        <polyline id="Fill-7" fill="#ED9D2F" points="1.76052632 18.0351348 9.36776316 21.899713 9.36776316 17.8074217 1.76052632 13.9258304 1.76052632 18.0351348"></polyline>
                        <polyline id="Fill-8" fill="#FFFFFE" points="49.4296053 13.2551239 45.6934211 15.1618935 45.6934211 31.5892957 31.8493421 38.6536348 31.8493421 42.7348022 49.4296053 33.8029543 49.4296053 17.3434891 59.8697368 12.0393457 59.8697368 7.92742391 49.4296053 13.2551239"></polyline>
                    </g>
                    <path d="M75.76,15.96 C74.0666582,15.96 73.22,16.5533274 73.22,17.74 C73.22,18.3533364 73.419998,18.7899987 73.82,19.05 C74.220002,19.3100013 75.1033265,19.6299981 76.47,20.01 C77.8366735,20.3900019 78.7999972,20.8433307 79.36,21.37 C79.9200028,21.8966693 80.2,22.726661 80.2,23.86 C80.2,25.3000072 79.7900041,26.3766631 78.97,27.09 C78.1499959,27.8033369 77.0333404,28.16 75.62,28.16 C74.486661,28.16 73.2333402,28.026668 71.86,27.76 L71.14,27.62 L71.36,25.84 C73.160009,26.0800012 74.5333286,26.2 75.48,26.2 C77.1333416,26.2 77.96,25.466674 77.96,24 C77.96,23.4266638 77.7733352,23.0033347 77.4,22.73 C77.0266648,22.4566653 76.1866732,22.1566683 74.88,21.83 C73.5733268,21.5033317 72.6000032,21.0533362 71.96,20.48 C71.3199968,19.9066638 71,19.0000062 71,17.76 C71,16.5199938 71.4033293,15.5833365 72.21,14.95 C73.0166707,14.3166635 74.1333262,14 75.56,14 C76.5866718,14 77.799993,14.1199988 79.2,14.36 L79.9,14.48 L79.72,16.28 C77.853324,16.0666656 76.5333372,15.96 75.76,15.96 Z M88.62,23.68 L85.82,23.68 L85.82,27.94 L83.6,27.94 L83.6,14.24 L88.62,14.24 C91.7266822,14.24 93.28,15.773318 93.28,18.84 C93.28,20.4133412 92.8900039,21.6133292 92.11,22.44 C91.3299961,23.2666708 90.1666744,23.68 88.62,23.68 Z M85.82,21.76 L88.6,21.76 C90.200008,21.76 91,20.7866764 91,18.84 C91,17.906662 90.8066686,17.2266688 90.42,16.8 C90.0333314,16.3733312 89.4266708,16.16 88.6,16.16 L85.82,16.16 L85.82,21.76 Z M96.42,27.94 L96.42,14.24 L105.06,14.24 L105.06,16.18 L98.64,16.18 L98.64,20.06 L103.86,20.06 L103.86,21.98 L98.64,21.98 L98.64,25.98 L105.06,25.98 L105.06,27.94 L96.42,27.94 Z M112.96,28.16 C110.95999,28.16 109.603337,27.6066722 108.89,26.5 C108.176663,25.3933278 107.82,23.573346 107.82,21.04 C107.82,18.506654 108.179996,16.7033387 108.9,15.63 C109.620004,14.5566613 110.973323,14.02 112.96,14.02 C114.146673,14.02 115.453326,14.186665 116.88,14.52 L116.8,16.32 C115.599994,16.1066656 114.400006,16 113.2,16 C111.999994,16 111.186669,16.3566631 110.76,17.07 C110.333331,17.7833369 110.12,19.1233235 110.12,21.09 C110.12,23.0566765 110.326665,24.3966631 110.74,25.11 C111.153335,25.8233369 111.959994,26.18 113.16,26.18 C114.360006,26.18 115.573327,26.080001 116.8,25.88 L116.86,27.72 C115.48666,28.0133348 114.186673,28.16 112.96,28.16 Z M118.92,16.22 L118.92,14.24 L128.92,14.24 L128.92,16.22 L125.06,16.22 L125.06,27.94 L122.82,27.94 L122.82,16.22 L118.92,16.22 Z M133.98,23.06 L133.98,27.94 L131.76,27.94 L131.76,14.24 L136.96,14.24 C140.053349,14.24 141.6,15.6933188 141.6,18.6 C141.6,20.5466764 140.853341,21.8666632 139.36,22.56 L141.62,27.94 L139.18,27.94 L137.2,23.06 L133.98,23.06 Z M139.32,18.62 C139.32,16.9799918 138.533341,16.16 136.96,16.16 L133.98,16.16 L133.98,21.14 L137,21.14 C137.800004,21.14 138.386665,20.9100023 138.76,20.45 C139.133335,19.9899977 139.32,19.3800038 139.32,18.62 Z M145.12,27.94 L145.12,14.24 L153.76,14.24 L153.76,16.18 L147.34,16.18 L147.34,20.06 L152.56,20.06 L152.56,21.98 L147.34,21.98 L147.34,25.98 L153.76,25.98 L153.76,27.94 L145.12,27.94 Z M157,27.94 L157,25.92 L158.32,25.92 L158.32,27.94 L157,27.94 Z M161.22,27.94 L165.22,14.04 L168.12,14.04 L172.1,27.94 L170.88,27.94 L169.76,24.1 L163.56,24.1 L162.46,27.94 L161.22,27.94 Z M166.12,15.12 L163.86,23 L169.46,23 L167.2,15.12 L166.12,15.12 Z M175.34,27.94 L175.34,14.04 L176.58,14.04 L176.58,27.94 L175.34,27.94 Z" id="SPECTRE.AI" fill="#FFFFFF"></path>
                    <path d="M181.31,11.639 L181.31,11.156 L184.81,11.156 L184.81,11.639 L183.333,11.639 L183.333,16 L182.801,16 L182.801,11.639 L181.31,11.639 Z M185.496,16 L185.496,11.156 L186.469,11.156 L187.841,15.251 L189.213,11.156 L190.186,11.156 L190.186,16 L189.647,16 L189.647,11.73 L189.549,11.73 L188.142,15.825 L187.54,15.825 L186.133,11.73 L186.035,11.73 L186.035,16 L185.496,16 Z" id="TM" fill="#FFFFFE"></path>
                </g>
            </g>
        </g>
    </g>
</svg>