<?xml version="1.0" encoding="utf-8"?>
<!-- Generator: Adobe Illustrator 21.1.0, SVG Export Plug-In . SVG Version: 6.00 Build 0)  -->
<svg version="1.1" id="Layer_1" xmlns="http://www.w3.org/2000/svg" xmlns:xlink="http://www.w3.org/1999/xlink" x="0px" y="0px"
	 viewBox="0 0 279 69" style="enable-background:new 0 0 279 69;" xml:space="preserve">
<style type="text/css">
	.st0{fill:#FFFFFF;}
	.st1{fill:#E90D8C;}
	.st2{fill:#EC1F8E;}
</style>
<g>
	<g>
		<path class="st0" d="M98.1,21.6c-0.1,0.2-0.3,0.4-0.4,0.5c-0.1,0.1-0.3,0.2-0.6,0.2c-0.2,0-0.5-0.1-0.9-0.4
			c-0.3-0.2-0.7-0.5-1.2-0.8c-0.5-0.3-1.1-0.6-1.8-0.8c-0.7-0.2-1.5-0.4-2.5-0.4c-0.9,0-1.8,0.1-2.5,0.4c-0.7,0.3-1.3,0.6-1.8,1
			c-0.5,0.4-0.8,0.9-1.1,1.5C85.1,23.4,85,24,85,24.7c0,0.9,0.2,1.6,0.6,2.2c0.4,0.6,1,1.1,1.7,1.5c0.7,0.4,1.5,0.8,2.4,1
			c0.9,0.3,1.8,0.6,2.7,0.9c0.9,0.3,1.8,0.7,2.7,1.1c0.9,0.4,1.7,0.9,2.4,1.5c0.7,0.6,1.3,1.3,1.7,2.2c0.4,0.9,0.6,2,0.6,3.2
			c0,1.4-0.2,2.6-0.7,3.8c-0.5,1.2-1.1,2.2-2,3.1c-0.9,0.9-2,1.6-3.3,2.1c-1.3,0.5-2.8,0.8-4.4,0.8c-2,0-3.8-0.4-5.5-1.1
			c-1.7-0.7-3.1-1.7-4.2-3l1.2-2c0.1-0.2,0.3-0.3,0.4-0.4c0.2-0.1,0.3-0.2,0.6-0.2c0.3,0,0.6,0.2,1,0.5c0.4,0.3,0.9,0.7,1.5,1.1
			c0.6,0.4,1.3,0.7,2.1,1.1c0.8,0.3,1.8,0.5,3,0.5c1,0,1.9-0.1,2.7-0.4c0.8-0.3,1.4-0.7,2-1.2c0.5-0.5,1-1.1,1.2-1.8
			c0.3-0.7,0.4-1.5,0.4-2.3c0-0.9-0.2-1.7-0.6-2.3c-0.4-0.6-1-1.1-1.7-1.5c-0.7-0.4-1.5-0.7-2.4-1c-0.9-0.3-1.8-0.6-2.7-0.9
			c-0.9-0.3-1.8-0.6-2.7-1c-0.9-0.4-1.7-0.9-2.4-1.5c-0.7-0.6-1.3-1.4-1.7-2.3c-0.4-0.9-0.6-2.1-0.6-3.5c0-1.1,0.2-2.2,0.6-3.2
			c0.4-1,1-1.9,1.9-2.7c0.8-0.8,1.8-1.4,3-1.9c1.2-0.5,2.6-0.7,4.1-0.7c1.7,0,3.3,0.3,4.7,0.8c1.4,0.5,2.7,1.3,3.7,2.4L98.1,21.6z"
			/>
		<path class="st0" d="M110.7,54.2c-0.1,0.3-0.3,0.5-0.5,0.7c-0.2,0.2-0.5,0.3-0.9,0.3h-2.9l4-8.7l-9-20.6h3.3
			c0.3,0,0.6,0.1,0.8,0.2c0.2,0.2,0.3,0.4,0.4,0.6l5.9,13.8c0.1,0.3,0.2,0.6,0.3,1c0.1,0.3,0.2,0.6,0.2,1c0.1-0.3,0.2-0.7,0.3-1
			c0.1-0.3,0.2-0.6,0.3-1l5.7-13.8c0.1-0.2,0.2-0.4,0.4-0.6c0.2-0.2,0.4-0.2,0.7-0.2h3.1L110.7,54.2z"/>
		<path class="st0" d="M126.1,47.8V25.8h2.3c0.5,0,0.9,0.3,1,0.8l0.3,2.4c1-1.1,2-1.9,3.2-2.6c1.2-0.6,2.5-1,4.1-1
			c1.2,0,2.3,0.2,3.2,0.6c0.9,0.4,1.7,1,2.3,1.7c0.6,0.7,1.1,1.6,1.4,2.6c0.3,1,0.5,2.2,0.5,3.4v14h-3.9v-14c0-1.7-0.4-2.9-1.1-3.9
			c-0.8-0.9-1.9-1.4-3.5-1.4c-1.1,0-2.2,0.3-3.2,0.8c-1,0.5-1.9,1.3-2.7,2.2v16.1H126.1z"/>
		<path class="st0" d="M166,47.8h-1.7c-0.4,0-0.7-0.1-0.9-0.2c-0.2-0.1-0.4-0.4-0.5-0.7l-0.4-2c-0.6,0.5-1.1,1-1.7,1.4
			c-0.5,0.4-1.1,0.8-1.7,1c-0.6,0.3-1.3,0.5-1.9,0.6c-0.7,0.1-1.4,0.2-2.3,0.2c-0.9,0-1.6-0.1-2.4-0.4c-0.7-0.2-1.4-0.6-1.9-1.1
			c-0.5-0.5-1-1.1-1.3-1.8c-0.3-0.7-0.5-1.6-0.5-2.6c0-0.9,0.2-1.7,0.7-2.5c0.5-0.8,1.2-1.5,2.3-2.1c1.1-0.6,2.4-1.1,4.2-1.5
			c1.7-0.4,3.8-0.6,6.3-0.6v-1.7c0-1.7-0.4-3-1.1-3.9c-0.7-0.9-1.8-1.3-3.2-1.3c-0.9,0-1.7,0.1-2.4,0.4c-0.6,0.2-1.2,0.5-1.7,0.8
			c-0.5,0.3-0.9,0.6-1.2,0.8c-0.3,0.2-0.7,0.4-1,0.4c-0.3,0-0.5-0.1-0.7-0.2c-0.2-0.1-0.3-0.3-0.5-0.5l-0.7-1.2
			c1.2-1.2,2.5-2,3.9-2.6c1.4-0.6,3-0.9,4.7-0.9c1.2,0,2.3,0.2,3.3,0.6c1,0.4,1.8,1,2.4,1.7c0.6,0.7,1.1,1.6,1.5,2.6
			c0.3,1,0.5,2.1,0.5,3.4V47.8z M156,45.4c0.7,0,1.3-0.1,1.9-0.2c0.6-0.1,1.1-0.3,1.6-0.6c0.5-0.3,1-0.6,1.4-0.9
			c0.5-0.4,0.9-0.8,1.3-1.2v-4.5c-1.8,0-3.3,0.1-4.5,0.3c-1.2,0.2-2.3,0.5-3,0.9c-0.8,0.4-1.3,0.8-1.7,1.3c-0.4,0.5-0.5,1-0.5,1.7
			c0,0.6,0.1,1.1,0.3,1.5c0.2,0.4,0.4,0.8,0.8,1c0.3,0.3,0.7,0.5,1.1,0.6C155,45.4,155.5,45.4,156,45.4z"/>
		<path class="st0" d="M171.5,55.2V25.8h2.3c0.5,0,0.9,0.3,1,0.8l0.3,2.6c0.9-1.1,2-2.1,3.2-2.7c1.2-0.7,2.6-1,4.2-1
			c1.3,0,2.4,0.2,3.4,0.7c1,0.5,1.9,1.2,2.6,2.1c0.7,0.9,1.3,2.1,1.7,3.5c0.4,1.4,0.6,3,0.6,4.8c0,1.6-0.2,3.1-0.6,4.5
			c-0.4,1.4-1.1,2.6-1.9,3.6c-0.8,1-1.8,1.8-3,2.4c-1.2,0.6-2.5,0.9-4,0.9c-1.4,0-2.5-0.2-3.5-0.7c-1-0.4-1.8-1.1-2.5-1.9v9.7H171.5
			z M181.3,28.6c-1.3,0-2.4,0.3-3.3,0.9c-0.9,0.6-1.8,1.4-2.6,2.4v10.6c0.7,1,1.5,1.6,2.3,2c0.8,0.4,1.8,0.6,2.8,0.6
			c2,0,3.6-0.7,4.7-2.2c1.1-1.5,1.6-3.5,1.6-6.2c0-1.4-0.1-2.7-0.4-3.7c-0.3-1-0.6-1.9-1.1-2.5c-0.5-0.7-1.1-1.1-1.8-1.4
			C183,28.7,182.2,28.6,181.3,28.6z"/>
		<path class="st0" d="M207.7,29.5c-0.2,0.3-0.4,0.5-0.8,0.5c-0.2,0-0.5-0.1-0.7-0.2c-0.3-0.2-0.6-0.3-1-0.5
			c-0.4-0.2-0.9-0.4-1.4-0.5c-0.5-0.2-1.2-0.2-1.9-0.2c-0.6,0-1.2,0.1-1.8,0.2c-0.5,0.2-1,0.4-1.3,0.7c-0.4,0.3-0.6,0.6-0.8,1
			c-0.2,0.4-0.3,0.8-0.3,1.2c0,0.6,0.2,1,0.5,1.4c0.3,0.4,0.8,0.7,1.3,1c0.5,0.3,1.1,0.5,1.8,0.7c0.7,0.2,1.4,0.4,2.1,0.7
			c0.7,0.2,1.4,0.5,2.1,0.8c0.7,0.3,1.3,0.6,1.8,1.1c0.5,0.4,1,1,1.3,1.6c0.3,0.6,0.5,1.4,0.5,2.3c0,1-0.2,1.9-0.5,2.8
			c-0.4,0.9-0.9,1.6-1.6,2.2c-0.7,0.6-1.6,1.1-2.6,1.5c-1,0.4-2.2,0.5-3.5,0.5c-1.5,0-2.9-0.2-4.2-0.7c-1.2-0.5-2.3-1.1-3.2-1.9
			l0.9-1.5c0.1-0.2,0.3-0.3,0.4-0.4c0.2-0.1,0.4-0.2,0.6-0.2c0.3,0,0.5,0.1,0.8,0.3c0.3,0.2,0.6,0.4,1,0.7c0.4,0.2,0.9,0.5,1.5,0.7
			c0.6,0.2,1.3,0.3,2.2,0.3c0.8,0,1.4-0.1,2-0.3c0.6-0.2,1-0.5,1.4-0.8c0.4-0.3,0.7-0.7,0.8-1.1c0.2-0.4,0.3-0.9,0.3-1.4
			c0-0.6-0.2-1.1-0.5-1.5c-0.3-0.4-0.8-0.7-1.3-1c-0.5-0.3-1.1-0.5-1.8-0.7c-0.7-0.2-1.4-0.4-2.1-0.7c-0.7-0.2-1.4-0.5-2.1-0.8
			c-0.7-0.3-1.3-0.7-1.8-1.1c-0.5-0.4-1-1-1.3-1.7c-0.3-0.7-0.5-1.5-0.5-2.4c0-0.8,0.2-1.6,0.5-2.4c0.3-0.8,0.9-1.5,1.5-2
			c0.7-0.6,1.5-1,2.4-1.4c1-0.3,2.1-0.5,3.3-0.5c1.4,0,2.7,0.2,3.9,0.7c1.1,0.5,2.1,1.1,3,1.9L207.7,29.5z"/>
		<path class="st0" d="M222.3,25.5c1.3,0,2.5,0.2,3.6,0.7c1.1,0.4,2.1,1.1,2.9,1.9c0.8,0.8,1.4,1.9,1.9,3.1c0.5,1.2,0.7,2.6,0.7,4.2
			c0,0.6-0.1,1-0.2,1.2c-0.1,0.2-0.4,0.3-0.7,0.3h-14.6c0,1.4,0.2,2.6,0.6,3.6c0.3,1,0.8,1.9,1.4,2.6c0.6,0.7,1.3,1.2,2.2,1.5
			c0.8,0.3,1.8,0.5,2.8,0.5c1,0,1.8-0.1,2.5-0.3c0.7-0.2,1.3-0.5,1.8-0.7c0.5-0.3,0.9-0.5,1.3-0.7c0.3-0.2,0.6-0.3,0.9-0.3
			c0.3,0,0.6,0.1,0.7,0.4l1.1,1.4c-0.5,0.6-1,1.1-1.7,1.5c-0.7,0.4-1.4,0.8-2.1,1c-0.8,0.3-1.5,0.5-2.3,0.6
			c-0.8,0.1-1.6,0.2-2.4,0.2c-1.5,0-2.9-0.3-4.2-0.8c-1.3-0.5-2.4-1.3-3.3-2.3c-0.9-1-1.7-2.2-2.2-3.7c-0.5-1.5-0.8-3.1-0.8-5
			c0-1.5,0.2-3,0.7-4.3c0.5-1.3,1.1-2.5,2-3.5c0.9-1,2-1.7,3.2-2.3C219.3,25.8,220.7,25.5,222.3,25.5z M222.4,28.3
			c-1.9,0-3.3,0.5-4.4,1.6c-1.1,1.1-1.7,2.6-2,4.5h11.9c0-0.9-0.1-1.7-0.4-2.5c-0.2-0.7-0.6-1.4-1.1-1.9c-0.5-0.5-1.1-1-1.7-1.3
			C224,28.5,223.3,28.3,222.4,28.3z"/>
		<path class="st1" d="M270.2,47.8h-3.2c-0.4,0-0.7-0.1-0.9-0.3c-0.2-0.2-0.4-0.4-0.5-0.7l-2.9-7.5h-13.9l-2.9,7.5
			c-0.1,0.3-0.3,0.5-0.5,0.7c-0.2,0.2-0.5,0.3-0.9,0.3h-3.2l12.4-31h4.3L270.2,47.8z M249.8,36.3h11.6l-4.9-12.6
			c-0.3-0.8-0.6-1.8-0.9-2.9c-0.2,0.6-0.3,1.1-0.5,1.6c-0.2,0.5-0.3,0.9-0.4,1.3L249.8,36.3z"/>
		<path class="st1" d="M278.8,47.8h-4.2v-31h4.2V47.8z"/>
	</g>
	<g>
		<g>
			<path class="st2" d="M24.2,1.3c-0.4-0.5-1-0.8-1.6-0.5c-0.3,0.1-0.5,0.3-0.6,0.6c-0.1,0.3-0.1,0.6,0,0.9
				c3.5,9.2,5.1,12.2,4.8,13.6c-0.8,3.9-1.4,7.5-2.9,11.2c-2-1.5-4.3-2.8-6.4-4.3c-1.4-1-1.3-1-1.2-3.1c0.1-2.2,1.1-10.5,1.1-10.5
				c0.2-0.6-0.2-1.2-0.8-1.4c-0.3-0.1-0.6,0-0.9,0.1c-0.3,0.2-0.4,0.4-0.5,0.7l-0.2,0.7c-0.4,1.4-0.3,3-0.4,4.4
				c-0.2,1.6,0.1,4.9-1.9,5.4c-1.5,0.4-3.1-1.3-4.2-2.1c-1-0.7-3.4-2.4-4.3-0.8c-0.2,0.4-0.2,0.6-0.1,0.8c0.1,0.4,0.8,0.8,1.1,1
				c3.5,2.7,7.3,5,11.1,7.4c3.3,2.1,6.1,4.3,9,7c-2.2,1-4.2,1.9-6.6,2.3c-1.7,0.3-3.6,1.5-5.4,0.8c0,0-0.1-0.1-0.1-0.1
				c-0.7-0.3-1.2-1.2-1.7-1.8c-1.8-2.1-3.9-4.4-5.3-6.7c-0.6-1-2.1-1.9-2.7-0.4c-0.4,0.9,0.3,1.7,0.9,2.4c0.8,1,1.6,2,2.4,3.1
				c0.4,0.5,2.3,2.3,2.3,2.9c0,1.5-2.7,2.2-3.8,2.5C3.8,37.6,0.8,38,0,39.1c-0.1,0.1-0.2,0.3-0.1,0.8c0.1,0.6,0.7,1,1.3,0.9
				c11.1-2,22.5-4.5,33.3-7.5c1.2,1.7,3.4,4,1.8,6.1c-2.1,2.7-6.8,4.9-9.8,6.3c-3.2,1.5-3.4-2.7-5.6-3.9c-2.1-1.1,1.5,4.6,1.4,4.6
				c-1.8,1.7-3.8,1.5-5.9,0.8c-1.9-0.6-4-1.2-6-1.6c-0.9-0.2-3.7-1.3-3.4,0.5c0.1,0.9,1.7,1.4,2.4,1.7c1.6,0.6,3.3,0.7,4.9,1.2
				c7.5,2.3-2.9,7.1-2.8,10.9c0,0.2,0.1,0.4,0.4,0.7c0.5,0.4,1.2,0.3,1.6-0.1c0,0,8.2-9.7,8.2-9.7c0.5-0.6,2.2-1,2.9-1.3
				c1.3-0.6,2.6-1.3,3.8-2.1c1.5-0.9,4-3.4,5.9-3.1c4.9,0.7-0.4,9.5-2.4,10.7c-1.2,0.8-2.5,1.4-3.7,2.2c-1.4,1-3,1.7-4.5,2.6
				c-0.7,0.4-1.6,0.9-2.1,1.6c-0.6,0.8-0.6,2.2,0.9,1.8c2.5-0.7,5.1-2.3,7.2-3.6c0.8-0.5,1.9-1.8,3-1.5c1.8,0.5,1,4.4,1,5.8
				c0,0.7-0.4,4.7,0.5,5c0.1,0,0.3,0.1,0.4,0.1c0.3,0,0.6-0.1,0.8-0.3c0.2-0.2,0.3-0.5,0.3-0.8c0-3.4,1-7,1.6-10.2
				c0.4-2.6,0.9-5.2,1.3-7.7c0.4-2.1,0.3-5,1.8-6.5c0.4-0.4,5.8,6.2,6.2,6.7c0.9,1.1-0.2,3.6-0.6,4.6c-1.1,2.6-2,5.6-3.5,8.1
				c-0.4,0.7,0.1,1.8,0.9,1.9c1.2,0.1,1.8-2.2,2.2-3c0.7-1.5,1.2-3,1.9-4.5c0.4-0.9,1-2.9,1.8-3.4c1.4-0.8,3.9,3.7,4.5,4.6
				c0.8,1.2,1.6,2.4,2.3,2.7c1,0.4,1.9-1.1,1.2-1.9c-5.8-7.6-12-14.9-17.3-22.9c-0.7-1-1.5-2.8-0.7-4c0.8-1.3,2.8-2.4,4.2-3
				c1.7-0.7,2.5,0.3,3.8,1.4c1.2,0.9,3.2,2.4,3.8,3.8c0.7,1.7-0.9,3.8-1.5,5.3c-0.2,0.4-1,2-0.6,2.4c1.2,1.3,3.1-7,6-3.4
				c0.9,1.1,1.8,3.2,2.5,4.6c0.9,1.9,1.3,3.9,2,5.9c0.7,2,1.9,2.4,2-0.1c0-2-1.6-4.1-2-6.1c-0.8-3.7,1.6-3.1,4.3-2.6
				c1.2,0.2,3.7,0.9,4.8,0.2c0.9-0.5,1.1-2-0.2-2.2l-12.2-2.2L56,36.4c-1.6-1.7-3.3-3.4-4.9-5.2c-0.7-0.7-2.2-1.9-2.3-2.9
				c-0.2-2.6,5-4.4,6.8-4.9c1-0.3,6.2,5.4,7.2,6.3c0.6,0.5,2.1,2.3,3.1,1.8c1.1-0.6-0.3-2.6-0.9-3.2c-1.3-1.3-4.3-3.5-5-5.2
				c-0.7-1.9,1.3-2.9,2.7-3.6c1.2-0.5,2.2-1.6,2.5-2.3c0-0.1,0.1-0.4-0.2-0.8c-0.3-0.5-1-0.7-1.5-0.4c-3.8,2.2-8,3.9-12,5.9
				c-2.9,1.4-5.7,3-8.7,4.3c-0.8,0.4-3.2,1.6-3.6,0.3c-0.2-0.6,0.8-2.2,1-2.8c0.4-1.2,0.9-2.4,1.4-3.6c0.9-2.1,1.4-4.3,2.8-6.1
				c0.7-1,7-1.3,8.9-1.3c0.8,0,2.1-0.2,1.9-1.6c-0.2-1.9-3-1.4-4.4-1.2c-1.5,0.2-3.8,1.3-4.5-0.7c-0.4-1.2,0.5-2.8,0.9-3.8
				c0.4-1.1,1-2.5,0.5-3.7c-0.5-1.1-2.1-1.2-2.6,0c-3.1,8.6-6.7,17-10,25.6c-1,2.5-4.5,4.9-6.9,2.6c-2.1-2-0.4-5.1-0.1-7.4
				c0.3-2.5,1-5.2,3.1-6.7c0.5-0.3,4.1-2.7,3.2-3.5c-1.2-1.1-3,1.7-4.3,1.6c-1.5-3.8,4.4-6.6,6.6-9c0.3-0.3,1.7-2,1.5-2.5
				c-0.7-1.8-6.5,3.7-7.1,4.4c-0.8,0.8-1.4,2-2.7,2.2c-1.5,0.3-2-2-2.5-3.2C25.5,4.1,25.2,2.5,24.2,1.3z"/>
		</g>
	</g>
</g>
</svg>
