<svg xmlns="http://www.w3.org/2000/svg" class="logo-icon" width="145.841" height="48.638"><g fill="#fff"><path d="M62.164 6.658v2.558h-3.27v8.291h-3.068V9.216h-3.284V6.658zm3.6 11.08c-2.672 0-3.85-2.03-3.85-3.951 0-1.92 1.178-3.952 3.85-3.952 1.426 0 2.306.62 2.704 1.24v-1.007h2.488v7.44h-2.488V16.5c-.398.619-1.278 1.239-2.704 1.239m.763-2.17c.779 0 1.36-.449 1.609-.93v-1.704c-.249-.482-.83-.93-1.61-.93-1.194 0-1.708.915-1.708 1.782s.514 1.782 1.709 1.782m11.822 1.938l-1.958-2.82h-.597v2.82h-2.82V6.658h2.82v6.012h.632l1.741-2.602h3.152l-2.588 3.656 2.756 3.783zm4.24-11.314h2.82v11.314h-2.82zm6.217 2.821c-.848 0-1.61-.434-1.61-1.458 0-1.007.763-1.44 1.61-1.44.862 0 1.61.434 1.61 1.44 0 1.024-.748 1.458-1.61 1.458m-1.41 1.054h2.818v7.44h-2.818zm4.789 7.44v-7.44h2.49v.79c.416-.464 1.31-1.023 2.455-1.023 1.194 0 1.925.45 2.356 1.023.647-.558 1.493-1.023 2.539-1.023 2.39 0 3.366 1.876 2.938 2.898v4.774h-2.822v-4.541c0-.59-.414-.883-.912-.883-.382 0-.813.154-1.162.48v4.944h-2.821v-4.541c0-.59-.415-.883-.912-.883-.45 0-.964.217-1.327.65v4.774zm18.201.23c-2.67 0-3.85-2.03-3.85-3.951 0-1.92 1.179-3.952 3.85-3.952 1.428 0 2.306.62 2.706 1.24v-1.007h2.488v7.44h-2.488V16.5c-.399.619-1.278 1.239-2.706 1.239m.764-2.17c.78 0 1.36-.449 1.61-.93v-1.704c-.25-.482-.83-.93-1.61-.93-1.194 0-1.71.915-1.71 1.782.001.867.516 1.782 1.71 1.782m11.824 1.938l-1.957-2.82h-.598v2.82h-2.82V6.658h2.82v6.012h.631l1.742-2.602h3.153l-2.588 3.656 2.754 3.783zm7.442.232c-2.67 0-3.85-2.03-3.85-3.952 0-1.92 1.179-3.952 3.85-3.952 1.427 0 2.306.62 2.705 1.24v-1.007h2.487v7.44h-2.487V16.5c-.399.619-1.279 1.239-2.705 1.239m.763-2.17c.78 0 1.36-.449 1.61-.93v-1.704c-.25-.482-.83-.93-1.61-.93-1.193 0-1.709.915-1.709 1.782s.516 1.782 1.71 1.782m11.476-5.734c1.892.26 3.185 1.541 3.185 3.054v4.618h-2.82v-4.262c0-.792-.515-1.162-1.212-1.162-.63 0-1.111.355-1.36.65v4.774h-2.821v-7.439h2.49v.851c.662-.667 1.476-1.084 2.538-1.084M53.85 30.697v-10.85h1.295l6.984 8.664v-8.663h1.394v10.85H62.23l-6.984-8.68v8.68zm15.837-7.624c3.07 0 4.198 2.34 3.699 4.447H67.05c.166 1.565 1.675 2.216 3.286 2.216.978 0 1.94-.25 2.621-.604v1.21c-.73.354-1.776.54-2.82.54-2.357 0-4.413-1.255-4.413-3.905-.001-2.603 2.072-3.904 3.964-3.904m.082 1.146c-1.36 0-2.621.76-2.72 2.216h5.159c.115-.79-.414-2.216-2.44-2.216m7.523-3.58v2.62h3.186v1.146h-3.186v3.845c0 1.13.547 1.47 1.71 1.47.63 0 1.227-.14 1.758-.341v1.147a6.972 6.972 0 0 1-2.14.34c-1.545 0-2.638-.864-2.638-2.4v-4.062h-1.495v-1.147h1.495v-2.31zm16.844 2.62l-2.72 7.438h-1.443l-2.158-5.75-2.157 5.75h-1.444l-2.722-7.439h1.395l2.059 6.076 2.271-6.076h1.194l2.273 6.076 2.058-6.076zm5.235-.186c2.172 0 4.247 1.363 4.247 3.904 0 2.543-2.075 3.905-4.247 3.905-2.157 0-4.249-1.363-4.249-3.905 0-2.54 2.092-3.904 4.249-3.904m0 1.177c-1.627 0-2.921 1.007-2.921 2.727 0 1.722 1.294 2.728 2.92 2.728s2.92-1.006 2.92-2.728c0-1.72-1.294-2.727-2.92-2.727m10.955-1.147v1.24c-1.56-.17-2.821.526-3.302 1.721v4.633h-1.327v-7.439h1.194v1.318c.632-.977 2.042-1.581 3.435-1.473m7.421 7.594l-2.92-3.192h-1.56v3.192h-1.325v-10.85h1.324v6.51h1.611l2.522-3.1h1.543l-3.02 3.705 3.385 3.735zM.214 16.421L0 16.49l17.992 12.615 13.435 16.699.134.167L49.001.454 49.174 0zm25.7 6.29l4.027 19.097L19.65 28.56zM4.303 16.528l40.76-13.671L26.132 20.54zm20.56 5.197l-6.264 5.852-14.182-9.611zM46.116 3.84L31.48 41.912l-4.297-20.386z"/><path d="M24.113 31.223l-8.593 8.593 5.367 8.822zM6.698 34.449l8.822 5.367 8.593-8.593zm0 0l14.189 14.189-5.367-8.822zM115.058 37.158a3.234 3.234 0 0 0-3.24 3.242v3.838a3.233 3.233 0 0 0 3.24 3.24h26.733a3.233 3.233 0 0 0 3.24-3.24V40.4a3.234 3.234 0 0 0-3.24-3.242zm2.131 2.094h2.647c.683 0 1.212.137 1.586.412.38.275.57.662.57 1.164 0 .339-.084.63-.254.87a1.48 1.48 0 0 1-.683.525c.403.087.713.262.93.525.221.257.331.591.331 1 0 .526-.194.93-.586 1.217-.385.28-.959.422-1.718.422h-2.823zm6.608 0h4.207v.56h-3.559v2.182h3.174v.553h-3.174v2.28h3.69v.56h-4.338zm4.908 0h4.959v.56h-2.154v5.575h-.649v-5.575h-2.156zm7.51 0h.64l2.805 6.135h-.684l-.736-1.639h-3.418l-.736 1.639h-.674zm-18.377.533v2.227h1.955c.496 0 .88-.093 1.148-.28.27-.192.403-.471.403-.834 0-.362-.134-.637-.403-.824-.268-.193-.652-.289-1.148-.289zm18.693.14l-1.473 3.296h2.946zm-18.693 2.622v2.305h2.166c.549 0 .963-.095 1.244-.282.28-.187.42-.477.42-.875 0-.765-.554-1.148-1.664-1.148z"/></g></svg>