<?xml version="1.0" encoding="utf-8"?>
<!-- Generator: Adobe Illustrator 22.1.0, SVG Export Plug-In . SVG Version: 6.00 Build 0)  -->
<svg version="1.1" id="Layer_1" xmlns="http://www.w3.org/2000/svg" xmlns:xlink="http://www.w3.org/1999/xlink" x="0px" y="0px"
	 viewBox="0 0 1210.9 597.1" style="enable-background:new 0 0 1210.9 597.1;" xml:space="preserve">
<style type="text/css">
	.st0{fill:none;}
	.st1{fill:#FFFFFF;}
</style>
<g>
	<path class="st0" d="M736.7,1273.2c19.2-9.9,38.7-19.2,59-27.6v17.2c0,13.6,11.1,24.7,24.7,24.7h9.6c13.6,0,24.7-11.1,24.7-24.7
		v-37.6c9-2.5,18.2-4.7,27.7-6.7l-27.7-0.7v-104.1c0-13.6-11.1-24.7-24.7-24.7h-9.6c-13.6,0-24.7,11.1-24.7,24.7v102.7l-59-1.4v-2.1
		c0-13.6-11.1-24.7-24.7-24.7h-9.5c-13.6,0-24.7,11.1-24.7,24.7v0.7l-46.7-1.1v-49.2c0-13.6-11.1-24.7-24.7-24.7h-9.6
		c-13.6,0-24.7,11.1-24.7,24.7v47.8l-16.9-0.4c-13.4-4.7-27.4-9.1-42.1-13.1c-2.4-0.6-4.8-1.3-7.1-1.9c-4.5-4.6-10.7-7.4-17.7-7.4
		H479c-1.1,0-2.3,0.1-3.4,0.2c-27.9-5.9-54.7-9.7-80.3-11.6V1120c0-13.6-11.1-24.7-24.7-24.7H361c-13.6,0-24.7,11.1-24.7,24.7v55.5
		c-21.6,0.7-42.3,2.6-62.1,5.7v-67.4c0-13.6-11.1-24.7-24.7-24.7h-9.6c-13.6,0-24.7,11.1-24.7,24.7v80.2c-8.8,2.5-17.4,5.2-25.7,8
		l-238.1-5.7c0,0,28.8,43.1,86.4,89.2c-57.6,46-86.4,88.9-86.4,88.9l236.4-5.6c43.5,15.1,93,25.3,148.5,27.1v59.3
		c0,13.6,11.1,24.7,24.7,24.7h9.6c13.6,0,24.7-11.1,24.7-24.7v-60.7c23.3-1.8,47.6-5.1,72.8-10.1c3.3,1.6,7,2.6,10.9,2.6h9.5
		c9.1,0,17.1-5,21.4-12.3c1-0.3,2.1-0.5,3.1-0.8c15.2-4.1,29.6-8.7,43.5-13.7l121.3-2.9v98c0,13.6,11.1,24.7,24.7,24.7h9.5
		c13.6,0,24.7-11.1,24.7-24.7v-99.4l146.1-3.5c-55.3-11.4-101.3-31.7-146.1-54.7L736.7,1273.2L736.7,1273.2z M972.3,1350.1
		c2.2-3.7,3.5-8.1,3.5-12.7v-99.5c0-6.7-2.7-12.7-7-17.2l152.2,3.6c-99.8-20.2-175.3-18.8-238.7-5.7l42.4,1c-4.9,4.5-8,11-8,18.2
		v99.5c0,5.2,1.6,10,4.3,14l-38.2,0.9c15.1,3.1,30.9,5.6,47.5,7.2c3.3,1.7,7.1,2.6,11.1,2.6h9.6c2.1,0,4.1-0.3,6-0.7
		c47.1,2.1,100.9-2,164.6-14.8L972.3,1350.1z"/>
</g>
<g>
	<rect x="435.9" y="491.8" class="st1" width="2" height="68"/>
</g>
<g>
	<rect x="195.3" y="351.5" class="st1" width="2" height="116.3"/>
</g>
<g>
	<rect x="315.7" y="305" class="st1" width="2" height="68.9"/>
</g>
<g>
	<rect x="436.7" y="56.6" class="st1" width="2" height="58.3"/>
</g>
<g>
	<rect x="553.9" y="157.7" class="st1" width="2" height="48"/>
</g>
<g>
	<rect x="553.9" y="403.7" class="st1" width="2" height="66.4"/>
</g>
<g>
	<rect x="674.2" y="305" class="st1" width="2" height="52.2"/>
</g>
<g>
	<rect x="674.2" y="119.7" class="st1" width="2" height="36.4"/>
</g>
<g>
	<rect x="779.2" y="134" class="st1" width="2" height="71.7"/>
</g>
<g>
	<rect x="779.2" y="496.7" class="st1" width="2" height="46.8"/>
</g>
<g>
	<rect x="897.2" y="305" class="st1" width="2" height="44.4"/>
</g>
<g>
	<rect x="1018.2" y="379.5" class="st1" width="2" height="48.3"/>
</g>
<g>
	<rect x="1018.2" y="191.8" class="st1" width="2" height="37.8"/>
</g>
<g>
	<rect x="315.7" y="60.5" class="st1" width="2" height="46.1"/>
</g>
<g>
	<rect x="195.3" y="156.1" class="st1" width="2" height="100.8"/>
</g>
<path class="st1" d="M1024,230.6h-9.6c-13.6,0-24.7,11.1-24.7,24.7v99.5c0,13.6,11.1,24.7,24.7,24.7h9.6c13.6,0,24.7-11.1,24.7-24.7
	v-99.5C1048.7,241.6,1037.7,230.6,1024,230.6z"/>
<path class="st1" d="M679.4,156.1h-9.6c-13.6,0-24.7,11.1-24.7,24.7v99.5c0,13.6,11.1,24.7,24.7,24.7h9.6
	c13.6,0,24.7-11.1,24.7-24.7v-99.5C704.1,167.1,693.1,156.1,679.4,156.1z"/>
<path class="st1" d="M201.1,256.9h-9.6c-13.6,0-24.7,11.1-24.7,24.7v49.9c0,13.6,11.1,24.7,24.7,24.7h9.6
	c13.6,0,24.7-11.1,24.7-24.7v-49.9C225.8,267.9,214.7,256.9,201.1,256.9z"/>
<path class="st1" d="M322.4,106.6h-9.6c-13.6,0-24.7,11.1-24.7,24.7v149c0,13.6,11.1,24.7,24.7,24.7h9.6c13.6,0,24.7-11.1,24.7-24.7
	v-149C347.2,117.6,336.1,106.6,322.4,106.6z"/>
<path class="st1" d="M903,106.6h-9.6c-13.6,0-24.7,11.1-24.7,24.7v149c0,13.6,11.1,24.7,24.7,24.7h9.6c13.6,0,24.7-11.1,24.7-24.7
	v-149C927.7,117.6,916.6,106.6,903,106.6z"/>
<path class="st1" d="M561.4,205.7h-9.5c-13.6,0-24.7,11.1-24.7,24.7v149.1c0,13.6,11.1,24.7,24.7,24.7h9.5
	c13.6,0,24.7-11.1,24.7-24.7v-149C586.1,216.8,575.1,205.7,561.4,205.7z"/>
<path class="st1" d="M785,205.8h-9.5c-13.6,0-24.7,11.1-24.7,24.7v242.1c0,13.6,11.1,24.7,24.7,24.7h9.5c13.6,0,24.7-11.1,24.7-24.7
	V230.5C809.7,216.8,798.6,205.8,785,205.8z"/>
<path class="st1" d="M443.5,112.8h-9.6c-13.6,0-24.7,11.1-24.7,24.7v335.1c0,13.6,11.1,24.7,24.7,24.7h9.6
	c13.6,0,24.7-11.1,24.7-24.7V137.5C468.2,123.8,457.2,112.8,443.5,112.8z"/>
<g>
	<path class="st1" d="M424.1,417.4c-1.9,0-3.8,0-5.6,0v-3c1.9,0,3.8,0,5.7,0c2.1,0,4.2,0,6.3,0v3
		C428.4,417.3,426.2,417.4,424.1,417.4z M413.5,417.2c-4-0.1-8-0.2-12-0.4l0.1-3c4,0.2,8,0.3,12,0.4L413.5,417.2z M435.5,417.2
		l-0.1-3c4-0.1,8-0.2,12-0.4l0.1,3C443.6,417,439.5,417.2,435.5,417.2z M396.4,416.6c-4-0.2-8-0.5-12-0.8l0.2-3
		c3.9,0.3,8,0.6,11.9,0.8L396.4,416.6z M452.6,416.6l-0.2-3c4-0.2,8-0.5,11.9-0.7l0.2,3C460.6,416.2,456.5,416.4,452.6,416.6z
		 M469.6,415.5l-0.2-3c3.9-0.3,8-0.7,11.9-1.1l0.3,3C477.6,414.8,473.5,415.2,469.6,415.5z M379.4,415.5c-4-0.3-8-0.7-12-1.2l0.3-3
		c3.9,0.4,7.9,0.8,11.9,1.2L379.4,415.5z M486.5,413.8l-0.3-3c3.9-0.4,7.9-0.9,11.9-1.4l0.4,3C494.5,412.9,490.5,413.4,486.5,413.8z
		 M362.5,413.7c-4-0.5-8-1-11.9-1.6l0.4-3c3.9,0.6,7.9,1.1,11.9,1.6L362.5,413.7z M503.4,411.7l-0.4-3c3.9-0.5,7.9-1.1,11.8-1.8
		l0.5,3C511.4,410.6,507.4,411.2,503.4,411.7z M345.6,411.4c-3.9-0.6-7.9-1.3-11.9-2l0.5-3c3.9,0.7,7.9,1.4,11.8,2L345.6,411.4z
		 M520.3,409.1l-0.5-3c3.9-0.7,7.9-1.4,11.8-2.1l0.6,2.9C528.2,407.8,524.2,408.5,520.3,409.1z M328.8,408.6
		c-3.9-0.7-7.9-1.5-11.8-2.4l0.6-2.9c3.9,0.8,7.8,1.6,11.7,2.4L328.8,408.6z M537,406.1l-0.6-2.9c3.9-0.8,7.8-1.6,11.7-2.4l0.6,2.9
		C544.9,404.5,540.9,405.3,537,406.1z M312.1,405.1c-3.9-0.9-7.8-1.8-11.7-2.8l0.7-2.9c3.8,1,7.8,1.9,11.6,2.8L312.1,405.1z
		 M553.7,402.6l-0.7-2.9c3.9-0.9,7.8-1.8,11.7-2.7l0.7,2.9C561.5,400.8,557.6,401.7,553.7,402.6z M295.5,401.1
		c-3.9-1-7.8-2.1-11.6-3.2l0.8-2.9c3.8,1.1,7.7,2.2,11.5,3.2L295.5,401.1z M570.3,398.7l-0.7-2.9c3.8-1,7.7-2,11.6-3l0.8,2.9
		C578.1,396.7,574.2,397.7,570.3,398.7z M279.1,396.5c-3.8-1.1-7.7-2.4-11.5-3.6l0.9-2.9c3.8,1.2,7.6,2.4,11.4,3.6L279.1,396.5z
		 M586.8,394.3l-0.8-2.9c3.8-1.1,7.7-2.2,11.5-3.3l0.9,2.9C594.5,392.2,590.6,393.3,586.8,394.3z M262.9,391.3
		c-3.8-1.3-7.6-2.6-11.4-4l1-2.8c3.7,1.4,7.5,2.7,11.3,4L262.9,391.3z M603.1,389.6l-0.9-2.9c3.8-1.2,7.6-2.4,11.4-3.6l0.9,2.8
		C610.8,387.2,606.9,388.4,603.1,389.6z M246.8,385.6c-3.7-1.4-7.5-2.9-11.2-4.4l1.1-2.8c3.7,1.5,7.4,3,11.1,4.4L246.8,385.6z
		 M619.3,384.3l-1-2.8c3.7-1.3,7.5-2.6,11.3-3.9l1,2.8C626.9,381.7,623.1,383.1,619.3,384.3z M231,379.3c-3.7-1.5-7.4-3.1-11.1-4.8
		l1.2-2.7c3.6,1.6,7.3,3.2,11,4.7L231,379.3z M635.4,378.7l-1-2.8c3.7-1.4,7.5-2.8,11.2-4.2l1.1,2.8
		C642.9,375.8,639.1,377.3,635.4,378.7z M651.3,372.5l-1.1-2.8c3.6-1.5,7.4-3,11.1-4.5l1.2,2.8C658.7,369.6,655,371.1,651.3,372.5z
		 M215.3,372.5c-3.6-1.7-7.3-3.4-10.9-5.1l1.3-2.7c3.6,1.7,7.2,3.5,10.8,5.1L215.3,372.5z M667,366l-1.2-2.8c3.6-1.5,7.3-3.2,11-4.8
		l1.2,2.7C674.4,362.9,670.7,364.5,667,366z M200,365.1c-3.6-1.8-7.2-3.6-10.7-5.5l1.4-2.7c3.5,1.9,7.1,3.7,10.6,5.5L200,365.1z
		 M682.6,359.2l-1.2-2.7c3.6-1.6,7.2-3.3,10.9-5l1.3,2.7C689.8,355.8,686.2,357.5,682.6,359.2z M184.8,357.2
		c-3.5-1.9-7-3.9-10.5-5.9l1.5-2.6c3.5,2,7,3.9,10.4,5.8L184.8,357.2z M698,352l-1.3-2.7c3.5-1.7,7.1-3.4,10.8-5.2l1.3,2.7
		C705.2,348.5,701.5,350.3,698,352z M170,348.9c-3.4-2-6.9-4.1-10.3-6.2l1.6-2.6c3.4,2.1,6.8,4.2,10.2,6.2L170,348.9z M713.3,344.5
		l-1.3-2.7c3.6-1.8,7.2-3.6,10.7-5.4l1.4,2.7C720.5,340.9,716.9,342.7,713.3,344.5z M155.4,340c-3.4-2.1-6.8-4.3-10.1-6.6l1.7-2.5
		c3.3,2.2,6.7,4.4,10,6.5L155.4,340z M728.5,336.8l-1.4-2.7c3.6-1.8,7.1-3.7,10.6-5.5l1.4,2.7C735.6,333.1,732,334.9,728.5,336.8z
		 M141.2,330.6c-3.3-2.2-6.6-4.6-9.9-6.9l1.7-2.4c3.2,2.3,6.5,4.6,9.8,6.8L141.2,330.6z M743.6,328.9l-1.4-2.7
		c3.5-1.9,7.1-3.7,10.6-5.6l1.4,2.6C750.6,325.2,747.1,327,743.6,328.9z M758.6,320.9l-1.4-2.6l10.6-5.7l1.4,2.6L758.6,320.9z
		 M127.2,320.8c-3.2-2.4-6.5-4.8-9.6-7.2l1.8-2.4c3.2,2.4,6.4,4.8,9.6,7.2L127.2,320.8z M773.6,312.9l-1.4-2.6
		c3.5-1.9,7.1-3.8,10.6-5.7l1.4,2.6C780.7,309.1,777.1,311,773.6,312.9z M113.6,310.5c-3.2-2.5-6.3-5-9.4-7.5l1.9-2.3
		c3.1,2.5,6.2,5,9.4,7.5L113.6,310.5z M788.6,304.9l-1.4-2.7c3.5-1.9,7.1-3.7,10.6-5.6l1.4,2.7C795.7,301.2,792.2,303,788.6,304.9z
		 M100.3,299.8c-3.1-2.6-6.2-5.2-9.2-7.8l2-2.3c3,2.6,6.1,5.2,9.1,7.8L100.3,299.8z M803.7,297l-1.4-2.7c3.6-1.8,7.1-3.7,10.7-5.5
		l1.4,2.7C810.8,293.3,807.2,295.2,803.7,297z M818.8,289.3l-1.3-2.7c3.7-1.8,7.3-3.6,10.8-5.3l1.3,2.7
		C826,285.7,822.4,287.5,818.8,289.3z M87.4,288.7c-3-2.7-6-5.4-8.9-8.1l2-2.2c2.9,2.7,5.9,5.4,8.8,8.1L87.4,288.7z M834,281.8
		l-1.3-2.7c3.7-1.8,7.3-3.5,10.9-5.1l1.3,2.7C841.3,278.4,837.6,280.1,834,281.8z M74.9,277.1c-2.9-2.8-5.8-5.6-8.6-8.4l2.1-2.1
		c2.8,2.8,5.7,5.6,8.6,8.4L74.9,277.1z M849.3,274.7l-1.2-2.7c3.7-1.7,7.4-3.3,11-4.8l1.2,2.8C856.7,271.4,853,273,849.3,274.7z
		 M864.9,267.9l-1.2-2.8c3.7-1.6,7.5-3.1,11.1-4.5l1.1,2.8C872.3,264.8,868.6,266.4,864.9,267.9z M62.7,265.2
		c-2.8-2.9-5.6-5.8-8.3-8.7l2.2-2c2.7,2.9,5.5,5.8,8.3,8.7L62.7,265.2z M880.6,261.6l-1.1-2.8c3.8-1.4,7.5-2.9,11.3-4.2l1,2.8
		C888.1,258.7,884.3,260.2,880.6,261.6z M896.5,255.8l-1-2.8c3.8-1.3,7.6-2.6,11.4-3.8l0.9,2.9C904.1,253.2,900.3,254.4,896.5,255.8
		z M50.9,252.8c-2.7-3-5.4-6-8-9l2.3-2c2.6,3,5.2,6,8,8.9L50.9,252.8z M912.6,250.5l-0.9-2.9c3.8-1.2,7.7-2.3,11.5-3.4l0.8,2.9
		C920.3,248.2,916.4,249.3,912.6,250.5z M928.9,245.8l-0.8-2.9c3.9-1,7.8-2,11.7-3l0.7,2.9C936.6,243.8,932.7,244.8,928.9,245.8z
		 M1192.3,245.5c-3.8-0.8-7.7-1.5-11.4-2.2l0.6-2.9c3.8,0.7,7.6,1.5,11.5,2.2L1192.3,245.5z M1176,242.3c-3.9-0.7-7.9-1.4-11.8-2.1
		l0.5-3c3.9,0.7,7.9,1.4,11.8,2.1L1176,242.3z M945.3,241.7l-0.7-2.9c3.9-0.9,7.9-1.7,11.8-2.5l0.6,2.9
		C953.1,240,949.2,240.8,945.3,241.7z M39.7,239.9c-2.7-3.1-5.2-6.3-7.7-9.3l2.3-1.9c2.4,3,5,6.1,7.6,9.3L39.7,239.9z M1159.3,239.4
		c-4-0.6-7.9-1.3-11.8-1.8l0.4-3c3.9,0.6,7.9,1.2,11.9,1.8L1159.3,239.4z M961.9,238.2l-0.6-2.9c3.9-0.7,7.9-1.4,11.8-2.1l0.5,3
		C969.7,236.8,965.8,237.5,961.9,238.2z M1142.5,236.9c-4-0.6-7.9-1.1-11.9-1.6l0.4-3c3.9,0.5,7.9,1,11.9,1.6L1142.5,236.9z
		 M978.6,235.4l-0.4-3c3.9-0.6,7.9-1.1,11.9-1.6l0.4,3C986.4,234.3,982.5,234.8,978.6,235.4z M1125.7,234.7c-4-0.5-8-0.9-11.9-1.3
		l0.3-3c3.9,0.4,8,0.8,12,1.3L1125.7,234.7z M995.3,233.2l-0.3-3c4-0.4,8-0.9,12-1.2l0.3,3C1003.3,232.4,999.3,232.8,995.3,233.2z
		 M1108.8,232.9c-4-0.4-8-0.7-11.9-1l0.2-3c3.9,0.3,8,0.6,12,1L1108.8,232.9z M1012.2,231.6l-0.2-3c4-0.3,8-0.6,12-0.8l0.2,3
		C1020.1,231,1016.1,231.3,1012.2,231.6z M1091.9,231.5c-4-0.3-8-0.5-12-0.7l0.1-3c3.9,0.2,8,0.4,12,0.7L1091.9,231.5z
		 M1029.1,230.6l-0.1-3c4-0.2,8-0.3,12-0.4l0.1,3C1037.1,230.3,1033,230.4,1029.1,230.6z M1075,230.6c-4-0.2-8-0.3-12-0.4l0.1-3
		c3.9,0.1,8,0.2,12,0.4L1075,230.6z M1058,230.1c-4,0-8,0-12,0v-3c4,0,8,0,12,0V230.1z M28.9,226.6c-4.7-6.1-7.1-9.7-7.2-9.8
		l2.5-1.7c0,0,2.4,3.6,7.1,9.7L28.9,226.6z"/>
</g>
<g>
	<path class="st1" d="M22.9,398.4v-1.5l-1.2-0.8c0.4-0.6,2.5-3.7,6.4-8.8l2.4,1.8c-3.9,5-5.9,8.1-6.3,8.7L22.9,398.4z M33.6,385.1
		l-2.4-1.9c2.4-3.1,5-6.2,7.6-9.4l2.3,1.9C38.5,378.9,36,382,33.6,385.1z M1050.1,383c-1.5,0-2.9,0-4.4,0v-3c1.4,0,2.9,0,4.3,0
		c2.5,0,5.1,0,7.6-0.1v3C1055.1,382.9,1052.6,383,1050.1,383z M1040.7,382.9c-4-0.1-8.1-0.2-12-0.3l0.1-3c3.9,0.2,8,0.3,12,0.3
		L1040.7,382.9z M1062.7,382.8l-0.1-3c3.9-0.1,8-0.2,12-0.4l0.1,3C1070.7,382.6,1066.7,382.7,1062.7,382.8z M1023.7,382.3
		c-4-0.2-8.1-0.4-12-0.7l0.2-3c3.9,0.3,7.9,0.5,11.9,0.7L1023.7,382.3z M1079.8,382.2l-0.2-3c3.9-0.2,8-0.4,11.9-0.7l0.2,3
		C1087.8,381.7,1083.7,382,1079.8,382.2z M1006.7,381.2c-4-0.3-8-0.7-12-1.1l0.3-3c3.9,0.4,7.9,0.8,11.9,1.1L1006.7,381.2z
		 M1096.8,381.1l-0.2-3c3.9-0.3,7.9-0.7,11.9-1l0.3,3C1104.8,380.4,1100.7,380.8,1096.8,381.1z M1113.7,379.6l-0.3-3
		c3.9-0.4,7.9-0.9,11.9-1.3l0.4,3C1121.7,378.7,1117.7,379.2,1113.7,379.6z M989.7,379.5c-4-0.5-8-1-11.9-1.6l0.4-3
		c3.9,0.6,7.9,1.1,11.8,1.6L989.7,379.5z M1130.7,377.6l-0.4-3c3.9-0.5,7.9-1,11.9-1.6l0.4,3
		C1138.6,376.6,1134.6,377.1,1130.7,377.6z M972.8,377.2c-4-0.6-7.9-1.3-11.9-2l0.5-3c3.9,0.7,7.9,1.4,11.8,2L972.8,377.2z
		 M1147.5,375.3l-0.4-3c3.9-0.6,7.9-1.2,11.8-1.8l0.5,3C1155.5,374.1,1151.5,374.7,1147.5,375.3z M956,374.2
		c-3.9-0.8-7.9-1.6-11.8-2.5l0.7-2.9c3.9,0.9,7.8,1.7,11.7,2.4L956,374.2z M1164.4,372.6l-0.5-3c3.9-0.7,7.8-1.4,11.8-2.1l0.5,3
		C1172.2,371.3,1168.2,372,1164.4,372.6z M44.4,372l-2.3-2c2.6-3,5.3-6,8-9l2.2,2C49.6,366,47,369,44.4,372z M939.4,370.6
		c-3.9-0.9-7.8-1.9-11.7-2.9l0.8-2.9c3.8,1,7.7,2,11.6,2.9L939.4,370.6z M1181.1,369.6l-0.6-2.9c3.9-0.7,7.8-1.5,11.8-2.3l0.6,2.9
		C1188.9,368.1,1185,368.9,1181.1,369.6z M922.9,366.4c-3.8-1-7.7-2.2-11.6-3.3l0.9-2.9c3.8,1.2,7.7,2.3,11.5,3.3L922.9,366.4z
		 M906.5,361.6c-3.8-1.2-7.6-2.4-11.4-3.7l1-2.8c3.8,1.3,7.6,2.5,11.4,3.7L906.5,361.6z M55.7,359.3l-2.2-2c2.7-2.9,5.5-5.8,8.3-8.7
		l2.1,2.1C61.2,353.5,58.4,356.4,55.7,359.3z M890.3,356.2c-3.7-1.3-7.5-2.7-11.3-4.1l1.1-2.8c3.8,1.4,7.5,2.8,11.2,4.1L890.3,356.2
		z M874.4,350.3c-3.7-1.4-7.4-2.9-11.2-4.5l1.1-2.8c3.7,1.5,7.4,3,11.1,4.4L874.4,350.3z M67.5,347.1l-2.1-2.1
		c2.8-2.8,5.7-5.6,8.6-8.4l2.1,2.2C73.2,341.5,70.3,344.3,67.5,347.1z M858.6,343.9c-3.6-1.5-7.3-3.1-11-4.8l1.2-2.7
		c3.7,1.6,7.4,3.2,11,4.8L858.6,343.9z M843,337.1c-3.5-1.6-7.2-3.3-10.9-5l1.3-2.7c3.7,1.7,7.4,3.4,10.9,5L843,337.1z M79.7,335.3
		l-2.1-2.2c2.9-2.7,5.9-5.5,8.9-8.1l2,2.2C85.5,329.9,82.5,332.6,79.7,335.3z M827.5,329.9c-3.5-1.7-7.1-3.4-10.8-5.3l1.3-2.7
		c3.7,1.8,7.3,3.6,10.8,5.2L827.5,329.9z M92.2,323.9l-2-2.3c3-2.6,6.1-5.3,9.1-7.8l1.9,2.3C98.3,318.7,95.2,321.3,92.2,323.9z
		 M812.2,322.4c-3.6-1.8-7.1-3.6-10.7-5.4l1.4-2.7c3.6,1.8,7.1,3.6,10.7,5.4L812.2,322.4z M797.1,314.8c-3.5-1.8-7.1-3.7-10.6-5.5
		l1.4-2.7c3.5,1.8,7.1,3.7,10.6,5.5L797.1,314.8z M105.2,312.9l-1.9-2.3c3.1-2.5,6.2-5.1,9.4-7.5l1.9,2.4
		C111.4,307.9,108.2,310.4,105.2,312.9z M782,307c-3.5-1.9-7.1-3.7-10.6-5.6l1.4-2.7c3.5,1.9,7.1,3.7,10.6,5.6L782,307z
		 M118.4,302.4l-1.8-2.4c3.2-2.4,6.4-4.9,9.6-7.2l1.8,2.4C124.8,297.5,121.6,300,118.4,302.4z M767,299l-10.6-5.6l1.4-2.7l10.6,5.6
		L767,299z M132,292.3l-1.8-2.4c3.2-2.3,6.6-4.7,9.9-6.9l1.7,2.5C138.6,287.6,135.3,289.9,132,292.3z M751.9,291.1
		c-3.5-1.9-7.1-3.7-10.6-5.6l1.4-2.7c3.6,1.9,7.1,3.7,10.6,5.6L751.9,291.1z M736.9,283.3c-3.5-1.8-7.1-3.7-10.7-5.5l1.4-2.7
		c3.6,1.8,7.1,3.6,10.7,5.5L736.9,283.3z M146,282.6l-1.7-2.5c3.3-2.2,6.7-4.4,10.1-6.6l1.6,2.5C152.7,278.2,149.3,280.4,146,282.6z
		 M721.8,275.6c-3.6-1.8-7.1-3.6-10.7-5.3l1.3-2.7c3.6,1.8,7.2,3.6,10.7,5.4L721.8,275.6z M160.2,273.4l-1.6-2.5
		c3.4-2.1,6.8-4.2,10.3-6.2l1.5,2.6C167,269.2,163.6,271.3,160.2,273.4z M706.5,268c-3.7-1.8-7.3-3.5-10.8-5.2l1.3-2.7
		c3.5,1.7,7.2,3.4,10.8,5.2L706.5,268z M174.8,264.7l-1.5-2.6c3.5-2,7-4,10.5-5.9l1.4,2.6C181.7,260.7,178.2,262.7,174.8,264.7z
		 M691.2,260.7c-3.6-1.7-7.3-3.4-10.9-5l1.2-2.7c3.6,1.6,7.3,3.3,10.9,5L691.2,260.7z M189.6,256.4l-1.4-2.6
		c3.5-1.9,7.1-3.7,10.7-5.5l1.3,2.7C196.7,252.7,193.1,254.6,189.6,256.4z M675.8,253.7c-3.7-1.6-7.4-3.2-11-4.7l1.2-2.8
		c3.6,1.5,7.3,3.1,11,4.8L675.8,253.7z M204.7,248.7l-1.3-2.7c3.6-1.8,7.2-3.5,10.9-5.2l1.3,2.7C211.9,245.3,208.2,247,204.7,248.7z
		 M660.2,247c-3.7-1.5-7.4-3-11.1-4.5l1.1-2.8c3.7,1.4,7.4,3,11.1,4.5L660.2,247z M220,241.5l-1.2-2.7c3.7-1.6,7.4-3.2,11-4.8
		l1.2,2.8C227.3,238.3,223.7,239.9,220,241.5z M644.5,240.7c-3.7-1.4-7.5-2.9-11.2-4.2l1-2.8c3.7,1.4,7.5,2.8,11.3,4.2L644.5,240.7z
		 M235.6,234.9l-1.1-2.8c3.7-1.5,7.5-3,11.2-4.4l1.1,2.8C243,231.9,239.3,233.4,235.6,234.9z M628.6,234.8
		c-3.8-1.3-7.6-2.7-11.3-3.9l1-2.8c3.8,1.3,7.6,2.6,11.4,3.9L628.6,234.8z M612.5,229.4c-3.8-1.2-7.6-2.4-11.4-3.6l0.9-2.9
		c3.8,1.2,7.7,2.4,11.5,3.6L612.5,229.4z M251.4,228.7l-1-2.8c3.7-1.4,7.6-2.7,11.3-4l1,2.8C258.9,226,255.1,227.4,251.4,228.7z
		 M596.3,224.4c-3.8-1.1-7.7-2.2-11.5-3.3l0.8-2.9c3.8,1.1,7.7,2.2,11.6,3.3L596.3,224.4z M267.4,223.2l-0.9-2.9
		c3.8-1.2,7.7-2.5,11.5-3.6l0.9,2.9C275,220.7,271.2,221.9,267.4,223.2z M580,219.8c-3.8-1-7.7-2-11.6-3l0.7-2.9c3.9,1,7.8,2,11.6,3
		L580,219.8z M283.6,218.2l-0.8-2.9c3.8-1.1,7.7-2.2,11.6-3.2l0.8,2.9C291.3,216,287.4,217.1,283.6,218.2z M563.6,215.6
		c-3.9-0.9-7.8-1.8-11.7-2.7l0.6-2.9c3.9,0.9,7.8,1.8,11.7,2.7L563.6,215.6z M299.9,213.7l-0.7-2.9c3.9-1,7.8-1.9,11.7-2.8l0.7,2.9
		C307.7,211.8,303.8,212.8,299.9,213.7z M547,211.9c-3.9-0.8-7.9-1.6-11.7-2.4l0.6-2.9c3.9,0.8,7.9,1.6,11.8,2.4L547,211.9z
		 M316.4,209.9l-0.6-2.9c3.9-0.8,7.9-1.7,11.8-2.4l0.6,2.9C324.3,208.2,320.3,209,316.4,209.9z M530.4,208.6
		c-3.9-0.7-7.9-1.4-11.8-2.1l0.5-3c3.9,0.7,7.9,1.4,11.8,2.1L530.4,208.6z M333.1,206.6l-0.5-3c3.9-0.7,7.9-1.4,11.9-2l0.5,3
		C340.9,205.2,336.9,205.9,333.1,206.6z M513.7,205.7c-3.9-0.6-7.9-1.2-11.8-1.8l0.4-3c3.9,0.5,7.9,1.1,11.9,1.8L513.7,205.7z
		 M349.8,203.8l-0.4-3c3.9-0.6,8-1.1,11.9-1.6l0.4,3C357.7,202.7,353.7,203.3,349.8,203.8z M496.9,203.3c-3.9-0.5-7.9-1-11.9-1.4
		l0.3-3c4,0.4,8,0.9,11.9,1.4L496.9,203.3z M366.6,201.7l-0.3-3c4-0.4,8-0.8,12-1.2l0.3,3C374.5,200.8,370.5,201.2,366.6,201.7z
		 M480,201.3c-4-0.4-8-0.8-11.9-1.1l0.2-3c4,0.3,8,0.7,12,1.1L480,201.3z M383.5,200.1l-0.2-3c4-0.3,8-0.6,12-0.8l0.2,3
		C391.4,199.5,387.4,199.8,383.5,200.1z M463.1,199.9c-4-0.3-8-0.5-11.9-0.7l0.1-3c4,0.2,8,0.4,12,0.7L463.1,199.9z M400.4,199
		l-0.1-3c4-0.2,8-0.3,12-0.4l0.1,3C408.4,198.7,404.3,198.8,400.4,199z M446.2,198.9c-4-0.2-8-0.3-12-0.4l0.1-3c4,0.1,8,0.2,12,0.4
		L446.2,198.9z M417.3,198.5v-3c4-0.1,8-0.1,12,0v3C425.3,198.5,421.3,198.5,417.3,198.5z"/>
</g>
</svg>
