<?xml version="1.0" encoding="utf-8"?>
<!-- Generator: Adobe Illustrator 16.0.0, SVG Export Plug-In . SVG Version: 6.00 Build 0)  -->
<!DOCTYPE svg PUBLIC "-//W3C//DTD SVG 1.1//EN" "http://www.w3.org/Graphics/SVG/1.1/DTD/svg11.dtd">
<svg version="1.1" id="Layer_1" xmlns="http://www.w3.org/2000/svg" xmlns:xlink="http://www.w3.org/1999/xlink" x="0px" y="0px"
	 width="1616.5px" height="532px" viewBox="0 0 1616.5 532" enable-background="new 0 0 1616.5 532" xml:space="preserve">
<path fill="#5BB651" d="M295.362,508.327c-25.098,3.055-50.295,0.807-75.445,1.262c-7.424,0.135-10.512-3.014-7.585-10.8
	c2.819-7.491,5.182-15.184,7.249-22.915c2.423-9.034,0.523-17.331-7.021-23.203c-9.438-7.338-20.13-7.692-30.883-3.257
	c-9.33,3.854-15.123,10.859-13.961,21.318c1,9.032,2.766,18.103,5.363,26.809c2.859,9.605-0.691,12.532-9.719,12.438
	c-21.184-0.232-42.381-0.313-63.565-0.192c-9.813,0.061-12.807-5.015-12.713-14.042c0.229-20.036-0.289-40.085,0-60.121
	c0.161-10.901-3.638-14.995-14.438-10.86c-3.718,1.422-7.766,1.968-11.551,3.263c-13.398,4.592-25.634,3.361-32.756-9.986
	c-6.766-12.666-7.021-26.238,1.463-38.777c9.263-13.686,21.614-9.69,33.884-5.504c2.698,0.928,5.396,1.919,8.001,3.096
	c11.229,5.08,15.357,1.478,15.276-10.731c-0.322-47.523-0.228-95.054,0.107-142.575c0.081-11.787-3.959-14.572-14.23-8.967
	c-2.483,1.356-5.558,1.651-8.007,3.034c-25.171,14.188-43.187-2.296-40.576-30.851c2.107-23.013,16.324-32.35,37.937-23.614
	C86.565,173,86.558,173,86.558,147.194c0.007-16.033,0.437-32.084-0.121-48.097c-0.396-11.24,4.323-15.371,15.244-15.119
	c18.311,0.423,36.648-0.155,54.966,0.158c11.518,0.198,14.545-4.363,9.74-14.646c-0.967-2.067-1.591-4.289-2.39-6.435
	c-5.081-13.611-11.324-27.218,5.363-37.939c14.854-9.551,37.199-8.676,49.644,2.279c12.424,10.938,5.961,23.233,2.134,34.862
	c-7.168,21.798-7.504,21.422,14.888,21.813c18.854,0.329,37.77-1.931,56.55,1.214c0.066,23.997-0.021,48.006,0.289,72.009
	c0.134,10.941-3.954,14.868-14.646,10.76c-3.713-1.426-7.693-2.151-11.56-3.162c-17.129-4.479-24.325-0.255-28.339,17.16
	c-2.806,12.23-2.107,24.54,7.155,33.628c9.625,9.451,20.479,2.792,30.353-1.074c16.016-6.27,18.922-4.672,19.211,12.632
	c0.376,22.862,0.49,45.717,0.725,68.572c-0.349,22.271-0.537,44.55-1.074,66.813c-0.495,20.485-1.543,21.155-21.491,15.889
	c-10.688-2.827-21.929-6.411-29.326,5.396c-7.82,12.491-9.243,26.473-0.53,38.797c8.457,11.946,20.324,6.729,31.185,2.685
	c1.598-0.598,3.142-1.362,4.686-2.106c12.202-5.906,16.378-1.569,16.122,11.331C294.852,459.175,295.308,483.754,295.362,508.327z"
	/>
<path fill="#F3E53D" d="M295.764,295.805c-0.233-22.854-0.349-45.71-0.725-68.572c-0.289-17.305-3.195-18.902-19.211-12.632
	c-9.873,3.866-20.727,10.525-30.353,1.074c-9.262-9.088-9.961-21.397-7.155-33.628c4.014-17.415,11.209-21.64,28.339-17.16
	c3.866,1.011,7.847,1.735,11.56,3.162c10.691,4.108,14.779,0.181,14.646-10.76c-0.31-24.002-0.223-48.012-0.289-72.009
	c22.748-3.319,45.616-1,68.426-1.434c24.049-0.46,23.827-0.063,15.672-22.342c-4.047-11.048-10.122-22.349,0.438-33.584
	c9.69-10.31,31.374-13.173,44.239-5.703c16.076,9.331,12.514,22.141,7.016,35.656c-10.593,26.04-10.52,26.07,17.418,26.087
	c14.86,0.006,29.729,0.245,44.591-0.061c10.121-0.208,14.552,4.077,14.401,14.313c-0.309,21.15-0.245,42.307-0.021,63.458
	c0.122,11.243-3.535,16.616-15.423,11.729c-2.641-1.084-5.396-1.906-8.149-2.662c-10.105-2.785-20.827-5.772-28.17,4.622
	c-7.975,11.275-7.835,23.936-0.559,35.494c6.976,11.075,17.52,10.229,28.931,7.075c26.781-7.383,27.252-7.062,26.733,20.834
	c-0.354,19.338,2.411,38.812-1.938,58.021c-18.236-0.248-36.475-0.658-54.719-0.738c-29.654-0.134-30.021-0.121-23.64-27.949
	c2.429-10.619,1.685-19.587-7.808-25.594c-11.049-7-22.796-6.853-33.965,0.128c-10.063,6.295-9.418,16.055-7.337,25.931
	c0.818,3.886,1.94,7.752,3.309,11.482c4.564,12.418-0.354,16.393-12.697,16.109C344.811,295.591,320.284,295.872,295.764,295.805z"
	/>
<path fill="#E92C31" d="M295.764,295.805c24.521,0.066,49.047-0.215,73.561,0.351c12.343,0.28,17.263-3.691,12.697-16.109
	c-1.367-3.729-2.489-7.599-3.309-11.483c-2.081-9.875-2.726-19.635,7.337-25.93c11.169-6.981,22.916-7.128,33.965-0.128
	c9.49,6.007,10.234,14.975,7.808,25.595c-6.385,27.827-6.017,27.814,23.64,27.948c18.244,0.08,36.48,0.49,54.719,0.738
	c0.403,26.259,0.849,52.516,1.194,78.774c0.12,9.026-4.632,10.673-12.316,7.905c-5.893-2.121-11.819-4.194-17.854-5.854
	c-9.976-2.73-19.491-2.697-25.771,7.346c-7.047,11.295-6.437,22.921,0.075,34.137c6,10.337,15.896,9.875,25.788,7.929
	c30.185-5.938,30.17-6.016,30.163,25.459c0,14.298-0.354,28.603,0.089,42.879c0.312,10.103-3.343,14.519-13.922,14.229
	c-19.417-0.53-38.87-0.361-58.301-0.06c-10.122,0.159-13.628-3.553-10.323-13.521c1.784-5.39,2.624-11.107,3.765-16.707
	c4.25-20.787-6.262-33.541-27.258-33.145c-20.661,0.389-29.158,12.986-23.851,35.347c6.651,27.962,6.651,28.097-22.345,27.916
	c-19.981-0.128-39.964-0.705-59.938-1.088c-0.067-24.58-0.522-49.159-0.041-73.727c0.256-12.9-3.92-17.237-16.122-11.332
	c-1.544,0.745-3.088,1.512-4.686,2.107c-10.86,4.047-22.729,9.263-31.186-2.685c-8.713-12.324-7.29-26.308,0.53-38.797
	c7.397-11.81,18.64-8.226,29.326-5.396c19.948,5.269,20.996,4.598,21.491-15.889C295.227,340.354,295.415,318.077,295.764,295.805z"
	/>
<g>
	<path fill="#FFFFFF" d="M624.145,372.769h-27.896V260.895h-42.038v-27.993h111.874v27.993h-41.94V372.769z"/>
	<path fill="#FFFFFF" d="M704.71,372.769h-26.628V226.756h26.628v46.135c3.185-2.404,6.469-4.111,9.851-5.121
		c3.382-1.008,6.828-1.512,10.34-1.512c6.438,0,12.484,1.219,18.143,3.657c5.656,2.438,10.582,5.788,14.776,10.047
		c4.193,4.261,7.51,9.233,9.948,14.923c2.438,5.69,3.657,11.753,3.657,18.19v59.691h-26.821v-59.691h0.193
		c0-2.73-0.521-5.315-1.561-7.754c-1.041-2.438-2.473-4.567-4.291-6.39c-1.821-1.818-3.937-3.25-6.34-4.291
		c-2.407-1.039-4.976-1.562-7.707-1.562c-2.795,0-5.43,0.521-7.899,1.562c-2.472,1.041-4.617,2.473-6.438,4.291
		c-1.82,1.821-3.252,3.95-4.291,6.39c-1.041,2.438-1.561,5.022-1.561,7.754L704.71,372.769L704.71,372.769z"/>
	<path fill="#FFFFFF" d="M891.296,319.611c0,7.803-1.397,15.068-4.192,21.799c-2.798,6.729-6.602,12.551-11.412,17.459
		c-4.813,4.911-10.453,8.778-16.924,11.606s-13.41,4.243-20.823,4.243c-7.35,0-14.257-1.415-20.728-4.243
		s-12.128-6.695-16.971-11.606c-4.845-4.908-8.666-10.729-11.461-17.459c-2.796-6.729-4.194-13.996-4.194-21.799
		c0-7.934,1.398-15.28,4.194-22.043c2.795-6.764,6.616-12.598,11.461-17.508c4.843-4.91,10.5-8.763,16.971-11.56
		c6.471-2.795,13.378-4.194,20.728-4.194c7.413,0,14.354,1.317,20.823,3.95c6.471,2.634,12.11,6.374,16.924,11.218
		c4.812,4.845,8.614,10.664,11.412,17.459C889.896,303.729,891.296,311.289,891.296,319.611z M864.474,319.611
		c0-4.292-0.698-8.178-2.097-11.655c-1.398-3.479-3.302-6.47-5.706-8.974c-2.406-2.504-5.219-4.422-8.438-5.756
		c-3.22-1.332-6.648-1.998-10.29-1.998c-3.643,0-7.071,0.666-10.29,1.998c-3.22,1.334-6.016,3.252-8.388,5.756
		c-2.375,2.504-4.243,5.494-5.608,8.974c-1.365,3.479-2.049,7.363-2.049,11.655c0,4.031,0.684,7.771,2.049,11.217
		c1.365,3.447,3.233,6.438,5.608,8.973c2.372,2.536,5.168,4.536,8.388,5.999c3.219,1.463,6.647,2.194,10.29,2.194
		c3.642,0,7.07-0.684,10.29-2.048c3.219-1.366,6.03-3.283,8.438-5.755c2.404-2.472,4.308-5.463,5.706-8.975
		C863.773,327.707,864.474,323.839,864.474,319.611z"/>
	<path fill="#FFFFFF" d="M932.652,372.769h-26.629V268.307h6.438l8.778,12.389c4.292-3.901,9.169-6.909,14.631-9.022
		c5.462-2.112,11.119-3.17,16.971-3.17h23.507v26.53h-23.507c-2.796,0-5.43,0.521-7.9,1.561c-2.472,1.041-4.616,2.473-6.438,4.291
		c-1.821,1.821-3.252,3.969-4.291,6.438c-1.041,2.473-1.561,5.104-1.561,7.899V372.769z"/>
	<path fill="#FFFFFF" d="M1028.335,347.214c1.039,0.326,2.08,0.536,3.121,0.634c1.039,0.099,2.08,0.146,3.121,0.146
		c2.6,0,5.104-0.356,7.511-1.072c2.404-0.715,4.665-1.739,6.778-3.073c2.111-1.332,3.999-2.958,5.656-4.876
		c1.658-1.918,3.007-4.048,4.048-6.389l19.508,19.604c-2.473,3.512-5.315,6.666-8.534,9.462c-3.22,2.797-6.698,5.169-10.438,7.119
		c-3.739,1.951-7.673,3.432-11.802,4.438c-4.13,1.008-8.373,1.513-12.729,1.513c-7.35,0-14.258-1.366-20.728-4.097
		c-6.471-2.731-12.128-6.535-16.971-11.412c-4.847-4.877-8.666-10.681-11.461-17.41c-2.798-6.729-4.194-14.126-4.194-22.188
		c0-8.257,1.396-15.802,4.194-22.63c2.795-6.826,6.614-12.646,11.461-17.459c4.843-4.812,10.5-8.549,16.971-11.217
		c6.47-2.665,13.378-3.999,20.728-3.999c4.354,0,8.614,0.521,12.776,1.561c4.16,1.041,8.11,2.536,11.851,4.486
		c3.738,1.951,7.233,4.34,10.485,7.17c3.251,2.828,6.111,5.998,8.583,9.51L1028.335,347.214z M1041.99,292.301
		c-1.236-0.453-2.455-0.746-3.658-0.878c-1.203-0.129-2.455-0.194-3.755-0.194c-3.644,0-7.071,0.668-10.29,2
		c-3.219,1.334-6.016,3.234-8.389,5.705c-2.375,2.473-4.242,5.446-5.607,8.926c-1.366,3.479-2.049,7.396-2.049,11.753
		c0,0.976,0.049,2.082,0.146,3.315c0.099,1.235,0.259,2.487,0.487,3.755c0.229,1.269,0.503,2.487,0.829,3.657
		c0.325,1.171,0.747,2.212,1.269,3.121L1041.99,292.301z"/>
	<path fill="#FFFFFF" d="M1262.032,358.431c-6.503,5.594-13.786,9.886-21.849,12.875c-8.063,2.99-16.42,4.486-25.066,4.486
		c-6.632,0-13.021-0.862-19.166-2.585c-6.146-1.722-11.899-4.16-17.265-7.314c-5.363-3.152-10.258-6.939-14.68-11.362
		c-4.422-4.421-8.209-9.314-11.362-14.681c-3.154-5.363-5.594-11.118-7.314-17.264c-1.725-6.145-2.585-12.533-2.585-19.166
		c0-6.632,0.86-13.036,2.585-19.215c1.722-6.178,4.16-11.948,7.314-17.313c3.153-5.365,6.94-10.257,11.362-14.68
		c4.422-4.421,9.315-8.208,14.68-11.363c5.364-3.153,11.119-5.592,17.265-7.315c6.146-1.722,12.534-2.584,19.166-2.584
		c8.646,0,17.004,1.48,25.066,4.438c8.063,2.959,15.346,7.266,21.849,12.923l-14.825,24.383c-4.097-4.422-8.941-7.817-14.533-10.192
		c-5.593-2.373-11.444-3.56-17.557-3.56c-6.178,0-11.965,1.17-17.361,3.512c-5.397,2.341-10.11,5.511-14.143,9.51
		s-7.218,8.714-9.559,14.143c-2.342,5.431-3.513,11.201-3.513,17.313c0,6.113,1.171,11.851,3.513,17.216
		c2.341,5.364,5.525,10.063,9.559,14.095c4.031,4.031,8.744,7.218,14.143,9.559c5.396,2.341,11.185,3.511,17.361,3.511
		c6.111,0,11.964-1.186,17.557-3.56c5.592-2.373,10.438-5.771,14.533-10.192L1262.032,358.431z"/>
	<path fill="#FFFFFF" d="M1372.932,372.769h-6.438l-10.339-14.338c-2.536,2.277-5.218,4.406-8.047,6.39
		c-2.828,1.983-5.804,3.706-8.926,5.169c-3.12,1.464-6.323,2.619-9.605,3.463c-3.285,0.845-6.618,1.269-9.998,1.269
		c-7.349,0-14.257-1.235-20.728-3.707c-6.471-2.47-12.128-6.063-16.971-10.776c-4.846-4.714-8.666-10.485-11.461-17.313
		c-2.797-6.828-4.194-14.598-4.194-23.312c0-8.128,1.397-15.589,4.194-22.386c2.795-6.793,6.615-12.631,11.461-17.508
		c4.843-4.877,10.5-8.664,16.971-11.363c6.471-2.696,13.379-4.046,20.728-4.046c3.38,0,6.729,0.424,10.046,1.268
		c3.316,0.846,6.535,2.016,9.656,3.511c3.121,1.497,6.097,3.252,8.925,5.268c2.829,2.017,5.478,4.194,7.949,6.535l10.339-12.388
		h6.438V372.769z M1346.109,319.611c0-3.642-0.7-7.169-2.099-10.583c-1.397-3.414-3.301-6.438-5.705-9.07
		c-2.406-2.634-5.219-4.746-8.438-6.34c-3.219-1.593-6.649-2.39-10.29-2.39c-3.643,0-7.071,0.617-10.29,1.853
		s-6.017,3.058-8.388,5.462c-2.375,2.407-4.243,5.382-5.608,8.925c-1.366,3.545-2.049,7.593-2.049,12.145s0.683,8.6,2.049,12.144
		c1.365,3.545,3.233,6.521,5.608,8.924c2.371,2.407,5.169,4.229,8.388,5.463c3.219,1.235,6.646,1.854,10.29,1.854
		c3.641,0,7.071-0.795,10.29-2.39c3.219-1.594,6.03-3.706,8.438-6.341c2.404-2.634,4.308-5.656,5.705-9.069
		C1345.409,326.78,1346.109,323.254,1346.109,319.611z"/>
	<path fill="#FFFFFF" d="M1450.57,372.769h-60.862v-26.529h60.862c1.818,0,3.38-0.648,4.682-1.95c1.3-1.3,1.951-2.86,1.951-4.682
		c0-1.887-0.651-3.121-1.951-3.707c-1.302-0.585-2.862-0.878-4.682-0.878h-27.7c-4.618,0-8.941-0.878-12.973-2.634
		c-4.032-1.756-7.544-4.146-10.533-7.169c-2.992-3.022-5.351-6.551-7.072-10.583c-1.724-4.031-2.584-8.354-2.584-12.973
		c0-4.616,0.86-8.939,2.584-12.973c1.724-4.03,4.08-7.543,7.072-10.533c2.989-2.99,6.501-5.348,10.533-7.071
		c4.03-1.723,8.354-2.585,12.973-2.585h53.938v26.53h-53.938c-1.821,0-3.382,0.649-4.682,1.95c-1.303,1.302-1.951,2.861-1.951,4.682
		c0,1.887,0.648,3.496,1.951,4.828c1.3,1.334,2.859,2,4.682,2h27.7c4.551,0,8.843,0.765,12.875,2.292
		c4.031,1.528,7.542,3.657,10.534,6.389c2.988,2.731,5.363,6.017,7.12,9.853c1.755,3.837,2.633,8.03,2.633,12.582
		c0,4.616-0.878,8.924-2.633,12.923c-1.757,3.999-4.132,7.511-7.12,10.534c-2.992,3.022-6.503,5.397-10.534,7.119
		C1459.413,371.907,1455.121,372.769,1450.57,372.769z"/>
	<path fill="#FFFFFF" d="M1524.503,372.769h-26.628V226.756h26.628v46.135c3.185-2.404,6.47-4.111,9.851-5.121
		c3.381-1.008,6.828-1.512,10.34-1.512c6.438,0,12.484,1.219,18.143,3.657c5.656,2.438,10.582,5.788,14.775,10.047
		c4.194,4.261,7.511,9.233,9.949,14.923c2.438,5.69,3.657,11.753,3.657,18.19v59.691h-26.821v-59.691h0.193
		c0-2.73-0.521-5.315-1.561-7.754c-1.041-2.438-2.473-4.567-4.291-6.39c-1.821-1.818-3.937-3.25-6.34-4.291
		c-2.408-1.039-4.976-1.562-7.707-1.562c-2.796,0-5.43,0.521-7.899,1.562c-2.472,1.041-4.617,2.473-6.438,4.291
		c-1.82,1.821-3.252,3.95-4.291,6.39c-1.041,2.438-1.561,5.022-1.561,7.754L1524.503,372.769L1524.503,372.769z"/>
</g>
<image overflow="visible" enable-background="new    " width="1601" height="901" xlink:href="D1E87A84.jpg"  transform="matrix(0.9993 0 0 0.9993 2137.0938 -46.166)">
</image>
</svg>
