<?xml version="1.0" encoding="UTF-8"?>
<svg width="100px" height="100px" viewBox="0 0 100 100" version="1.1" xmlns="http://www.w3.org/2000/svg" xmlns:xlink="http://www.w3.org/1999/xlink">
    <!-- Generator: Sketch 51.3 (57544) - http://www.bohemiancoding.com/sketch -->
    <title>tokenomyLogo100x100</title>
    <desc>Created with Sketch.</desc>
    <defs></defs>
    <g id="tokenomyLogo100x100" stroke="none" stroke-width="1" fill="none" fill-rule="evenodd">
        <g id="logoTokenomy-Copy" fill-rule="nonzero">
            <path d="M98.5416667,50 C98.5416667,63.5416667 93.75,75.2083333 84.1666667,84.7916667 C74.5833333,94.375 63.125,99.1666667 49.375,99.1666667 C35.8333333,99.1666667 24.1666667,94.375 14.5833333,84.7916667 C5,75.2083333 0.208333333,63.75 0.208333333,50 C0.208333333,36.4583333 5,24.7916667 14.5833333,15.2083333 C24.1666667,5.625 35.8333333,0.833333333 49.375,0.833333333 C62.9166667,0.833333333 74.5833333,5.625 84.1666667,15.2083333 C93.75,24.7916667 98.5416667,36.25 98.5416667,50 Z" id="Shape" fill="#0A98CE"></path>
            <path d="M95.625,47.5 L75.2083333,12.2916667 L75.2083333,46.4583333 C75.625,46.6666667 76.25,46.875 76.6666667,47.2916667 C77.0833333,47.7083333 77.2916667,48.125 77.5,48.75 L94.7916667,48.75 C95.2083333,48.125 95.4166667,47.9166667 95.625,47.5 Z M98.5416667,50 C98.5416667,51.25 98.5416667,52.5 98.3333333,53.9583333 C98.125,53.9583333 97.9166667,53.9583333 97.7083333,53.9583333 L77.0833333,90 C77.2916667,90.2083333 77.2916667,90.2083333 77.5,90.4166667 C75.4166667,91.875 73.125,93.125 70.8333333,94.375 C70.625,94.1666667 70.625,93.9583333 70.625,93.75 L28.75,93.75 C28.75,93.9583333 28.5416667,94.1666667 28.5416667,94.375 C26.25,93.3333333 24.1666667,92.0833333 21.875,90.4166667 C21.875,90.2083333 22.0833333,90 22.2916667,90 L1.25,53.75 C1.04166667,53.75 0.833333333,53.75 0.625,53.75 C0.625,52.5 0.416666667,51.25 0.416666667,49.7916667 C0.416666667,48.5416667 0.416666667,47.2916667 0.625,46.0416667 C0.833333333,46.0416667 1.04166667,46.0416667 1.25,46.0416667 L22.2916667,9.79166667 C22.0833333,9.58333333 22.0833333,9.375 21.875,9.16666667 C23.9583333,7.70833333 26.25,6.45833333 28.5416667,5.20833333 C28.75,5.41666667 28.75,5.625 28.75,5.83333333 L70.625,5.83333333 C70.625,5.625 70.8333333,5.41666667 70.8333333,5.20833333 C73.125,6.25 75.2083333,7.70833333 77.5,9.16666667 C77.5,9.375 77.2916667,9.58333333 77.0833333,9.58333333 L97.9166667,45.8333333 C98.125,45.8333333 98.3333333,45.8333333 98.5416667,45.8333333 C98.5416667,47.2916667 98.5416667,48.5416667 98.5416667,50 Z M95,51.25 L77.7083333,51.25 C77.5,51.6666667 77.2916667,52.2916667 76.875,52.7083333 C76.4583333,53.125 76.0416667,53.3333333 75.4166667,53.5416667 L75.4166667,87.5 L95.8333333,52.2916667 C95.4166667,52.0833333 95.2083333,51.6666667 95,51.25 Z M3.95833333,48.5416667 L21.25,48.5416667 C21.4583333,48.125 21.6666667,47.5 22.0833333,47.0833333 C22.5,46.6666667 22.9166667,46.4583333 23.5416667,46.25 L23.5416667,12.2916667 L3.125,47.5 C3.54166667,47.9166667 3.75,48.125 3.95833333,48.5416667 Z M28.5416667,8.75 L55.8333333,32.5 C56.4583333,32.0833333 57.0833333,32.0833333 57.7083333,32.0833333 C57.9166667,32.0833333 58.125,32.0833333 58.3333333,32.0833333 L71.25,10 C71.0416667,9.58333333 70.625,9.16666667 70.625,8.75 L28.5416667,8.75 Z M28.5416667,48.5416667 L45.8333333,48.5416667 C46.0416667,48.125 46.25,47.7083333 46.4583333,47.2916667 L26.0416667,12.0833333 L26.0416667,46.25 C26.4583333,46.4583333 27.0833333,46.6666667 27.5,47.0833333 C28.125,47.7083333 28.3333333,48.125 28.5416667,48.5416667 Z M61.25,37.0833333 L72.2916667,46.4583333 C72.5,46.4583333 72.7083333,46.25 72.9166667,46.25 L72.9166667,12.2916667 L60.8333333,33.3333333 C61.4583333,33.9583333 61.6666667,34.7916667 61.6666667,35.8333333 C61.4583333,36.25 61.4583333,36.6666667 61.25,37.0833333 Z M54.1666667,34.375 L30,13.5416667 L48.9583333,46.25 C49.1666667,46.25 49.375,46.25 49.5833333,46.25 C49.7916667,46.25 50,46.25 50.2083333,46.25 L54.7916667,38.3333333 C54.1666667,37.7083333 53.9583333,36.875 53.9583333,35.8333333 C53.75,35.2083333 53.9583333,34.7916667 54.1666667,34.375 Z M53.125,48.5416667 L70.4166667,48.5416667 L59.375,39.1666667 C58.75,39.5833333 58.125,39.5833333 57.5,39.5833333 C57.2916667,39.5833333 57.0833333,39.5833333 56.875,39.5833333 L52.2916667,47.5 C52.7083333,47.7083333 52.9166667,48.125 53.125,48.5416667 Z M71.4583333,52.7083333 C71.0416667,52.2916667 70.8333333,51.875 70.625,51.25 L53.3333333,51.25 C53.125,51.6666667 52.9166667,52.0833333 52.7083333,52.2916667 L73.125,87.5 L73.125,53.5416667 C72.2916667,53.3333333 71.875,53.125 71.4583333,52.7083333 Z M48.9583333,53.75 L44.375,61.6666667 C45,62.2916667 45.2083333,63.125 45.2083333,64.1666667 C45.2083333,64.5833333 45.2083333,65.2083333 45,65.625 L69.1666667,86.4583333 L50.2083333,53.75 C50,53.75 49.7916667,53.75 49.5833333,53.75 C49.375,53.75 49.1666667,53.75 48.9583333,53.75 Z M70.4166667,91.0416667 L43.125,67.5 C42.5,67.9166667 41.875,67.9166667 41.25,67.9166667 C41.0416667,67.9166667 40.8333333,67.9166667 40.625,67.9166667 L27.9166667,90 C28.125,90.4166667 28.5416667,90.8333333 28.5416667,91.25 L70.4166667,91.0416667 Z M42.0833333,60.4166667 L46.6666667,52.5 C46.4583333,52.0833333 46.0416667,51.875 46.0416667,51.4583333 L28.75,51.4583333 L39.7916667,60.8333333 C40.4166667,60.4166667 41.0416667,60.4166667 41.6666667,60.4166667 C41.4583333,60.2083333 41.875,60.4166667 42.0833333,60.4166667 Z M37.7083333,62.7083333 L26.6666667,53.3333333 C26.4583333,53.3333333 26.25,53.5416667 26.0416667,53.5416667 L26.0416667,87.5 L38.125,66.4583333 C37.5,65.8333333 37.2916667,65 37.2916667,63.9583333 C37.5,63.5416667 37.5,63.125 37.7083333,62.7083333 Z M22.2916667,52.7083333 C21.875,52.2916667 21.6666667,51.875 21.4583333,51.25 L4.16666667,51.25 C3.95833333,51.6666667 3.75,52.0833333 3.54166667,52.5 L23.9583333,87.7083333 L23.9583333,53.5416667 C23.125,53.3333333 22.7083333,53.125 22.2916667,52.7083333 Z" id="Shape" fill="#FFFFFF"></path>
        </g>
    </g>
</svg>