<?xml version="1.0" encoding="UTF-8"?>
<svg width="250px" height="48px" viewBox="0 0 250 48" version="1.1" xmlns="http://www.w3.org/2000/svg" xmlns:xlink="http://www.w3.org/1999/xlink">
    <!-- Generator: Sketch 48.2 (47327) - http://www.bohemiancoding.com/sketch -->
    <title>logo</title>
    <desc>Created with Sketch.</desc>
    <defs></defs>
    <g id="Page-1" stroke="none" stroke-width="1" fill="none" fill-rule="evenodd">
        <g id="logo" fill-rule="nonzero">
            <rect id="Rectangle-path" fill="#505050" transform="translate(24.489386, 14.789791) rotate(66.139321) translate(-24.489386, -14.789791) " x="23.5919172" y="-0.319184436" width="1.79493762" height="30.2179499"></rect>
            <rect id="Rectangle-path" fill="#505050" transform="translate(30.190805, 27.223317) rotate(26.693172) translate(-30.190805, -27.223317) " x="10.7373482" y="26.3253423" width="38.9069145" height="1.79594989"></rect>
            <path d="M46.411,8.35 C46.411,12.699 42.886,16.225 38.536,16.225 C34.187,16.225 30.662,12.7 30.662,8.35 C30.662,4.002 34.187,0.476 38.536,0.476 C42.885,0.476 46.411,4.002 46.411,8.35" id="Shape" fill="#505050"></path>
            <path d="M45.894,8.35 C45.894,12.413 42.6,15.708 38.536,15.708 C34.472,15.708 31.179,12.414 31.179,8.35 C31.179,4.286 34.472,0.993 38.536,0.993 C42.6,0.993 45.894,4.286 45.894,8.35" id="Shape" fill="#F6BD3A"></path>
            <path d="M44.146,8.35 C44.146,11.932 41.243,14.834 37.662,14.834 C34.081,14.834 31.178,11.932 31.178,8.35 C31.178,4.768 34.082,1.866 37.662,1.866 C41.243,1.866 44.146,4.768 44.146,8.35" id="Shape" fill="#F6BD3A"></path>
            <g id="Group" transform="translate(31.000000, 1.000000)" fill="#FFFFFF">
                <path d="M2.158,4.255 C2.097,4.255 2.036,4.237 1.982,4.203 C1.828,4.105 1.783,3.902 1.88,3.749 C3.12,1.806 5.234,0.646 7.536,0.646 C7.718,0.646 7.866,0.793 7.866,0.977 C7.866,1.159 7.719,1.305 7.536,1.305 C5.461,1.305 3.555,2.352 2.436,4.103 C2.373,4.201 2.266,4.255 2.158,4.255" id="Shape"></path>
                <path d="M1.161,7.679 C0.979,7.679 0.831,7.532 0.831,7.35 C0.831,6.722 0.918,6.1 1.09,5.503 C1.14,5.328 1.322,5.226 1.497,5.276 C1.672,5.327 1.773,5.509 1.724,5.683 C1.57,6.222 1.492,6.784 1.492,7.35 C1.491,7.532 1.343,7.679 1.161,7.679" id="Shape"></path>
            </g>
            <path d="M41.732,13.828 C41.732,13.889 41.748,13.95 41.783,14.006 C41.881,14.159 42.085,14.204 42.238,14.105 C44.18,12.867 45.34,10.751 45.34,8.45 C45.34,8.268 45.193,8.12 45.01,8.12 C44.828,8.12 44.681,8.268 44.681,8.45 C44.681,10.526 43.635,12.432 41.883,13.551 C41.785,13.613 41.732,13.72 41.732,13.828" id="Shape" fill="#DE9845"></path>
            <path d="M38.307,14.825 C38.307,15.007 38.454,15.154 38.637,15.154 C39.265,15.154 39.887,15.068 40.484,14.896 C40.659,14.847 40.76,14.665 40.71,14.49 C40.66,14.315 40.479,14.214 40.303,14.263 C39.764,14.418 39.203,14.496 38.637,14.496 C38.454,14.496 38.307,14.644 38.307,14.825" id="Shape" fill="#DE9845"></path>
            <path d="M1.871,15.231 C-1.255,20.738 0.674,27.736 6.181,30.863 C11.687,33.988 18.685,32.059 21.811,26.553 C24.938,21.047 23.008,14.048 17.501,10.922 C11.995,7.797 4.996,9.726 1.871,15.231" id="Shape" fill="#505050"></path>
            <path d="M2.524,15.603 C-0.397,20.749 1.406,27.287 6.551,30.209 C11.696,33.129 18.235,31.326 21.157,26.181 C24.077,21.035 22.275,14.497 17.13,11.577 C11.984,8.655 5.446,10.458 2.524,15.603" id="Shape" fill="#F0587B"></path>
            <g id="Group" transform="translate(15.000000, 12.000000)" fill="#FFFFFF">
                <path d="M5.875,8.839 C5.952,8.883 6.042,8.906 6.137,8.901 C6.401,8.888 6.604,8.663 6.591,8.397 C6.418,5.046 4.574,2.059 1.66,0.404 C1.43,0.273 1.137,0.354 1.006,0.584 C0.876,0.815 0.956,1.108 1.187,1.238 C3.814,2.731 5.477,5.425 5.633,8.447 C5.642,8.617 5.736,8.761 5.875,8.839" id="Shape"></path>
                <path d="M4.675,13.892 C4.905,14.022 5.199,13.942 5.328,13.712 C5.78,12.917 6.117,12.068 6.329,11.188 C6.392,10.931 6.234,10.671 5.976,10.608 C5.718,10.546 5.46,10.706 5.397,10.962 C5.205,11.755 4.901,12.521 4.494,13.238 C4.365,13.469 4.445,13.761 4.675,13.892" id="Shape"></path>
            </g>
            <path d="M14.412,29.645 C14.478,29.703 14.53,29.781 14.556,29.872 C14.63,30.127 14.483,30.393 14.229,30.467 C11.006,31.401 7.579,30.637 5.062,28.425 C4.862,28.25 4.843,27.947 5.018,27.748 C5.193,27.548 5.496,27.529 5.695,27.704 C7.965,29.698 11.055,30.386 13.962,29.545 C14.125,29.497 14.293,29.542 14.412,29.645" id="Shape" fill="#99567D"></path>
            <path d="M18.794,26.857 C18.993,27.032 19.012,27.335 18.837,27.534 C18.233,28.222 17.542,28.818 16.78,29.307 C16.557,29.45 16.26,29.386 16.116,29.162 C15.974,28.94 16.038,28.642 16.261,28.5 C16.948,28.059 17.572,27.52 18.115,26.9 C18.292,26.703 18.594,26.683 18.794,26.857" id="Shape" fill="#99567D"></path>
            <path d="M54.496,29.058 C57.631,33.966 56.194,40.488 51.285,43.623 C46.377,46.758 39.856,45.321 36.721,40.412 C33.585,35.502 35.023,28.983 39.931,25.848 C44.839,22.711 51.36,24.149 54.496,29.058" id="Shape" fill="#505050"></path>
            <path d="M53.913,29.43 C56.842,34.019 55.498,40.11 50.913,43.04 C46.327,45.97 40.234,44.627 37.305,40.039 C34.375,35.453 35.719,29.361 40.304,26.431 C44.89,23.501 50.983,24.844 53.913,29.43" id="Shape" fill="#28B2AD"></path>
            <g id="Group" transform="translate(36.000000, 27.000000)" fill="#FFFFFF">
                <path d="M1.306,8.118 C1.238,8.163 1.157,8.189 1.069,8.189 C0.826,8.189 0.63,7.991 0.63,7.747 C0.628,4.661 2.177,1.828 4.775,0.168 C4.981,0.037 5.253,0.097 5.384,0.303 C5.515,0.508 5.454,0.781 5.25,0.912 C2.908,2.409 1.51,4.964 1.511,7.747 C1.51,7.902 1.429,8.041 1.306,8.118" id="Shape"></path>
                <path d="M2.65,12.702 C2.444,12.833 2.172,12.773 2.041,12.568 C1.589,11.858 1.239,11.095 1,10.297 C0.931,10.064 1.064,9.818 1.297,9.747 C1.531,9.678 1.776,9.81 1.845,10.044 C2.06,10.763 2.376,11.452 2.784,12.093 C2.915,12.3 2.856,12.572 2.65,12.702" id="Shape"></path>
            </g>
            <path d="M43.665,42.898 C43.607,42.955 43.563,43.029 43.544,43.114 C43.489,43.352 43.635,43.589 43.873,43.643 C46.877,44.348 49.989,43.482 52.196,41.33 C52.371,41.16 52.375,40.88 52.204,40.707 C52.034,40.532 51.755,40.529 51.58,40.698 C49.59,42.638 46.784,43.419 44.073,42.785 C43.921,42.749 43.769,42.797 43.665,42.898" id="Shape" fill="#548F9D"></path>
            <path d="M39.506,40.546 C39.332,40.717 39.328,40.996 39.499,41.172 C40.086,41.773 40.75,42.288 41.474,42.701 C41.686,42.823 41.954,42.749 42.076,42.538 C42.197,42.325 42.123,42.056 41.912,41.935 C41.26,41.563 40.661,41.098 40.131,40.555 C39.96,40.38 39.681,40.377 39.506,40.546" id="Shape" fill="#548F9D"></path>
            <path d="M11.107,27.028 L12.952,26.665 C15.699,26.124 17.486,23.46 16.945,20.713 L16.469,18.294 C15.927,15.547 13.263,13.76 10.517,14.301 L8.673,14.665 C5.926,15.205 4.139,17.87 4.68,20.616 L5.157,23.035 C5.698,25.781 8.362,27.569 11.107,27.028" id="Shape" fill="#FFFFFF"></path>
            <path d="M43.958,39.766 L45.261,40.258 C47.879,41.244 50.803,39.921 51.79,37.302 L52.478,35.475 C53.466,32.856 52.143,29.933 49.524,28.946 L48.222,28.454 C45.602,27.468 42.68,28.789 41.692,31.409 L41.003,33.236 C40.016,35.854 41.339,38.778 43.958,39.766" id="Shape" fill="#FFFFFF"></path>
            <path d="M7.702,20.579 L7.326,17.162 C7.669,17.195 8.043,17.195 8.409,17.111 L11.997,16.286 C12.563,16.155 12.264,15.939 12.761,15.824 C12.867,15.801 13.011,15.83 13.056,16.03 C13.137,16.384 12.722,16.952 12.109,19.691 C11.904,20.583 11.85,21.477 12.162,22.836 C12.225,23.107 12.323,23.371 12.385,23.641 C12.578,24.48 12.14,24.953 11.633,25.07 C11.256,25.157 10.512,25.166 10.295,24.222 C10.015,23.007 10.753,20.924 11.125,20.055 C11.86,18.283 11.962,18.023 12.006,17.888 L8.973,18.586 C8.607,18.67 8.056,18.76 8.235,20.459 L7.702,20.579 Z" id="Shape" fill="#D05879"></path>
            <path d="M45.567,33.012 L45.598,33.023 C46.43,32.792 47.109,33.023 47.343,33.107 C49.191,33.772 49.235,35.446 48.81,36.632 C48.418,37.724 46.944,38.556 45.34,37.981 C44.789,37.783 44.077,37.354 43.749,36.728 C43.614,36.461 43.414,35.928 43.608,35.387 C43.854,34.703 44.453,34.608 44.841,34.747 C45.495,34.979 45.513,35.54 45.381,35.908 C45.344,36.01 45.27,36.087 45.187,36.161 C44.896,36.426 44.533,36.377 44.471,36.549 C44.412,36.713 44.609,37.13 45.211,37.346 C45.711,37.526 46.641,37.536 47.195,35.994 C47.778,34.37 47.198,33.77 46.585,33.55 C46.125,33.384 45.499,33.46 45.231,33.756 C45.157,33.833 45.006,33.998 44.822,33.932 C44.637,33.865 44.562,33.724 44.632,33.53 C44.698,33.346 44.833,33.359 44.987,33.056 L46.466,30.221 L46.842,30.357 C46.869,30.413 47.134,30.957 48.135,31.317 C48.564,31.471 49.108,31.527 49.696,31.208 L50.267,31.413 C49.366,32.577 48.324,32.492 47.15,32.07 C46.843,31.96 46.527,31.812 46.266,31.672 L45.567,33.012 Z" id="Shape" fill="#69B0AC"></path>
            <path d="M39.725,12.546 L38.672,12.709 C36.589,13.033 35.013,11.606 34.69,9.523 L34.526,8.472 C34.203,6.388 35.256,4.438 37.339,4.115 L38.391,3.953 C40.474,3.629 42.052,5.056 42.374,7.139 L42.537,8.191 C42.86,10.273 41.807,12.224 39.725,12.546" id="Shape" fill="#FFFFFF"></path>
            <path d="M37.601,7.874 C39.187,7.603 39.05,6.967 38.972,6.437 C38.825,5.458 38.127,5.513 37.934,5.541 C37.42,5.619 37.229,5.877 37.254,6.046 C37.306,6.392 37.446,6.066 37.654,6.355 C37.727,6.459 37.739,6.597 37.758,6.725 C37.792,6.95 37.549,7.2 37.237,7.246 C36.868,7.302 36.544,7.063 36.486,6.67 C36.393,6.051 36.985,5.339 38.141,5.166 C39.217,5.005 40.042,5.58 40.148,6.286 C40.23,6.832 39.82,7.493 39.031,7.766 L39.038,7.806 C40.273,7.777 40.728,8.514 40.805,9.028 C40.909,9.718 40.349,10.747 38.847,10.972 C37.69,11.144 36.815,10.503 36.711,9.813 C36.646,9.379 36.909,8.995 37.367,8.926 C37.801,8.861 38.051,9.169 38.094,9.449 C38.107,9.538 38.106,9.636 38.077,9.724 C37.964,10.167 37.637,9.962 37.683,10.274 C37.712,10.467 38.107,10.695 38.662,10.612 C38.927,10.572 39.704,10.391 39.524,9.186 C39.365,8.126 38.669,8.082 37.922,8.194 L37.657,8.234 L37.601,7.874 Z" id="Shape" fill="#E5B446"></path>
            <polygon id="Shape" fill="#FFFFFF" points="81.899 4.416 81.899 10.167 75.566 10.167 75.566 43.225 69.175 43.225 69.175 10.167 62.784 10.167 62.784 4.416"></polygon>
            <path d="M92.299,4.416 C95.669,4.416 98.331,5.366 100.287,7.263 C102.243,9.16 103.221,11.833 103.221,15.28 C103.221,19.114 101.632,21.962 98.457,23.821 C99.425,24.48 100.335,25.613 101.187,27.22 C102.038,28.828 102.891,31.298 103.743,34.628 L106.009,43.226 L99.212,43.226 L97.294,35.266 C96.481,31.976 95.734,29.651 95.057,28.295 C94.379,26.94 93.536,26.261 92.53,26.261 L92.065,26.261 L92.065,43.225 L85.674,43.225 L85.674,4.416 L92.299,4.416 Z M92.066,21.09 L92.647,21.09 C94.002,21.09 95.038,20.616 95.755,19.666 C96.471,18.718 96.83,17.314 96.83,15.454 C96.83,13.401 96.471,11.911 95.755,10.98 C95.038,10.05 93.983,9.585 92.588,9.585 L92.065,9.585 L92.065,21.09 L92.066,21.09 Z" id="Shape" fill="#FFFFFF"></path>
            <path d="M115.307,4.416 L115.307,32.885 C115.307,34.394 115.588,35.625 116.149,36.573 C116.71,37.523 117.592,37.998 118.793,37.998 C119.8,37.998 120.632,37.591 121.291,36.777 C121.949,35.964 122.279,34.723 122.279,33.058 L122.279,4.416 L128.67,4.416 L128.67,32.536 C128.67,36.024 127.75,38.763 125.911,40.757 C124.071,42.753 121.679,43.75 118.736,43.75 C115.831,43.75 113.468,42.762 111.648,40.787 C109.827,38.81 108.917,36.158 108.917,32.827 L108.917,4.416 L115.307,4.416 Z" id="Shape" fill="#FFFFFF"></path>
            <polygon id="Shape" fill="#FFFFFF" points="150.108 4.416 150.108 9.877 140.927 9.877 140.927 20.393 149.293 20.393 149.293 25.854 140.927 25.854 140.927 37.766 150.573 37.766 150.573 43.226 134.537 43.226 134.537 4.416"></polygon>
            <path d="M175.729,6.74 L175.729,13.13 C174.256,11.66 172.941,10.661 171.778,10.138 C170.617,9.615 169.434,9.354 168.235,9.354 C165.832,9.354 163.984,10.526 162.685,12.868 C161.387,15.213 160.74,18.902 160.74,23.936 C160.74,28.624 161.301,32.149 162.426,34.511 C163.548,36.874 165.33,38.054 167.77,38.054 C168.543,38.054 169.223,37.958 169.804,37.765 L169.804,27.655 L166.318,27.655 L166.318,22.253 L176.02,22.253 L176.02,40.903 C174.665,41.872 173.319,42.588 171.982,43.052 C170.645,43.516 169.165,43.75 167.539,43.75 C163.433,43.75 160.198,42.035 157.836,38.607 C155.473,35.179 154.291,30.309 154.291,23.995 C154.291,17.643 155.482,12.705 157.865,9.18 C160.247,5.657 163.509,3.893 167.655,3.893 C168.97,3.893 170.298,4.097 171.634,4.503 C172.969,4.91 174.335,5.656 175.729,6.74 Z" id="Shape" fill="#F0587B"></path>
            <path d="M193.449,4.183 L200.944,43.225 L194.379,43.225 L193.102,35.092 L186.768,35.092 L185.432,43.225 L178.868,43.225 L186.421,4.183 L193.449,4.183 Z M189.849,13.828 L187.467,29.922 L192.346,29.922 L189.965,13.828 L189.849,13.828 Z" id="Shape" fill="#F0587B"></path>
            <polygon id="Shape" fill="#F0587B" points="209.951 4.416 216.051 18.127 222.094 4.416 227.728 4.416 227.728 43.226 221.57 43.226 221.57 17.198 221.454 17.198 216.399 28.933 215.645 28.933 210.589 17.198 210.473 17.198 210.473 43.226 204.315 43.226 204.315 4.416"></polygon>
            <polygon id="Shape" fill="#F0587B" points="249.457 4.416 249.457 9.877 240.277 9.877 240.277 20.393 248.643 20.393 248.643 25.854 240.277 25.854 240.277 37.766 249.922 37.766 249.922 43.226 233.887 43.226 233.887 4.416"></polygon>
        </g>
    </g>
</svg>