<?xml version="1.0" standalone="no"?>
<!DOCTYPE svg PUBLIC "-//W3C//DTD SVG 20010904//EN"
 "http://www.w3.org/TR/2001/REC-SVG-20010904/DTD/svg10.dtd">
<svg version="1.0" xmlns="http://www.w3.org/2000/svg"
 width="400.000000pt" height="400.000000pt" viewBox="0 0 400.000000 400.000000"
 preserveAspectRatio="xMidYMid meet">

<g transform="translate(0.000000,400.000000) scale(0.100000,-0.100000)"
fill="#000000" stroke="none">
<path d="M1870 3961 c-25 -10 -146 -76 -270 -148 -124 -72 -445 -257 -715
-413 -536 -309 -571 -333 -622 -444 l-28 -61 0 -895 0 -895 33 -67 c45 -93
108 -145 308 -259 93 -52 403 -231 689 -396 684 -395 608 -358 735 -358 127 0
55 -35 700 337 267 154 577 333 689 397 235 134 297 184 343 279 l33 67 0 895
0 895 -28 61 c-51 110 -88 137 -587 424 -250 145 -575 332 -722 416 -146 85
-285 161 -308 169 -59 21 -193 19 -250 -4z m-190 -1396 l0 -74 -32 -5 c-18 -3
-51 -7 -73 -10 -22 -3 -77 -23 -121 -46 -191 -94 -300 -301 -266 -502 31 -179
147 -319 319 -385 57 -21 84 -25 173 -25 89 0 116 4 173 25 172 66 289 206
319 384 l12 73 78 0 78 0 0 -38 c0 -61 -38 -191 -78 -266 -47 -88 -159 -202
-245 -250 -271 -152 -601 -107 -812 110 -247 253 -246 638 1 889 121 122 270
191 422 194 l52 1 0 -75z m870 34 c105 -40 182 -92 260 -175 231 -246 225
-627 -15 -869 -104 -106 -241 -175 -372 -190 -32 -3 -68 -8 -80 -11 -22 -4
-23 -2 -23 76 0 44 3 80 8 80 4 0 38 5 76 10 259 38 451 298 408 552 -42 242
-243 408 -494 408 -187 -1 -345 -92 -437 -253 -25 -44 -61 -164 -61 -204 0
-22 -3 -23 -80 -23 l-80 0 0 38 c0 20 9 69 19 108 53 205 198 369 397 448 90
36 158 46 287 40 90 -4 123 -10 187 -35z"/>
</g>
</svg>
