<?xml version="1.0" standalone="no"?>
<!DOCTYPE svg PUBLIC "-//W3C//DTD SVG 20010904//EN"
 "http://www.w3.org/TR/2001/REC-SVG-20010904/DTD/svg10.dtd">
<svg version="1.0" xmlns="http://www.w3.org/2000/svg"
 width="1044.000000pt" height="1062.000000pt" viewBox="0 0 1044.000000 1062.000000"
 preserveAspectRatio="xMidYMid meet">

<g transform="translate(0.000000,1062.000000) scale(0.100000,-0.100000)"
fill="#000000" stroke="none">
<path d="M4875 10029 c-395 -30 -754 -94 -1095 -194 -323 -96 -592 -203 -885
-354 -596 -307 -1098 -713 -1546 -1251 -118 -142 -325 -444 -424 -620 -383
-681 -541 -1227 -562 -1950 -7 -243 20 -684 58 -955 85 -605 320 -1176 686
-1665 456 -610 1012 -1025 1678 -1254 436 -149 929 -206 1385 -161 959 96
1861 633 2374 1414 182 277 317 567 395 851 28 98 82 367 95 470 33 250 38
369 43 943 l5 597 -355 0 -355 0 -5 -532 c-3 -295 -10 -578 -16 -633 -75 -659
-286 -1196 -634 -1610 -349 -416 -868 -678 -1477 -746 -149 -16 -489 -14 -646
5 -595 70 -1157 315 -1558 677 -414 375 -698 877 -841 1489 -62 264 -87 479
-92 792 -7 378 15 617 92 972 184 854 643 1565 1377 2134 95 73 294 205 423
280 118 68 394 206 485 242 551 218 985 317 1575 360 362 26 811 -1 1190 -71
655 -122 1234 -356 1790 -723 603 -398 1165 -967 1608 -1628 51 -75 93 -135
95 -134 1 2 -13 39 -33 82 -20 43 -33 84 -30 91 2 8 1 12 -4 9 -10 -6 -25 24
-16 32 3 3 5 -1 5 -8 0 -7 3 -11 6 -7 7 7 -83 210 -172 388 -90 182 -201 370
-326 559 -198 297 -310 432 -573 695 -471 473 -948 794 -1570 1060 -139 60
-482 174 -645 215 -480 120 -1052 173 -1505 139z"/>
<path d="M4885 8100 c-313 -4 -954 -8 -1423 -9 l-852 -1 2 -1477 3 -1478 848
-3 847 -2 0 -1014 c0 -659 3 -1017 10 -1021 17 -11 182 82 265 149 210 168
342 397 405 696 32 155 39 345 47 1193 l6 767 -796 0 -797 0 2 708 3 707 1255
0 c1124 -1 1271 -2 1410 -18 972 -109 1779 -577 2267 -1314 141 -213 267 -487
341 -738 185 -629 138 -1420 -125 -2080 -413 -1038 -1407 -1830 -2768 -2204
-445 -122 -1035 -201 -1500 -201 -399 1 -1013 74 -1335 160 -154 41 -404 122
-453 147 -58 29 -34 5 49 -50 77 -51 434 -236 579 -299 448 -195 910 -320
1412 -380 163 -20 236 -23 553 -22 315 0 390 3 545 22 1046 128 1972 578 2710
1317 237 237 422 461 603 731 128 190 185 293 255 461 229 544 341 1219 296
1784 -95 1216 -739 2271 -1762 2888 -431 260 -925 438 -1467 530 -316 53 -555
62 -1435 51z"/>
</g>
</svg>
