<?xml version="1.0" encoding="utf-8"?>
<!-- Generator: Adobe Illustrator 21.1.0, SVG Export Plug-In . SVG Version: 6.00 Build 0)  -->
<svg version="1.1" id="Слой_1" xmlns="http://www.w3.org/2000/svg" xmlns:xlink="http://www.w3.org/1999/xlink" x="0px" y="0px"
	 viewBox="0 0 400 400" style="enable-background:new 0 0 400 400;" xml:space="preserve">
<style type="text/css">
	.st0{fill:#E5332C;}
</style>
<polygon class="st0" points="288.6,149.5 141.2,64.4 200.7,30 348.1,115.1 348.1,285.2 368.1,285.2 368.1,103.6 368,103.6 200.7,7 
	101.3,64.5 268.7,161.1 268.7,331.3 200.7,370.5 200.7,200.1 33.4,103.5 33.4,103.5 33.4,103.6 33.3,103.6 33.3,103.7 33.3,285.2 
	53.2,285.2 53.3,138 180.8,211.6 180.8,381.9 190.2,387.5 200.7,393.5 200.7,393.5 288.6,342.9 288.6,149.5 "/>
</svg>
