<?xml version="1.0" standalone="no"?>
<!DOCTYPE svg PUBLIC "-//W3C//DTD SVG 20010904//EN"
 "http://www.w3.org/TR/2001/REC-SVG-20010904/DTD/svg10.dtd">
<svg version="1.0" xmlns="http://www.w3.org/2000/svg"
 width="250.000000pt" height="250.000000pt" viewBox="0 0 250.000000 250.000000"
 preserveAspectRatio="xMidYMid meet">

<g transform="translate(0.000000,250.000000) scale(0.100000,-0.100000)"
fill="#000000" stroke="none">
<path d="M1100 2490 c-14 -4 -56 -13 -95 -20 -364 -62 -706 -326 -878 -680
-53 -108 -73 -176 -117 -390 -19 -91 -6 -296 29 -445 46 -199 166 -418 315
-573 50 -53 162 -142 242 -194 109 -70 276 -135 409 -158 39 -7 83 -16 99 -21
38 -12 251 -12 290 0 17 5 63 15 101 21 88 15 232 63 310 103 360 187 592 495
671 892 21 101 29 305 16 370 -6 28 -16 76 -22 107 -74 377 -341 716 -690 877
-89 41 -201 77 -285 91 -38 6 -84 16 -101 21 -37 11 -259 11 -294 -1z m336
-240 c213 -43 366 -123 518 -269 356 -345 417 -865 150 -1282 -92 -145 -263
-294 -425 -372 -264 -127 -592 -127 -859 1 -249 119 -458 355 -540 611 -98
309 -46 640 146 906 50 70 167 186 239 237 223 158 510 221 771 168z"/>
<path d="M1083 2216 c-314 -60 -570 -250 -708 -525 -164 -329 -129 -737 89
-1027 153 -204 368 -335 625 -379 660 -115 1241 468 1126 1130 -22 122 -51
203 -114 318 -131 236 -359 406 -631 472 -92 22 -298 28 -387 11z m157 -361
c476 0 499 1 519 19 12 11 23 17 26 14 9 -8 -49 -148 -59 -145 -5 2 -10 13
-11 26 -1 13 -8 27 -16 32 -8 5 -95 8 -194 6 l-180 -2 0 -606 c0 -476 3 -609
13 -621 7 -9 26 -18 42 -22 17 -3 30 -10 30 -16 0 -7 -56 -10 -167 -8 -163 3
-204 12 -133 31 20 5 34 17 40 33 6 16 9 253 8 617 l-3 592 -184 3 c-195 3
-211 -1 -211 -44 0 -42 -15 -26 -43 49 -34 89 -34 97 -1 66 l26 -24 498 0z"/>
</g>
</svg>
