<?xml version="1.0" encoding="iso-8859-1"?>
<!-- Generator: Adobe Illustrator 19.0.0, SVG Export Plug-In . SVG Version: 6.00 Build 0)  -->
<svg version="1.1" id="Layer_1" xmlns="http://www.w3.org/2000/svg" xmlns:xlink="http://www.w3.org/1999/xlink" x="0px" y="0px"
	 viewBox="0 0 512 512" style="enable-background:new 0 0 512 512;" xml:space="preserve">
<g>
	<path style="fill:#507C5C;" d="M233.649,442.733c-7.714,0-13.97-6.256-13.97-13.97s6.256-13.97,13.97-13.97
		c87.558,0,158.793-71.234,158.793-158.793c0-43.054-16.948-83.356-47.72-113.481c-10.176-9.962-21.628-18.51-34.038-25.409
		c-6.743-3.75-9.17-12.254-5.422-18.999c3.751-6.743,12.257-9.169,18.999-5.422c14.587,8.111,28.048,18.158,40.006,29.865
		c36.186,35.422,56.116,82.815,56.116,133.445C420.381,358.964,336.613,442.733,233.649,442.733z M149.815,421.074
		c-2.298,0-4.627-0.567-6.775-1.763C83.748,386.35,46.915,323.773,46.915,256c0-102.964,83.768-186.733,186.733-186.733
		c7.714,0,13.97,6.256,13.97,13.97s-6.256,13.97-13.97,13.97c-87.558,0-158.793,71.234-158.793,158.793
		c0,57.636,31.329,110.856,81.758,138.891c6.743,3.75,9.171,12.253,5.423,18.998C159.483,418.483,154.722,421.074,149.815,421.074z"
		/>
	<path style="fill:#507C5C;" d="M291.45,512H175.848c-22.05,0-39.989-17.939-39.989-39.989v-64.923c0-7.714,6.256-13.97,13.97-13.97
		s13.97,6.256,13.97,13.97v64.923c0,6.644,5.405,12.049,12.049,12.049H291.45c6.644,0,12.049-5.405,12.049-12.049v-64.923
		c0-7.714,6.256-13.97,13.97-13.97c7.714,0,13.97,6.256,13.97,13.97v64.923C331.439,494.061,313.5,512,291.45,512z"/>
	<path style="fill:#507C5C;" d="M317.469,118.882c-7.714,0-13.97-6.256-13.97-13.97V39.989c0-6.644-5.405-12.049-12.049-12.049
		H175.848c-6.644,0-12.049,5.405-12.049,12.049v64.923c0,7.714-6.256,13.97-13.97,13.97s-13.97-6.256-13.97-13.97V39.989
		C135.859,17.939,153.798,0,175.848,0H291.45c22.05,0,39.989,17.939,39.989,39.989v64.923
		C331.439,112.626,325.183,118.882,317.469,118.882z"/>
</g>
<path style="fill:#CFF09E;" d="M233.649,379.456c-68.073,0-123.456-55.381-123.456-123.456s55.381-123.456,123.456-123.456
	S357.104,187.926,357.104,256S301.722,379.456,233.649,379.456z"/>
<g>
	<path style="fill:#507C5C;" d="M233.649,393.424c-75.776,0-137.424-61.648-137.424-137.424s61.648-137.424,137.424-137.424
		S371.073,180.224,371.073,256S309.425,393.424,233.649,393.424z M233.649,146.516c-60.37,0-109.484,49.114-109.484,109.484
		s49.114,109.484,109.484,109.484S343.133,316.37,343.133,256S294.019,146.516,233.649,146.516z"/>
	<path style="fill:#507C5C;" d="M233.392,297.394c-3.576,0-7.15-1.365-9.878-4.092l-39.363-39.363
		c-5.455-5.455-5.455-14.301,0-19.758c5.457-5.454,14.3-5.454,19.758,0l29.484,29.484l43.463-43.463
		c5.457-5.454,14.3-5.454,19.758,0c5.455,5.455,5.455,14.301,0,19.758l-53.343,53.343
		C240.543,296.03,236.968,297.394,233.392,297.394z"/>
	<path style="fill:#507C5C;" d="M451.115,282.31c-7.714,0-13.97-6.256-13.97-13.97V243.66c0-7.714,6.256-13.97,13.97-13.97
		s13.97,6.256,13.97,13.97v24.679C465.085,276.054,458.83,282.31,451.115,282.31z"/>
</g>
<g>
</g>
<g>
</g>
<g>
</g>
<g>
</g>
<g>
</g>
<g>
</g>
<g>
</g>
<g>
</g>
<g>
</g>
<g>
</g>
<g>
</g>
<g>
</g>
<g>
</g>
<g>
</g>
<g>
</g>
</svg>
