<svg id="Layer_1" data-name="Layer 1" xmlns="http://www.w3.org/2000/svg" viewBox="0 0 83.764 86.44">
  <defs>
    <style>
      .cls-1 {
        fill: #ab6b2f;
      }

      .cls-2 {
        fill: #353266;
      }

      .cls-3 {
        fill: #55b4d9;
      }

      .cls-4 {
        fill: #ffa93b;
      }
    </style>
  </defs>
  <title>1edbc86b-d425-405d-9bd8-60ee0f49b94a</title>
  <g id="ChronoWalletLogo">
    <path class="cls-1" d="M61.73,25.731H5.253c-2.877,0-5.238.392-5.238-1.046,0-3.138,2.21-4.974,4.92-5.939L56.8.285c2.71-.965,4.928.6,4.928,3.477Z"/>
    <path class="cls-2" d="M5.238,27.217h73.3a2.73,2.73,0,0,1,2.73,2.73V81.209a2.731,2.731,0,0,1-2.731,2.731H5.238a2.73,2.73,0,0,1-2.73-2.73V29.948a2.73,2.73,0,0,1,2.73-2.73Z"/>
    <path class="cls-3" d="M42.524,35.849A19.206,19.206,0,1,0,61.73,55.055,19.206,19.206,0,0,0,42.524,35.849ZM50.307,60.61H39.792a2.39,2.39,0,0,1-2.39-2.39V46.749a2.39,2.39,0,1,1,4.78,0V55.83h8.125a2.39,2.39,0,1,1,0,4.78Z"/>
    <path class="cls-4" d="M78.533,24.717H61.73V3.762C61.73,1.461,60.312,0,58.358,0A4.65,4.65,0,0,0,56.8.285L4.935,18.746C3.494,19.259,0,20.406,0,24.182v10.48l.007-.011V81.209A5.246,5.246,0,0,0,5.238,86.44h73.3a5.246,5.246,0,0,0,5.231-5.231V29.948A5.246,5.246,0,0,0,78.533,24.717Zm.231,5.231v7.123A13.391,13.391,0,0,1,71.4,29.717h7.131A.246.246,0,0,1,78.764,29.948Zm-11.579-.231A17.364,17.364,0,0,0,78.764,41.293V69.864A17.364,17.364,0,0,0,67.185,81.44h-50.6A17.363,17.363,0,0,0,5.007,69.864V41.293A17.363,17.363,0,0,0,16.582,29.731Zm-61.971.011.039,0h7.11a13.391,13.391,0,0,1-7.355,7.34V29.948A.242.242,0,0,1,5.214,29.728ZM57.473,2.169A2.666,2.666,0,0,1,58.358,2,2.021,2.021,0,0,1,60.21,3.9l1,20.815H9.272c-6.379,0-6.343-2.984-3.453-4.162l0,0ZM5.007,81.209V74.086a13.391,13.391,0,0,1,7.361,7.354H5.238A.246.246,0,0,1,5.007,81.209Zm73.526.231H71.4a13.391,13.391,0,0,1,7.362-7.354v7.123A.246.246,0,0,1,78.533,81.44Z"/>
  </g>
</svg>
