<svg xmlns="http://www.w3.org/2000/svg" width="201.1" height="28.9" viewBox="0 0 201.1 28.9"><style type="text/css">.st0{fill:#dc5653;}</style><path id="XMLID_37_" class="st0" d="M20.4 13.9c1.3.8 2.3 2 2.9 3.6.2.4.3.9.4 1.4.1.5.1 1.1.1 1.6 0 1.9-.5 3.5-1.5 4.7-1 1.3-2.5 2.2-4.4 2.8-1.2.4-2.6.6-4.3.6h-12.2c-.4 0-.7-.1-.9-.4-.4-.2-.5-.5-.5-.9v-2.8c0-.4.1-.7.4-1s.6-.4.9-.4h12.7c1.5 0 2.6-.3 3.3-.8.6-.5.9-1.2.9-2.1 0-.9-.3-1.6-1-2.2-.8-.7-2-1-3.6-1h-12.2c-.4 0-.7-.1-.9-.4-.4-.3-.5-.6-.5-1v-2.7c0-.4.1-.7.4-.9.3-.3.6-.4.9-.4h11.7c.6 0 1.1-.1 1.6-.2.4-.1.8-.2 1-.4.3-.2.5-.4.6-.6.2-.2.3-.4.4-.6.2-.4.3-.8.3-1.3s-.1-.9-.2-1.3c-.1-.3-.3-.6-.5-.8-.3-.4-.7-.6-1.2-.8-.5-.1-1-.2-1.7-.2h-12c-.3.1-.6 0-.9-.3s-.4-.6-.4-1v-2.7c0-.4.1-.7.4-1s.6-.4 1-.4h11.6c3.2 0 5.6.9 7.4 2.7 1.5 1.5 2.2 3.3 2.2 5.5-.1 2.4-.8 4.3-2.2 5.7z"/><path id="XMLID_35_" class="st0" d="M47.7 23.2c.3.3.4.6.4 1v2.8c0 .4-.1.7-.4 1-.3.3-.6.4-1 .4h-16.8c-.4 0-.7-.1-.9-.4-.3-.3-.4-.6-.4-.9v-25.7c0-.4.1-.7.4-.9s.6-.5.9-.5h2.9c.4 0 .7.1.9.4.3.3.5.6.5.9v21.5h12.6c.4 0 .7.1.9.4z"/><path id="XMLID_32_" class="st0" d="M64.6 0c4.2 0 7.7 1.4 10.4 4.2 2.7 2.8 4 6.2 4 10.2 0 4-1.3 7.4-4 10.2-2.7 2.8-6.2 4.2-10.4 4.2s-7.7-1.4-10.4-4.2c-2.7-2.8-4-6.2-4-10.2 0-4 1.3-7.4 4-10.2 2.7-2.8 6.2-4.2 10.4-4.2zm0 23.4c2.7 0 4.8-.8 6.4-2.5 1.6-1.6 2.4-3.8 2.4-6.4 0-2.6-.8-4.7-2.4-6.4-1.6-1.7-3.8-2.5-6.4-2.5-2.7 0-4.8.8-6.4 2.5-1.6 1.7-2.4 3.8-2.4 6.4 0 2.6.8 4.8 2.4 6.4 1.6 1.7 3.8 2.5 6.4 2.5z"/><path id="XMLID_30_" class="st0" d="M92.3 6.2c-1.1.4-1.9 1.1-2.6 1.9-1.4 1.6-2.2 3.7-2.2 6.4s.7 4.8 2.2 6.4c1.5 1.7 3.7 2.5 6.6 2.5 1.5 0 2.9-.4 4.1-1.2 1.2-.8 2.1-1.9 2.6-3.2.1-.3.3-.5.5-.6.2-.1.5-.2.8-.2h3c.5 0 .8.2 1.1.5.3.4.3.8.2 1.2-1 2.7-2.5 4.8-4.7 6.4-2.3 1.7-5.1 2.5-8.2 2.5-4.2 0-7.5-1.4-10.1-4.3-2.4-2.7-3.6-6.1-3.6-10.2s1.2-7.5 3.6-10.2c2.6-2.7 6-4.1 10.1-4.1 3.1 0 5.8.8 8.2 2.5 2.2 1.5 3.7 3.7 4.7 6.4.2.4.1.8-.2 1.2-.2.4-.6.5-1.1.5h-3c-.3 0-.5-.1-.8-.2-.2-.1-.4-.3-.5-.6-.6-1.3-1.4-2.4-2.6-3.2-1.2-.8-2.5-1.2-4.1-1.2-1.6.1-2.9.4-4 .8z"/><path id="XMLID_28_" class="st0" d="M137.4 26.2c.3.5.4.9.1 1.4-.3.5-.7.7-1.2.7h-3.7c-.5 0-.8-.2-1.1-.6l-9.1-13.2-3.7 3.5v9c0 .4-.1.7-.4.9-.3.3-.6.4-.9.4h-2.9c-.4 0-.7-.1-.9-.4-.3-.3-.4-.6-.4-.9v-25.6c0-.4.1-.7.4-.9.3-.3.6-.4.9-.4h2.9c.4 0 .7.1.9.4.3.3.4.6.4.9v9.2l10.8-10.2c.2-.2.5-.3.9-.3h4.1c.3 0 .5.1.8.2.2.2.4.4.5.6.2.5.1 1-.3 1.5l-8.9 8.5 10.8 15.3z"/><path id="XMLID_25_" class="st0" d="M160.6 0c.4 0 .7.1.9.4.3.3.4.6.4 1v2.8c0 .4-.1.7-.4 1-.3.3-.6.4-.9.4h-4c-.4 0-.7-.1-1-.4-.3-.3-.4-.6-.4-1v-2.8c0-.4.1-.7.4-1 .3-.3.6-.4 1-.4h4zm-9.2 0c.4 0 .7.1 1 .4.3.3.4.6.4 1v26.1c0 .4-.1.7-.4.9-.3.3-.6.4-1 .4h-3c-.4 0-.7-.1-.9-.4-.3-.3-.4-.6-.4-.9v-21.9h-7.8c-.4 0-.7-.1-.9-.4-.3-.3-.4-.6-.4-1v-2.8c0-.4.1-.7.4-1 .3-.3.6-.4.9-.4h12.1z"/><path id="XMLID_23_" class="st0" d="M170.8.4c.3.3.4.6.4.9v25.7c0 .4-.1.7-.4.9-.3.3-.6.4-.9.4h-2.9c-.4 0-.7-.1-.9-.4-.3-.3-.4-.6-.4-.9v-25.6c0-.4.1-.7.4-.9s.6-.4.9-.4h2.9c.3-.1.6 0 .9.3z"/><path id="XMLID_1_" class="st0" d="M200.9 26.2c.3.5.4.9.2 1.4-.1.3-.3.4-.5.6-.2.1-.4.2-.7.2h-3.7c-.5 0-.8-.2-1.1-.5l-7.2-9.6-7.2 9.6c-.3.4-.6.5-1.1.5h-3.7c-.6 0-.9-.2-1.2-.7-.3-.5-.2-1 .1-1.4l19.6-25.6c.3-.4.6-.5 1.1-.5h3.7c.6 0 1 .3 1.2.8.3.5.2 1-.2 1.4l-8.9 11.6 9.6 12.2zm-25.5-24c-.4-.4-.4-.9-.2-1.4.3-.5.7-.8 1.2-.8h3.7c.5 0 .8.2 1.1.5l5.3 7.1c.4.4.4.9.2 1.4-.3.5-.7.7-1.2.7h-3.5c-.5 0-.8-.2-1.1-.5l-5.5-7z"/></svg>