<svg class="tokia-logo" xmlns="http://www.w3.org/2000/svg" xmlns:xlink="http://www.w3.org/1999/xlink" width="124" height="29">
  <defs>
    <path id="a" d="M174.13 3540.12a9.37 9.37 0 1 1-13.35-13.16 9.37 9.37 0 0 1 13.35 13.16zm-6.62-21.12a14.5 14.5 0 1 0-.02 29 14.5 14.5 0 0 0 .02-29z"/>
    <path id="b" d="M212.23 3519h-7.26l-13.87 13.88V3519H186v29h5.1v-7.86l3.9-3.9 11.01 11.76H213l-14.38-15.39 13.6-13.61z"/>
    <path id="c" d="M219 3548v-29h5v29z"/>
    <path id="d" d="M240.46 3528.44l7.96 19.56H254l-9.07-22.65-2.71-6.35h-3.52l-.65 1.61-6.66 16.58-4.39 10.76h5.58l2.35-5.81v-.17l.63-1.45h6.93l-4.96-4.9.38-.9z"/>
    <path id="e" d="M157 3519h-27l5.26 5.17h5.62V3548h5.24v-23.83h5.62L157 3519z"/>
    <path id="f" d="M164 3533.5a3.5 3.5 0 1 1 7 0 3.5 3.5 0 0 1-7 0z"/>
  </defs>
  <use fill="#00C696" xlink:href="#a" transform="translate(-130 -3519)"/>
  <use fill="#00C696" xlink:href="#b" transform="translate(-130 -3519)"/>
  <use fill="#00C696" xlink:href="#c" transform="translate(-130 -3519)"/>
  <use fill="#00C696" xlink:href="#d" transform="translate(-130 -3519)"/>
  <use fill="#00C696" xlink:href="#e" transform="translate(-130 -3519)"/>
  <use fill="#00C696" xlink:href="#f" transform="translate(-130 -3519)"/>
</svg>
