<?xml version="1.0" standalone="no"?>
<!DOCTYPE svg PUBLIC "-//W3C//DTD SVG 20010904//EN"
 "http://www.w3.org/TR/2001/REC-SVG-20010904/DTD/svg10.dtd">
<svg version="1.0" xmlns="http://www.w3.org/2000/svg"
 width="512.000000pt" height="512.000000pt" viewBox="0 0 512.000000 512.000000"
 preserveAspectRatio="xMidYMid meet">

<g transform="translate(0.000000,512.000000) scale(0.100000,-0.100000)"
fill="#000000" stroke="none">
<path d="M349 5091 c-41 -41 -41 -107 -1 -150 38 -42 1085 -461 1150 -461 63
0 102 40 102 105 0 37 -5 52 -27 74 -40 39 -1095 461 -1153 461 -33 0 -48 -6
-71 -29z"/>
<path d="M2365 5101 c-134 -36 -204 -71 -311 -152 -46 -36 -56 -39 -112 -39
l-62 0 0 -73 c0 -64 -4 -81 -34 -137 -71 -134 -82 -195 -131 -754 -25 -281
-45 -514 -45 -518 0 -5 -43 -8 -96 -8 -114 0 -155 -15 -179 -66 -22 -46 -11
-97 27 -129 27 -23 38 -25 129 -25 54 0 99 -1 99 -3 0 -1 -11 -131 -25 -287
-14 -157 -66 -753 -115 -1325 -50 -572 -99 -1140 -110 -1263 -18 -194 -18
-226 -6 -256 30 -71 -62 -66 1166 -66 1227 0 1136 -5 1166 66 12 30 8 96 -36
601 -27 312 -86 987 -130 1498 -44 512 -83 954 -86 983 l-6 52 100 0 c93 0
103 2 130 25 38 32 49 83 27 129 -24 51 -65 66 -179 66 -53 0 -96 3 -96 8 0 4
-20 237 -45 518 -49 559 -60 620 -131 754 -30 56 -34 73 -34 137 l0 73 -62 0
c-57 0 -67 4 -108 36 -76 61 -153 102 -251 135 -86 29 -107 33 -239 36 -119 2
-157 0 -215 -16z m57 -650 l33 -29 0 -262 0 -262 -33 -29 c-46 -41 -111 -41
-153 0 l-29 29 0 262 0 262 29 29 c42 41 107 41 153 0z m429 0 l29 -29 0 -262
0 -262 -29 -29 c-42 -41 -107 -41 -153 0 l-33 29 0 262 0 262 33 29 c46 41
111 41 153 0z m408 -1403 c7 -84 15 -179 18 -210 l6 -58 -723 0 -723 0 6 63
c4 34 12 128 19 210 l12 147 686 0 687 0 12 -152z m114 -1320 c10 -106 17
-201 17 -210 0 -17 -46 -18 -830 -18 -784 0 -830 1 -830 18 0 9 7 104 17 210
l17 192 796 0 796 0 17 -192z m97 -1105 c0 -10 7 -90 15 -178 8 -88 15 -175
15 -192 l0 -33 -940 0 -940 0 0 33 c0 17 7 104 15 192 8 88 15 168 15 178 0
16 50 17 910 17 860 0 910 -1 910 -17z"/>
<path d="M4105 4900 c-404 -164 -546 -225 -562 -245 -35 -40 -32 -108 6 -146
54 -53 61 -51 656 187 297 119 550 225 563 237 47 43 45 122 -3 165 -53 45
-75 39 -660 -198z"/>
<path d="M794 4251 c-20 -12 -37 -34 -44 -55 -16 -49 2 -101 44 -127 29 -18
54 -19 379 -19 362 0 375 1 409 44 23 28 23 104 0 132 -34 43 -47 44 -409 44
-325 0 -350 -1 -379 -19z"/>
<path d="M3575 4258 c-37 -20 -55 -51 -55 -98 0 -48 18 -79 57 -99 15 -7 133
-11 370 -11 325 0 350 1 379 19 66 40 66 142 0 182 -29 18 -53 19 -381 19
-235 -1 -357 -4 -370 -12z"/>
<path d="M905 3610 c-341 -147 -540 -238 -558 -255 -22 -21 -27 -35 -27 -73 1
-68 42 -112 106 -112 16 0 271 104 569 231 594 253 595 254 595 333 0 35 -6
50 -29 75 -55 59 -63 56 -656 -199z"/>
<path d="M3559 3811 c-24 -24 -29 -38 -29 -75 0 -81 -1 -81 595 -335 298 -127
553 -231 569 -231 64 0 105 44 106 112 0 38 -5 52 -27 73 -18 18 -217 108
-563 256 -591 253 -596 255 -651 200z"/>
</g>
</svg>
