<svg id="Layer_1" data-name="Layer 1" xmlns="http://www.w3.org/2000/svg" viewBox="0 0 225.409 65.973">
  <title>nav_logo_color</title>
  <path d="M170.285,31.858l3.651,5.455c.524.781.959,1.394,1.3,1.848a5.606,5.606,0,0,0,.953,1.043,2.543,2.543,0,0,0,.857.48,4.052,4.052,0,0,0,1,.139v.461h-7.289v-.461a2.215,2.215,0,0,0,1.361-.319,1.082,1.082,0,0,0,.326-.844.886.886,0,0,0-.018-.18,1.131,1.131,0,0,0-.1-.242,3.671,3.671,0,0,0-.256-.4c-.109-.16-.257-.384-.429-.659l-2.9-4.367-3.587,4.578c-.2.25-.352.448-.454.594a3.04,3.04,0,0,0-.237.377.717.717,0,0,0-.082.263c-.007.076-.014.159-.014.242a.805.805,0,0,0,.339.659,2.416,2.416,0,0,0,1.291.3v.461h-6.023v-.461a4,4,0,0,0,1.158-.242,5.015,5.015,0,0,0,1.042-.557,6.147,6.147,0,0,0,.978-.863c.326-.338.665-.735,1.01-1.17l4.016-5.084-3.351-4.918a17.969,17.969,0,0,0-1.24-1.636,5.61,5.61,0,0,0-1.069-.979,3.568,3.568,0,0,0-1.035-.485,5.786,5.786,0,0,0-1.163-.18V24.25h7.864v.459a2.528,2.528,0,0,0-1.368.327.823.823,0,0,0-.371.652,2.831,2.831,0,0,0,.595,1.35l2.622,3.919,3.017-3.843c.192-.243.333-.429.436-.576a3.033,3.033,0,0,0,.224-.357.838.838,0,0,0,.095-.25,1.6,1.6,0,0,0,.019-.262.733.733,0,0,0-.4-.735,4.179,4.179,0,0,0-1.414-.225V24.25h6.024v.459a3.707,3.707,0,0,0-1.394.32,4.351,4.351,0,0,0-1.017.692,14.459,14.459,0,0,0-1.6,1.8ZM142.592,25.17v6.753h3.727a4.982,4.982,0,0,0,1.33-.147,1.854,1.854,0,0,0,.8-.448,1.638,1.638,0,0,0,.4-.761,6.918,6.918,0,0,0,.147-1.1h.46v5.908H149a10.929,10.929,0,0,0-.218-1.222,1.711,1.711,0,0,0-.389-.773,1.53,1.53,0,0,0-.761-.416,5.542,5.542,0,0,0-1.312-.121h-3.727v5.627c0,.422.006.76.019,1.009a1.227,1.227,0,0,0,.146.577.644.644,0,0,0,.417.249,4.412,4.412,0,0,0,.824.057h2.884c.486,0,.895-.012,1.234-.038a4.376,4.376,0,0,0,.87-.146,2.227,2.227,0,0,0,.645-.315,5.573,5.573,0,0,0,.6-.5,9.653,9.653,0,0,0,1.592-2.358h.511l-1.5,4.277H137.757v-.461h.595a2.423,2.423,0,0,0,.5-.056,2.707,2.707,0,0,0,.493-.161,1.66,1.66,0,0,0,.415-.268.94.94,0,0,0,.262-.4,5.965,5.965,0,0,0,.148-1.649V27.223a3.788,3.788,0,0,0-.314-2.008,1.924,1.924,0,0,0-1.509-.506h-.595V24.25H150.84v3.721h-.307a8.788,8.788,0,0,0-.4-1.477,2.081,2.081,0,0,0-.569-.857,1.816,1.816,0,0,0-.909-.384,9.489,9.489,0,0,0-1.406-.083ZM129.4,36.584l.409.077-1.458,4.623h-13.2v-.461h.659a1.74,1.74,0,0,0,1.535-.7,4.115,4.115,0,0,0,.263-1.855V27.261a3.5,3.5,0,0,0-.359-1.989,1.784,1.784,0,0,0-1.439-.563h-.659V24.25h7.712v.459a8.378,8.378,0,0,0-1.151.064,3.19,3.19,0,0,0-.754.193,1.329,1.329,0,0,0-.467.287,1.769,1.769,0,0,0-.281.378,5.856,5.856,0,0,0-.185,1.93V38.279a4.3,4.3,0,0,0,.134,1.273.826.826,0,0,0,.523.543,9.16,9.16,0,0,0,1.964.115h1.241a9.343,9.343,0,0,0,2.756-.281,2.971,2.971,0,0,0,.748-.377,3.546,3.546,0,0,0,.691-.641,5.59,5.59,0,0,0,.658-.958A12.892,12.892,0,0,0,129.4,36.584ZM97.45,25.17v6.753h3.727a4.992,4.992,0,0,0,1.33-.147,1.854,1.854,0,0,0,.8-.448,1.637,1.637,0,0,0,.4-.761,6.8,6.8,0,0,0,.147-1.1h.461v5.908h-.461a10.955,10.955,0,0,0-.217-1.222,1.711,1.711,0,0,0-.389-.773,1.529,1.529,0,0,0-.762-.416,5.532,5.532,0,0,0-1.311-.121H97.45v5.627c0,.422.006.76.019,1.009a1.215,1.215,0,0,0,.146.577.644.644,0,0,0,.416.249,4.431,4.431,0,0,0,.825.057h2.884c.486,0,.9-.012,1.234-.038a4.376,4.376,0,0,0,.87-.146,2.24,2.24,0,0,0,.645-.315,5.573,5.573,0,0,0,.6-.5,9.625,9.625,0,0,0,1.592-2.358h.511l-1.5,4.277H92.615v-.461h.595a2.423,2.423,0,0,0,.505-.056,2.672,2.672,0,0,0,.492-.161,1.666,1.666,0,0,0,.416-.268.949.949,0,0,0,.262-.4,5.965,5.965,0,0,0,.148-1.649V27.223a3.785,3.785,0,0,0-.315-2.008,1.923,1.923,0,0,0-1.508-.506h-.595V24.25H105.7v3.721h-.306a8.873,8.873,0,0,0-.4-1.477,2.073,2.073,0,0,0-.57-.857,1.809,1.809,0,0,0-.908-.384,9.489,9.489,0,0,0-1.406-.083Zm-13.057-.92v3.989h-.269a3.532,3.532,0,0,0-.946-2.257A3.175,3.175,0,0,0,81,25.323H78.6V38.35a5.915,5.915,0,0,0,.121,1.362,1.633,1.633,0,0,0,.352.734,1.015,1.015,0,0,0,.563.315,4.279,4.279,0,0,0,.8.062h.582v.461H73.765v-.461h.6a3.577,3.577,0,0,0,.787-.076,1.06,1.06,0,0,0,.562-.326,1.77,1.77,0,0,0,.346-.742,5.576,5.576,0,0,0,.122-1.329V25.323h-2.04a6.524,6.524,0,0,0-1.356.122,2.428,2.428,0,0,0-1.023.448,2.194,2.194,0,0,0-.684.888,4.348,4.348,0,0,0-.307,1.458h-.461V24.25Z" fill="#323540" fill-rule="evenodd"/>
  <path d="M223.567,40.823v.461h-7.252v-.461h.595a4.261,4.261,0,0,0,.793-.062,1.013,1.013,0,0,0,.563-.321,1.706,1.706,0,0,0,.345-.767,6.282,6.282,0,0,0,.121-1.4V27.261c0-.39,0-.709-.026-.965a3.3,3.3,0,0,0-.095-.627.992.992,0,0,0-.191-.391,1.8,1.8,0,0,0-.358-.267,2.414,2.414,0,0,0-1.152-.3h-.595V24.25h7.252v.459h-.594a3.679,3.679,0,0,0-.794.077,1.046,1.046,0,0,0-.562.327,1.67,1.67,0,0,0-.346.768,6.09,6.09,0,0,0-.121,1.38V38.272c0,.4.006.722.019.979a2.769,2.769,0,0,0,.09.613.909.909,0,0,0,.217.39,1.735,1.735,0,0,0,.365.269,2.224,2.224,0,0,0,1.132.3Zm-21.92-6.177-2.883-6.905-2.96,6.905Zm.359.921h-6.6L194.25,38.26a4.464,4.464,0,0,0-.417,1.489,1.052,1.052,0,0,0,.064.378.708.708,0,0,0,.282.313,2.259,2.259,0,0,0,.594.244,5.18,5.18,0,0,0,1.018.139v.461h-5.372v-.461a3.547,3.547,0,0,0,1.036-.281,2.041,2.041,0,0,0,.685-.518,3.635,3.635,0,0,0,.517-.85c.154-.351.346-.781.575-1.3l5.992-14.01h.435l5.928,14.163a10.276,10.276,0,0,0,.665,1.413,3.4,3.4,0,0,0,.632.838,1.807,1.807,0,0,0,.718.409,3.59,3.59,0,0,0,.925.134v.461h-6.714v-.461a2.375,2.375,0,0,0,1.363-.332.868.868,0,0,0,.365-.7,6.193,6.193,0,0,0-.5-1.771Z" fill="#0dbaae" fill-rule="evenodd"/>
  <path d="M17.938,32.626h0a1.56,1.56,0,1,1-1.56,1.56,1.565,1.565,0,0,1,1.56-1.56m0-2.19h0a3.75,3.75,0,1,1-3.749,3.75A3.762,3.762,0,0,1,17.938,30.436Z" fill="#0dbaae" fill-rule="evenodd"/>
  <path d="M30.6,30.436h0a3.75,3.75,0,1,1-3.75,3.75,3.761,3.761,0,0,1,3.75-3.75" fill="#323540" fill-rule="evenodd"/>
  <path d="M43.27,32.626h0a1.56,1.56,0,1,1-1.561,1.56,1.565,1.565,0,0,1,1.561-1.56m0-2.19h0a3.75,3.75,0,1,1-3.75,3.75A3.761,3.761,0,0,1,43.27,30.436Z" fill="#0dbaae" fill-rule="evenodd"/>
  <path d="M34.187,48.887H48.963a4.877,4.877,0,0,0,4.85-4.851v-19.7a4.877,4.877,0,0,0-4.85-4.851H12.246A4.878,4.878,0,0,0,7.4,24.336v19.7a4.878,4.878,0,0,0,4.851,4.851h5V54.4l8.264-5.509h8.679Zm14.776-34.4a9.878,9.878,0,0,1,9.849,9.85v19.7a9.879,9.879,0,0,1-9.849,9.851H27.021l-14.775,9.85v-9.85A9.88,9.88,0,0,1,2.4,44.036v-19.7a9.879,9.879,0,0,1,9.851-9.85h8.359v-5H22.48v-2.5h1.249v2.5H25.6v5h2.5v-7.5h1.875v-2.5h1.25v2.5H33.1v7.5h2.5v-10h1.876v-2.5h1.249v2.5H40.6v10Z" fill="#0dbaae" fill-rule="evenodd"/>
</svg>
