<?xml version="1.0" standalone="no"?>
<!DOCTYPE svg PUBLIC "-//W3C//DTD SVG 20010904//EN"
 "http://www.w3.org/TR/2001/REC-SVG-20010904/DTD/svg10.dtd">
<svg version="1.0" xmlns="http://www.w3.org/2000/svg"
 width="225.000000pt" height="225.000000pt" viewBox="0 0 225.000000 225.000000"
 preserveAspectRatio="xMidYMid meet">

<g transform="translate(0.000000,225.000000) scale(0.100000,-0.100000)"
fill="#000000" stroke="none">
<path d="M1030 2240 c-615 -49 -1081 -603 -1021 -1214 49 -504 415 -907 909
-1002 99 -19 318 -18 422 2 451 85 811 455 891 914 17 100 15 286 -6 394 -74
399 -368 733 -755 859 -132 43 -283 59 -440 47z m342 -129 c437 -115 739 -482
765 -932 24 -422 -225 -823 -614 -989 -136 -57 -230 -75 -403 -74 -133 1 -169
5 -251 27 -176 46 -309 120 -438 242 -215 204 -321 452 -321 749 1 481 327
883 800 987 114 25 348 20 462 -10z"/>
<path d="M930 2045 c-288 -64 -522 -247 -650 -510 -70 -142 -94 -248 -94 -410
0 -163 25 -269 94 -411 145 -298 413 -485 748 -524 417 -49 827 205 977 604
42 112 58 200 57 331 0 261 -96 488 -284 672 -120 117 -252 193 -414 239 -82
23 -346 29 -434 9z m538 -231 c273 -133 453 -445 428 -745 -6 -76 -30 -176
-46 -193 -5 -5 -47 13 -97 41 l-88 48 0 135 c-1 74 -5 144 -10 156 -9 20 -24
13 -278 -138 -148 -88 -270 -158 -272 -156 -20 20 -133 224 -127 229 4 4 125
77 270 162 l263 155 -33 32 c-31 29 -107 71 -189 103 -35 14 -36 17 -42 77 -9
78 -9 155 -1 162 10 11 147 -31 222 -68z m-478 -48 l0 -113 -57 -21 c-305
-111 -440 -466 -291 -764 63 -124 212 -238 359 -273 164 -38 336 3 477 114 28
23 54 41 57 41 15 0 185 -103 185 -111 0 -18 -112 -123 -175 -164 -33 -22 -98
-54 -145 -72 -230 -86 -464 -66 -672 57 -89 53 -210 173 -262 257 -184 306
-139 700 110 948 94 94 218 168 338 200 81 22 76 28 76 -99z"/>
</g>
</svg>
