<?xml version="1.0" encoding="utf-8"?>
<!-- Generator: Adobe Illustrator 23.0.2, SVG Export Plug-In . SVG Version: 6.00 Build 0)  -->
<svg version="1.1" id="tomo" xmlns="http://www.w3.org/2000/svg" xmlns:xlink="http://www.w3.org/1999/xlink" x="0px" y="0px"
	 viewBox="0 0 500 500" style="enable-background:new 0 0 500 500;" xml:space="preserve">
<style type="text/css">
	.st0{fill:url(#SVGID_1_);}
	.st1{fill:url(#SVGID_2_);}
	.st2{fill:url(#SVGID_3_);}
</style>
<linearGradient id="SVGID_1_" gradientUnits="userSpaceOnUse" x1="40.711" y1="122.754" x2="465.7135" y2="368.1293">
	<stop  offset="0" style="stop-color:#F37151"/>
	<stop  offset="1" style="stop-color:#FFCC4B"/>
</linearGradient>
<path class="st0" d="M493.6,282.2c-6.3,47.6-24.9,89.7-55.9,126.2c-37.2,43.7-84.2,71.5-140.6,82.9c-32.4,6.6-64.9,6.1-97.2-0.6
	c-5.4-1.1-10.1-3.7-10.5-9.4c-0.2-3.7,1.3-8.1,3.6-11.2c2.8-3.9,7.6-3.1,12-2.2c50.4,10.2,99.2,4.9,144.9-18.8
	c69.9-36.2,111.2-94,121.4-172.2c15.4-118.3-69.6-228.9-187.8-246.2C161.4,13,48.6,96.7,30.4,218.5c-4.7,31.2-2.5,62.2,6.1,92.6
	c2.7,9.7-3.3,17.5-12.6,16.3c-5.6-0.7-8.5-4.3-10-9.5c-13.4-47.4-14-95,2.2-141.4c34.5-98.5,104-157,207.6-169.9
	C344.1-8.3,456.4,70,487.4,187.3c4.3,16.3,7.2,36.6,8,54.6C495.6,243.5,496.3,268,493.6,282.2z"/>
<linearGradient id="SVGID_2_" gradientUnits="userSpaceOnUse" x1="89.1778" y1="157.3578" x2="409.615" y2="342.3622">
	<stop  offset="0" style="stop-color:#F37151"/>
	<stop  offset="1" style="stop-color:#FFCC4B"/>
</linearGradient>
<path class="st1" d="M254.4,66.3c59.1,1.9,109.5,27.8,146.7,78.9c5.3,7.3,4.1,14.1-2.9,18.3c-5.9,3.5-11.1,2.3-15.4-3.8
	c-16.3-23.4-37.2-41.4-62.8-53.8c-71.3-34.6-162.8-11.4-203.6,53.6c-64.5,102.7-6.3,227.1,104.1,248.9
	c83.4,16.4,166.8-37.8,186.3-121.4c2.3-10,9-10.8,16.6-9.2c5.6,1.2,7.8,6.8,6.1,13.9c-6,26.1-17.1,49.9-33.7,71
	c-32.5,41.3-75,65.1-127.3,70.9C175.6,443.8,86.1,378.5,70,286c-13.3-76.3,9.5-140.6,73.5-187C175,76,211.7,67,254.4,66.3z"/>
<linearGradient id="SVGID_3_" gradientUnits="userSpaceOnUse" x1="151.8538" y1="200.0036" x2="322.4159" y2="298.4777">
	<stop  offset="0" style="stop-color:#F37151"/>
	<stop  offset="1" style="stop-color:#FFCC4B"/>
</linearGradient>
<path class="st2" d="M188.6,209.2c-7.8,0-15.1,0.2-22.3,0c-9.3-0.3-14.9-10.3-9.5-17.5c2.2-2.9,6.7-5.1,10.4-5.5
	c6.7-0.9,13.7-0.2,21.5-0.2c0-7-0.1-13.6,0-20.2c0.1-7.5,4.7-13,11.4-13.8c8.3-1,15.1,4.6,15.3,13c0.2,6.4,0.3,21,0.3,21
	s54.9,0.1,79.5,0.1c5.6,0,9.8,2.4,11.9,7.7c1.8,4.8,0.3,10.5-4,13.1c-2.4,1.5-5.5,2.3-8.4,2.3c-24.3,0.2-79.1,0.2-79.1,0.2
	s-0.3,49.4-0.1,71.2c0.1,17.6,8.1,30.7,24.2,38.1c15.9,7.3,30.6,4.4,44.3-6.5c3.3-2.7,8.1-4.7,12.3-4.9c5.2-0.3,9.3,3.3,10.9,8.5
	c1.7,5.5,0.5,10.5-3.8,14.7c-25.1,24.3-65.9,25-91.9,1.4c-15-13.6-22.5-30.6-22.6-50.7C188.5,259.3,188.6,211.9,188.6,209.2z"/>
</svg>
