<?xml version="1.0" encoding="UTF-8"?>
<svg width="400px" height="96px" viewBox="0 0 400 96" version="1.1" xmlns="http://www.w3.org/2000/svg" xmlns:xlink="http://www.w3.org/1999/xlink">
    <!-- Generator: Sketch 49.1 (51147) - http://www.bohemiancoding.com/sketch -->
    <title>OriginTrail Logo</title>
    <desc>Created with Sketch.</desc>
    <defs>
        <path d="M15.535,66.705 C5.98,66.705 0,59.295 0,50.195 C0,41.095 5.98,33.75 15.535,33.75 C25.09,33.75 31.07,41.095 31.07,50.195 C31.07,59.295 25.09,66.705 15.535,66.705 Z M15.535,62.35 C22.23,62.35 25.935,56.63 25.935,50.195 C25.935,43.825 22.23,38.105 15.535,38.105 C8.84,38.105 5.135,43.825 5.135,50.195 C5.135,56.63 8.84,62.35 15.535,62.35 Z M43.875,65.925 L43.875,43.695 C45.305,41.16 49.4,38.69 52.455,38.69 C53.17,38.69 53.755,38.755 54.34,38.82 L54.34,33.815 C50.05,33.815 46.41,36.285 43.875,39.535 L43.875,34.53 L39,34.53 L39,65.925 L43.875,65.925 Z M62.92,30.045 C64.74,30.045 66.17,28.615 66.17,26.795 C66.17,24.975 64.74,23.48 62.92,23.48 C61.1,23.48 59.605,24.975 59.605,26.795 C59.605,28.615 61.1,30.045 62.92,30.045 Z M65.325,65.925 L65.325,34.53 L60.45,34.53 L60.45,65.925 L65.325,65.925 Z M87.685,78.665 C82.42,78.665 78.78,77.625 75.01,73.92 L77.48,70.41 C80.08,73.465 83.2,74.635 87.685,74.635 C92.885,74.635 97.825,72.1 97.825,65.47 L97.825,60.725 C95.485,63.91 91.65,66.315 87.23,66.315 C79.04,66.315 73.255,60.205 73.255,50.065 C73.255,39.99 78.975,33.75 87.23,33.75 C91.455,33.75 95.29,35.83 97.825,39.275 L97.825,34.53 L102.7,34.53 L102.7,65.47 C102.7,75.415 95.355,78.665 87.685,78.665 Z M88.465,61.96 C92.3,61.96 96.07,59.62 97.825,56.89 L97.825,43.11 C96.07,40.445 92.3,38.105 88.465,38.105 C82.095,38.105 78.325,43.11 78.325,50.065 C78.325,56.955 82.095,61.96 88.465,61.96 Z M114.92,30.045 C116.74,30.045 118.17,28.615 118.17,26.795 C118.17,24.975 116.74,23.48 114.92,23.48 C113.1,23.48 111.605,24.975 111.605,26.795 C111.605,28.615 113.1,30.045 114.92,30.045 Z M117.325,65.925 L117.325,34.53 L112.45,34.53 L112.45,65.925 L117.325,65.925 Z M153.14,65.925 L153.14,43.89 C153.14,37.065 149.695,33.75 143.195,33.75 C138.45,33.75 134.16,36.415 131.95,39.08 L131.95,34.53 L127.075,34.53 L127.075,65.925 L131.95,65.925 L131.95,42.98 C133.835,40.445 137.41,38.105 141.245,38.105 C145.47,38.105 148.33,39.795 148.33,45.385 L148.33,65.925 L153.14,65.925 Z M172.705,66.705 C176.15,66.705 178.36,65.795 179.595,64.69 L177.84,58.385 C177.385,58.905 176.215,59.36 174.98,59.36 C173.16,59.36 172.12,57.865 172.12,55.85 L172.12,41.745 L178.49,41.745 L178.49,34.53 L172.12,34.53 L172.12,25.95 L163.865,25.95 L163.865,34.53 L158.665,34.53 L158.665,41.745 L163.865,41.745 L163.865,58.06 C163.865,63.715 166.92,66.705 172.705,66.705 Z M192.4,65.925 L192.4,45.19 C193.765,43.175 197.405,41.615 200.135,41.615 C201.11,41.615 201.825,41.68 202.41,41.81 L202.41,33.75 C198.51,33.75 194.675,36.025 192.4,38.755 L192.4,34.53 L184.145,34.53 L184.145,65.925 L192.4,65.925 Z M237.445,65.925 L229.125,65.925 L229.125,61.895 C226.655,65.015 223.275,66.705 219.44,66.705 C211.575,66.705 205.53,60.725 205.53,50.195 C205.53,39.99 211.445,33.75 219.44,33.75 C223.145,33.75 226.59,35.31 229.125,38.56 L229.125,34.53 L237.445,34.53 L237.445,65.925 Z M222.04,59.36 C224.77,59.36 227.76,57.865 229.125,55.785 L229.125,44.735 C227.76,42.655 224.77,41.095 222.04,41.095 C217.295,41.095 214.045,44.8 214.045,50.195 C214.045,55.655 217.295,59.36 222.04,59.36 Z M249.73,31.15 C252.46,31.15 254.67,28.94 254.67,26.21 C254.67,23.48 252.46,21.335 249.73,21.335 C247.065,21.335 244.855,23.48 244.855,26.21 C244.855,28.94 247.065,31.15 249.73,31.15 Z M253.89,65.925 L253.89,34.53 L245.635,34.53 L245.635,65.925 L253.89,65.925 Z M270.92,66.705 C274.3,66.705 276.575,65.795 277.81,64.69 L276.055,58.385 C275.6,58.905 274.43,59.36 273.195,59.36 C271.375,59.36 270.335,57.865 270.335,55.85 L270.335,22.57 L262.08,22.57 L262.08,58.06 C262.08,63.715 265.135,66.705 270.92,66.705 Z" id="path-1"></path>
        <linearGradient x1="39.7533067%" y1="68.1303798%" x2="50%" y2="50%" id="linearGradient-3">
            <stop stop-color="#FFFFFF" offset="0%"></stop>
            <stop stop-color="#F6FAF9" stop-opacity="0.0691519475" offset="100%"></stop>
        </linearGradient>
        <linearGradient x1="37.5854704%" y1="86.5758002%" x2="43.9221389%" y2="50%" id="linearGradient-4">
            <stop stop-color="#FFFFFF" offset="0%"></stop>
            <stop stop-color="#F6FAF9" stop-opacity="0.0691519475" offset="100%"></stop>
        </linearGradient>
        <linearGradient x1="57.2918265%" y1="91.2106311%" x2="50%" y2="50%" id="linearGradient-5">
            <stop stop-color="#FFFFFF" offset="0%"></stop>
            <stop stop-color="#F6FAF9" stop-opacity="0.0691519475" offset="100%"></stop>
        </linearGradient>
        <linearGradient x1="85.2156541%" y1="71.7399706%" x2="31.9580902%" y2="42.2250208%" id="linearGradient-6">
            <stop stop-color="#FFFFFF" offset="0%"></stop>
            <stop stop-color="#F6FAF9" stop-opacity="0.0691519475" offset="100%"></stop>
        </linearGradient>
        <path d="M23.8887619,48 C23.8887619,61.3152653 34.6847347,72.1094966 48,72.1094966 C55.4011429,72.1094966 62.0220952,68.7734422 66.4446259,63.5243537 L84.6985578,78.8884898 C75.8989932,89.3324626 62.7254422,95.9701769 48,95.9701769 C21.5059592,95.9701769 0.0298231293,74.492517 0.0298231293,48 C0.0298231293,21.5059592 21.5059592,0.0298231293 48,0.0298231293 L48,23.8887619 C34.6847347,23.8887619 23.8887619,34.6829932 23.8887619,48 Z M68.832566,60.1405388 C69.5361306,58.9360762 70.1386884,57.6654367 70.6273959,56.3397224 L93.0213007,64.5933279 C92.0486748,67.2312599 90.8494367,69.7590422 89.4499265,72.1555592 L68.832566,60.1405388 Z M72.1094966,47.9999782 C72.1094966,46.5717333 71.9845442,45.1728762 71.7463946,43.8127673 L95.2474558,39.6688762 C95.7213605,42.3749442 95.9701769,45.1582912 95.9701769,47.9999782 L72.1094966,47.9999782 Z M66.5332463,32.5790476 C65.6350694,31.5006259 64.6441578,30.5025306 63.5735728,29.5954286 L78.9849469,11.3824218 C81.1154503,13.1870476 83.0868245,15.1727891 84.8740354,17.3183129 L66.5332463,32.5790476 Z" id="path-7"></path>
    </defs>
    <g id="OriginTrail-Logo" stroke="none" stroke-width="1" fill="none" fill-rule="evenodd">
        <g id="Brand/Logo">
            <g id="Brand/Logotype---Trail-Bold" transform="translate(120.000000, 0.000000)">
                <mask id="mask-2" fill="white">
                    <use xlink:href="#path-1"></use>
                </mask>
                <use id="Mask" fill="#AEAEAE" fill-rule="evenodd" xlink:href="#path-1"></use>
                <g id="Mixin/Fill/#white" mask="url(#mask-2)" fill="#FFFFFF" fill-rule="evenodd">
                    <rect id="Box" x="0" y="0" width="280" height="96"></rect>
                </g>
            </g>
            <g id="Brand/Logomark/White---Gradient">
                <path d="M66.4143968,63.3927835 L84.7148002,78.748036 L84.7142529,78.7488177 L84.7148639,78.7480895 L84.735,78.764985 L84.9101388,78.5138426 C86.5931602,76.4817864 88.1051083,74.3137731 89.4303855,72.0319793 L89.505,71.924985 L68.8029259,59.9762879 C68.1052181,61.1856017 67.3050912,62.328384 66.4143968,63.3927835 Z" id="Combined-Shape" fill="url(#linearGradient-3)" fill-rule="evenodd" opacity="0.3"></path>
                <path d="M83.4002046,54.2664825 L71.6358927,52.1877836 C71.8735199,50.8373947 71.9982477,49.4480971 71.9999817,48.029985 L95.94,48.029985 L95.8917424,48.5879629 C95.863979,50.9655912 95.6587953,53.3377908 95.2779626,55.6847919 L95.22,56.354985 L95.044541,57.0056456 C94.5987855,59.3367808 93.9799699,61.6315428 93.1932435,63.8708735 L93.06,64.364985 L93.0216625,64.3510545 L93.0129085,64.3751267 L93.019563,64.3502917 L70.5657803,56.1914097 C71.0330025,54.9045849 71.3932873,53.5664622 71.6358927,52.1877836 L83.4002046,54.2664825 Z" id="Combined-Shape" fill="url(#linearGradient-4)" fill-rule="evenodd" opacity="0.3"></path>
                <path d="M89.505,24.134985 L89.5616652,24.2554881 C90.8484132,26.4992486 91.9507815,28.8436318 92.8580267,31.2654721 L93.06,31.694985 L93.1901144,32.1802032 C93.9942472,34.4675834 94.6231267,36.8128416 95.0713488,39.1956397 L95.22,39.749985 L71.6498295,43.8922117 C71.4104426,42.5042289 71.0518428,41.1570483 70.5849538,39.8615934 L81.802255,35.7856371 L70.5849538,39.8615934 C70.1084877,38.5395657 69.5192443,37.2714077 68.8288333,36.068729 C68.1327172,34.8561123 67.3337547,33.7100615 66.4438458,32.6424768 L84.7147935,17.3119396 L84.7142623,17.311181 L84.7148553,17.3118877 L84.735,17.294985 L84.9101972,17.5462111 C86.5932272,19.5782523 88.1051377,21.7462778 89.4304243,24.0280463 L89.505,24.134985 Z" id="Combined-Shape" fill="url(#linearGradient-5)" fill-rule="evenodd" opacity="0.3"></path>
                <path d="M54.3576445,12.6771952 L52.2875054,24.3818732 C50.9296081,24.136989 49.5320038,24.0063371 48.105,24.0002248 L48.105,0.239996768 C50.8553508,0.240000033 53.6005098,0.477445845 56.309904,0.949598318 L56.43,0.959985 L56.5491738,0.991942207 C59.1963889,1.46716541 61.7987723,2.16503002 64.3286085,3.07804761 L64.485,3.119985 L64.6326217,3.18893392 C67.1398749,4.1130639 69.5652325,5.24588088 71.8831998,6.57543161 L72,6.629985 L72.1068556,6.7045027 C74.3887497,8.02982783 76.5568544,9.54183962 78.5889902,11.2249387 L78.84,11.399985 L78.823111,11.4201091 L78.8238247,11.4207079 L78.8230609,11.4201731 L63.5031183,29.678494 C62.4409709,28.7788347 61.2995544,27.9698769 60.0908275,27.2635795 C58.8982686,26.5667295 57.640188,25.9698119 56.3280711,25.4843121 L60.4036731,14.3099968 L56.3280711,25.4843121 C55.0303678,25.0041454 53.679809,24.6329621 52.2875054,24.3818732 L54.3576445,12.6771952 Z" id="Combined-Shape" fill="url(#linearGradient-6)" fill-rule="evenodd" opacity="0.3"></path>
                <mask id="mask-8" fill="white">
                    <use xlink:href="#path-7"></use>
                </mask>
                <use id="Mask" fill="#FFFFFF" fill-rule="evenodd" xlink:href="#path-7"></use>
            </g>
        </g>
    </g>
</svg>