<?xml version="1.0" standalone="no"?>
<!DOCTYPE svg PUBLIC "-//W3C//DTD SVG 20010904//EN"
 "http://www.w3.org/TR/2001/REC-SVG-20010904/DTD/svg10.dtd">
<svg version="1.0" xmlns="http://www.w3.org/2000/svg"
 width="640.000000pt" height="640.000000pt" viewBox="0 0 640.000000 640.000000"
 preserveAspectRatio="xMidYMid meet">

<g transform="translate(0.000000,640.000000) scale(0.100000,-0.100000)"
fill="#000000" stroke="none">
<path d="M2984 6060 c-748 -73 -1405 -432 -1868 -1020 l-66 -85 82 -17 c88
-17 159 -42 245 -85 l52 -26 28 34 c58 72 242 254 318 316 633 511 1460 649
2225 371 267 -97 560 -280 760 -473 79 -76 165 -167 207 -219 l31 -38 43 25
c65 38 144 68 242 91 l88 21 -73 95 c-94 124 -336 364 -465 463 -372 283 -786
459 -1243 527 -155 24 -465 34 -606 20z"/>
<path d="M3045 5574 c-389 -38 -721 -153 -1031 -360 -180 -120 -323 -248 -472
-426 -13 -16 -8 -24 57 -88 39 -39 78 -82 87 -95 l16 -25 35 43 c73 89 232
242 318 307 350 264 727 391 1155 391 311 0 567 -59 840 -193 218 -107 432
-270 581 -441 40 -45 75 -86 79 -90 4 -5 48 33 99 84 l91 92 -61 68 c-346 390
-834 654 -1331 719 -87 11 -394 21 -463 14z"/>
<path d="M875 4863 c-210 -19 -412 -124 -550 -285 -286 -332 -268 -823 41
-1132 316 -316 834 -324 1157 -17 106 100 170 201 216 337 l30 89 233 3 233 2
0 175 0 175 -233 2 -234 3 -22 70 c-45 141 -104 236 -216 345 -115 112 -269
195 -406 219 -74 12 -196 19 -249 14z m260 -305 c103 -41 145 -67 211 -134
168 -171 208 -414 105 -629 -91 -186 -261 -300 -466 -312 -257 -15 -484 144
-560 393 -112 363 168 725 550 710 76 -3 115 -10 160 -28z"/>
<path d="M1029 4465 c23 -10 31 -20 27 -30 -3 -9 0 -15 10 -15 19 0 94 -48 94
-60 0 -6 -12 -8 -27 -5 -26 6 -26 5 -10 -8 21 -18 22 -27 1 -27 -18 0 -53 -38
-54 -59 0 -8 -7 -22 -15 -31 -12 -13 -13 -23 -4 -48 6 -17 17 -33 25 -36 8 -3
14 -10 14 -15 0 -20 -48 14 -58 41 -9 25 -15 28 -49 27 -58 -3 -75 -15 -71
-51 4 -39 34 -61 49 -35 16 27 42 22 35 -7 -4 -18 -1 -25 14 -29 11 -3 20 -14
20 -24 0 -10 5 -24 12 -31 23 -23 0 -22 -28 1 -36 30 -88 57 -109 57 -26 0
-75 33 -75 50 0 8 -9 26 -20 40 -16 20 -19 21 -13 5 6 -18 5 -18 -10 -6 -9 7
-19 28 -23 47 -3 19 -10 37 -15 40 -14 8 -11 48 6 70 8 10 15 35 15 55 0 32
-3 37 -27 42 -52 10 -157 -91 -207 -197 -27 -58 -46 -139 -46 -195 0 -64 37
-187 73 -243 94 -147 226 -218 406 -218 69 0 82 2 77 15 -3 8 1 21 10 29 17
18 74 142 74 163 0 8 -8 17 -17 20 -24 6 -74 89 -67 111 3 9 13 31 22 49 14
27 14 34 1 49 -12 16 -12 17 4 11 11 -4 25 -1 34 9 12 11 26 14 57 9 51 -8
126 -43 133 -62 3 -7 23 -23 44 -34 l39 -19 -31 -62 c-38 -75 -102 -143 -192
-205 -74 -50 -87 -63 -61 -63 31 0 138 65 189 115 82 82 135 205 135 317 0 76
-54 243 -96 298 -38 50 -107 106 -163 134 -43 20 -44 20 -36 -4 8 -26 -1 -25
-50 5 -22 14 -49 25 -60 25 -14 -1 -10 -5 14 -15z m111 -345 c0 -5 -7 -10 -15
-10 -8 0 -15 5 -15 10 0 6 7 10 15 10 8 0 15 -4 15 -10z"/>
<path d="M973 4435 c-24 -23 -21 -35 9 -35 10 0 21 -7 24 -15 11 -28 27 -16
21 15 -4 20 -2 30 5 30 7 0 3 7 -8 15 -24 18 -24 18 -51 -10z"/>
<path d="M735 4440 c-3 -5 -2 -10 4 -10 5 0 13 5 16 10 3 6 2 10 -4 10 -5 0
-13 -4 -16 -10z"/>
<path d="M3080 4863 c-186 -31 -348 -119 -481 -260 -278 -297 -295 -768 -38
-1088 104 -128 246 -227 394 -271 33 -10 66 -22 72 -27 10 -7 12 -150 10 -660
l-2 -650 -70 -22 c-489 -149 -727 -709 -499 -1172 104 -210 303 -371 540 -434
113 -31 286 -31 408 -1 504 126 772 682 558 1155 -56 122 -154 242 -271 329
-62 47 -194 111 -263 128 l-48 12 0 658 0 658 48 12 c68 17 201 81 263 127 87
64 170 156 227 249 28 48 52 92 52 98 0 8 -48 11 -156 10 l-156 -1 -70 -67
c-81 -80 -176 -129 -293 -153 -67 -13 -91 -14 -160 -4 -219 33 -377 161 -456
371 -20 56 -24 82 -23 180 0 100 4 124 27 184 82 209 260 343 483 362 148 13
299 -43 419 -157 l71 -68 157 -3 c86 -2 157 1 157 5 0 19 -58 118 -107 184
-150 199 -408 325 -662 322 -58 -1 -117 -4 -131 -6z m266 -3243 c405 -104 551
-605 265 -910 -217 -231 -576 -233 -797 -3 -210 218 -206 554 10 767 144 143
330 195 522 146z"/>
<path d="M3265 1489 c-4 -5 0 -9 8 -9 7 0 19 -10 26 -23 15 -28 0 -75 -26 -83
-10 -3 -28 -11 -40 -16 -17 -8 -25 -7 -37 5 -9 9 -16 20 -16 26 0 15 -15 14
-29 -3 -9 -10 -9 -16 -1 -21 6 -4 8 -14 4 -24 -4 -9 -6 -26 -5 -38 0 -15 -5
-23 -15 -23 -8 0 -13 4 -10 8 3 5 -10 4 -29 -2 -19 -6 -35 -16 -35 -23 0 -19
-21 -27 -31 -12 -6 9 -9 10 -9 2 0 -6 5 -15 10 -18 16 -10 11 -41 -10 -60 -20
-18 -21 -18 -34 1 -21 28 -30 10 -12 -25 9 -16 16 -41 16 -56 0 -14 5 -25 10
-25 6 0 10 -9 10 -20 0 -15 7 -20 24 -20 14 0 28 -4 31 -10 3 -5 19 -10 35
-10 16 0 32 -5 35 -11 5 -7 -13 -8 -57 -3 -70 8 -110 33 -140 88 -21 39 -22
50 -4 43 12 -5 14 3 9 46 -3 29 -10 54 -15 55 -4 2 -8 12 -8 23 0 27 -11 24
-49 -15 -26 -27 -32 -40 -29 -66 2 -19 -2 -35 -9 -37 -16 -6 -27 57 -19 101 4
20 2 37 -4 41 -5 3 -10 -2 -10 -12 0 -10 -10 -34 -22 -53 -18 -30 -22 -50 -22
-130 0 -102 14 -159 60 -238 51 -87 132 -158 212 -186 61 -22 277 -29 335 -11
198 60 334 290 297 503 -24 138 -116 269 -228 326 -54 28 -72 27 -72 -2 -1
-15 -3 -14 -18 3 -18 21 -68 30 -77 14z m-115 -248 c0 -11 5 -23 11 -27 6 -3
9 -15 6 -25 -3 -12 0 -19 9 -19 19 0 18 -19 -2 -27 -19 -7 -36 15 -30 40 2 9
0 15 -5 12 -11 -7 -23 40 -14 54 10 18 25 13 25 -8z m-30 -71 c0 -5 -5 -10
-11 -10 -8 0 -8 -4 -1 -13 11 -13 8 -26 -14 -89 -8 -24 -29 -23 -54 2 -27 27
-25 36 9 56 16 10 35 28 42 41 13 24 29 31 29 13z m81 -83 c-13 -13 -26 -3
-16 12 3 6 11 8 17 5 6 -4 6 -10 -1 -17z m-41 -6 c-5 -11 -7 -27 -4 -35 5 -12
0 -15 -20 -14 -45 4 -29 68 16 68 15 0 17 -3 8 -19z m95 -1 c3 -5 12 -7 20 -4
7 3 36 -6 63 -19 46 -23 51 -24 66 -9 15 15 16 15 16 -1 0 -10 -10 -21 -22
-26 -14 -5 -17 -10 -10 -15 7 -4 12 -11 12 -17 0 -15 -22 -10 -35 8 -10 14
-16 15 -28 5 -19 -16 -46 -5 -57 22 -7 17 -9 18 -9 4 -1 -10 -6 -18 -12 -18
-6 0 -9 6 -6 13 3 7 -4 19 -14 25 -10 7 -19 19 -19 27 0 17 25 21 35 5z m-35
-30 c0 -5 -7 -10 -15 -10 -8 0 -15 5 -15 10 0 6 7 10 15 10 8 0 15 -4 15 -10z
m230 -26 c0 -8 -4 -12 -10 -9 -5 3 -10 10 -10 16 0 5 5 9 10 9 6 0 10 -7 10
-16z m-271 -30 c-6 -7 -15 -11 -21 -8 -5 3 -4 12 3 20 6 7 15 11 21 8 5 -3 4
-12 -3 -20z m107 -31 c-4 -9 -1 -20 6 -25 21 -13 28 -9 28 17 0 33 17 32 32
-2 7 -16 23 -42 36 -60 29 -39 23 -68 -23 -114 -18 -18 -30 -39 -28 -46 3 -8
-2 -13 -12 -13 -12 0 -16 6 -13 18 4 13 -7 23 -44 41 -43 21 -54 22 -87 12
-59 -17 -69 -14 -86 25 -23 55 -19 72 18 87 17 8 41 24 51 36 11 11 27 21 38
21 10 0 18 5 18 10 0 6 16 10 36 10 30 0 35 -3 30 -17z m194 -223 c-52 -43
-72 -37 -25 8 24 22 44 34 50 29 6 -5 -3 -19 -25 -37z"/>
<path d="M3243 1427 c-40 -23 -44 -46 -8 -39 24 4 50 35 43 51 -2 4 -18 -1
-35 -12z"/>
<path d="M5371 4860 c-104 -12 -152 -26 -266 -81 -213 -102 -371 -288 -431
-506 l-17 -63 -907 0 -907 0 -17 -58 c-20 -74 -20 -160 0 -234 l17 -58 907 0
908 0 11 -47 c43 -168 180 -363 324 -461 434 -295 1023 -132 1236 339 34 76
67 207 76 304 5 54 1 98 -18 190 -55 273 -208 475 -452 595 -144 71 -300 98
-464 80z m211 -281 c101 -21 196 -75 278 -158 77 -78 114 -139 144 -241 20
-66 21 -216 2 -285 -32 -122 -131 -257 -235 -324 -166 -107 -375 -120 -545
-34 -157 79 -265 219 -301 391 -19 92 -19 122 0 213 22 106 67 190 143 270 85
90 181 146 292 169 54 12 164 11 222 -1z"/>
<path d="M5410 4491 c0 -8 -11 -12 -27 -10 -51 4 -112 -22 -153 -68 -22 -23
-45 -43 -51 -43 -23 0 -86 -61 -112 -108 -59 -109 -67 -217 -21 -298 15 -27
23 -60 25 -100 3 -67 20 -102 76 -156 87 -83 200 -128 323 -128 205 0 374 121
438 315 28 83 33 205 9 205 -7 0 -19 9 -27 20 -8 11 -18 20 -21 20 -10 0 -23
-60 -20 -92 4 -40 -15 -34 -38 10 -26 51 -47 67 -90 68 -20 0 -47 4 -61 9 -22
7 -23 6 -11 -9 8 -9 21 -14 31 -11 9 3 23 -1 30 -10 16 -20 -6 -55 -54 -85
-42 -25 -46 -35 -11 -26 39 10 32 -23 -16 -80 -37 -45 -40 -53 -34 -91 5 -35
3 -43 -14 -53 -11 -5 -27 -25 -36 -43 -17 -36 -61 -67 -94 -67 -32 0 -83 94
-75 138 5 25 1 41 -14 62 -11 15 -19 36 -16 46 6 23 -33 42 -90 43 -24 0 -44
7 -53 18 -47 60 -39 123 26 184 41 40 52 45 99 47 37 2 52 -1 52 -10 0 -22 33
-34 95 -33 49 0 60 3 63 18 3 13 -3 17 -22 17 -16 0 -26 6 -26 15 0 18 -17 20
-23 3 -2 -7 -11 2 -21 20 -9 17 -21 32 -26 32 -6 0 -5 -9 2 -20 10 -16 10 -22
-2 -32 -8 -7 -11 -9 -7 -4 10 12 -22 46 -43 46 -9 0 -25 -9 -35 -20 -32 -36
-77 -21 -56 19 7 13 18 17 31 14 15 -4 20 0 20 13 0 20 67 54 106 54 25 0 50
25 35 34 -5 4 -14 -1 -19 -10 -11 -19 -42 -13 -42 8 0 7 16 24 35 37 30 20 39
22 66 12 26 -9 37 -8 56 4 13 9 21 21 17 27 -4 6 1 17 10 23 15 12 15 13 -1
19 -10 4 -55 10 -100 13 -62 4 -83 3 -83 -6z"/>
<path d="M5608 4264 c-7 -7 24 -64 35 -64 12 0 8 13 -11 43 -10 15 -21 25 -24
21z"/>
<path d="M5500 4237 c0 -8 13 -13 35 -14 36 -1 47 10 19 21 -27 10 -54 7 -54
-7z"/>
<path d="M5559 4072 c20 -39 51 -72 51 -55 0 11 -57 93 -65 93 -3 0 3 -17 14
-38z"/>
<path d="M575 3173 c2 -10 9 -61 15 -113 66 -544 341 -1102 745 -1505 268
-268 521 -437 900 -600 77 -33 73 -39 67 89 -4 101 4 188 24 257 3 12 -18 27
-83 58 -547 262 -974 732 -1174 1292 -42 117 -109 382 -109 432 0 25 -3 27
-44 27 -63 0 -199 28 -274 56 -77 29 -71 28 -67 7z"/>
<path d="M1235 3154 c-38 -12 -91 -26 -117 -30 l-48 -7 6 -41 c43 -294 176
-628 352 -881 114 -165 283 -347 432 -466 142 -114 480 -313 494 -291 2 4 21
39 40 77 20 38 48 84 62 103 14 18 24 35 23 37 -2 1 -56 29 -120 62 -380 196
-668 485 -854 862 -82 167 -143 353 -169 516 -6 43 -16 80 -21 81 -6 1 -41 -9
-80 -22z"/>
<path d="M5081 3058 c-96 -500 -394 -945 -825 -1231 -77 -52 -228 -133 -289
-156 l-28 -11 39 -57 c22 -32 52 -83 67 -113 15 -30 28 -56 30 -58 1 -1 51 23
111 54 552 285 941 757 1108 1344 38 133 67 276 58 285 -3 3 -15 5 -28 5 -17
0 -128 30 -204 56 -12 4 -20 -19 -39 -118z"/>
<path d="M5793 3164 c-50 -21 -212 -54 -270 -54 -34 0 -55 -5 -57 -12 -2 -7
-12 -58 -21 -113 -36 -204 -138 -484 -247 -677 -222 -394 -556 -715 -955 -919
-65 -33 -119 -62 -121 -63 -2 -2 4 -43 13 -92 11 -59 16 -123 13 -191 -2 -57
-2 -103 0 -103 2 0 51 20 110 46 297 126 549 295 790 529 189 183 341 377 472
604 151 262 279 645 315 946 3 28 8 65 11 83 6 36 -2 39 -53 16z"/>
</g>
</svg>
