<svg xmlns="http://www.w3.org/2000/svg" width="120" height="29" viewBox="0 0 120 29">
    <g fill="#67C5BB" fill-rule="evenodd">
        <path d="M57.99 15.004c.304-1.296 1.142-2.003 2.39-2.003 1.597 0 2.207 1.017 2.422 2.003H57.99zm8.678 2.244c-.077-4.418-2.524-7.163-6.386-7.163-3.658 0-6.213 2.671-6.213 6.497 0 3.812 2.657 6.474 6.46 6.474 2.938 0 5.238-1.553 6.002-4.052l.129-.424h-3.782l-.097.174c-.49.884-1.242 1.314-2.3 1.314-1.743 0-2.376-1.277-2.584-2.483h8.777l-.006-.337zM80.617 6.077H66.26v3.18h5.228v13.487h3.952V9.257h5.178z"/>
        <path d="M85.157 10.157c-1.013 0-1.904.402-2.658 1.198v-.959h-3.704v12.348H82.5v-6.258c0-1.957 1.096-3.125 2.93-3.125.09 0 .301 0 .478.022l.383.046v-3.185l-.298-.037c-.418-.05-.611-.05-.835-.05M95.147 17.254c0 .922-.127 1.418-.473 1.838-.357.447-1.01.736-1.663.736-.827 0-1.408-.363-1.634-1.023-.13-.378-.156-.554-.156-1.719v-6.69h-3.705v6.858c0 1.54.051 2.138.237 2.782.569 1.863 2.166 3.02 4.167 3.02 1.187 0 2.184-.343 3.227-1.13v.818h3.705V10.397h-3.705v6.857zM110.464 16.13c-.717-.54-1.487-.796-3.296-1.097-1.657-.283-2.191-.402-2.599-.577-.275-.117-.44-.318-.44-.538 0-.596.756-1.013 1.84-1.013 1.175 0 1.815.427 2.073 1.385l.067.247h3.292l-.039-.364c-.265-2.522-2.37-4.089-5.492-4.089-2.997 0-5.173 1.724-5.173 4.098 0 1.142.56 2.093 1.618 2.75.795.497 2.102.893 4.117 1.248 1.69.277 1.773.518 1.773.922 0 .688-.772 1.134-1.964 1.134-1.421 0-2.15-.502-2.365-1.626l-.052-.27h-3.436l.038.363c.291 2.767 2.42 4.353 5.84 4.353 3.272 0 5.47-1.666 5.47-4.146 0-1.136-.45-2.121-1.272-2.78M119.226 19.948l-.82.024c-.392 0-.714-.104-.85-.284-.117-.142-.172-.306-.172-1.185v-5.598h2.28v-2.508h-2.28V6.509h-3.705v3.888h-1.685v2.508h1.685v5.598c0 1.129.03 1.59.13 2.054.197.98.735 1.625 1.642 1.97.497.198.782.217 1.889.217h2.496V19.89l-.61.06zM50.525 6.077l-2.797 11.118-2.305-11.118h-3.902L39.159 17.25 36.191 6.077h-4.066l5.134 16.667h3.7L43.432 11.7l2.427 11.045h3.63l4.979-16.667zM21.53 9.226H7.904v3.972h4.665v8.991h4.064v-8.991h4.895z"/>
        <path d="M14.724 0C6.592 0 0 6.385 0 14.26c0 7.877 6.592 14.263 14.724 14.263 8.132 0 14.724-6.386 14.724-14.262S22.856 0 14.724 0m0 3.632c6.05 0 10.973 4.769 10.973 10.629 0 5.861-4.923 10.63-10.973 10.63-6.05 0-10.974-4.769-10.974-10.63 0-5.86 4.923-10.629 10.974-10.629"/>
    </g>
</svg>
