<?xml version="1.0" encoding="iso-8859-1"?>
<!-- Generator: Adobe Illustrator 19.0.0, SVG Export Plug-In . SVG Version: 6.00 Build 0)  -->
<svg version="1.1" id="Layer_1" xmlns="http://www.w3.org/2000/svg" xmlns:xlink="http://www.w3.org/1999/xlink" x="0px" y="0px"
	 viewBox="0 0 500 500" style="enable-background:new 0 0 500 500;" xml:space="preserve">
<g>
	<path style="fill:#62CABD;" d="M375.809,109.014c2.213-1.822,4.144-0.726,6.147,0.453c44.224,26.021,76.044,62.251,93.388,111.085
		c4.49,12.642,8.247,25.48,9.503,38.478c2.571,26.621,2.727,53.209-6.722,79.203c-6.173,16.979-11.951,33.816-21.713,49.284
		c-21.517,34.093-51.242,58.87-86.204,77.766c-39.211,21.193-81.403,31.999-125.878,30.468
		c-33.143-1.141-65.256-9.076-95.671-22.945c-43.855-19.997-78.494-50.624-105.043-90.65c-0.714-1.077-1.589-2.076-2.13-3.232
		c-1.715-3.668-3.306-7.393-3.752-12.105c8.41,8.226,16.479,16.84,25.291,24.61c34.185,30.143,74.258,48.071,119.143,54.535
		c45.455,6.546,89.533,1.011,131.686-18.118c35.185-15.966,65.085-38.698,88.327-69.507c19.443-25.773,30.491-55.093,34.606-87.31
		c4.61-36.101-1.284-70.238-16.713-102.838c-9.914-20.947-22.859-39.817-41.067-54.645
		C377.591,112.395,375.609,111.441,375.809,109.014z"/>
	<path style="fill:#656666;" d="M414.335,62.235c9.354,8.16,18.539,16.49,26.284,26.26c1.792,2.952,4.942,5.97,6.217,7.435
		c2.001,3.579,10.748,12.881,12.516,19.824c-4.999,1.573-7.346-1.404-9.736-3.648c-33.242-31.219-72.48-50.923-117.031-59.638
		c-35.477-6.94-71.026-5.796-105.891,4.032c-58.708,16.55-106.146,48.793-136.848,102.564
		c-19.19,33.61-25.841,70.287-21.774,108.704c4.363,41.226,20.422,77.27,49.1,107.514c1.783,1.881,4.711,3.67,3.704,7.93
		c-12.251-2.873-20.893-11.602-29.714-19.008c-25.891-21.737-46.044-48-58.352-79.889c-19.252-49.877-18.532-99.671,2.635-148.454
		c18.347-42.285,49.517-73.851,88.62-97.739c46.032-28.121,96.46-41.868,149.727-35.361c47.948,5.857,86.021,22.983,98.056,29.896
		c11.414,6.393,26.302,16.785,29.755,19.271C407.106,56.309,410.984,59.268,414.335,62.235z"/>
	<path style="fill:#656666;" d="M226.229,194.102c-28.312,0-54.701,0-82.4,0c3.771-15.915,13.316-25.656,24.686-33.676
		c13.038-9.195,28.088-13.718,43.865-13.884c47.963-0.503,95.933-0.346,143.9-0.396c1.531-0.002,3.063,0.551,5.966,1.11
		c-15.095,37.142-44.043,48.908-79.884,47.234c-3.52,3.901-2.419,7.635-2.427,11.063c-0.081,34.355-0.416,68.716,0.055,103.065
		c0.403,29.414-25.674,54.706-53.761,60.077C226.229,310.988,226.229,253.51,226.229,194.102z"/>
</g>
</svg>
