<?xml version="1.0" encoding="utf-8"?>
<!-- Generator: Adobe Illustrator 23.0.2, SVG Export Plug-In . SVG Version: 6.00 Build 0)  -->
<svg version="1.1" id="tusd" xmlns="http://www.w3.org/2000/svg" xmlns:xlink="http://www.w3.org/1999/xlink" x="0px" y="0px"
	 viewBox="0 0 500 500" style="enable-background:new 0 0 500 500;" xml:space="preserve">
<style type="text/css">
	.st0{fill:#313C85;}
	.st1{fill:#83B3DE;}
</style>
<path class="st0" d="M25.2,359.6c5.1,5.4,10.2,10.8,15.3,16.3C55.3,391.9,72.3,405,91,416.1c24.2,14.3,50.2,24.4,78,28.7
	c15.7,2.5,31.7,4.4,47.4,4c33-0.8,64.9-8,94.9-22.3c23.6-11.2,44.8-25.6,63.7-43.7c31.5-30.1,50.3-66.8,56.3-109.8
	c6.2-44.3-3.2-85.4-26.6-123.5c-9.8-15.9-21.9-29.8-36.1-42c-0.6-0.5-1.1-1.1-1.5-1.7c-0.2-0.2-0.1-0.6-0.3-2.2
	c5.4,2.8,10.2,5.1,14.8,7.8c18.3,10.8,34.9,24,49,39.9c13.5,15.2,24.8,31.8,33.2,50.4c8.7,19.1,14.5,39,16.7,59.8
	c5.3,49.9-6.6,95.4-35.4,136.5c-14.7,20.9-33.6,37.6-54.2,52.5c-25.3,18.2-53.2,30.9-83.4,38.5c-27,6.8-54.3,8.7-82,6.5
	c-33.7-2.7-65.6-12-95.5-27.7c-18.8-9.9-36-22-51.7-36.4c-21-19.3-38-41.5-51.7-66.4c-0.9-1.7-1.7-3.4-2.6-5.1
	C24.5,359.9,24.8,359.8,25.2,359.6z"/>
<path class="st1" d="M126.5,391.9c-2.8-1.4-5.7-2.6-8.4-4.2C101,377.5,84.9,366,71.3,351.5c-20.3-21.7-35.5-46.4-44.9-74.7
	c-8-24.2-11.3-49.1-9.6-74.3c1.6-24,7.4-47.1,17.6-69.1c12.2-26.3,29.3-48.9,51-67.9C113.4,41,145.2,23.3,181,12.9
	c27.8-8.1,56.2-11.3,85-9.6c21.4,1.3,42.5,5.2,63,12.1c18.7,6.3,36.4,14.4,53.2,24.8c21,13,39.4,29.1,55.8,47.5
	c13,14.5,23.5,30.6,32.9,47.5c0.3,0.5,0.4,1,1.2,2.8c-4.2-4.7-7.5-8.5-10.8-12.2c-20.3-22.4-44.2-40-71.4-53.2
	c-24.4-11.8-50-19-76.9-22.2c-40.9-4.8-80,1.3-118,16.6c-26.1,10.6-49.2,26-70.1,44.9c-19.5,17.5-34.3,38.4-45,62
	c-9.2,20.2-14.3,41.5-15.9,63.8c-2,27.8,2.2,54.4,12,80.2c8.8,22.9,21.5,43.3,38.7,60.9c4,4.1,8.2,8.2,12.2,12.2
	C126.8,391.4,126.6,391.7,126.5,391.9z"/>
<path class="st1" d="M271.7,198.3c-0.1,3-0.3,5.1-0.3,7.2c0,37.7-0.3,75.5,0.1,113.2c0.2,26.2-12.4,44.5-33.8,57.6
	c-5.6,3.5-11.9,6-19.1,9.5c0-63.3,0-125,0-187.6c-28.1,0-55.4,0-83.2,0c1.4-9.1,5.7-15.8,10.6-22.1c13.6-17.5,32.2-26.5,53.9-27.6
	c24.2-1.2,48.4-0.9,72.6-1c25.2-0.1,50.3,0,75.5,0c1.9,0,3.8,0.3,6.5,0.5c-6.3,17.7-16.1,31.5-31.8,40.9
	C307,198.3,289.5,197.8,271.7,198.3z"/>
</svg>
