<svg id="Layer_1" data-name="Layer 1" xmlns="http://www.w3.org/2000/svg" viewBox="0 0 3000.45 561.33"><defs><style>.cls-1{fill:#e85c50;}.cls-2{fill:#cf3339;}.cls-3{fill:#e33936;}.cls-4{fill:#e34c37;}.cls-5{fill:#e9654c;}.cls-6{fill:#e7563d;}.cls-7{fill:#e33937;}.cls-8{fill:#e75840;}.cls-9{fill:#e04437;}.cls-10{fill:#e24837;}.cls-11{fill:#fff;}</style></defs><title>uquid coin logo</title><path class="cls-1" d="M206,16.16a1.05,1.05,0,0,1,.71,1.12c0,1,0,1.94,0,2.91V373.32c0,1.16-.09,2.32-.13,3.47.47,1,1.36.53,2,.53q95.13,0,190.27.06c2,0,2.92-.46,2.61-2.56a15.26,15.26,0,0,1,0-2q0-176.34,0-352.67c0-1.24-.71-2.76.84-3.68a1.21,1.21,0,0,1,1.77.31A11.87,11.87,0,0,1,405.42,19C412.65,33.35,420,47.65,427.1,62Q436,80,444.93,97.88q9.93,19.85,19.9,39.68,9,17.87,17.83,35.84c5.26,10.78,10.84,21.4,16,32.21.75,1.57,2,2.85,2.54,4.55a33.52,33.52,0,0,1,.23,6.09v344c0,1,0,1.94,0,2.9,0,3.8,0,3.8,3.67,4.45a2.1,2.1,0,0,1,1.25.66c-2.45,1.21-5.14,1.6-7.76,2.21a231.36,231.36,0,0,1-35.81,5.49c-5.6.41-11.21.52-16.82.61-28.94.45-57.89.34-86.84.32q-75.37,0-150.76-.14c-1,0-2.13.29-3.11-.35a5.24,5.24,0,0,1,1-.62,18,18,0,0,1,5.48-.36H395.59a35.08,35.08,0,0,0,4.92-.16c1.47-.66.94-2,.95-3.06q0-61.24,0-122.48V385.83a27.85,27.85,0,0,1,.12-3.92c-1.52,4.69-4,9.09-6.2,13.62-8.1,16.92-16.05,33.92-24.13,50.86-4.41,9.25-8.85,18.5-13.16,27.8-.61,1.31-1.16,2.68-2.61,3.35a12.85,12.85,0,0,1-4.32.39H256.6a15.21,15.21,0,0,1-3.75-.25c-1.92-.58-2.51-2.32-3.24-3.87Q241.3,456.23,233,438.65q-9-19-18-38c-2.85-6-5.6-12.1-8.79-18.42,0,1.74,0,3.12,0,4.5q0,92.06,0,184.1c0,1.89.48,3.91-.87,5.61-1,.05-1.92.15-2.88.15q-21.47,0-42.93,0c-3.67,0-7.34-.17-11-.29-.66,0-1.37.13-1.93-.39.66-.6,1.47-.35,2.21-.35q26.24,0,52.47,0c.66,0,1.32-.07,1.48,0-17.37,0-35.24,0-53.11,0-1,0-2.13-.38-3.08.36-4.45.24-8.86-.44-13.27-.87-8.55-.85-17-2.56-25.44-4a2.77,2.77,0,0,1-.75-.41c1-2.19.86-4.53.86-6.85q0-173.1,0-346.2a47.44,47.44,0,0,1,.15-6.08,23.88,23.88,0,0,1,2.34-5.91c6-11.94,12-23.83,17.91-35.82,21.83-44.67,44.34-89,66.45-133.53,2.75-5.55,5.64-11,8.32-16.6.44-.91.73-2.8,2.5-1.16q0,165.59,0,331.16,0,12.91,0,25.85,0-177.1,0-354.21C205.69,19.56,205,17.8,206,16.16Z" transform="translate(-12.53 -15.56)"/><path class="cls-2" d="M108.91,210.29q0,177.87,0,355.73c0,1,0,1.94,0,2.91.09,1.36-.77,1.6-1.82,1.66-14.27-3.3-28.16-7.7-41.23-14.44-7.15-3.69-14.2-7.59-20.43-12.7-17.22-14.1-29.18-31.38-31.83-54.09a22.21,22.21,0,0,1,0-2.31,8,8,0,0,1-.22-3.16q0-230.79,0-461.59a8.38,8.38,0,0,1,.23-3.18c1.42.14,1.66,1.31,2.11,2.19C21.1,32,26.41,42.77,31.84,53.47q9.77,19.29,19.38,38.66c6,12,12.12,24,18,36.1,3.69,7.56,7.55,15.06,11.32,22.58,3.47,6.92,7,13.8,10.36,20.78,4,8.37,8.18,16.68,12.54,24.89,1.86,3.51,3.29,7.22,5.1,10.75A3.5,3.5,0,0,1,108.91,210.29Z" transform="translate(-12.53 -15.56)"/><path class="cls-2" d="M506.41,568.24a11,11,0,0,0-4,.49c-1.12.22-1.92-.13-1.88-1.49,0-.67,0-1.35,0-2V209.1c-.94-1.61.3-2.78.92-4Q515.86,177,530,148.66c.23-.44.5-.87.75-1.3a5.82,5.82,0,0,1,.34-.6c.16-.3.32-.6.46-.91s.2-.41.3-.61c.35-.63.59-1.31.92-1.94a5,5,0,0,1,.41-.67c5-9.42,9.6-19,14.39-28.57,2.56-5,5.05-10,7.54-15.06,2.26-4.46,4.52-8.91,6.71-13.41a9.29,9.29,0,0,1,.53-.85c7.37-14.39,14.38-29,21.79-43.32q4.59-8.89,9.16-17.81c.55-1.07.91-2.39,2.5-2.75.64,1.17.33,2.42.33,3.61q0,137.07,0,274.13,0,91,0,182.08a10,10,0,0,1-.2,3.45c.44,4.17-1.15,8-2.15,11.89-3.18,12.39-10,22.68-18.41,32.14a104.86,104.86,0,0,1-21.71,19.09A162,162,0,0,1,521,563.62,113.41,113.41,0,0,1,506.41,568.24Z" transform="translate(-12.53 -15.56)"/><path class="cls-3" d="M108.91,210.29a7.62,7.62,0,0,0-1.07-2.68c-2.65-5.69-5.68-11.2-8.34-16.88-2.59-5.52-5.78-10.72-8.19-16.31-2.22-5.16-5.3-9.88-7.49-15-2.77-6.5-6.71-12.4-9.33-19-1-2.59-2.68-4.92-3.92-7.42-1.89-3.81-3.44-7.81-5.54-11.49-4.12-7.23-7.42-14.86-11.24-22.23-2.49-4.79-5.13-9.54-7.28-14.49C44.15,79.37,40.92,74.4,38.6,69c-2.81-6.58-6.73-12.6-9.45-19.23-1.31-3.21-3.41-6.08-4.8-9.26-3.12-7.07-7.16-13.68-10.75-20.76V483.57c0,1.16,0,2.32,0,3.48-1-3.2-.73-6.52-.73-9.78q-.08-61.56,0-123.11V24.89a76.27,76.27,0,0,0-.26-8.68,5.34,5.34,0,0,1,2.85-.27q93.48,0,187,0h1.74c2.08,0,1.3,1.06.69,2L167,93.44q-11.82,23.63-23.62,47.26c-2.88,5.79-5.58,11.67-8.47,17.46q-12,24-24,48Z" transform="translate(-12.53 -15.56)"/><path class="cls-3" d="M530.75,148.12a4.89,4.89,0,0,1-.8,2.15c-6.35,12.72-12.56,25.5-19.12,38.1-3.12,6-6.14,12-9.23,18.06a6.61,6.61,0,0,0-1.06,2.67c-1.13,0-1.35-1-1.73-1.71-1.28-2.5-2.35-5.1-3.61-7.6-1.51-3-3.19-6-4.69-9-2.76-5.54-5.67-11-8.26-16.61-2.72-5.88-6.1-11.43-8.7-17.36-2.78-6.38-6.45-12.31-9.22-18.71-1.51-3.52-3.58-6.84-5.31-10.3-2.73-5.44-5.61-10.81-8.13-16.35-2.87-6.34-6.45-12.31-9.23-18.7-1.53-3.52-3.72-6.79-5.29-10.32-3-6.71-6.79-13-9.74-19.75-1.54-3.51-3.59-6.84-5.32-10.3Q413,35.8,404.7,19.19a7.11,7.11,0,0,1-1.17-2.94L404,16c37.92-.08,75.84,0,113.76,0q37.73,0,75.45,0c1,0,2.13-.28,3.13.27.12.79,1,1.53.11,2.37-2.85,3.25-4.11,7.39-6.05,11.14-9.63,18.64-18.94,37.45-28.3,56.22h0c-2.43,4.39-4.66,8.87-6.81,13.4q-3.9,7.49-7.56,15.11c-5,9.6-9.59,19.45-14.69,29h0a7.51,7.51,0,0,0-1.17,2.33h0c-.36.31-.25.85-.58,1.17h0C531,147.25,531.09,147.8,530.75,148.12Z" transform="translate(-12.53 -15.56)"/><path class="cls-4" d="M562.13,85.94c1.49-5.24,4.34-9.86,6.88-14.6.87-1.62,1.45-3.34,2.29-5,3.46-6.77,6.82-13.6,10.22-20.4,2.66-5.34,5.23-10.73,8-16,1.86-3.48,3.55-7,5.25-10.59.36-.75.69-1.44,1.68-.81q0,28.17-.05,56.34,0,200.71,0,401.43c0,2.6.22,5.23-.52,7.78,0-1-.09-1.93-.09-2.9V21.46c-.88.11-1,.83-1.24,1.35-1,1.9-1.88,3.82-2.87,5.71-9.53,18.26-18.65,36.74-27.88,55.16C563.4,84.52,563.14,85.53,562.13,85.94Z" transform="translate(-12.53 -15.56)"/><path class="cls-5" d="M403.53,16.25a2.16,2.16,0,0,0-1.79,2.56,19.94,19.94,0,0,1,0,2.32q0,176.15,0,352.28c0,4.65.47,4.22-4.18,4.22q-93.66,0-187.32,0c-1.24,0-2.74.68-3.7-.8a6.19,6.19,0,0,0,3.13.38H398.23c.39,0,.78,0,1.16,0,1.35.11,2-.43,1.89-1.83-.06-.87,0-1.74,0-2.61V20.05a19.82,19.82,0,0,0,0-2c-.16-1.68.66-2.3,2.23-2.17l.05.39Z" transform="translate(-12.53 -15.56)"/><path class="cls-6" d="M204.77,18c0-.75.68-1.85-1-1.74-.77.05-1.55,0-2.32,0h-189c.82-1.06,2-.49,2.94-.49,13.25-.05,26.5,0,39.74,0q73.54,0,147.08,0c1.22,0,2.53-.39,3.66.45q0,60.42,0,120.83V376.36c-.91-.44-.51-1.12-.56-1.64a19.61,19.61,0,0,1,0-2q0-175.42,0-350.86C205.33,20.54,205.85,19.11,204.77,18Z" transform="translate(-12.53 -15.56)"/><path class="cls-1" d="M403.54,16.23a2.6,2.6,0,0,1-.05-.39c1.06-.06,2.12-.17,3.18-.17q93.24,0,186.47,0c1.07,0,2.3-.51,3.23.52Z" transform="translate(-12.53 -15.56)"/><path class="cls-2" d="M401.75,576.28c-1.26,0-2.52,0-3.78,0l-188.48,0c-1.16,0-2.32-.07-3.48-.11a5.35,5.35,0,0,1,.59-3.37c5-10.5,9.86-21,14.88-31.5,9.9-20.68,19.55-41.49,29.51-62.15a4.46,4.46,0,0,1,1.43-2.13l103.42,0c2.49,4.36,4.5,9,6.62,13.51,4,8.69,8.16,17.34,12.26,26,8.78,18.55,17.6,37.07,26.32,55.64A5.64,5.64,0,0,1,401.75,576.28Z" transform="translate(-12.53 -15.56)"/><path class="cls-7" d="M252.42,477a20.23,20.23,0,0,1-1.85,4.85c-4.82,10-9.7,20-14.42,30.05q-4.8,10.23-9.64,20.44c-3.72,7.86-7.41,15.73-11.21,23.55-2.83,5.82-5.49,11.71-8.22,17.58-.4.87-.71,1.79-1.07,2.68l-.7.21h0c0-1.26,0-2.52,0-3.78V379.54a4.3,4.3,0,0,1,1.88,2.51c1.95,4.2,3.8,8.45,5.79,12.64,3.07,6.46,6.29,12.85,9.32,19.33q8,17.07,16.13,34.05c3.23,6.71,6.27,13.5,9.55,20.18C249.47,471.18,250.42,474.36,252.42,477Z" transform="translate(-12.53 -15.56)"/><path class="cls-7" d="M401.75,576.28c-.68-3.47-2.74-6.37-4-9.58-1.66-4.11-3.74-8.05-5.66-12.06-4.5-9.41-9.09-18.78-13.5-28.24q-5.34-11.42-10.8-22.77c-3.85-8-7.51-16.1-11.25-24.15a4.8,4.8,0,0,1-.66-2.48c5.82-12.22,11.69-24.42,17.43-36.68,3.36-7.18,6.78-14.33,10.17-21.5,3.76-7.95,7.47-15.93,11.34-23.83,2-4.17,3.85-8.44,5.8-12.64a6.18,6.18,0,0,1,1.76-2.69v3q0,95.15,0,190.29C402.32,574.1,402.8,575.34,401.75,576.28Z" transform="translate(-12.53 -15.56)"/><path class="cls-8" d="M146.54,575.85c.65-.81,1.56-.66,2.42-.66h54.32a7.29,7.29,0,0,1,1.17.22,7.21,7.21,0,0,1-3.28.34h-52c-.87,0-1.74.06-2.61.09Z" transform="translate(-12.53 -15.56)"/><path class="cls-9" d="M533.07,143.46a4.11,4.11,0,0,1,.65-1.89q6.43-12.88,12.89-25.78a3,3,0,0,1,1-1.39c.2-.27.39-.27.58,0q-6.64,13.29-13.29,26.56C534.42,141.88,534.17,143,533.07,143.46Z" transform="translate(-12.53 -15.56)"/><path class="cls-10" d="M548.17,114.4h-.58c1.24-3.64,3.25-6.92,4.93-10.36.79-1.62,1.35-3.39,2.63-4.74.19-.28.38-.28.58,0Z" transform="translate(-12.53 -15.56)"/><path class="cls-4" d="M555.73,99.3h-.58c1.94-4.66,3.94-9.29,7-13.37a3.11,3.11,0,0,1-.32,1.67C559.47,91.33,557.79,95.42,555.73,99.3Z" transform="translate(-12.53 -15.56)"/><path class="cls-9" d="M531.91,145.79a2,2,0,0,1,1.17-2.33A3.26,3.26,0,0,1,531.91,145.79Z" transform="translate(-12.53 -15.56)"/><path class="cls-9" d="M531.33,147a1.2,1.2,0,0,1,.58-1.17A1.2,1.2,0,0,1,531.33,147Z" transform="translate(-12.53 -15.56)"/><path class="cls-9" d="M530.75,148.12a1.19,1.19,0,0,1,.58-1.17A1.23,1.23,0,0,1,530.75,148.12Z" transform="translate(-12.53 -15.56)"/><path class="cls-11" d="M860.57,99.15V391.59H1089V99.15h107.84V411.08q0,16.46-7.62,29.24a73.52,73.52,0,0,1-19.5,21.63,82.83,82.83,0,0,1-26.5,13.1,103.73,103.73,0,0,1-29.24,4.27H836.2a115.91,115.91,0,0,1-30.46-4,85.41,85.41,0,0,1-26.5-12.19,60.48,60.48,0,0,1-18.89-21q-7-12.79-7-31.07V99.15Z" transform="translate(-12.53 -15.56)"/><path class="cls-11" d="M1249.26,167.39q0-18.28,7-31.07a60.58,60.58,0,0,1,18.89-21,85.41,85.41,0,0,1,26.5-12.19,116.44,116.44,0,0,1,30.46-4h277.81a104.16,104.16,0,0,1,29.25,4.27,82.93,82.93,0,0,1,26.5,13.1,73.7,73.7,0,0,1,19.49,21.62q7.62,12.8,7.62,29.25V411.08q0,15.85-6.09,25.59l46.3,42.65H1332.11a116,116,0,0,1-30.46-4,85.41,85.41,0,0,1-26.5-12.19,60.58,60.58,0,0,1-18.89-21q-7-12.79-7-31.07Zm290.6,134,45.09,42V186.88H1356.48V391.59h118.19l-99.91-90.17Z" transform="translate(-12.53 -15.56)"/><path class="cls-11" d="M1856.05,99.15V391.59h228.46V99.15h107.84V411.08q0,16.46-7.62,29.24A73.49,73.49,0,0,1,2165.24,462a82.88,82.88,0,0,1-26.51,13.1,103.68,103.68,0,0,1-29.24,4.27H1831.68a116,116,0,0,1-30.46-4,85.41,85.41,0,0,1-26.5-12.19,60.48,60.48,0,0,1-18.89-21q-7-12.79-7-31.07V99.15Z" transform="translate(-12.53 -15.56)"/><path class="cls-11" d="M2244.74,394h82.85V184.45h-82.85V99.15h272.93v85.3h-82.85V394h82.85v85.3H2244.74Z" transform="translate(-12.53 -15.56)"/><path class="cls-11" d="M2570.07,257.55h109V390.37h212l9.75-7.31V191.76l-9.75-7.31H2570.07V99.15h389.3a38.61,38.61,0,0,1,18.58,5.18,71.59,71.59,0,0,1,17.06,13.1,81.78,81.78,0,0,1,12.79,17.36q5.17,9.45,5.18,18V406.82q0,19.5-5.79,33.5t-15.53,22.55a62.19,62.19,0,0,1-21.94,12.49,82.23,82.23,0,0,1-25.58,4H2570.07Z" transform="translate(-12.53 -15.56)"/></svg>