<?xml version="1.0" encoding="utf-8"?>
<!-- Generator: Adobe Illustrator 16.0.0, SVG Export Plug-In . SVG Version: 6.00 Build 0)  -->
<!DOCTYPE svg PUBLIC "-//W3C//DTD SVG 1.1//EN" "http://www.w3.org/Graphics/SVG/1.1/DTD/svg11.dtd">
<svg version="1.1" id="Layer_1" xmlns="http://www.w3.org/2000/svg" xmlns:xlink="http://www.w3.org/1999/xlink" x="0px" y="0px"
	 width="2864px" height="1422.564px" viewBox="0 0 2864 1422.564" enable-background="new 0 0 2864 1422.564" xml:space="preserve">
<g>
	<g>
		<g>
			<path fill="#30317F" d="M1090.145,711.276c0,236.664-191.847,428.52-428.509,428.52c-236.661,0-428.516-191.855-428.516-428.52
				c0-236.657,191.854-428.511,428.516-428.511C898.298,282.766,1090.145,474.619,1090.145,711.276z"/>
			<g>
				<g>
					<g>
						<g>
							<path fill="#131230" d="M661.625,1184.156c-260.74,0-472.866-212.131-472.866-472.871
								c0-260.748,212.126-472.877,472.866-472.877c260.75,0,472.884,212.129,472.884,472.877
								C1134.509,972.025,922.375,1184.156,661.625,1184.156z M661.625,263.516c-246.896,0-447.76,200.87-447.76,447.77
								c0,246.896,200.864,447.769,447.76,447.769c246.906,0,447.776-200.873,447.776-447.769
								C1109.401,464.386,908.531,263.516,661.625,263.516z"/>
						</g>
					</g>
				</g>
			</g>
			<g>
				<defs>
					<path id="SVGID_1_" d="M1092.192,711.285c0,237.787-192.769,430.559-430.561,430.559
						c-237.787,0-430.559-192.771-430.559-430.559c0-237.784,192.771-430.561,430.559-430.561
						C899.424,280.725,1092.192,473.501,1092.192,711.285z"/>
				</defs>
				<clipPath id="SVGID_2_">
					<use xlink:href="#SVGID_1_"  overflow="visible"/>
				</clipPath>
				<linearGradient id="SVGID_3_" gradientUnits="userSpaceOnUse" x1="778.5752" y1="861.4063" x2="91.2708" y2="150.2657">
					<stop  offset="0" style="stop-color:#222220;stop-opacity:0.2"/>
					<stop  offset="1" style="stop-color:#80207D"/>
				</linearGradient>
				<path clip-path="url(#SVGID_2_)" fill="url(#SVGID_3_)" d="M272.233,853.393c0,275.367,223.237,498.598,498.591,498.598
					c275.367,0,498.606-223.23,498.606-498.598c0-275.373-223.239-498.596-498.606-498.596
					C495.471,354.797,272.233,578.02,272.233,853.393z"/>
				<linearGradient id="SVGID_4_" gradientUnits="userSpaceOnUse" x1="565.5479" y1="576.8193" x2="-121.7531" y2="-134.3177">
					<stop  offset="0" style="stop-color:#222220;stop-opacity:0.2"/>
					<stop  offset="1" style="stop-color:#80207D"/>
				</linearGradient>
				<path clip-path="url(#SVGID_2_)" fill="url(#SVGID_4_)" d="M59.207,568.8c0,275.368,223.229,498.601,498.597,498.601
					s498.592-223.232,498.592-498.601c0-275.358-223.225-498.589-498.592-498.589S59.207,293.441,59.207,568.8z"/>
			</g>
			<path fill-rule="evenodd" clip-rule="evenodd" fill="#FFFFFF" d="M450.502,648.791c0-8.163,0-14.74,0-22.194
				c-21.432,0-42.696,0-64.407,0c0-20.285,0-39.693,0-59.927c2.443-0.111,4.949-0.332,7.46-0.339
				c15.014-0.031,30.022,0.069,45.025-0.04c13.748-0.109,12.287,1.954,12.323-11.979c0.063-24.067,0.224-48.127-0.119-72.188
				c-0.083-6.173,1.937-8.045,7.942-8.733c26.872-3.089,53.654-3.167,80.524,0c5.878,0.688,8.045,2.369,7.956,8.643
				c-0.371,25.72,0,51.454-0.281,77.181c-0.064,5.694,1.678,7.313,7.291,7.223c19.053-0.318,38.115-0.127,57.176-0.127
				c2.553,0,5.107,0,8.08,0c0,20.174,0,39.592,0,59.72c-23.837,0-47.549,0-71.848,0c0,7.435,0,14.192,0,21.735
				c44.155,0,88.326,0,133.088,0c0,20.388,0,40.02,0,60.783c-44.13,0-88.469,0-133.538,0c0,18.683-0.546,36.279,0.139,53.816
				c0.921,23.534,3.164,46.923,10.225,69.661c13.021,41.958,41.786,65.398,84.55,71.686c40.411,5.928,80.647,4.158,120.508-5.411
				c6.249-1.502,7.526-4.323,7.518-10.172c-0.143-134.596-0.107-269.212-0.107-403.814c0-10.027,0.054-9.68,9.779-10.965
				c26.144-3.459,52.227-2.896,78.352,0.16c5.137,0.604,7.234,2.26,7.234,7.934c-0.161,157.469-0.151,314.955,0,472.423
				c0.009,5.072-1.722,7.203-6.322,8.404c-60.763,15.721-122.106,27.385-185.247,25.339c-36.664-1.194-73.301-3.688-108.147-16.503
				c-53.506-19.66-85.25-59.405-101.792-112.613c-10.718-34.489-12.768-70.076-12.934-105.865
				c-0.056-12.397-0.237-24.788,0.122-37.171c0.156-5.42-1.699-6.933-6.963-6.851c-16.905,0.286-33.828-0.058-50.74,0.198
				c-5.141,0.076-7.189-1.259-7.097-6.766c0.298-17.372,0.11-34.748,0.11-53.248C407.69,648.791,428.644,648.791,450.502,648.791z"
				/>
		</g>
	</g>
	<g>
		<g>
			<linearGradient id="SVGID_5_" gradientUnits="userSpaceOnUse" x1="2072.6074" y1="387.5" x2="2072.6074" y2="967.7196">
				<stop  offset="0.122" style="stop-color:#00005A"/>
				<stop  offset="1" style="stop-color:#30317F"/>
			</linearGradient>
			<path fill-rule="evenodd" clip-rule="evenodd" fill="url(#SVGID_5_)" d="M1921.296,363.701
				c21.961-3.434,43.471-3.484,65.314,0.043c0,61.813,0,123.143,0,185.494c1.34-1.455,2.086-2.135,2.682-2.932
				c20.551-27.436,48.205-41.67,82.135-44.457c24.945-2.047,49.15,0.963,72.322,10.557c32.094,13.289,52.592,37.701,65.402,69.27
				c12.268,30.234,15.344,61.951,14.848,94.174c-0.416,26.877-4.32,53.166-14.59,78.229
				c-18.963,46.281-52.705,76.539-100.199,91.393c-33.006,10.324-66.936,12.105-101.238,9.373
				c-27.834-2.217-55.008-7.734-81.738-15.672c-3.453-1.025-5.07-2.34-5.066-6.529c0.15-154.633,0.127-309.27,0.129-463.902
				C1921.296,367.299,1921.296,365.861,1921.296,363.701z M1986.769,715.033c-0.041,0-0.084,0-0.125,0
				c0,24.313,0.115,48.631-0.109,72.945c-0.039,4.334,1.334,6.078,5.457,7.158c19.354,5.082,39.049,6.322,58.881,5.174
				c17.346-1.002,34.002-5.158,49.223-13.852c31.4-17.93,46.148-46.791,52.266-81c3.016-16.861,3.09-33.922,1.916-51.01
				c-1.141-16.598-3.805-32.865-9.59-48.521c-8.059-21.809-21.549-38.352-44.719-45.061c-14.744-4.27-29.813-4.975-44.9-2.096
				c-22.449,4.277-40.9,14.992-53.584,34.492c-9.834,15.119-14.248,32.01-14.598,49.789
				C1986.417,667.035,1986.769,691.039,1986.769,715.033z"/>
			<linearGradient id="SVGID_6_" gradientUnits="userSpaceOnUse" x1="1409.8486" y1="387.501" x2="1409.8486" y2="967.7197">
				<stop  offset="0.122" style="stop-color:#00005A"/>
				<stop  offset="1" style="stop-color:#30317F"/>
			</linearGradient>
			<path fill-rule="evenodd" clip-rule="evenodd" fill="url(#SVGID_6_)" d="M1291.351,627.096c0-5.521,0-9.969,0-15.01
				c-14.492,0-28.875,0-43.555,0c0-13.717,0-26.844,0-40.525c1.652-0.076,3.346-0.225,5.045-0.229
				c10.15-0.021,20.301,0.047,30.447-0.027c9.295-0.074,8.309,1.32,8.332-8.102c0.043-16.273,0.152-32.543-0.08-48.814
				c-0.057-4.174,1.311-5.439,5.373-5.904c18.17-2.09,36.283-2.143,54.451,0c3.975,0.465,5.441,1.6,5.381,5.842
				c-0.25,17.395,0,34.795-0.189,52.193c-0.043,3.852,1.133,4.947,4.928,4.883c12.885-0.215,25.777-0.084,38.664-0.084
				c1.727,0,3.457,0,5.465,0c0,13.643,0,26.773,0,40.383c-16.119,0-32.152,0-48.586,0c0,5.029,0,9.598,0,14.699
				c29.859,0,59.73,0,90,0c0,13.787,0,27.063,0,41.104c-29.844,0-59.826,0-90.303,0c0,12.635-0.369,24.525,0.092,36.385
				c0.623,15.914,2.143,31.73,6.916,47.109c8.805,28.373,28.258,44.227,57.176,48.473c27.326,4.014,54.533,2.816,81.49-3.656
				c4.229-1.016,5.09-2.922,5.088-6.875c-0.1-91.023-0.078-182.047-0.074-273.07c0-6.783,0.035-6.547,6.609-7.416
				c17.68-2.336,35.316-1.957,52.986,0.109c3.471,0.408,4.895,1.527,4.891,5.365c-0.105,106.486-0.102,212.979,0.004,319.465
				c0.002,3.426-1.166,4.873-4.277,5.68c-41.09,10.633-82.572,18.52-125.273,17.137c-24.791-0.807-49.566-2.494-73.129-11.158
				c-36.186-13.299-57.652-40.172-68.838-76.158c-7.248-23.32-8.633-47.385-8.746-71.59c-0.037-8.377-0.162-16.756,0.082-25.127
				c0.105-3.664-1.148-4.686-4.707-4.631c-11.434,0.191-22.877-0.041-34.313,0.131c-3.479,0.053-4.863-0.85-4.799-4.572
				c0.199-11.748,0.074-23.498,0.074-36.008C1262.399,627.096,1276.565,627.096,1291.351,627.096z"/>
			<linearGradient id="SVGID_7_" gradientUnits="userSpaceOnUse" x1="2568.458" y1="387.5" x2="2568.458" y2="967.7209">
				<stop  offset="0.122" style="stop-color:#00005A"/>
				<stop  offset="1" style="stop-color:#30317F"/>
			</linearGradient>
			<path fill-rule="evenodd" clip-rule="evenodd" fill="url(#SVGID_7_)" d="M2580.077,426.201c0,27.461,0,55.104,0,83.266
				c28.867,0,57.293,0,86.025,0c3.506,17.521,3.104,34.535-0.016,52.113c-28.545,0-56.967,0-85.672,0
				c-0.105,2.104-0.256,3.672-0.252,5.234c0.066,55.732-0.121,111.467,0.426,167.191c0.131,12.922,1.5,26.125,4.535,38.66
				c4.779,19.77,14.307,26.393,34.623,27.975c15.91,1.24,31.451-0.816,46.887-4.361c0.6-0.137,1.219-0.193,1.973-0.314
				c4.74,11.994,5.691,24.463,6.318,36.984c0.168,3.375,0.014,6.775,0.281,10.141c0.232,2.902-0.662,4.279-3.713,4.9
				c-29.59,6-59.256,8.291-89.082,1.99c-36.805-7.771-58.787-30.656-64.508-67.682c-1.594-10.285-2.26-20.805-2.295-31.221
				c-0.207-60.885-0.102-121.77-0.105-182.656c0-2.061,0-4.121,0-6.6c-17.359,0-34.199,0-50.801,0
				c-4.246-7.863-4.154-8.719,1.096-14.582c35.359-39.447,70.725-78.887,106.031-118.379
				C2574.032,426.398,2576.142,424.549,2580.077,426.201z"/>
			<linearGradient id="SVGID_8_" gradientUnits="userSpaceOnUse" x1="1765.7764" y1="387.502" x2="1765.7764" y2="967.7219">
				<stop  offset="0.122" style="stop-color:#00005A"/>
				<stop  offset="1" style="stop-color:#30317F"/>
			</linearGradient>
			<path fill-rule="evenodd" clip-rule="evenodd" fill="url(#SVGID_8_)" d="M1852.185,567.75c-12.074,0-24.047-1.094-35.758,0.199
				c-37.354,4.127-59.459,26.221-69.525,61.527c-4.764,16.711-5.813,33.855-5.807,51.123c0.029,53.955,0.018,107.91,0.021,161.865
				c0,1.752,0,3.506,0,5.131c-10.975,4.168-48.924,4.348-65.053,0.369c0-112.617,0-225.303,0-338.705
				c6.15-0.758,12.324-2.164,18.49-2.135c11.076,0.055,22.16,0.848,33.213,1.705c1.371,0.105,3.496,2.32,3.711,3.791
				c2.363,16.049,4.418,32.143,6.631,48.811c0.986-1.385,1.938-2.691,2.854-4.02c9.541-13.797,21.301-25.385,35.127-34.828
				c14.512-9.906,30.951-14.029,48.24-14.797c8.17-0.359,16.391,0.504,24.588,0.561c3.313,0.02,4.24,1.49,4.775,4.512
				c2.945,16.549,1.93,33.01-0.6,49.471C1852.847,563.916,1852.562,565.498,1852.185,567.75z"/>
			<linearGradient id="SVGID_9_" gradientUnits="userSpaceOnUse" x1="2340.5527" y1="387.5" x2="2340.5527" y2="967.7219">
				<stop  offset="0.122" style="stop-color:#00005A"/>
				<stop  offset="1" style="stop-color:#30317F"/>
			</linearGradient>
			<path fill-rule="evenodd" clip-rule="evenodd" fill="url(#SVGID_9_)" d="M2395.343,510.09c0,1.646,0,3.377,0,5.104
				c0.004,109.045-0.025,218.086,0.109,327.127c0.006,4.539-1.047,6.463-5.785,6.99c-19.301,2.154-38.52,2.213-58.355-0.951
				c0-95.783,0-191.504,0-287.738c-12.844,0-25.047-0.26-37.23,0.131c-4.658,0.152-6.592-1.18-7.139-5.777
				c-1.66-13.98-1.949-27.898,0.535-41.822c0.434-2.428,1.156-3.607,3.926-3.602c33.984,0.096,67.971,0.072,101.955,0.096
				C2393.813,509.646,2394.272,509.844,2395.343,510.09z"/>
			<linearGradient id="SVGID_10_" gradientUnits="userSpaceOnUse" x1="2352.374" y1="387.5" x2="2352.374" y2="967.7245">
				<stop  offset="0.122" style="stop-color:#00005A"/>
				<stop  offset="1" style="stop-color:#30317F"/>
			</linearGradient>
			<path fill-rule="evenodd" clip-rule="evenodd" fill="url(#SVGID_10_)" d="M2389.562,400.979
				c-0.561,9.865-1.174,19.648-1.643,29.438c-0.133,2.85-1.053,4.199-4.172,4.621c-21.33,2.861-42.617,2.549-63.947-0.035
				c-3.252-0.391-3.607-2.303-3.668-4.512c-0.4-15.9-0.777-31.803-0.943-47.705c-0.039-3.992,0.447-8.053,1.246-11.967
				c0.271-1.299,2.182-3.059,3.518-3.23c21.146-2.703,42.311-2.814,63.504-0.26c3.381,0.408,4.332,1.771,4.48,4.809
				C2388.396,381.766,2389.011,391.389,2389.562,400.979z"/>
			<g>
				<path fill="#DE912F" d="M2320.819,885.422c1.731-0.313,3.704-0.549,5.91-0.709c2.199-0.152,4.093-0.234,5.665-0.234
					c1.738,0,3.665,0.082,5.79,0.234c2.127,0.16,4.056,0.396,5.79,0.709v169.889c-5.986,1.734-12.681,3.186-20.083,4.371
					c-7.406,1.184-15.677,1.77-24.809,1.77c-8.507,0-16.584-1.061-24.22-3.189c-7.645-2.123-14.293-5.627-19.967-10.512
					c-5.67-4.883-10.16-11.184-13.47-18.902c-3.307-7.719-4.96-17.25-4.96-28.592c0-9.766,1.452-18.666,4.37-26.701
					c2.916-8.033,7.049-14.922,12.406-20.672c5.354-5.75,11.77-10.199,19.257-13.354c7.477-3.146,15.793-4.725,24.928-4.725
					c4.095,0,8.231,0.318,12.407,0.949c4.17,0.629,7.835,1.414,10.984,2.361V885.422z M2320.819,957.961
					c-3.149-1.256-6.537-2.205-10.156-2.836c-3.63-0.625-7.562-0.945-11.816-0.945c-6.46,0-12.05,1.184-16.775,3.547
					c-4.727,2.361-8.628,5.592-11.696,9.686c-3.073,4.1-5.362,8.943-6.854,14.533c-1.498,5.592-2.243,11.697-2.243,18.311
					c0.152,14.967,3.7,25.678,10.632,32.137c6.931,6.461,16.383,9.684,28.353,9.684c4.093,0,7.875-0.193,11.342-0.586
					c3.466-0.393,6.534-0.986,9.215-1.777V957.961z"/>
				<path fill="#DE912F" d="M2445.577,978.754c0-9.291-2.363-15.748-7.086-19.373c-4.73-3.625-11.582-5.438-20.559-5.438
					c-5.515,0-10.674,0.438-15.477,1.303c-4.807,0.867-9.494,2.01-14.059,3.424c-2.995-5.197-4.491-11.418-4.491-18.666
					c5.355-1.732,11.26-3.07,17.722-4.018c6.454-0.943,12.679-1.414,18.666-1.414c15.752,0,27.723,3.58,35.917,10.746
					c8.187,7.172,12.286,18.631,12.286,34.381v75.848c-5.516,1.262-12.209,2.561-20.085,3.898c-7.878,1.336-15.911,2.006-24.1,2.006
					c-7.719,0-14.69-0.705-20.911-2.125c-6.227-1.416-11.499-3.697-15.834-6.852c-4.333-3.148-7.678-7.168-10.038-12.051
					c-2.365-4.879-3.547-10.789-3.547-17.723c0-6.768,1.378-12.717,4.137-17.836c2.756-5.119,6.497-9.371,11.222-12.758
					c4.724-3.389,10.16-5.91,16.304-7.564c6.145-1.65,12.599-2.48,19.376-2.48c5.04,0,9.175,0.117,12.405,0.354
					c3.224,0.238,5.943,0.512,8.151,0.828V978.754z M2445.577,1001.676c-2.363-0.316-5.357-0.629-8.977-0.945
					c-3.631-0.314-6.701-0.475-9.22-0.475c-9.765,0-17.21,1.813-22.325,5.436c-5.122,3.625-7.68,9.139-7.68,16.539
					c0,4.727,0.86,8.428,2.597,11.105c1.732,2.68,3.898,4.727,6.5,6.145c2.597,1.414,5.469,2.285,8.625,2.596
					c3.146,0.32,6.14,0.475,8.979,0.475c3.619,0,7.358-0.197,11.22-0.592c3.861-0.389,7.289-0.979,10.281-1.771V1001.676z"/>
				<path fill="#DE912F" d="M2508.195,956.07h-18.435l-0.943-3.307l40.638-45.367h1.892v30.008h30.717
					c0.629,2.68,0.945,5.672,0.945,8.979c0,1.736-0.08,3.391-0.235,4.963c-0.157,1.576-0.396,3.154-0.71,4.725h-30.717v55.291
					c0,6.617,0.272,11.895,0.827,15.832c0.553,3.939,1.492,6.971,2.837,9.096c1.335,2.127,3.146,3.547,5.43,4.254
					c2.285,0.709,5.161,1.063,8.623,1.063c2.68,0,5.203-0.195,7.566-0.59c2.362-0.391,4.49-0.828,6.379-1.303
					c1.102,3.154,1.771,6.383,2.01,9.691c0.236,3.307,0.354,6.225,0.354,8.744c-3.153,0.785-6.46,1.377-9.924,1.77
					c-3.467,0.391-7.171,0.59-11.106,0.59c-11.342,0-20.201-2.752-26.578-8.268c-6.382-5.514-9.568-14.652-9.568-27.408V956.07z"/>
				<path fill="#DE912F" d="M2652.321,978.754c0-9.289-2.361-15.748-7.09-19.373c-4.724-3.625-11.575-5.438-20.555-5.438
					c-5.517,0-10.678,0.438-15.479,1.303c-4.807,0.867-9.489,2.01-14.055,3.424c-2.998-5.197-4.49-11.418-4.49-18.666
					c5.351-1.732,11.257-3.07,17.722-4.018c6.454-0.943,12.675-1.414,18.665-1.414c15.75,0,27.721,3.58,35.913,10.746
					c8.188,7.172,12.288,18.633,12.288,34.381v75.848c-5.52,1.262-12.209,2.564-20.085,3.898c-7.88,1.336-15.913,2.006-24.102,2.006
					c-7.723,0-14.69-0.705-20.91-2.125c-6.225-1.416-11.5-3.697-15.831-6.852c-4.335-3.146-7.679-7.168-10.04-12.051
					c-2.365-4.879-3.547-10.789-3.547-17.723c0-6.768,1.376-12.717,4.135-17.836c2.754-5.119,6.497-9.371,11.224-12.758
					c4.727-3.389,10.163-5.908,16.303-7.563c6.146-1.652,12.602-2.482,19.379-2.482c5.034,0,9.171,0.117,12.399,0.354
					c3.23,0.238,5.947,0.512,8.155,0.828V978.754z M2652.321,1001.676c-2.361-0.313-5.359-0.629-8.979-0.945
					c-3.626-0.314-6.696-0.473-9.215-0.473c-9.768,0-17.211,1.811-22.326,5.434c-5.124,3.627-7.686,9.139-7.686,16.539
					c0,4.727,0.867,8.428,2.604,11.105c1.728,2.68,3.898,4.727,6.497,6.145c2.595,1.418,5.47,2.285,8.623,2.6
					c3.149,0.316,6.144,0.471,8.981,0.471c3.619,0,7.36-0.197,11.222-0.592c3.857-0.387,7.284-0.979,10.278-1.77V1001.676z"/>
			</g>
		</g>
	</g>
</g>
</svg>
