<?xml version="1.0" encoding="iso-8859-1"?>
<!-- Generator: Adobe Illustrator 19.0.0, SVG Export Plug-In . SVG Version: 6.00 Build 0)  -->
<svg version="1.1" id="Layer_1" xmlns="http://www.w3.org/2000/svg" xmlns:xlink="http://www.w3.org/1999/xlink" x="0px" y="0px"
	 viewBox="0 0 500 500" style="enable-background:new 0 0 500 500;" xml:space="preserve">
<g>
	<path style="fill:#53AE94;" d="M4.535,217.49c16.888-109.076,94.272-183,199.59-210.437c28.532-7.433,75.282-2.429,77.285-2.124
		C418.8,25.861,509.734,143.95,494.052,281.125c-15.284,133.694-144.298,232.571-278.019,213.076
		C109.574,478.68,28.277,401.435,6.826,295.622C5.497,289.067,0.521,251.875,4.535,217.49z M219.405,282.761
		c0,39.4,0,77.88,0,116.537c20.523,0,40.095,0,60.558,0c0-39.1,0-77.59,0-116.531c7.885-0.637,14.937-1.14,21.977-1.789
		c26.211-2.414,52.296-5.521,77.209-14.733c5.681-2.101,11.175-4.623,15.647-8.809c5.571-5.214,5.604-10.283,0.124-15.533
		c-4.433-4.246-9.955-6.723-15.611-8.868c-19.359-7.342-39.617-10.64-60.043-13.002c-12.962-1.499-25.981-2.505-38.769-3.713
		c0-12.381,0-23.983,0-36.592c27.936,0,55.154,0,82.55,0c0-18.932,0-36.823,0-54.843c-76.13,0-151.588,0-227.289,0
		c0,18.539,0,36.499,0,55.296c27.801,0,55.082,0,82.883,0c0,12.464,0,24.087,0,36.319c-17.824,1.385-35.279,2.433-52.527,5.237
		c-19.741,3.209-39.628,6.226-57.32,16.362c-12.324,7.06-12.287,15.438-0.299,22.841c9.919,6.125,21.084,9.051,32.282,11.728
		C166.163,278.735,192.099,280.75,219.405,282.761z"/>
	<path style="fill:#FDFEFD;" d="M219.405,282.761c-27.306-2.012-53.243-4.026-78.626-10.093
		c-11.199-2.677-22.363-5.603-32.282-11.728c-11.989-7.403-12.025-15.781,0.299-22.841c17.692-10.136,37.579-13.152,57.32-16.362
		c17.248-2.804,34.704-3.852,52.527-5.237c0-12.232,0-23.855,0-36.319c-27.802,0-55.083,0-82.883,0c0-18.796,0-36.756,0-55.296
		c75.701,0,151.159,0,227.289,0c0,18.02,0,35.911,0,54.843c-27.397,0-54.614,0-82.55,0c0,12.609,0,24.211,0,36.592
		c12.788,1.208,25.807,2.214,38.769,3.713c20.425,2.363,40.684,5.66,60.043,13.002c5.656,2.145,11.178,4.622,15.611,8.868
		c5.481,5.25,5.447,10.319-0.124,15.533c-4.472,4.186-9.966,6.708-15.647,8.809c-24.914,9.212-50.999,12.319-77.209,14.733
		c-7.039,0.648-14.092,1.151-21.977,1.789c0,38.941,0,77.43,0,116.531c-20.463,0-40.035,0-60.558,0
		C219.405,360.641,219.405,322.162,219.405,282.761z M219.13,221.37c-24.653,0.57-47.72,3.084-70.539,7.814
		c-9.66,2.002-19.303,4.302-27.91,9.367c-8.95,5.267-8.843,11.162,0.169,16.505c6.664,3.951,14.046,6.11,21.532,7.818
		c48.547,11.079,97.788,11.367,147.136,8.953c24.358-1.192,48.598-3.814,72.211-10.44c6.343-1.78,12.642-3.774,18.057-7.655
		c6.282-4.503,6.328-9.248,0.226-13.823c-4.212-3.158-9.1-5.08-14.089-6.553c-27.25-8.046-55.243-10.96-83.518-11.794
		c-0.696-0.021-1.411,0.627-3.032,1.397c0,12.706,0,25.707,0,39.348c-20.504,0.737-40.009,1.178-60.242-0.359
		C219.13,248.017,219.13,235.225,219.13,221.37z"/>
	<path style="fill:#53AE94;" d="M219.13,221.37c0,13.855,0,26.647,0,40.577c20.234,1.538,39.738,1.096,60.242,0.359
		c0-13.641,0-26.642,0-39.348c1.621-0.77,2.336-1.418,3.032-1.397c28.275,0.834,56.268,3.748,83.518,11.794
		c4.989,1.473,9.877,3.395,14.089,6.553c6.102,4.575,6.057,9.321-0.226,13.823c-5.415,3.881-11.714,5.875-18.057,7.655
		c-23.613,6.626-47.853,9.248-72.211,10.44c-49.348,2.414-98.589,2.126-147.136-8.953c-7.486-1.708-14.868-3.867-21.532-7.818
		c-9.012-5.344-9.119-11.239-0.169-16.505c8.607-5.065,18.251-7.365,27.91-9.367C171.409,224.454,194.477,221.94,219.13,221.37z"/>
</g>
</svg>
