<?xml version="1.0" encoding="UTF-8"?>
<svg width="163px" height="56px" viewBox="0 0 163 56" version="1.1" xmlns="http://www.w3.org/2000/svg" xmlns:xlink="http://www.w3.org/1999/xlink">
    <!-- Generator: Sketch 48.2 (47327) - http://www.bohemiancoding.com/sketch -->
    <title>logo2</title>
    <desc>Created with Sketch.</desc>
    <defs>
        <linearGradient x1="48.9641718%" y1="85.3553571%" x2="26.7793865%" y2="156.066071%" id="linearGradient-1">
            <stop stop-color="#C79DFC" offset="0%"></stop>
            <stop stop-color="#40BEFD" offset="100%"></stop>
        </linearGradient>
        <linearGradient x1="156.065918%" y1="85.3553722%" x2="85.3552601%" y2="156.066093%" id="linearGradient-2">
            <stop stop-color="#C79DFC" offset="0%"></stop>
            <stop stop-color="#40BEFD" offset="100%"></stop>
        </linearGradient>
        <linearGradient x1="47.5937423%" y1="81.0923214%" x2="26.0298773%" y2="148.271429%" id="linearGradient-3">
            <stop stop-color="#AC9DFC" offset="0%"></stop>
            <stop stop-color="#40BEFD" offset="100%"></stop>
        </linearGradient>
        <linearGradient x1="156.06602%" y1="85.3552372%" x2="85.3553269%" y2="156.06586%" id="linearGradient-4">
            <stop stop-color="#AC9DFC" offset="0%"></stop>
            <stop stop-color="#40BEFD" offset="100%"></stop>
        </linearGradient>
        <linearGradient x1="49.1544172%" y1="3.51958929%" x2="50.5021411%" y2="97.6308393%" id="linearGradient-5">
            <stop stop-color="#71B5FF" offset="0%"></stop>
            <stop stop-color="#84F1E2" offset="100%"></stop>
        </linearGradient>
        <linearGradient x1="156.280517%" y1="4.13495711%" x2="160.565442%" y2="114.700559%" id="linearGradient-6">
            <stop stop-color="#71B5FF" offset="0%"></stop>
            <stop stop-color="#84F1E2" offset="100%"></stop>
        </linearGradient>
        <linearGradient x1="46.9535583%" y1="3.20376786%" x2="48.2409387%" y2="88.8696607%" id="linearGradient-7">
            <stop stop-color="#71B5FF" offset="0%"></stop>
            <stop stop-color="#84F1E2" offset="100%"></stop>
        </linearGradient>
        <linearGradient x1="156.280795%" y1="4.13497837%" x2="160.565728%" y2="114.70056%" id="linearGradient-8">
            <stop stop-color="#71B5FF" offset="0%"></stop>
            <stop stop-color="#84F1E2" offset="100%"></stop>
        </linearGradient>
    </defs>
    <g id="Homepage" stroke="none" stroke-width="1" fill="none" fill-rule="evenodd">
        <g id="logo2" fill-rule="nonzero">
            <g id="Group-2" transform="translate(64.000000, 23.000000)" fill="#2F347C">
                <g id="Path">
                    <g id="Vector">
                        <g id="path0_fill-link" transform="translate(0.600000, 0.830000)">
                            <path d="M3.36946,16.8481 L9.24196,16.8481 C11.5284,16.8481 12.6114,15.765 12.6114,13.4785 L12.6114,0 L9.14569,0 L9.14569,13.1896 C9.14569,13.5507 9.02535,13.671 8.66434,13.671 L3.94709,13.671 C3.58607,13.671 3.46573,13.5507 3.46573,13.1896 L3.46573,0 L0,0 L0,13.4785 C0,15.765 1.08304,16.8481 3.36946,16.8481 Z" id="path0_fill"></path>
                        </g>
                    </g>
                </g>
                <g id="UTRUST" transform="translate(17.000000, 0.000000)">
                    <g id="Vector">
                        <g id="path1_fill-link" transform="translate(0.500000, 0.830000)">
                            <path d="M4.57002,16.8481 L8.03362,16.8481 L8.03362,3.12893 L12.6036,3.12893 L12.6036,0 L1.3148e-14,0 L1.3148e-14,3.12893 L4.57002,3.12893 L4.57002,16.8481 Z M27.0192,10.7106 L29.8815,16.8481 L26.1533,16.8481 L23.3632,10.9031 L20.5731,10.9031 L20.5731,16.8481 L17.1095,16.8481 L17.1095,0 L25.985,0 C28.27,0 29.3524,1.08309 29.3524,3.36961 L29.3524,7.43722 C29.3524,9.33864 28.6067,10.4217 27.0192,10.7106 Z M20.5731,7.82232 L25.4077,7.82232 C25.7685,7.82232 25.8888,7.70198 25.8888,7.34095 L25.8888,3.6103 C25.8888,3.24927 25.7685,3.12893 25.4077,3.12893 L20.5731,3.12893 L20.5731,7.82232 Z M37.9472,16.8481 L43.8161,16.8481 C46.1011,16.8481 47.1835,15.765 47.1835,13.4785 L47.1835,0 L43.7199,0 L43.7199,13.1896 C43.7199,13.5507 43.5996,13.671 43.2388,13.671 L38.5245,13.671 C38.1637,13.671 38.0434,13.5507 38.0434,13.1896 L38.0434,0 L34.5798,0 L34.5798,13.4785 C34.5798,15.765 35.6622,16.8481 37.9472,16.8481 Z M55.6821,16.8481 L61.2142,16.8481 C63.4992,16.8481 64.5816,15.765 64.5816,13.4785 L64.5816,10.6865 C64.5816,8.52031 63.2347,7.67791 61.118,7.2206 L56.6442,6.25785 C56.0188,6.11344 55.8264,5.96903 55.8264,5.43952 L55.8264,3.6103 C55.8264,3.24927 55.9467,3.12893 56.3075,3.12893 L60.4445,3.12893 C60.8053,3.12893 60.9256,3.24927 60.9256,3.6103 L60.9256,5.29511 L64.293,5.29511 L64.293,3.36961 C64.293,1.08309 63.2106,0 60.9256,0 L55.7302,0 C53.4452,0 52.3628,1.08309 52.3628,3.36961 L52.3628,5.96903 C52.3628,8.13521 53.7098,8.97761 55.8264,9.43492 L60.3002,10.3977 C60.9256,10.5421 61.118,10.6865 61.118,11.216 L61.118,13.2378 C61.118,13.5988 60.9978,13.7191 60.637,13.7191 L56.1632,13.7191 C55.8024,13.7191 55.6821,13.5988 55.6821,13.2378 L55.6821,11.3604 L52.3147,11.3604 L52.3147,13.4785 C52.3147,15.765 53.3971,16.8481 55.6821,16.8481 Z M73.1524,16.8481 L76.616,16.8481 L76.616,3.12893 L81.186,3.12893 L81.186,0 L68.5824,0 L68.5824,3.12893 L73.1524,3.12893 L73.1524,16.8481 Z" id="path1_fill"></path>
                        </g>
                    </g>
                </g>
            </g>
            <g id="Group-20">
                <g id="Group-15">
                    <g id="Combined-Shape" opacity="0.6" transform="translate(1.000000, 0.000000)" fill="url(#linearGradient-2)">
                        <g id="Vector">
                            <g id="path2_fill-link">
                                <path d="M8.9563,54.5624 C0.494581,50.8552 -5.04304,30.8875 6.79149,13.8758 C18.626,-3.13601 34.915,-2.73453 43.5761,5.60493 C52.2372,13.9444 54.6812,28.5696 44.3744,41.823 C34.0677,55.0764 17.418,58.2697 8.9563,54.5624 Z M11.4353,53.7373 C19.4775,56.7237 28.1985,54.243 40.9212,38.7697 C53.6438,23.2964 49.3829,12.7377 43.1324,7.14701 C36.8819,1.55633 21.1608,2.66525 9.32629,19.677 C-2.50824,36.6888 3.39302,50.751 11.4353,53.7373 Z" id="path2_fill"></path>
                            </g>
                        </g>
                    </g>
                    <g id="Combined-Shape" opacity="0.2" style="mix-blend-mode: multiply;" transform="translate(1.000000, 1.000000)" fill="url(#linearGradient-4)">
                        <g id="Vector" style="mix-blend-mode: multiply;">
                            <g id="path3_fill-link" style="mix-blend-mode: multiply;" transform="translate(0.900000, 0.990000)">
                                <path d="M24.3146,51.8952 C20.4848,53.3792 17.0035,53.4869 13.7651,52.7842 C11.7427,52.5843 9.9906,52.1355 8.64997,51.4625 C1.61142,47.9287 -5.50725,32.5101 6.32728,15.4983 C18.1618,-1.51343 33.8609,-3.58916 42.5221,4.7503 C51.1832,13.0898 52.6671,27.5319 43.3679,39.9402 C38.5202,46.4087 31.2047,50.2246 24.3146,51.8952 Z M24.3146,51.8952 C29.2407,49.9863 34.7434,45.8005 41.0474,38.1335 C53.7701,22.6602 47.8707,10.2421 43.0418,5.78949 C35.1818,-1.45813 19.1391,2.09656 7.83405,18.4837 C-3.47104,34.8708 2.78149,48.9288 10.8237,51.9151 C11.783,52.2713 12.7624,52.5666 13.7651,52.7842 C16.8256,53.0866 20.5051,52.8188 24.3146,51.8952 Z" id="path3_fill"></path>
                            </g>
                        </g>
                    </g>
                    <g id="Combined-Shape" opacity="0.8" transform="translate(0.000000, 6.000000)" fill="url(#linearGradient-6)">
                        <g id="Vector">
                            <g id="path4_fill-link" transform="translate(0.000000, 0.790000)">
                                <path d="M19.6236,46.5533 C4.82184,42.3386 -1.93722,26.527 0.480279,16.1793 C2.89778,5.83152 19.9888,-4.48487 33.3144,2.04072 C46.64,8.56631 53.9754,21.5851 50.3406,31.9829 C46.7057,42.3807 34.4253,50.7679 19.6236,46.5533 Z M21.1453,42.3386 C33.9626,46.1211 45.5625,40.4733 49.2378,31.2153 C52.9132,21.9573 43.9017,10.7155 31.86,6.89045 C19.8182,3.06544 3.93305,7.8552 1.48797,16.1793 C-0.957114,24.5034 8.328,38.5562 21.1453,42.3386 Z" id="path4_fill"></path>
                            </g>
                        </g>
                    </g>
                    <g id="Combined-Shape" opacity="0.2" style="mix-blend-mode: multiply;" transform="translate(0.000000, 9.000000)" fill="url(#linearGradient-8)">
                        <g id="Vector" style="mix-blend-mode: multiply;">
                            <g id="path5_fill-link" style="mix-blend-mode: multiply;" transform="translate(0.900000, 0.710000)">
                                <path d="M-1.64423142e-10,18.5331 C1.34237,26.9894 9.91602,38.0445 20.4643,41.1573 C32.9569,44.844 43.6707,38.3984 48.0128,30.0709 C44.3757,40.4665 29.0586,46.2265 18.1884,41.9817 C8.46056,38.183 -0.0491567,28.039 -1.64423142e-10,18.5331 Z M6.71206,6.47839 C13.9814,0.836342 25.7463,-2.14876 33.9745,1.80381 C42.6841,5.98762 48.1163,13.6258 48.9723,21.4991 C47.276,14.3716 40.2706,6.99609 31.4783,4.09692 C23.3541,1.4181 13.2705,2.80068 6.71206,6.47839 Z" id="path5_fill"></path>
                            </g>
                        </g>
                    </g>
                </g>
                <g id="Group-14" transform="translate(19.000000, 19.000000)" fill="#2F347C">
                    <g id="T">
                        <g id="Vector">
                            <g id="path6_fill-link" transform="translate(0.800000, 0.220000)">
                                <polygon id="path6_fill" points="4.42818 18.4957 8.21337 18.4957 8.21337 3.43491 12.6416 3.43491 12.6416 0 0 0 0 3.43491 4.42818 3.43491"></polygon>
                            </g>
                        </g>
                    </g>
                    <g id="U" transform="translate(0.000000, 4.000000)">
                        <g id="Vector">
                            <g id="path7_fill-link" transform="translate(0.800000, 0.640000)">
                                <path d="M3.36618,18.2735 L9.23295,18.2735 C11.5171,18.2735 12.5991,17.1874 12.5991,14.8944 L12.5991,4.91142e-16 L9.27408,4.91142e-16 L9.27408,14.7421 C9.27408,15.1042 9.15386,15.2248 8.7932,15.2248 L3.80593,15.2248 C3.44526,15.2248 3.32504,15.1042 3.32504,14.7421 L3.32504,4.91142e-16 L9.51472e-18,4.91142e-16 L9.51472e-18,14.8944 C9.51472e-18,17.1874 1.08199,18.2735 3.36618,18.2735 Z" id="path7_fill"></path>
                            </g>
                        </g>
                    </g>
                </g>
            </g>
        </g>
    </g>
</svg>
