<svg height="47" viewBox="0 0 182 47" width="182" xmlns="http://www.w3.org/2000/svg"><g fill="none" fill-rule="evenodd" transform=""><path d="m57.0234375 8.3359375v7.0239258c0 1.166998-.3649866 2.0898403-1.0949707 2.7685547-.7299841.6787143-1.7272886 1.0180664-2.9919434 1.0180664-1.2451234 0-2.233883-.3295866-2.9663086-.9887696-.7324255-.6591829-1.1059569-1.5649356-1.1206054-2.7172851v-7.1044922h2.1972656v7.0385742c0 .6982457.1672347 1.2072738.501709 1.5270996s.7971162.4797364 1.3879394.4797364c1.2353578 0 1.8627929-.6494076 1.8823243-1.9482422v-7.097168zm11.4736327 10.6640625h-2.1972656l-4.2773438-7.0166016v7.0166016h-2.1972656v-10.6640625h2.1972656l4.284668 7.03125v-7.03125h2.1899414zm5.255371 0h-2.1972656v-10.6640625h2.1972656zm10.8510741-8.8842773h-3.2666015v8.8842773h-2.1972657v-8.8842773h-3.2226562v-1.7797852h8.6865234zm8.668457 4.2626953h-4.21875v2.8564453h4.9511718v1.7651367h-7.1484375v-10.6640625h7.1337891v1.7797852h-4.9365234v2.5415039h4.21875zm3.0214842 4.621582v-10.6640625h3.28125c.9375045 0 1.7761195.21117953 2.5158695.63354492.739749.42236539 1.317136 1.02294533 1.732177 1.80175778.415042.7788125.622559 1.6638134.622559 2.6550293v.4907227c0 .9912159-.203855 1.8725547-.611572 2.644043-.407717.7714882-.982663 1.3696267-1.724854 1.7944336-.742191.4248068-1.579585.6396484-2.5122068.6445312zm2.1972657-8.8842773v7.1191406h1.0620117c.8593791 0 1.5161111-.2807589 1.9702151-.8422852.454104-.5615262.686035-1.3647408.695801-2.4096679v-.5639649c0-1.0839898-.224608-1.9055148-.673829-2.4645996s-1.105952-.838623-1.9702145-.838623zm20.8745118 0h-3.266602v8.8842773h-2.197266v-8.8842773h-3.222656v-1.7797852h8.686524zm6.200195 4.9804687h-1.750488v3.9038086h-2.197266v-10.6640625h3.962402c1.259772 0 2.231442.28075891 2.915039.84228516.683598.56152624 1.025391 1.35497534 1.025391 2.38037114 0 .7275427-.157469 1.334226-.472412 1.8200683s-.792233.8728013-1.431885 1.1608887l2.307129 4.3579101v.1025391h-2.358398zm-1.750488-1.7797852h1.772461c.55176 0 .979002-.1403794 1.281738-.4211425.302736-.2807632.454101-.6677222.454101-1.1608887 0-.5029322-.14282-.8984361-.428466-1.1865234-.285646-.2880874-.723874-.4321289-1.314698-.4321289h-1.765136zm14.395996 3.4863282h-3.852539l-.732422 2.1972656h-2.336426l3.969726-10.6640625h2.036133l3.991699 10.6640625h-2.336425zm-3.259278-1.7797852h2.666016l-1.340332-3.9916992zm8.331543 3.9770508v-10.6640625h3.28125c.937505 0 1.776119.21117953 2.515869.63354492s1.317137 1.02294533 1.732178 1.80175778c.415041.7788125.622559 1.6638134.622559 2.6550293v.4907227c0 .9912159-.203856 1.8725547-.611573 2.644043-.407717.7714882-.982662 1.3696267-1.724853 1.7944336-.742191.4248068-1.579585.6396484-2.512207.6445312zm2.197266-8.8842773v7.1191406h1.062011c.85938 0 1.516111-.2807589 1.970215-.8422852.454104-.5615262.686035-1.3647408.695801-2.4096679v-.5639649c0-1.0839898-.224607-1.9055148-.673828-2.4645996s-1.105953-.838623-1.970215-.838623zm14.967285 4.2626953h-4.21875v2.8564453h4.951172v1.7651367h-7.148438v-10.6640625h7.133789v1.7797852h-4.936523v2.5415039h4.21875zm6.969238.7177734h-1.750488v3.9038086h-2.197266v-10.6640625h3.962402c1.259772 0 2.231442.28075891 2.915039.84228516.683598.56152624 1.025391 1.35497534 1.025391 2.38037114 0 .7275427-.157469 1.334226-.472412 1.8200683s-.792233.8728013-1.431885 1.1608887l2.307129 4.3579101v.1025391h-2.358398zm-1.750488-1.7797852h1.772461c.55176 0 .979002-.1403794 1.281738-.4211425.302736-.2807632.454101-.6677222.454101-1.1608887 0-.5029322-.14282-.8984361-.428466-1.1865234-.285646-.2880874-.723874-.4321289-1.314698-.4321289h-1.765136zm13.905273 2.8857422c0-.4150411-.146483-.7336414-.439453-.9558105s-.820309-.4565417-1.582031-.703125c-.761723-.2465833-1.364744-.4895008-1.809082-.7287598-1.210944-.6543001-1.816407-1.535639-1.816407-2.6440429 0-.5761748.162352-1.0900857.487061-1.54174809.324709-.45166242.791013-.80444209 1.398926-1.05834961s1.290279-.38085938 2.047119-.38085938c.761722 0 1.440427.13793808 2.036133.41381836.595706.27588029 1.058348.66528069 1.387939 1.1682129.329592.50293222.494385 1.07421552.494385 1.71386722h-2.197266c0-.4882837-.153807-.8679186-.461426-1.1389161-.307618-.2709974-.739743-.40649409-1.296386-.40649409-.537112 0-.954589.11352429-1.252442.34057619s-.446777.5261212-.446777.8972168c0 .3466814.174559.6372058.523682.871582.349122.2343762.863033.4541005 1.541748.6591797 1.250006.3759784 2.160641.8422824 2.731933 1.3989258s.856934 1.2499958.856934 2.0800781c0 .9228562-.349118 1.6467259-1.047363 2.1716309-.698246.5249049-1.638178.7873535-2.819825.7873535-.820316 0-1.567379-.150145-2.241211-.4504395-.673831-.3002944-1.187742-.7116673-1.541748-1.2341308-.354005-.5224636-.531005-1.1279263-.531005-1.8164063h2.204589c0 1.1767637.703118 1.7651367 2.109375 1.7651367.522464 0 .930175-.1062001 1.223145-.3186035s.439453-.5090313.439453-.8898926zm-122.965819 12.2910157h-3.4277343v9.5068359h-1.3989258v-9.5068359h-3.4204102v-1.1572266h8.2470703zm10.5800781 4.5190429c0 1.0449271-.1757795 1.9567832-.5273438 2.7355957s-.8496061 1.373289-1.4941406 1.7834473-1.3964801.6152344-2.2558594.6152344c-.8398479 0-1.5844694-.2062968-2.2338867-.6188965s-1.1535627-1.0009728-1.5124512-1.7651367c-.3588885-.764164-.5432128-1.6491649-.5529785-2.6550293v-.769043c0-1.0253957.1782209-1.9311484.534668-2.7172851.3564471-.7861368.8605924-1.3879374 1.5124511-1.80542.6518588-.4174825 1.3977009-.6262207 2.2375489-.6262207.8544964 0 1.6076627.2062968 2.2595215.6188965.6518587.4125997 1.1535626 1.0107383 1.5051269 1.7944336s.5273438 1.6955514.5273438 2.7355957zm-1.3989258-.6884765c0-1.2646548-.2539037-2.2351041-.7617188-2.911377-.507815-.6762729-1.2182571-1.0144043-2.1313476-1.0144043-.8886763 0-1.5881322.3381314-2.0983887 1.0144043s-.772705 1.6149842-.7873535 2.8161621v.7836914c0 1.2255921.2575658 2.1887172.7727051 2.8894043s1.2243607 1.0510254 2.1276855 1.0510254c.9082077 0 1.6113256-.3308072 2.109375-.9924316s.7543945-1.6101013.769043-2.845459zm7.2182616.7177734-1.3037109 1.3549805v3.6035156h-1.40625v-10.6640625h1.40625v5.2734375l4.7387695-5.2734375h1.6992187l-4.1967773 4.7094727 4.5263672 5.9545898h-1.6845703zm13.7221679.0292969h-4.6215821v3.7792969h5.3686524v1.1499023h-6.7749024v-10.6640625h6.7016602v1.1572266h-5.2954102v3.4277343h4.6215821zm11.6933592 4.9291992h-1.4135742l-5.3686523-8.2177734v8.2177734h-1.4135742v-10.6640625h1.4135742l5.3833008 8.2543945v-8.2543945h1.3989257z" fill="#000"/><path d="m20 41v-36h8v26c-.0451094 4.9556849-3.4006253 8.822432-8 10zm-14-10v-26h8v36c-4.59746496-1.177568-7.95488302-5.0443151-8-10zm-6-31v29.6304348c.09004476 9.6792751 7.6673111 17.3695652 16.4848485 17.3695652 9.8469399 0 17.4237561-7.6902901 17.5151515-17.3695652v-29.6304348z" fill="#ed4040"/></g></svg>