<?xml version="1.0" encoding="utf-8"?>
<!-- Generator: Adobe Illustrator 22.0.1, SVG Export Plug-In . SVG Version: 6.00 Build 0)  -->
<svg version="1.1" id="Layer_1" xmlns="http://www.w3.org/2000/svg" xmlns:xlink="http://www.w3.org/1999/xlink" x="0px" y="0px"
	 viewBox="0 0 293.4 78.6" style="enable-background:new 0 0 293.4 78.6;" xml:space="preserve">
<style type="text/css">
	.st0{fill:#BDBEC0;}
	.st1{fill:#7CCCBF;}
	.st2{fill:#3F415B;}
	.st3{fill:none;}
	.st4{fill:#F04F38;}
	.st5{fill:#E07A5F;}
	.st6{fill:#231F20;}
	.st7{fill:#FFFFFF;}
</style>
<path class="st5" d="M173.4,46.4c-0.2,0.2-0.2,0.4-0.2,0.6v5c0,0.2,0.1,0.4,0.3,0.6c0.2,0.1,0.4,0.2,0.6,0.2h5
	c0.2,0,0.5-0.1,0.6-0.3c0.2-0.2,0.2-0.4,0.2-0.6v-5c0-0.2-0.1-0.4-0.3-0.6c-0.2-0.2-0.4-0.2-0.6-0.2h-5
	C173.8,46.2,173.6,46.3,173.4,46.4z"/>
<path class="st1" d="M186,31.4c0.1-1,0.3-2,0.7-3.1c0.4-1.1,1-2.1,1.8-3.1c0.8-1,1.9-1.8,3.1-2.4c1.3-0.6,2.8-0.9,4.6-1
	c1.5,0,2.8,0.2,4,0.7c1.2,0.5,2.2,1.1,3,1.9c0.8,0.8,1.4,1.7,1.9,2.7c0.4,1,0.6,2.1,0.6,3.2c0,0.2,0.1,0.3,0.2,0.4
	c0.2,0.1,0.4,0.2,0.6,0.2h1.6c0.3,0,0.4-0.1,0.5-0.2c0.1-0.2,0.2-0.4,0.2-0.6c0-1.5-0.3-2.9-0.9-4.3c-0.6-1.4-1.5-2.6-2.5-3.6
	c-1.1-1-2.4-1.9-3.9-2.5c-1.5-0.6-3.3-0.9-5.1-0.9c-2,0-3.8,0.3-5.4,1c-1.6,0.6-3,1.6-4.1,2.7c-1.2,1.2-2.1,2.5-2.7,4
	c-0.7,1.5-1.4,4.7-1.5,6.5c-0.1,0.9-0.1,2-0.1,3.1c0,1.1,0,2.7,0,3.4c0,2.5,1.4,5.9,1.6,6.5c0.7,1.5,1.6,2.9,2.7,4
	c1.2,1.2,2.5,2.1,4.1,2.7c1.6,0.7,3.4,1,5.4,1c1.9,0,3.6-0.3,5.1-0.9c1.5-0.6,2.8-1.4,3.9-2.5c1.1-1,1.9-2.2,2.5-3.6
	c0.6-1.3,0.9-2.8,0.9-4.3c0-0.2-0.1-0.4-0.3-0.6c-0.2-0.2-0.4-0.2-0.6-0.2h-1.4c-0.2,0-0.4,0-0.6,0.2c-0.1,0.1-0.2,0.2-0.2,0.5
	c0,1-0.2,2-0.6,2.9c-0.4,1-1,1.9-1.7,2.7c-0.8,0.8-1.8,1.5-2.9,2c-1.2,0.5-2.6,0.8-4.2,0.8c-1.8,0-3.4-0.3-4.6-1
	c-1.3-0.6-2.3-1.4-3.1-2.4c-0.8-1-1.4-2-1.8-3.1c-0.4-1.1-0.6-2.1-0.7-3.1c-0.1-0.9-0.1-1.9-0.2-3.2c0-1.1,0-2.3,0-3.5
	C185.9,33.3,185.9,32.3,186,31.4z"/>
<path class="st1" d="M234.7,21.5c-1.1-0.9-2.4-1.6-3.8-2c-2.7-0.8-5.9-0.9-8.9-0.1c-1.4,0.4-2.6,1-3.7,1.8c-1.1,0.8-2,1.7-2.6,2.9
	c-0.6,1.1-1,2.5-1,4c0,0.3,0.1,0.5,0.2,0.7c0.1,0.1,0.3,0.2,0.7,0.2h0.9c0.2,0,0.4,0,0.6,0c0.1,0,0.2-0.1,0.3-0.2
	c0,0,0.1-0.1,0.1-0.5c0-1,0.3-1.9,0.8-2.8c0.5-0.8,1.2-1.5,2-2.1c0.8-0.6,1.7-1,2.7-1.3c1-0.3,2.1-0.5,3.2-0.5c1.7,0,3.3,0.4,4.6,1
	c1.3,0.7,2.4,1.7,3.2,2.9c0.8,1.2,1.2,2.7,1.2,4.3v2.7c0,0.3-0.1,0.6-0.3,0.9c-0.3,0.2-0.6,0.4-0.9,0.4H224c-2.4,0-4.3,0.4-6,1.3
	c-1.6,0.8-2.8,2-3.7,3.4c-0.8,1.4-1.3,3.1-1.3,4.9c0,1.4,0.2,2.8,0.7,4c0.5,1.3,1.2,2.4,2.2,3.4c1,1,2.3,1.8,3.8,2.3
	c1.5,0.6,3.3,0.9,5.4,0.9c1.2,0,2.3-0.1,3.3-0.4c1-0.3,1.8-0.5,2.5-0.9c0.7-0.3,1.4-0.6,1.9-0.9c0.6-0.3,1.1-0.5,1.5-0.5
	c0.5,0,0.8,0.2,1.1,0.4c0.2,0.2,0.3,0.4,0.5,0.7c0.1,0.2,0.2,0.4,0.3,0.6c0,0,0.1,0.1,0.1,0.1c0.1,0.1,0.2,0.1,0.4,0.1h0.6
	c0.2,0,0.4-0.1,0.6-0.3c0.2-0.2,0.2-0.4,0.2-0.6V29.8c0-1.9-0.3-3.5-0.9-4.9C236.6,23.5,235.8,22.4,234.7,21.5z M235.4,41.8
	c0,3-1,5.3-2.8,6.8c-1.8,1.6-4.4,2.3-7.7,2.4c-1.1,0-2.2-0.2-3.3-0.5c-1-0.3-2-0.8-2.8-1.4c-0.8-0.7-1.5-1.5-1.9-2.5
	c-0.5-1-0.7-2.1-0.7-3.4c0-1.5,0.4-2.7,1.1-3.8c0.7-1,1.7-1.8,2.9-2.3c1.2-0.5,2.4-0.7,3.8-0.7h10.1c0.3,0,0.6,0.1,0.9,0.3
	c0.2,0.3,0.4,0.6,0.4,0.9V41.8z"/>
<path class="st1" d="M234.1,32.5C234.1,32.5,234.1,32.5,234.1,32.5C234.1,32.5,234.1,32.5,234.1,32.5
	C234.1,32.5,234.1,32.5,234.1,32.5z"/>
<path class="st1" d="M259.2,19.5c-1.6,0-2.9,0.1-3.8,0.4c-0.9,0.2-1.7,0.5-2.4,0.9c-0.6,0.4-1.1,0.7-1.5,1.1c-0.4,0.4-0.8,0.7-1.1,1
	c-0.4,0.3-0.8,0.5-1.3,0.5c-0.6,0-1-0.3-1.2-0.7c-0.2-0.4-0.3-0.8-0.4-1.2c0-0.3-0.1-0.6-0.1-0.8l0-0.2c-0.1-0.4-0.2-0.6-0.4-0.8
	c-0.1-0.1-0.2-0.2-0.5-0.2h-0.9c-0.2,0-0.4,0.1-0.6,0.3c-0.1,0.2-0.2,0.4-0.2,0.6v31.9c0,0.2,0.1,0.4,0.3,0.6
	c0.2,0.1,0.4,0.2,0.6,0.2h1.3c0.2,0,0.4-0.1,0.6-0.3c0.1-0.2,0.2-0.4,0.2-0.6V34.9c0-2.4,0.3-4.4,1-6c0.6-1.6,1.5-2.9,2.6-3.9
	c1.1-0.9,2.3-1.6,3.7-2c1.3-0.4,2.7-0.6,4-0.6h0.2c0.2,0,0.4-0.1,0.6-0.3c0.1-0.2,0.2-0.4,0.2-0.6v-1.2c0-0.3-0.1-0.5-0.3-0.6
	C259.6,19.6,259.4,19.5,259.2,19.5z"/>
<path class="st1" d="M287,27c-0.7-1.6-1.6-3-2.8-4.2c-1.2-1.2-2.6-2.2-4.2-2.9c-1.6-0.7-3.4-1-5.2-1.1c-2,0-3.8,0.3-5.5,1
	c-1.6,0.6-3,1.6-4.2,2.7c-1.2,1.1-2.1,2.5-2.8,4c-0.7,1.6-1.1,3.2-1.2,5c-0.1,0.9-0.1,2-0.1,3.1c0,1.1,0,2.3,0,3.4
	c0,1.1,0.1,2.2,0.1,3.1c0.1,1.7,0.5,3.4,1.2,5c0.7,1.5,1.6,2.9,2.8,4c1.2,1.2,2.6,2.1,4.2,2.7c1.6,0.7,3.5,1,5.5,1
	c2.3,0,4.4-0.5,6.3-1.3c1.8-0.8,3.3-2,4.5-3.5c1.1-1.5,1.9-3.2,2.2-5.1c0.1-0.4-0.1-0.6-0.1-0.6c-0.1-0.1-0.3-0.2-0.5-0.2h-1.4
	c-0.2,0-0.4,0.1-0.7,0.2c-0.2,0.1-0.3,0.3-0.4,0.6c-0.3,0.8-0.7,1.7-1.2,2.5c-0.5,0.8-1.2,1.5-2,2.2c-0.8,0.7-1.8,1.2-2.9,1.6
	c-1.1,0.4-2.4,0.6-3.7,0.6c-1.9,0-3.5-0.3-4.8-0.9c-1.3-0.6-2.5-1.5-3.4-2.6c-0.9-1.1-1.5-2.4-1.9-3.9c-0.4-1.5-0.6-3.1-0.6-4.8
	c0-0.3,0.1-0.6,0.3-0.9c0.3-0.2,0.6-0.4,0.9-0.4h22c0.2,0,0.4-0.1,0.6-0.3c0.2-0.2,0.2-0.4,0.2-0.6v-4.4C288,30.3,287.6,28.6,287,27
	z M284.9,34.3L284.9,34.3c-0.3,0.2-0.6,0.4-0.9,0.4h-18.7c-0.3,0-0.6-0.1-0.9-0.3c-0.2-0.3-0.4-0.6-0.4-0.9c0-2.5,0.5-4.6,1.3-6.2
	c0.9-1.7,2.1-3.1,3.7-4c1.6-0.9,3.5-1.4,5.6-1.4c2,0,3.8,0.5,5.4,1.4c1.6,0.9,2.9,2.2,3.7,4c0.9,1.7,1.4,3.8,1.4,6.2
	C285.2,33.7,285.1,34,284.9,34.3z"/>
<g>
	<path class="st2" d="M122.8,19.1c0-0.1-0.1-0.2-0.3-0.4c-0.1-0.1-0.3-0.1-0.6-0.1h-7.2c-0.2,0-0.4,0-0.5,0.1
		c-0.1,0.1-0.2,0.3-0.3,0.5l-5.8,20.2c-0.2,0.7-0.7,0.8-0.9,0.8c-0.2,0-0.7-0.1-1-0.8L100,19.3c-0.1-0.3-0.2-0.5-0.3-0.5
		c-0.1-0.1-0.3-0.1-0.5-0.1c-2.5,0-5,0.1-7.4,0.1c-2.5,0.1-4.9,0.1-7.4,0.1c-0.4,0-0.7-0.1-0.9-0.4c-0.2-0.2-0.3-0.5-0.3-0.9V6.6
		C83,6.4,83,6.2,82.8,6c-0.2-0.2-0.4-0.2-0.6-0.2h-6.4c-0.2,0-0.5,0.1-0.6,0.3c-0.2,0.2-0.2,0.4-0.2,0.6v10.9c0,0.4-0.1,0.7-0.4,0.9
		c-0.2,0.2-0.5,0.4-0.9,0.4h-5.6c-0.2,0-0.5,0.1-0.6,0.3c-0.2,0.2-0.2,0.4-0.2,0.6v5.7c0,0.2,0.1,0.4,0.3,0.6
		c0.2,0.2,0.4,0.2,0.6,0.2h5.5c0.3,0,0.7,0.1,0.9,0.3c0.2,0.3,0.4,0.6,0.4,0.9v13.1c0,2.6,0.6,4.9,1.6,6.7c1.1,1.8,3.4,5,5.2,5
		c0.9,0,2.6-0.7,4.2-0.7c3.1,0,4.5,1.5,6.1,1.5c1.6,0,1.7-1.2,1.7-1.5v-5.4c0-0.2-0.1-0.5-0.3-0.6c-0.2-0.2-0.4-0.2-0.6-0.2h-5
		c-1,0-1.8-0.2-2.5-0.7c-0.7-0.4-1.3-1-1.7-1.7c-0.4-0.7-0.6-1.6-0.6-2.4v-13c0-0.3,0.1-0.7,0.3-0.9c0.3-0.2,0.6-0.4,0.9-0.4l9.2,0
		l9.4,24.9c0.2,0.4,0.2,0.7,0.2,1c0,0.2-0.1,0.5-0.2,0.9l-5,13.3c-0.1,0.1-0.1,0.2,0,0.4c0,0.2,0.1,0.3,0.3,0.4
		c0.1,0.1,0.3,0.1,0.6,0.1h6.5c0.2,0,0.4,0,0.5-0.1c0.1-0.1,0.3-0.3,0.4-0.6l16.7-47.2C122.9,19.3,122.9,19.2,122.8,19.1L122.8,19.1
		z"/>
</g>
<path class="st5" d="M35.9,59c-1.5,0-2.8,1.3-2.8,2.8c0,1.5,1.3,2.8,2.8,2.8c1.5,0,2.8-1.3,2.8-2.8c0-0.7-0.3-1.4-0.8-2
	C37.3,59.3,36.6,59,35.9,59z"/>
<path class="st5" d="M63.3,61.8c0-0.7-0.3-1.4-0.8-2c-0.5-0.5-1.2-0.8-2-0.8c-1.5,0-2.8,1.3-2.8,2.8c0,1.5,1.3,2.8,2.8,2.8
	C62,64.6,63.3,63.3,63.3,61.8z"/>
<path class="st5" d="M28.3,65.2c0.1,0.3,0.2,0.5,0.4,0.8c0,0,0,0.1,0.1,0.1l0,0c0.2,0.3,0.5,0.7,0.7,1c0.1,0.2,0.2,0.3,0.4,0.5
	c0.1,0.1,0.1,0.1,0.2,0.1c1.1,1,2.4,1.8,3.8,2.1l0,0c2.2,0.5,4.6,0.2,6.5-1c3.3-1,5.8-1.5,7.8-1.5c0.2,0,0.4,0,0.7,0
	c0.4,0,0.7,0,1.1,0.1c1.3,0.1,2.9,0.4,4.4,1c0.3,0.1,0.6,0.2,1,0.3c1.2,0.8,2.5,1.4,3.8,1.5c0.5,0.1,1,0.1,1.5,0.1l0.1,0
	c2.1-0.1,4.1-1,5.6-2.5c3.3-3.3,3.3-8.7,0-12c-1.7-1.7-3.6-2.5-6.6-2.5c-0.7,0-1.8,0.3-2.8,0.6c-0.5,0.2-1,0.4-1.5,0.6
	c-0.5,0.2-1,0.5-1.5,0.7c-1.6,0.7-3.4,1.2-5.7,1.2c-2.5,0-4.3-0.8-6.1-1.6c-0.1,0-0.1-0.1-0.2-0.1c-0.6-0.3-1.3-0.6-1.9-0.8v7.7h0
	c0,0,0,0,0,0.1c0,1.1-0.4,2.2-1.3,3c-0.5,0.5-1.2,0.9-1.9,1.1c-0.4,0.1-0.7,0.2-1.1,0.2c-1.1,0-2.2-0.4-3-1.3
	c-0.8-0.8-1.3-1.9-1.3-3c0-1.2,0.5-3.1,2.3-3.9c0.5-0.2,1.2-0.4,1.9-0.4c1.2,0,2.1,0.4,2.8,1v-5c-1-0.3-2.1-0.5-3.2-0.4l-0.1,0
	c-2.1,0.1-4,1-5.4,2.5c-1.6,1.6-2.5,3.7-2.5,6c0,1.2,0.3,2.4,0.8,3.4C28.3,65.1,28.3,65.1,28.3,65.2z M60.5,57.5
	C60.5,57.5,60.5,57.5,60.5,57.5c1.2,0,2.2,0.4,3.1,1.3c0.8,0.8,1.3,1.9,1.3,3v0v0c0,1.1-0.4,2.2-1.3,3c0,0,0,0,0,0v0
	c-0.7,0.7-1.6,1.1-2.5,1.2c0,0,0,0,0,0c-0.2,0-0.4,0.1-0.6,0.1c-1.1,0-2.2-0.4-3-1.3c-0.8-0.8-1.3-1.9-1.3-3
	C56.2,59.4,58.1,57.5,60.5,57.5z"/>
<g>
	<g>
		<path class="st3" d="M25.3,30.5c-0.1-1.5-0.7-2.7-1.7-3.5c-1-0.8-2.4-1.2-4.3-1.2c-1.2,0-2.3,0.2-3.1,0.6c-0.9,0.4-1.5,1-2,1.7
			c-0.5,0.7-0.7,1.5-0.8,2.4c-0.1,0.7-0.1,1.6-0.1,2.5c0,0.9,0,1.9,0,2.9c0,1,0,2,0,2.9c0,0.9,0.1,1.8,0.1,2.5
			c0.1,0.9,0.3,1.7,0.8,2.4c0.5,0.7,1.1,1.3,2,1.7c0.8,0.4,1.9,0.6,3.1,0.6c1.3,0,2.3-0.2,3.1-0.6c0.9-0.4,1.5-1,2-1.7
			c0.5-0.7,0.7-1.5,0.8-2.5c0.1-0.7,0.1-1.6,0.1-2.5v0c0-0.9,0-1.9,0-2.9c0-1,0-2,0-2.9C25.4,32,25.4,31.2,25.3,30.5z"/>
		<g>
			<path class="st3" d="M25.3,30.5c-0.1-1.5-0.7-2.7-1.7-3.5c-1-0.8-2.4-1.2-4.3-1.2c-1.2,0-2.3,0.2-3.1,0.6c-0.9,0.4-1.5,1-2,1.7
				c-0.5,0.7-0.7,1.5-0.8,2.4c-0.1,0.7-0.1,1.6-0.1,2.5c0,0.9,0,1.9,0,2.9c0,1,0,2,0,2.9c0,0.9,0.1,1.8,0.1,2.5
				c0.1,0.9,0.3,1.7,0.8,2.4c0.5,0.7,1.1,1.3,2,1.7c0.8,0.4,1.9,0.6,3.1,0.6c1.3,0,2.3-0.2,3.1-0.6c0.9-0.4,1.5-1,2-1.7
				c0.5-0.7,0.7-1.5,0.8-2.5c0.1-0.7,0.1-1.6,0.1-2.5v0c0-0.9,0-1.9,0-2.9c0-1,0-2,0-2.9C25.4,32,25.4,31.2,25.3,30.5z"/>
			<path class="st2" d="M33.4,49.8c0-1.5,0-45.3,0-45.3c0-0.2-0.1-0.5-0.3-0.6c-0.2-0.2-0.4-0.2-0.6-0.2h-6.4
				c-0.2,0-0.4,0.1-0.6,0.3c-0.2,0.2-0.2,0.4-0.3,0.6v12.1c0,0.7-0.1,1.2-0.4,1.5c-0.3,0.4-0.7,0.6-1.1,0.7c-0.5,0-0.9,0-1.3-0.2
				c-0.5-0.2-1-0.4-1.7-0.6c-0.6-0.1-1.4-0.2-2.4-0.2c-1.8,0-3.5,0.3-5,1c-1.5,0.6-2.8,1.5-4,2.7c-1.2,1.1-2.1,2.5-2.8,4
				c-0.7,1.5-1.1,3.2-1.3,5c0,0.7-0.1,1.5-0.1,2.4c0,0.9,0,1.9,0,2.9c0,1,0,1.9,0,2.9c0,0.9,0.1,1.7,0.1,2.5c0.1,1.8,0.6,3.5,1.3,5
				c0.7,1.5,1.6,2.9,2.8,4c1.1,1.1,2.5,2.1,4,2.7c1.5,0.6,3.2,1,5,1c1.2,0,2.3-0.1,3-0.4c0.8-0.2,1.4-0.5,1.9-0.8
				c0.5-0.3,1-0.6,1.4-0.8c0.5-0.3,1.1-0.4,1.6-0.5c0.5,0,1,0.1,1.3,0.5c0.5,0.5,1,1,1.9,0.9c0.3,0,1.6-0.7,1.9-0.9
				c0.3-0.2,1.6-0.7,1.7-0.9C33.3,50.7,33.4,50.4,33.4,49.8z M25.4,38.7L25.4,38.7c0,0.9-0.1,1.8-0.1,2.5c-0.1,0.9-0.4,1.8-0.8,2.5
				c-0.5,0.7-1.2,1.3-2,1.7c-0.8,0.4-1.9,0.6-3.1,0.6c-1.2,0-2.3-0.2-3.1-0.6c-0.9-0.4-1.5-1-2-1.7c-0.5-0.7-0.7-1.5-0.8-2.4
				c-0.1-0.7-0.1-1.5-0.1-2.5c0-0.9,0-1.9,0-2.9c0-1,0-2,0-2.9c0-0.9,0.1-1.8,0.1-2.5c0.1-0.9,0.3-1.7,0.8-2.4
				c0.5-0.7,1.1-1.3,2-1.7c0.8-0.4,1.9-0.6,3.1-0.6c1.9,0,3.3,0.4,4.3,1.2c1,0.9,1.6,2,1.7,3.5c0.1,0.7,0.1,1.6,0.1,2.5
				c0,0.9,0,1.9,0,2.9C25.5,36.8,25.4,37.8,25.4,38.7z"/>
		</g>
	</g>
</g>
<path class="st5" d="M91.9,56.5c-1.7-1.7-4-2.5-6.3-2.4l-0.1,0l-0.1,0c-1.1,0-2.4,0.6-3.9,1.3c-2,0.9-4.3,2-7.4,2
	c-0.7,0-1.3-0.1-1.9-0.1c-0.2,0-0.5-0.1-0.7-0.2c-0.3-0.1-0.7-0.1-1-0.2c-0.3-0.1-0.6-0.2-0.8-0.3c-0.2-0.1-0.4-0.1-0.6-0.2
	c-0.4-0.2-0.8-0.4-1.2-0.5c0,0,0,0,0,0c3.2,3.5,3.4,8.8,0.5,12.5c2.2-0.6,4-0.8,5.5-0.8c1.9,0,4.7,0.3,7.4,1.5
	c1.6,1.1,3.4,1.7,5.2,1.6c2.1-0.1,4-1,5.4-2.4C95.1,64.8,95.1,59.7,91.9,56.5z M89.5,65.5c-0.9,0.9-2.1,1.4-3.4,1.4
	c-1.2,0-2.4-0.5-3.4-1.4c-0.9-0.9-1.4-2.1-1.4-3.4s0.5-2.5,1.4-3.3c0.9-0.9,2.1-1.4,3.3-1.4c0,0,0,0,0,0c1.3,0,2.5,0.5,3.4,1.4
	c0.6,0.6,1,1.4,1.2,2.2c-0.1,0-1.4,0.3-1.5,0.3c-0.1-0.5-0.4-1-0.8-1.4C87.8,59.3,87,59,86.2,59c0,0,0,0,0,0c-0.9,0-1.7,0.3-2.3,0.9
	c-0.6,0.6-0.9,1.4-0.9,2.3c0,0.9,0.3,1.7,0.9,2.3c1.2,1.2,3.3,1.2,4.5,0c0.4-0.4,0.7-0.9,0.8-1.4c0.1,0,1.4,0.2,1.5,0.2
	C90.6,64,90.2,64.8,89.5,65.5z"/>
<g>
	<g>
		<path class="st2" d="M54.1,52.5c0.5-0.2,1-0.4,1.5-0.7c0.5-0.2,1-0.5,1.5-0.6c0.9-0.4,2-0.6,2.8-0.6c3,0,3.2,0.5,3.7,0.5
			c0.5,0,0.8-0.4,0.8-0.9c0-4.9,0-30.7,0-30.7c0-0.2-0.1-0.5-0.3-0.6c-0.2-0.2-0.4-0.2-0.6-0.2H57c-0.2,0-0.4,0.1-0.6,0.3
			c-0.2,0.2-0.2,0.4-0.2,0.6v22.1c0,0.8-0.2,1.6-0.7,2.3c-0.5,0.7-1.2,1.2-2.1,1.6c-0.8,0.4-1.9,0.6-3.1,0.6c-1.2,0-2.3-0.2-3.1-0.6
			c-0.9-0.4-1.6-1-2-1.7c-0.5-0.7-0.7-1.5-0.7-2.4V19.5c0-0.2-0.1-0.5-0.3-0.6c-0.2-0.2-0.4-0.2-0.6-0.2h-6.4
			c-0.2,0-0.5,0.1-0.6,0.3c-0.2,0.2-0.2,0.4-0.2,0.6v21.7c0,1.8,0.4,3.5,1,5c0.7,1.5,1.6,2.9,2.8,4c0.9,0.9,1.9,1.6,3,2.2
			c1.6,0.7,3.2,1.3,5.4,1.3C50.7,53.7,52.5,53.1,54.1,52.5z"/>
	</g>
</g>
<path class="st2" d="M154.2,26.7h5.6c0.2,0,0.4,0.1,0.5,0.2c0.1,0.1,0.2,0.3,0.2,0.5v24.1c0,0.4,0.2,0.7,0.4,1
	c0.3,0.3,0.6,0.4,1,0.4h6.3c0.4,0,0.7-0.1,1-0.4c0.3-0.3,0.4-0.6,0.4-1V27.4c0-0.2,0.1-0.4,0.2-0.5c0.1-0.1,0.3-0.2,0.5-0.2h8.3
	c0.4,0,0.7-0.1,1-0.4c0.3-0.3,0.4-0.6,0.4-1v-5.6c0-0.4-0.1-0.7-0.4-1c-0.3-0.3-0.6-0.4-1-0.4h-8.3c-0.2,0-0.4-0.1-0.5-0.2
	c-0.1-0.1-0.2-0.3-0.2-0.5v-1.2c0-0.8,0.2-1.4,0.6-2c0.4-0.6,0.9-1,1.5-1.3c0.6-0.3,1.3-0.5,2.1-0.5h4.2c0.4,0,0.7-0.2,1-0.4
	c0.3-0.3,0.4-0.6,0.4-1V5c0-0.4-0.1-0.7-0.4-1c-0.3-0.3-0.6-0.4-1-0.4h-4.2c-1.8,0-3.5,0.3-5.1,1c-1.6,0.6-3,1.5-4.2,2.7
	c-1.2,1.1-2.2,2.5-2.8,4c-0.7,1.5-1,3.2-1,5v1.4c0,0.2-0.1,0.4-0.2,0.5c-0.1,0.1-0.3,0.2-0.5,0.2h-5.6c-0.4,0-0.7,0.1-1,0.4
	c-0.3,0.3-0.4,0.6-0.4,1v5.6c0,0.4,0.2,0.7,0.4,1C153.5,26.6,153.9,26.7,154.2,26.7z"/>
<path class="st2" d="M123.6,40.8c0.2,1.8,0.7,3.5,1.4,5.1c0.7,1.6,1.7,2.9,2.9,4.1c1.2,1.2,2.7,2.1,4.4,2.7c1.7,0.6,3.6,1,5.7,1
	c2.1,0,4-0.3,5.7-1c1.7-0.6,3.1-1.6,4.3-2.7c1.2-1.2,2.2-2.5,2.9-4.1c0.7-1.6,1.2-3.3,1.4-5.1c0.1-0.7,0.1-1.5,0.2-2.4
	c0-0.9,0.1-1.8,0.1-2.8c0-1,0-1.9-0.1-2.8c0-0.9-0.1-1.7-0.2-2.4c-0.2-1.8-0.7-3.5-1.4-5.1c-0.7-1.6-1.7-2.9-2.9-4.1
	c-1.2-1.2-2.7-2.1-4.4-2.7c-1.7-0.7-3.6-1-5.7-1c-2.1,0-4,0.3-5.7,1c-1.7,0.6-3.1,1.6-4.3,2.7c-1.2,1.2-2.2,2.5-2.9,4.1
	c-0.7,1.6-1.2,3.3-1.4,5.1c-0.1,0.7-0.1,1.5-0.2,2.4c0,0.9-0.1,1.8-0.1,2.8c0,1,0,1.9,0.1,2.8C123.4,39.3,123.5,40.1,123.6,40.8z
	 M132.3,32.8c0-0.9,0.1-1.7,0.2-2.4c0.1-0.9,0.4-1.6,0.8-2.2c0.4-0.6,1-1,1.7-1.3c0.7-0.3,1.7-0.4,2.8-0.4c1.8,0,3.1,0.4,3.9,1.1
	c0.8,0.7,1.4,1.6,1.5,2.8c0.1,0.7,0.2,1.5,0.2,2.4c0.1,0.9,0.1,1.8,0.1,2.8c0,1,0,1.9-0.1,2.8c0,0.9-0.1,1.7-0.2,2.4
	c-0.2,1.2-0.7,2.1-1.5,2.8c-0.9,0.7-2.2,1.1-3.9,1.1c-1.7,0-3-0.4-3.8-1c-0.8-0.7-1.3-1.6-1.5-2.9c-0.1-0.7-0.2-1.5-0.2-2.4
	c-0.1-0.9-0.1-1.8-0.1-2.8C132.3,34.6,132.3,33.7,132.3,32.8z"/>
</svg>
