<?xml version="1.0" encoding="utf-8"?>
<!-- Generator: Adobe Illustrator 23.0.1, SVG Export Plug-In . SVG Version: 6.00 Build 0)  -->
<svg version="1.1" id="logo_x5F_horizontal_x5F_color_x5F_text_x5F_dark"
	 xmlns="http://www.w3.org/2000/svg" xmlns:xlink="http://www.w3.org/1999/xlink" x="0px" y="0px" viewBox="0 0 253 82.9"
	 style="enable-background:new 0 0 253 82.9;" xml:space="preserve">
<style type="text/css">
	.st0{fill:#37474F;}
	.st1{fill:url(#SVGID_1_);}
	.st2{opacity:0.5;}
	.st3{fill:url(#SVGID_2_);}
</style>
<g>
	<g>
		<g>
			<path class="st0" d="M1.4,57.1V25.9c0-0.3,0.1-0.4,0.4-0.4h11.5c2,0,3.6,0.6,4.9,1.8c1.2,1.2,1.8,2.8,1.8,4.9v3.3
				c0,3.1-1.5,5.1-4.4,5.9c1.2,0.1,2.3,0.6,3.2,1.7c1,1.1,1.4,2.5,1.4,4.2v3.6c0,2.1-0.6,3.7-1.8,4.9c-1.2,1.2-2.8,1.8-4.9,1.8H1.8
				C1.5,57.5,1.4,57.4,1.4,57.1z M3.3,40.6h9.8c1.7,0,3-0.5,4-1.4c0.9-0.9,1.4-2.2,1.4-3.9v-3.2c0-1.7-0.4-3-1.3-3.9
				c-0.9-0.9-2.2-1.4-3.8-1.4h-10c-0.3,0-0.4,0.1-0.4,0.4v12.9C2.9,40.5,3,40.6,3.3,40.6z M3.3,56.1h10.3c1.7,0,2.9-0.5,3.8-1.4
				c0.9-0.9,1.3-2.2,1.3-3.9v-3.5c0-3.5-1.9-5.3-5.7-5.3H3.2c-0.3,0-0.4,0.1-0.4,0.4v13.3C2.9,56,3,56.1,3.3,56.1z"/>
			<path class="st0" d="M51,57.5H35.3c-0.3,0-0.4-0.1-0.4-0.4V25.9c0-0.3,0.1-0.4,0.4-0.4H36c0.3,0,0.4,0.2,0.4,0.4v29.7
				c0,0.3,0.1,0.4,0.4,0.4h14.1c0.3,0,0.4,0.1,0.4,0.4v0.7C51.5,57.4,51.3,57.5,51,57.5z"/>
			<path class="st0" d="M76.3,57.5h-6.2c-2,0-3.6-0.6-4.9-1.8c-1.2-1.2-1.8-2.9-1.8-4.9V32.3c0-2.1,0.6-3.7,1.8-4.9
				c1.2-1.2,2.8-1.8,4.9-1.8h6.2c2,0,3.6,0.6,4.9,1.8c1.2,1.2,1.8,2.9,1.8,4.9v18.5c0,2.1-0.6,3.7-1.8,4.9
				C79.9,56.9,78.3,57.5,76.3,57.5z M70.1,56.1h6.2c1.7,0,2.9-0.5,3.8-1.4c0.9-1,1.3-2.3,1.3-4V32.3c0-1.7-0.4-3-1.3-4
				s-2.2-1.4-3.8-1.4h-6.2c-1.7,0-2.9,0.5-3.8,1.4c-0.9,1-1.3,2.3-1.3,4v18.4c0,1.7,0.4,3,1.3,4C67.1,55.6,68.4,56.1,70.1,56.1z"/>
			<path class="st0" d="M110.5,57.5H104c-2,0-3.6-0.6-4.9-1.8c-1.2-1.2-1.8-2.9-1.8-4.9V32.3c0-2.1,0.6-3.7,1.8-4.9
				c1.2-1.2,2.8-1.8,4.9-1.8h6.5c2,0,3.6,0.6,4.9,1.8s1.8,2.9,1.8,4.9v2.5c0,0.3-0.1,0.4-0.4,0.4h-0.7c-0.3,0-0.4-0.1-0.4-0.4v-2.4
				c0-1.7-0.4-3-1.3-4c-0.9-1-2.2-1.4-3.8-1.4h-6.5c-1.7,0-2.9,0.5-3.8,1.4c-0.9,1-1.3,2.3-1.3,4v18.4c0,1.7,0.4,3,1.3,4
				c0.9,1,2.2,1.4,3.8,1.4h6.5c1.7,0,2.9-0.5,3.8-1.4c0.9-1,1.3-2.3,1.3-4v-2.4c0-0.3,0.1-0.4,0.4-0.4h0.7c0.3,0,0.4,0.2,0.4,0.4
				v2.5c0,2.1-0.6,3.7-1.8,4.9S112.6,57.5,110.5,57.5z"/>
			<path class="st0" d="M132.5,57.5h-0.7c-0.3,0-0.4-0.1-0.4-0.4V25.9c0-0.3,0.1-0.4,0.4-0.4h0.7c0.3,0,0.4,0.2,0.4,0.4v19.6h0.2
				c0.2-0.4,0.4-0.8,0.7-1.2l14-18.3c0.2-0.3,0.5-0.4,0.8-0.4h0.9c0.3,0,0.4,0.2,0.1,0.4l-10.2,13.5l11.8,17.6
				c0.2,0.3,0.1,0.4-0.2,0.4h-0.8c-0.3,0-0.5-0.1-0.7-0.4l-11-16.4l-5.7,6.8v9.6C132.9,57.4,132.7,57.5,132.5,57.5z"/>
		</g>
		<g>
			<g>
				<g>
					
						<linearGradient id="SVGID_1_" gradientUnits="userSpaceOnUse" x1="208.3853" y1="697.5001" x2="208.3853" y2="617.4752" gradientTransform="matrix(1 0 0 1 0 -616)">
						<stop  offset="0" style="stop-color:#546E7A"/>
						<stop  offset="1" style="stop-color:#77929E"/>
					</linearGradient>
					<path class="st1" d="M236.4,1.5c-8.3,0-15,6.7-15,15s6.7,15,15,15s15-6.7,15-15S244.7,1.5,236.4,1.5z M189.4,2l30.9,57.5
						c0.2,0.3,0.2,0.7,0,1l-11,20.5c-0.4,0.7-1.4,0.7-1.8,0L165.6,3c-0.4-0.7,0.1-1.5,0.9-1.5h22.1C188.8,1.5,189.2,1.7,189.4,2z"/>
				</g>
			</g>
			<g class="st2">
				
					<linearGradient id="SVGID_2_" gradientUnits="userSpaceOnUse" x1="192.1353" y1="697.5001" x2="192.1353" y2="617.4752" gradientTransform="matrix(1 0 0 1 0 -616)">
					<stop  offset="0" style="stop-color:#263238"/>
					<stop  offset="1" style="stop-color:#263136;stop-opacity:0"/>
				</linearGradient>
				<path class="st3" d="M184,26.9c-6.2-8.1-12.9-17.3-17.6-25.4l0,0c-0.8,0-1.3,0.8-0.9,1.5l41.9,78c0.4,0.7,1.4,0.7,1.8,0
					l9.8-18.3C207.3,53.2,195.2,41.6,184,26.9z"/>
			</g>
		</g>
	</g>
</g>
</svg>
