<svg xmlns="http://www.w3.org/2000/svg" viewBox="0 0 500 127.99"><defs><style>.cls-1,.cls-3{fill:#263744;}.cls-1{fill-rule:evenodd;}.cls-2{fill:#e48189;}</style></defs><title>VETRI blue</title><g id="Ebene_2" data-name="Ebene 2"><g id="Ebene_1-2" data-name="Ebene 1"><path class="cls-1" d="M491.63,83.91V44.07H500V83.91ZM424,68.63V83.91h-8.37V44.07h11.5q8.06,0,11.91,3t3.86,9A10.6,10.6,0,0,1,441,62.26a12.65,12.65,0,0,1-5.43,4.29Q444.45,80,447.15,83.91h-9.29l-9.42-15.28Zm0-6.87h2.7q4,0,5.86-1.34a4.78,4.78,0,0,0,1.89-4.19,4.38,4.38,0,0,0-1.93-4,11.74,11.74,0,0,0-6-1.19H424ZM359.3,83.91h-8.37V51.1H340.21v-7H370v7H359.3Zm-63,0H273.59V44.07h22.74V51H282v8.74h13.37v6.92H282V76.94h14.37ZM220.66,44.07h8.45L215.69,83.91h-9.13l-13.4-39.84h8.46L209,67.78q.63,2.1,1.29,4.89c.44,1.86.71,3.16.82,3.89a69.27,69.27,0,0,1,2-8.78Z"/><polygon class="cls-2" points="89.18 23.2 79.17 45.76 36.27 31.01 22.5 0 89.18 23.2"/><path class="cls-3" d="M115.5,7.09l-9.66-4.26a7,7,0,0,0-9.26,3.59L89.12,23.2l-10,22.56L61,86.6,36.27,31,22.5,0,0,9.92,51.77,128H70.15L119.1,16.35A7,7,0,0,0,115.5,7.09Z"/></g></g></svg>