<svg width="35" height="36" viewBox="0 0 35 36" fill="none" xmlns="http://www.w3.org/2000/svg">
<path d="M4.04671e-07 9.26594C4.04671e-07 6.67682 4.04671e-07 4.09109 4.04671e-07 1.50198C4.04671e-07 1.34609 0.00663033 1.1902 0.0464111 1.04109C0.208849 0.407364 0.76578 -0.0196378 1.4089 0.000695621C2.04208 0.021029 2.56586 0.47853 2.69515 1.10209C2.71504 1.1902 2.71835 1.28509 2.72498 1.37659C2.7283 1.41048 2.72498 1.44437 2.72498 1.47826C2.72498 6.66327 2.72498 11.8483 2.72498 17.0333C2.72498 17.1858 2.71504 17.3349 2.67857 17.4806C2.51945 18.1245 1.93268 18.5617 1.27298 18.5176C0.566875 18.4702 0.0961364 17.9144 0.01989 17.3451C0.00662972 17.2332 4.04671e-07 17.1214 4.04671e-07 17.013C4.04671e-07 15.0169 4.04671e-07 13.0208 4.04671e-07 11.0282C4.04671e-07 10.4419 4.04671e-07 9.85222 4.04671e-07 9.26594Z" transform="translate(16.1348 17.4793)" fill="white"/>
<path d="M2.72646 9.25511C2.72646 11.8578 2.72646 14.4605 2.72646 17.0631C2.72646 17.2156 2.7132 17.3647 2.67341 17.5105C2.51429 18.1035 1.95736 18.5644 1.27777 18.5237C0.664486 18.4899 0.130761 18.012 0.024679 17.3817C0.00810369 17.2868 0.00810329 17.1885 0.00147316 17.0902C-0.0018419 17.0462 0.00147316 17.0021 0.00147316 16.9581C0.00147316 11.8103 0.00147316 6.666 0.00147316 1.51826C0.00147316 1.36915 0.00810369 1.21665 0.0412543 1.07093C0.200377 0.376204 0.8435 -0.0745192 1.53635 0.0102033C2.14632 0.084759 2.70657 0.610038 2.72646 1.35898C2.72646 1.4166 2.72646 1.47421 2.72646 1.53521C2.72646 4.10738 2.72646 6.67955 2.72646 9.25511Z" transform="translate(10.7529 8.68234)" fill="white"/>
<path d="M0.00294632 9.25515C0.00294632 6.66265 0.00294632 4.07014 0.00294632 1.47763C0.00294632 1.34547 0.00626219 1.21669 0.0327827 1.08791C0.172015 0.447409 0.732261 -0.00670293 1.37538 7.48646e-05C2.01519 0.00685266 2.56881 0.47452 2.69146 1.11841C2.70804 1.20313 2.71135 1.29124 2.71798 1.37936C2.7213 1.40308 2.71798 1.4268 2.71798 1.45052C2.71798 6.65587 2.71798 11.8578 2.71798 17.0632C2.71798 17.1852 2.71467 17.3038 2.69146 17.4258C2.56218 18.0595 2.01188 18.5204 1.37538 18.5238C0.732261 18.5306 0.1687 18.0764 0.036097 17.4359C0.0162066 17.3377 0.00957645 17.236 0.00294632 17.1343C-0.00368381 16.9988 0.00294632 16.8632 0.00294632 16.7277C0.00294632 14.2368 0.00294632 11.746 0.00294632 9.25515Z" transform="translate(26.8926)" fill="white"/>
<path d="M2.71983 9.26665C2.71983 11.8693 2.71983 14.472 2.71983 17.0747C2.71983 17.2272 2.70988 17.3763 2.66679 17.522C2.4944 18.1185 1.93747 18.559 1.27114 18.5183C0.618075 18.4743 0.124131 17.9761 0.0246792 17.3898C0.011419 17.3153 0.00810349 17.2373 0.00147336 17.1594C-0.0018417 17.1221 0.00147336 17.0814 0.00147336 17.0442C0.00147336 11.849 0.00147336 6.65381 0.00147336 1.45863C0.00147336 1.30274 0.0147328 1.15024 0.0545136 0.997738C0.210322 0.441959 0.730787 -0.0290973 1.42032 0.00140279C2.07007 0.0319029 2.59717 0.513127 2.70325 1.16041C2.71983 1.2553 2.71983 1.35357 2.71983 1.45185C2.71983 3.13613 2.71983 4.82042 2.71983 6.5047C2.71983 7.42309 2.71983 8.34487 2.71983 9.26665Z" transform="translate(21.5137 8.68784)" fill="white"/>
<path d="M1.01168e-07 9.25561C1.01168e-07 6.65972 1.01168e-07 4.06043 1.01168e-07 1.46454C1.01168e-07 1.29509 0.0132604 1.12565 0.0663014 0.962983C0.265205 0.342815 0.842026 -0.0435193 1.45863 0.00392527C2.11833 0.0547587 2.6189 0.563093 2.70841 1.20021C2.71504 1.24426 2.71504 1.28832 2.71835 1.33237C2.72167 1.38998 2.72167 1.4476 2.72167 1.5086C2.72167 6.68005 2.72167 11.8481 2.72167 17.0196C2.72167 17.1619 2.72167 17.3009 2.69183 17.4398C2.55923 18.0634 2.01224 18.5209 1.37907 18.5276C0.742574 18.5344 0.179013 18.0871 0.0397808 17.4567C0.0198904 17.3686 0.0132603 17.2737 0.00663013 17.1822C0 17.1212 0.00331486 17.0569 0.00331486 16.9925C-2.02286e-07 14.4101 1.01168e-07 11.8312 1.01168e-07 9.25561Z" transform="translate(5.37988 0.00299072)" fill="white"/>
<path d="M2.72645 4.90031C2.72645 6.04237 2.72645 7.18104 2.72645 8.3231C2.72645 8.4756 2.71319 8.62471 2.67341 8.77043C2.51761 9.35671 1.96731 9.8176 1.29103 9.78371C0.674432 9.75321 0.137391 9.28216 0.0279935 8.65521C0.00810308 8.53999 0.00147336 8.42477 0.00147336 8.30615C-0.0018417 7.1641 0.00147336 6.02543 0.00147336 4.88337C0.00147336 3.74131 0.00147336 2.60264 0.00147336 1.46058C0.00147336 1.28097 0.0147344 1.10136 0.0810357 0.931914C0.27994 0.406635 0.647911 0.0914675 1.1949 0.0135229C1.95405 -0.0983107 2.70988 0.494746 2.72645 1.37586C2.73308 1.72153 2.72645 2.06381 2.72645 2.40947C2.72645 3.23975 2.72645 4.07003 2.72645 4.90031Z" transform="translate(32.2705 0.0577545)" fill="white"/>
<path d="M0.00333165 4.87206C0.00333165 3.71306 0.00996178 2.55067 1.65856e-05 1.39167C-0.00329848 0.73083 0.490646 0.0937173 1.20338 0.00899489C1.9559 -0.0791164 2.65538 0.490218 2.71174 1.27305C2.71837 1.351 2.71837 1.42894 2.71837 1.50689C2.71837 3.74356 2.71837 5.98362 2.71837 8.22029C2.71837 8.36941 2.71174 8.52191 2.67859 8.66763C2.53273 9.29119 1.96585 9.75208 1.29952 9.72496C0.669659 9.70124 0.132619 9.22341 0.023222 8.58291C0.00996178 8.50157 0.00333165 8.42024 0.00333165 8.33552C0.00333165 7.18329 0.00333165 6.02768 0.00333165 4.87206Z" transform="translate(0 0.116409)" fill="white"/>
</svg>
