<?xml version="1.0" encoding="utf-8"?>
<!-- Generator: Adobe Illustrator 23.0.3, SVG Export Plug-In . SVG Version: 6.00 Build 0)  -->
<svg version="1.1" id="wabi" xmlns="http://www.w3.org/2000/svg" xmlns:xlink="http://www.w3.org/1999/xlink" x="0px" y="0px"
	 viewBox="0 0 500 500" style="enable-background:new 0 0 500 500;" xml:space="preserve">
<style type="text/css">
	.st0{fill-rule:evenodd;clip-rule:evenodd;fill:#FF5847;}
</style>
<path class="st0" d="M249.8,65.2C148,65.2,65.1,148,65.1,249.7S148,434.1,249.8,434.1s184.6-82.7,184.6-184.4S351.6,65.2,249.8,65.2
	 M249.8,497.6C112.9,497.6,1.6,386.4,1.6,249.7C1.6,113,112.9,1.8,249.8,1.8c136.8,0,248.2,111.2,248.2,247.9
	C497.9,386.4,386.6,497.6,249.8,497.6"/>
<path class="st0" d="M194.8,249.7l55,55l55-55l-55-54.9L194.8,249.7z M249.8,381.2c-8.4,0-16.5-3.3-22.5-9.3l-99.9-99.8
	c-12.4-12.4-12.4-32.5,0-44.9l99.9-99.8c12.4-12.4,32.5-12.4,44.9,0l99.9,99.8c12.4,12.4,12.4,32.5,0,44.9l-99.9,99.8
	C266.3,377.9,258.2,381.2,249.8,381.2L249.8,381.2z"/>
</svg>
