<svg xmlns="http://www.w3.org/2000/svg" width="131" height="41" viewBox="0 0 131 41">
  <g fill="none" fill-rule="evenodd" transform="translate(-.012 .996)">
    <polygon fill="#F78E1E" points="109.333 7.676 103.518 12.537 109.489 17.547 121.273 7.676"/>
    <polygon fill="#FFF" points="71.408 0 94.893 19.793 87.447 26.041 72.037 7.676 62 7.676 35.138 39.598 45.164 39.598 67.018 13.635 73.325 21.152 65.095 21.152 60.895 26.159 77.527 26.159 82.362 31.922 92.38 31.922 92.379 31.921 100.863 24.802 109.349 31.922 121.287 31.922 83.339 0"/>
    <path fill="#FFF" d="M126.167358,8.50102642 L125.007358,8.50102642 L125.007358,11.6760264 L124.524858,11.6760264 L124.524858,8.50102642 L123.362358,8.50102642 L123.362358,8.09352642 L126.167358,8.09352642 L126.167358,8.50102642 Z M130.424858,8.09352642 L130.424858,11.6760264 L129.999858,11.6760264 L129.999858,9.04352642 C129.999858,9.00852625 130.001108,8.97102662 130.003608,8.93102642 C130.006108,8.89102622 130.009024,8.8501933 130.012358,8.80852642 L128.782358,11.0485264 C128.744024,11.1235268 128.685691,11.1610264 128.607358,11.1610264 L128.537358,11.1610264 C128.459024,11.1610264 128.400691,11.1235268 128.362358,11.0485264 L127.107358,8.79852642 C127.117358,8.8868602 127.122358,8.96852605 127.122358,9.04352642 L127.122358,11.6760264 L126.697358,11.6760264 L126.697358,8.09352642 L127.054858,8.09352642 C127.098191,8.09352642 127.131524,8.09769305 127.154858,8.10602642 C127.178191,8.1143598 127.200691,8.1376929 127.222358,8.17602642 L128.459858,10.3810264 C128.479858,10.4210266 128.499441,10.4626929 128.518608,10.5060264 C128.537774,10.54936 128.555691,10.5935262 128.572358,10.6385264 C128.589024,10.5935262 128.606524,10.5489433 128.624858,10.5047764 C128.643191,10.4606095 128.663191,10.4185266 128.684858,10.3785264 L129.899858,8.17602642 C129.919858,8.1376929 129.941941,8.1143598 129.966108,8.10602642 C129.990274,8.09769305 130.024024,8.09352642 130.067358,8.09352642 L130.424858,8.09352642 Z"/>
    <polygon fill="#FFF" points="42.343 7.676 36.31 24.25 30.278 7.676 20.262 7.676 14.214 24.291 8.167 7.676 0 7.676 8.824 31.922 19.604 31.922 25.27 16.355 30.936 31.922 41.685 31.922 50.51 7.676"/>
  </g>
</svg>
