<?xml version="1.0" encoding="UTF-8"?>
<svg width="695px" height="146px" viewBox="0 0 695 146" version="1.1" xmlns="http://www.w3.org/2000/svg" xmlns:xlink="http://www.w3.org/1999/xlink">
    <!-- Generator: Sketch 48 (47235) - http://www.bohemiancoding.com/sketch -->
    <title>Group</title>
    <desc>Created with Sketch.</desc>
    <defs></defs>
    <g id="Page-1" stroke="none" stroke-width="1" fill="none" fill-rule="evenodd">
        <g id="Group">
            <path d="M135.325,106.817 C127.048,106.817 120.339,100.131 120.339,91.884 L120.339,57.394 L120.339,55 C120.339,46.752 113.629,40.067 105.353,40.067 C97.076,40.067 91.836,46.753 91.836,55 L91.836,58.066 L91.836,91.883 C91.836,100.13 83.656,106.816 75.38,106.816 C67.103,106.816 60.394,100.13 60.394,91.883 L60.394,83.463 L60.394,57.643 C60.246,57.561 60.095,57.487 59.947,57.406 L59.947,55 C59.947,46.752 54.579,40.067 46.303,40.067 C38.026,40.067 31.317,46.753 31.317,55 L31.317,58.055 C31.317,58.055 31.764,92.976 33.554,102.795 C35.343,112.615 41.159,118.664 48.764,126.698 C56.369,134.732 44.738,153.231 29.528,142.965 C14.318,132.699 6.598,119.664 4.029,102.795 C1.411,85.62 0,55.325 0,55.325 C0,55.325 0.597,44.47 2,42.042 C7.669,23.717 24.757,10.403 44.96,10.403 C56.583,10.403 67.176,14.811 75.156,22.044 C83.136,14.811 93.729,10.403 105.353,10.403 C125.555,10.403 142.643,23.717 148.312,42.042 C149.715,44.47 150.312,55.325 150.312,55.325 L150.312,83.464 L150.312,91.884 C150.312,100.131 143.602,106.817 135.325,106.817 Z" id="path3" fill="#4D525D"></path>
            <path d="M46.22,39.174 C54.497,39.174 61.206,45.86 61.206,54.107 L61.206,88.597 L61.206,90.991 C61.206,99.239 67.916,105.925 76.192,105.925 C84.469,105.925 91.179,99.239 91.179,90.991 L91.179,87.925 L91.179,54.107 C91.179,45.86 97.888,39.174 106.165,39.174 C114.442,39.174 121.152,45.86 121.152,54.107 L121.152,62.527 L121.152,88.347 C121.3,88.429 121.451,88.503 121.599,88.584 L121.599,90.991 C121.599,99.239 126.967,105.925 135.243,105.925 C143.52,105.925 150.229,99.239 150.229,90.991 L150.229,87.936 C150.229,87.936 149.782,53.015 147.992,43.196 C146.202,33.377 140.387,27.327 132.782,19.293 C125.177,11.259 136.808,-7.24 152.018,3.026 C167.228,13.292 174.948,26.327 177.517,43.196 C180.133,60.371 181.543,90.666 181.543,90.666 C181.543,90.666 180.946,101.521 179.543,103.949 C173.874,122.274 156.786,135.588 136.583,135.588 C124.96,135.588 114.367,131.18 106.387,123.947 C98.407,131.18 87.814,135.588 76.19,135.588 C55.988,135.588 38.9,122.274 33.231,103.949 C31.828,101.521 31.231,90.666 31.231,90.666 L31.231,62.527 L31.231,54.107 C31.234,45.86 37.943,39.174 46.22,39.174 Z" id="path5" fill="#FCD600"></path>
            <path d="M298.408,31.14 C296.599,29.931 294.159,29.326 291.086,29.326 L286.096,29.326 C283.094,29.326 280.916,29.597 279.56,30.138 C278.204,30.679 277.201,31.654 276.55,33.061 C275.899,34.468 275.158,36.761 274.326,39.936 L262.773,83.405 L251.22,39.936 C250.388,36.761 249.647,34.469 248.996,33.061 C248.345,31.654 247.342,30.679 245.986,30.138 C244.63,29.597 242.451,29.326 239.45,29.326 L234.46,29.326 C231.386,29.326 228.945,29.931 227.138,31.14 C225.33,32.349 224.426,34.686 224.426,38.15 L224.426,100.944 C224.426,104.012 225.112,106.295 226.487,107.792 C227.861,109.289 229.633,110.039 231.802,110.039 C234.044,110.039 235.843,109.281 237.199,107.766 C238.555,106.25 239.233,103.977 239.233,100.945 L239.233,46.162 L251.979,96.722 C252.413,98.382 252.837,99.979 253.254,101.513 C253.669,103.047 254.239,104.445 254.962,105.708 C255.685,106.972 256.698,108.009 257.999,108.821 C259.301,109.633 260.892,110.039 262.772,110.039 C265.267,110.039 267.22,109.407 268.63,108.144 C270.04,106.881 271.007,105.483 271.532,103.949 C272.056,102.415 272.734,100.007 273.566,96.722 L286.312,46.162 L286.312,100.945 C286.312,103.976 286.999,106.25 288.373,107.766 C289.747,109.282 291.5,110.039 293.634,110.039 C295.912,110.039 297.729,109.281 299.085,107.766 C300.441,106.25 301.119,103.977 301.119,100.945 L301.119,38.15 C301.119,34.685 300.215,32.349 298.408,31.14 Z M368.863,27.973 C367.561,27.973 366.458,28.208 365.554,28.677 C364.65,29.146 363.827,29.823 363.086,30.707 C362.344,31.592 361.667,32.539 361.052,33.549 C360.437,34.56 359.677,35.805 358.774,37.284 L343.75,61.373 L328.89,37.284 C326.612,33.567 324.903,31.086 323.764,29.841 C322.625,28.596 320.952,27.973 318.747,27.973 C316.65,27.973 314.887,28.641 313.459,29.976 C312.03,31.312 311.317,32.899 311.317,34.74 C311.317,35.859 311.67,37.176 312.375,38.692 C313.08,40.208 314.282,42.319 315.982,45.026 L335.399,75.07 L335.399,100.242 C335.399,103.563 336.14,106.026 337.623,107.631 C339.105,109.236 341.04,110.04 343.426,110.04 C345.776,110.04 347.711,109.228 349.23,107.604 C350.749,105.98 351.508,103.526 351.508,100.242 L351.508,75.069 L371.414,44.592 C373.077,42.102 374.252,40.153 374.94,38.746 C375.626,37.339 375.971,35.931 375.971,34.524 C375.971,32.792 375.293,31.268 373.937,29.95 C372.579,28.632 370.888,27.973 368.863,27.973 Z M500.826,27.973 C498.728,27.973 497.128,28.514 496.026,29.597 C494.923,30.68 494.145,31.907 493.694,33.278 C493.241,34.65 492.763,36.544 492.257,38.962 L481.842,85.3 L470.072,41.94 C469.096,38.367 468.318,35.805 467.74,34.253 C467.161,32.702 466.121,31.267 464.621,29.95 C463.12,28.633 461.014,27.974 458.302,27.974 C455.626,27.974 453.51,28.606 451.956,29.869 C450.401,31.133 449.28,32.63 448.593,34.362 C447.906,36.094 447.128,38.621 446.261,41.941 L434.601,85.3 L424.187,38.962 C423.428,35.389 422.541,32.665 421.529,30.788 C420.516,28.912 418.546,27.973 415.617,27.973 C413.483,27.973 411.693,28.677 410.247,30.084 C408.8,31.491 408.077,33.224 408.077,35.281 C408.077,36.905 408.474,39.269 409.27,42.372 L422.504,95.801 C422.902,97.39 423.353,99.112 423.86,100.971 C424.366,102.83 425.017,104.435 425.813,105.789 C426.608,107.142 427.648,108.19 428.932,108.929 C430.215,109.668 431.851,110.039 433.841,110.039 C436.299,110.039 438.27,109.417 439.753,108.172 C441.235,106.927 442.275,105.519 442.872,103.95 C443.469,102.38 444.273,99.791 445.286,96.182 L458.303,48.599 L471.157,96.182 C472.205,99.899 473.019,102.525 473.598,104.058 C474.176,105.592 475.207,106.973 476.69,108.199 C478.172,109.426 480.143,110.04 482.602,110.04 C485.205,110.04 487.221,109.408 488.65,108.145 C490.078,106.882 491.091,105.411 491.687,103.733 C492.284,102.055 493.034,99.412 493.938,95.803 L507.172,42.374 C507.967,39.126 508.365,36.763 508.365,35.283 C508.365,33.19 507.633,31.449 506.168,30.059 C504.704,28.668 502.923,27.973 500.826,27.973 Z M527.674,27.973 C525.323,27.973 523.407,28.785 521.925,30.409 C520.442,32.033 519.701,34.469 519.701,37.717 L519.701,100.24 C519.701,103.488 520.451,105.933 521.952,107.575 C523.452,109.217 525.36,110.038 527.674,110.038 C530.096,110.038 532.058,109.226 533.559,107.602 C535.059,105.978 535.81,103.524 535.81,100.24 L535.81,37.717 C535.81,34.434 535.059,31.988 533.559,30.382 C532.058,28.777 530.096,27.973 527.674,27.973 Z M606.13,67.869 C603.581,66.065 600.489,64.531 596.855,63.268 C593.221,62.005 589.162,60.851 584.678,59.804 C581.098,58.902 578.53,58.216 576.976,57.747 C575.421,57.278 573.885,56.629 572.366,55.798 C570.847,54.968 569.654,53.976 568.786,52.821 C567.918,51.667 567.484,50.295 567.484,48.707 C567.484,46.145 568.759,43.953 571.308,42.13 C573.857,40.308 577.211,39.396 581.369,39.396 C585.852,39.396 589.106,40.235 591.132,41.913 C593.157,43.591 594.892,45.928 596.339,48.923 C597.459,51.016 598.499,52.523 599.458,53.443 C600.416,54.363 601.817,54.823 603.661,54.823 C605.686,54.823 607.376,54.057 608.732,52.522 C610.088,50.989 610.766,49.266 610.766,47.352 C610.766,45.259 610.224,43.112 609.139,40.91 C608.054,38.709 606.336,36.606 603.986,34.603 C601.635,32.6 598.679,30.995 595.118,29.785 C591.556,28.576 587.335,27.972 582.453,27.972 C576.342,27.972 571.027,28.884 566.507,30.706 C561.986,32.529 558.534,35.136 556.147,38.528 C553.76,41.921 552.567,45.8 552.567,50.167 C552.567,54.751 553.697,58.585 555.957,61.67 C558.216,64.756 561.272,67.191 565.123,68.978 C568.974,70.764 573.755,72.326 579.469,73.66 C583.735,74.634 587.144,75.555 589.693,76.421 C592.242,77.287 594.321,78.541 595.93,80.183 C597.539,81.826 598.344,83.964 598.344,86.598 C598.344,89.919 596.853,92.688 593.869,94.907 C590.886,97.126 587.008,98.236 582.235,98.236 C578.764,98.236 575.961,97.686 573.828,96.585 C571.694,95.485 570.04,94.086 568.865,92.39 C567.69,90.694 566.595,88.583 565.584,86.056 C564.752,83.927 563.748,82.321 562.574,81.238 C561.399,80.155 559.961,79.614 558.262,79.614 C556.164,79.614 554.438,80.309 553.082,81.698 C551.726,83.088 551.048,84.756 551.048,86.705 C551.048,90.061 552.178,93.517 554.438,97.071 C556.697,100.626 559.636,103.468 563.252,105.597 C568.35,108.557 574.823,110.036 582.669,110.036 C589.213,110.036 594.873,108.953 599.646,106.788 C604.419,104.623 608.044,101.628 610.521,97.802 C612.997,93.977 614.236,89.664 614.236,84.864 C614.236,80.858 613.522,77.475 612.094,74.714 C610.668,71.956 608.679,69.674 606.13,67.869 Z M692.749,30.382 C691.248,28.777 689.286,27.973 686.864,27.973 C684.478,27.973 682.552,28.785 681.088,30.409 C679.623,32.033 678.891,34.469 678.891,37.717 L678.891,60.453 L644.124,60.453 L644.124,37.717 C644.124,34.434 643.373,31.988 641.873,30.382 C640.372,28.777 638.41,27.973 635.988,27.973 C633.529,27.973 631.585,28.785 630.157,30.409 C628.728,32.033 628.015,34.469 628.015,37.717 L628.015,100.24 C628.015,103.488 628.738,105.933 630.185,107.575 C631.631,109.217 633.566,110.038 635.988,110.038 C638.375,110.038 640.327,109.226 641.846,107.602 C643.365,105.978 644.124,103.524 644.124,100.24 L644.124,73.553 L678.891,73.553 L678.891,100.241 C678.891,103.489 679.614,105.934 681.061,107.576 C682.507,109.218 684.442,110.039 686.864,110.039 C689.251,110.039 691.203,109.227 692.722,107.603 C694.241,105.979 695,103.525 695,100.24 L695,37.717 C695,34.433 694.249,31.988 692.749,30.382 Z" id="path11" fill="#4A525D" fill-rule="nonzero"></path>
        </g>
    </g>
</svg>