<?xml version="1.0" encoding="UTF-8"?>
<svg width="151px" height="18px" viewBox="0 0 151 18" version="1.1" xmlns="http://www.w3.org/2000/svg" xmlns:xlink="http://www.w3.org/1999/xlink">
    <!-- Generator: Sketch 52.1 (67048) - http://www.bohemiancoding.com/sketch -->
    <title>Group 8</title>
    <desc>Created with Sketch.</desc>
    <defs>
        <path d="M4.37079337,0 L39.3644472,0 L42.7785686,-1.67643677e-14 C43.3308533,-1.29416016e-14 43.7785686,0.44771525 43.7785686,1 C43.7785686,1.26519226 43.6732309,1.51952499 43.4857248,1.70705735 L28.4037407,16.7912492 C28.0132438,17.1818008 27.3800788,17.181845 26.9895272,16.791348 C26.9895107,16.7913316 26.9894942,16.7913151 26.9894777,16.7912986 L21.8679261,11.6696481 L16.7475482,16.7912492 C16.3570649,17.1818144 15.7238999,17.1818809 15.3333347,16.7913976 C15.3333099,16.7913728 15.3332852,16.7913481 15.3332605,16.7913234 L0.249192277,1.70710678 C-0.141332014,1.31658249 -0.141332014,0.683417511 0.249192277,0.292893219 C0.436728656,0.10535684 0.691082569,9.36897899e-16 0.956299059,8.8817842e-16 L4.37079337,0 Z M23.3040023,10.2335719 L27.696634,14.6262036 L40.2898234,2.03301416 L31.5057832,2.03301416 L23.3040023,10.2335719 Z M15.1034445,2.03301416 L21.8679261,8.7974957 L28.6336309,2.03301416 L15.1034445,2.03301416 Z M3.44725204,2.03301416 L16.0404414,14.6262036 L20.4306267,10.2335719 L12.2300689,2.03301416 L3.44725204,2.03301416 Z" id="path-1"></path>
    </defs>
    <g id="Page-1" stroke="none" stroke-width="1" fill="none" fill-rule="evenodd">
        <g id="Group-8">
            <g id="Group-64">
                <g id="Group-18">
                    <g id="Group-19">
                        <mask id="mask-2" fill="white">
                            <use xlink:href="#path-1"></use>
                        </mask>
                        <use id="Clip-20" fill="#1C85E8" xlink:href="#path-1"></use>
                    </g>
                </g>
                <g id="Group-11" transform="translate(52.558011, 0.000000)" fill="#1D2C4C">
                    <path d="M15.8695261,16.0180584 L13.2024094,16.0180584 L10.6575085,7.07251001 C10.5482713,6.68098679 10.4119953,6.1196593 10.2475988,5.38420133 C10.0832023,4.64874335 9.98478075,4.13716743 9.94908941,3.85055513 C9.88203294,4.2875037 9.76955113,4.85640207 9.6159702,5.55292404 C9.46130772,6.25052756 9.33476568,6.77075592 9.23201788,7.11360913 L6.74768409,16.0180584 L4.08164893,16.0180584 L2.14350085,8.50881617 L0.171824533,1.01796036 L2.67562632,1.01796036 L4.81927002,9.76017629 C5.15563388,11.1618727 5.39357617,12.3991726 5.5374231,13.4731575 C5.61421356,12.892362 5.72669537,12.242347 5.87703164,11.5241939 C6.02628634,10.8071224 6.16364394,10.2252453 6.2869413,9.7796443 L8.72801285,1.01796036 L11.160432,1.01796036 L13.6631522,9.82182497 C13.9032576,10.635155 14.1563417,11.8519053 14.423486,13.4731575 C14.5262338,12.495431 14.7706654,11.2505602 15.1621886,9.73854517 L17.2950167,1.01796036 L19.7771874,1.01796036 L15.8695261,16.0180584 Z" id="Fill-1"></path>
                    <path d="M23.4519897,10.3240995 C23.4519897,12.9436278 24.4199822,14.2533919 26.3559672,14.2533919 C28.270321,14.2533919 29.2274979,12.9436278 29.2274979,10.3240995 C29.2274979,7.7326917 28.2627501,6.43482468 26.334336,6.43482468 C25.3219998,6.43482468 24.5897865,6.77118855 24.135533,7.44067162 C23.6791164,8.11123624 23.4519897,9.07273939 23.4519897,10.3240995 M31.7107502,10.3240995 C31.7107502,12.1778862 31.2348656,13.625008 30.2852596,14.6643831 C29.3334904,15.7037583 28.0107476,16.2229051 26.3137865,16.2229051 C25.2549433,16.2229051 24.3172344,15.9838813 23.5039044,15.5058336 C22.6894928,15.0267043 22.0643536,14.3388348 21.6263234,13.4433066 C21.1882933,12.5477783 20.969819,11.5084032 20.969819,10.3240995 C20.969819,8.48437301 21.4413774,7.04806684 22.3855756,6.01518101 C23.3286923,4.98229517 24.659006,4.46639303 26.3754352,4.46639303 C28.0183185,4.46639303 29.3172671,4.99419229 30.274444,6.05087235 C31.2316209,7.10755242 31.7107502,8.53196147 31.7107502,10.3240995" id="Fill-3"></path>
                    <path d="M40.2362223,4.46628488 C40.7218409,4.46628488 41.1220165,4.49981311 41.4367493,4.56903268 L41.2009701,6.81542418 C40.8591985,6.73322594 40.5033666,6.69320837 40.1334745,6.69320837 C39.1698082,6.69320837 38.3878434,7.00685957 37.7886614,7.63632507 C37.1916426,8.26579057 36.8920516,9.0834468 36.8920516,10.0882122 L36.8920516,16.0183829 L34.4823452,16.0183829 L34.4823452,4.66961738 L36.3696601,4.66961738 L36.686556,6.67157725 L36.8098534,6.67157725 C37.1862348,5.99452329 37.6761796,5.45807159 38.2818509,5.06114059 C38.8875222,4.6642096 39.5375372,4.46628488 40.2362223,4.46628488" id="Fill-5"></path>
                    <polygon id="Fill-7" points="45.8699386 10.026239 47.2337805 8.32387012 50.661231 4.67037447 53.4408295 4.67037447 48.8755823 9.54494668 53.7285234 16.0180584 50.8959286 16.0180584 47.2532485 11.04182 45.9305057 12.1298652 45.9305057 16.0180584 43.5413488 16.0180584 43.5413488 0.0532125478 45.9305057 0.0532125478 45.9305057 7.84041466 45.8061268 10.026239"></polygon>
                    <path d="M62.1925631,2.90635688 C60.7822143,2.90635688 59.6747011,3.40495412 58.8678604,4.40431173 C58.0610198,5.40366933 57.6575994,6.78157148 57.6575994,8.53909974 C57.6575994,10.3788262 58.0447964,11.7707886 58.8224351,12.7139053 C59.5989922,13.6581036 60.7227287,14.1307435 62.1925631,14.1307435 C62.828518,14.1307435 63.4439232,14.0669317 64.038779,13.9403896 C64.6336347,13.8149292 65.2522846,13.6516142 65.8958103,13.452608 L65.8958103,15.5562341 C64.7190776,16.0007535 63.3855192,16.223554 61.8951353,16.223554 C59.6984953,16.223554 58.0134313,15.5583972 56.8366986,14.2280835 C55.6599658,12.8977698 55.072681,10.9953131 55.072681,8.51746862 C55.072681,6.95894664 55.3571302,5.59402316 55.9281916,4.42486129 C56.4981716,3.25461786 57.3255618,2.35908962 58.4060361,1.737195 C59.4865104,1.11530039 60.7551754,0.803812307 62.2131127,0.803812307 C63.7445958,0.803812307 65.1592708,1.12503439 66.4603825,1.76747857 L65.5767514,3.80945601 C65.0705832,3.56935061 64.5373762,3.35952878 63.9728041,3.17782739 C63.4082319,2.99720757 62.8133762,2.90635688 62.1925631,2.90635688" id="Fill-10"></path>
                    <path d="M70.6771524,10.3240995 C70.6771524,12.9436278 71.6440634,14.2533919 73.5811299,14.2533919 C75.4944022,14.2533919 76.4526607,12.9436278 76.4526607,10.3240995 C76.4526607,7.7326917 75.4879129,6.43482468 73.5594988,6.43482468 C72.5471625,6.43482468 71.8138676,6.77118855 71.3596142,7.44067162 C70.9042792,8.11123624 70.6771524,9.07273939 70.6771524,10.3240995 M78.9348314,10.3240995 C78.9348314,12.1778862 78.4589468,13.625008 77.5093407,14.6643831 C76.5575716,15.7037583 75.2359103,16.2229051 73.5389492,16.2229051 C72.4790245,16.2229051 71.5413156,15.9838813 70.7290671,15.5058336 C69.9146556,15.0267043 69.2884347,14.3388348 68.8504046,13.4433066 C68.4123745,12.5477783 68.1939002,11.5084032 68.1939002,10.3240995 C68.1939002,8.48437301 68.6654586,7.04806684 69.6107384,6.01518101 C70.5538551,4.98229517 71.8841688,4.46639303 73.6005979,4.46639303 C75.2423997,4.46639303 76.5413483,4.99419229 77.4996067,6.05087235 C78.4567837,7.10755242 78.9348314,8.53196147 78.9348314,10.3240995" id="Fill-13"></path>
                    <path d="M81.7070753,16.0178421 L84.1178633,16.0178421 L84.1178633,4.67015815 L81.7070753,4.67015815 L81.7070753,16.0178421 Z M81.5610653,1.66451445 C81.5610653,1.23405522 81.6800364,0.902017578 81.9158156,0.66948307 C82.1526763,0.436948563 82.4890402,0.321222087 82.9270703,0.321222087 C83.3510402,0.321222087 83.6798332,0.436948563 83.9166939,0.66948307 C84.1535546,0.902017578 84.2692811,1.23405522 84.2692811,1.66451445 C84.2692811,2.07550567 84.1535546,2.39780932 83.9166939,2.63358849 C83.6798332,2.87044922 83.3510402,2.98833881 82.9270703,2.98833881 C82.4890402,2.98833881 82.1526763,2.87044922 81.9158156,2.63358849 C81.6800364,2.39780932 81.5610653,2.07550567 81.5610653,1.66451445 Z" id="Fill-15"></path>
                    <path d="M97.5470015,16.0180584 L95.1253979,16.0180584 L95.1253979,9.04202321 C95.1253979,8.16596297 94.9491043,7.51270324 94.5954356,7.08224401 C94.2439299,6.65178478 93.6858471,6.43547361 92.919024,6.43547361 C91.8991168,6.43547361 91.1550064,6.73722769 90.6823665,7.33857274 C90.2108082,7.9399178 89.975029,8.9490094 89.975029,10.364766 L89.975029,16.0180584 L87.564241,16.0180584 L87.564241,4.67037447 L89.451556,4.67037447 L89.7900829,6.15859531 L89.9122987,6.15859531 C90.255152,5.61889895 90.739689,5.20141839 91.3691545,4.9072352 C91.9997015,4.61305201 92.6973051,4.46596041 93.4641282,4.46596041 C96.1853227,4.46596041 97.5470015,5.85143345 97.5470015,8.62129798 L97.5470015,16.0180584 Z" id="Fill-17"></path>
                </g>
            </g>
        </g>
    </g>
</svg>