<?xml version="1.0" encoding="UTF-8"?> <svg xmlns="http://www.w3.org/2000/svg" xmlns:xlink="http://www.w3.org/1999/xlink" id="artwork" viewBox="0 0 1322 1307.8"><defs><style>.cls-1,.cls-2,.cls-24,.cls-26,.cls-27,.cls-4{fill:none;}.cls-2,.cls-4{stroke:#ccc;}.cls-2,.cls-24,.cls-25,.cls-26,.cls-27,.cls-4{stroke-miterlimit:10;}.cls-2{stroke-width:1.48px;}.cls-3{fill:#ccc;}.cls-4{stroke-width:1.97px;}.cls-5{fill:#fef8af;}.cls-6{fill:url(#radial-gradient);}.cls-7{fill:url(#New_Gradient_Swatch);}.cls-8{fill:url(#radial-gradient-2);}.cls-9{fill:url(#New_Gradient_Swatch-2);}.cls-10{fill:url(#radial-gradient-3);}.cls-11{fill:url(#New_Gradient_Swatch-3);}.cls-12{fill:url(#radial-gradient-4);}.cls-13{fill:url(#New_Gradient_Swatch-4);}.cls-14{fill:url(#radial-gradient-5);}.cls-15{fill:url(#New_Gradient_Swatch-5);}.cls-16{fill:url(#radial-gradient-6);}.cls-17{fill:url(#New_Gradient_Swatch-6);}.cls-18{fill:url(#radial-gradient-7);}.cls-19{fill:url(#New_Gradient_Swatch-7);}.cls-20{fill:url(#radial-gradient-8);}.cls-21{fill:url(#New_Gradient_Swatch-8);}.cls-22{fill:url(#New_Gradient_Swatch_copy);}.cls-23{fill:url(#New_Gradient_Swatch-9);}.cls-24,.cls-25,.cls-27{stroke:#fff;}.cls-24{stroke-width:6.81px;}.cls-25,.cls-72{fill:#fff;}.cls-25{stroke-width:3.24px;}.cls-26{stroke:#d0a84d;stroke-width:3.25px;}.cls-27{stroke-width:4.3px;}.cls-28{font-size:31.02px;}.cls-28,.cls-91,.cls-93{fill:#d0a84d;font-family:Lato-Regular, Lato;}.cls-29{isolation:isolate;}.cls-30{fill:#9c9c9c;}.cls-31{clip-path:url(#clip-path);}.cls-32{fill:#9d9d9d;}.cls-33{clip-path:url(#clip-path-2);}.cls-34{fill:#a4a4a4;}.cls-35{clip-path:url(#clip-path-3);}.cls-36{clip-path:url(#clip-path-4);}.cls-37{fill:#fefefe;}.cls-38{clip-path:url(#clip-path-5);}.cls-39{fill:#a1a1a1;}.cls-40{fill:#fdfdfd;}.cls-41{clip-path:url(#clip-path-6);}.cls-42{fill:#9e9e9e;}.cls-43{clip-path:url(#clip-path-7);}.cls-44{clip-path:url(#clip-path-8);}.cls-45{clip-path:url(#clip-path-9);}.cls-46{clip-path:url(#clip-path-10);}.cls-47{clip-path:url(#clip-path-11);}.cls-48{fill:#f7f7f7;}.cls-49{clip-path:url(#clip-path-12);}.cls-50{fill:#9f9f9f;}.cls-51{clip-path:url(#clip-path-13);}.cls-52{clip-path:url(#clip-path-14);}.cls-53{clip-path:url(#clip-path-15);}.cls-54{clip-path:url(#clip-path-16);}.cls-55{clip-path:url(#clip-path-17);}.cls-56{clip-path:url(#clip-path-18);}.cls-57{fill:#fbfbfb;}.cls-58{clip-path:url(#clip-path-19);}.cls-59{clip-path:url(#clip-path-20);}.cls-60{clip-path:url(#clip-path-21);}.cls-61{fill:#fafafa;}.cls-62{clip-path:url(#clip-path-22);}.cls-63{fill:#adadad;}.cls-64{clip-path:url(#clip-path-23);}.cls-65{fill:#a0a0a0;}.cls-66{clip-path:url(#clip-path-24);}.cls-67{fill:#a2a2a2;}.cls-68{clip-path:url(#clip-path-25);}.cls-69{clip-path:url(#clip-path-26);}.cls-70{clip-path:url(#clip-path-27);}.cls-71{clip-path:url(#clip-path-28);}.cls-73{clip-path:url(#clip-path-29);}.cls-74{clip-path:url(#clip-path-30);}.cls-75{clip-path:url(#clip-path-31);}.cls-76{clip-path:url(#clip-path-32);}.cls-77{clip-path:url(#clip-path-33);}.cls-78{clip-path:url(#clip-path-34);}.cls-79{clip-path:url(#clip-path-35);}.cls-80{clip-path:url(#clip-path-36);}.cls-81{fill:#f1f1f1;}.cls-82{clip-path:url(#clip-path-37);}.cls-83{clip-path:url(#clip-path-38);}.cls-84{clip-path:url(#clip-path-39);}.cls-85{clip-path:url(#clip-path-40);}.cls-86{clip-path:url(#clip-path-41);}.cls-87{clip-path:url(#clip-path-42);}.cls-88{clip-path:url(#clip-path-43);}.cls-89{clip-path:url(#clip-path-44);}.cls-90{fill:#f2f2f2;}.cls-91,.cls-93{font-size:31.02px;}.cls-91{letter-spacing:-0.03em;}.cls-92{letter-spacing:0em;}</style><radialGradient id="radial-gradient" cx="651.92" cy="106.92" r="117.62" gradientUnits="userSpaceOnUse"><stop offset="0" stop-color="#dec777"></stop><stop offset="1" stop-color="#827444"></stop></radialGradient><linearGradient id="New_Gradient_Swatch" x1="604.86" y1="125.9" x2="720.89" y2="125.9" gradientUnits="userSpaceOnUse"><stop offset="0" stop-color="#827444"></stop><stop offset="0.12" stop-color="#847646"></stop><stop offset="0.17" stop-color="#8a7d4b"></stop><stop offset="0.2" stop-color="#958855"></stop><stop offset="0.22" stop-color="#a59962"></stop><stop offset="0.25" stop-color="#baaf74"></stop><stop offset="0.27" stop-color="#d3cb8a"></stop><stop offset="0.28" stop-color="#f1eaa4"></stop><stop offset="0.29" stop-color="#fef8af"></stop><stop offset="0.32" stop-color="#f6efa8"></stop><stop offset="0.38" stop-color="#dfd594"></stop><stop offset="0.45" stop-color="#baab73"></stop><stop offset="0.53" stop-color="#887247"></stop><stop offset="0.54" stop-color="#826c42"></stop><stop offset="0.66" stop-color="#96804d"></stop><stop offset="0.9" stop-color="#c9b26b"></stop><stop offset="1" stop-color="#dec777"></stop></linearGradient><radialGradient id="radial-gradient-2" cx="573.7" cy="1793.62" r="117.62" gradientTransform="translate(-1408.4 -588.85) rotate(-45)" xlink:href="#radial-gradient"></radialGradient><linearGradient id="New_Gradient_Swatch-2" x1="526.63" y1="1812.6" x2="642.67" y2="1812.6" gradientTransform="translate(-1408.4 -588.85) rotate(-45)" xlink:href="#New_Gradient_Swatch"></linearGradient><radialGradient id="radial-gradient-3" cx="-674.29" cy="2930.98" r="117.62" gradientTransform="translate(-2820.67 -9.33) rotate(-90)" xlink:href="#radial-gradient"></radialGradient><linearGradient id="New_Gradient_Swatch-3" x1="-721.35" y1="2949.96" x2="-605.32" y2="2949.96" gradientTransform="translate(-2820.67 -9.33) rotate(-90)" xlink:href="#New_Gradient_Swatch"></linearGradient><radialGradient id="radial-gradient-4" cx="-2360.99" cy="2852.76" r="117.62" gradientTransform="translate(-3409.51 1399.07) rotate(-135)" xlink:href="#radial-gradient"></radialGradient><linearGradient id="New_Gradient_Swatch-4" x1="-2408.05" y1="2871.74" x2="-2292.02" y2="2871.74" gradientTransform="translate(-3409.51 1399.07) rotate(-135)" xlink:href="#New_Gradient_Swatch"></linearGradient><radialGradient id="radial-gradient-5" cx="-3498.35" cy="1604.77" r="117.62" gradientTransform="translate(-2830 2811.33) rotate(180)" xlink:href="#radial-gradient"></radialGradient><linearGradient id="New_Gradient_Swatch-5" x1="-3545.41" y1="1623.75" x2="-3429.38" y2="1623.75" gradientTransform="translate(-2830 2811.33) rotate(180)" xlink:href="#New_Gradient_Swatch"></linearGradient><radialGradient id="radial-gradient-6" cx="-3420.13" cy="-81.93" r="117.62" gradientTransform="translate(-1421.6 3400.18) rotate(135)" xlink:href="#radial-gradient"></radialGradient><linearGradient id="New_Gradient_Swatch-6" x1="-3467.19" y1="-62.95" x2="-3351.16" y2="-62.95" gradientTransform="translate(-1421.6 3400.18) rotate(135)" xlink:href="#New_Gradient_Swatch"></linearGradient><radialGradient id="radial-gradient-7" cx="-2172.14" cy="-1219.29" r="117.62" gradientTransform="translate(-9.33 2820.67) rotate(90)" xlink:href="#radial-gradient"></radialGradient><linearGradient id="New_Gradient_Swatch-7" x1="-2219.2" y1="-1200.31" x2="-2103.17" y2="-1200.31" gradientTransform="translate(-9.33 2820.67) rotate(90)" xlink:href="#New_Gradient_Swatch"></linearGradient><radialGradient id="radial-gradient-8" cx="-485.44" cy="-1141.07" r="117.62" gradientTransform="translate(579.51 1412.27) rotate(45)" xlink:href="#radial-gradient"></radialGradient><linearGradient id="New_Gradient_Swatch-8" x1="-532.51" y1="-1122.09" x2="-416.47" y2="-1122.09" gradientTransform="translate(579.51 1412.27) rotate(45)" xlink:href="#New_Gradient_Swatch"></linearGradient><linearGradient id="New_Gradient_Swatch_copy" x1="606.01" y1="708.13" x2="819.38" y2="494.76" xlink:href="#radial-gradient"></linearGradient><linearGradient id="New_Gradient_Swatch-9" x1="476.62" y1="837.52" x2="843.65" y2="470.49" xlink:href="#New_Gradient_Swatch"></linearGradient><clipPath id="clip-path"><path class="cls-1" d="M675.78,85.52v8.59a19,19,0,0,0-8.45-1.81,22.29,22.29,0,0,0-8.6,1.45V85.16a22.29,22.29,0,0,1,8.6-1.45A19,19,0,0,1,675.78,85.52Z"></path></clipPath><clipPath id="clip-path-2"><path class="cls-1" d="M658.73,85.16v8.59A12.47,12.47,0,0,0,655,96.19a6.29,6.29,0,0,0-2,3.1V90.7a6.29,6.29,0,0,1,2-3.1A12.29,12.29,0,0,1,658.73,85.16Z"></path></clipPath><clipPath id="clip-path-3"><path class="cls-1" d="M652.47,93.1v8.6a5.86,5.86,0,0,0,0,.72v-8.6A6,6,0,0,1,652.47,93.1Z"></path></clipPath><clipPath id="clip-path-4"><path class="cls-1" d="M646.43,95.47v8.59a13.58,13.58,0,0,1-.1-1.63V93.84A13.58,13.58,0,0,0,646.43,95.47Z"></path></clipPath><clipPath id="clip-path-5"><path class="cls-1" d="M675.78,106.88v8.59a32.15,32.15,0,0,1-8.42,1q-13.8,0-18.64-6.75a12.83,12.83,0,0,1-1.68-3.29V97.88a12.83,12.83,0,0,0,1.68,3.29q4.85,6.75,18.64,6.75A32.15,32.15,0,0,0,675.78,106.88Z"></path></clipPath><clipPath id="clip-path-6"><path class="cls-1" d="M265.6,248.5l4.81,4.81a5.33,5.33,0,0,0-3.55-.94,7.78,7.78,0,0,0-3.73,1.67l-4.81-4.81a7.78,7.78,0,0,1,3.73-1.67A5.33,5.33,0,0,1,265.6,248.5Z"></path></clipPath><clipPath id="clip-path-7"><path class="cls-1" d="M256.22,251.28l4.8,4.81a8.86,8.86,0,0,0-2.07,4.39,4,4,0,0,0,1,3.41l-4.81-4.81a4,4,0,0,1-1-3.41A8.83,8.83,0,0,1,256.22,251.28Z"></path></clipPath><clipPath id="clip-path-8"><path class="cls-1" d="M265.49,260.55l4.8,4.81a26.79,26.79,0,0,1-5.62,3.25,8.51,8.51,0,0,1-4.42.75,6,6,0,0,1-3.58-1.77l-4.81-4.8a6.07,6.07,0,0,0,3.58,1.76,8.41,8.41,0,0,0,4.42-.75A26.87,26.87,0,0,0,265.49,260.55Z"></path></clipPath><clipPath id="clip-path-9"><path class="cls-1" d="M276.28,257.74l4.81,4.81a3.88,3.88,0,0,0-3.12-1.23q-1.77.12-5.25,2.31l-4.81-4.81q3.48-2.19,5.25-2.31A3.88,3.88,0,0,1,276.28,257.74Z"></path></clipPath><clipPath id="clip-path-10"><path class="cls-1" d="M279.73,254l4.81,4.81a7.33,7.33,0,0,1,2,6.63,14.74,14.74,0,0,1-4.17,7.87l-4.81-4.81a14.74,14.74,0,0,0,4.17-7.87A7.32,7.32,0,0,0,279.73,254Z"></path></clipPath><clipPath id="clip-path-11"><path class="cls-1" d="M275.5,270.57l4.81,4.8a24.11,24.11,0,0,1-5.12,3.46,9.92,9.92,0,0,1-4.79.91,8,8,0,0,1-4.68-1.87l-4.81-4.81a8,8,0,0,0,4.68,1.87,9.92,9.92,0,0,0,4.79-.91A24.4,24.4,0,0,0,275.5,270.57Z"></path></clipPath><clipPath id="clip-path-12"><path class="cls-1" d="M97.65,663.12h7.5a11.64,11.64,0,0,1-.63,4,11.27,11.27,0,0,1-1.73,3.11h-7.5a10.89,10.89,0,0,0,2.36-7.16Z"></path></clipPath><clipPath id="clip-path-13"><path class="cls-1" d="M103.28,634.27h7.51a4.43,4.43,0,0,0-2.45.66,5.07,5.07,0,0,0-1.77,1.87,9.88,9.88,0,0,0-1.07,2.93,19.55,19.55,0,0,0-.35,3.84h-7.5a18.81,18.81,0,0,1,.35-3.84,9.61,9.61,0,0,1,1.06-2.93,5.15,5.15,0,0,1,1.77-1.87A4.45,4.45,0,0,1,103.28,634.27Z"></path></clipPath><clipPath id="clip-path-14"><path class="cls-1" d="M107.39,654h7.5a1.78,1.78,0,0,1-.33,1,1,1,0,0,1-.81.46h-7.51a1,1,0,0,0,.81-.46A1.73,1.73,0,0,0,107.39,654Z"></path></clipPath><clipPath id="clip-path-15"><path class="cls-1" d="M110.21,638.7h7.51a1.35,1.35,0,0,1-.91.35h-7.5a1.47,1.47,0,0,0,.45-.08A1.54,1.54,0,0,0,110.21,638.7Z"></path></clipPath><clipPath id="clip-path-16"><path class="cls-1" d="M103.28,629.49h7.51a7.38,7.38,0,0,1,3,.61,7.88,7.88,0,0,1,2.38,1.67,11.3,11.3,0,0,1,1.8,2.46,18.28,18.28,0,0,1,1.29,3H111.8a18.28,18.28,0,0,0-1.29-3,11.3,11.3,0,0,0-1.8-2.46,7.84,7.84,0,0,0-2.37-1.67A7.43,7.43,0,0,0,103.28,629.49Z"></path></clipPath><clipPath id="clip-path-17"><path class="cls-1" d="M112.31,673.91h7.51a2,2,0,0,1-.53.58,1.19,1.19,0,0,1-.71.22h-7.5a1.16,1.16,0,0,0,.7-.22A1.86,1.86,0,0,0,112.31,673.91Z"></path></clipPath><clipPath id="clip-path-18"><path class="cls-1" d="M112.78,672.27h7.5a3.13,3.13,0,0,1-.12.86,3.07,3.07,0,0,1-.34.78h-7.51a2.75,2.75,0,0,0,.34-.78A3.14,3.14,0,0,0,112.78,672.27Z"></path></clipPath><clipPath id="clip-path-19"><path class="cls-1" d="M657.09,1215.31v-7.13c.28.48.51.92.71,1.32a10,10,0,0,1,.49,1.19v7.13a9.32,9.32,0,0,0-.49-1.19C657.6,1216.23,657.37,1215.79,657.09,1215.31Z"></path></clipPath><clipPath id="clip-path-20"><path class="cls-1" d="M658.29,1217.82v-7.13c.14-.4.3-.8.47-1.2a13.88,13.88,0,0,1,.68-1.31v7.13c-.27.47-.5.9-.68,1.3S658.43,1217.42,658.29,1217.82Z"></path></clipPath><clipPath id="clip-path-21"><path class="cls-1" d="M647,1202.77v-7.13a2.44,2.44,0,0,1,1.21.26,2.23,2.23,0,0,1,.76.67v7.12a2.32,2.32,0,0,0-.76-.66A2.44,2.44,0,0,0,647,1202.77Z"></path></clipPath><clipPath id="clip-path-22"><path class="cls-1" d="M667.51,1203.69v-7.12a2.08,2.08,0,0,1,.72-.64,2.37,2.37,0,0,1,1.22-.29v7.13a2.27,2.27,0,0,0-1.22.29A2.16,2.16,0,0,0,667.51,1203.69Z"></path></clipPath><clipPath id="clip-path-23"><path class="cls-1" d="M1069.85,260l-5,5a5.63,5.63,0,0,0,1-3.71,8.25,8.25,0,0,0-1.75-3.9l5-5a8.25,8.25,0,0,1,1.75,3.9A5.63,5.63,0,0,1,1069.85,260Z"></path></clipPath><clipPath id="clip-path-24"><path class="cls-1" d="M1067,250.15l-5,5a9.23,9.23,0,0,0-4.59-2.17,4.1,4.1,0,0,0-3.55,1.09l5-5a4.08,4.08,0,0,1,3.56-1.09A9.06,9.06,0,0,1,1067,250.15Z"></path></clipPath><clipPath id="clip-path-25"><path class="cls-1" d="M1057.26,259.83l-5,5a27.59,27.59,0,0,1-3.39-5.87,8.8,8.8,0,0,1-.79-4.63,6.32,6.32,0,0,1,1.84-3.73l5-5a6.25,6.25,0,0,0-1.83,3.73,8.71,8.71,0,0,0,.78,4.63A28,28,0,0,0,1057.26,259.83Z"></path></clipPath><clipPath id="clip-path-26"><path class="cls-1" d="M1060.19,271.1l-5,5a4.05,4.05,0,0,0,1.28-3.26c-.08-1.24-.89-3.07-2.41-5.49l5-5c1.53,2.42,2.33,4.25,2.42,5.49A4,4,0,0,1,1060.19,271.1Z"></path></clipPath><clipPath id="clip-path-27"><path class="cls-1" d="M1064.15,274.71l-5,5a7.66,7.66,0,0,1-6.93,2.08,15.45,15.45,0,0,1-8.22-4.36l5-5a15.43,15.43,0,0,0,8.22,4.35A7.66,7.66,0,0,0,1064.15,274.71Z"></path></clipPath><clipPath id="clip-path-28"><path class="cls-1" d="M1046.8,270.29l-5,5a25.25,25.25,0,0,1-3.61-5.36,10.17,10.17,0,0,1-1-5,8.22,8.22,0,0,1,2-4.88l5-5a8.17,8.17,0,0,0-2,4.87,10.32,10.32,0,0,0,1,5A25.35,25.35,0,0,0,1046.8,270.29Z"></path></clipPath><clipPath id="clip-path-29"><path class="cls-1" d="M256.28,1060.53l5.17-5.17a9.32,9.32,0,0,0,5,2.29l-5.16,5.17A9.43,9.43,0,0,1,256.28,1060.53Z"></path></clipPath><clipPath id="clip-path-30"><path class="cls-1" d="M261.28,1062.82l5.16-5.17a5,5,0,0,0,4.31-1.42l-5.17,5.16A5,5,0,0,1,261.28,1062.82Z"></path></clipPath><clipPath id="clip-path-31"><path class="cls-1" d="M253.43,1048.17l5.17-5.16a8,8,0,0,0-1.61,4.71,8.84,8.84,0,0,0,2.24,5.42l-5.17,5.16a8.87,8.87,0,0,1-2.24-5.41A8,8,0,0,1,253.43,1048.17Z"></path></clipPath><clipPath id="clip-path-32"><path class="cls-1" d="M271.39,1062.15l5.17-5.17a6.7,6.7,0,0,1-1.75,3l-5.17,5.17A6.81,6.81,0,0,0,271.39,1062.15Z"></path></clipPath><clipPath id="clip-path-33"><path class="cls-1" d="M267,1049.79l5.17-5.17q2.35,3.38,3,4.57a14.28,14.28,0,0,1,1.54,4.22,7.75,7.75,0,0,1-.16,3.57l-5.17,5.17a7.9,7.9,0,0,0,.17-3.57,14.52,14.52,0,0,0-1.55-4.22Q269.38,1053.16,267,1049.79Z"></path></clipPath><clipPath id="clip-path-34"><path class="cls-1" d="M264.15,1038.72l5.17-5.17a4.1,4.1,0,0,0-1.21,3.37,11.94,11.94,0,0,0,2.2,5.14l-5.17,5.17a12.11,12.11,0,0,1-2.2-5.14A4.08,4.08,0,0,1,264.15,1038.72Z"></path></clipPath><clipPath id="clip-path-35"><path class="cls-1" d="M277,1039.83l5.17-5.17a16.92,16.92,0,0,1,3.87,6.59,8.27,8.27,0,0,1-1,7l-5.16,5.17a8.3,8.3,0,0,0,1-7A16.85,16.85,0,0,0,277,1039.83Z"></path></clipPath><clipPath id="clip-path-36"><path class="cls-1" d="M260.16,1035.15l5.17-5.17q2.85-2.85,7.47-1.76c2.07.48,4.44,1.88,7.13,4.22l-5.17,5.16c-2.68-2.33-5.06-3.73-7.12-4.21Q263,1032.3,260.16,1035.15Z"></path></clipPath><clipPath id="clip-path-37"><path class="cls-1" d="M1066.19,1060.24l-5.46-5.46a9.73,9.73,0,0,0,2.42-5.27l5.46,5.46A9.8,9.8,0,0,1,1066.19,1060.24Z"></path></clipPath><clipPath id="clip-path-38"><path class="cls-1" d="M1068.61,1055l-5.46-5.46a5.29,5.29,0,0,0-1.5-4.55l5.45,5.46A5.3,5.3,0,0,1,1068.61,1055Z"></path></clipPath><clipPath id="clip-path-39"><path class="cls-1" d="M1053.14,1063.26l-5.46-5.46a8.48,8.48,0,0,0,5,1.69,9.34,9.34,0,0,0,5.72-2.36l5.46,5.46a9.34,9.34,0,0,1-5.72,2.36A8.48,8.48,0,0,1,1053.14,1063.26Z"></path></clipPath><clipPath id="clip-path-40"><path class="cls-1" d="M1067.91,1044.28l-5.46-5.45a7,7,0,0,1,3.1,1.84l5.46,5.46A7.15,7.15,0,0,0,1067.91,1044.28Z"></path></clipPath><clipPath id="clip-path-41"><path class="cls-1" d="M1054.85,1048.9l-5.46-5.46c2.37-1.65,4-2.71,4.83-3.16a15.57,15.57,0,0,1,4.44-1.63,8.29,8.29,0,0,1,3.79.18l5.46,5.45a8.43,8.43,0,0,0-3.79-.17,15.57,15.57,0,0,0-4.44,1.63A57,57,0,0,0,1054.85,1048.9Z"></path></clipPath><clipPath id="clip-path-42"><path class="cls-1" d="M1043.16,1051.94l-5.46-5.46a4.36,4.36,0,0,0,3.55,1.28,12.81,12.81,0,0,0,5.43-2.33l5.46,5.46a12.94,12.94,0,0,1-5.43,2.33A4.36,4.36,0,0,1,1043.16,1051.94Z"></path></clipPath><clipPath id="clip-path-43"><path class="cls-1" d="M1039.38,1056.15l-5.46-5.45q-3-3-1.87-7.9.78-3.29,4.47-7.53l5.45,5.46q-3.67,4.24-4.46,7.53Q1036.37,1053.14,1039.38,1056.15Z"></path></clipPath><clipPath id="clip-path-44"><path class="cls-1" d="M1044.32,1038.38l-5.46-5.46a17.69,17.69,0,0,1,7-4.08,8.74,8.74,0,0,1,7.37,1.07l5.46,5.45a8.74,8.74,0,0,0-7.37-1.06A17.69,17.69,0,0,0,1044.32,1038.38Z"></path></clipPath></defs><title>X8C</title><line class="cls-2" x1="330.39" y1="983.69" x2="990.67" y2="326.15"></line><polygon class="cls-3" points="339.9 980.86 339.28 979.51 330.49 983.59 334.6 974.82 333.26 974.19 327.43 986.64 339.9 980.86"></polygon><polygon class="cls-3" points="987.8 335.65 986.46 335.03 990.57 326.25 981.78 330.33 981.16 328.99 993.63 323.2 987.8 335.65"></polygon><line class="cls-2" x1="659.56" y1="1120.84" x2="661.5" y2="189"></line><polygon class="cls-3" points="664.28 1112.11 662.89 1111.6 659.56 1120.7 656.26 1111.59 654.87 1112.09 659.55 1125.02 664.28 1112.11"></polygon><polygon class="cls-3" points="666.19 197.75 664.79 198.25 661.5 189.15 658.17 198.24 656.78 197.73 661.51 184.82 666.19 197.75"></polygon><line class="cls-2" x1="989.3" y1="985.07" x2="331.76" y2="324.78"></line><polygon class="cls-3" points="986.46 975.55 985.12 976.17 989.2 984.96 980.43 980.85 979.8 982.19 992.25 988.03 986.46 975.55"></polygon><polygon class="cls-3" points="341.26 327.65 340.63 328.99 331.86 324.88 335.94 333.67 334.6 334.29 328.81 321.82 341.26 327.65"></polygon><line class="cls-2" x1="194.61" y1="653.95" x2="1126.45" y2="655.89"></line><polygon class="cls-3" points="203.34 658.67 203.85 657.28 194.75 653.95 203.86 650.66 203.36 649.27 190.43 653.94 203.34 658.67"></polygon><polygon class="cls-3" points="1117.7 660.58 1117.2 659.19 1126.31 655.89 1117.21 652.56 1117.72 651.17 1130.63 655.9 1117.7 660.58"></polygon><path class="cls-4" d="M350.15,202a548,548,0,0,1,213.09-87.11"></path><polygon class="cls-3" points="363.35 200.69 362.86 198.78 350.34 201.93 357.91 191.46 356.31 190.31 345.56 205.16 363.35 200.69"></polygon><polygon class="cls-3" points="552.9 123.19 551.91 121.49 563.06 114.97 550.33 112.8 550.66 110.86 568.73 113.94 552.9 123.19"></polygon><path class="cls-4" d="M119.36,554.38a546.73,546.73,0,0,1,89.15-212.24"></path><polygon class="cls-3" points="127.77 544.13 126.07 543.11 119.44 554.2 117.39 541.45 115.45 541.76 118.36 559.86 127.77 544.13"></polygon><polygon class="cls-3" points="207.06 355.32 205.15 354.82 208.44 342.33 197.89 349.79 196.75 348.18 211.72 337.59 207.06 355.32"></polygon><path class="cls-4" d="M205.39,966.73a548.37,548.37,0,0,1-87.11-213.09"></path><polygon class="cls-3" points="204.08 953.53 202.17 954.01 205.32 966.54 194.86 958.97 193.7 960.57 208.56 971.31 204.08 953.53"></polygon><polygon class="cls-3" points="126.59 763.97 124.89 764.97 118.37 753.82 116.19 766.55 114.25 766.22 117.33 748.14 126.59 763.97"></polygon><path class="cls-4" d="M557.77,1197.52a546.84,546.84,0,0,1-212.23-89.15"></path><polygon class="cls-3" points="547.52 1189.11 546.51 1190.8 557.59 1197.43 544.84 1199.48 545.15 1201.43 563.25 1198.52 547.52 1189.11"></polygon><polygon class="cls-3" points="358.72 1109.81 358.21 1111.72 345.72 1108.44 353.18 1118.98 351.57 1120.12 340.98 1105.16 358.72 1109.81"></polygon><path class="cls-4" d="M970.12,1111.48A548,548,0,0,1,757,1198.59"></path><polygon class="cls-3" points="956.92 1112.79 957.41 1114.7 969.93 1111.55 962.36 1122.02 963.96 1123.17 974.71 1108.32 956.92 1112.79"></polygon><polygon class="cls-3" points="767.37 1190.29 768.36 1191.99 757.21 1198.51 769.94 1200.68 769.61 1202.62 751.54 1199.54 767.37 1190.29"></polygon><path class="cls-4" d="M1200.91,759.1a546.73,546.73,0,0,1-89.15,212.24"></path><polygon class="cls-3" points="1192.5 769.36 1194.2 770.37 1200.83 759.28 1202.88 772.03 1204.82 771.72 1201.91 753.62 1192.5 769.36"></polygon><polygon class="cls-3" points="1113.21 958.16 1115.12 958.66 1111.83 971.15 1122.38 963.69 1123.52 965.3 1108.55 975.89 1113.21 958.16"></polygon><path class="cls-4" d="M1114.88,346.75A548.37,548.37,0,0,1,1202,559.84"></path><polygon class="cls-3" points="1116.19 359.95 1118.1 359.47 1114.95 346.94 1125.41 354.51 1126.57 352.92 1111.71 342.17 1116.19 359.95"></polygon><polygon class="cls-3" points="1193.68 549.51 1195.38 548.51 1201.9 559.66 1204.08 546.93 1206.02 547.26 1202.94 565.34 1193.68 549.51"></polygon><path class="cls-4" d="M762.5,116a546.9,546.9,0,0,1,212.23,89.15"></path><polygon class="cls-3" points="772.75 124.37 773.76 122.68 762.68 116.05 775.43 114 775.12 112.05 757.01 114.96 772.75 124.37"></polygon><polygon class="cls-3" points="961.55 203.67 962.06 201.76 974.55 205.04 967.09 194.5 968.7 193.36 979.29 208.32 961.55 203.67"></polygon><path class="cls-5" d="M719.27,109.2c-2.41,5.8-7.53,11.31-15.33,15.8-11.28,6.51-26.17,9.77-41.07,9.77s-29.76-3.26-41.07-9.77c-7.83-4.52-12.95-10-15.33-15.88,2.41-5.81,7.53-11.31,15.33-15.8,11.28-6.52,26.18-9.78,41.07-9.78s29.76,3.26,41.07,9.78C711.77,97.84,716.89,103.37,719.27,109.2Z"></path><path class="cls-6" d="M720.89,101.28a20.74,20.74,0,0,1-1.62,7.92c-2.41,5.8-7.53,11.31-15.33,15.8-11.28,6.51-26.17,9.77-41.07,9.77s-29.76-3.26-41.07-9.77c-7.83-4.52-12.95-10-15.33-15.88a20,20,0,0,1-1.61-7.84c0-8.59,5.64-17.19,16.94-23.71S648,67.8,662.87,67.8s29.76,3.26,41.07,9.77S720.89,92.69,720.89,101.28Z"></path><path class="cls-7" d="M720.89,101.28V117c0,8.6-5.64,17.19-16.95,23.71s-26.17,9.77-41.07,9.77-29.76-3.26-41.07-9.77S604.86,125.63,604.86,117V101.28a20,20,0,0,0,1.61,7.84C608.85,115,614,120.48,621.8,125c11.31,6.51,26.18,9.77,41.07,9.77s29.79-3.26,41.07-9.77c7.8-4.49,12.92-10,15.33-15.8A20.74,20.74,0,0,0,720.89,101.28Z"></path><path class="cls-5" d="M314.78,227.75c2.4,5.81,2.67,13.32.33,22-3.37,12.59-11.6,25.42-22.13,36s-23.35,18.74-36,22.12c-8.73,2.35-16.26,2.06-22.07-.38-2.4-5.81-2.67-13.32-.33-22,3.37-12.58,11.6-25.42,22.13-35.95s23.35-18.74,35.95-22.13C301.44,225,309,225.31,314.78,227.75Z"></path><path class="cls-8" d="M310.33,221a20.73,20.73,0,0,1,4.45,6.74c2.4,5.81,2.67,13.32.33,22-3.37,12.59-11.6,25.42-22.13,36s-23.35,18.74-36,22.12c-8.73,2.35-16.26,2.06-22.07-.38a20,20,0,0,1-6.68-4.4c-6.08-6.08-8.17-16.14-4.78-28.75s11.6-25.42,22.13-35.95,23.35-18.74,35.95-22.13S304.25,214.94,310.33,221Z"></path><path class="cls-9" d="M310.33,221l11.13,11.14c6.08,6.08,8.17,16.14,4.78,28.75s-11.59,25.42-22.13,36S280.77,315.59,268.16,319s-22.67,1.29-28.75-4.79l-11.13-11.13a20,20,0,0,0,6.68,4.4c5.81,2.44,13.34,2.73,22.07.38,12.6-3.38,25.42-11.59,36-22.12s18.76-23.37,22.13-36c2.34-8.69,2.07-16.2-.33-22A20.73,20.73,0,0,0,310.33,221Z"></path><path class="cls-5" d="M112.59,597.6c5.81,2.41,11.31,7.53,15.8,15.33,6.52,11.28,9.77,26.18,9.77,41.07s-3.25,29.76-9.77,41.07c-4.52,7.83-10,12.95-15.88,15.33-5.8-2.41-11.31-7.53-15.8-15.33C90.2,683.79,86.94,668.9,86.94,654s3.26-29.76,9.77-41.07C101.23,605.1,106.76,600,112.59,597.6Z"></path><path class="cls-10" d="M104.68,596a20.68,20.68,0,0,1,7.91,1.61c5.81,2.41,11.31,7.53,15.8,15.33,6.52,11.28,9.77,26.18,9.77,41.07s-3.25,29.76-9.77,41.07c-4.52,7.83-10,12.95-15.88,15.33a19.76,19.76,0,0,1-7.83,1.62c-8.6,0-17.19-5.64-23.71-16.95S71.19,668.9,71.19,654s3.26-29.76,9.78-41.07S96.08,596,104.68,596Z"></path><path class="cls-11" d="M104.68,596h15.74c8.6,0,17.2,5.64,23.71,16.94s9.78,26.18,9.78,41.07-3.26,29.76-9.78,41.07S129,712,120.42,712H104.68a19.76,19.76,0,0,0,7.83-1.62c5.83-2.38,11.36-7.5,15.88-15.33,6.52-11.31,9.77-26.17,9.77-41.07s-3.25-29.79-9.77-41.07c-4.49-7.8-10-12.92-15.8-15.33A20.68,20.68,0,0,0,104.68,596Z"></path><path class="cls-5" d="M231.15,1002.09c5.8-2.4,13.32-2.67,22-.33,12.58,3.37,25.42,11.6,36,22.13s18.74,23.35,22.13,35.95c2.34,8.74,2.05,16.27-.39,22.07-5.81,2.41-13.32,2.68-22,.33-12.59-3.36-25.42-11.59-35.95-22.12s-18.74-23.35-22.13-36C228.42,1015.43,228.71,1007.9,231.15,1002.09Z"></path><path class="cls-12" d="M224.41,1006.55a20.81,20.81,0,0,1,6.74-4.46c5.8-2.4,13.32-2.67,22-.33,12.58,3.37,25.42,11.6,36,22.13s18.74,23.35,22.13,35.95c2.34,8.74,2.05,16.27-.39,22.07a19.76,19.76,0,0,1-4.39,6.68c-6.08,6.08-16.15,8.17-28.75,4.79s-25.42-11.6-35.95-22.13-18.75-23.35-22.13-36S218.33,1012.63,224.41,1006.55Z"></path><path class="cls-13" d="M224.41,1006.55l11.13-11.14c6.08-6.07,16.15-8.17,28.75-4.78s25.42,11.6,35.95,22.13,18.74,23.35,22.13,36,1.3,22.67-4.78,28.75l-11.13,11.13a19.76,19.76,0,0,0,4.39-6.68c2.44-5.8,2.73-13.33.39-22.07-3.39-12.6-11.6-25.42-22.13-35.95s-23.37-18.76-36-22.13c-8.69-2.34-16.21-2.07-22,.33A20.81,20.81,0,0,0,224.41,1006.55Z"></path><path class="cls-5" d="M601,1204.28c2.41-5.8,7.53-11.3,15.33-15.8,11.28-6.51,26.17-9.77,41.07-9.77s29.76,3.26,41.07,9.77c7.83,4.52,12.95,10,15.33,15.88-2.41,5.81-7.53,11.31-15.33,15.8-11.28,6.52-26.18,9.78-41.07,9.78s-29.76-3.26-41.07-9.78C608.5,1215.65,603.38,1210.11,601,1204.28Z"></path><path class="cls-14" d="M599.38,1212.2a20.74,20.74,0,0,1,1.62-7.92c2.41-5.8,7.53-11.3,15.33-15.8,11.28-6.51,26.17-9.77,41.07-9.77s29.76,3.26,41.07,9.77c7.83,4.52,12.95,10,15.33,15.88a20,20,0,0,1,1.61,7.84c0,8.59-5.64,17.19-16.94,23.71s-26.18,9.77-41.07,9.77-29.76-3.26-41.07-9.77S599.38,1220.79,599.38,1212.2Z"></path><path class="cls-15" d="M599.38,1212.2v-15.75c0-8.6,5.64-17.19,17-23.71S642.5,1163,657.4,1163s29.76,3.26,41.07,9.77,16.94,15.11,16.94,23.71v15.75a20,20,0,0,0-1.61-7.84c-2.38-5.83-7.5-11.36-15.33-15.88-11.31-6.51-26.18-9.77-41.07-9.77s-29.79,3.26-41.07,9.77c-7.8,4.5-12.92,10-15.33,15.8A20.74,20.74,0,0,0,599.38,1212.2Z"></path><path class="cls-5" d="M1005.49,1085.73c-2.4-5.81-2.67-13.32-.33-22,3.37-12.59,11.6-25.42,22.13-36s23.35-18.75,36-22.13c8.73-2.35,16.26-2.06,22.07.38,2.4,5.81,2.67,13.32.33,22-3.37,12.58-11.6,25.42-22.13,36s-23.35,18.74-36,22.13C1018.83,1088.46,1011.3,1088.17,1005.49,1085.73Z"></path><path class="cls-16" d="M1009.94,1092.47a20.73,20.73,0,0,1-4.45-6.74c-2.4-5.81-2.67-13.32-.33-22,3.37-12.59,11.6-25.42,22.13-36s23.35-18.75,36-22.13c8.73-2.35,16.26-2.06,22.07.38a20,20,0,0,1,6.68,4.4c6.08,6.08,8.17,16.14,4.78,28.75s-11.6,25.42-22.13,35.95-23.35,18.74-36,22.13S1016,1098.54,1009.94,1092.47Z"></path><path class="cls-17" d="M1009.94,1092.47l-11.13-11.14c-6.08-6.08-8.17-16.14-4.78-28.75s11.59-25.42,22.13-35.95,23.34-18.74,35.95-22.13,22.67-1.29,28.75,4.79l11.13,11.13a20,20,0,0,0-6.68-4.4c-5.81-2.44-13.34-2.73-22.07-.38-12.6,3.38-25.42,11.59-36,22.13s-18.76,23.36-22.13,36c-2.34,8.69-2.07,16.2.33,22A20.73,20.73,0,0,0,1009.94,1092.47Z"></path><path class="cls-5" d="M1207.68,715.88c-5.81-2.41-11.31-7.53-15.8-15.33-6.52-11.28-9.77-26.18-9.77-41.07s3.25-29.76,9.77-41.07c4.52-7.83,10-12.95,15.88-15.33,5.8,2.41,11.31,7.53,15.8,15.33,6.51,11.28,9.77,26.17,9.77,41.07s-3.26,29.76-9.77,41.07C1219,708.38,1213.51,713.5,1207.68,715.88Z"></path><path class="cls-18" d="M1215.59,717.49a20.68,20.68,0,0,1-7.91-1.61c-5.81-2.41-11.31-7.53-15.8-15.33-6.52-11.28-9.77-26.18-9.77-41.07s3.25-29.76,9.77-41.07c4.52-7.83,10-12.95,15.88-15.33a19.76,19.76,0,0,1,7.83-1.62c8.6,0,17.19,5.64,23.71,16.95s9.77,26.17,9.77,41.07-3.25,29.76-9.77,41.07S1224.19,717.49,1215.59,717.49Z"></path><path class="cls-19" d="M1215.59,717.49h-15.74c-8.6,0-17.2-5.64-23.71-16.94s-9.78-26.18-9.78-41.07,3.26-29.76,9.78-41.07,15.11-16.95,23.71-16.95h15.74a19.76,19.76,0,0,0-7.83,1.62c-5.83,2.38-11.36,7.5-15.88,15.33-6.52,11.31-9.77,26.17-9.77,41.07s3.25,29.79,9.77,41.07c4.49,7.8,10,12.92,15.8,15.33A20.68,20.68,0,0,0,1215.59,717.49Z"></path><path class="cls-5" d="M1089.12,311.39c-5.8,2.4-13.32,2.67-22,.33-12.58-3.37-25.42-11.6-35.95-22.13s-18.74-23.35-22.13-35.95c-2.34-8.74-2-16.27.39-22.07,5.81-2.41,13.32-2.68,22-.33,12.58,3.36,25.42,11.59,36,22.12s18.74,23.35,22.13,36C1091.85,298.05,1091.56,305.58,1089.12,311.39Z"></path><path class="cls-20" d="M1095.86,306.93a20.81,20.81,0,0,1-6.74,4.46c-5.8,2.4-13.32,2.67-22,.33-12.58-3.37-25.42-11.6-35.95-22.13s-18.74-23.35-22.13-35.95c-2.34-8.74-2-16.27.39-22.07a19.61,19.61,0,0,1,4.39-6.68c6.08-6.08,16.15-8.17,28.75-4.79s25.42,11.6,36,22.13,18.74,23.35,22.13,36S1101.94,300.85,1095.86,306.93Z"></path><path class="cls-21" d="M1095.86,306.93l-11.13,11.14c-6.08,6.08-16.15,8.17-28.75,4.78s-25.42-11.6-36-22.13-18.74-23.35-22.13-36-1.3-22.67,4.78-28.75l11.13-11.13a19.61,19.61,0,0,0-4.39,6.68c-2.44,5.8-2.73,13.33-.39,22.07,3.39,12.6,11.6,25.42,22.13,35.95s23.37,18.76,35.95,22.13c8.69,2.34,16.21,2.07,22-.33A20.81,20.81,0,0,0,1095.86,306.93Z"></path><circle class="cls-22" cx="660.13" cy="654" r="234.44"></circle><path class="cls-23" d="M660.13,419.57c129.48,0,234.44,105,234.44,234.43s-105,234.44-234.44,234.44S425.7,783.48,425.7,654s105-234.43,234.43-234.43m0-25.1a258.84,258.84,0,1,0,101,20.41,257.9,257.9,0,0,0-101-20.41Z"></path><circle class="cls-24" cx="660.13" cy="654" r="234.44"></circle><path class="cls-25" d="M774,724.17c0,25.58-10.55,49-28,66.85l-43.6-42.53a46.4,46.4,0,0,0,6.86-24.32,47.08,47.08,0,0,0-18.69-37.43,50.29,50.29,0,0,0-60.83,0A47.08,47.08,0,0,0,611,724.17a46.4,46.4,0,0,0,6.86,24.32L574.29,791c-17.42-17.89-28-41.27-28-66.85,0-26.57,11.38-50.76,30-68.89-17.35-18.38-27.87-42.51-27.87-68.94a99.86,99.86,0,0,1,25.83-66.72l42.78,41.79h0a46.37,46.37,0,0,0-6.05,23A47.34,47.34,0,0,0,634.4,625a50.37,50.37,0,0,0,51.47,0,47.34,47.34,0,0,0,23.37-40.61,46.37,46.37,0,0,0-6-23,.56.56,0,0,0-.05-.08l42.92-41.62C762.13,537.8,771.8,561,771.8,586.34c0,26.43-10.52,50.56-27.87,68.94C762.57,673.41,774,697.6,774,724.17Z"></path><line class="cls-26" x1="618.02" y1="748.37" x2="617.89" y2="748.49"></line><line class="cls-26" x1="574.29" y1="791.02" x2="574.28" y2="791.03"></line><line class="cls-26" x1="585.27" y1="800.85" x2="584.68" y2="801.42"></line><line class="cls-26" x1="584.77" y1="509.37" x2="584.68" y2="509.27"></line><path class="cls-27" d="M584.77,509.37l41.5,40.47a50.18,50.18,0,0,1,67.73,0l41.49-40.47a117.53,117.53,0,0,0-150.72,0Z"></path><path class="cls-27" d="M692.85,759.73a50.21,50.21,0,0,1-65.43,0l-42.15,41.12c20,15.64,46.19,25.13,74.86,25.13S715,816.49,735,800.85Z"></path><path class="cls-2" d="M569.77,136c-337.71,122.73-340.54,909.47-5.23,1037.37"></path><polygon class="cls-3" points="559.95 134.58 559.95 136.06 569.63 136.07 562.21 142.29 563.16 143.43 573.7 134.59 559.95 134.58"></polygon><polygon class="cls-3" points="554.69 1174.67 554.72 1173.19 564.4 1173.34 557.08 1167 558.04 1165.88 568.44 1174.88 554.69 1174.67"></polygon><path class="cls-2" d="M756.72,136.9c338.09,126.6,337.37,921.82-5.48,1039.5"></path><polygon class="cls-3" points="763.26 144.37 764.22 143.25 756.85 136.95 766.54 137.04 766.55 135.56 752.8 135.44 763.26 144.37"></polygon><polygon class="cls-3" points="757.99 1169.12 758.91 1170.27 751.38 1176.36 761.07 1176.54 761.04 1178.01 747.29 1177.76 757.99 1169.12"></polygon><path class="cls-2" d="M142.82,746.84c120.92,339.84,912.09,342.76,1038.51,5.48"></path><polygon class="cls-3" points="141.32 756.66 142.8 756.67 142.87 746.98 149.04 754.45 150.18 753.5 141.42 742.91 141.32 756.66"></polygon><polygon class="cls-3" points="1182.66 762.16 1181.18 762.14 1181.28 752.45 1174.98 759.82 1173.86 758.85 1182.8 748.41 1182.66 762.16"></polygon><path class="cls-2" d="M144.84,558.56c128.12-336.2,919.29-335.47,1038.48,5.5"></path><polygon class="cls-3" points="152.35 552.07 151.23 551.1 144.89 558.42 145.03 548.74 143.56 548.72 143.35 562.46 152.35 552.07"></polygon><polygon class="cls-3" points="1175.99 557.36 1177.14 556.42 1183.27 563.92 1183.4 554.24 1184.87 554.25 1184.7 568 1175.99 557.36"></polygon><text class="cls-28" transform="translate(630.21 37.62)">EUR</text><g class="cls-29"><polygon class="cls-30" points="677 82.18 677 90.77 675.78 94.11 675.78 85.52 677 82.18"></polygon><g class="cls-29"><g class="cls-31"><g class="cls-29"><path class="cls-32" d="M675.78,85.52v8.59c-.41-.2-.83-.38-1.26-.55V85c.43.17.85.35,1.26.55"></path><path class="cls-32" d="M674.52,85v8.59a19.7,19.7,0,0,0-7.19-1.26h-.86V83.72h.86A19.7,19.7,0,0,1,674.52,85"></path><path class="cls-32" d="M666.47,83.72v8.59a26.14,26.14,0,0,0-4.55.48V84.2a26.14,26.14,0,0,1,4.55-.48"></path><path class="cls-32" d="M661.92,84.2v8.59a17.86,17.86,0,0,0-2.62.73V84.93a17.86,17.86,0,0,1,2.62-.73"></path><path class="cls-30" d="M659.3,84.93v8.59l-.57.23V85.16l.57-.23"></path></g></g></g><g class="cls-29"><g class="cls-33"><g class="cls-29"><path class="cls-30" d="M658.73,85.16v8.59a11.67,11.67,0,0,0-1.69.86V86a11.67,11.67,0,0,1,1.69-.86"></path><path class="cls-30" d="M657,86v8.59A12.47,12.47,0,0,0,655,96.19a6.29,6.29,0,0,0-2,3.1V90.7a6.29,6.29,0,0,1,2-3.1A12.47,12.47,0,0,1,657,86"></path></g></g></g><rect class="cls-34" x="652.47" y="93.1" width="20.47" height="8.59"></rect><polygon class="cls-30" points="673.77 90.7 673.77 99.29 672.94 101.7 672.94 93.1 673.77 90.7"></polygon><rect class="cls-34" x="642.37" y="93.1" width="4" height="8.59"></rect><g class="cls-29"><g class="cls-35"><g class="cls-29"><path class="cls-30" d="M652.47,93.1v8.6a5.86,5.86,0,0,0,0,.72v-8.6a6,6,0,0,1,0-.72"></path></g></g></g><g class="cls-29"><g class="cls-36"><g class="cls-29"><path class="cls-30" d="M646.43,95.47v8.59a13.58,13.58,0,0,1-.1-1.63V93.84a13.58,13.58,0,0,0,.1,1.63"></path></g></g></g><rect class="cls-34" x="642.37" y="97.88" width="4.66" height="8.59"></rect><polygon class="cls-30" points="672.12 95.47 672.12 104.06 671.26 106.47 671.26 97.88 672.12 95.47"></polygon><rect class="cls-34" x="653.11" y="97.88" width="18.15" height="8.59"></rect><path class="cls-37" d="M658.73,85.16A12.29,12.29,0,0,0,655,87.6a6.29,6.29,0,0,0-2,3.1h20.81l-.83,2.4H652.47a6,6,0,0,0,0,.72c0,.92,0,1.47,0,1.65h19.65l-.86,2.41H653.11c.86,2.73,2.91,4.67,6.17,5.82a22.5,22.5,0,0,0,7.59,1.24c3.8,0,6.77-.58,8.91-1.76v3.7a32.15,32.15,0,0,1-8.42,1q-13.8,0-18.64-6.75A12.83,12.83,0,0,1,647,97.88h-4.67l.86-2.41h3.2a13.58,13.58,0,0,1-.1-1.63,6.23,6.23,0,0,1,0-.74h-4l.86-2.4h3.54q1.89-5.85,9.85-8.39a35.07,35.07,0,0,1,10.83-1.58A27.34,27.34,0,0,1,677,82.18l-1.22,3.34a19,19,0,0,0-8.45-1.81A22.29,22.29,0,0,0,658.73,85.16Z"></path><g class="cls-29"><g class="cls-38"><g class="cls-29"><path class="cls-32" d="M675.78,106.88v8.59c-.56.15-1.14.29-1.73.41v-8.59c.59-.12,1.17-.26,1.73-.41"></path><path class="cls-32" d="M674.05,107.29v8.59a33.06,33.06,0,0,1-5.71.62v-8.6a33.08,33.08,0,0,0,5.71-.61"></path><path class="cls-32" d="M668.34,107.9v8.6h-1a33.47,33.47,0,0,1-12-1.85v-8.59a33.47,33.47,0,0,0,12,1.85l1,0"></path><path class="cls-32" d="M655.38,106.07v8.59a16.56,16.56,0,0,1-3.58-1.87v-8.6a16.58,16.58,0,0,0,3.58,1.88"></path><path class="cls-32" d="M651.8,104.19v8.6a13.14,13.14,0,0,1-2.43-2.2V102a12.75,12.75,0,0,0,2.43,2.19"></path><path class="cls-30" d="M649.37,102v8.59a10.31,10.31,0,0,1-.65-.83,13,13,0,0,1-1.54-2.9V98.27a13,13,0,0,0,1.54,2.9,10.31,10.31,0,0,0,.65.83"></path><path class="cls-30" d="M647.18,98.27v8.59c0-.13-.1-.26-.14-.39V97.88c0,.13.09.26.14.39"></path></g></g></g></g><g class="cls-29"><polygon class="cls-30" points="1218.98 668.38 1211.28 668.38 1218.25 668.38 1225.96 668.38 1218.98 668.38"></polygon><polygon class="cls-30" points="1218.98 654.47 1211.28 654.47 1223.86 654.47 1231.57 654.47 1218.98 654.47"></polygon><rect class="cls-39" x="1206.98" y="673.04" width="7.71" height="7.7"></rect><rect class="cls-39" x="1206.98" y="634.83" width="7.71" height="33.54"></rect><polygon class="cls-30" points="1214.69 634.84 1206.98 634.84 1226.22 634.84 1233.93 634.84 1214.69 634.84"></polygon><polygon class="cls-30" points="1210.96 668.38 1203.26 668.38 1206.98 668.38 1214.69 668.38 1210.96 668.38"></polygon><rect class="cls-39" x="1203.26" y="668.38" width="7.71" height="4.66"></rect><polygon class="cls-40" points="1233.93 634.84 1233.93 640.25 1218.98 640.25 1218.98 654.47 1231.57 654.47 1231.57 659.89 1218.98 659.89 1218.98 668.38 1225.96 668.38 1225.96 673.04 1218.98 673.04 1218.98 680.74 1214.69 680.74 1214.69 673.04 1210.96 673.04 1210.96 668.38 1214.69 668.38 1214.69 634.84 1233.93 634.84"></polygon></g><g class="cls-29"><g class="cls-29"><g class="cls-41"><g class="cls-29"><path class="cls-42" d="M265.6,248.5l4.81,4.81a8.09,8.09,0,0,0-1.12-.59l-4.81-4.81a8.09,8.09,0,0,1,1.12.59"></path><path class="cls-42" d="M264.48,247.91l4.81,4.81a5.4,5.4,0,0,0-.84-.26l-4.8-4.81a5.64,5.64,0,0,1,.83.26"></path><path class="cls-32" d="M263.65,247.65l4.8,4.81a5.2,5.2,0,0,0-.67-.11L263,247.54a5.65,5.65,0,0,1,.68.11"></path><path class="cls-32" d="M263,247.54l4.81,4.81c-.21,0-.41,0-.61,0l-4.81-4.81c.2,0,.41,0,.61,0"></path><path class="cls-32" d="M262.36,247.53l4.81,4.81c-.1,0-.21,0-.31,0l-.33,0-4.81-4.8.33-.05.31,0"></path><path class="cls-30" d="M261.72,247.61l4.81,4.8a6.93,6.93,0,0,0-.81.21l-4.8-4.81a4.93,4.93,0,0,1,.8-.2"></path><path class="cls-30" d="M260.92,247.81l4.8,4.81a9.31,9.31,0,0,0-2.59,1.42l-4.81-4.81a9.22,9.22,0,0,1,2.6-1.42"></path></g></g></g><polygon class="cls-32" points="268.84 244.48 273.65 249.29 270.41 253.31 265.6 248.5 268.84 244.48"></polygon><g class="cls-29"><g class="cls-43"><g class="cls-29"><path class="cls-30" d="M256.22,251.28l4.8,4.81a8.86,8.86,0,0,0-2.07,4.39,4,4,0,0,0,1,3.41l-4.81-4.81a4,4,0,0,1-1-3.41,8.83,8.83,0,0,1,2.08-4.39"></path></g></g></g><polygon class="cls-30" points="258.32 249.23 263.13 254.04 270.3 261.21 265.49 256.4 258.32 249.23"></polygon><g class="cls-29"><g class="cls-44"><g class="cls-29"><path class="cls-30" d="M265.49,260.55l4.8,4.81a26.79,26.79,0,0,1-5.62,3.25l-.94.36-4.81-4.81c.31-.1.62-.23.94-.36a26.87,26.87,0,0,0,5.63-3.25"></path><path class="cls-30" d="M258.92,264.16l4.81,4.81a10.59,10.59,0,0,1-1.26.32l-4.81-4.81a9,9,0,0,0,1.26-.32"></path><path class="cls-32" d="M257.66,264.48l4.81,4.81a7.08,7.08,0,0,1-1,.11l-4.81-4.81a7.08,7.08,0,0,0,1-.11"></path><path class="cls-32" d="M256.65,264.59l4.81,4.81a7.35,7.35,0,0,1-.94,0l-4.81-4.81a7.35,7.35,0,0,0,.94,0"></path><path class="cls-32" d="M255.71,264.58l4.81,4.81-.27,0a6.37,6.37,0,0,1-.63-.11l-4.81-4.81a6.37,6.37,0,0,0,.63.11l.27,0"></path><path class="cls-42" d="M254.81,264.44l4.81,4.81a5.48,5.48,0,0,1-.92-.29l-4.81-4.81a5.79,5.79,0,0,0,.92.29"></path><path class="cls-42" d="M253.89,264.15,258.7,269a5.74,5.74,0,0,1-1-.55l-4.81-4.81a6.09,6.09,0,0,0,1,.55"></path><path class="cls-42" d="M252.85,263.6l4.81,4.81a6.34,6.34,0,0,1-1-.82l-4.81-4.8a6.27,6.27,0,0,0,1,.81"></path></g></g></g><g class="cls-29"><g class="cls-45"><g class="cls-29"><path class="cls-42" d="M276.28,257.74l4.81,4.81a5,5,0,0,0-.72-.6l-4.81-4.81a5,5,0,0,1,.72.6"></path><path class="cls-42" d="M275.56,257.14l4.81,4.81a3.83,3.83,0,0,0-.69-.37l-4.81-4.8a3.24,3.24,0,0,1,.69.36"></path><path class="cls-42" d="M274.87,256.78l4.81,4.8a3.62,3.62,0,0,0-.56-.17l-4.81-4.81a2.81,2.81,0,0,1,.56.18"></path><path class="cls-32" d="M274.31,256.6l4.81,4.81a4.89,4.89,0,0,0-.53-.09l-4.81-4.8a3.08,3.08,0,0,1,.53.08"></path><path class="cls-32" d="M273.78,256.52l4.81,4.8h-.53l-4.81-4.81a3.11,3.11,0,0,1,.53,0"></path><path class="cls-32" d="M273.25,256.51l4.81,4.81H278l-.42.05-4.81-4.81.42-.05h.09"></path><path class="cls-30" d="M272.74,256.56l4.81,4.81a7,7,0,0,0-.84.22l-4.81-4.81a7.56,7.56,0,0,1,.84-.22"></path><path class="cls-30" d="M271.9,256.78l4.81,4.81a19.31,19.31,0,0,0-4,2l-4.81-4.81a19.31,19.31,0,0,1,4-2"></path></g></g></g><polygon class="cls-30" points="267.91 258.82 272.72 263.63 280.29 271.2 275.48 266.39 267.91 258.82"></polygon><g class="cls-29"><g class="cls-46"><g class="cls-29"><path class="cls-30" d="M279.73,254l4.81,4.81a7.33,7.33,0,0,1,2,6.63,14.74,14.74,0,0,1-4.17,7.87l-4.81-4.81a14.74,14.74,0,0,0,4.17-7.87,7.32,7.32,0,0,0-2-6.63"></path></g></g></g><g class="cls-29"><g class="cls-47"><g class="cls-29"><path class="cls-30" d="M275.5,270.57l4.81,4.8a24.11,24.11,0,0,1-5.12,3.46,9.13,9.13,0,0,1-1.09.43l-4.81-4.81a9.13,9.13,0,0,0,1.09-.43,24.4,24.4,0,0,0,5.12-3.45"></path><path class="cls-30" d="M269.29,274.45l4.81,4.81a8.36,8.36,0,0,1-1.33.34L268,274.79a8.36,8.36,0,0,0,1.33-.34"></path><path class="cls-32" d="M268,274.79l4.81,4.81a9,9,0,0,1-1.28.14l-4.81-4.81a9,9,0,0,0,1.28-.14"></path><path class="cls-32" d="M266.68,274.93l4.81,4.81a9.91,9.91,0,0,1-1.09,0l-.25,0-4.81-4.81.25,0a9.91,9.91,0,0,0,1.09,0"></path><path class="cls-32" d="M265.34,274.91l4.81,4.81a7.53,7.53,0,0,1-1.06-.16l-4.81-4.81a7.53,7.53,0,0,0,1.06.16"></path><path class="cls-42" d="M264.28,274.75l4.81,4.81a8,8,0,0,1-1.17-.37l-4.81-4.81a8,8,0,0,0,1.17.37"></path><path class="cls-42" d="M263.11,274.38l4.81,4.81a8.94,8.94,0,0,1-1.46-.78l-4.81-4.81a8.94,8.94,0,0,0,1.46.78"></path><path class="cls-42" d="M261.65,273.6l4.81,4.81c-.25-.17-.5-.35-.74-.54l-4.81-4.81c.24.19.49.37.74.54"></path></g></g></g><path class="cls-48" d="M277,252.34a6.14,6.14,0,0,1,2.74,1.62,7.32,7.32,0,0,1,2,6.63,14.74,14.74,0,0,1-4.17,7.87l2.52,2.52L278,273.05l-2.49-2.48a24.4,24.4,0,0,1-5.12,3.45,9.92,9.92,0,0,1-4.79.91,8,8,0,0,1-4.68-1.87l3.07-4a7.53,7.53,0,0,0,4.39,1.5,8.28,8.28,0,0,0,5-2.08l-7.92-7.92a26.87,26.87,0,0,1-5.63,3.25,8.41,8.41,0,0,1-4.42.75,6.07,6.07,0,0,1-3.58-1.76q-2.64-2.66-1.64-7a16.8,16.8,0,0,1,3.92-6.63L253,248l2.08-2.08,1.19,1.19a15.62,15.62,0,0,1,6.13-3.59,7.67,7.67,0,0,1,6.49.94l-3.24,4a5.33,5.33,0,0,0-3.55-.94,7.78,7.78,0,0,0-3.73,1.67l7.17,7.17q3.12-2.17,4.25-2.78a13.18,13.18,0,0,1,3.92-1.43A7.14,7.14,0,0,1,277,252.34Zm.62,9.4a4.65,4.65,0,0,0-1.33-4,3.88,3.88,0,0,0-3.12-1.23q-1.77.12-5.25,2.31l7.57,7.57a8.66,8.66,0,0,0,2.13-4.65m-14.51-3.58-6.88-6.88a8.83,8.83,0,0,0-2.08,4.39,4,4,0,0,0,1,3.41,3.8,3.8,0,0,0,3.14,1.12,11.37,11.37,0,0,0,4.78-2"></path><rect class="cls-42" x="279.97" y="271.02" width="2.93" height="6.8" transform="translate(-111.62 279.38) rotate(-45)"></rect></g><g class="cls-29"><polygon class="cls-30" points="90.65 651.79 98.15 651.79 101.11 651.79 93.61 651.79 90.65 651.79"></polygon><g class="cls-29"><g class="cls-49"><g class="cls-29"><path class="cls-30" d="M97.65,663.12h7.5a11.64,11.64,0,0,1-.63,4,11.27,11.27,0,0,1-1.73,3.11h-7.5a10.89,10.89,0,0,0,2.36-7.16"></path></g></g></g><rect class="cls-50" x="97.65" y="655.53" width="7.51" height="7.59"></rect><rect class="cls-50" x="97.65" y="643.57" width="7.51" height="8.22"></rect><g class="cls-29"><g class="cls-51"><g class="cls-29"><path class="cls-30" d="M103.28,634.27h7.51a4.43,4.43,0,0,0-2.45.66,5.07,5.07,0,0,0-1.77,1.87,9.88,9.88,0,0,0-1.07,2.93,19.55,19.55,0,0,0-.35,3.84h-7.5a18.81,18.81,0,0,1,.35-3.84,9.61,9.61,0,0,1,1.06-2.93,5.15,5.15,0,0,1,1.77-1.87,4.45,4.45,0,0,1,2.45-.66"></path></g></g></g><g class="cls-29"><g class="cls-52"><g class="cls-29"><path class="cls-30" d="M107.39,654h7.5a1.78,1.78,0,0,1-.33,1,1,1,0,0,1-.81.46h-7.51a1,1,0,0,0,.81-.46,1.73,1.73,0,0,0,.34-1"></path></g></g></g><rect class="cls-50" x="107.39" y="651.79" width="7.51" height="2.24"></rect><polygon class="cls-30" points="97.65 651.79 105.16 651.79 114.89 651.79 107.39 651.79 97.65 651.79"></polygon><g class="cls-29"><g class="cls-53"><g class="cls-29"><path class="cls-30" d="M110.21,638.7h7.51a1.35,1.35,0,0,1-.91.35h-7.5a1.47,1.47,0,0,0,.45-.08,1.54,1.54,0,0,0,.45-.27"></path></g></g></g><polygon class="cls-30" points="111.8 637.26 119.31 637.26 117.72 638.71 110.21 638.71 111.8 637.26"></polygon><g class="cls-29"><g class="cls-54"><g class="cls-29"><path class="cls-30" d="M103.28,629.49h7.51a7.38,7.38,0,0,1,3,.61,7.92,7.92,0,0,1,2.27,1.56h-7.5a8.2,8.2,0,0,0-2.27-1.56,7.43,7.43,0,0,0-3.06-.61"></path><path class="cls-30" d="M108.61,631.66h7.5l.11.11a11.3,11.3,0,0,1,1.8,2.46,18.28,18.28,0,0,1,1.29,3H111.8a18.28,18.28,0,0,0-1.29-3,11.3,11.3,0,0,0-1.8-2.46l-.1-.11"></path></g></g></g><g class="cls-29"><g class="cls-55"><g class="cls-29"><path class="cls-30" d="M112.31,673.91h7.51a2,2,0,0,1-.53.58,1.19,1.19,0,0,1-.71.22h-7.5a1.16,1.16,0,0,0,.7-.22,1.86,1.86,0,0,0,.53-.58"></path></g></g></g><g class="cls-29"><g class="cls-56"><g class="cls-29"><path class="cls-30" d="M112.78,672.27h7.5a3.13,3.13,0,0,1-.12.86,3.07,3.07,0,0,1-.34.78h-7.51a2.75,2.75,0,0,0,.34-.78,3.14,3.14,0,0,0,.13-.86"></path></g></g></g><rect class="cls-50" x="112.78" y="669.9" width="7.51" height="2.38"></rect><polygon class="cls-30" points="97.85 669.9 105.35 669.9 120.28 669.9 112.78 669.9 97.85 669.9"></polygon><path class="cls-57" d="M103.28,629.49a7.43,7.43,0,0,1,3.06.61,7.84,7.84,0,0,1,2.37,1.67,11.3,11.3,0,0,1,1.8,2.46,18.28,18.28,0,0,1,1.29,3l-1.59,1.44a1.54,1.54,0,0,1-.45.27,1.47,1.47,0,0,1-.45.08,1.26,1.26,0,0,1-.59-.17,1.66,1.66,0,0,1-.51-.62c-.3-.52-.6-1-.9-1.51a6.24,6.24,0,0,0-1-1.28,4.47,4.47,0,0,0-1.29-.88,4.29,4.29,0,0,0-1.72-.32,4.45,4.45,0,0,0-2.45.66,5.15,5.15,0,0,0-1.77,1.87A9.61,9.61,0,0,0,98,639.73a18.81,18.81,0,0,0-.35,3.84v8.22h9.74V654a1.73,1.73,0,0,1-.34,1,1,1,0,0,1-.81.46H97.65v7.59a10.89,10.89,0,0,1-2.36,7.16c.42-.11.84-.19,1.26-.27a7,7,0,0,1,1.3-.11h14.93v2.37a3.14,3.14,0,0,1-.13.86,2.75,2.75,0,0,1-.34.78,1.86,1.86,0,0,1-.53.58,1.16,1.16,0,0,1-.7.22H89.79v-3.59a6.53,6.53,0,0,0,1.43-.84,5.46,5.46,0,0,0,1.22-1.34,6.84,6.84,0,0,0,.84-1.87,8.58,8.58,0,0,0,.33-2.51v-9H89.3v-1.8a2.53,2.53,0,0,1,.36-1.38,1.09,1.09,0,0,1,1-.56h3v-8.15a23.77,23.77,0,0,1,.6-5.52,14.27,14.27,0,0,1,1.8-4.49,9.23,9.23,0,0,1,3-3A8,8,0,0,1,103.28,629.49Z"></path></g><g class="cls-29"><rect class="cls-42" x="660.88" y="1216.48" width="9.97" height="7.13"></rect><rect class="cls-42" x="645.65" y="1216.48" width="9.97" height="7.13"></rect><rect class="cls-42" x="661.85" y="1212.23" width="9" height="7.13"></rect><rect class="cls-42" x="645.65" y="1212.23" width="8.98" height="7.13"></rect><g class="cls-29"><g class="cls-58"><g class="cls-29"><path class="cls-30" d="M657.09,1215.31v-7.13c.28.48.51.92.71,1.32a10,10,0,0,1,.49,1.19v7.13a9.32,9.32,0,0,0-.49-1.19c-.2-.4-.43-.84-.71-1.32"></path></g></g></g><g class="cls-29"><g class="cls-59"><g class="cls-29"><path class="cls-30" d="M658.29,1217.82v-7.13c.14-.4.3-.8.47-1.2a13.88,13.88,0,0,1,.68-1.31v7.13c-.27.47-.5.9-.68,1.3s-.33.81-.47,1.21"></path></g></g></g><polygon class="cls-30" points="659.44 1215.31 659.44 1208.18 667.51 1196.57 667.51 1203.69 659.44 1215.31"></polygon><polygon class="cls-32" points="649 1203.69 649 1196.57 657.09 1208.18 657.09 1215.31 649 1203.69"></polygon><rect class="cls-42" x="642.65" y="1195.64" width="4.37" height="7.13"></rect><g class="cls-29"><g class="cls-60"><g class="cls-29"><path class="cls-30" d="M647,1202.77v-7.13a2.44,2.44,0,0,1,1.21.26,2.23,2.23,0,0,1,.76.67v7.12a2.32,2.32,0,0,0-.76-.66,2.44,2.44,0,0,0-1.21-.26"></path></g></g></g><path class="cls-61" d="M673.85,1202.77l-12,16.58h9v2.1h-10v2.15h10v2.12h-10v6.46h-5.26v-6.46h-10v-2.12h10v-2.15h-10v-2.1h9l-12-16.58H647a2.44,2.44,0,0,1,1.21.26,2.32,2.32,0,0,1,.76.66l8.09,11.62c.28.48.51.92.71,1.32a9.32,9.32,0,0,1,.49,1.19c.14-.4.3-.8.47-1.21s.41-.83.68-1.3l8.07-11.62a2.16,2.16,0,0,1,.72-.63,2.27,2.27,0,0,1,1.22-.29Z"></path><g class="cls-29"><g class="cls-62"><g class="cls-29"><path class="cls-30" d="M667.51,1203.69v-7.12a2.08,2.08,0,0,1,.72-.64,2.37,2.37,0,0,1,1.22-.29v7.13a2.27,2.27,0,0,0-1.22.29,2.16,2.16,0,0,0-.72.63"></path></g></g></g><rect class="cls-42" x="669.45" y="1195.64" width="4.4" height="7.13"></rect></g><g class="cls-29"><polygon class="cls-63" points="1074.05 263.33 1069.02 268.36 1064.83 264.97 1069.85 259.94 1074.05 263.33"></polygon><g class="cls-29"><g class="cls-64"><g class="cls-29"><path class="cls-30" d="M1069.85,260l-5,5a6.39,6.39,0,0,0,.88-2l5-5a6.49,6.49,0,0,1-.88,2"></path><path class="cls-30" d="M1070.73,257.92l-5,5a4.31,4.31,0,0,0,.1-.61l5-5a4.62,4.62,0,0,1-.11.61"></path><path class="cls-32" d="M1070.84,257.31l-5,5a3.25,3.25,0,0,0,0-.44l5-5c0,.14,0,.29,0,.44"></path><path class="cls-32" d="M1070.86,256.87l-5,5c0-.12,0-.24,0-.36l5-5c0,.13,0,.25,0,.37"></path><path class="cls-32" d="M1070.86,256.5l-5,5a2.45,2.45,0,0,0,0-.27v-.06l5-5v.06l0,.26"></path><path class="cls-42" d="M1070.82,256.18l-5,5c0-.1,0-.21,0-.32l5-5c0,.11,0,.21,0,.32"></path><path class="cls-42" d="M1070.77,255.86l-5,5c0-.1,0-.21-.07-.31l5-5,.06.31"></path><path class="cls-42" d="M1070.71,255.55l-5,5c0-.1,0-.21-.08-.31l5-5,.09.31"></path><path class="cls-50" d="M1070.62,255.24l-5,5c0-.1-.07-.21-.1-.32l5-5c0,.11.07.21.1.32"></path><path class="cls-50" d="M1070.52,254.92l-5,5c0-.1-.08-.21-.13-.32l5-5c0,.11.09.22.13.33"></path><path class="cls-50" d="M1070.39,254.59l-5,5-.15-.35,5-5a2.52,2.52,0,0,1,.15.34"></path><path class="cls-65" d="M1070.24,254.25l-5,5-.19-.38,5-5c.06.13.13.25.18.38"></path><path class="cls-65" d="M1070.06,253.87l-5,5-.23-.42,5-5c.09.14.16.28.24.42"></path><path class="cls-65" d="M1069.82,253.45l-5,5-.3-.49,5-5c.11.17.21.33.3.49"></path><path class="cls-39" d="M1069.52,253l-5,5-.43-.6,5-5c.15.21.3.41.43.61"></path><path class="cls-39" d="M1069.09,252.35l-5,5v0l5-5h0"></path></g></g></g><g class="cls-29"><g class="cls-66"><g class="cls-29"><path class="cls-67" d="M1067,250.15l-5,5a13.79,13.79,0,0,0-1.36-1l5-5a12.39,12.39,0,0,1,1.37,1"></path><path class="cls-39" d="M1065.58,249.18l-5,5a9.34,9.34,0,0,0-.92-.5l5-5c.31.15.61.32.92.51"></path><path class="cls-39" d="M1064.66,248.67l-5,5c-.2-.1-.39-.18-.59-.26l5-5,.58.25"></path><path class="cls-39" d="M1064.08,248.42l-5,5-.47-.17,5-5,.48.17"></path><path class="cls-65" d="M1063.6,248.25l-5,5-.42-.11,5-5,.41.12"></path><path class="cls-65" d="M1063.19,248.13l-5,5c-.12,0-.25-.06-.38-.09l5-5,.39.08"></path><path class="cls-65" d="M1062.8,248.05l-5,5-.35-.06,5-5,.35.06"></path><path class="cls-50" d="M1062.45,248l-5,5h-.1l-.26,0,5-5,.26,0h.09"></path><path class="cls-50" d="M1062.1,248l-5,5-.34,0,5-5h.35"></path><path class="cls-50" d="M1061.75,247.94l-5,5h-.33l5-5h.32"></path><path class="cls-42" d="M1061.43,247.94l-5,5-.31,0,5-5,.31,0"></path><path class="cls-42" d="M1061.12,248l-5,5-.3,0,5-5,.31,0"></path><path class="cls-42" d="M1060.81,248l-5,5-.3.07,5-5,.3-.07"></path><path class="cls-32" d="M1060.51,248.08l-5,5a1.58,1.58,0,0,0-.31.09l5-5,.31-.1"></path><path class="cls-32" d="M1060.2,248.18l-5,5-.33.13,5-5,.33-.13"></path><path class="cls-32" d="M1059.87,248.31l-5,5-.36.19,5-5a3.9,3.9,0,0,1,.35-.19"></path><path class="cls-30" d="M1059.52,248.5l-5,5a4.48,4.48,0,0,0-.44.32l5-5a3.47,3.47,0,0,1,.44-.31"></path><path class="cls-30" d="M1059.08,248.81l-5,5a2.11,2.11,0,0,0-.27.25l5-5a3.45,3.45,0,0,1,.28-.26"></path></g></g></g><polygon class="cls-30" points="1059.76 257.33 1054.73 262.36 1061.92 255.17 1066.94 250.15 1059.76 257.33"></polygon><g class="cls-29"><g class="cls-68"><g class="cls-29"><path class="cls-39" d="M1057.26,259.83l-5,5c-.07-.08-.13-.17-.2-.26l5-5c.07.09.14.17.2.26"></path><path class="cls-39" d="M1057.06,259.57l-5,5c-.28-.37-.55-.76-.81-1.15l5-5c.26.4.53.79.8,1.16"></path><path class="cls-65" d="M1056.26,258.41l-5,5q-.37-.57-.72-1.17l5-5c.24.4.48.79.73,1.16"></path><path class="cls-65" d="M1055.53,257.25l-5,5c-.23-.39-.46-.79-.67-1.21l5-5c.22.41.44.82.67,1.21"></path><path class="cls-65" d="M1054.86,256l-5,5c-.22-.42-.44-.85-.64-1.29l5-5c.21.44.42.88.64,1.3"></path><path class="cls-50" d="M1054.22,254.74l-5,5c-.12-.26-.24-.52-.35-.79a2.44,2.44,0,0,1-.1-.24l5-5,.1.24c.11.26.23.52.35.78"></path><path class="cls-50" d="M1053.77,253.72l-5,5a5.55,5.55,0,0,1-.2-.52l5-5c.06.17.13.34.2.52"></path><path class="cls-50" d="M1053.57,253.2l-5,5a4.83,4.83,0,0,1-.16-.5l5-5c0,.17.1.33.16.5"></path><path class="cls-42" d="M1053.41,252.7l-5,5c-.05-.16-.1-.32-.14-.48l5-5c0,.17.08.33.13.49"></path><path class="cls-42" d="M1053.28,252.21l-5,5c0-.16-.07-.33-.1-.49l5-5c0,.16.07.32.11.48"></path><path class="cls-42" d="M1053.17,251.73l-5,5c0-.16-.06-.33-.08-.49l5-5c0,.17.05.33.08.5"></path><path class="cls-32" d="M1053.09,251.23l-5,5c0-.18,0-.35,0-.53l5-5c0,.17,0,.35,0,.52"></path><path class="cls-32" d="M1053,250.71l-5,5a5.42,5.42,0,0,1,0-.57l5-5c0,.19,0,.38,0,.57"></path><path class="cls-32" d="M1053,250.14l-5,5a4.87,4.87,0,0,1,0-.66l5-5c0,.22,0,.44,0,.66"></path><path class="cls-30" d="M1053.07,249.48l-5,5c0-.05,0-.1,0-.15,0-.22.07-.45.12-.66l5-5c0,.22-.09.44-.12.67,0,0,0,.1,0,.15"></path><path class="cls-30" d="M1053.21,248.66l-5,5a6.25,6.25,0,0,1,1.72-3.07l5-5a6.2,6.2,0,0,0-1.71,3.06"></path></g></g></g><g class="cls-29"><g class="cls-69"><g class="cls-29"><path class="cls-30" d="M1060.19,271.1l-5,5a4.38,4.38,0,0,0,1.2-2.06l5-5a4.19,4.19,0,0,1-1.2,2.05"></path><path class="cls-30" d="M1061.39,269.05l-5,5a3.4,3.4,0,0,0,.07-.46l5-5a3.69,3.69,0,0,1-.08.46"></path><path class="cls-32" d="M1061.47,268.59l-5,5c0-.12,0-.24,0-.36l5-5c0,.12,0,.25,0,.37"></path><path class="cls-32" d="M1061.49,268.22l-5,5c0-.12,0-.23,0-.34l5-5c0,.11,0,.22,0,.33"></path><path class="cls-32" d="M1061.48,267.89l-5,5v0a1.49,1.49,0,0,0,0-.21l5-5c0,.08,0,.15,0,.22v0"></path><path class="cls-42" d="M1061.46,267.63l-5,5a2.34,2.34,0,0,0,0-.26l5-5c0,.09,0,.18,0,.26"></path><path class="cls-42" d="M1061.42,267.37l-5,5-.06-.3,5-5c0,.1.05.2.07.29"></path><path class="cls-42" d="M1061.35,267.08l-5,5-.09-.33,5-5c0,.12.07.23.09.34"></path><path class="cls-50" d="M1061.26,266.74l-5,5c0-.13-.08-.26-.13-.4l5-5c0,.13.09.27.13.39"></path><path class="cls-50" d="M1061.13,266.35l-5,5-.19-.48,5-5c.06.16.13.32.18.48"></path><path class="cls-50" d="M1061,265.87l-5,5c-.08-.2-.17-.4-.26-.61l5-5c.1.21.19.41.27.61"></path><path class="cls-65" d="M1060.68,265.26l-5,5c-.12-.26-.26-.53-.4-.81l5-5c.15.28.28.55.4.81"></path><path class="cls-65" d="M1060.28,264.45l-5,5c-.19-.36-.4-.74-.64-1.14l5-5c.24.4.45.78.64,1.14"></path><path class="cls-65" d="M1059.64,263.31l-5,5c-.18-.31-.37-.62-.58-.95l5-5c.21.32.4.64.58.95"></path></g></g></g><polygon class="cls-30" points="1048.99 268.1 1043.97 273.13 1052.24 264.86 1057.26 259.83 1048.99 268.1"></polygon><g class="cls-29"><g class="cls-70"><g class="cls-29"><path class="cls-30" d="M1064.15,274.71l-5,5a5.57,5.57,0,0,1-.57.52l5-5a7,7,0,0,0,.58-.52"></path><path class="cls-30" d="M1063.57,275.23l-5,5a7.37,7.37,0,0,1-.87.63l5-5a7.28,7.28,0,0,0,.87-.62"></path><path class="cls-32" d="M1062.7,275.85l-5,5a7.59,7.59,0,0,1-.69.36l5-5a5.7,5.7,0,0,0,.69-.37"></path><path class="cls-32" d="M1062,276.22l-5,5a4.73,4.73,0,0,1-.62.25l5-5c.2-.07.41-.16.61-.25"></path><path class="cls-32" d="M1061.4,276.47l-5,5a4.75,4.75,0,0,1-.57.18l5-5,.57-.18"></path><path class="cls-42" d="M1060.83,276.65l-5,5-.54.12,5-5,.55-.12"></path><path class="cls-42" d="M1060.28,276.77l-5,5-.55.08,5-5,.54-.08"></path><path class="cls-42" d="M1059.74,276.85l-5,5-.54.05,5-5,.55,0"></path><path class="cls-50" d="M1059.19,276.89l-5,5h-.56l5-5h.56"></path><path class="cls-50" d="M1058.63,276.9l-5,5-.59,0,5-5,.59,0"></path><path class="cls-50" d="M1058,276.88l-5,5-.65-.07,5-5,.65.07"></path><path class="cls-65" d="M1057.39,276.81l-5,5-.18,0-.5-.09,5-5,.49.08.18,0"></path><path class="cls-65" d="M1056.72,276.7l-5,5c-.23,0-.45-.09-.68-.15l5-5q.35.09.69.15"></path><path class="cls-65" d="M1056,276.55l-5,5-.72-.2,5-5q.36.12.72.21"></path><path class="cls-39" d="M1055.31,276.34l-5,5c-.27-.09-.53-.18-.8-.29l5-5c.26.1.53.2.79.28"></path><path class="cls-39" d="M1054.52,276.06l-5,5c-.31-.12-.63-.26-.94-.41l5-5c.31.15.63.29,1,.41"></path><path class="cls-39" d="M1053.57,275.65l-5,5a14,14,0,0,1-1.41-.77l5-5a14.84,14.84,0,0,0,1.4.77"></path><path class="cls-67" d="M1052.17,274.88l-5,5a19.18,19.18,0,0,1-3.17-2.45l5-5a19.79,19.79,0,0,0,3.18,2.45"></path></g></g></g><g class="cls-29"><g class="cls-71"><g class="cls-29"><path class="cls-39" d="M1046.8,270.29l-5,5c-.51-.61-1-1.2-1.4-1.76l5-5c.42.57.88,1.16,1.39,1.76"></path><path class="cls-39" d="M1045.41,268.53l-5,5c-.33-.45-.63-.88-.91-1.3l5-5c.27.42.58.85.91,1.29"></path><path class="cls-65" d="M1044.5,267.24l-5,5c-.21-.32-.41-.64-.59-.95l5-5c.18.31.38.62.6.95"></path><path class="cls-65" d="M1043.9,266.29l-5,5-.42-.75,5-5c.13.24.26.49.41.75"></path><path class="cls-65" d="M1043.49,265.54l-5,5c-.1-.2-.2-.4-.29-.6v0l5-5v0c.09.2.19.39.3.6"></path><path class="cls-50" d="M1043.18,264.92l-5,5c-.07-.15-.14-.3-.2-.46l5-5c.06.15.13.31.2.46"></path><path class="cls-50" d="M1043,264.46l-5,5-.18-.46,5-5c0,.15.11.31.17.46"></path><path class="cls-50" d="M1042.81,264l-5,5c0-.16-.11-.31-.15-.47l5-5c0,.16.1.32.16.48"></path><path class="cls-42" d="M1042.65,263.52l-5,5c-.05-.17-.1-.33-.14-.5l5-5c0,.17.09.34.14.5"></path><path class="cls-42" d="M1042.51,263l-5,5c0-.18-.08-.36-.11-.54l5-5c0,.18.07.36.11.53"></path><path class="cls-42" d="M1042.4,262.49l-5,5c0-.19-.07-.39-.1-.59l5-5c0,.2,0,.39.09.59"></path><path class="cls-32" d="M1042.31,261.9l-5,5c0-.22,0-.44-.06-.67l5-5c0,.22,0,.45.07.67"></path><path class="cls-32" d="M1042.24,261.23l-5,5c0-.27,0-.53,0-.8l5-5c0,.27,0,.54,0,.81"></path><path class="cls-32" d="M1042.22,260.42l-5,5c0-.17,0-.33,0-.49l0-.44,5-5c0,.14,0,.29,0,.43s0,.33,0,.49"></path><path class="cls-30" d="M1042.28,259.5l-5,5c0-.32.09-.63.16-.95l5-5a6.08,6.08,0,0,0-.16.95"></path><path class="cls-30" d="M1042.44,258.55l-5,5a8.57,8.57,0,0,1,1.77-3.49l5-5a8.27,8.27,0,0,0-1.77,3.49"></path></g></g></g><path class="cls-72" d="M1065.84,271.84a6.47,6.47,0,0,1-1.69,2.87,7.66,7.66,0,0,1-6.94,2.07,15.43,15.43,0,0,1-8.22-4.35l-2.62,2.62-2.17-2.16,2.6-2.6a25.35,25.35,0,0,1-3.61-5.35,10.32,10.32,0,0,1-1-5,8.17,8.17,0,0,1,2-4.87l4.18,3.2a7.87,7.87,0,0,0-1.57,4.58,8.59,8.59,0,0,0,2.17,5.26l8.27-8.27a28,28,0,0,1-3.39-5.87,8.71,8.71,0,0,1-.78-4.63,6.25,6.25,0,0,1,1.83-3.73q2.77-2.78,7.27-1.72c2,.48,4.31,1.84,6.92,4.1l1.24-1.24,2.17,2.16-1.25,1.25a16.15,16.15,0,0,1,3.76,6.41,8,8,0,0,1-1,6.77l-4.2-3.38a5.63,5.63,0,0,0,1-3.71,8.25,8.25,0,0,0-1.75-3.9l-7.49,7.49a53,53,0,0,1,2.91,4.44,14.11,14.11,0,0,1,1.5,4.09A7.64,7.64,0,0,1,1065.84,271.84Zm-9.83.66a4.9,4.9,0,0,0,4.18-1.4,4,4,0,0,0,1.29-3.25c-.09-1.24-.89-3.07-2.42-5.49l-7.91,7.91a9.18,9.18,0,0,0,4.86,2.23m3.75-15.17,7.19-7.18a9.06,9.06,0,0,0-4.59-2.17,4.08,4.08,0,0,0-3.56,1.09,3.91,3.91,0,0,0-1.17,3.27,11.61,11.61,0,0,0,2.13,5"></path><rect class="cls-63" x="1039.22" y="274.95" width="7.1" height="3.06" transform="translate(109.92 818.33) rotate(-45)"></rect></g><g class="cls-29"><polygon class="cls-30" points="249.13 1063.23 254.3 1058.06 256.97 1055.39 251.8 1060.56 249.13 1063.23"></polygon><g class="cls-29"><g class="cls-73"><g class="cls-29"><path class="cls-30" d="M256.28,1060.53l5.17-5.17a9.32,9.32,0,0,0,5,2.29l-5.16,5.17a9.43,9.43,0,0,1-5-2.29"></path></g></g></g><g class="cls-29"><g class="cls-74"><g class="cls-29"><path class="cls-30" d="M261.28,1062.82l5.16-5.17a5.15,5.15,0,0,0,3.34-.66l-5.17,5.17a5.14,5.14,0,0,1-3.33.66"></path><path class="cls-30" d="M264.61,1062.16l5.17-5.17a5.15,5.15,0,0,0,.74-.54l-5.17,5.17a5.37,5.37,0,0,1-.74.54"></path><path class="cls-32" d="M265.35,1061.62l5.17-5.17.23-.22-5.17,5.16-.23.23"></path></g></g></g><g class="cls-29"><g class="cls-75"><g class="cls-29"><path class="cls-30" d="M253.43,1048.17l5.17-5.16a8,8,0,0,0-1.61,4.71,8.84,8.84,0,0,0,2.24,5.42l-5.17,5.16a8.87,8.87,0,0,1-2.24-5.41,8,8,0,0,1,1.61-4.72"></path></g></g></g><polygon class="cls-30" points="249.13 1044.88 254.3 1039.71 258.6 1043.01 253.43 1048.17 249.13 1044.88"></polygon><g class="cls-29"><g class="cls-76"><g class="cls-29"><path class="cls-30" d="M271.39,1062.15l5.17-5.17a6.7,6.7,0,0,1-1.75,3l-5.17,5.17a6.81,6.81,0,0,0,1.75-2.95"></path></g></g></g><polygon class="cls-30" points="254.06 1058.3 259.23 1053.14 267.74 1044.63 262.57 1049.8 254.06 1058.3"></polygon><g class="cls-29"><g class="cls-77"><g class="cls-29"><path class="cls-30" d="M267,1049.79l5.17-5.17q2.35,3.38,3,4.57a14.28,14.28,0,0,1,1.54,4.22,7.75,7.75,0,0,1-.16,3.57l-5.17,5.17a7.9,7.9,0,0,0,.17-3.57,14.52,14.52,0,0,0-1.55-4.22q-.63-1.2-3-4.57"></path></g></g></g><g class="cls-29"><g class="cls-78"><g class="cls-29"><path class="cls-30" d="M264.15,1038.72l5.17-5.17a4.1,4.1,0,0,0-1.21,3.37,11.94,11.94,0,0,0,2.2,5.14l-5.17,5.17a12.11,12.11,0,0,1-2.2-5.14,4.08,4.08,0,0,1,1.21-3.37"></path></g></g></g><polygon class="cls-30" points="265.14 1047.22 270.31 1042.06 277.7 1034.66 272.53 1039.83 265.14 1047.22"></polygon><g class="cls-29"><g class="cls-79"><g class="cls-29"><path class="cls-30" d="M277,1039.83l5.17-5.17a16.92,16.92,0,0,1,3.87,6.59,8.27,8.27,0,0,1-1,7l-5.16,5.17a8.3,8.3,0,0,0,1-7,16.85,16.85,0,0,0-3.87-6.59"></path></g></g></g><g class="cls-29"><g class="cls-80"><g class="cls-29"><path class="cls-32" d="M260.16,1035.15l5.17-5.17.33-.31-5.17,5.17-.33.31"></path><path class="cls-30" d="M260.49,1034.84l5.17-5.17a7,7,0,0,1,1-.77l-5.17,5.17a6.35,6.35,0,0,0-1,.77"></path><path class="cls-30" d="M261.53,1034.07l5.17-5.17a7.85,7.85,0,0,1,6.1-.68c2.07.48,4.44,1.88,7.13,4.22l-5.17,5.16c-2.68-2.33-5.06-3.73-7.12-4.21a7.87,7.87,0,0,0-6.11.68"></path></g></g></g><rect class="cls-30" x="276.08" y="1033.28" width="7.31" height="3.14" transform="translate(-649.82 500.9) rotate(-45)"></rect><path class="cls-81" d="M271.39,1062.15a6.81,6.81,0,0,1-1.75,2.95,7.88,7.88,0,0,1-7.13,2.14,15.93,15.93,0,0,1-8.46-4.49l-2.7,2.7-2.22-2.22,2.67-2.67a26.41,26.41,0,0,1-3.71-5.51,10.55,10.55,0,0,1-1-5.15,8.52,8.52,0,0,1,2-5l4.3,3.29a8,8,0,0,0-1.61,4.72,8.87,8.87,0,0,0,2.24,5.41l8.51-8.51a28.27,28.27,0,0,1-3.49-6,8.92,8.92,0,0,1-.81-4.76,6.45,6.45,0,0,1,1.89-3.84q2.85-2.85,7.48-1.76c2.06.48,4.44,1.88,7.12,4.21l1.28-1.27,2.22,2.22-1.28,1.28a16.85,16.85,0,0,1,3.87,6.59,8.3,8.3,0,0,1-1,7l-4.33-3.49a5.64,5.64,0,0,0,1-3.81,8.55,8.55,0,0,0-1.8-4l-7.71,7.71q2.36,3.38,3,4.57a14.52,14.52,0,0,1,1.55,4.22A7.9,7.9,0,0,1,271.39,1062.15Zm-10.11.67a5,5,0,0,0,4.3-1.43,4.15,4.15,0,0,0,1.32-3.35q-.13-1.92-2.48-5.65l-8.14,8.14a9.43,9.43,0,0,0,5,2.29m3.86-15.59,7.39-7.4a9.44,9.44,0,0,0-4.72-2.23,4.22,4.22,0,0,0-3.66,1.12,4.08,4.08,0,0,0-1.21,3.37,12.11,12.11,0,0,0,2.2,5.14"></path></g><g class="cls-29"><polygon class="cls-30" points="1068.54 1062.6 1063.08 1057.14 1065.93 1059.99 1071.39 1065.45 1068.54 1062.6"></polygon><g class="cls-29"><g class="cls-82"><g class="cls-29"><path class="cls-30" d="M1066.19,1060.24l-5.46-5.46a9.73,9.73,0,0,0,2.42-5.27l5.46,5.46a9.8,9.8,0,0,1-2.42,5.27"></path></g></g></g><g class="cls-29"><g class="cls-83"><g class="cls-29"><path class="cls-30" d="M1068.61,1055l-5.46-5.46a5.87,5.87,0,0,0-.26-2.61l5.46,5.46a5.86,5.86,0,0,1,.26,2.61"></path><path class="cls-30" d="M1068.35,1052.36l-5.46-5.46a5.07,5.07,0,0,0-.38-.82l5.46,5.46a5.07,5.07,0,0,1,.38.82"></path><path class="cls-32" d="M1068,1051.54l-5.46-5.46a4.81,4.81,0,0,0-.45-.66l5.46,5.46a4.81,4.81,0,0,1,.45.66"></path><path class="cls-32" d="M1067.52,1050.88l-5.46-5.46c-.13-.16-.27-.31-.41-.46l5.45,5.46a6,6,0,0,1,.42.46"></path></g></g></g><g class="cls-29"><g class="cls-84"><g class="cls-29"><path class="cls-30" d="M1053.14,1063.26l-5.46-5.46a8.48,8.48,0,0,0,5,1.69,9.34,9.34,0,0,0,5.72-2.36l5.46,5.46a9.34,9.34,0,0,1-5.72,2.36,8.48,8.48,0,0,1-5-1.69"></path></g></g></g><polygon class="cls-30" points="1049.65 1067.8 1044.19 1062.35 1047.68 1057.8 1053.14 1063.26 1049.65 1067.8"></polygon><g class="cls-29"><g class="cls-85"><g class="cls-29"><path class="cls-30" d="M1067.91,1044.28l-5.46-5.45a7,7,0,0,1,3.1,1.84l5.46,5.46a7.15,7.15,0,0,0-3.1-1.85"></path></g></g></g><polygon class="cls-30" points="1057.59 1051.65 1052.13 1046.19 1060.73 1054.78 1066.19 1060.24 1057.59 1051.65"></polygon><g class="cls-29"><g class="cls-86"><g class="cls-29"><path class="cls-30" d="M1054.85,1048.9l-5.46-5.46c2.37-1.65,4-2.71,4.83-3.16a15.57,15.57,0,0,1,4.44-1.63,8.29,8.29,0,0,1,3.79.18l5.46,5.45a8.43,8.43,0,0,0-3.79-.17,15.57,15.57,0,0,0-4.44,1.63,57,57,0,0,0-4.83,3.16"></path></g></g></g><g class="cls-29"><g class="cls-87"><g class="cls-29"><path class="cls-30" d="M1043.16,1051.94l-5.46-5.46a4.36,4.36,0,0,0,3.55,1.28,12.81,12.81,0,0,0,5.43-2.33l5.46,5.46a12.94,12.94,0,0,1-5.43,2.33,4.36,4.36,0,0,1-3.55-1.28"></path></g></g></g><polygon class="cls-30" points="1046.71 1040.76 1041.25 1035.3 1049.39 1043.44 1054.85 1048.9 1046.71 1040.76"></polygon><g class="cls-29"><g class="cls-88"><g class="cls-29"><path class="cls-32" d="M1039.38,1056.15l-5.46-5.45c-.21-.22-.41-.43-.59-.66l5.46,5.46a7.21,7.21,0,0,0,.59.65"></path><path class="cls-32" d="M1038.79,1055.5l-5.46-5.46a8.1,8.1,0,0,1-.64-.93l5.46,5.46a8.1,8.1,0,0,0,.64.93"></path><path class="cls-30" d="M1038.15,1054.57l-5.46-5.46a8.1,8.1,0,0,1-.53-1.16l5.46,5.46a7.14,7.14,0,0,0,.53,1.16"></path><path class="cls-30" d="M1037.62,1053.41l-5.46-5.46a9.09,9.09,0,0,1-.11-5.15q.78-3.29,4.47-7.53l5.45,5.46q-3.67,4.24-4.46,7.53a9.09,9.09,0,0,0,.11,5.15"></path></g></g></g><g class="cls-29"><g class="cls-89"><g class="cls-29"><path class="cls-30" d="M1044.32,1038.38l-5.46-5.46a17.69,17.69,0,0,1,7-4.08,8.74,8.74,0,0,1,7.37,1.07l5.46,5.45a8.74,8.74,0,0,0-7.37-1.06,17.69,17.69,0,0,0-7,4.08"></path></g></g></g><path class="cls-90" d="M1067.91,1044.28a7.15,7.15,0,0,1,3.1,1.85,8.36,8.36,0,0,1,2.27,7.53,16.86,16.86,0,0,1-4.74,8.94l2.85,2.85-2.34,2.35-2.82-2.82a28,28,0,0,1-5.83,3.92,11.2,11.2,0,0,1-5.44,1,9.06,9.06,0,0,1-5.31-2.13l3.49-4.54a8.48,8.48,0,0,0,5,1.69,9.34,9.34,0,0,0,5.72-2.36l-9-9a30.38,30.38,0,0,1-6.39,3.69,9.48,9.48,0,0,1-5,.84,6.73,6.73,0,0,1-4.06-2q-3-3-1.87-7.89.78-3.29,4.46-7.53l-1.35-1.35L1043,1037l1.35,1.35a17.69,17.69,0,0,1,7-4.08,8.74,8.74,0,0,1,7.37,1.06l-3.68,4.57a6.08,6.08,0,0,0-4-1.08,9.15,9.15,0,0,0-4.24,1.91l8.14,8.14a57,57,0,0,1,4.83-3.16,15.57,15.57,0,0,1,4.44-1.63A8.43,8.43,0,0,1,1067.91,1044.28Zm.7,10.69a5.3,5.3,0,0,0-1.51-4.55,4.39,4.39,0,0,0-3.54-1.4c-1.34.1-3.33,1-6,2.63l8.6,8.59a9.8,9.8,0,0,0,2.42-5.27m-16.47-4.08-7.81-7.81a9.87,9.87,0,0,0-2.36,5,4.45,4.45,0,0,0,1.19,3.87,4.36,4.36,0,0,0,3.55,1.28,12.94,12.94,0,0,0,5.43-2.33"></path><rect class="cls-30" x="1037.41" y="1031.61" width="3.32" height="7.72" transform="translate(-427.85 1038.02) rotate(-45)"></rect></g><text class="cls-91" transform="translate(201.28 241.3) rotate(-45)">A<tspan class="cls-92" x="20.22" y="0">UD</tspan></text><text class="cls-28" transform="translate(43.75 684.5) rotate(-90)">GBP</text><text class="cls-93" transform="translate(185.78 1081.12) rotate(45)">NZD</text><text class="cls-28" transform="translate(633.63 1291.34)">JPY</text><text class="cls-93" transform="translate(1088.57 1127.04) rotate(-45)">USD</text><text class="cls-28" transform="translate(1276.52 623.27) rotate(90)">CHF</text><text class="cls-93" transform="translate(1073.02 195.33) rotate(45)">CAD</text></svg> 