<?xml version="1.0" encoding="UTF-8" standalone="no"?>
<svg width="145px" height="55px" viewBox="0 0 145 55" version="1.1" xmlns="http://www.w3.org/2000/svg" xmlns:xlink="http://www.w3.org/1999/xlink">
    <!-- Generator: Sketch 46.2 (44496) - http://www.bohemiancoding.com/sketch -->
    <title>logo</title>
    <desc>Created with Sketch.</desc>
    <defs>
        <linearGradient x1="-618.496837%" y1="-507.885674%" x2="315.804623%" y2="286.300368%" id="linearGradient-1">
            <stop stop-color="#653C0E" offset="18.41%"></stop>
            <stop stop-color="#9E6315" offset="31.98%"></stop>
            <stop stop-color="#DB9326" offset="38.69%"></stop>
            <stop stop-color="#DB9326" offset="43.37%"></stop>
            <stop stop-color="#A87517" offset="50.23%"></stop>
            <stop stop-color="#A87517" offset="62.4%"></stop>
            <stop stop-color="#F6CA63" offset="70.98%"></stop>
            <stop stop-color="#F6CA63" offset="76.13%"></stop>
            <stop stop-color="#A67C20" offset="84.56%"></stop>
            <stop stop-color="#735418" offset="100%"></stop>
        </linearGradient>
        <linearGradient x1="-518.8389%" y1="-548.691903%" x2="235.577603%" y2="245.438866%" id="linearGradient-2">
            <stop stop-color="#653C0E" offset="18.41%"></stop>
            <stop stop-color="#9E6315" offset="31.98%"></stop>
            <stop stop-color="#DB9326" offset="38.69%"></stop>
            <stop stop-color="#DB9326" offset="43.37%"></stop>
            <stop stop-color="#A87517" offset="50.23%"></stop>
            <stop stop-color="#A87517" offset="62.4%"></stop>
            <stop stop-color="#F6CA63" offset="70.98%"></stop>
            <stop stop-color="#F6CA63" offset="76.13%"></stop>
            <stop stop-color="#A67C20" offset="84.56%"></stop>
            <stop stop-color="#735418" offset="100%"></stop>
        </linearGradient>
        <linearGradient x1="-338.781381%" y1="-572.840202%" x2="134.705672%" y2="219.686263%" id="linearGradient-3">
            <stop stop-color="#653C0E" offset="18.41%"></stop>
            <stop stop-color="#9E6315" offset="31.98%"></stop>
            <stop stop-color="#DB9326" offset="38.69%"></stop>
            <stop stop-color="#DB9326" offset="43.37%"></stop>
            <stop stop-color="#A87517" offset="50.23%"></stop>
            <stop stop-color="#A87517" offset="62.4%"></stop>
            <stop stop-color="#F6CA63" offset="70.98%"></stop>
            <stop stop-color="#F6CA63" offset="76.13%"></stop>
            <stop stop-color="#A67C20" offset="84.56%"></stop>
            <stop stop-color="#735418" offset="100%"></stop>
        </linearGradient>
    </defs>
    <g id="Page-1" stroke="none" stroke-width="1" fill="none" fill-rule="evenodd">
        <g id="inner-page" transform="translate(-161.000000, -60.000000)" fill-rule="nonzero">
            <g id="nav" transform="translate(0.000000, -25.000000)">
                <g id="logo" transform="translate(161.000000, 85.000000)">
                    <g id="XMLID_41_" transform="translate(62.000000, 28.000000) rotate(90.000000) translate(-62.000000, -28.000000) translate(35.000000, 27.000000)" fill="#FFFFFF">
                        <path d="M53.3948276,0.6 L0.605172414,0.6 C0.465517241,0.6 0.372413793,0.5 0.372413793,0.35 C0.372413793,0.2 0.465517241,0.1 0.605172414,0.1 L53.3948276,0.1 C53.5344828,0.1 53.6275862,0.2 53.6275862,0.35 C53.6275862,0.5 53.5344828,0.6 53.3948276,0.6 Z" id="XMLID_42_"></path>
                    </g>
                    <g id="Group-22" transform="translate(83.000000, 12.000000)" fill="#FFFFFF">
                        <g id="XMLID_43_" transform="translate(0.000000, 22.000000)">
                            <path d="M5.61206897,7.42105263 L4.75689655,5.21052632 L1.92413793,5.21052632 L1.06896552,7.42105263 L0.213793103,7.42105263 L2.99310345,0.421052632 L3.68793103,0.421052632 L6.46724138,7.42105263 L5.61206897,7.42105263 Z M4.48965517,4.47368421 L3.68793103,2.31578947 C3.58103448,2.05263158 3.47413793,1.68421053 3.36724138,1.31578947 C3.3137931,1.63157895 3.20689655,1.94736842 3.04655172,2.31578947 L2.19137931,4.47368421 L4.48965517,4.47368421 Z" id="XMLID_73_"></path>
                            <path d="M10.9034483,6.68421053 L10.9034483,6.68421053 C10.4758621,7.21052632 9.94137931,7.47368421 9.19310345,7.47368421 C8.49827586,7.47368421 7.9637931,7.26315789 7.58965517,6.78947368 C7.21551724,6.31578947 7.00172414,5.68421053 7.00172414,4.78947368 C7.00172414,3.94736842 7.21551724,3.26315789 7.58965517,2.78947368 C7.9637931,2.31578947 8.49827586,2.05263158 9.19310345,2.05263158 C9.88793103,2.05263158 10.4758621,2.31578947 10.85,2.84210526 L10.9034483,2.84210526 L10.85,2.47368421 L10.85,2.10526316 L10.85,1.13686838e-13 L11.6517241,1.13686838e-13 L11.6517241,7.42105263 L11.0103448,7.42105263 L10.9034483,6.68421053 Z M9.24655172,6.84210526 C9.78103448,6.84210526 10.2086207,6.68421053 10.4224138,6.42105263 C10.6896552,6.10526316 10.7965517,5.63157895 10.7965517,5 L10.7965517,4.84210526 C10.7965517,4.10526316 10.6896552,3.57894737 10.4224138,3.26315789 C10.1551724,2.94736842 9.78103448,2.78947368 9.24655172,2.78947368 C8.76551724,2.78947368 8.39137931,2.94736842 8.17758621,3.31578947 C7.91034483,3.68421053 7.80344828,4.21052632 7.80344828,4.84210526 C7.80344828,5.52631579 7.91034483,6 8.17758621,6.36842105 C8.44482759,6.68421053 8.81896552,6.84210526 9.24655172,6.84210526 Z" id="XMLID_70_"></path>
                            <path d="M16.8896552,6.68421053 L16.8896552,6.68421053 C16.462069,7.21052632 15.9275862,7.47368421 15.1793103,7.47368421 C14.4844828,7.47368421 13.95,7.26315789 13.5758621,6.78947368 C13.2017241,6.31578947 12.987931,5.68421053 12.987931,4.78947368 C12.987931,3.94736842 13.2017241,3.26315789 13.5758621,2.78947368 C13.95,2.31578947 14.4844828,2.05263158 15.1793103,2.05263158 C15.8741379,2.05263158 16.462069,2.31578947 16.8362069,2.84210526 L16.8896552,2.84210526 L16.8362069,2.47368421 L16.8362069,2.10526316 L16.8362069,1.13686838e-13 L17.637931,1.13686838e-13 L17.637931,7.42105263 L16.9965517,7.42105263 L16.8896552,6.68421053 Z M15.2862069,6.84210526 C15.8206897,6.84210526 16.2482759,6.68421053 16.462069,6.42105263 C16.7293103,6.10526316 16.8362069,5.63157895 16.8362069,5 L16.8362069,4.84210526 C16.8362069,4.10526316 16.7293103,3.57894737 16.462069,3.26315789 C16.1948276,2.94736842 15.8206897,2.78947368 15.2862069,2.78947368 C14.8051724,2.78947368 14.4310345,2.94736842 14.2172414,3.31578947 C13.95,3.68421053 13.8431034,4.21052632 13.8431034,4.84210526 C13.8431034,5.52631579 13.95,6 14.2172414,6.36842105 C14.4310345,6.68421053 14.8051724,6.84210526 15.2862069,6.84210526 Z" id="XMLID_67_"></path>
                            <path d="M19.2413793,0.789473684 C19.2413793,0.631578947 19.2948276,0.473684211 19.4017241,0.368421053 C19.5086207,0.263157895 19.6155172,0.263157895 19.7224138,0.263157895 C19.8293103,0.263157895 19.9362069,0.315789474 20.0431034,0.368421053 C20.15,0.473684211 20.2034483,0.578947368 20.2034483,0.789473684 C20.2034483,1 20.15,1.10526316 20.0431034,1.21052632 C19.9362069,1.31578947 19.8293103,1.31578947 19.7224138,1.31578947 C19.562069,1.31578947 19.4551724,1.26315789 19.4017241,1.21052632 C19.2948276,1.10526316 19.2413793,0.947368421 19.2413793,0.789473684 Z M20.0965517,7.42105263 L19.2948276,7.42105263 L19.2948276,2.21052632 L20.0965517,2.21052632 L20.0965517,7.42105263 Z" id="XMLID_64_"></path>
                            <path d="M25.387931,7.42105263 L25.387931,4.05263158 C25.387931,3.63157895 25.2810345,3.31578947 25.0672414,3.10526316 C24.8534483,2.89473684 24.5862069,2.78947368 24.1586207,2.78947368 C23.6241379,2.78947368 23.1965517,2.94736842 22.9293103,3.21052632 C22.662069,3.52631579 22.5551724,4 22.5551724,4.68421053 L22.5551724,7.42105263 L21.7534483,7.42105263 L21.7534483,2.21052632 L22.3948276,2.21052632 L22.5017241,2.94736842 L22.5551724,2.94736842 C22.7155172,2.68421053 22.9293103,2.47368421 23.25,2.36842105 C23.5706897,2.21052632 23.8913793,2.15789474 24.2655172,2.15789474 C24.9068966,2.15789474 25.387931,2.31578947 25.7086207,2.63157895 C26.0293103,2.94736842 26.1896552,3.42105263 26.1896552,4.10526316 L26.1896552,7.52631579 L25.387931,7.52631579 L25.387931,7.42105263 Z" id="XMLID_62_"></path>
                            <path d="M32.1224138,2.21052632 L32.1224138,2.68421053 L31.1603448,2.78947368 C31.2672414,2.89473684 31.3206897,3.05263158 31.4275862,3.21052632 C31.4810345,3.36842105 31.5344828,3.57894737 31.5344828,3.84210526 C31.5344828,4.36842105 31.3741379,4.73684211 31,5.05263158 C30.6258621,5.36842105 30.1448276,5.52631579 29.5568966,5.52631579 C29.3965517,5.52631579 29.2362069,5.52631579 29.1293103,5.47368421 C28.8086207,5.63157895 28.5948276,5.89473684 28.5948276,6.15789474 C28.5948276,6.31578947 28.6482759,6.42105263 28.7551724,6.47368421 C28.862069,6.52631579 29.0758621,6.57894737 29.3431034,6.57894737 L30.3051724,6.57894737 C30.8931034,6.57894737 31.3206897,6.68421053 31.6413793,6.94736842 C31.962069,7.21052632 32.1224138,7.52631579 32.1224138,8 C32.1224138,8.57894737 31.9086207,9 31.4275862,9.31578947 C30.9465517,9.63157895 30.2517241,9.78947368 29.3431034,9.78947368 C28.6482759,9.78947368 28.1137931,9.68421053 27.7396552,9.42105263 C27.3655172,9.15789474 27.1517241,8.78947368 27.1517241,8.36842105 C27.1517241,8.05263158 27.2586207,7.78947368 27.4724138,7.52631579 C27.6862069,7.31578947 27.9534483,7.15789474 28.3275862,7.05263158 C28.1672414,7 28.0603448,6.89473684 28.0068966,6.78947368 C27.9,6.68421053 27.8465517,6.52631579 27.8465517,6.36842105 C27.8465517,6.15789474 27.9,6 28.0068966,5.89473684 C28.1137931,5.73684211 28.2741379,5.63157895 28.487931,5.47368421 C28.2206897,5.36842105 28.0068966,5.15789474 27.7931034,4.89473684 C27.6327586,4.63157895 27.5258621,4.31578947 27.5258621,4 C27.5258621,3.42105263 27.6862069,3 28.0603448,2.68421053 C28.4344828,2.36842105 28.9155172,2.21052632 29.5568966,2.21052632 C29.8241379,2.21052632 30.0913793,2.26315789 30.3051724,2.31578947 L32.1224138,2.31578947 L32.1224138,2.21052632 Z M27.9,8.26315789 C27.9,8.52631579 28.0068966,8.73684211 28.2741379,8.89473684 C28.5413793,9.05263158 28.862069,9.10526316 29.2896552,9.10526316 C29.9844828,9.10526316 30.4655172,9 30.7862069,8.78947368 C31.1068966,8.57894737 31.2672414,8.31578947 31.2672414,8 C31.2672414,7.73684211 31.1603448,7.52631579 31,7.42105263 C30.8396552,7.31578947 30.4655172,7.26315789 29.9844828,7.26315789 L29.0224138,7.26315789 C28.6482759,7.26315789 28.3810345,7.36842105 28.1672414,7.52631579 C28.0068966,7.73684211 27.9,7.94736842 27.9,8.26315789 Z M28.3275862,3.84210526 C28.3275862,4.21052632 28.4344828,4.47368421 28.6482759,4.68421053 C28.862069,4.89473684 29.1293103,4.94736842 29.5034483,4.94736842 C30.3051724,4.94736842 30.6793103,4.57894737 30.6793103,3.84210526 C30.6793103,3.05263158 30.3051724,2.68421053 29.5034483,2.68421053 C29.1293103,2.68421053 28.862069,2.78947368 28.6482759,3 C28.4344828,3.21052632 28.3275862,3.47368421 28.3275862,3.84210526 Z" id="XMLID_58_"></path>
                            <path d="M39.8724138,0.421052632 L40.7810345,0.421052632 L38.2155172,7.36842105 L37.4137931,7.36842105 L34.9017241,0.421052632 L35.7568966,0.421052632 L37.3603448,4.94736842 C37.5206897,5.47368421 37.6810345,5.94736842 37.787931,6.47368421 C37.8948276,5.94736842 38.0551724,5.42105263 38.2155172,4.94736842 L39.8724138,0.421052632 Z" id="XMLID_56_"></path>
                            <path d="M44.7896552,7.42105263 L44.6293103,6.68421053 L44.5758621,6.68421053 C44.3086207,7 44.0413793,7.21052632 43.7741379,7.36842105 C43.5068966,7.47368421 43.1862069,7.52631579 42.812069,7.52631579 C42.2775862,7.52631579 41.85,7.36842105 41.5827586,7.10526316 C41.262069,6.84210526 41.1551724,6.47368421 41.1551724,5.94736842 C41.1551724,4.89473684 42.0103448,4.31578947 43.7206897,4.31578947 L44.6293103,4.26315789 L44.6293103,3.94736842 C44.6293103,3.52631579 44.5224138,3.21052632 44.362069,3.05263158 C44.2017241,2.84210526 43.8810345,2.73684211 43.5068966,2.73684211 C43.0793103,2.73684211 42.5448276,2.89473684 42.0103448,3.15789474 L41.7431034,2.57894737 C42.0103448,2.42105263 42.2775862,2.31578947 42.5982759,2.26315789 C42.9189655,2.15789474 43.2396552,2.15789474 43.5603448,2.15789474 C44.2017241,2.15789474 44.6827586,2.31578947 44.95,2.57894737 C45.2706897,2.84210526 45.4310345,3.31578947 45.4310345,3.89473684 L45.4310345,7.47368421 L44.7896552,7.47368421 L44.7896552,7.42105263 Z M42.9724138,6.84210526 C43.4534483,6.84210526 43.8810345,6.68421053 44.1482759,6.42105263 C44.4155172,6.15789474 44.5758621,5.78947368 44.5758621,5.26315789 L44.5758621,4.78947368 L43.7741379,4.84210526 C43.1327586,4.84210526 42.6517241,4.94736842 42.3844828,5.15789474 C42.1172414,5.31578947 41.9568966,5.57894737 41.9568966,5.94736842 C41.9568966,6.21052632 42.0637931,6.47368421 42.2241379,6.57894737 C42.3844828,6.68421053 42.6517241,6.84210526 42.9724138,6.84210526 Z" id="XMLID_53_"></path>
                            <polygon id="XMLID_51_" points="47.7827586 7.42105263 46.9810345 7.42105263 46.9810345 0 47.7827586 0"></polygon>
                            <path d="M50.187931,2.21052632 L50.187931,5.57894737 C50.187931,6 50.2948276,6.31578947 50.5086207,6.52631579 C50.7224138,6.73684211 50.9896552,6.84210526 51.4172414,6.84210526 C51.9517241,6.84210526 52.3793103,6.68421053 52.6465517,6.36842105 C52.9137931,6.05263158 53.0206897,5.57894737 53.0206897,4.89473684 L53.0206897,2.15789474 L53.8224138,2.15789474 L53.8224138,7.36842105 L53.1810345,7.36842105 L53.0741379,6.68421053 L53.0206897,6.68421053 C52.8603448,6.94736842 52.6465517,7.15789474 52.3258621,7.26315789 C52.0586207,7.42105263 51.6844828,7.47368421 51.3103448,7.47368421 C50.6689655,7.47368421 50.187931,7.31578947 49.8672414,7 C49.5465517,6.68421053 49.3862069,6.21052632 49.3862069,5.52631579 L49.3862069,2.10526316 L50.187931,2.10526316 L50.187931,2.21052632 Z" id="XMLID_49_"></path>
                            <path d="M57.7241379,7.52631579 C56.9224138,7.52631579 56.3344828,7.31578947 55.8534483,6.84210526 C55.3724138,6.36842105 55.1586207,5.73684211 55.1586207,4.89473684 C55.1586207,4.05263158 55.3724138,3.36842105 55.8,2.89473684 C56.2275862,2.42105263 56.762069,2.15789474 57.5103448,2.15789474 C58.1517241,2.15789474 58.6862069,2.36842105 59.0603448,2.78947368 C59.4344828,3.21052632 59.6482759,3.78947368 59.6482759,4.47368421 L59.6482759,5 L56.0137931,5 C56.0137931,5.63157895 56.1741379,6.05263158 56.4948276,6.42105263 C56.8155172,6.73684211 57.1896552,6.89473684 57.7775862,6.89473684 C58.3655172,6.89473684 58.9,6.78947368 59.487931,6.52631579 L59.487931,7.21052632 C59.2206897,7.31578947 58.9534483,7.42105263 58.6862069,7.47368421 C58.3655172,7.47368421 58.0982759,7.52631579 57.7241379,7.52631579 Z M57.5103448,2.73684211 C57.0827586,2.73684211 56.762069,2.89473684 56.4948276,3.15789474 C56.2275862,3.42105263 56.0672414,3.78947368 56.0672414,4.31578947 L58.8465517,4.31578947 C58.8465517,3.84210526 58.7396552,3.42105263 58.5258621,3.15789474 C58.2586207,2.89473684 57.937931,2.73684211 57.5103448,2.73684211 Z" id="XMLID_46_"></path>
                            <path d="M60.6103448,6.89473684 C60.6103448,6.68421053 60.6637931,6.52631579 60.7706897,6.42105263 C60.8775862,6.31578947 60.9844828,6.26315789 61.1982759,6.26315789 C61.3586207,6.26315789 61.5189655,6.31578947 61.6258621,6.42105263 C61.7327586,6.52631579 61.7862069,6.68421053 61.7862069,6.89473684 C61.7862069,7.10526316 61.7327586,7.26315789 61.6258621,7.36842105 C61.5189655,7.47368421 61.3586207,7.52631579 61.1982759,7.52631579 C61.037931,7.52631579 60.8775862,7.47368421 60.7706897,7.36842105 C60.6637931,7.31578947 60.6103448,7.10526316 60.6103448,6.89473684 Z" id="XMLID_44_"></path>
                        </g>
                        <g id="XMLID_27_">
                            <path d="M2.51206897,14.4310345 L0.213793103,14.4310345 L3.3137931,6.87931034 L0.694827586,0.206896552 L2.24482759,0.206896552 C2.35172414,0.206896552 2.83275862,0.206896552 3.04655172,0.672413793 L4.48965517,4.44827586 L5.82586207,0.672413793 C6.03965517,0.206896552 6.52068966,0.206896552 6.62758621,0.206896552 L8.17758621,0.206896552 L5.66551724,6.93103448 L8.55172414,14.4310345 L6.36034483,14.4310345 L4.54310345,9.25862069 L2.51206897,14.4310345 Z" id="XMLID_39_"></path>
                            <path d="M18.9741379,14.4310345 L16.7827586,14.4310345 L15.0189655,4.65517241 L13.2551724,14.4310345 L11.0637931,14.4310345 L14.0568966,0.206896552 L15.1258621,0.206896552 C15.9810345,0.206896552 16.087931,0.568965517 16.1948276,0.982758621 L18.9741379,14.4310345 Z" id="XMLID_37_"></path>
                            <path d="M28.862069,12.2586207 C28.862069,13.5517241 27.7931034,14.5344828 26.4568966,14.5862069 L26.4568966,14.637931 L24.9068966,14.637931 C23.5172414,14.637931 22.3948276,13.6551724 22.3948276,12.3103448 L22.3948276,0.879310345 C22.4482759,0.568965517 22.662069,0.362068966 22.9827586,0.362068966 L24.4258621,0.362068966 L24.4258621,11.8965517 C24.4258621,12.4655172 24.8534483,12.9310345 25.4413793,12.9310345 L25.762069,12.9310345 C26.35,12.9310345 26.8310345,12.4655172 26.8310345,11.8965517 L26.8310345,0.310344828 L28.862069,0.310344828 L28.862069,12.2586207 L28.862069,12.2586207 Z" id="XMLID_35_"></path>
                            <path d="M36.8258621,14.4310345 L36.8258621,9.4137931 C36.8258621,8.74137931 36.3448276,8.48275862 35.8103448,8.48275862 L34.7413793,8.48275862 L34.7413793,14.4310345 L32.7103448,14.4310345 L32.7103448,0.206896552 L36.3982759,0.206896552 C37.7344828,0.206896552 38.8568966,0.982758621 38.8568966,2.01724138 L38.8568966,6.4137931 C38.8568966,6.4137931 38.9637931,7.55172414 38.1086207,7.65517241 C38.9103448,7.9137931 38.8568966,9 38.8568966,9 L38.8568966,14.4310345 L36.8258621,14.4310345 Z M35.8103448,6.82758621 C36.3448276,6.82758621 36.8258621,6.67241379 36.8258621,6 L36.8258621,2.32758621 C36.8258621,1.81034483 36.3448276,1.60344828 35.8103448,1.60344828 L34.7413793,1.60344828 L34.7413793,6.82758621 L35.8103448,6.82758621 Z" id="XMLID_32_"></path>
                            <path d="M49.1724138,12.2586207 C49.1724138,13.5517241 48.1034483,14.5344828 46.7672414,14.5862069 L46.7672414,14.637931 L45.2172414,14.637931 C43.8275862,14.637931 42.7051724,13.6551724 42.7051724,12.3103448 L42.7051724,0.879310345 C42.7586207,0.568965517 42.9724138,0.362068966 43.2931034,0.362068966 L44.7362069,0.362068966 L44.7362069,11.8965517 C44.7362069,12.4655172 45.1637931,12.9310345 45.7517241,12.9310345 L46.0724138,12.9310345 C46.6603448,12.9310345 47.1413793,12.4655172 47.1413793,11.8965517 L47.1413793,0.310344828 L49.1724138,0.310344828 L49.1724138,12.2586207 L49.1724138,12.2586207 Z" id="XMLID_30_"></path>
                            <path d="M61.7862069,14.4310345 L59.8086207,14.4310345 L59.8086207,7.0862069 L58.312069,11.9482759 L57.6706897,11.9482759 C56.4948276,11.9482759 56.2810345,11.1206897 56.1741379,10.8103448 L54.9982759,7.0862069 L54.9982759,14.4310345 L53.0206897,14.4310345 L53.0206897,0.206896552 L54.25,0.206896552 C55.0517241,0.206896552 55.1586207,0.724137931 55.1586207,0.724137931 L57.4568966,8.89655172 L59.6482759,0.724137931 C59.7017241,0.672413793 59.8086207,0.206896552 60.5568966,0.206896552 L61.7862069,0.206896552 L61.7862069,14.4310345 L61.7862069,14.4310345 Z" id="XMLID_28_"></path>
                        </g>
                    </g>
                    <g id="XMLID_7_">
                        <g id="XMLID_9_">
                            <g id="XMLID_14_" fill="url(#linearGradient-1)">
                                <path d="M1.61964056,0.587378641 L21.6300385,21.038835 C21.4732991,21.1456311 21.3688062,21.2524272 21.2120668,21.4126214 L1.20166881,0.961165049 C1.09717587,0.854368932 0.940436457,0.90776699 0.940436457,0.90776699 C0.940436457,0.90776699 0.783697047,0.961165049 0.783697047,1.12135922 L0.783697047,10.2524272 C0.783697047,10.8932039 1.0449294,11.5339806 1.46290116,11.961165 L14.6290116,25.4174757 C15.0992298,25.8980583 15.6739409,26.1116505 16.3008986,26.1116505 L20.3238768,26.1116505 C20.3761232,26.3252427 20.4806162,26.4854369 20.5851091,26.6990291 L16.2486521,26.6990291 C15.4649551,26.6990291 14.7335045,26.3786408 14.1587933,25.8446602 L0.992682927,12.3883495 C0.417971759,11.8009709 0.156739409,11.0533981 0.156739409,10.2524272 L0.156739409,1.12135922 C0.156739409,0.800970874 0.365725289,0.480582524 0.679204108,0.373786408 C1.0449294,0.266990291 1.35840822,0.32038835 1.61964056,0.587378641 Z" id="XMLID_19_"></path>
                            </g>
                            <g id="XMLID_10_" transform="translate(15.673941, 0.000000)" fill="url(#linearGradient-2)">
                                <path d="M25.5485237,0.587378641 L0.365725289,26.3252427 C0.626957638,26.4320388 0.835943517,26.592233 1.0449294,26.7524272 L10.9717587,26.7524272 C11.7032092,26.7524272 12.3301669,26.4854369 12.8526316,25.9514563 L26.1754814,12.3349515 C26.6979461,11.8009709 26.9591784,11.1601942 26.9591784,10.4126214 L26.9591784,1.17475728 C26.9591784,0.854368932 26.7501926,0.533980583 26.4367137,0.427184466 C26.1232349,0.32038835 25.7575096,0.373786408 25.5485237,0.587378641 Z M26.2277279,0.90776699 C26.2799743,0.90776699 26.3844673,0.961165049 26.3844673,1.17475728 L26.3844673,10.4126214 C26.3844673,11 26.1754814,11.5339806 25.7575096,11.907767 L12.4346598,25.5242718 C12.0166881,25.9514563 11.4942234,26.1650485 10.9717587,26.1650485 L1.30616175,26.1650485 L25.9664955,0.961165049 C26.0709884,0.854368932 26.1754814,0.90776699 26.2277279,0.90776699 Z" id="XMLID_11_"></path>
                            </g>
                        </g>
                        <path d="M28.0172626,28.7878788 L41.2231813,42.1818182 C41.7410604,42.7070707 42,43.3373737 42,44.0727273 L42,53.2121212 C42,53.5272727 41.7928483,53.8424242 41.5339088,53.9474747 C41.2231813,54.0525253 40.9124538,54 40.6535142,53.789899 L21.3366215,34.1979798 L25.5314427,29.9434343 C25.6350185,29.8383838 25.6350185,29.6808081 25.5314427,29.5757576 C25.4278668,29.4707071 25.2725031,29.4707071 25.1689273,29.5757576 L20.974106,33.830303 L20.974106,33.830303 L1.34648582,53.7373737 C1.08754624,53.9474747 0.776818742,54.0525253 0.466091245,53.8949495 C0.155363748,53.7373737 0,53.4747475 0,53.159596 L0,44.1777778 C0,43.389899 0.310727497,42.6545455 0.828606658,42.0767677 L13.8791615,28.840404 C14.4488286,28.2626263 15.1738594,28 15.9506782,28 L21.647349,28 L25.945746,28 L26.1528977,28 C26.8779285,28 27.4993835,28.2626263 28.0172626,28.7878788 Z" id="XMLID_8_" fill="url(#linearGradient-3)"></path>
                    </g>
                </g>
            </g>
        </g>
    </g>
</svg>