<?xml version="1.0" encoding="UTF-8"?> <!-- Generator: Adobe Illustrator 22.1.0, SVG Export Plug-In . SVG Version: 6.00 Build 0) --> <svg xmlns="http://www.w3.org/2000/svg" xmlns:xlink="http://www.w3.org/1999/xlink" id="Capa_1" x="0px" y="0px" viewBox="0 0 488 488" style="enable-background:new 0 0 488 488;" xml:space="preserve"> <style type="text/css"> .st0{fill:#CE0E2D;} </style> <g> <path d="M88.8,363.6h32.5l-37.7,58.3l40.8,62.6H91.6l-25.8-39.8l-25.6,39.8H7.7l40.6-61.9l-37.9-58.9h32.3l23,35.8L88.8,363.6z"></path> <path d="M196.5,460.6c13.3,0,24.1-5.2,32.5-15.7l17.3,17.8c-13.7,15.4-29.9,23.2-48.5,23.2c-18.6,0-33.9-5.9-46-17.6 c-12-11.8-18.1-26.6-18.1-44.5c0-17.9,6.1-32.9,18.4-44.9c12.3-12,27.3-18,45-18c19.8,0,36.4,7.5,49.8,22.6l-16.8,19 c-8.5-10.6-19.1-15.9-31.8-15.9c-10.1,0-18.8,3.3-26,9.9c-7.2,6.6-10.8,15.6-10.8,26.8c0,11.2,3.4,20.3,10.2,27.1 C178.6,457.2,186.8,460.6,196.5,460.6z"></path> <path d="M342.6,363.6h27v120.8h-27v-47.5h-48.1v47.5h-27V363.6h27v50.5h48.1V363.6z"></path> <path d="M482.3,363.6v23.7h-56v26.1h53.2v23.7h-53.2v47.4h-27V363.6H482.3z"></path> </g> <polygon class="st0" points="159.3,190.5 146.2,169.1 77,282.4 118.9,282.4 289,4.1 482.3,320.5 238.7,320.5 198.1,254 221.1,216.4 261.4,282.4 413,282.4 289,79.4 141.6,320.5 7.7,320.5 146.2,93.9 182.3,152.9 "></polygon> </svg> 