<?xml version="1.0" encoding="UTF-8"?> <svg xmlns="http://www.w3.org/2000/svg" xmlns:xlink="http://www.w3.org/1999/xlink" id="Layer_1" data-name="Layer 1" viewBox="0 0 546.04 139.53"> <defs> <style>.cls-1{fill:none;}.cls-2{clip-path:url(#clip-path);}.cls-3{opacity:0.66;}.cls-4{fill:#1536ff;}.cls-5{opacity:0.33;}.cls-6{clip-path:url(#clip-path-4);}.cls-7{fill:#1fe2ff;}.cls-8{clip-path:url(#clip-path-5);}.cls-9{fill:#e9f0ff;}.cls-10{fill:#fff;}.cls-11{fill:#4d9eff;}</style> <clipPath id="clip-path" transform="translate(-10.22 -8.36)"> <rect class="cls-1" x="10.22" y="8.36" width="139.53" height="139.53"></rect> </clipPath> <clipPath id="clip-path-4" transform="translate(-10.22 -8.36)"> <rect class="cls-1" x="18.5" y="16.64" width="122.96" height="122.96"></rect> </clipPath> <clipPath id="clip-path-5" transform="translate(-10.22 -8.36)"> <rect class="cls-1" x="24.68" y="22.82" width="110.61" height="110.61"></rect> </clipPath> </defs> <title>1500-TS-ClearCoinLogo-C3</title> <g class="cls-2"> <g class="cls-2"> <g class="cls-3"> <g class="cls-2"> <path class="cls-4" d="M80,8.36A69.77,69.77,0,1,1,10.22,78.12,69.76,69.76,0,0,1,80,8.36" transform="translate(-10.22 -8.36)"></path> </g> </g> <g class="cls-5"> <g class="cls-6"> <path class="cls-7" d="M80,16.64A61.48,61.48,0,1,1,18.5,78.12,61.49,61.49,0,0,1,80,16.64" transform="translate(-10.22 -8.36)"></path> </g> </g> <g class="cls-5"> <g class="cls-8"> <path class="cls-9" d="M80,22.82a55.31,55.31,0,1,1-55.31,55.3A55.3,55.3,0,0,1,80,22.82" transform="translate(-10.22 -8.36)"></path> </g> </g> <path class="cls-10" d="M80,31.23A46.89,46.89,0,1,1,33.1,78.12,46.89,46.89,0,0,1,80,31.23" transform="translate(-10.22 -8.36)"></path> <path class="cls-10" d="M80,39.94A38.18,38.18,0,1,1,41.81,78.12,38.19,38.19,0,0,1,80,39.94" transform="translate(-10.22 -8.36)"></path> </g> </g> <path class="cls-11" d="M239.31,64.3c-2.4-11-11.5-17.29-21.89-17.29-18.89,0-26.89,15.79-26.89,31.38s8,31.39,26.89,31.39c13.19,0,21.59-10.2,22.89-22.89h6.79c-1.89,17.59-13,28.69-29.68,28.69-22.49,0-33.69-17.59-33.69-37.19s11.2-37.18,33.69-37.18c13.59,0,26.79,8.2,28.68,23.09Z" transform="translate(-10.22 -8.36)"></path> <path class="cls-11" d="M251.4,42.71h6.3v71.37h-6.3Z" transform="translate(-10.22 -8.36)"></path> <path class="cls-11" d="M268.49,90c0,9.19,5,20.29,17,20.29,9.19,0,14.19-5.3,16.19-13.19H308c-2.7,11.69-9.4,18.49-22.49,18.49-16.4,0-23.29-12.6-23.29-27.29C262.2,74.7,269.09,61,285.49,61s23.19,14.5,22.69,29Zm33.39-5.3c-.3-9.49-6.3-18.39-16.39-18.39-10.4,0-15.9,9-17,18.39Z" transform="translate(-10.22 -8.36)"></path> <path class="cls-11" d="M311.08,78.29C311.77,66.2,320.07,61,332,61c9.09,0,19,2.7,19,16.6V105c0,2.5,1.2,3.8,3.7,3.8a4.8,4.8,0,0,0,2-.4v5.3a17.94,17.94,0,0,1-4.1.4c-6.4,0-7.4-3.7-7.4-9H345c-4.5,6.7-8.8,10.5-18.79,10.5-9.6,0-17.29-4.7-17.29-15.1,0-14.39,14.09-15,27.68-16.59,5.2-.5,8.1-1.4,8.1-7,0-8.5-6-10.6-13.49-10.6-7.9,0-13.5,3.6-13.8,12Zm33.58,7.6h-.2c-.8,1.5-3.6,2-5.3,2.3-10.69,1.9-24,1.9-24,11.89,0,6.3,5.5,10.2,11.5,10.2,9.69,0,18-6.1,18-16.19Z" transform="translate(-10.22 -8.36)"></path> <path class="cls-11" d="M358.55,62.5h5.8V74.6h.2c3.2-8.4,10.2-13.2,19.49-12.8v6.3c-11.39-.5-19.19,7.7-19.19,18.49v27.49h-6.3Z" transform="translate(-10.22 -8.36)"></path> <path class="cls-11" d="M438.42,64.3C436,53.31,426.92,47,416.53,47c-18.9,0-26.89,15.79-26.89,31.38s8,31.39,26.89,31.39c13.19,0,21.59-10.2,22.89-22.89h6.79c-1.9,17.59-13,28.69-29.68,28.69-22.49,0-33.69-17.59-33.69-37.19S394,41.21,416.53,41.21c13.59,0,26.79,8.2,28.68,23.09Z" transform="translate(-10.22 -8.36)"></path> <path class="cls-11" d="M496.59,88.29c0,14.79-8.7,27.29-24.39,27.29s-24.39-12.5-24.39-27.29S456.51,61,472.2,61,496.59,73.5,496.59,88.29Zm-42.48,0c0,10.89,6.1,22,18.09,22s18.09-11.1,18.09-22-6.09-22-18.09-22S454.11,77.4,454.11,88.29Z" transform="translate(-10.22 -8.36)"></path> <path class="cls-11" d="M501.09,42.71h6.29v10.1h-6.29Zm0,19.79h6.29v51.58h-6.29Z" transform="translate(-10.22 -8.36)"></path> <path class="cls-11" d="M514.38,62.5h6.3v8.9h.2c2.4-6.2,9.2-10.4,16.49-10.4,14.5,0,18.89,7.6,18.89,19.89v33.19H550V81.89c0-8.79-2.9-15.59-13.1-15.59S521,73.9,520.68,84v30.09h-6.3Z" transform="translate(-10.22 -8.36)"></path> </svg> 