<?xml version="1.0" encoding="UTF-8"?>
<svg width="187px" height="55px" viewBox="0 0 187 55" version="1.1" xmlns="http://www.w3.org/2000/svg" xmlns:xlink="http://www.w3.org/1999/xlink">
    <!-- Generator: Sketch 47.1 (45422) - http://www.bohemiancoding.com/sketch -->
    <title>logo</title>
    <desc>Created with Sketch.</desc>
    <defs></defs>
    <g id="Landing-Page-V2" stroke="none" stroke-width="1" fill="none" fill-rule="evenodd">
        <g id="Landing-page-V2" transform="translate(-44.000000, -41.000000)">
            <g id="logo" transform="translate(44.000000, 41.000000)">
                <path d="M70,18.1873278 L74.9797229,18.1873278 C78.432644,18.1873278 80.8050592,20.3415978 80.8050592,23.4793388 C80.8050592,26.5702479 78.432644,28.7713499 74.9797229,28.7713499 L72.7247541,28.7713499 L72.7247541,34.8126722 L70,34.8126722 L70,18.1873278 Z M74.8622767,26.2424242 C76.8588637,26.2424242 78.0333266,25.1418733 78.0333266,23.4793388 C78.0333266,21.8168044 76.8588637,20.7162534 74.8622767,20.7162534 L72.7247541,20.7162534 L72.7247541,26.2424242 L74.8622767,26.2424242 Z M90.3651877,27.7410468 L88.7914073,27.7410468 L88.7914073,34.8126722 L86.0666533,34.8126722 L86.0666533,18.1873278 L91.4691829,18.1873278 C94.5697651,18.1873278 96.7777555,20.177686 96.7777555,22.9641873 C96.7777555,25.1184573 95.462357,26.8278237 93.3483236,27.4834711 L98.6568962,34.8126722 L95.3918892,34.8126722 L90.3651877,27.7410468 Z M91.210801,25.3760331 C93.0899418,25.3760331 94.0060229,24.4628099 94.0060229,23.0578512 C94.0060229,21.6294766 93.0899418,20.6928375 91.210801,20.6928375 L88.7914073,20.6928375 L88.7914073,25.3760331 L91.210801,25.3760331 Z M101.593054,26.5 C101.593054,21.6997245 105.398314,18 110.119655,18 C114.864485,18 118.646256,21.6997245 118.646256,26.5 C118.646256,31.3002755 114.864485,35 110.119655,35 C105.398314,35 101.593054,31.3002755 101.593054,26.5 Z M115.874523,26.5 C115.874523,23.1749311 113.408151,20.5757576 110.119655,20.5757576 C106.831158,20.5757576 104.364786,23.1749311 104.364786,26.5 C104.364786,29.8250689 106.831158,32.4242424 110.119655,32.4242424 C113.408151,32.4242424 115.874523,29.8250689 115.874523,26.5 Z M127.595664,26.3829201 L121.864284,34.8126722 L125.035334,34.8126722 L129.451315,28.3498623 L133.867296,34.8126722 L136.991367,34.8126722 L131.283477,26.3829201 L136.662518,18.1873278 L133.514957,18.1873278 L129.427826,24.34573 L125.340695,18.1873278 L122.193134,18.1873278 L127.595664,26.3829201 Z M142.112026,18.1873278 L142.112026,34.8126722 L152.001004,34.8126722 L152.001004,32.1432507 L144.83678,32.1432507 L144.83678,27.6942149 L150.591648,27.6942149 L150.591648,25.0716253 L144.83678,25.0716253 L144.83678,20.8567493 L152.001004,20.8567493 L152.001004,18.1873278 L142.112026,18.1873278 Z M157.614937,28.3498623 C157.614937,32.4476584 160.410159,35 164.332865,35 C168.255571,35 171.027304,32.4476584 171.027304,28.3498623 L171.027304,18.1873278 L168.30255,18.1873278 L168.30255,28.4201102 C168.30255,30.9958678 166.70528,32.4242424 164.332865,32.4242424 C161.96045,32.4242424 160.339691,30.9958678 160.339691,28.4201102 L160.339691,18.1873278 L157.614937,18.1873278 L157.614937,28.3498623 Z M176.077494,32.1666667 C177.134511,33.8760331 179.178077,35 181.691427,35 C184.909456,35 187,33.0798898 187,30.2699725 C187,27.9517906 185.449709,26.5 183.171251,25.5165289 L181.879341,24.9311295 C180.211604,24.2286501 179.459948,23.4559229 179.459948,22.3787879 C179.459948,21.231405 180.540454,20.5757576 181.667938,20.5757576 C182.86589,20.5757576 183.617547,21.0206612 184.486649,22.0509642 L186.36579,20.107438 C185.144349,18.6556474 183.617547,18 181.691427,18 C179.154587,18 176.735194,19.7327824 176.735194,22.4022039 C176.735194,24.5564738 177.980124,26.1487603 180.493475,27.2493113 L181.808874,27.8112948 C183.453122,28.5371901 184.228267,29.2630854 184.228267,30.5041322 C184.228267,31.6983471 183.288697,32.4242424 181.667938,32.4242424 C180.211604,32.4242424 178.919695,31.4876033 178.144549,30.4338843 L176.077494,32.1666667 Z" id="PROXEUS" fill="#12318B"></path>
                <g id="Proxeus-logo-blue" fill-rule="nonzero" fill="#062A85">
                    <g id="Group">
                        <path d="M24.9298246,-7.26210028e-15 C25.3238304,0.0723684211 25.753655,0.108552632 26.1476608,0.253289474 C26.5774854,0.398026316 27.0073099,0.542763158 27.4013158,0.759868421 C33.4904971,4.30592105 39.6154971,7.81578947 45.6688596,11.3980263 C47.7105263,12.5921053 48.749269,14.4736842 48.7850877,16.8256579 C48.8209064,23.8815789 48.8209064,30.9375 48.7850877,37.9572368 C48.7850877,40.3092105 47.7105263,42.1907895 45.7046784,43.3848684 C39.6154971,46.9671053 33.5263158,50.4769737 27.4371345,54.0592105 C26.505848,54.6019737 25.502924,54.7828947 24.4283626,54.8190789 C24.4283626,54.7105263 24.3925439,54.6019737 24.3925439,54.4934211 C24.3925439,36.3651316 24.3925439,18.2006579 24.3925439,0.0723684211 C24.3925439,0.0361842105 24.3925439,0.0361842105 24.3925439,-1.1379786e-14 C24.5716374,-7.26210028e-15 24.750731,-7.26210028e-15 24.9298246,-7.26210028e-15 Z" id="Shape"></path>
                        <path d="M0,16.1743421 C0.143274854,15.6677632 0.250730994,15.1611842 0.429824561,14.6907895 C0.680555556,13.9309211 1.21783626,13.0986842 1.68347953,12.6644737 C1.68347953,22.5065789 1.68347953,32.3125 1.68347953,42.2269737 C1.57602339,42.0822368 1.46856725,41.9736842 1.39692982,41.8651316 C0.716374269,40.9605263 0.250730994,39.9473684 0.10745614,38.8256579 C0.10745614,38.7532895 0.0716374269,38.7171053 0.0358187135,38.6447368 C0,31.1546053 0,23.6644737 0,16.1743421 Z" id="Shape"></path>
                        <path d="M22.0285088,54.4210526 C21.4554094,54.0953947 20.9181287,53.8059211 20.380848,53.4802632 C20.3450292,53.4440789 20.3092105,53.3717105 20.2733918,53.2993421 C20.2733918,53.1907895 20.2733918,53.1184211 20.2733918,53.0098684 C20.2733918,35.9671053 20.2733918,18.8881579 20.2733918,1.84539474 C20.2733918,1.51973684 20.3450292,1.33881579 20.6673977,1.19407895 C21.0972222,0.976973684 21.5270468,0.723684211 22.0285088,0.434210526 C22.0285088,18.4539474 22.0285088,36.4013158 22.0285088,54.4210526 Z" id="Shape"></path>
                        <path d="M17.9451754,52.0690789 C17.4078947,51.7434211 16.870614,51.4539474 16.369152,51.1644737 C16.2975146,51.1282895 16.2616959,50.9835526 16.2258772,50.875 C16.1900585,50.8026316 16.2258772,50.7302632 16.2258772,50.6578947 C16.2258772,35.1710526 16.2258772,19.6842105 16.2258772,4.19736842 C16.2258772,3.87171053 16.2975146,3.69078947 16.5840643,3.54605263 C17.0497076,3.32894737 17.4795322,3.03947368 17.9451754,2.75 C17.9451754,19.2138158 17.9451754,35.6052632 17.9451754,52.0690789 Z" id="Shape"></path>
                        <path d="M13.8976608,5.13815789 C13.8976608,20.0098684 13.8976608,34.8092105 13.8976608,49.6809211 C13.8260234,49.6447368 13.754386,49.6447368 13.7185673,49.6085526 C13.2887427,49.3552632 12.8230994,49.1019737 12.3932749,48.8125 C12.2858187,48.7401316 12.25,48.5953947 12.1783626,48.4506579 C12.1425439,48.3782895 12.1783626,48.3059211 12.1783626,48.2335526 C12.1783626,34.375 12.1783626,20.4802632 12.1783626,6.62171053 C12.1783626,6.25986842 12.2858187,6.07894737 12.6081871,5.89802632 C13.002193,5.68092105 13.4320175,5.39144737 13.8976608,5.13815789 Z" id="Shape"></path>
                        <path d="M9.77850877,47.3289474 C9.20540936,47.0032895 8.70394737,46.7138158 8.20248538,46.3881579 C8.13084795,46.3519737 8.09502924,46.2434211 8.05921053,46.1710526 C8.02339181,46.0986842 8.05921053,46.0263158 8.05921053,45.9539474 C8.05921053,33.6151316 8.05921053,21.2763158 8.05921053,8.9375 C8.05921053,8.64802632 8.13084795,8.46710526 8.38157895,8.35855263 C8.84722222,8.10526316 9.27704678,7.85197368 9.77850877,7.5625 C9.77850877,20.8059211 9.77850877,34.0493421 9.77850877,47.3289474 Z" id="Shape"></path>
                        <path d="M5.73099415,9.87828947 C5.73099415,21.6019737 5.73099415,33.2532895 5.73099415,44.9407895 C5.15789474,44.6151316 4.62061404,44.2894737 4.08333333,44 C4.04751462,43.9638158 4.01169591,43.8914474 3.97587719,43.8190789 C3.97587719,43.7467105 3.97587719,43.6381579 3.97587719,43.5657895 C3.97587719,32.8190789 3.97587719,22.0723684 3.97587719,11.3256579 C3.97587719,11.0361842 4.08333333,10.8552632 4.33406433,10.7105263 C4.7997076,10.4572368 5.22953216,10.1677632 5.73099415,9.87828947 Z" id="Shape"></path>
                    </g>
                </g>
            </g>
        </g>
    </g>
</svg>