<svg enable-background="new 0 0 111.1 24.1" viewBox="0 0 111.1 24.1" xmlns="http://www.w3.org/2000/svg"><path d="m12.4 0c-6.7-.1-12.4 5.2-12.4 12 0 6.6 5.4 12.1 12 12.1 6.7 0 12.2-5.4 12.2-12.1 0-6.6-5.4-11.9-11.8-12zm-.3 23.2c-6.1.1-11.3-5-11.2-11.3.1-6.2 5-11.1 11.3-11.1 6.2.1 11.1 5.1 11.1 11.2 0 6.2-5.1 11.2-11.2 11.2z"/><path d="m9.6 14.6v2.8c0 .6.3 1.1.7 1.5.9.7 2.4.8 3.3.1.5-.4.8-.9.8-1.5 0-.7.1-1.3 0-2 0-.4-.1-.9-.2-1.3-.1-.6-.7-1-1.2-1v.3 3.3c0 .3-.1.5-.1.8-.1.4-.5.6-1 .6-.4 0-.8-.2-.9-.6 0-.4 0-.7 0-.9 0-1 0-1.9 0-2.9 0-.2 0-.5 0-.8-.8.2-1.3.9-1.4 1.6z"/><path d="m13.8 11.2c.5-.3.7-.8.7-1.3 0-.8 0-1.5 0-2.3 0-.5-.1-1-.4-1.4-.4-.7-1.1-1-1.8-1-1.4-.2-2.7.7-2.7 2.3v2.1.5c.1.6.5 1 .9 1.3.1.1.2.1.3.2 0-.1 0-.1 0-.2 0-1 0-1.9 0-2.9 0-.4 0-.7.1-1.1.1-.6.5-.9 1-.9.6 0 1 .3 1.1.9v.3 3.9c.4-.2.6-.3.8-.4z"/><path d="m12.7 9.2c0-.3-.1-.4-.4-.4-.1 0-.2 0-.4 0-.4 0-.5.1-.5.5v5.8.2c0 .2.2.4.4.4h.4c.3 0 .5-.1.5-.5 0-1 0-2 0-3s0-2 0-3z"/><path d="m40.6 3.7h1v8.4h-1z"/><path d="m49.1 4.6v7.5h-1v-7.5h-2.8v-.9h6.7v.9z"/><path d="m56.7 5.3v2 4.8h-1v-8.4h1l4.9 6.7s0-1 0-2v-4.7h1v8.4h-1z"/><path d="m70.8 3.7h-1.1l-3.6 8.4h1l.9-2.2h4.2l.9 2.2h1zm-2.3 5.3.9-2.2c.3-.8.8-1.9.8-1.9s.5 1.2.8 2l1.1 2.1z"/><path d="m80.1 4.6v7.5h-1v-7.5h-2.9v-.9h6.7v.9z"/><path d="m86.7 3.7h1v8.4h-1z"/><path d="m95.8 3.5c-2.5 0-4.3 1.7-4.3 4.3s1.9 4.4 4.3 4.4 4.3-1.7 4.3-4.4c0-2.5-1.9-4.3-4.3-4.3zm0 7.8c-1.9 0-3.4-1.3-3.4-3.4s1.5-3.4 3.4-3.4 3.4 1.3 3.4 3.4c-.1 2.1-1.6 3.4-3.4 3.4z"/><path d="m104.8 5.3v2 4.8h-1v-8.4h1l4.9 6.7s0-1 0-2v-4.7h1v8.4h-1z"/><path d="m34.9 7.6c.6-.2 1.3-.7 1.3-1.8 0-1.2-1-2.1-2.5-2.1h-3v5.7h-.5v.6h.5v2h3.2c1.8 0 2.9-.9 2.9-2.3s-1.1-2-1.9-2.1zm-3.2-3.1h1.9c1.1 0 1.7.5 1.7 1.4s-.7 1.4-1.6 1.4h-1.9v-2.8zm2.2 6.7h-2.2v-1.2h1.2v-.6h-1.2v-1.3h2.2c1 0 1.9.6 1.9 1.6s-.8 1.5-1.9 1.5z"/><path d="m34.6 20.4c0-.4 0-.4 0-.5-.3.3-.8.6-1.5.6-1.3 0-2.5-1-2.5-2.6s1.1-2.6 2.5-2.6c1.1 0 1.9.6 2.2 1.4l-.9.3c-.2-.3-.6-.8-1.3-.8-.9 0-1.5.7-1.5 1.7s.7 1.7 1.6 1.7c.7 0 1.2-.4 1.4-.6v-.4h-1.3v-.9h2.2v2.8h-.9z"/><path d="m40.4 15.2c-1.4 0-2.5 1.1-2.5 2.6s1.1 2.6 2.5 2.6 2.5-1.1 2.5-2.6-1.1-2.6-2.5-2.6zm0 4.3c-.9 0-1.6-.6-1.6-1.7 0-1 .7-1.7 1.6-1.7s1.6.6 1.6 1.7c-.1 1.1-.7 1.7-1.6 1.7z"/><path d="m46.6 20.4-1.8-5h1.1l.8 2.5c.3 1 .5 1.5.5 1.5s.2-.5.5-1.5l.8-2.5h1l-1.8 5z"/><path d="m51.9 15.3h3.4v1h-2.5v1h1.9v1h-1.9v1.2h2.5v.9h-3.4z"/><path d="m60.5 18.4c.6-.2 1-.7 1-1.4 0-1-.7-1.7-1.9-1.7h-1.7v5h1v-1.8h.4.3l1 1.8h1.1zm-.8-.6h-.8v-1.5h.8c.5 0 .8.3.8.8s-.3.7-.8.7z"/><path d="m65.1 17v1.3 2.1h-1v-5h1l2.3 3.3s0-.6 0-1.2v-2.1h1v5h-1z"/><path d="m73.7 15.3h-1.1l-1.9 5h1l.4-1h2.2l.4 1h1zm-1.3 3.2.4-1.1c.2-.4.3-.9.3-.9s.2.5.3.9l.4 1.1z"/><path d="m78.9 17v1.3 2.1h-1v-5h1l2.3 3.3s0-.6 0-1.2v-2.1h1v5h-1z"/><path d="m89.5 18.9c-.4 1-1.2 1.6-2.3 1.6-1.4 0-2.5-1.1-2.5-2.6s1.1-2.6 2.5-2.6c1.1 0 1.9.6 2.2 1.4l-.9.3c-.2-.4-.6-.8-1.3-.8-.9 0-1.5.7-1.5 1.7s.6 1.7 1.5 1.7c.7 0 1.2-.4 1.4-.9z"/><path d="m92 15.3h3.4v1h-2.5v1h1.9v1h-1.9v1.2h2.5v.9h-3.4z"/><path d="m100.4 19.2 1.6-1.2c.6-.5.9-.7.9-1.2 0-.4-.3-.8-.8-.8s-.8.3-.8.7l-.9-.2c.1-.8.6-1.3 1.8-1.3s1.8.6 1.8 1.5-.5 1.4-1.3 1.9l-1 .8h.7 1.7v.9h-3.5v-1.1z"/><path d="m105.2 19.9c0-.3.2-.5.5-.5s.5.2.5.5-.2.5-.5.5-.5-.2-.5-.5z"/><path d="m109.1 15.2c-1.4 0-1.9 1.2-1.9 2.6 0 1.5.5 2.6 1.9 2.6s1.9-1.1 1.9-2.6c.1-1.4-.4-2.6-1.9-2.6zm0 4.3c-.8 0-1-.7-1-1.7s.2-1.7 1-1.7 1 .7 1 1.7c0 1.1-.2 1.7-1 1.7z"/></svg>