<svg id="Layer_1" data-name="Layer 1" xmlns="http://www.w3.org/2000/svg" viewBox="0 0 866.06 805.02"><defs><style>.cls-1{fill:#fff;}</style></defs><title>logo</title><polygon class="cls-1" points="414.14 207.16 414.14 416.07 433.52 404.75 452.08 415.53 452.08 207.7 433.52 218.48 414.14 207.16"/><path class="cls-1" d="M627.26,108.88,512.53,174.51V149.74L605,96,438.68,0l-161,93,87.17,55.52v25.64L256,105.45l-86.47,49.92V466.5l30.3,17.5L438.68,621.88l241-139.13L707.8,466.5V155.37Zm-228.55-7.49,39.89,22,40.06-23.06v29.85l-39.07,22.68L398.71,129ZM203.44,238.89,251,211.41l60.44,35.1V376L203.44,443.49ZM364.83,473.38l-57.26,33.68L285.81,494.5l79-47.35Zm113.83,46.4L438.6,496.72l-39.89,22V492.83L439.59,469l39.07,22.67Zm93.19-13.9-59.32-33.74v-26.3l80.24,48Zm54.78-31.63-114.1-67.6V241.48l-33.87,20.21V452.47l-39.12-22.7-40.83,23.84V263.35L364.83,242.1V407.9L252,475l-19.42-11.22,112.66-69.55V229.83L284,191.38l21.74-12.85,59.11,34.84,33.88,20.44V168.27l40.83,23.84,39.12-22.71V234L573,178.69l22.28,13.45-63.64,38V394.23h0l96.15,56.51,19.16,11.81Zm47.29-31.15-108.46-68V248.59l62.68-36.31L673.92,239Z" transform="translate(-5.65)"/><path class="cls-1" d="M57.49,733.36,76.7,692.05h32.63L72.66,760V803.5H42.32V760.88L5.65,692.05H38.43Z" transform="translate(-5.65)"/><path class="cls-1" d="M166.12,738.24h48.1v60.07A132,132,0,0,1,171.15,805q-25.77,0-39.83-14.94t-14.06-42.61q0-27,15.39-42t43.15-15a95.67,95.67,0,0,1,19.86,2,83.93,83.93,0,0,1,16.27,5l-9.52,23.63A59,59,0,0,0,176,715.15q-13.19,0-20.39,8.57t-7.2,24.51q0,15.63,6.52,23.82t18.79,8.2A54.88,54.88,0,0,0,186,779V761.49h-19.9Z" transform="translate(-5.65)"/><path class="cls-1" d="M281.69,738.24h48.1v60.07A132,132,0,0,1,286.72,805q-25.77,0-39.83-14.94t-14.07-42.61q0-27,15.4-42t43.15-15a95.67,95.67,0,0,1,19.86,2,83.93,83.93,0,0,1,16.27,5L318,721.09a59,59,0,0,0-26.45-5.94q-13.18,0-20.39,8.57t-7.21,24.51q0,15.63,6.52,23.82t18.79,8.2a54.81,54.81,0,0,0,12.35-1.3V761.49H281.69Z" transform="translate(-5.65)"/><path class="cls-1" d="M447.11,745.41q0,27.9-15.36,43t-43.19,15.1H352.5V692.05h38.58q26.82,0,41.43,13.72T447.11,745.41Zm-31.26,1.07q0-15.33-6.06-22.72t-18.41-7.4h-8.76V778.8h6.7q13.73,0,20.13-8T415.85,746.48Z" transform="translate(-5.65)"/><path class="cls-1" d="M497.19,762.94V803.5H467.08V692.05h36.51Q549,692.05,549,725q0,19.37-18.91,30L562.6,803.5H528.44l-23.63-40.56Zm0-22.64h5.64q15.78,0,15.78-13.95,0-11.51-15.47-11.51h-5.95Z" transform="translate(-5.65)"/><path class="cls-1" d="M641.11,803.5l-5.48-20.89H599.42l-5.65,20.89H560.69l36.36-111.91h40.18L674.05,803.5Zm-11.74-45.59-4.8-18.3q-1.68-6.09-4.08-15.77T617.33,710q-.69,3.88-2.71,12.81t-9,35.14Z" transform="translate(-5.65)"/><path class="cls-1" d="M759,769.65a32.93,32.93,0,0,1-5.26,18.41,34.49,34.49,0,0,1-15.17,12.5Q728.63,805,715.29,805a94.25,94.25,0,0,1-18.68-1.56,69.2,69.2,0,0,1-15.7-5.45V771.17a89.34,89.34,0,0,0,17.91,6.9,66.39,66.39,0,0,0,17.08,2.48q6.71,0,9.83-2.32a7.17,7.17,0,0,0,3.13-6,6.57,6.57,0,0,0-1.26-4,14.82,14.82,0,0,0-4-3.47q-2.79-1.75-14.83-7.16-10.9-5-16.35-9.61a29.52,29.52,0,0,1-8.08-10.67,35.52,35.52,0,0,1-2.63-14.26q0-15.39,11.21-24t30.79-8.61q17.31,0,35.3,8l-9.23,23.25q-15.63-7.17-27-7.16c-3.92,0-6.76.68-8.54,2.05a6.24,6.24,0,0,0-2.67,5.11c0,2.19,1.13,4.14,3.39,5.87s8.4,4.88,18.41,9.45q14.42,6.48,20,13.92T759,769.65Z" transform="translate(-5.65)"/><path class="cls-1" d="M871.71,803.5H841.45V758.06h-35V803.5H776.2V692.05h30.26v41.31h35V692.05h30.26Z" transform="translate(-5.65)"/></svg>