<?xml version="1.0" encoding="UTF-8" standalone="no"?>
<!-- Created with Inkscape (http://www.inkscape.org/) -->

<svg
   xmlns:dc="http://purl.org/dc/elements/1.1/"
   xmlns:cc="http://creativecommons.org/ns#"
   xmlns:rdf="http://www.w3.org/1999/02/22-rdf-syntax-ns#"
   xmlns:svg="http://www.w3.org/2000/svg"
   xmlns="http://www.w3.org/2000/svg"
   xmlns:sodipodi="http://sodipodi.sourceforge.net/DTD/sodipodi-0.dtd"
   xmlns:inkscape="http://www.inkscape.org/namespaces/inkscape"
   width="300"
   height="300"
   viewBox="0 0 300 300"
   id="svg4161"
   version="1.1"
   inkscape:version="0.91 r13725"
   sodipodi:docname="YUP.svg"
   inkscape:export-filename="D:\Crowdholding GDrive\Crowdholding\Art &amp; Design\Main icon\iconbig.png"
   inkscape:export-xdpi="307.19998"
   inkscape:export-ydpi="307.19998">
  <defs
     id="defs4163" />
  <sodipodi:namedview
     id="base"
     pagecolor="#ffffff"
     bordercolor="#666666"
     borderopacity="1.0"
     inkscape:pageopacity="0.0"
     inkscape:pageshadow="2"
     inkscape:zoom="1.4"
     inkscape:cx="97.5"
     inkscape:cy="134.28571"
     inkscape:document-units="px"
     inkscape:current-layer="layer1"
     showgrid="false"
     units="px"
     inkscape:window-width="1366"
     inkscape:window-height="705"
     inkscape:window-x="-8"
     inkscape:window-y="-8"
     inkscape:window-maximized="1"
     inkscape:snap-bbox="true"
     inkscape:bbox-nodes="true"
     inkscape:snap-grids="false"
     inkscape:snap-page="true">
    <inkscape:grid
       type="xygrid"
       id="grid4136" />
  </sodipodi:namedview>
  <metadata
     id="metadata4166">
    <rdf:RDF>
      <cc:Work
         rdf:about="">
        <dc:format>image/svg+xml</dc:format>
        <dc:type
           rdf:resource="http://purl.org/dc/dcmitype/StillImage" />
        <dc:title />
      </cc:Work>
    </rdf:RDF>
  </metadata>
  <g
     inkscape:label="Layer 1"
     inkscape:groupmode="layer"
     id="layer1"
     transform="translate(0,-752.36216)">
    <g
       id="g4152"
       transform="matrix(-1.0094212,0,0,-1.008573,299.7981,1813.9479)">
      <circle
         style="fill:#ff3b3f;fill-opacity:1"
         r="148.60001"
         cy="903.96216"
         cx="148.39999"
         class="st0"
         id="XMLID_2_-5" />
      <path
         style="fill:#ffffff;stroke:#ffffff;stroke-width:0.5"
         inkscape:connector-curvature="0"
         d="m 118.4,897.56219 c -5.6,-4.2 -12.3,-7.5 -19.600002,-7.5 -14.6,0 -26.1,11.3 -26.1,26.1 0,15.4 11.1,26.3 26.7,26.3 6.700002,0 14.000002,-2.7 19.000002,-7.3 l 0,32.1 c -8.3,4.2 -17.5,6 -26.700002,6 -31.7,0 -58.2,-23.6 -58.2,-55.9 0,-34.4 26.3,-58.2 59.9,-58.2 8.800002,0 17.500002,2.1 25.000002,6.3 l 0,32.1 z"
         class="st1"
         id="XMLID_4_-8" />
      <path
         style="fill:#ffffff;stroke:#ffffff;stroke-width:0.5"
         inkscape:connector-curvature="0"
         d="m 209.3,858.56219 c -14.8,0 -25.4,5.4 -34.2,17.1 l -0.4,0 0,-63.2 0,0 0,-54.8 c -8.5,-1.5 -17.3,-2.3 -26.3,-2.3 -3.9,0 -7.8,0.2 -11.7,0.5 l 0,40.2 0,16.5 0,156.6 38,0 0,-54.9 c 0,-12.5 4.8,-25.4 19.8,-25.4 15.2,0 17.1,12.9 17.1,25.4 l 0,45.1 0,9.8 0,69.30001 c 14,-6.6 26.8,-15.3 38,-25.7 l 0,-43.60001 0,-9.8 0,-55.7 c -0.1,-27.2 -13.2,-45.1 -40.3,-45.1 z"
         class="st1"
         id="XMLID_3_-4" />
    </g>
  </g>
</svg>
