<svg id="Layer_1" data-name="Layer 1" xmlns="http://www.w3.org/2000/svg" viewBox="0 0 617.69 127.43"><defs><style>.cls-1{fill:#fff;}</style></defs><title>0chain Text Logo White</title><path class="cls-1" d="M194.29,95.38a2.4,2.4,0,0,0-1.72-.7,2.57,2.57,0,0,0-1.77.81,58.92,58.92,0,0,1-5.87,4.76,31.84,31.84,0,0,1-6.24,3.42,36.32,36.32,0,0,1-7.47,2.13,54,54,0,0,1-9.41.74,39.6,39.6,0,0,1-15.22-2.9,34.41,34.41,0,0,1-12.08-8.37,39.28,39.28,0,0,1-8-13.41,52.4,52.4,0,0,1-2.93-18.07,51.34,51.34,0,0,1,3-17.88,39.27,39.27,0,0,1,8.17-13.44A35.4,35.4,0,0,1,147.09,24a41.9,41.9,0,0,1,16-3,45.6,45.6,0,0,1,8.46.7,40.48,40.48,0,0,1,6.53,1.75,27.53,27.53,0,0,1,4.75,2.21c1.35.83,2.5,1.59,3.39,2.27s1.69,1.3,2.23,1.76A4.26,4.26,0,0,0,191,30.91a2.58,2.58,0,0,0,2-1l.33-.52L193,27a65.2,65.2,0,0,0-6.37-4.75,36.25,36.25,0,0,0-6.79-3.48,38.78,38.78,0,0,0-7.68-2.06,57.06,57.06,0,0,0-9.08-.66,47.12,47.12,0,0,0-18.19,3.44,41.1,41.1,0,0,0-14.24,9.81,44.59,44.59,0,0,0-9.17,15.15,56.07,56.07,0,0,0-3.23,19.37,57.51,57.51,0,0,0,3.23,19.78,44,44,0,0,0,9.08,15.09,39.69,39.69,0,0,0,13.85,9.58,45,45,0,0,0,17.39,3.32,54.06,54.06,0,0,0,10.56-1,45.81,45.81,0,0,0,8.83-2.67,40.93,40.93,0,0,0,7.42-4.11,49.92,49.92,0,0,0,6.29-5.22l-.06-2.73Z"/><polygon class="cls-1" points="308.1 17.05 306.23 18.91 306.23 60.51 246.89 60.51 246.89 18.91 245.02 17.05 243.48 17.05 241.61 18.91 241.61 108.66 243.48 110.53 245.02 110.53 246.89 108.66 246.89 65.66 306.23 65.66 306.23 108.66 308.1 110.53 309.64 110.53 311.51 108.66 311.51 18.91 309.64 17.05 308.1 17.05"/><path class="cls-1" d="M390.68,17.38h-1.29l-1.72,1.15-37.44,89.75,1.72,2.59h1a2.7,2.7,0,0,0,2.65-1.86L390,26.38,424.44,109a2.61,2.61,0,0,0,2.52,1.86h1.15l1.73-2.59L392.4,18.53Z"/><polygon class="cls-1" points="472.99 17.05 471.12 18.91 471.12 108.66 472.99 110.53 474.53 110.53 476.4 108.66 476.4 18.91 474.53 17.05 472.99 17.05"/><path class="cls-1" d="M599.67,17.05h-1.28l-1.87,1.86v81.22L536.46,18.36A2.87,2.87,0,0,0,534,17.05h-.51l-1.87,1.86v89.75l1.87,1.87h1.29l1.86-1.87V27.13l60.4,82.17a2.69,2.69,0,0,0,2.23,1.23h.38l1.87-1.87V18.91Z"/><path class="cls-1" d="M71.52,27.91a29.6,29.6,0,0,0-10.84-9,30.63,30.63,0,0,0-26.23,0,29.63,29.63,0,0,0-10.85,9,45.65,45.65,0,0,0-7.17,14.92,75.12,75.12,0,0,0-2.61,21,75,75,0,0,0,2.61,20.94,45.25,45.25,0,0,0,7.18,14.9,29.44,29.44,0,0,0,10.85,8.94,31,31,0,0,0,26.21,0,29.6,29.6,0,0,0,10.85-8.94,45.55,45.55,0,0,0,7.18-14.9,75.09,75.09,0,0,0,2.61-20.94,75.12,75.12,0,0,0-2.61-21A45.66,45.66,0,0,0,71.52,27.91Zm-24,78.28a24.75,24.75,0,0,1-10.79-2.43,24.17,24.17,0,0,1-8.2-6.59L69,34.06a44.7,44.7,0,0,1,4.29,10.36,71.35,71.35,0,0,1,2.32,19.36,71.22,71.22,0,0,1-2.32,19.35A40.09,40.09,0,0,1,67.15,96.3a24.22,24.22,0,0,1-8.84,7.46A24.49,24.49,0,0,1,47.56,106.19ZM21.68,83.13a71.24,71.24,0,0,1-2.33-19.35,71.32,71.32,0,0,1,2.33-19.36,40.18,40.18,0,0,1,6.2-13.2A24.47,24.47,0,0,1,58.3,23.69a23.73,23.73,0,0,1,7.6,6l-40.37,63A45.09,45.09,0,0,1,21.68,83.13Z"/></svg>