<?xml version="1.0" encoding="utf-8"?>
<!-- Generator: Adobe Illustrator 22.0.1, SVG Export Plug-In . SVG Version: 6.00 Build 0)  -->
<!DOCTYPE svg PUBLIC "-//W3C//DTD SVG 1.1//EN" "http://www.w3.org/Graphics/SVG/1.1/DTD/svg11.dtd">
<svg version="1.1" id="Layer_1" xmlns="http://www.w3.org/2000/svg" xmlns:xlink="http://www.w3.org/1999/xlink" x="0px" y="0px"
	 viewBox="0 0 107.5 122" style="enable-background:new 0 0 107.5 122;" xml:space="preserve">
<style type="text/css">
	.st0{fill-rule:evenodd;clip-rule:evenodd;fill:#FDD627;}
	.st1{clip-path:url(#SVGID_2_);fill-rule:evenodd;clip-rule:evenodd;fill:#F05369;}
	.st2{clip-path:url(#SVGID_2_);fill-rule:evenodd;clip-rule:evenodd;fill:#2EABE2;}
	.st3{fill-rule:evenodd;clip-rule:evenodd;fill:#FFFFFF;}
	.st4{fill:#414242;}
</style>
<g>
	<circle class="st0" cx="55.9" cy="40.7" r="36.7"/>
	<g>
		<defs>
			<circle id="SVGID_1_" cx="55.9" cy="40.7" r="36.7"/>
		</defs>
		<clipPath id="SVGID_2_">
			<use xlink:href="#SVGID_1_"  style="overflow:visible;"/>
		</clipPath>
		<polygon class="st1" points="91.5,19.8 69,39.5 76.4,51 89,62.3 99.4,60.9 100.3,31.9 		"/>
		<polygon class="st2" points="20.8,62 43.3,42.3 35.9,30.8 23.3,19.5 12.9,20.9 12,49.9 		"/>
	</g>
	<path class="st3" d="M55.9,54.7L36.7,74l-14-14l19.3-19.3l-19-19l14-14l19,19L75.1,7.5l14,14L70,40.7l19.3,19.3l-14,14L55.9,54.7z"
		/>
</g>
<g>
	<g>
		<path class="st4" d="M28.4,92.6v-4.9H2v6.6l16.6-0.1L1.7,115.3v5h26.9l0-6.2H11.3L28.4,92.6z M98.1,107.4l8-12.2h-7.8l-4.9,7.6
			l-4.6-7.6h-8.2l8.1,12.3L80,120.3h7.9l5.5-8.2l5,8.2h8.2L98.1,107.4z M41.5,95c-7.6,0-12.9,5.1-12.9,12.9
			c0,7.6,5.1,12.7,13.1,12.7c4.5,0,7.4-1.2,9.9-4l-3.8-3.8c-1.7,1.7-3.6,2.5-5.9,2.5c-3.2,0-5.6-1.8-6.5-5h18
			C54.1,101.1,50.3,95,41.5,95z M35.3,105.5c0.6-3.3,3.1-4.9,6.3-4.9c3.3,0,5.1,1.6,5.2,4.9H35.3z M68.8,115.2c-3.2,0-5.6-1.8-6.5-5
			h18c0.6-9.1-3.1-15.2-11.9-15.2c-7.6,0-12.9,5.1-12.9,12.9c0,7.6,5.1,12.7,13.1,12.7c4.5,0,7.4-1.2,9.9-4l-3.8-3.8
			C73,114.4,71.2,115.2,68.8,115.2z M68.5,100.6c3.3,0,5.1,1.6,5.2,4.9H62.2C62.8,102.2,65.3,100.6,68.5,100.6z"/>
	</g>
</g>
</svg>
