<?xml version="1.0" encoding="UTF-8"?>
<svg width="96px" height="28px" viewBox="0 0 96 28" version="1.1" xmlns="http://www.w3.org/2000/svg" xmlns:xlink="http://www.w3.org/1999/xlink">
    <!-- Generator: Sketch 52.6 (67491) - http://www.bohemiancoding.com/sketch -->
    <title>Shape</title>
    <desc>Created with Sketch.</desc>
    <g id="Page-1" stroke="none" stroke-width="1" fill="none" fill-rule="evenodd">
        <g id="zilla-logo" fill="#FFFFFF">
            <path d="M21.1971151,24.897876 C17.786012,24.6691987 15.2362602,24.5548601 13.546589,24.5548601 C8.73801363,24.5548601 5.10077417,24.7187455 2.63105935,25.0465162 L0,25.4403494 L11.3538278,10.4302256 C9.17758221,10.4632568 7.23636604,10.783405 5.53017932,11.3893999 C3.82526302,11.9966651 2.66409052,12.5963078 2.04539138,13.1857871 L1.12051876,14.0712764 C1.23508917,11.6058377 1.63584627,9.1620721 2.31472242,6.78917488 C2.98042745,4.4935089 3.62199431,2.83686892 4.23942301,1.81925495 L5.11601932,0.294739628 C5.44124926,0.490385761 6.13998544,0.762257659 7.21222788,1.10654403 C8.28447032,1.44955998 9.48629657,1.68840071 10.8177066,1.81925495 C13.5796202,2.04793224 15.9337259,2.16354132 17.8838351,2.16354132 C19.8326739,2.16354132 21.9123668,2.04920267 24.1216436,1.82052538 L13.546589,17.8622378 C15.2542836,17.7264289 16.9265836,17.3020177 18.4923708,16.6070535 C20.1007345,15.9019652 21.2784226,15.2375306 22.0254351,14.6137498 L23.1459538,13.6304374 C21.8475749,18.3869252 21.1971151,22.1423146 21.1971151,24.8991464 L21.1971151,24.897876 Z M28.1171442,0.294739628 C30.3594521,0.91725005 33.3805333,1.42542182 37.1816582,1.82052538 C35.7206643,7.29861708 34.5823596,12.2126381 33.7705552,16.5575068 C32.9574803,20.9036459 32.503937,23.898048 32.4061139,25.5381724 L32.2600146,27.9494475 C29.7902997,27.1948124 27.4349236,25.735089 25.1938861,23.5702772 C25.3882618,19.830133 25.7300073,16.0163038 26.2165818,12.1300602 C26.7044267,8.24254615 27.1439952,5.29769073 27.5327466,3.29676438 L28.1171442,0.294739628 Z M35.9633164,24.8000529 C38.3669688,14.8932442 39.5687951,9.49646 39.5687951,8.61097069 C39.5687951,6.77392973 39.5052736,5.26465956 39.3744194,4.08443062 L39.2778667,3.49368094 C39.5700655,3.29676438 40.0325018,3.03378548 40.6664461,2.70601469 C41.29912,2.3782439 42.8096606,1.90183286 45.1980679,1.27932244 C47.5864752,0.656812016 50.2416727,0.229947727 53.1649309,4.4408921e-16 C50.8908622,4.5926024 48.6167935,10.5623503 46.3427248,17.9105141 C47.8049891,17.9105141 49.103368,17.7707669 50.2429432,17.4925428 C51.3787071,17.2130484 52.1574803,16.9437173 52.5805333,16.6807384 L53.2144776,16.238629 L51.2656389,26.3258387 C47.204076,25.5712036 42.899861,25.0947926 38.3504533,24.897876 L35.9620459,24.8000529 L35.9633164,24.8000529 Z M53.8966982,24.8000529 C56.3003507,14.8932442 57.5021769,9.49646 57.5021769,8.61097069 C57.5021769,6.77392973 57.4386555,5.26465956 57.3078012,4.08443062 L57.2099782,3.49368094 C57.5021769,3.29676438 57.9658837,3.03378548 58.5985575,2.70601469 C59.2325018,2.3782439 60.7430424,1.90183286 63.1314497,1.27932244 C65.5198571,0.656812016 68.1750546,0.229947727 71.0983127,4.4408921e-16 C68.824244,4.5926024 66.5501753,10.5623503 64.2761067,17.9105141 C65.7371005,17.9105141 67.0380202,17.7707669 68.1750546,17.4925428 C69.3120889,17.2130484 70.0908622,16.9437173 70.5139152,16.6807384 L71.146589,16.238629 L69.1977503,26.3258387 C65.1374578,25.5712036 60.8319725,25.0947926 56.2838351,24.897876 L53.8954278,24.8000529 L53.8966982,24.8000529 Z M94.2950837,0.196916562 C94.2259943,2.21360386 94.1933812,4.23137569 94.1972606,6.24924237 C94.1972606,8.51314762 94.3192219,11.1454774 94.5631443,14.1462317 C94.8045259,17.1482565 95.1068881,19.2406537 95.4651492,20.4208827 L96,22.1423146 C93.822484,23.8815325 90.7861576,25.7681202 86.8872097,27.8020777 C86.9202409,26.6205783 86.935486,25.4555945 86.935486,24.3083967 C86.935486,23.1599285 86.9202409,22.0444915 86.8872097,20.9620856 C85.5875604,21.1907629 84.3298352,21.306372 83.1114934,21.306372 C81.8918812,21.306372 80.8933236,21.2898564 80.11328,21.2568252 C79.6597367,22.5691789 79.0257924,24.5701052 78.213988,27.2608747 C77.0439225,26.6701251 75.7607887,25.7592272 74.3633164,24.5294515 C72.965844,23.2996758 71.8783564,22.0775227 71.0983127,20.8629921 C72.1057633,19.8466486 73.0319063,18.4034407 73.8754714,16.5333686 C75.6959968,12.629339 77.3526368,8.00370542 78.8466618,2.65646794 C85.864514,2.13178059 91.0135645,1.3123536 94.2950837,0.196916562 Z M85.864514,7.87285119 C84.6296566,9.74292331 83.1356316,13.0053861 81.3798981,17.6653212 C82.0633891,17.6983524 83.8496129,17.714868 86.7411103,17.714868 C86.5467346,14.3024945 86.3028121,11.4160789 86.0106134,9.05435056 L85.864514,7.87285119 Z" id="Shape"></path>
        </g>
    </g>
</svg>