<?xml version="1.0" encoding="UTF-8"?> <svg xmlns="http://www.w3.org/2000/svg" xmlns:xlink="http://www.w3.org/1999/xlink" width="186" height="32" viewBox="0 0 186 32"> <title>Union</title> <desc>Created using Figma</desc> <g id="Canvas" transform="translate(2051 406)"> <g id="Union"> <use xlink:href="#path0_fill" transform="translate(-2051 -406)" fill="#FFFFFF"></use> </g> </g> <defs> <path id="path0_fill" fill-rule="evenodd" d="M 26.8506 9.24338L 0 32L 0 22.8537L 26.8506 0L 26.8506 9.24338ZM 52.3261 1.89233L 79.2008 1.89233L 79.2008 9.07352L 52.3261 9.07352L 52.3261 1.89233ZM 52.3261 23.0235L 79.2008 23.0235L 79.2008 30.2047L 52.3261 30.2047L 52.3261 23.0235ZM 79.2008 12.6884L 52.3261 12.6884L 52.3261 19.3116L 79.2008 19.3116L 79.2008 12.6884ZM 19.1549 2.0379L 0 2.0379L 0 9.07355L 11.3868 9.04929L 19.1549 2.0379ZM 26.8506 30.326L 7.55096 30.326L 16.091 22.8537L 26.8506 22.8537L 26.8506 30.326ZM 159.149 0L 159.149 9.24338L 186 32L 186 22.8537L 159.149 0ZM 174.613 9.04929L 166.845 2.0379L 186 2.0379L 186 9.07355L 174.613 9.04929ZM 159.149 22.8537L 159.149 30.326L 178.449 30.326L 169.909 22.8537L 159.149 22.8537ZM 118.258 24.4306C 123.831 24.4306 126.051 19.9666 126.051 14.0227L 126.051 1.89233L 134.518 1.89233L 134.518 14.0227C 134.518 23.9211 128.632 31.2722 118.234 31.2722C 107.571 31.2722 102.023 23.9211 102.023 14.0227L 102.023 1.89233L 110.539 1.89233L 110.539 14.0227C 110.539 19.9666 112.686 24.4306 118.258 24.4306Z"></path> </defs> </svg> 