<svg xmlns="http://www.w3.org/2000/svg" viewBox="0 0 40 40"><linearGradient id="a" gradientUnits="userSpaceOnUse" x1="-2.604" y1="20.822" x2="34.688" y2="20.822" gradientTransform="rotate(90 18.432 22.39)"><stop offset="0" stop-color="#00caff"/><stop offset="1" stop-color="#005fff"/></linearGradient><path d="M37 26.3V13.7c0-2.1-1.1-4.1-3-5.2L23 2.2c-1.9-1.1-4.1-1.1-6 0L6 8.5c-1.9 1.1-3 3.1-3 5.2v12.6c0 2.1 1.1 4.1 3 5.2l11 6.3c1.9 1.1 4.1 1.1 6 0l11-6.3c1.8-1.1 3-3 3-5.2z" fill="url(#a)"/><path d="M20.6 9.5v11.6l5.5 6 3.1-1.7zm-1.2 0l-8.6 15.9 3.1 1.7 5.5-6zm-4.3 18.2l4.9 2.8 4.9-2.8-4.9-5.3z" fill="#fff"/></svg>